M48
;Layer_Color=9474304
;FILE_FORMAT=4:2
METRIC,LZ
;TYPE=PLATED
T1F00S00C0.50
T2F00S00C0.90
T3F00S00C1.00
T4F00S00C1.40
T5F00S00C3.00
;TYPE=NON_PLATED
T6F00S00C3.00
%
T01
X-007962Y-001602
X-006818Y-001608
X-005685Y-001605
X-00456Y-001602
X-00506Y000412
X-003775Y000522
X-006308Y000512
T02
X-010087Y-0006
X-009833
X-009579
X-009325
X-008314Y-000408
X-00806
X-007514
X-00726
X-006714
X-00646
X-005914
X-00566
X-005312Y-000227
X-005058
X-004804
X-00455
X-004296
X-004042
X-003788
X-003227Y-000381
X-002973
X-002427
X-002173
X-001627
X-001373
X-000827
X-000573
X0002Y-001238
Y-001492
Y-001746
Y-002
X-000573Y000381
X-000827
X-001373
X-001627
X-002173
X-002427
X-002973
X-003227
X-003788Y000027
X-004042
X-004296
X-00455
X-004804
X-005058
X-005312
X-00566Y000354
X-005914
X-00646
X-006714
X-00726
X-007514
X-00806
X-008314
T03
X-010388Y-001359
X-010133
X-010261Y-001105
X-010007
X-00925Y-001359
X-008996
X-008869Y-001105
X-009123
X-007608Y-001102
X-007354
X-007481Y-001356
X-007735
X-006595
X-006341
X-006468Y-001102
X-006214
X-005331
X-005458Y-001356
X-005203
X-005076Y-001102
X-004196
X-003942
X-004069Y-001356
X-004322
T04
X-003299Y-002002
X-00295
X-0026
X-00225
X-0019
X-001549
X-001199
X-000849
T05
X0Y0
X-0095Y0
T06
X-01058Y-001994
X-009814
X-009443
X-008676
X-007928Y-001992
X-007161
X-006788
X-006022
X-00565
X-004884
X-004515
X-003749
M30
