G04 Layer_Color=8388736*
%FSLAX42Y42*%
%MOMM*%
G71*
G01*
G75*
%ADD26C,1.70*%
%ADD28R,1.70X1.70*%
%ADD33R,1.20X1.20*%
G04:AMPARAMS|DCode=34|XSize=0.9mm|YSize=1.5mm|CornerRadius=0.28mm|HoleSize=0mm|Usage=FLASHONLY|Rotation=270.000|XOffset=0mm|YOffset=0mm|HoleType=Round|Shape=RoundedRectangle|*
%AMROUNDEDRECTD34*
21,1,0.90,0.95,0,0,270.0*
21,1,0.35,1.50,0,0,270.0*
1,1,0.55,-0.47,-0.17*
1,1,0.55,-0.47,0.17*
1,1,0.55,0.47,0.17*
1,1,0.55,0.47,-0.17*
%
%ADD34ROUNDEDRECTD34*%
G04:AMPARAMS|DCode=35|XSize=1.1mm|YSize=1.5mm|CornerRadius=0.33mm|HoleSize=0mm|Usage=FLASHONLY|Rotation=0.000|XOffset=0mm|YOffset=0mm|HoleType=Round|Shape=RoundedRectangle|*
%AMROUNDEDRECTD35*
21,1,1.10,0.85,0,0,0.0*
21,1,0.45,1.50,0,0,0.0*
1,1,0.65,0.23,-0.42*
1,1,0.65,-0.23,-0.42*
1,1,0.65,-0.23,0.42*
1,1,0.65,0.23,0.42*
%
%ADD35ROUNDEDRECTD35*%
G04:AMPARAMS|DCode=36|XSize=0.9mm|YSize=1.5mm|CornerRadius=0.28mm|HoleSize=0mm|Usage=FLASHONLY|Rotation=0.000|XOffset=0mm|YOffset=0mm|HoleType=Round|Shape=RoundedRectangle|*
%AMROUNDEDRECTD36*
21,1,0.90,0.95,0,0,0.0*
21,1,0.35,1.50,0,0,0.0*
1,1,0.55,0.17,-0.47*
1,1,0.55,-0.17,-0.47*
1,1,0.55,-0.17,0.47*
1,1,0.55,0.17,0.47*
%
%ADD36ROUNDEDRECTD36*%
%ADD37C,6.20*%
%ADD38C,1.70*%
%ADD39R,1.70X1.70*%
%ADD40R,1.70X1.70*%
%ADD41C,1.90*%
%ADD42C,3.20*%
%ADD43R,1.90X1.90*%
%ADD44O,2.20X3.20*%
%ADD45C,1.20*%
D26*
X-10087Y-600D02*
D03*
X-9833D02*
D03*
X-9579D02*
D03*
X200Y-1238D02*
D03*
Y-1492D02*
D03*
Y-1746D02*
D03*
X-5312Y27D02*
D03*
X-5058D02*
D03*
X-4804D02*
D03*
X-4550D02*
D03*
X-4296D02*
D03*
X-4042D02*
D03*
X-3788D02*
D03*
Y-227D02*
D03*
X-4296D02*
D03*
X-4804D02*
D03*
X-5058D02*
D03*
X-4550D02*
D03*
X-4042D02*
D03*
D28*
X-9325Y-600D02*
D03*
X-5312Y-227D02*
D03*
D33*
X-7432Y-2002D02*
D03*
X-7642D02*
D03*
X-6307D02*
D03*
X-6517D02*
D03*
X-5157D02*
D03*
X-5367D02*
D03*
X-4027D02*
D03*
X-4237D02*
D03*
D34*
X-8387Y-837D02*
D03*
Y-617D02*
D03*
X-7587Y-837D02*
D03*
Y-617D02*
D03*
X-8589Y301D02*
D03*
Y520D02*
D03*
X-7789Y301D02*
D03*
Y520D02*
D03*
X-6989Y301D02*
D03*
Y520D02*
D03*
X-6787Y-862D02*
D03*
Y-642D02*
D03*
X-6190Y301D02*
D03*
Y520D02*
D03*
X-5988Y-860D02*
D03*
Y-640D02*
D03*
X-10482Y-638D02*
D03*
Y-857D02*
D03*
X-3500Y340D02*
D03*
Y560D02*
D03*
X-2700Y340D02*
D03*
Y560D02*
D03*
X-1900Y340D02*
D03*
Y560D02*
D03*
X-1100Y340D02*
D03*
Y560D02*
D03*
X-3300Y-810D02*
D03*
Y-590D02*
D03*
X-2500Y-810D02*
D03*
Y-590D02*
D03*
X-1700Y-810D02*
D03*
Y-590D02*
D03*
X-900Y-810D02*
D03*
Y-590D02*
D03*
D35*
X-7992Y-652D02*
D03*
X-8182D02*
D03*
X-7192D02*
D03*
X-7382D02*
D03*
X-6392Y-677D02*
D03*
X-6582D02*
D03*
X-5592D02*
D03*
X-5782D02*
D03*
X-455Y-650D02*
D03*
X-645D02*
D03*
X-1255D02*
D03*
X-1445D02*
D03*
X-2055D02*
D03*
X-2245D02*
D03*
X-2855D02*
D03*
X-3045D02*
D03*
D36*
X-8890Y-850D02*
D03*
X-9110D02*
D03*
D37*
X-9500Y0D02*
D03*
X0Y0D02*
D03*
D38*
X-573Y381D02*
D03*
X-827D02*
D03*
X-573Y-381D02*
D03*
X-1373Y381D02*
D03*
X-1627D02*
D03*
X-1373Y-381D02*
D03*
X-2173Y381D02*
D03*
X-2427D02*
D03*
X-2173Y-381D02*
D03*
X-2973Y381D02*
D03*
X-3227D02*
D03*
X-2973Y-381D02*
D03*
X-8060Y354D02*
D03*
X-8314D02*
D03*
X-8060Y-408D02*
D03*
X-7260Y354D02*
D03*
X-7514D02*
D03*
X-7260Y-408D02*
D03*
X-5660Y354D02*
D03*
X-5914D02*
D03*
X-5660Y-408D02*
D03*
X-6460Y354D02*
D03*
X-6714D02*
D03*
X-6460Y-408D02*
D03*
D39*
X-827Y-381D02*
D03*
X-1627D02*
D03*
X-2427D02*
D03*
X-3227D02*
D03*
X-8314Y-408D02*
D03*
X-7514D02*
D03*
X-5914D02*
D03*
X-6714D02*
D03*
D40*
X200Y-2000D02*
D03*
D41*
X-7354Y-1102D02*
D03*
X-7481Y-1356D02*
D03*
X-7608Y-1102D02*
D03*
X-6468D02*
D03*
X-6341Y-1356D02*
D03*
X-6214Y-1102D02*
D03*
X-5076D02*
D03*
X-5203Y-1356D02*
D03*
X-5331Y-1102D02*
D03*
X-4196D02*
D03*
X-4069Y-1356D02*
D03*
X-3942Y-1102D02*
D03*
X-8869Y-1105D02*
D03*
X-8996Y-1359D02*
D03*
X-9123Y-1105D02*
D03*
X-10261D02*
D03*
X-10133Y-1359D02*
D03*
X-10007Y-1105D02*
D03*
D42*
X-7928Y-1992D02*
D03*
X-7161D02*
D03*
X-6022D02*
D03*
X-6788D02*
D03*
X-5650D02*
D03*
X-4884D02*
D03*
X-3749D02*
D03*
X-4515D02*
D03*
X-9443Y-1994D02*
D03*
X-8676D02*
D03*
X-9814D02*
D03*
X-10580D02*
D03*
D43*
X-7735Y-1356D02*
D03*
X-6595D02*
D03*
X-5458D02*
D03*
X-4322D02*
D03*
X-9250Y-1359D02*
D03*
X-10388D02*
D03*
D44*
X-849Y-2002D02*
D03*
X-1199D02*
D03*
X-1549D02*
D03*
X-1900D02*
D03*
X-2250D02*
D03*
X-2600D02*
D03*
X-2950D02*
D03*
X-3299D02*
D03*
D45*
X-7962Y-1602D02*
D03*
X-6818Y-1608D02*
D03*
X-5685Y-1605D02*
D03*
X-4560Y-1602D02*
D03*
X-5060Y412D02*
D03*
X-6308Y512D02*
D03*
X-3775Y522D02*
D03*
M02*
