G04 Layer_Color=8388736*
%FSLAX42Y42*%
%MOMM*%
G71*
G01*
G75*
%ADD27R,0.80X2.40*%
%ADD28O,0.80X2.40*%
%ADD29C,3.20*%
%ADD30C,2.20*%
%ADD31C,1.70*%
%ADD32R,1.70X1.70*%
%ADD33O,2.20X3.20*%
%ADD34C,7.20*%
%ADD35C,1.20*%
D27*
X524Y-113D02*
D03*
X4624D02*
D03*
X9357Y-208D02*
D03*
D28*
X651Y-113D02*
D03*
X778Y-113D02*
D03*
X905D02*
D03*
X1032D02*
D03*
X1159D02*
D03*
X1286Y-113D02*
D03*
X1413Y-113D02*
D03*
X524Y517D02*
D03*
X651D02*
D03*
X778D02*
D03*
X905D02*
D03*
X1032D02*
D03*
X1159D02*
D03*
X1286D02*
D03*
X1413D02*
D03*
X4751Y-113D02*
D03*
X4878Y-113D02*
D03*
X5005D02*
D03*
X5132D02*
D03*
X5259D02*
D03*
X5386Y-113D02*
D03*
X5513Y-113D02*
D03*
X4624Y517D02*
D03*
X4751D02*
D03*
X4878D02*
D03*
X5005D02*
D03*
X5132D02*
D03*
X5259D02*
D03*
X5386D02*
D03*
X5513D02*
D03*
X9484Y-208D02*
D03*
X9611Y-208D02*
D03*
X9738D02*
D03*
X9865D02*
D03*
X9992D02*
D03*
X10119Y-208D02*
D03*
X10246Y-208D02*
D03*
X9357Y422D02*
D03*
X9484D02*
D03*
X9611D02*
D03*
X9738D02*
D03*
X9865D02*
D03*
X9992D02*
D03*
X10119D02*
D03*
X10246D02*
D03*
D29*
X1750Y3425D02*
D03*
X750D02*
D03*
X1250D02*
D03*
X250D02*
D03*
X-750D02*
D03*
X-250D02*
D03*
X-1250D02*
D03*
X-2250D02*
D03*
X-1750D02*
D03*
X-2750D02*
D03*
X-3750D02*
D03*
X-3250D02*
D03*
X2569Y2512D02*
D03*
X1369D02*
D03*
X1969Y1092D02*
D03*
X2569Y1292D02*
D03*
X1369D02*
D03*
X869Y2512D02*
D03*
X-331D02*
D03*
X269Y1092D02*
D03*
X869Y1292D02*
D03*
X-331D02*
D03*
X-831Y2512D02*
D03*
X-2031D02*
D03*
X-1431Y1092D02*
D03*
X-831Y1292D02*
D03*
X-2031D02*
D03*
X-2531Y2512D02*
D03*
X-3731D02*
D03*
X-3131Y1092D02*
D03*
X-2531Y1292D02*
D03*
X-3731D02*
D03*
D30*
X3169Y1648D02*
D03*
X3169Y2156D02*
D03*
X3169Y2664D02*
D03*
X3169Y1140D02*
D03*
X3857Y1648D02*
D03*
X3857Y2156D02*
D03*
X3857Y2664D02*
D03*
Y1140D02*
D03*
X4546Y1648D02*
D03*
X4546Y2156D02*
D03*
Y2664D02*
D03*
Y1140D02*
D03*
X5234Y1648D02*
D03*
X5234Y2156D02*
D03*
X5234Y2664D02*
D03*
X5234Y1140D02*
D03*
X5922Y1648D02*
D03*
Y2156D02*
D03*
Y2664D02*
D03*
Y1140D02*
D03*
X6611Y1648D02*
D03*
Y2156D02*
D03*
Y2664D02*
D03*
Y1140D02*
D03*
X7299Y1648D02*
D03*
Y2156D02*
D03*
Y2664D02*
D03*
Y1140D02*
D03*
X7988Y1648D02*
D03*
X7988Y2156D02*
D03*
X7988Y2664D02*
D03*
X7988Y1140D02*
D03*
X9365Y1648D02*
D03*
X9365Y2156D02*
D03*
Y2664D02*
D03*
Y1140D02*
D03*
X10053Y1648D02*
D03*
Y2156D02*
D03*
X10053Y2664D02*
D03*
X10053Y1140D02*
D03*
X10742Y1648D02*
D03*
X10742Y2156D02*
D03*
Y2664D02*
D03*
Y1140D02*
D03*
X11430Y1648D02*
D03*
Y2156D02*
D03*
X11430Y2664D02*
D03*
X11430Y1140D02*
D03*
X12119Y1648D02*
D03*
X12119Y2156D02*
D03*
X12119Y2664D02*
D03*
Y1140D02*
D03*
X8676Y1648D02*
D03*
Y2156D02*
D03*
Y2664D02*
D03*
Y1140D02*
D03*
D31*
X3831Y75D02*
D03*
Y329D02*
D03*
X3577Y75D02*
D03*
Y329D02*
D03*
X3323D02*
D03*
Y75D02*
D03*
X3069Y329D02*
D03*
Y75D02*
D03*
X2815Y329D02*
D03*
Y75D02*
D03*
X2561Y329D02*
D03*
Y75D02*
D03*
X2307Y329D02*
D03*
X8131Y75D02*
D03*
Y329D02*
D03*
X7877Y75D02*
D03*
Y329D02*
D03*
X7623D02*
D03*
Y75D02*
D03*
X7369Y329D02*
D03*
Y75D02*
D03*
X7115Y329D02*
D03*
Y75D02*
D03*
X6861Y329D02*
D03*
Y75D02*
D03*
X6607Y329D02*
D03*
D32*
X2307Y75D02*
D03*
X6607D02*
D03*
D33*
X2312Y3325D02*
D03*
X2662D02*
D03*
X3012D02*
D03*
X3362D02*
D03*
X3833D02*
D03*
X4183D02*
D03*
X4533D02*
D03*
X4883D02*
D03*
X5233D02*
D03*
X5583D02*
D03*
X5933D02*
D03*
X6283D02*
D03*
X6753Y3325D02*
D03*
X7103D02*
D03*
X7453D02*
D03*
X7803D02*
D03*
X8153D02*
D03*
X8503D02*
D03*
X8853D02*
D03*
X9203D02*
D03*
X9678D02*
D03*
X10028D02*
D03*
X10378D02*
D03*
X10728D02*
D03*
X11078D02*
D03*
X11428D02*
D03*
X11778D02*
D03*
X12128D02*
D03*
D34*
X0Y0D02*
D03*
X11000D02*
D03*
D35*
X5750Y500D02*
D03*
X10383Y405D02*
D03*
X2812Y-397D02*
D03*
M02*
