G04 Layer_Color=8388736*
%FSLAX42Y42*%
%MOMM*%
G71*
G01*
G75*
%ADD56C,1.00*%
%ADD59C,1.20*%
%ADD61C,1.70*%
%ADD63R,1.70X1.70*%
G04:AMPARAMS|DCode=71|XSize=0.9mm|YSize=1.5mm|CornerRadius=0.28mm|HoleSize=0mm|Usage=FLASHONLY|Rotation=90.000|XOffset=0mm|YOffset=0mm|HoleType=Round|Shape=RoundedRectangle|*
%AMROUNDEDRECTD71*
21,1,0.90,0.95,0,0,90.0*
21,1,0.35,1.50,0,0,90.0*
1,1,0.55,0.47,0.17*
1,1,0.55,0.47,-0.17*
1,1,0.55,-0.47,-0.17*
1,1,0.55,-0.47,0.17*
%
%ADD71ROUNDEDRECTD71*%
%ADD72O,0.80X2.10*%
%ADD73R,0.80X2.10*%
%ADD74O,2.40X0.80*%
%ADD75R,2.40X0.80*%
%ADD76O,0.45X1.75*%
%ADD77O,1.75X0.45*%
%ADD78R,1.75X0.45*%
G04:AMPARAMS|DCode=79|XSize=1.2mm|YSize=3.2mm|CornerRadius=0.35mm|HoleSize=0mm|Usage=FLASHONLY|Rotation=0.000|XOffset=0mm|YOffset=0mm|HoleType=Round|Shape=RoundedRectangle|*
%AMROUNDEDRECTD79*
21,1,1.20,2.50,0,0,0.0*
21,1,0.50,3.20,0,0,0.0*
1,1,0.70,0.25,-1.25*
1,1,0.70,-0.25,-1.25*
1,1,0.70,-0.25,1.25*
1,1,0.70,0.25,1.25*
%
%ADD79ROUNDEDRECTD79*%
%ADD80R,10.80X8.50*%
G04:AMPARAMS|DCode=81|XSize=0.9mm|YSize=1.5mm|CornerRadius=0.28mm|HoleSize=0mm|Usage=FLASHONLY|Rotation=180.000|XOffset=0mm|YOffset=0mm|HoleType=Round|Shape=RoundedRectangle|*
%AMROUNDEDRECTD81*
21,1,0.90,0.95,0,0,180.0*
21,1,0.35,1.50,0,0,180.0*
1,1,0.55,-0.17,0.47*
1,1,0.55,0.17,0.47*
1,1,0.55,0.17,-0.47*
1,1,0.55,-0.17,-0.47*
%
%ADD81ROUNDEDRECTD81*%
G04:AMPARAMS|DCode=82|XSize=2.2mm|YSize=2.4mm|CornerRadius=0.6mm|HoleSize=0mm|Usage=FLASHONLY|Rotation=0.000|XOffset=0mm|YOffset=0mm|HoleType=Round|Shape=RoundedRectangle|*
%AMROUNDEDRECTD82*
21,1,2.20,1.20,0,0,0.0*
21,1,1.00,2.40,0,0,0.0*
1,1,1.20,0.50,-0.60*
1,1,1.20,-0.50,-0.60*
1,1,1.20,-0.50,0.60*
1,1,1.20,0.50,0.60*
%
%ADD82ROUNDEDRECTD82*%
G04:AMPARAMS|DCode=83|XSize=2.2mm|YSize=2.4mm|CornerRadius=0.6mm|HoleSize=0mm|Usage=FLASHONLY|Rotation=270.000|XOffset=0mm|YOffset=0mm|HoleType=Round|Shape=RoundedRectangle|*
%AMROUNDEDRECTD83*
21,1,2.20,1.20,0,0,270.0*
21,1,1.00,2.40,0,0,270.0*
1,1,1.20,-0.60,-0.50*
1,1,1.20,-0.60,0.50*
1,1,1.20,0.60,0.50*
1,1,1.20,0.60,-0.50*
%
%ADD83ROUNDEDRECTD83*%
G04:AMPARAMS|DCode=84|XSize=2.7mm|YSize=3.5mm|CornerRadius=0.72mm|HoleSize=0mm|Usage=FLASHONLY|Rotation=180.000|XOffset=0mm|YOffset=0mm|HoleType=Round|Shape=RoundedRectangle|*
%AMROUNDEDRECTD84*
21,1,2.70,2.05,0,0,180.0*
21,1,1.25,3.50,0,0,180.0*
1,1,1.45,-0.63,1.02*
1,1,1.45,0.63,1.02*
1,1,1.45,0.63,-1.02*
1,1,1.45,-0.63,-1.02*
%
%ADD84ROUNDEDRECTD84*%
G04:AMPARAMS|DCode=85|XSize=1.1mm|YSize=1.5mm|CornerRadius=0.33mm|HoleSize=0mm|Usage=FLASHONLY|Rotation=90.000|XOffset=0mm|YOffset=0mm|HoleType=Round|Shape=RoundedRectangle|*
%AMROUNDEDRECTD85*
21,1,1.10,0.85,0,0,90.0*
21,1,0.45,1.50,0,0,90.0*
1,1,0.65,0.42,0.23*
1,1,0.65,0.42,-0.23*
1,1,0.65,-0.42,-0.23*
1,1,0.65,-0.42,0.23*
%
%ADD85ROUNDEDRECTD85*%
G04:AMPARAMS|DCode=86|XSize=1.1mm|YSize=1.5mm|CornerRadius=0.33mm|HoleSize=0mm|Usage=FLASHONLY|Rotation=180.000|XOffset=0mm|YOffset=0mm|HoleType=Round|Shape=RoundedRectangle|*
%AMROUNDEDRECTD86*
21,1,1.10,0.85,0,0,180.0*
21,1,0.45,1.50,0,0,180.0*
1,1,0.65,-0.23,0.42*
1,1,0.65,0.23,0.42*
1,1,0.65,0.23,-0.42*
1,1,0.65,-0.23,-0.42*
%
%ADD86ROUNDEDRECTD86*%
G04:AMPARAMS|DCode=87|XSize=1.35mm|YSize=2mm|CornerRadius=0.39mm|HoleSize=0mm|Usage=FLASHONLY|Rotation=0.000|XOffset=0mm|YOffset=0mm|HoleType=Round|Shape=RoundedRectangle|*
%AMROUNDEDRECTD87*
21,1,1.35,1.23,0,0,0.0*
21,1,0.57,2.00,0,0,0.0*
1,1,0.78,0.29,-0.61*
1,1,0.78,-0.29,-0.61*
1,1,0.78,-0.29,0.61*
1,1,0.78,0.29,0.61*
%
%ADD87ROUNDEDRECTD87*%
%ADD88R,3.50X2.60*%
%ADD89R,1.20X2.60*%
G04:AMPARAMS|DCode=90|XSize=1.8mm|YSize=3.7mm|CornerRadius=0.5mm|HoleSize=0mm|Usage=FLASHONLY|Rotation=270.000|XOffset=0mm|YOffset=0mm|HoleType=Round|Shape=RoundedRectangle|*
%AMROUNDEDRECTD90*
21,1,1.80,2.70,0,0,270.0*
21,1,0.80,3.70,0,0,270.0*
1,1,1.00,-1.35,-0.40*
1,1,1.00,-1.35,0.40*
1,1,1.00,1.35,0.40*
1,1,1.00,1.35,-0.40*
%
%ADD90ROUNDEDRECTD90*%
G04:AMPARAMS|DCode=91|XSize=10.2mm|YSize=11.2mm|CornerRadius=2.6mm|HoleSize=0mm|Usage=FLASHONLY|Rotation=270.000|XOffset=0mm|YOffset=0mm|HoleType=Round|Shape=RoundedRectangle|*
%AMROUNDEDRECTD91*
21,1,10.20,6.00,0,0,270.0*
21,1,5.00,11.20,0,0,270.0*
1,1,5.20,-3.00,-2.50*
1,1,5.20,-3.00,2.50*
1,1,5.20,3.00,2.50*
1,1,5.20,3.00,-2.50*
%
%ADD91ROUNDEDRECTD91*%
%ADD92C,7.20*%
%ADD93C,1.77*%
%ADD94C,2.20*%
%ADD95R,2.70X2.70*%
%ADD96C,2.70*%
%ADD97C,1.70*%
%ADD98R,1.70X1.70*%
%ADD99R,1.70X1.70*%
%ADD100R,1.70X1.70*%
%ADD101C,2.20*%
%ADD102R,2.20X2.20*%
%ADD103C,2.00*%
%ADD104R,1.20X1.20*%
%ADD105R,1.40X1.40*%
%ADD106C,1.40*%
%ADD107O,2.20X3.20*%
%ADD108C,1.90*%
%ADD109C,3.20*%
%ADD110R,1.90X1.90*%
D56*
X14580Y4310D02*
D03*
Y4430D02*
D03*
Y4550D02*
D03*
X12712Y2533D02*
D03*
X13198Y4800D02*
D03*
X8835Y1298D02*
D03*
X7672Y1295D02*
D03*
X14240Y4860D02*
D03*
X14340Y4760D02*
D03*
X12870Y4360D02*
D03*
Y4600D02*
D03*
Y4480D02*
D03*
X1770Y1893D02*
D03*
X1515Y1598D02*
D03*
X1595Y2053D02*
D03*
X1025Y2048D02*
D03*
X2765Y2795D02*
D03*
X2945Y2668D02*
D03*
D59*
X12262Y3778D02*
D03*
X11638D02*
D03*
X10210Y3915D02*
D03*
X14650Y3250D02*
D03*
D61*
X4814Y2819D02*
D03*
X6846Y2819D02*
D03*
X6846Y4851D02*
D03*
X6084D02*
D03*
X1357Y2745D02*
D03*
X1611Y2745D02*
D03*
X1865D02*
D03*
X1625Y-75D02*
D03*
X1175D02*
D03*
X2950Y4250D02*
D03*
X2550Y4250D02*
D03*
X2550Y3750D02*
D03*
X2950Y3750D02*
D03*
X1700Y4250D02*
D03*
X13312Y6373D02*
D03*
Y6627D02*
D03*
X13058Y6373D02*
D03*
Y6627D02*
D03*
X12804D02*
D03*
Y6373D02*
D03*
X12550Y6627D02*
D03*
Y6373D02*
D03*
X12296Y6627D02*
D03*
Y6373D02*
D03*
X12042Y6627D02*
D03*
Y6373D02*
D03*
X11788Y6627D02*
D03*
X15912Y6373D02*
D03*
Y6627D02*
D03*
X15658Y6373D02*
D03*
Y6627D02*
D03*
X15404D02*
D03*
Y6373D02*
D03*
X15150Y6627D02*
D03*
Y6373D02*
D03*
X14896Y6627D02*
D03*
Y6373D02*
D03*
X14642Y6627D02*
D03*
Y6373D02*
D03*
X14388Y6627D02*
D03*
X127Y3612D02*
D03*
X-127D02*
D03*
X127Y3358D02*
D03*
X-127D02*
D03*
Y3104D02*
D03*
X127D02*
D03*
X-127Y2850D02*
D03*
X127D02*
D03*
X-127Y2596D02*
D03*
X127D02*
D03*
X-127Y2342D02*
D03*
X127D02*
D03*
X-127Y2088D02*
D03*
X12888Y2027D02*
D03*
X13142D02*
D03*
X13396D02*
D03*
X13650D02*
D03*
X13904D02*
D03*
X14158D02*
D03*
X14412D02*
D03*
Y1773D02*
D03*
X13904D02*
D03*
X13396D02*
D03*
X13142D02*
D03*
X13650D02*
D03*
X14158D02*
D03*
X17700Y762D02*
D03*
Y508D02*
D03*
Y254D02*
D03*
X11505Y4128D02*
D03*
Y4382D02*
D03*
Y4636D02*
D03*
X9200Y762D02*
D03*
Y508D02*
D03*
Y254D02*
D03*
X4000Y4525D02*
D03*
X7825Y4550D02*
D03*
X13750Y4250D02*
D03*
D63*
X1103Y2745D02*
D03*
X11788Y6373D02*
D03*
X14388D02*
D03*
X12888Y1773D02*
D03*
D71*
X8682Y3660D02*
D03*
Y3470D02*
D03*
X9493Y472D02*
D03*
Y283D02*
D03*
D72*
X1387Y890D02*
D03*
X1514D02*
D03*
X1641D02*
D03*
X1768D02*
D03*
X1387Y1510D02*
D03*
X1514D02*
D03*
X1641D02*
D03*
D73*
X1768D02*
D03*
D74*
X1243Y2148D02*
D03*
Y2021D02*
D03*
Y1894D02*
D03*
Y1767D02*
D03*
X1873Y2148D02*
D03*
Y2021D02*
D03*
Y1894D02*
D03*
D75*
Y1767D02*
D03*
D76*
X13375Y4853D02*
D03*
X13425D02*
D03*
X13475D02*
D03*
X13525D02*
D03*
X13575D02*
D03*
X13625D02*
D03*
X13675D02*
D03*
X13725D02*
D03*
X13775D02*
D03*
X13825D02*
D03*
X13875D02*
D03*
X13925D02*
D03*
X13975D02*
D03*
X14025D02*
D03*
X14075D02*
D03*
X14125D02*
D03*
Y3647D02*
D03*
X14075D02*
D03*
X14025D02*
D03*
X13975D02*
D03*
X13925D02*
D03*
X13875D02*
D03*
X13825D02*
D03*
X13775D02*
D03*
X13725D02*
D03*
X13675D02*
D03*
X13625D02*
D03*
X13575D02*
D03*
X13525D02*
D03*
X13475D02*
D03*
X13425D02*
D03*
X13375D02*
D03*
D77*
X14352Y4625D02*
D03*
Y4575D02*
D03*
Y4525D02*
D03*
Y4475D02*
D03*
Y4425D02*
D03*
Y4375D02*
D03*
Y4325D02*
D03*
Y4275D02*
D03*
Y4225D02*
D03*
Y4175D02*
D03*
Y4125D02*
D03*
Y4075D02*
D03*
Y4025D02*
D03*
Y3975D02*
D03*
Y3925D02*
D03*
Y3875D02*
D03*
X13148D02*
D03*
Y3925D02*
D03*
Y3975D02*
D03*
Y4025D02*
D03*
Y4075D02*
D03*
Y4125D02*
D03*
Y4175D02*
D03*
Y4225D02*
D03*
Y4275D02*
D03*
Y4325D02*
D03*
Y4375D02*
D03*
Y4425D02*
D03*
Y4475D02*
D03*
Y4525D02*
D03*
Y4575D02*
D03*
D78*
Y4625D02*
D03*
D79*
X3683Y4252D02*
D03*
X4023Y4252D02*
D03*
X4193D02*
D03*
X3513Y4252D02*
D03*
X3853D02*
D03*
D80*
Y5320D02*
D03*
D81*
X2233Y2428D02*
D03*
X2423D02*
D03*
X2188Y1110D02*
D03*
X2378D02*
D03*
X2188Y898D02*
D03*
X2378D02*
D03*
X4005Y3925D02*
D03*
X4195Y3925D02*
D03*
D82*
X3938Y1282D02*
D03*
X4408D02*
D03*
D83*
X3575Y1890D02*
D03*
Y1420D02*
D03*
X950Y5885D02*
D03*
Y5415D02*
D03*
Y4885D02*
D03*
Y4415D02*
D03*
D84*
X1533Y5040D02*
D03*
X2283D02*
D03*
X1532Y5725D02*
D03*
X2283D02*
D03*
D85*
X1978Y1495D02*
D03*
Y1305D02*
D03*
X14275Y3230D02*
D03*
Y3420D02*
D03*
D86*
X12605Y3900D02*
D03*
X12795D02*
D03*
X13365Y5133D02*
D03*
X13175D02*
D03*
X13365Y5333D02*
D03*
X13175D02*
D03*
X7697Y4822D02*
D03*
X7507Y4822D02*
D03*
D87*
X7703Y5550D02*
D03*
X7403D02*
D03*
D88*
X10872Y3358D02*
D03*
D89*
X10643Y3938D02*
D03*
X10872Y3938D02*
D03*
X11103Y3938D02*
D03*
D90*
X8121Y4894D02*
D03*
X8121Y5401D02*
D03*
D91*
X9159Y5147D02*
D03*
D92*
X8000Y2000D02*
D03*
X0Y6500D02*
D03*
Y0D02*
D03*
X17500Y3250D02*
D03*
Y6500D02*
D03*
X2050D02*
D03*
X4850D02*
D03*
X9250Y3250D02*
D03*
D93*
X12300Y4804D02*
D03*
Y4296D02*
D03*
D94*
X630Y753D02*
D03*
Y1007D02*
D03*
Y1260D02*
D03*
X6210Y1085D02*
D03*
X5955D02*
D03*
D95*
X2900Y4730D02*
D03*
D96*
X2895Y6262D02*
D03*
X10313Y6739D02*
D03*
Y6231D02*
D03*
X8513Y6739D02*
D03*
Y6231D02*
D03*
X7613Y6739D02*
D03*
Y6231D02*
D03*
X9413Y6739D02*
D03*
Y6231D02*
D03*
X6713Y6739D02*
D03*
Y6231D02*
D03*
D97*
X2229Y2141D02*
D03*
X2229Y1887D02*
D03*
Y1633D02*
D03*
X2229Y1379D02*
D03*
X2991Y2141D02*
D03*
Y1887D02*
D03*
Y1633D02*
D03*
X16878Y2526D02*
D03*
X16624Y2526D02*
D03*
X16878Y1764D02*
D03*
X16277Y2531D02*
D03*
X16023D02*
D03*
X16277Y1769D02*
D03*
X15677Y2531D02*
D03*
X15423D02*
D03*
X15677Y1769D02*
D03*
X15077Y2531D02*
D03*
X14823D02*
D03*
X15077Y1769D02*
D03*
X12477Y2531D02*
D03*
X12223D02*
D03*
X12477Y1769D02*
D03*
X11877Y2531D02*
D03*
X11623D02*
D03*
X11877Y1769D02*
D03*
X11277Y2531D02*
D03*
X11023D02*
D03*
X11277Y1769D02*
D03*
X10677Y2531D02*
D03*
X10423D02*
D03*
X10677Y1769D02*
D03*
X8481Y2948D02*
D03*
Y3202D02*
D03*
X7719Y2948D02*
D03*
D98*
X2991Y1379D02*
D03*
X7719Y3202D02*
D03*
D99*
X16624Y1764D02*
D03*
X16023Y1769D02*
D03*
X15423D02*
D03*
X14823D02*
D03*
X12223Y1769D02*
D03*
X11623Y1769D02*
D03*
X11023Y1769D02*
D03*
X10423Y1769D02*
D03*
D100*
X5576Y4851D02*
D03*
X1700Y3750D02*
D03*
X127Y2088D02*
D03*
X17700Y0D02*
D03*
X11505Y4890D02*
D03*
X9200Y0D02*
D03*
D101*
X1050Y175D02*
D03*
X1750D02*
D03*
X5868Y-356D02*
D03*
X6122D02*
D03*
X5868Y406D02*
D03*
X-50Y4400D02*
D03*
Y4900D02*
D03*
Y5400D02*
D03*
Y5900D02*
D03*
D102*
X6122Y406D02*
D03*
D103*
X2427Y50D02*
D03*
X2173D02*
D03*
X2427Y-200D02*
D03*
X2173D02*
D03*
X9747Y-203D02*
D03*
X9493D02*
D03*
D104*
X12262Y3578D02*
D03*
X11638D02*
D03*
X10210Y3715D02*
D03*
X14650Y3450D02*
D03*
D105*
X3553Y6217D02*
D03*
D106*
X3877D02*
D03*
D107*
X17225Y0D02*
D03*
X16875D02*
D03*
X16525D02*
D03*
X16175D02*
D03*
X15825D02*
D03*
X15475D02*
D03*
X15125D02*
D03*
X14775D02*
D03*
D108*
X14140Y894D02*
D03*
X14013Y641D02*
D03*
X13887Y894D02*
D03*
X12736D02*
D03*
X12863Y641D02*
D03*
X12990Y894D02*
D03*
X11840D02*
D03*
X11714Y641D02*
D03*
X11586Y894D02*
D03*
X10436D02*
D03*
X10564Y641D02*
D03*
X10690Y894D02*
D03*
X7441Y895D02*
D03*
X7314Y641D02*
D03*
X7187Y895D02*
D03*
X8337D02*
D03*
X8464Y641D02*
D03*
X8591Y895D02*
D03*
X5193Y641D02*
D03*
X5066Y895D02*
D03*
X4685Y641D02*
D03*
X4939D02*
D03*
X4812Y895D02*
D03*
X3840Y641D02*
D03*
X3713Y895D02*
D03*
X3332Y641D02*
D03*
X3586D02*
D03*
X3459Y895D02*
D03*
D109*
X13567Y5D02*
D03*
X14333D02*
D03*
X13183D02*
D03*
X12417D02*
D03*
X11267D02*
D03*
X12033D02*
D03*
X10883D02*
D03*
X10117D02*
D03*
X6867Y6D02*
D03*
X7633D02*
D03*
X8783D02*
D03*
X8017D02*
D03*
X4367D02*
D03*
X5383D02*
D03*
X3015D02*
D03*
X4031D02*
D03*
D110*
X13760Y641D02*
D03*
X12610D02*
D03*
X11460D02*
D03*
X10310D02*
D03*
X7060Y641D02*
D03*
X8210D02*
D03*
X4558Y895D02*
D03*
X3205D02*
D03*
M02*
