G04 Layer_Color=32896*
%FSLAX42Y42*%
%MOMM*%
G71*
G01*
G75*
%ADD20C,0.20*%
D20*
X-779Y668D02*
Y1302D01*
X-2089D02*
X-779D01*
X-2089Y668D02*
Y1302D01*
Y668D02*
X-779D01*
X-2049D02*
Y1302D01*
X-3359D02*
X-2049D01*
X-3359Y668D02*
Y1302D01*
Y668D02*
X-2049D01*
X-1287Y5353D02*
Y5988D01*
X-2597D02*
X-1287D01*
X-2597Y5353D02*
Y5988D01*
Y5353D02*
X-1287D01*
X-17D02*
Y5988D01*
X-1327D02*
X-17D01*
X-1327Y5353D02*
Y5988D01*
Y5353D02*
X-17D01*
X-2049Y4705D02*
Y5340D01*
X-3359D02*
X-2049D01*
X-3359Y4705D02*
Y5340D01*
Y4705D02*
X-2049D01*
X-779D02*
Y5340D01*
X-2089D02*
X-779D01*
X-2089Y4705D02*
Y5340D01*
Y4705D02*
X-779D01*
X-1287Y33D02*
Y668D01*
X-2597D02*
X-1287D01*
X-2597Y33D02*
Y668D01*
Y33D02*
X-1287D01*
X-17D02*
Y668D01*
X-1327D02*
X-17D01*
X-1327Y33D02*
Y668D01*
Y33D02*
X-17D01*
X-2082Y1430D02*
X-2148Y1330D01*
Y1430D02*
X-2082Y1330D01*
X-2231D02*
Y1430D01*
X-2181Y1380D01*
X-2248D01*
X-799Y1432D02*
X-866Y1332D01*
Y1432D02*
X-799Y1332D01*
X-966Y1432D02*
X-899D01*
Y1382D01*
X-932Y1399D01*
X-949D01*
X-966Y1382D01*
Y1349D01*
X-949Y1332D01*
X-916D01*
X-899Y1349D01*
M02*
