G04 Layer_Physical_Order=1*
G04 Layer_Color=255*
%FSLAX42Y42*%
%MOMM*%
G71*
G01*
G75*
%ADD10C,0.50*%
%ADD11C,0.60*%
%ADD12C,1.00*%
%ADD13C,0.30*%
%ADD14C,0.25*%
%ADD15C,7.00*%
%ADD16C,1.50*%
%ADD17R,1.50X1.50*%
%ADD18C,1.50*%
%ADD19R,1.50X1.50*%
%ADD20O,2.00X3.00*%
%ADD21R,1.50X1.50*%
%ADD22C,1.70*%
%ADD23C,3.00*%
%ADD24R,1.70X1.70*%
D10*
X9160Y399D02*
G03*
X8864Y272I-127J-113D01*
G01*
X9457Y286D02*
G03*
X9160Y399I-170J0D01*
G01*
X8856Y264D02*
G03*
X8857Y286I-169J22D01*
G01*
X9160Y173D02*
G03*
X9457Y286I127J113D01*
G01*
X9019Y117D02*
G03*
X9160Y173I14J169D01*
G01*
X8857Y286D02*
G03*
X8560Y399I-170J0D01*
G01*
Y173D02*
G03*
X8709Y117I127J113D01*
G01*
X8560Y399D02*
G03*
X8264Y272I-127J-113D01*
G01*
X8419Y117D02*
G03*
X8560Y173I14J169D01*
G01*
X8692Y-165D02*
G03*
X8770Y-133I0J110D01*
G01*
X8692Y-165D02*
G03*
X8770Y-133I0J110D01*
G01*
X8257Y286D02*
G03*
X7960Y399I-170J0D01*
G01*
X8256Y264D02*
G03*
X8257Y286I-169J22D01*
G01*
X7960Y399D02*
G03*
X7664Y272I-127J-113D01*
G01*
X7960Y173D02*
G03*
X8005Y137I127J113D01*
G01*
X7915D02*
G03*
X7960Y173I-82J149D01*
G01*
X9457Y-476D02*
G03*
X9203Y-328I-170J0D01*
G01*
X9400Y-603D02*
G03*
X9457Y-476I-113J127D01*
G01*
X8857D02*
G03*
X8603Y-328I-170J0D01*
G01*
X8812Y-591D02*
G03*
X8857Y-476I-125J115D01*
G01*
X8775Y-751D02*
G03*
X8812Y-663I-88J88D01*
G01*
X8775Y-751D02*
G03*
X8812Y-663I-88J88D01*
G01*
X8257Y-476D02*
G03*
X8003Y-328I-170J0D01*
G01*
X8212Y-591D02*
G03*
X8257Y-476I-125J115D01*
G01*
X8175Y-751D02*
G03*
X8212Y-663I-88J88D01*
G01*
X8175Y-751D02*
G03*
X8212Y-663I-88J88D01*
G01*
X7360Y399D02*
G03*
X7103Y396I-127J-113D01*
G01*
X7656Y264D02*
G03*
X7657Y286I-169J22D01*
G01*
D02*
G03*
X7360Y399I-170J0D01*
G01*
X6261Y396D02*
G03*
X6183Y364I0J-110D01*
G01*
X6261Y396D02*
G03*
X6183Y364I0J-110D01*
G01*
X6080Y261D02*
G03*
X6048Y183I78J-78D01*
G01*
X6080Y261D02*
G03*
X6048Y183I78J-78D01*
G01*
Y157D02*
G03*
X6031Y140I110J-130D01*
G01*
Y-86D02*
G03*
X6045Y-100I127J113D01*
G01*
D02*
G03*
X6031Y-114I113J-127D01*
G01*
X5430Y525D02*
G03*
X5353Y557I-78J-78D01*
G01*
X5430Y525D02*
G03*
X5353Y557I-78J-78D01*
G01*
X4622D02*
G03*
X4551Y531I0J-110D01*
G01*
X4622Y557D02*
G03*
X4551Y531I0J-110D01*
G01*
X6031Y140D02*
G03*
X5777Y140I-127J-113D01*
G01*
X6031Y-114D02*
G03*
X6017Y-100I-127J-113D01*
G01*
D02*
G03*
X6031Y-86I-113J127D01*
G01*
X5777Y140D02*
G03*
X5760Y157I-127J-113D01*
G01*
D02*
G03*
X5728Y228I-110J-7D01*
G01*
X5760Y157D02*
G03*
X5728Y228I-110J-7D01*
G01*
X4722Y-11D02*
G03*
X4740Y-57I166J38D01*
G01*
X4703Y-12D02*
G03*
X4722Y-11I0J125D01*
G01*
X4703Y-12D02*
G03*
X4722Y-11I0J125D01*
G01*
X7657Y-476D02*
G03*
X7403Y-328I-170J0D01*
G01*
X7612Y-591D02*
G03*
X7657Y-476I-125J115D01*
G01*
X6582Y-227D02*
G03*
X6581Y-213I-170J0D01*
G01*
X6031Y-340D02*
G03*
X6285Y-340I127J113D01*
G01*
X5887Y-396D02*
G03*
X6031Y-340I17J169D01*
G01*
X6285D02*
G03*
X6582Y-227I127J113D01*
G01*
X5855Y-470D02*
G03*
X5887Y-396I-78J78D01*
G01*
X5855Y-470D02*
G03*
X5887Y-396I-78J78D01*
G01*
X7575Y-751D02*
G03*
X7612Y-663I-88J88D01*
G01*
X7575Y-751D02*
G03*
X7612Y-663I-88J88D01*
G01*
X6023Y-812D02*
G03*
X5935Y-775I-88J-88D01*
G01*
X6023Y-812D02*
G03*
X5935Y-775I-88J-88D01*
G01*
X5269Y-340D02*
G03*
X5336Y-386I127J113D01*
G01*
X5058Y-375D02*
G03*
X5269Y-340I84J148D01*
G01*
X5583Y-697D02*
G03*
X5660Y-665I0J110D01*
G01*
X5583Y-697D02*
G03*
X5660Y-665I0J110D01*
G01*
X9870Y-1238D02*
G03*
X9555Y-1327I-170J0D01*
G01*
X9845D02*
G03*
X9870Y-1238I-145J89D01*
G01*
X9363Y-1038D02*
G03*
X9400Y-950I-88J88D01*
G01*
X9363Y-1038D02*
G03*
X9400Y-950I-88J88D01*
G01*
X9870Y-1492D02*
G03*
X9845Y-1403I-170J0D01*
G01*
X9555D02*
G03*
X9555Y-1581I145J-89D01*
G01*
X9845D02*
G03*
X9870Y-1492I-145J89D01*
G01*
X8787Y-1262D02*
G03*
X8750Y-1350I88J-88D01*
G01*
X8787Y-1262D02*
G03*
X8750Y-1350I88J-88D01*
G01*
X8087Y-1087D02*
G03*
X8050Y-1175I88J-88D01*
G01*
X8087Y-1087D02*
G03*
X8050Y-1175I88J-88D01*
G01*
X9848Y-1830D02*
G03*
X9870Y-1746I-148J84D01*
G01*
D02*
G03*
X9845Y-1657I-170J0D01*
G01*
X9555D02*
G03*
X9552Y-1830I145J-89D01*
G01*
X9350Y-2200D02*
G03*
X9420Y-2050I-125J150D01*
G01*
X9313Y-2288D02*
G03*
X9350Y-2200I-88J88D01*
G01*
X9313Y-2288D02*
G03*
X9350Y-2200I-88J88D01*
G01*
X9150Y-2400D02*
G03*
X9238Y-2363I0J125D01*
G01*
X9050Y-1864D02*
G03*
X9000Y-1800I-175J-86D01*
G01*
X8700Y-1864D02*
G03*
X8350Y-1864I-175J-86D01*
G01*
X8050Y-1800D02*
G03*
X8000Y-1864I125J-150D01*
G01*
X7650Y-1864D02*
G03*
X7600Y-1800I-175J-86D01*
G01*
X9420Y-1950D02*
G03*
X9050Y-1864I-195J0D01*
G01*
Y-2136D02*
G03*
X9058Y-2150I175J86D01*
G01*
X9042D02*
G03*
X9050Y-2136I-167J100D01*
G01*
X8700Y-2136D02*
G03*
X8708Y-2150I175J86D01*
G01*
X8750Y-1800D02*
G03*
X8700Y-1864I125J-150D01*
G01*
X8692Y-2150D02*
G03*
X8700Y-2136I-167J100D01*
G01*
X8350D02*
G03*
X8358Y-2150I175J86D01*
G01*
X9150Y-2400D02*
G03*
X9238Y-2363I0J125D01*
G01*
X8342Y-2150D02*
G03*
X8350Y-2136I-167J100D01*
G01*
Y-1864D02*
G03*
X8300Y-1800I-175J-86D01*
G01*
X8000Y-2136D02*
G03*
X8008Y-2150I175J86D01*
G01*
X7992D02*
G03*
X8000Y-2136I-167J100D01*
G01*
Y-1864D02*
G03*
X7650Y-1864I-175J-86D01*
G01*
Y-2136D02*
G03*
X7658Y-2150I175J86D01*
G01*
X7642D02*
G03*
X7650Y-2136I-167J100D01*
G01*
X7387Y-1187D02*
G03*
X7350Y-1275I88J-88D01*
G01*
X7387Y-1187D02*
G03*
X7350Y-1275I88J-88D01*
G01*
X6687Y-1287D02*
G03*
X6650Y-1375I88J-88D01*
G01*
X6687Y-1287D02*
G03*
X6650Y-1375I88J-88D01*
G01*
X6321Y-1106D02*
G03*
X6137Y-926I-180J0D01*
G01*
X6176Y-1282D02*
G03*
X6321Y-1106I-35J176D01*
G01*
X5726Y-1025D02*
G03*
X5722Y-1180I161J-81D01*
G01*
X6194Y-1360D02*
G03*
X6176Y-1282I-180J0D01*
G01*
X5171Y-1106D02*
G03*
X5151Y-1025I-180J0D01*
G01*
X4576D02*
G03*
X4572Y-1180I161J-81D01*
G01*
X5026Y-1282D02*
G03*
X5171Y-1106I-35J176D01*
G01*
X5044Y-1360D02*
G03*
X5026Y-1282I-180J0D01*
G01*
X6138Y-1489D02*
G03*
X6194Y-1360I-125J130D01*
G01*
X5002Y-1475D02*
G03*
X5044Y-1360I-138J115D01*
G01*
X7350Y-1800D02*
G03*
X7300Y-1864I125J-150D01*
G01*
X7300D02*
G03*
X6950Y-1864I-175J-86D01*
G01*
X6950D02*
G03*
X6900Y-1800I-175J-86D01*
G01*
X6650D02*
G03*
X6580Y-1950I125J-150D01*
G01*
X6578Y-1994D02*
G03*
X6138Y-1846I-245J0D01*
G01*
X6578Y-1994D02*
G03*
X6138Y-1846I-245J0D01*
G01*
X6942Y-2150D02*
G03*
X6950Y-2136I-167J100D01*
G01*
X6580Y-2050D02*
G03*
X6608Y-2150I195J0D01*
G01*
X7300Y-2136D02*
G03*
X7308Y-2150I175J86D01*
G01*
X7292D02*
G03*
X7300Y-2136I-167J100D01*
G01*
X6522Y-2150D02*
G03*
X6578Y-1994I-189J155D01*
G01*
X6522Y-2150D02*
G03*
X6578Y-1994I-189J155D01*
G01*
X6950Y-2136D02*
G03*
X6958Y-2150I175J86D01*
G01*
X5888Y-2064D02*
G03*
X5925Y-2152I125J0D01*
G01*
X5888Y-2064D02*
G03*
X5925Y-2152I125J0D01*
G01*
X6137Y-2363D02*
G03*
X6225Y-2400I88J88D01*
G01*
X6137Y-2363D02*
G03*
X6225Y-2400I88J88D01*
G01*
X5812Y-1994D02*
G03*
X5375Y-1842I-245J0D01*
G01*
X5812Y-1994D02*
G03*
X5375Y-1842I-245J0D01*
G01*
Y-2147D02*
G03*
X5812Y-1994I192J152D01*
G01*
X5375Y-1842D02*
G03*
X5375Y-2147I-192J-152D01*
G01*
X5375Y-1842D02*
G03*
X5375Y-2147I-192J-152D01*
G01*
D02*
G03*
X5812Y-1994I192J152D01*
G01*
X4551Y531D02*
G03*
X4260Y599I-164J-45D01*
G01*
D02*
G03*
X3976Y420I-127J-113D01*
G01*
X4512Y-137D02*
G03*
X4475Y-49I-125J0D01*
G01*
X4512Y-137D02*
G03*
X4475Y-49I-125J0D01*
G01*
X3944Y420D02*
G03*
X3957Y486I-157J66D01*
G01*
D02*
G03*
X3660Y599I-170J0D01*
G01*
D02*
G03*
X3414Y365I-127J-113D01*
G01*
X3306D02*
G03*
X3357Y486I-119J121D01*
G01*
D02*
G03*
X3060Y599I-170J0D01*
G01*
X2757Y486D02*
G03*
X2460Y599I-170J0D01*
G01*
X3060Y599D02*
G03*
X2947Y317I-127J-113D01*
G01*
X2647Y327D02*
G03*
X2757Y486I-60J159D01*
G01*
X2460Y599D02*
G03*
X2347Y317I-127J-113D01*
G01*
X2499Y-50D02*
G03*
X2466Y-106I88J-88D01*
G01*
X2499Y-50D02*
G03*
X2466Y-106I88J-88D01*
G01*
X4557Y-276D02*
G03*
X4512Y-161I-170J0D01*
G01*
X4498Y-405D02*
G03*
X4557Y-276I-111J129D01*
G01*
X3957Y-276D02*
G03*
X3939Y-200I-170J0D01*
G01*
X3898Y-405D02*
G03*
X3957Y-276I-111J129D01*
G01*
X4021Y-1106D02*
G03*
X4001Y-1025I-180J0D01*
G01*
X3426D02*
G03*
X3422Y-1180I161J-81D01*
G01*
X3357Y-276D02*
G03*
X3339Y-200I-170J0D01*
G01*
X3298Y-405D02*
G03*
X3357Y-276I-111J129D01*
G01*
X2757Y-276D02*
G03*
X2739Y-200I-170J0D01*
G01*
X2698Y-405D02*
G03*
X2757Y-276I-111J129D01*
G01*
X2896Y-775D02*
G03*
X2808Y-812I0J-125D01*
G01*
X2896Y-775D02*
G03*
X2808Y-812I0J-125D01*
G01*
X2694Y-926D02*
G03*
X2564Y-978I-3J-180D01*
G01*
D02*
G03*
X2272Y-1180I-127J-128D01*
G01*
X1573Y238D02*
G03*
X1484Y201I0J-125D01*
G01*
X1573Y238D02*
G03*
X1484Y201I0J-125D01*
G01*
X445Y0D02*
G03*
X132Y425I-445J0D01*
G01*
X-132D02*
G03*
X-70Y-439I132J-425D01*
G01*
X331Y-297D02*
G03*
X445Y0I-331J297D01*
G01*
X770Y-1106D02*
G03*
X507Y-946I-180J0D01*
G01*
X259Y-883D02*
G03*
X227Y-961I78J-78D01*
G01*
X259Y-883D02*
G03*
X227Y-961I78J-78D01*
G01*
Y-963D02*
G03*
X172Y-1180I110J-142D01*
G01*
X-556Y-926D02*
G03*
X-686Y-978I-3J-180D01*
G01*
D02*
G03*
X-978Y-1180I-127J-128D01*
G01*
X3876Y-1282D02*
G03*
X4021Y-1106I-35J176D01*
G01*
X3852Y-1475D02*
G03*
X3894Y-1360I-138J115D01*
G01*
D02*
G03*
X3876Y-1282I-180J0D01*
G01*
X2726Y-1282D02*
G03*
X2870Y-1106I-35J176D01*
G01*
X2743Y-1360D02*
G03*
X2726Y-1282I-180J0D01*
G01*
X2702Y-1475D02*
G03*
X2743Y-1360I-138J115D01*
G01*
X4662Y-1994D02*
G03*
X4225Y-1842I-245J0D01*
G01*
X4662Y-1994D02*
G03*
X4225Y-1842I-245J0D01*
G01*
X4225D02*
G03*
X4225Y-2147I-192J-152D01*
G01*
X4225Y-1842D02*
G03*
X4225Y-2147I-192J-152D01*
G01*
D02*
G03*
X4662Y-1994I192J152D01*
G01*
X4225Y-2147D02*
G03*
X4662Y-1994I192J152D01*
G01*
X3512D02*
G03*
X3075Y-1842I-245J0D01*
G01*
X3512Y-1994D02*
G03*
X3075Y-1842I-245J0D01*
G01*
Y-2147D02*
G03*
X3512Y-1994I192J152D01*
G01*
X3075Y-2147D02*
G03*
X3512Y-1994I192J152D01*
G01*
X3075Y-1842D02*
G03*
X3075Y-2147I-192J-152D01*
G01*
X3075Y-1842D02*
G03*
X3075Y-2147I-192J-152D01*
G01*
X2362Y-1994D02*
G03*
X2362Y-1994I-245J0D01*
G01*
D02*
G03*
X2362Y-1994I-245J0D01*
G01*
X1370Y-1238D02*
G03*
X1055Y-1327I-170J0D01*
G01*
X1345D02*
G03*
X1370Y-1238I-145J89D01*
G01*
X1369Y-1475D02*
G03*
X1345Y-1403I-169J-17D01*
G01*
X626Y-1282D02*
G03*
X770Y-1106I-35J176D01*
G01*
X643Y-1360D02*
G03*
X626Y-1282I-180J0D01*
G01*
X589Y-1489D02*
G03*
X643Y-1360I-125J130D01*
G01*
X1055Y-1403D02*
G03*
X1055Y-1581I145J-89D01*
G01*
Y-1657D02*
G03*
X1052Y-1830I145J-89D01*
G01*
X552Y-1625D02*
G03*
X589Y-1536I-88J88D01*
G01*
X552Y-1625D02*
G03*
X589Y-1536I-88J88D01*
G01*
X400Y-1725D02*
G03*
X488Y-1688I0J125D01*
G01*
X400Y-1725D02*
G03*
X488Y-1688I0J125D01*
G01*
X12D02*
G03*
X100Y-1725I88J88D01*
G01*
X12Y-1688D02*
G03*
X100Y-1725I88J88D01*
G01*
X-52Y-1271D02*
G03*
X-140Y-1235I-88J-88D01*
G01*
X-52Y-1271D02*
G03*
X-140Y-1235I-88J-88D01*
G01*
X-761Y-1524D02*
G03*
X-557Y-1485I74J164D01*
G01*
X1348Y-1830D02*
G03*
X1370Y-1746I-148J84D01*
G01*
D02*
G03*
X1369Y-1725I-170J0D01*
G01*
X1028Y-1994D02*
G03*
X1028Y-1994I-245J0D01*
G01*
D02*
G03*
X1028Y-1994I-245J0D01*
G01*
X262D02*
G03*
X-175Y-1842I-245J0D01*
G01*
X262Y-1994D02*
G03*
X-175Y-1842I-245J0D01*
G01*
Y-2147D02*
G03*
X262Y-1994I192J152D01*
G01*
X-888D02*
G03*
X-1300Y-1815I-245J0D01*
G01*
X-888Y-1994D02*
G03*
X-1300Y-1815I-245J0D01*
G01*
Y-2174D02*
G03*
X-888Y-1994I167J179D01*
G01*
X-175Y-2147D02*
G03*
X262Y-1994I192J152D01*
G01*
X-175Y-1842D02*
G03*
X-175Y-2147I-192J-152D01*
G01*
X-175Y-1842D02*
G03*
X-175Y-2147I-192J-152D01*
G01*
X-1300Y-2174D02*
G03*
X-888Y-1994I167J179D01*
G01*
X9347Y445D02*
Y700D01*
X9297Y456D02*
Y700D01*
X9447Y344D02*
Y700D01*
X9397Y416D02*
Y700D01*
X9247Y451D02*
Y700D01*
X9197Y430D02*
Y700D01*
X9147Y412D02*
Y700D01*
X9452Y327D02*
X9900D01*
X9430Y377D02*
X9900D01*
X9447Y227D02*
X9900D01*
X9457Y277D02*
X9900D01*
X9381Y427D02*
X9900D01*
X9127D02*
X9193D01*
X9047Y455D02*
Y700D01*
X8997Y452D02*
Y700D01*
X9097Y444D02*
Y700D01*
X8947Y433D02*
Y700D01*
X8747Y445D02*
Y700D01*
X8697Y456D02*
Y700D01*
X8897Y388D02*
Y700D01*
X8852Y327D02*
X8868D01*
X8847Y344D02*
Y700D01*
X8856Y264D02*
X8864Y272D01*
X8781Y427D02*
X8939D01*
X8797Y416D02*
Y700D01*
X8830Y377D02*
X8890D01*
X9348Y127D02*
X9900D01*
X9418Y177D02*
X9900D01*
X9447Y-418D02*
Y228D01*
X9397Y-346D02*
Y156D01*
X9094Y127D02*
X9226D01*
X9347Y-317D02*
Y127D01*
X8930Y27D02*
X9900D01*
X8980Y77D02*
X9900D01*
X9297Y-306D02*
Y116D01*
X9247Y-311D02*
Y121D01*
X8830Y-73D02*
X9900D01*
X8880Y-23D02*
X9900D01*
X8780Y-123D02*
X9900D01*
X9097Y-306D02*
Y128D01*
X9047Y-306D02*
Y117D01*
X9197Y-306D02*
Y142D01*
X9147Y-306D02*
Y160D01*
X8697Y106D02*
Y116D01*
X8770Y-133D02*
X9019Y117D01*
X8997Y-306D02*
Y94D01*
X8947Y-306D02*
Y44D01*
X8897Y-306D02*
Y-6D01*
X8847Y-418D02*
Y-56D01*
X8747Y-317D02*
Y-150D01*
X8697Y-306D02*
Y-165D01*
X8797Y-346D02*
Y-106D01*
X8647Y451D02*
Y700D01*
X8497Y444D02*
Y700D01*
X8597Y430D02*
Y700D01*
X8547Y412D02*
Y700D01*
X8447Y455D02*
Y700D01*
X8397Y452D02*
Y700D01*
X8297Y388D02*
Y700D01*
X8197Y416D02*
Y700D01*
X8527Y427D02*
X8593D01*
X8347Y433D02*
Y700D01*
X8230Y377D02*
X8290D01*
X8247Y344D02*
Y700D01*
X5478Y477D02*
X9900D01*
X5428Y527D02*
X9900D01*
X8181Y427D02*
X8339D01*
X8097Y456D02*
Y700D01*
X8047Y451D02*
Y700D01*
X8147Y445D02*
Y700D01*
X7997Y430D02*
Y700D01*
X7897Y444D02*
Y700D01*
X7847Y455D02*
Y700D01*
X7947Y412D02*
Y700D01*
X7797Y452D02*
Y700D01*
X7747Y433D02*
Y700D01*
X7927Y427D02*
X7993D01*
X7697Y388D02*
Y700D01*
X7581Y427D02*
X7739D01*
X7630Y377D02*
X7690D01*
X7652Y327D02*
X7668D01*
X8597Y55D02*
Y142D01*
X8547Y55D02*
Y160D01*
X8494Y127D02*
X8626D01*
X8646Y55D02*
X8709Y117D01*
X8647Y56D02*
Y121D01*
X8380Y77D02*
X8669D01*
X8358Y55D02*
X8646D01*
X8597Y-306D02*
Y-165D01*
X8252Y327D02*
X8268D01*
X8256Y264D02*
X8264Y272D01*
X7656Y264D02*
X7664Y272D01*
X8358Y55D02*
X8419Y117D01*
X8397Y55D02*
Y94D01*
X8497Y55D02*
Y128D01*
X8447Y55D02*
Y117D01*
X7915Y137D02*
X8005D01*
X7947D02*
Y160D01*
X9422Y-373D02*
X9900D01*
X9360Y-323D02*
X9900D01*
X9448Y-423D02*
X9900D01*
X9203Y-323D02*
X9214D01*
X8863Y-306D02*
X9203D01*
Y-328D02*
Y-306D01*
X8863Y-646D02*
Y-306D01*
X9450Y-523D02*
X9900D01*
X9457Y-473D02*
X9900D01*
X9427Y-573D02*
X9900D01*
X8827D02*
X8863D01*
X8850Y-523D02*
X8863D01*
X9400Y-623D02*
X9900D01*
X8547Y-306D02*
Y-165D01*
X8497Y-306D02*
Y-165D01*
X8647Y-311D02*
Y-165D01*
X8397Y-306D02*
Y-165D01*
X8347Y-306D02*
Y-165D01*
X8447Y-306D02*
Y-165D01*
X8848Y-423D02*
X8863D01*
X8822Y-373D02*
X8863D01*
X8812Y-623D02*
X8863D01*
X8760Y-323D02*
X8863D01*
X8603D02*
X8614D01*
X8603Y-328D02*
Y-306D01*
X9400Y-723D02*
X9900D01*
X9400Y-673D02*
X9900D01*
X9400Y-950D02*
Y-603D01*
X9150Y-898D02*
Y-646D01*
X8812Y-673D02*
X9150D01*
X8863Y-646D02*
X9150D01*
X8797Y-723D02*
X9150D01*
X9400Y-823D02*
X9900D01*
X9400Y-773D02*
X9900D01*
X9400Y-923D02*
X9900D01*
X9400Y-873D02*
X9900D01*
X8704Y-823D02*
X9150D01*
X8754Y-773D02*
X9150D01*
X9398Y-973D02*
X9900D01*
X9147Y-901D02*
Y-646D01*
X8812Y-663D02*
Y-591D01*
X9097Y-951D02*
Y-646D01*
X9047Y-1001D02*
Y-646D01*
X8447Y-726D02*
Y-646D01*
X8397Y-776D02*
Y-646D01*
X8347Y-826D02*
Y-646D01*
X8654Y-873D02*
X9150D01*
X8604Y-923D02*
X9126D01*
X8554Y-973D02*
X9076D01*
X8497Y-676D02*
Y-646D01*
X8504Y-1023D02*
X9026D01*
X6630Y-165D02*
X8692D01*
X8297Y-306D02*
Y-165D01*
X8263Y-306D02*
X8603D01*
X8247Y-418D02*
Y-165D01*
X6582Y-223D02*
X9900D01*
X6622Y-173D02*
X9900D01*
X6576Y-273D02*
X9900D01*
X8248Y-423D02*
X8263D01*
X8222Y-373D02*
X8263D01*
X8227Y-573D02*
X8263D01*
X8250Y-523D02*
X8263D01*
X8160Y-323D02*
X8263D01*
X8097Y-306D02*
Y-165D01*
X8047Y-311D02*
Y-165D01*
X8197Y-346D02*
Y-165D01*
X8147Y-317D02*
Y-165D01*
X7947Y-306D02*
Y-165D01*
X7747Y-306D02*
Y-165D01*
X7997Y-306D02*
Y-165D01*
X7897Y-306D02*
Y-165D01*
X7847Y-306D02*
Y-165D01*
X8003Y-323D02*
X8014D01*
X8003Y-328D02*
Y-306D01*
X7663D02*
X8003D01*
X7697D02*
Y-165D01*
X7797Y-306D02*
Y-165D01*
X8263Y-646D02*
X8527D01*
X8263D02*
Y-306D01*
X8297Y-876D02*
Y-646D01*
X8247Y-926D02*
Y-534D01*
X8212Y-623D02*
X8263D01*
X8212Y-663D02*
Y-591D01*
X8212Y-673D02*
X8501D01*
X8197Y-723D02*
X8451D01*
X8154Y-773D02*
X8401D01*
X8104Y-823D02*
X8351D01*
X8054Y-873D02*
X8301D01*
X8004Y-923D02*
X8251D01*
X7897Y-676D02*
Y-646D01*
X7847Y-726D02*
Y-646D01*
X7797Y-776D02*
Y-646D01*
X7747Y-826D02*
Y-646D01*
X7663D02*
X7927D01*
X7663D02*
Y-306D01*
X7697Y-876D02*
Y-646D01*
X7612Y-673D02*
X7901D01*
X7597Y-723D02*
X7851D01*
X7954Y-973D02*
X8201D01*
X8197Y-976D02*
Y-722D01*
X7554Y-773D02*
X7801D01*
X7504Y-823D02*
X7751D01*
X7454Y-873D02*
X7701D01*
X7497Y456D02*
Y700D01*
X7447Y451D02*
Y700D01*
X7597Y416D02*
Y700D01*
X7547Y445D02*
Y700D01*
X7297Y444D02*
Y700D01*
X7147Y433D02*
Y700D01*
X7397Y430D02*
Y700D01*
X7347Y412D02*
Y700D01*
X7247Y455D02*
Y700D01*
X7197Y452D02*
Y700D01*
X7327Y427D02*
X7393D01*
X6261Y396D02*
X7103D01*
X7047D02*
Y700D01*
X7097Y396D02*
Y700D01*
X6547Y396D02*
Y700D01*
X6497Y396D02*
Y700D01*
X6647Y396D02*
Y700D01*
X6597Y396D02*
Y700D01*
X6347Y396D02*
Y700D01*
X6297Y396D02*
Y700D01*
X6397Y396D02*
Y700D01*
X6897Y396D02*
Y700D01*
X6847Y396D02*
Y700D01*
X6997Y396D02*
Y700D01*
X6947Y396D02*
Y700D01*
X6747Y396D02*
Y700D01*
X6697Y396D02*
Y700D01*
X6797Y396D02*
Y700D01*
X7647Y344D02*
Y700D01*
Y-418D02*
Y-165D01*
X7597Y-346D02*
Y-165D01*
X6447Y396D02*
Y700D01*
X7547Y-317D02*
Y-165D01*
X7197Y-306D02*
Y-165D01*
X7147Y-306D02*
Y-165D01*
X7447Y-311D02*
Y-165D01*
X7247Y-306D02*
Y-165D01*
X7097Y-306D02*
Y-165D01*
X6581Y-213D02*
X6630Y-165D01*
X6997Y-976D02*
Y-165D01*
X6247Y395D02*
Y700D01*
X6197Y375D02*
Y700D01*
X6147Y328D02*
Y700D01*
X6097Y278D02*
Y700D01*
X6047Y156D02*
Y700D01*
X6080Y261D02*
X6183Y364D01*
X6048Y157D02*
Y183D01*
X5497Y459D02*
Y700D01*
X5447Y509D02*
Y700D01*
X5597Y359D02*
Y700D01*
X5547Y409D02*
Y700D01*
X5247Y557D02*
Y700D01*
X5197Y557D02*
Y700D01*
X5397Y548D02*
Y700D01*
X5528Y427D02*
X7139D01*
X5578Y377D02*
X6200D01*
X4622Y557D02*
X5353D01*
X5297D02*
Y700D01*
X5347Y557D02*
Y700D01*
X5047Y557D02*
Y700D01*
X4997Y557D02*
Y700D01*
X5147Y557D02*
Y700D01*
X5097Y557D02*
Y700D01*
X4897Y557D02*
Y700D01*
X4847Y557D02*
Y700D01*
X4947Y557D02*
Y700D01*
X4697Y557D02*
Y700D01*
X4647Y557D02*
Y700D01*
X4797Y557D02*
Y700D01*
X4747Y557D02*
Y700D01*
X4597Y554D02*
Y700D01*
X5947Y191D02*
Y700D01*
X5897Y197D02*
Y700D01*
X5997Y169D02*
Y700D01*
X5847Y187D02*
Y700D01*
X5628Y327D02*
X6147D01*
X5678Y277D02*
X6097D01*
X5797Y159D02*
Y700D01*
X5983Y177D02*
X6048D01*
X5728Y227D02*
X6057D01*
X5757Y177D02*
X5825D01*
X5747Y202D02*
Y700D01*
X5697Y259D02*
Y700D01*
X5430Y525D02*
X5728Y228D01*
X5647Y309D02*
Y700D01*
X4718Y-57D02*
X4740D01*
X4718Y-397D02*
Y-57D01*
X4647Y-405D02*
Y-12D01*
X4597Y-405D02*
Y-12D01*
X4697Y-405D02*
Y-12D01*
X7560Y-323D02*
X7663D01*
X7497Y-306D02*
Y-165D01*
X7403Y-328D02*
Y-306D01*
X7063D02*
X7403D01*
X7347D02*
Y-165D01*
X7403Y-323D02*
X7414D01*
X7397Y-306D02*
Y-165D01*
X7648Y-423D02*
X7663D01*
X7622Y-373D02*
X7663D01*
X7627Y-573D02*
X7663D01*
X7650Y-523D02*
X7663D01*
X7612Y-623D02*
X7663D01*
X7612Y-663D02*
Y-591D01*
X7297Y-306D02*
Y-165D01*
X7063Y-646D02*
Y-306D01*
X6553Y-323D02*
X7063D01*
X6246Y-373D02*
X6324D01*
X5992D02*
X6070D01*
X7063Y-646D02*
X7327D01*
X6500Y-373D02*
X7063D01*
X5883Y-423D02*
X7063D01*
X7297Y-676D02*
Y-646D01*
X7247Y-726D02*
Y-646D01*
X7647Y-926D02*
Y-534D01*
X7197Y-776D02*
Y-646D01*
X7147Y-826D02*
Y-646D01*
X7097Y-876D02*
Y-646D01*
X7404Y-923D02*
X7651D01*
X7354Y-973D02*
X7601D01*
X7597Y-976D02*
Y-722D01*
X6034Y-823D02*
X7151D01*
X6084Y-873D02*
X7101D01*
X6134Y-923D02*
X7051D01*
X7047Y-926D02*
Y-165D01*
X6097Y-885D02*
Y-386D01*
X6297Y-1017D02*
Y-352D01*
X6247Y-960D02*
Y-372D01*
X5997Y-791D02*
Y-369D01*
X5947Y-776D02*
Y-391D01*
X6047Y-835D02*
Y-356D01*
X6147Y-926D02*
Y-397D01*
X6023Y-812D02*
X6137Y-926D01*
X6262Y-973D02*
X7001D01*
X6197Y-935D02*
Y-392D01*
X5897Y-775D02*
Y-397D01*
X5316Y-405D02*
X5336Y-386D01*
X5297Y-405D02*
Y-365D01*
X5247Y-405D02*
Y-361D01*
X5230Y-373D02*
X5308D01*
X5197Y-405D02*
Y-388D01*
X5803Y-523D02*
X7063D01*
X5853Y-473D02*
X7063D01*
X5703Y-623D02*
X7063D01*
X5753Y-573D02*
X7063D01*
X5652Y-673D02*
X7301D01*
X5660Y-665D02*
X5855Y-470D01*
X5147Y-405D02*
Y-397D01*
X5058Y-397D02*
Y-375D01*
X5097Y-405D02*
Y-391D01*
X5047Y-405D02*
Y-397D01*
X4557Y-273D02*
X4718D01*
X4548Y-223D02*
X4718D01*
X4550Y-323D02*
X4718D01*
X4897Y-405D02*
Y-397D01*
X4847Y-405D02*
Y-397D01*
X4997Y-405D02*
Y-397D01*
X4947Y-405D02*
Y-397D01*
X4718D02*
X5058D01*
X4747Y-405D02*
Y-397D01*
X4797Y-405D02*
Y-397D01*
X5747Y-775D02*
Y-579D01*
X5697Y-775D02*
Y-629D01*
X5847Y-775D02*
Y-479D01*
X5797Y-775D02*
Y-529D01*
X5597Y-775D02*
Y-697D01*
X5647Y-775D02*
Y-677D01*
X5447Y-775D02*
Y-697D01*
X5397Y-775D02*
Y-697D01*
X5547Y-775D02*
Y-697D01*
X5497Y-775D02*
Y-697D01*
X4992Y-775D02*
X5935D01*
X5297D02*
Y-697D01*
X5347Y-775D02*
Y-697D01*
X4797Y-775D02*
Y-697D01*
X4747Y-775D02*
Y-697D01*
X4897Y-775D02*
Y-697D01*
X4847Y-775D02*
Y-697D01*
X4647Y-775D02*
Y-697D01*
X4597Y-775D02*
Y-697D01*
X4697Y-775D02*
Y-697D01*
X5147Y-775D02*
Y-697D01*
X5097Y-775D02*
Y-697D01*
X5247Y-775D02*
Y-697D01*
X5197Y-775D02*
Y-697D01*
X4997Y-775D02*
Y-697D01*
X4947Y-775D02*
Y-697D01*
X5047Y-775D02*
Y-697D01*
X9739Y-1073D02*
X9900D01*
X9747Y-1075D02*
Y700D01*
X9847Y-1153D02*
Y700D01*
X9797Y-1098D02*
Y700D01*
X9377Y-1023D02*
X9900D01*
X9697Y-1068D02*
Y700D01*
X9647Y-1076D02*
Y700D01*
X9869Y-1223D02*
X9900D01*
X9857Y-1173D02*
X9900D01*
X9847Y-1323D02*
X9900D01*
X9866Y-1273D02*
X9900D01*
X9825Y-1123D02*
X9900D01*
X9329Y-1073D02*
X9661D01*
X8997Y-1051D02*
Y-646D01*
X8947Y-1101D02*
Y-646D01*
X9597Y-1103D02*
Y700D01*
X9547Y-1164D02*
Y700D01*
X8897Y-1151D02*
Y-646D01*
X8847Y-1201D02*
Y-534D01*
X8797Y-1251D02*
Y-722D01*
X9279Y-1123D02*
X9575D01*
X9229Y-1173D02*
X9543D01*
X9129Y-1273D02*
X9534D01*
X9179Y-1223D02*
X9531D01*
X9079Y-1323D02*
X9553D01*
X9845Y-1373D02*
X9900D01*
X9847Y-1407D02*
Y-1323D01*
X9900Y-2400D02*
Y700D01*
X9897Y-2400D02*
Y700D01*
X9845Y-1403D02*
Y-1327D01*
X9555Y-1403D02*
Y-1327D01*
X9547Y-1418D02*
Y-1312D01*
X9869Y-1473D02*
X9900D01*
X9855Y-1423D02*
X9900D01*
X9867Y-1523D02*
X9900D01*
X9029Y-1373D02*
X9555D01*
X9397Y-1858D02*
Y-977D01*
X9347Y-1798D02*
Y-1055D01*
X9497Y-2400D02*
Y700D01*
X9447Y-2400D02*
Y-534D01*
X9000Y-1402D02*
X9363Y-1038D01*
X9247Y-1756D02*
Y-1155D01*
X9297Y-1769D02*
Y-1105D01*
X9197Y-1757D02*
Y-1205D01*
X9147Y-1771D02*
Y-1255D01*
X9097Y-1803D02*
Y-1305D01*
X9047Y-1858D02*
Y-1355D01*
X9000Y-1423D02*
X9545D01*
X9000Y-1473D02*
X9531D01*
X9000Y-1800D02*
Y-1402D01*
X8454Y-1073D02*
X8976D01*
X8404Y-1123D02*
X8926D01*
X8787Y-1262D02*
X9150Y-898D01*
X8300Y-1227D02*
X8775Y-751D01*
X8087Y-1087D02*
X8527Y-646D01*
X7904Y-1023D02*
X8151D01*
X7600Y-1327D02*
X8175Y-751D01*
X8354Y-1173D02*
X8876D01*
X8304Y-1223D02*
X8826D01*
X8300Y-1273D02*
X8777D01*
X8300Y-1323D02*
X8753D01*
X8300Y-1373D02*
X8750D01*
X8147Y-1026D02*
Y-780D01*
X7854Y-1073D02*
X8101D01*
X8097Y-1076D02*
Y-830D01*
X7304Y-1023D02*
X7551D01*
X7547Y-1026D02*
Y-780D01*
X7387Y-1187D02*
X7927Y-646D01*
X7804Y-1123D02*
X8062D01*
X7754Y-1173D02*
X8050D01*
X7704Y-1223D02*
X8050D01*
X7604Y-1323D02*
X8050D01*
X7654Y-1273D02*
X8050D01*
X7600Y-1373D02*
X8050D01*
X8647Y-1798D02*
Y-880D01*
X8597Y-1769D02*
Y-930D01*
X8747Y-1803D02*
Y-780D01*
X8697Y-1858D02*
Y-830D01*
X8547Y-1756D02*
Y-980D01*
X8497Y-1757D02*
Y-1030D01*
X8447Y-1771D02*
Y-1080D01*
X8750Y-1800D02*
Y-1350D01*
X8300Y-1800D02*
Y-1227D01*
X8397Y-1803D02*
Y-1130D01*
X8347Y-1858D02*
Y-1180D01*
X8300Y-1473D02*
X8750D01*
X8300Y-1423D02*
X8750D01*
X8300Y-1523D02*
X8750D01*
X7947Y-1798D02*
Y-980D01*
X7897Y-1769D02*
Y-1030D01*
X8047Y-1803D02*
Y-880D01*
X7997Y-1858D02*
Y-930D01*
X7847Y-1756D02*
Y-1080D01*
X6900Y-1427D02*
X7575Y-751D01*
X7797Y-1757D02*
Y-1130D01*
X8050Y-1800D02*
Y-1175D01*
X7747Y-1771D02*
Y-1180D01*
X7697Y-1803D02*
Y-1230D01*
X7647Y-1858D02*
Y-1280D01*
X7600Y-1473D02*
X8050D01*
X7600Y-1423D02*
X8050D01*
X7600Y-1800D02*
Y-1327D01*
X9853Y-1673D02*
X9900D01*
X9850Y-1573D02*
X9900D01*
X9868Y-1773D02*
X9900D01*
X9868Y-1723D02*
X9900D01*
X9845Y-1623D02*
X9900D01*
X9847Y-1661D02*
Y-1577D01*
X9870Y-1923D02*
X9900D01*
X9870Y-1873D02*
X9900D01*
X9870Y-2073D02*
X9900D01*
X9870Y-1973D02*
X9900D01*
X9852Y-1823D02*
X9900D01*
X9848Y-1830D02*
X9870D01*
Y-2023D02*
X9900D01*
X9845Y-1657D02*
Y-1581D01*
X9555Y-1657D02*
Y-1581D01*
X9547Y-1830D02*
Y-1820D01*
Y-1672D02*
Y-1566D01*
X9373Y-1823D02*
X9548D01*
X9306Y-1773D02*
X9532D01*
X9530Y-1830D02*
X9552D01*
X9420Y-1973D02*
X9530D01*
X9420Y-2023D02*
X9530D01*
X9420Y-2050D02*
Y-1950D01*
X9418Y-1923D02*
X9530D01*
X9404Y-1873D02*
X9530D01*
X9419Y-2073D02*
X9530D01*
X9870Y-2123D02*
X9900D01*
X9870Y-2170D02*
Y-1830D01*
X9847Y-2400D02*
Y-2170D01*
X9797Y-2400D02*
Y-2170D01*
X9530D02*
X9870D01*
X9647Y-2400D02*
Y-2170D01*
X9697Y-2400D02*
Y-2170D01*
X9348Y-2223D02*
X9900D01*
X9377Y-2173D02*
X9900D01*
X9327Y-2273D02*
X9900D01*
X9747Y-2400D02*
Y-2170D01*
X9228Y-2373D02*
X9900D01*
X9279Y-2323D02*
X9900D01*
X9150Y-2400D02*
X9900D01*
X9530Y-2170D02*
Y-1830D01*
X9406Y-2123D02*
X9530D01*
X9597Y-2400D02*
Y-2170D01*
X9547Y-2400D02*
Y-2170D01*
X9397Y-2400D02*
Y-2142D01*
X9347Y-2400D02*
Y-2227D01*
X9297Y-2400D02*
Y-2305D01*
X9247Y-2400D02*
Y-2355D01*
X9238Y-2363D02*
X9313Y-2288D01*
X9197Y-2400D02*
Y-2391D01*
X9000Y-1573D02*
X9550D01*
X9000Y-1523D02*
X9533D01*
X9000Y-1623D02*
X9555D01*
X9000Y-1673D02*
X9547D01*
X8300Y-1623D02*
X8750D01*
X8300Y-1573D02*
X8750D01*
X8300Y-1673D02*
X8750D01*
X9000Y-1723D02*
X9532D01*
X9000Y-1773D02*
X9144D01*
X9023Y-1823D02*
X9077D01*
X8606Y-1773D02*
X8750D01*
X8300Y-1723D02*
X8750D01*
X8673Y-1823D02*
X8727D01*
X7600Y-1573D02*
X8050D01*
X7600Y-1523D02*
X8050D01*
X7600Y-1623D02*
X8050D01*
X7600Y-1723D02*
X8050D01*
X7600Y-1673D02*
X8050D01*
X7600Y-1773D02*
X7744D01*
X8300D02*
X8444D01*
X8323Y-1823D02*
X8377D01*
X7973D02*
X8027D01*
X7906Y-1773D02*
X8050D01*
X7623Y-1823D02*
X7677D01*
X9042Y-2150D02*
X9058D01*
X8697D02*
Y-2142D01*
X9047Y-2150D02*
Y-2142D01*
X8525Y-2400D02*
X9150D01*
X8692Y-2150D02*
X8708D01*
X7825Y-2400D02*
X8525D01*
X7992Y-2150D02*
X8008D01*
X7997D02*
Y-2142D01*
X8342Y-2150D02*
X8358D01*
X8347D02*
Y-2142D01*
X7642Y-2150D02*
X7658D01*
X7647D02*
Y-2142D01*
X7125Y-2400D02*
X7825D01*
X7254Y-1073D02*
X7501D01*
X7497Y-1076D02*
Y-830D01*
X7447Y-1126D02*
Y-880D01*
X7397Y-1176D02*
Y-930D01*
X7204Y-1123D02*
X7451D01*
X6300Y-1023D02*
X6951D01*
X7154Y-1173D02*
X7401D01*
X6687Y-1287D02*
X7327Y-646D01*
X7104Y-1223D02*
X7362D01*
X7054Y-1273D02*
X7350D01*
X6954Y-1373D02*
X7350D01*
X7004Y-1323D02*
X7350D01*
X6904Y-1423D02*
X7350D01*
X6947Y-1026D02*
Y-165D01*
X6897Y-1076D02*
Y-165D01*
X6847Y-1126D02*
Y-165D01*
X6797Y-1176D02*
Y-165D01*
X6317Y-1073D02*
X6901D01*
X6747Y-1226D02*
Y-165D01*
X6697Y-1276D02*
Y-165D01*
X6320Y-1123D02*
X6851D01*
X6308Y-1173D02*
X6801D01*
X6277Y-1223D02*
X6751D01*
X6207Y-1273D02*
X6701D01*
X6193Y-1373D02*
X6650D01*
X7350Y-1800D02*
Y-1275D01*
X7247Y-1798D02*
Y-1080D01*
X7347Y-1803D02*
Y-980D01*
X7297Y-1858D02*
Y-1030D01*
X7147Y-1756D02*
Y-1180D01*
X7097Y-1757D02*
Y-1230D01*
X7197Y-1769D02*
Y-1130D01*
X6900Y-1523D02*
X7350D01*
X6900Y-1473D02*
X7350D01*
X6900Y-1573D02*
X7350D01*
X7047Y-1771D02*
Y-1280D01*
X6900Y-1673D02*
X7350D01*
X6900Y-1623D02*
X7350D01*
X6900Y-1723D02*
X7350D01*
X6647Y-1803D02*
Y-165D01*
X6497Y-1812D02*
Y-374D01*
X6597Y-1870D02*
Y-198D01*
X6547Y-1875D02*
Y-330D01*
X6397Y-1758D02*
Y-396D01*
X6347Y-1750D02*
Y-384D01*
X6447Y-1778D02*
Y-393D01*
X6900Y-1800D02*
Y-1427D01*
X6650Y-1800D02*
Y-1375D01*
X6997Y-1803D02*
Y-1330D01*
X6947Y-1858D02*
Y-1380D01*
X6297Y-1752D02*
Y-1194D01*
X6247Y-1765D02*
Y-1251D01*
X6197Y-1791D02*
Y-1276D01*
X5697Y-1180D02*
Y-1025D01*
X5151D02*
X5726D01*
X5167Y-1073D02*
X5710D01*
X5647Y-1180D02*
Y-1025D01*
X6190Y-1323D02*
X6662D01*
X6154Y-1473D02*
X6650D01*
X6182Y-1423D02*
X6650D01*
X5158Y-1173D02*
X5719D01*
X5170Y-1123D02*
X5707D01*
X5579Y-1180D02*
X5722D01*
X5597D02*
Y-1025D01*
X5579Y-1475D02*
Y-1180D01*
X5447Y-1475D02*
Y-1025D01*
X5397Y-1475D02*
Y-1025D01*
X5057Y-1273D02*
X5579D01*
X5127Y-1223D02*
X5579D01*
X5043Y-1373D02*
X5579D01*
X5040Y-1323D02*
X5579D01*
X5032Y-1423D02*
X5579D01*
X5004Y-1473D02*
X5579D01*
X5547Y-1475D02*
Y-1025D01*
X6147Y-1835D02*
Y-1480D01*
X6138Y-1600D02*
Y-1489D01*
X5002Y-1475D02*
X5579D01*
X5347D02*
Y-1025D01*
X5497Y-1475D02*
Y-1025D01*
X6138Y-1573D02*
X6650D01*
X6138Y-1523D02*
X6650D01*
X6138Y-1623D02*
X6650D01*
X6138Y-1846D02*
Y-1600D01*
Y-1723D02*
X6650D01*
X6138Y-1673D02*
X6650D01*
X5397Y-1818D02*
Y-1725D01*
X5197Y-1475D02*
Y-1025D01*
X5147Y-1475D02*
Y-1194D01*
X5297Y-1475D02*
Y-1025D01*
X5247Y-1475D02*
Y-1025D01*
X5047Y-1475D02*
Y-1276D01*
X5097Y-1475D02*
Y-1251D01*
X5147Y-1752D02*
Y-1725D01*
X5047Y-1791D02*
Y-1725D01*
X5347Y-1812D02*
Y-1725D01*
X4897Y-2400D02*
Y-1725D01*
X4697Y-2400D02*
Y-1725D01*
X4647Y-1910D02*
Y-1725D01*
X4847Y-2400D02*
Y-1725D01*
X7206Y-1773D02*
X7350D01*
X6923Y-1823D02*
X6977D01*
X6900Y-1773D02*
X7044D01*
X6437D02*
X6650D01*
X7273Y-1823D02*
X7327D01*
X6567Y-1923D02*
X6582D01*
X6597Y-2150D02*
Y-2130D01*
X6565Y-2073D02*
X6581D01*
X6508Y-1823D02*
X6627D01*
X6546Y-1873D02*
X6596D01*
X6542Y-2123D02*
X6594D01*
X6138Y-1773D02*
X6229D01*
X6138Y-1823D02*
X6158D01*
X5797Y-1910D02*
Y-1725D01*
X5747Y-1828D02*
Y-1725D01*
X5888Y-2064D02*
Y-1725D01*
X5811Y-1973D02*
X5888D01*
X5801Y-1923D02*
X5888D01*
X6580Y-2050D02*
Y-1950D01*
X5810Y-2023D02*
X5888D01*
X5799Y-2073D02*
X5889D01*
X5780Y-1873D02*
X5888D01*
X5776Y-2123D02*
X5903D01*
X6547Y-2150D02*
Y-2114D01*
X6947Y-2150D02*
Y-2142D01*
X7292Y-2150D02*
X7308D01*
X7297D02*
Y-2142D01*
X6942Y-2150D02*
X6958D01*
X6522D02*
X6608D01*
X6225Y-2400D02*
X7125D01*
X5925Y-2152D02*
X6137Y-2363D01*
X5897Y-2400D02*
Y-2109D01*
X5797Y-2400D02*
Y-2079D01*
X5747Y-2400D02*
Y-2161D01*
X5847Y-2400D02*
Y-1725D01*
X6097Y-2400D02*
Y-2324D01*
X6147Y-2400D02*
Y-2373D01*
X5997Y-2400D02*
Y-2224D01*
X5947Y-2400D02*
Y-2174D01*
X6047Y-2400D02*
Y-2274D01*
X5597Y-1751D02*
Y-1725D01*
X5547Y-1750D02*
Y-1725D01*
X5697Y-1787D02*
Y-1725D01*
X5647Y-1763D02*
Y-1725D01*
X4850D02*
X5888D01*
X5497Y-1760D02*
Y-1725D01*
X5447Y-1781D02*
Y-1725D01*
X5742Y-1823D02*
X5888D01*
X5671Y-1773D02*
X5888D01*
X5287D02*
X5463D01*
X5358Y-1823D02*
X5392D01*
X5351Y-2173D02*
X5399D01*
X5247Y-1758D02*
Y-1725D01*
X5197Y-1750D02*
Y-1725D01*
X5297Y-1778D02*
Y-1725D01*
X5097Y-1765D02*
Y-1725D01*
X4997Y-1835D02*
Y-1725D01*
X4597Y-1828D02*
Y-1725D01*
X4947Y-1929D02*
Y-1725D01*
X4651Y-1923D02*
X4949D01*
X4661Y-1973D02*
X4939D01*
X4649Y-2073D02*
X4951D01*
X4660Y-2023D02*
X4940D01*
X4592Y-1823D02*
X5008D01*
X4630Y-1873D02*
X4970D01*
X4626Y-2123D02*
X4974D01*
X5735Y-2173D02*
X5946D01*
X5697Y-2400D02*
Y-2202D01*
X5397Y-2400D02*
Y-2171D01*
X5656Y-2223D02*
X5996D01*
X5647Y-2400D02*
Y-2226D01*
X5597Y-2400D02*
Y-2238D01*
X5547Y-2400D02*
Y-2239D01*
X5272Y-2223D02*
X5478D01*
X5447Y-2400D02*
Y-2208D01*
X5497Y-2400D02*
Y-2229D01*
X4797Y-2400D02*
Y-1725D01*
X4747Y-2400D02*
Y-1725D01*
X4997Y-2400D02*
Y-2154D01*
X4947Y-2400D02*
Y-2060D01*
X4585Y-2173D02*
X5015D01*
X4597Y-2400D02*
Y-2161D01*
X4647Y-2400D02*
Y-2079D01*
X5247Y-2400D02*
Y-2231D01*
X5197Y-2400D02*
Y-2239D01*
X5347Y-2400D02*
Y-2177D01*
X5297Y-2400D02*
Y-2211D01*
X5097Y-2400D02*
Y-2224D01*
X5047Y-2400D02*
Y-2198D01*
X5147Y-2400D02*
Y-2237D01*
X4397Y656D02*
Y700D01*
X4347Y651D02*
Y700D01*
X4497Y616D02*
Y700D01*
X4447Y645D02*
Y700D01*
X4297Y630D02*
Y700D01*
X4047Y633D02*
Y700D01*
X4247Y612D02*
Y700D01*
X3997Y588D02*
Y700D01*
X4227Y627D02*
X4293D01*
X4197Y644D02*
Y700D01*
X4530Y577D02*
X9900D01*
X4481Y627D02*
X9900D01*
X4147Y655D02*
Y700D01*
X4097Y652D02*
Y700D01*
X3881Y627D02*
X4039D01*
X3797Y656D02*
Y700D01*
X3747Y651D02*
Y700D01*
X3847Y645D02*
Y700D01*
X3697Y630D02*
Y700D01*
X3647Y612D02*
Y700D01*
X3597Y644D02*
Y700D01*
X3397Y588D02*
Y700D01*
X3627Y627D02*
X3693D01*
X3547Y655D02*
Y700D01*
X3930Y577D02*
X3990D01*
X3897Y616D02*
Y700D01*
X3497Y652D02*
Y700D01*
X3447Y633D02*
Y700D01*
X3330Y577D02*
X3390D01*
X4547Y544D02*
Y700D01*
X4439Y-12D02*
X4703D01*
X4547Y-218D02*
Y-12D01*
X3947Y427D02*
X3973D01*
X3944Y420D02*
X3976D01*
X4494Y-73D02*
X4718D01*
X4497Y-78D02*
Y-12D01*
X4449Y-23D02*
X4725D01*
X4447Y-20D02*
Y-12D01*
X4439D02*
X4475Y-49D01*
X3952Y527D02*
X3968D01*
X3947Y544D02*
Y700D01*
X3352Y527D02*
X3368D01*
X3347Y544D02*
Y700D01*
X3947Y420D02*
Y428D01*
X3347Y427D02*
X3373D01*
X3397Y365D02*
Y384D01*
X3347Y365D02*
Y428D01*
X3318Y377D02*
X3402D01*
X3306Y365D02*
X3414D01*
X3197Y656D02*
Y700D01*
X3147Y651D02*
Y700D01*
X3297Y616D02*
Y700D01*
X3247Y645D02*
Y700D01*
X594D02*
X9900D01*
X2947Y655D02*
Y700D01*
X3097Y630D02*
Y700D01*
X2897Y652D02*
Y700D01*
X3281Y627D02*
X3439D01*
X3027D02*
X3093D01*
X3047Y612D02*
Y700D01*
X594Y677D02*
X9900D01*
X2997Y644D02*
Y700D01*
X2847Y633D02*
Y700D01*
X2697Y616D02*
Y700D01*
X2647Y645D02*
Y700D01*
X2797Y588D02*
Y700D01*
X2747Y544D02*
Y700D01*
X2597Y656D02*
Y700D01*
X2397Y644D02*
Y700D01*
X2447Y612D02*
Y700D01*
X2681Y627D02*
X2839D01*
X2547Y651D02*
Y700D01*
X2730Y577D02*
X2790D01*
X2752Y527D02*
X2768D01*
X2497Y630D02*
Y700D01*
X2427Y627D02*
X2493D01*
X2747Y427D02*
X2773D01*
X2797Y310D02*
Y384D01*
X2747Y310D02*
Y428D01*
X2718Y377D02*
X2802D01*
X2697Y310D02*
Y356D01*
X2665Y310D02*
X2953D01*
X2847D02*
Y339D01*
X2947Y317D02*
X2953Y310D01*
X2897D02*
Y320D01*
X2648Y327D02*
X2872D01*
X2647Y327D02*
X2665Y310D01*
X2499Y-50D02*
X2536Y-12D01*
X2347Y317D02*
X2426Y238D01*
X2497Y-51D02*
Y-12D01*
X2397Y238D02*
Y266D01*
X1573Y238D02*
X2426D01*
X348Y277D02*
X2386D01*
X1624Y-12D02*
X2536D01*
X2447Y-106D02*
Y-12D01*
X2397Y-106D02*
Y-12D01*
X1614Y-23D02*
X2526D01*
X1564Y-73D02*
X2480D01*
X2163Y-106D02*
X2466D01*
X4522Y-173D02*
X4718D01*
X4527Y-373D02*
X4718D01*
X4547Y-405D02*
Y-334D01*
X4511Y-123D02*
X4718D01*
X4512Y-161D02*
Y-137D01*
X3950Y-323D02*
X3963D01*
X4498Y-405D02*
X5316D01*
X4547Y-775D02*
Y-697D01*
X4447Y-775D02*
Y-697D01*
X4397Y-775D02*
Y-697D01*
X4097Y-775D02*
Y-697D01*
X4047Y-775D02*
Y-697D01*
X4147Y-775D02*
Y-697D01*
X3948Y-223D02*
X3963D01*
X3947Y-218D02*
Y-200D01*
X3963Y-405D02*
Y-200D01*
X3939D02*
X3963D01*
X3347Y-218D02*
Y-200D01*
X3363Y-405D02*
Y-200D01*
X3927Y-373D02*
X3963D01*
X3947Y-405D02*
Y-334D01*
X3898Y-405D02*
X3963D01*
X3350Y-323D02*
X3363D01*
X3348Y-223D02*
X3363D01*
X3347Y-405D02*
Y-334D01*
X4297Y-775D02*
Y-697D01*
X4247Y-775D02*
Y-697D01*
X4497Y-775D02*
Y-697D01*
X4347Y-775D02*
Y-697D01*
X3997Y-775D02*
Y-697D01*
X3947Y-775D02*
Y-697D01*
X4197Y-775D02*
Y-697D01*
X4017Y-1073D02*
X4560D01*
X4020Y-1123D02*
X4557D01*
X4008Y-1173D02*
X4569D01*
X4547Y-1180D02*
Y-1025D01*
X3840Y-775D02*
X4992D01*
X4001Y-1025D02*
X4576D01*
X3797Y-775D02*
Y-697D01*
X3747Y-775D02*
Y-697D01*
X3897Y-775D02*
Y-697D01*
X3847Y-775D02*
Y-697D01*
X3647Y-775D02*
Y-697D01*
X3597Y-775D02*
Y-697D01*
X3697Y-775D02*
Y-697D01*
X3547Y-775D02*
Y-697D01*
X3497Y-775D02*
Y-697D01*
X3447Y-775D02*
Y-697D01*
X3397Y-1180D02*
Y-1025D01*
Y-775D02*
Y-697D01*
X3347Y-1180D02*
Y-1025D01*
X3339Y-200D02*
X3363D01*
X3327Y-373D02*
X3363D01*
X756Y-697D02*
X5583D01*
X3298Y-405D02*
X3363D01*
X3097Y-775D02*
Y-697D01*
X3247Y-775D02*
Y-697D01*
X3197Y-775D02*
Y-697D01*
X3347Y-775D02*
Y-697D01*
X3297Y-775D02*
Y-697D01*
X730Y-723D02*
X7251D01*
X680Y-773D02*
X7201D01*
X2896Y-775D02*
X3840D01*
X2748Y-223D02*
X2763D01*
X2747Y-218D02*
Y-200D01*
X2763Y-405D02*
Y-200D01*
X2750Y-323D02*
X2763D01*
X2739Y-200D02*
X2763D01*
X2947Y-775D02*
Y-697D01*
X2897Y-775D02*
Y-697D01*
X3047Y-775D02*
Y-697D01*
X2997Y-775D02*
Y-697D01*
X2727Y-373D02*
X2763D01*
X2747Y-405D02*
Y-334D01*
X2698Y-405D02*
X2763D01*
X3147Y-775D02*
Y-697D01*
X2847Y-785D02*
Y-697D01*
X2797Y-822D02*
Y-697D01*
X630Y-823D02*
X2797D01*
X2694Y-926D02*
X2808Y-812D01*
X2948Y-1025D02*
X3426D01*
X2900Y-1073D02*
X3410D01*
X3279Y-1180D02*
X3422D01*
X3297D02*
Y-1025D01*
X2870Y-1123D02*
X3407D01*
X2870Y-1102D02*
X2948Y-1025D01*
X2858Y-1173D02*
X3419D01*
X2747Y-872D02*
Y-697D01*
X2697Y-922D02*
Y-697D01*
X2647Y-931D02*
Y-697D01*
X2597Y-952D02*
Y-697D01*
X2447Y-926D02*
Y-697D01*
X2397Y-930D02*
Y-697D01*
X2547Y-963D02*
Y-697D01*
X2497Y-936D02*
Y-697D01*
X2347Y-949D02*
Y-697D01*
X2558Y-973D02*
X2569D01*
X580Y-873D02*
X2747D01*
X530Y-923D02*
X2697D01*
X2347Y655D02*
Y700D01*
X2297Y652D02*
Y700D01*
X2247Y633D02*
Y700D01*
X2197Y588D02*
Y700D01*
X1947Y238D02*
Y700D01*
X1847Y238D02*
Y700D01*
X2147Y238D02*
Y700D01*
X2097Y238D02*
Y700D01*
X2247Y238D02*
Y339D01*
X2197Y238D02*
Y384D01*
X2347Y238D02*
Y316D01*
X2297Y238D02*
Y320D01*
X1997Y238D02*
Y700D01*
X1897Y238D02*
Y700D01*
X2047Y238D02*
Y700D01*
X1697Y238D02*
Y700D01*
X1647Y238D02*
Y700D01*
X1797Y238D02*
Y700D01*
X1747Y238D02*
Y700D01*
X1597Y238D02*
Y700D01*
X1547Y235D02*
Y700D01*
X1347Y64D02*
Y700D01*
X1497Y212D02*
Y700D01*
X1447Y164D02*
Y700D01*
X1397Y114D02*
Y700D01*
X1297Y14D02*
Y700D01*
X1247Y-36D02*
Y700D01*
X1897Y-405D02*
Y-12D01*
X1847Y-405D02*
Y-12D01*
X1997Y-405D02*
Y-12D01*
X1947Y-405D02*
Y-12D01*
X1747Y-405D02*
Y-12D01*
X1697Y-405D02*
Y-12D01*
X1797Y-405D02*
Y-12D01*
X2247Y-106D02*
Y-12D01*
X2197Y-106D02*
Y-12D01*
X2347Y-106D02*
Y-12D01*
X2297Y-106D02*
Y-12D01*
X2097Y-405D02*
Y-12D01*
X2047Y-405D02*
Y-12D01*
X2147Y-405D02*
Y-12D01*
X997Y-286D02*
Y700D01*
X947Y-297D02*
Y700D01*
X897Y-297D02*
Y700D01*
X847Y-297D02*
Y700D01*
X747Y-297D02*
Y700D01*
X697Y-297D02*
Y700D01*
X797Y-297D02*
Y700D01*
X1197Y-86D02*
Y700D01*
X1147Y-136D02*
Y700D01*
X1647Y-405D02*
Y-12D01*
X1232Y-405D02*
X1624Y-12D01*
X1097Y-186D02*
Y700D01*
X1047Y-236D02*
Y700D01*
X986Y-297D02*
X1484Y201D01*
X594Y627D02*
X2239D01*
X594Y577D02*
X2190D01*
X594Y527D02*
X2168D01*
X594Y425D02*
Y700D01*
Y427D02*
X2173D01*
X594Y477D02*
X2163D01*
X132Y425D02*
X594D01*
X301Y327D02*
X2272D01*
X347Y279D02*
Y425D01*
X383Y227D02*
X1523D01*
X397Y201D02*
Y425D01*
X236Y377D02*
X2202D01*
X247Y370D02*
Y425D01*
X297Y331D02*
Y425D01*
X197Y399D02*
Y425D01*
X-203Y396D02*
Y425D01*
X-253Y366D02*
Y425D01*
X-303Y326D02*
Y425D01*
X-510D02*
X-132D01*
X-353Y271D02*
Y425D01*
X-403Y189D02*
Y425D01*
X-510Y377D02*
X-236D01*
X-510Y327D02*
X-301D01*
X-510Y277D02*
X-348D01*
X-510Y230D02*
Y425D01*
X-1300Y227D02*
X-383D01*
X-1300Y230D02*
X-510D01*
X-1300Y177D02*
X-408D01*
X547Y-297D02*
Y425D01*
X497Y-297D02*
Y425D01*
X647Y-297D02*
Y700D01*
X597Y-297D02*
Y700D01*
X447Y-297D02*
Y425D01*
X408Y177D02*
X1461D01*
X426Y127D02*
X1411D01*
X438Y77D02*
X1361D01*
X444Y27D02*
X1311D01*
X-1300Y127D02*
X-426D01*
X-1300Y77D02*
X-438D01*
X-453Y-822D02*
Y425D01*
X-503Y-872D02*
Y425D01*
X-553Y-922D02*
Y230D01*
X-603Y-931D02*
Y230D01*
X-653Y-952D02*
Y230D01*
X-753Y-936D02*
Y230D01*
X-703Y-963D02*
Y230D01*
X-803Y-926D02*
Y230D01*
X-853Y-930D02*
Y230D01*
X-903Y-949D02*
Y230D01*
X-953Y-992D02*
Y230D01*
X-1300Y27D02*
X-444D01*
X-1053Y-1180D02*
Y230D01*
X-1003Y-1180D02*
Y230D01*
X1514Y-123D02*
X2163D01*
X1547Y-405D02*
Y-90D01*
X2163Y-405D02*
Y-106D01*
X1597Y-405D02*
Y-40D01*
X1414Y-223D02*
X2163D01*
X1464Y-173D02*
X2163D01*
X1497Y-405D02*
Y-140D01*
X1447Y-405D02*
Y-190D01*
X1314Y-323D02*
X2163D01*
X1364Y-273D02*
X2163D01*
X1397Y-405D02*
Y-240D01*
X1347Y-405D02*
Y-290D01*
X1264Y-373D02*
X2163D01*
X1297Y-405D02*
Y-340D01*
X1232Y-405D02*
X2163D01*
X444Y-23D02*
X1261D01*
X439Y-73D02*
X1211D01*
X428Y-123D02*
X1161D01*
X410Y-173D02*
X1111D01*
X385Y-223D02*
X1061D01*
X352Y-273D02*
X1011D01*
X397Y-297D02*
Y-201D01*
X1247Y-405D02*
Y-390D01*
X361Y-625D02*
X517D01*
X497Y-645D02*
Y-625D01*
X447Y-695D02*
Y-625D01*
X331Y-297D02*
X986D01*
X347D02*
Y-279D01*
X313Y-673D02*
X469D01*
X2297Y-992D02*
Y-697D01*
X1347Y-1153D02*
Y-697D01*
X2247Y-1180D02*
Y-697D01*
X2147Y-1180D02*
Y-697D01*
X1247Y-1075D02*
Y-697D01*
X1197Y-1068D02*
Y-697D01*
X1297Y-1098D02*
Y-697D01*
X1239Y-1073D02*
X2260D01*
X1325Y-1123D02*
X2257D01*
X2130Y-1180D02*
X2272D01*
X1357Y-1173D02*
X2269D01*
X712Y-973D02*
X2315D01*
X750Y-1023D02*
X2277D01*
X767Y-1073D02*
X1161D01*
X1147Y-1076D02*
Y-697D01*
X747Y-1017D02*
Y-706D01*
X1097Y-1103D02*
Y-697D01*
X1047Y-1164D02*
Y-697D01*
X397Y-745D02*
Y-625D01*
X347Y-795D02*
Y-639D01*
X507Y-946D02*
X756Y-697D01*
X697Y-960D02*
Y-756D01*
X647Y-935D02*
Y-806D01*
X770Y-1123D02*
X1075D01*
X758Y-1173D02*
X1043D01*
X597Y-926D02*
Y-856D01*
X547Y-931D02*
Y-906D01*
X-103Y-472D02*
Y-433D01*
X-153Y-522D02*
Y-418D01*
X-203Y-572D02*
Y-396D01*
X-253Y-622D02*
Y-366D01*
X-1300Y-423D02*
X-139D01*
X-1300Y-373D02*
X-243D01*
X-1300Y-473D02*
X-103D01*
X263Y-723D02*
X419D01*
X213Y-773D02*
X369D01*
X163Y-823D02*
X319D01*
X297Y-845D02*
Y-689D01*
X-1300Y-523D02*
X-153D01*
X-1300Y-573D02*
X-203D01*
X-1300Y-623D02*
X-253D01*
X-1300Y-73D02*
X-439D01*
X-1300Y-23D02*
X-444D01*
X-353Y-722D02*
Y-271D01*
X-403Y-772D02*
Y-189D01*
X-1300Y-173D02*
X-410D01*
X-1300Y-123D02*
X-428D01*
X-1300Y-223D02*
X-385D01*
X-1300Y-323D02*
X-306D01*
X-1300Y-273D02*
X-352D01*
X-303Y-672D02*
Y-326D01*
X-1300Y-673D02*
X-303D01*
X-1300Y-723D02*
X-353D01*
X-1300Y-773D02*
X-403D01*
X-1300Y-823D02*
X-453D01*
X259Y-883D02*
X517Y-625D01*
X247Y-897D02*
Y-739D01*
X113Y-873D02*
X269D01*
X63Y-923D02*
X233D01*
X197Y-992D02*
Y-789D01*
X13Y-973D02*
X215D01*
X-37Y-1023D02*
X177D01*
X29Y-1180D02*
X172D01*
X-87Y-1073D02*
X160D01*
X-137Y-1123D02*
X157D01*
X-187Y-1173D02*
X169D01*
X-556Y-926D02*
X-70Y-439D01*
X147Y-1180D02*
Y-839D01*
X47Y-1180D02*
Y-939D01*
X-1300Y-873D02*
X-503D01*
X-1300Y-923D02*
X-553D01*
X-692Y-973D02*
X-681D01*
X-1300D02*
X-935D01*
X-1300Y-1023D02*
X-973D01*
X-1120Y-1180D02*
X-978D01*
X-1300Y-1073D02*
X-990D01*
X-1300Y-1123D02*
X-993D01*
X-1300Y-1173D02*
X-981D01*
X4497Y-1180D02*
Y-1025D01*
X4447Y-1180D02*
Y-1025D01*
X4429Y-1180D02*
X4572D01*
X4429Y-1475D02*
Y-1180D01*
X3977Y-1223D02*
X4429D01*
X4297Y-1475D02*
Y-1025D01*
X4397Y-1475D02*
Y-1025D01*
X4347Y-1475D02*
Y-1025D01*
X3890Y-1323D02*
X4429D01*
X3907Y-1273D02*
X4429D01*
X3882Y-1423D02*
X4429D01*
X3893Y-1373D02*
X4429D01*
X3852Y-1475D02*
X4429D01*
X3854Y-1473D02*
X4429D01*
X3700Y-1725D02*
X4850D01*
X4147Y-1475D02*
Y-1025D01*
X4097Y-1475D02*
Y-1025D01*
X4247Y-1475D02*
Y-1025D01*
X4197Y-1475D02*
Y-1025D01*
X3247Y-1475D02*
Y-1025D01*
X3197Y-1475D02*
Y-1025D01*
X4047Y-1475D02*
Y-1025D01*
X3897Y-1475D02*
Y-1276D01*
X3997Y-1475D02*
Y-1194D01*
X3947Y-1475D02*
Y-1251D01*
X3279Y-1475D02*
Y-1180D01*
X4097Y-1758D02*
Y-1725D01*
X4047Y-1750D02*
Y-1725D01*
X4197Y-1812D02*
Y-1725D01*
X4147Y-1778D02*
Y-1725D01*
X3997Y-1752D02*
Y-1725D01*
X3947Y-1765D02*
Y-1725D01*
X3897Y-1791D02*
Y-1725D01*
X4447Y-1751D02*
Y-1725D01*
X4397Y-1750D02*
Y-1725D01*
X4547Y-1787D02*
Y-1725D01*
X4497Y-1763D02*
Y-1725D01*
X4347Y-1760D02*
Y-1725D01*
X4297Y-1781D02*
Y-1725D01*
X4247Y-1818D02*
Y-1725D01*
X3397Y-1787D02*
Y-1725D01*
X3347Y-1763D02*
Y-1725D01*
X3497Y-1910D02*
Y-1725D01*
X3447Y-1828D02*
Y-1725D01*
X3297Y-1751D02*
Y-1725D01*
X3247Y-1750D02*
Y-1725D01*
X3197Y-1760D02*
Y-1725D01*
X3847Y-1835D02*
Y-1725D01*
X3797Y-1929D02*
Y-1725D01*
X3747Y-2400D02*
Y-1725D01*
X3697Y-2400D02*
Y-1725D01*
X3597Y-2400D02*
Y-1725D01*
X3547Y-2400D02*
Y-1725D01*
X3647Y-2400D02*
Y-1725D01*
X3047Y-1475D02*
Y-1025D01*
X2997Y-1475D02*
Y-1025D01*
X3147Y-1475D02*
Y-1025D01*
X3097Y-1475D02*
Y-1025D01*
X2897Y-1475D02*
Y-1076D01*
X2947Y-1475D02*
Y-1026D01*
X2757Y-1273D02*
X3279D01*
X2827Y-1223D02*
X3279D01*
X2743Y-1373D02*
X3279D01*
X2740Y-1323D02*
X3279D01*
X2704Y-1473D02*
X3279D01*
X2732Y-1423D02*
X3279D01*
X2702Y-1475D02*
X3279D01*
X2197Y-1180D02*
Y-697D01*
X2047Y-1475D02*
Y-697D01*
X1847Y-1475D02*
Y-697D01*
X1797Y-1475D02*
Y-697D01*
X1366Y-1273D02*
X2130D01*
X1369Y-1223D02*
X2130D01*
X1747Y-1475D02*
Y-697D01*
X1369Y-1473D02*
X2130D01*
X1369Y-1475D02*
X2130D01*
X1345Y-1373D02*
X2130D01*
X1347Y-1323D02*
X2130D01*
X1355Y-1423D02*
X2130D01*
X2897Y-1750D02*
Y-1725D01*
X2847Y-1475D02*
Y-1194D01*
X3047Y-1812D02*
Y-1725D01*
X2947Y-1758D02*
Y-1725D01*
X2797Y-1475D02*
Y-1251D01*
X2747Y-1475D02*
Y-1276D01*
X2564Y-1725D02*
X3700D01*
X2997Y-1778D02*
Y-1725D01*
X2847Y-1752D02*
Y-1725D01*
X2597Y-2400D02*
Y-1725D01*
X2397Y-2400D02*
Y-1725D01*
X2297Y-1828D02*
Y-1725D01*
X2247Y-1787D02*
Y-1725D01*
X2347Y-1910D02*
Y-1725D01*
X2130Y-1475D02*
Y-1180D01*
X2097Y-1475D02*
Y-697D01*
Y-1750D02*
Y-1725D01*
X1997Y-1475D02*
Y-697D01*
X1947Y-1475D02*
Y-697D01*
X1897Y-1475D02*
Y-697D01*
X1747Y-2400D02*
Y-1725D01*
X2147Y-1751D02*
Y-1725D01*
X2047Y-1760D02*
Y-1725D01*
X2197Y-1763D02*
Y-1725D01*
X1997Y-1781D02*
Y-1725D01*
X1897Y-1887D02*
Y-1725D01*
X1847Y-2400D02*
Y-1725D01*
X1797Y-2400D02*
Y-1725D01*
X4521Y-1773D02*
X5079D01*
X4208Y-1823D02*
X4242D01*
X4137Y-1773D02*
X4313D01*
X3371D02*
X3929D01*
X4506Y-2223D02*
X5094D01*
X4201Y-2173D02*
X4249D01*
X4122Y-2223D02*
X4328D01*
X3435Y-2173D02*
X3865D01*
X3356Y-2223D02*
X3944D01*
X3147Y-1781D02*
Y-1725D01*
X3097Y-1818D02*
Y-1725D01*
X3442Y-1823D02*
X3858D01*
X3480Y-1873D02*
X3820D01*
X3058Y-1823D02*
X3092D01*
X3501Y-1923D02*
X3799D01*
X3511Y-1973D02*
X3789D01*
X3499Y-2073D02*
X3801D01*
X3510Y-2023D02*
X3790D01*
X3476Y-2123D02*
X3824D01*
X3051Y-2173D02*
X3099D01*
X4247Y-2400D02*
Y-2171D01*
X4197Y-2400D02*
Y-2177D01*
X4547Y-2400D02*
Y-2202D01*
X4297Y-2400D02*
Y-2208D01*
X3947Y-2400D02*
Y-2224D01*
X3897Y-2400D02*
Y-2198D01*
X4147Y-2400D02*
Y-2211D01*
X4397Y-2400D02*
Y-2239D01*
X4347Y-2400D02*
Y-2229D01*
X4497Y-2400D02*
Y-2226D01*
X4447Y-2400D02*
Y-2238D01*
X4047Y-2400D02*
Y-2239D01*
X3997Y-2400D02*
Y-2237D01*
X4097Y-2400D02*
Y-2231D01*
X3497Y-2400D02*
Y-2079D01*
X3447Y-2400D02*
Y-2161D01*
X3847Y-2400D02*
Y-2154D01*
X3797Y-2400D02*
Y-2060D01*
X3097Y-2400D02*
Y-2171D01*
X3047Y-2400D02*
Y-2177D01*
X3297Y-2400D02*
Y-2238D01*
X3247Y-2400D02*
Y-2239D01*
X3397Y-2400D02*
Y-2202D01*
X3347Y-2400D02*
Y-2226D01*
X3147Y-2400D02*
Y-2208D01*
X2997Y-2400D02*
Y-2211D01*
X3197Y-2400D02*
Y-2229D01*
X2987Y-1773D02*
X3163D01*
X2797Y-1765D02*
Y-1725D01*
X2747Y-1791D02*
Y-1725D01*
X2697Y-1835D02*
Y-1725D01*
X2221Y-1773D02*
X2779D01*
X2292Y-1823D02*
X2708D01*
X2647Y-1929D02*
Y-1725D01*
X2330Y-1873D02*
X2670D01*
X2351Y-1923D02*
X2649D01*
X2972Y-2223D02*
X3178D01*
X2349Y-2073D02*
X2651D01*
X2285Y-2173D02*
X2715D01*
X2326Y-2123D02*
X2674D01*
X2206Y-2223D02*
X2794D01*
X1947Y-1818D02*
Y-1725D01*
X1370Y-1873D02*
X1904D01*
X1370Y-1923D02*
X1883D01*
X1370Y-1973D02*
X1873D01*
X1369Y-1725D02*
X2564D01*
X1368Y-1773D02*
X2013D01*
X1352Y-1823D02*
X1942D01*
X2360Y-2023D02*
X2640D01*
X2361Y-1973D02*
X2639D01*
X1370Y-2073D02*
X1885D01*
X1370Y-2023D02*
X1874D01*
X951Y-2173D02*
X1949D01*
X1370Y-2123D02*
X1908D01*
X872Y-2223D02*
X2028D01*
X2697Y-2400D02*
Y-2154D01*
X2647Y-2400D02*
Y-2060D01*
X2797Y-2400D02*
Y-2224D01*
X2747Y-2400D02*
Y-2198D01*
X2547Y-2400D02*
Y-1725D01*
X-1300Y-2273D02*
X6046D01*
X2847Y-2400D02*
Y-2237D01*
X2947Y-2400D02*
Y-2231D01*
X2897Y-2400D02*
Y-2239D01*
X-1300Y-2373D02*
X6147D01*
X-1300Y-2323D02*
X6096D01*
X-1300Y-2400D02*
X6225D01*
X2347D02*
Y-2079D01*
X2297Y-2400D02*
Y-2161D01*
X2497Y-2400D02*
Y-1725D01*
X2447Y-2400D02*
Y-1725D01*
X1897Y-2400D02*
Y-2102D01*
X2147Y-2400D02*
Y-2238D01*
X2097Y-2400D02*
Y-2239D01*
X2247Y-2400D02*
Y-2202D01*
X2197Y-2400D02*
Y-2226D01*
X1997Y-2400D02*
Y-2208D01*
X1947Y-2400D02*
Y-2171D01*
X2047Y-2400D02*
Y-2229D01*
X1597Y-1475D02*
Y-697D01*
X1547Y-1475D02*
Y-697D01*
X1697Y-1475D02*
Y-697D01*
X1647Y-1475D02*
Y-697D01*
X1397Y-1475D02*
Y-697D01*
X1497Y-1475D02*
Y-697D01*
X1447Y-1475D02*
Y-697D01*
X1345Y-1403D02*
Y-1327D01*
X1347Y-1407D02*
Y-1323D01*
X643Y-1373D02*
X1055D01*
X640Y-1323D02*
X1053D01*
X1055Y-1403D02*
Y-1327D01*
X657Y-1273D02*
X1034D01*
X727Y-1223D02*
X1031D01*
X1047Y-1418D02*
Y-1312D01*
X97Y-1180D02*
Y-889D01*
X29Y-1353D02*
Y-1180D01*
X632Y-1423D02*
X1045D01*
X604Y-1473D02*
X1031D01*
X589Y-1523D02*
X1033D01*
X589Y-1536D02*
Y-1489D01*
X-1Y-1323D02*
X29D01*
X583Y-1573D02*
X1050D01*
X897Y-1778D02*
Y-697D01*
X847Y-1758D02*
Y-697D01*
X997Y-1875D02*
Y-697D01*
X947Y-1812D02*
Y-697D01*
X797Y-1750D02*
Y-697D01*
X747Y-1752D02*
Y-1194D01*
X697Y-1765D02*
Y-1251D01*
X1055Y-1605D02*
Y-1581D01*
Y-1657D02*
Y-1605D01*
X1047Y-1672D02*
Y-1566D01*
X554Y-1623D02*
X1055D01*
X504Y-1673D02*
X1047D01*
X647Y-1791D02*
Y-1276D01*
X597Y-1835D02*
Y-1480D01*
X488Y-1688D02*
X552Y-1625D01*
X-3Y-1750D02*
Y-1674D01*
X547Y-1929D02*
Y-1630D01*
X497Y-2400D02*
Y-1680D01*
X447Y-2400D02*
Y-1716D01*
X47Y-1751D02*
Y-1713D01*
X-53Y-1270D02*
Y-1039D01*
X-103Y-1240D02*
Y-1089D01*
X-3Y-1320D02*
Y-989D01*
X-237Y-1223D02*
X29D01*
X-153Y-1235D02*
Y-1139D01*
X-249Y-1235D02*
X361Y-625D01*
X-249Y-1235D02*
X-140D01*
X-52Y-1271D02*
X29Y-1353D01*
X-51Y-1273D02*
X29D01*
X-1300Y-1573D02*
X-104D01*
X-610Y-1523D02*
X-154D01*
X-1300Y-1623D02*
X-54D01*
X-1103Y-1180D02*
Y230D01*
X-1300Y-1223D02*
X-1120D01*
X-203Y-1235D02*
Y-1189D01*
X-1120Y-1540D02*
Y-1180D01*
X-1300Y-1323D02*
X-1120D01*
X-1300Y-1273D02*
X-1120D01*
X-1300Y-1373D02*
X-1120D01*
X-557Y-1485D02*
X-192D01*
X-761Y-1540D02*
Y-1524D01*
X-1120Y-1540D02*
X-761D01*
X-1300Y-1473D02*
X-1120D01*
X-1300Y-1423D02*
X-1120D01*
X-1300Y-1523D02*
X-1120D01*
X-192Y-1485D02*
X12Y-1688D01*
X-303Y-1758D02*
Y-1485D01*
X-203Y-1812D02*
Y-1485D01*
X-253Y-1778D02*
Y-1485D01*
X-353Y-1750D02*
Y-1485D01*
X-503Y-1791D02*
Y-1485D01*
X-553Y-1835D02*
Y-1485D01*
X-53Y-1760D02*
Y-1624D01*
X-403Y-1752D02*
Y-1485D01*
X-103Y-1781D02*
Y-1574D01*
X-153Y-1818D02*
Y-1524D01*
X-1300Y-1673D02*
X-4D01*
X-453Y-1765D02*
Y-1485D01*
X-603Y-1929D02*
Y-1519D01*
X-753Y-2400D02*
Y-1527D01*
X-1153Y-1750D02*
Y230D01*
X-653Y-2400D02*
Y-1536D01*
X-703Y-2400D02*
Y-1539D01*
X-1203Y-1760D02*
Y230D01*
X-1253Y-1781D02*
Y230D01*
X-1300Y-1815D02*
Y230D01*
X-903Y-1910D02*
Y-1540D01*
X-953Y-1828D02*
Y-1540D01*
X-803Y-2400D02*
Y-1540D01*
X-853Y-2400D02*
Y-1540D01*
X-1053Y-1763D02*
Y-1540D01*
X-1103Y-1751D02*
Y-1540D01*
X-1003Y-1787D02*
Y-1540D01*
X1547Y-2400D02*
Y-1725D01*
X1497Y-2400D02*
Y-1725D01*
X887Y-1773D02*
X1032D01*
X424Y-1723D02*
X1032D01*
X958Y-1823D02*
X1048D01*
X1047Y-1830D02*
Y-1820D01*
X1348Y-1830D02*
X1370D01*
X1030D02*
X1052D01*
X1370Y-2170D02*
Y-1830D01*
X1030Y-2170D02*
Y-1830D01*
X1017Y-1923D02*
X1030D01*
X996Y-1873D02*
X1030D01*
Y-2170D02*
X1370D01*
X251Y-1923D02*
X549D01*
X247Y-1910D02*
Y-1725D01*
X192Y-1823D02*
X608D01*
X197Y-1828D02*
Y-1725D01*
X230Y-1873D02*
X570D01*
X260Y-2023D02*
X540D01*
X261Y-1973D02*
X539D01*
X992Y-2123D02*
X1030D01*
X1015Y-2073D02*
X1030D01*
X226Y-2123D02*
X574D01*
X249Y-2073D02*
X551D01*
X185Y-2173D02*
X615D01*
X1597Y-2400D02*
Y-1725D01*
X1447Y-2400D02*
Y-1725D01*
X1697Y-2400D02*
Y-1725D01*
X1647Y-2400D02*
Y-1725D01*
X1347Y-2400D02*
Y-2170D01*
X997Y-2400D02*
Y-2114D01*
X1397Y-2400D02*
Y-1725D01*
X1197Y-2400D02*
Y-2170D01*
X1147Y-2400D02*
Y-2170D01*
X1297Y-2400D02*
Y-2170D01*
X1247Y-2400D02*
Y-2170D01*
X1047Y-2400D02*
Y-2170D01*
X947Y-2400D02*
Y-2177D01*
X1097Y-2400D02*
Y-2170D01*
X397Y-2400D02*
Y-1725D01*
X347Y-2400D02*
Y-1725D01*
X597Y-2400D02*
Y-2154D01*
X547Y-2400D02*
Y-2060D01*
X247Y-2400D02*
Y-2079D01*
X197Y-2400D02*
Y-2161D01*
X297Y-2400D02*
Y-1725D01*
X797Y-2400D02*
Y-2239D01*
X747Y-2400D02*
Y-2237D01*
X897Y-2400D02*
Y-2211D01*
X847Y-2400D02*
Y-2231D01*
X647Y-2400D02*
Y-2198D01*
X147Y-2400D02*
Y-2202D01*
X697Y-2400D02*
Y-2224D01*
X100Y-1725D02*
X400D01*
X97Y-1763D02*
Y-1725D01*
X147Y-1787D02*
Y-1725D01*
X-1300Y-1723D02*
X76D01*
X-263Y-1773D02*
X-87D01*
X121D02*
X679D01*
X-192Y-1823D02*
X-158D01*
X106Y-2223D02*
X694D01*
X-278D02*
X-72D01*
X-199Y-2173D02*
X-151D01*
X-1044Y-2223D02*
X-456D01*
X-1029Y-1773D02*
X-471D01*
X-958Y-1823D02*
X-542D01*
X-920Y-1873D02*
X-580D01*
X-899Y-1923D02*
X-601D01*
X-1300Y-1773D02*
X-1237D01*
X-890Y-2023D02*
X-610D01*
X-889Y-1973D02*
X-611D01*
X-924Y-2123D02*
X-576D01*
X-901Y-2073D02*
X-599D01*
X-965Y-2173D02*
X-535D01*
X-1300Y-2223D02*
X-1222D01*
X-103Y-2400D02*
Y-2208D01*
X-153Y-2400D02*
Y-2171D01*
X-203Y-2400D02*
Y-2177D01*
X-253Y-2400D02*
Y-2211D01*
X-3Y-2400D02*
Y-2239D01*
X-53Y-2400D02*
Y-2229D01*
X97Y-2400D02*
Y-2226D01*
X47Y-2400D02*
Y-2238D01*
X-353Y-2400D02*
Y-2239D01*
X-403Y-2400D02*
Y-2237D01*
X-303Y-2400D02*
Y-2231D01*
X-603Y-2400D02*
Y-2060D01*
X-903Y-2400D02*
Y-2079D01*
X-503Y-2400D02*
Y-2198D01*
X-553Y-2400D02*
Y-2154D01*
X-953Y-2400D02*
Y-2161D01*
X-1300Y-2400D02*
Y-2174D01*
X-1053Y-2400D02*
Y-2226D01*
X-1103Y-2400D02*
Y-2238D01*
X-453Y-2400D02*
Y-2224D01*
X-1003Y-2400D02*
Y-2202D01*
X-1203Y-2400D02*
Y-2229D01*
X-1253Y-2400D02*
Y-2208D01*
X-1153Y-2400D02*
Y-2239D01*
D11*
X464Y-1536D02*
Y-1360D01*
X400Y-1600D02*
X464Y-1536D01*
X-686Y-1360D02*
X-140D01*
X100Y-1600D01*
X400D01*
X4325Y-75D02*
X4387Y-137D01*
Y-276D02*
Y-137D01*
X2587Y-276D02*
Y-138D01*
X2650Y-75D01*
X3187Y-276D02*
Y-88D01*
X3200Y-75D01*
X2650D02*
X3200D01*
X3787Y-276D02*
Y-88D01*
X3800Y-75D01*
X3200D02*
X3800D01*
X4325D01*
X6775Y-1375D02*
X7487Y-663D01*
Y-476D01*
X8087Y-663D02*
Y-476D01*
X7475Y-1275D02*
X8087Y-663D01*
X8687D02*
Y-476D01*
X8175Y-1175D02*
X8687Y-663D01*
X9150Y-2275D02*
X9225Y-2200D01*
Y-2000D01*
X7825Y-2275D02*
Y-2000D01*
X8525Y-2275D02*
Y-2000D01*
X8525Y-2275D02*
X8525Y-2275D01*
X7825Y-2275D02*
X8525D01*
X9150D01*
X9275Y-950D02*
Y-488D01*
X9287Y-476D01*
X8875Y-1350D02*
X9275Y-950D01*
X8875Y-2000D02*
Y-1350D01*
X8175Y-2000D02*
Y-1175D01*
X7475Y-2000D02*
Y-1275D01*
X6775Y-2000D02*
Y-1375D01*
X7125Y-2275D02*
Y-2000D01*
Y-2275D02*
X7825D01*
X3713Y-1586D02*
Y-1360D01*
X3700Y-1600D02*
X3713Y-1586D01*
X4863D02*
Y-1360D01*
X4850Y-1600D02*
X4863Y-1586D01*
X3700Y-1600D02*
X4850D01*
X6013D01*
Y-1360D01*
Y-2064D02*
Y-1600D01*
Y-2064D02*
X6225Y-2275D01*
X7125D01*
X2691Y-1106D02*
X2896Y-900D01*
X5935D02*
X6140Y-1106D01*
X3840D02*
Y-901D01*
X3840Y-900D02*
X3840Y-901D01*
X2896Y-900D02*
X3840D01*
X4990Y-1106D02*
Y-902D01*
X4992Y-900D01*
X3840D02*
X4992D01*
X5935D01*
X2564Y-1600D02*
Y-1360D01*
Y-1600D02*
X3700D01*
X1205D02*
X2564D01*
X1200Y-1605D02*
X1205Y-1600D01*
X4981Y188D02*
X5142Y27D01*
X4778Y188D02*
X4981D01*
X4703Y112D02*
X4778Y188D01*
X1573Y112D02*
X4703D01*
X-559Y-1106D02*
X124Y-422D01*
X1038D01*
X1573Y112D01*
D12*
X1200Y-2000D02*
Y-1746D01*
Y-1492D02*
Y-1238D01*
X9700Y-2000D02*
Y-1746D01*
Y-1492D01*
Y-1238D01*
X1200Y-1746D02*
Y-1605D01*
Y-1492D01*
D13*
X5398Y-227D02*
X5525Y-100D01*
X5396Y-227D02*
X5398D01*
X5396Y27D02*
X5400Y31D01*
X5142Y-227D02*
X5275Y-94D01*
X5525Y-100D02*
Y175D01*
X5650Y27D02*
Y150D01*
X2333Y486D02*
X2619Y200D01*
X2933Y486D02*
X3164Y255D01*
X3533Y486D02*
X3709Y310D01*
X4133Y486D02*
X4254Y365D01*
X4540D01*
X3709Y310D02*
X4563D01*
X3164Y255D02*
X4586D01*
X2619Y200D02*
X4608D01*
X6261Y286D02*
X7233D01*
X6158Y183D02*
X6261Y286D01*
X6158Y27D02*
Y183D01*
Y-227D02*
X6285Y-100D01*
Y120D01*
X6355Y190D01*
X6935D01*
X6412Y27D02*
X8174D01*
X8433Y286D01*
X6935Y190D02*
X7020Y105D01*
X7652D01*
X7833Y286D01*
X6412Y-227D02*
X6584Y-55D01*
X8692D01*
X9033Y286D01*
X5583Y-588D02*
X5778Y-392D01*
Y-100D01*
X5904Y27D01*
X5362Y-515D02*
X5650Y-227D01*
X710Y-588D02*
X5583D01*
X5400Y31D02*
Y200D01*
X5275Y-94D02*
Y217D01*
X4608Y200D02*
X4691Y283D01*
X5210D01*
X5275Y217D01*
X4622Y447D02*
X5353D01*
X4645Y392D02*
X5308D01*
X4668Y338D02*
X5262D01*
X4586Y255D02*
X4668Y338D01*
X5262D02*
X5400Y200D01*
X4563Y310D02*
X4645Y392D01*
X5308D02*
X5525Y175D01*
X4540Y365D02*
X4622Y447D01*
X5353D02*
X5650Y150D01*
X-814Y-1106D02*
X-694Y-1225D01*
X-628D01*
X-605Y-1248D01*
X337Y-961D02*
X710Y-588D01*
X337Y-1106D02*
Y-961D01*
X-605Y-1248D02*
X-418D01*
X315Y-515D01*
X5362D01*
X-1170Y650D02*
X-1190Y670D01*
X-1230D01*
X-1250Y650D01*
Y630D01*
X-1230Y610D01*
X-1190D01*
X-1170Y590D01*
Y570D01*
X-1190Y550D01*
X-1230D01*
X-1250Y570D01*
X-1130Y550D02*
Y670D01*
X-1090Y630D01*
X-1050Y670D01*
Y550D01*
X-1010Y610D02*
X-930D01*
X-830Y670D02*
X-870D01*
X-890Y650D01*
Y570D01*
X-870Y550D01*
X-830D01*
X-810Y570D01*
Y650D01*
X-830Y670D01*
X-770D02*
Y550D01*
X-730Y590D01*
X-690Y550D01*
Y670D01*
X-570Y550D02*
X-650D01*
X-570Y630D01*
Y650D01*
X-590Y670D01*
X-630D01*
X-650Y650D01*
X-530Y550D02*
Y570D01*
X-510D01*
Y550D01*
X-530D01*
X-430Y670D02*
Y550D01*
X-370D01*
X-350Y570D01*
Y650D01*
X-370Y670D01*
X-430D01*
X-310D02*
X-270D01*
X-290D01*
Y550D01*
X-310D01*
X-270D01*
X-150D02*
Y670D01*
X-210Y610D01*
X-130D01*
X-90Y550D02*
Y570D01*
X-70D01*
Y550D01*
X-90D01*
X10Y670D02*
Y550D01*
X70D01*
X90Y570D01*
Y650D01*
X70Y670D01*
X10D01*
X210Y650D02*
X190Y670D01*
X150D01*
X130Y650D01*
Y570D01*
X150Y550D01*
X190D01*
X210Y570D01*
X250Y670D02*
X290D01*
X270D01*
Y550D01*
X250D01*
X290D01*
X409D02*
Y670D01*
X349Y610D01*
X429D01*
D14*
X-1250Y430D02*
Y350D01*
Y390D01*
X-1230Y410D01*
X-1210Y430D01*
X-1190D01*
X-1070Y350D02*
X-1110D01*
X-1130Y370D01*
Y410D01*
X-1110Y430D01*
X-1070D01*
X-1050Y410D01*
Y390D01*
X-1130D01*
X-1010Y430D02*
X-970Y350D01*
X-930Y430D01*
X-890Y350D02*
Y370D01*
X-870D01*
Y350D01*
X-890D01*
X-670D02*
X-630D01*
X-650D01*
Y470D01*
X-670Y450D01*
D15*
X0Y0D02*
D03*
D16*
X2587Y486D02*
D03*
X2333D02*
D03*
X2587Y-276D02*
D03*
X3187Y486D02*
D03*
X2933D02*
D03*
X3187Y-276D02*
D03*
X3787Y486D02*
D03*
X3533D02*
D03*
X3787Y-276D02*
D03*
X4387Y486D02*
D03*
X4133D02*
D03*
X4387Y-276D02*
D03*
X7487Y286D02*
D03*
X7233D02*
D03*
X7487Y-476D02*
D03*
X8087Y286D02*
D03*
X7833D02*
D03*
X8087Y-476D02*
D03*
X8687Y286D02*
D03*
X8433D02*
D03*
X8687Y-476D02*
D03*
X9287Y286D02*
D03*
X9033Y286D02*
D03*
X9287Y-476D02*
D03*
D17*
X2333Y-276D02*
D03*
X2933Y-276D02*
D03*
X3533D02*
D03*
X4133Y-276D02*
D03*
X7233Y-476D02*
D03*
X7833Y-476D02*
D03*
X8433D02*
D03*
X9033D02*
D03*
D18*
X4888Y27D02*
D03*
X5142D02*
D03*
X5396D02*
D03*
X5650D02*
D03*
X5904D02*
D03*
X6158D02*
D03*
X6412D02*
D03*
Y-227D02*
D03*
X5904D02*
D03*
X5396D02*
D03*
X5142D02*
D03*
X5650D02*
D03*
X6158D02*
D03*
X9700Y-1238D02*
D03*
Y-1492D02*
D03*
Y-1746D02*
D03*
X1200Y-1238D02*
D03*
Y-1492D02*
D03*
Y-1746D02*
D03*
D19*
X4888Y-227D02*
D03*
D20*
X9225Y-2000D02*
D03*
X8875D02*
D03*
X8525D02*
D03*
X8175D02*
D03*
X7825D02*
D03*
X7475D02*
D03*
X7125D02*
D03*
X6775D02*
D03*
D21*
X9700D02*
D03*
X1200D02*
D03*
D22*
X591Y-1106D02*
D03*
X464Y-1360D02*
D03*
X337Y-1106D02*
D03*
X-814D02*
D03*
X-686Y-1360D02*
D03*
X-559Y-1106D02*
D03*
X6140D02*
D03*
X6013Y-1360D02*
D03*
X5887Y-1106D02*
D03*
X4737D02*
D03*
X4863Y-1360D02*
D03*
X4990Y-1106D02*
D03*
X3840D02*
D03*
X3713Y-1360D02*
D03*
X3587Y-1106D02*
D03*
X2436D02*
D03*
X2564Y-1360D02*
D03*
X2691Y-1106D02*
D03*
D23*
X17Y-1994D02*
D03*
X783D02*
D03*
X-367D02*
D03*
X-1133D02*
D03*
X5567D02*
D03*
X6333D02*
D03*
X5183D02*
D03*
X4417D02*
D03*
X3267D02*
D03*
X4033D02*
D03*
X2883D02*
D03*
X2117D02*
D03*
D24*
X210Y-1360D02*
D03*
X-940D02*
D03*
X5760D02*
D03*
X4610D02*
D03*
X3460D02*
D03*
X2309D02*
D03*
M02*
