G04 Layer_Physical_Order=2*
G04 Layer_Color=16750848*
%FSLAX42Y42*%
%MOMM*%
G71*
G01*
G75*
%ADD10C,0.50*%
%ADD11C,0.60*%
%ADD15C,7.00*%
%ADD16C,1.50*%
%ADD17R,1.50X1.50*%
%ADD18C,1.50*%
%ADD19R,1.50X1.50*%
%ADD20O,2.00X3.00*%
%ADD21R,1.50X1.50*%
%ADD22C,1.70*%
%ADD23C,3.00*%
%ADD24R,1.70X1.70*%
G04:AMPARAMS|DCode=25|XSize=0.9mm|YSize=1.3mm|CornerRadius=0.23mm|HoleSize=0mm|Usage=FLASHONLY|Rotation=0.000|XOffset=0mm|YOffset=0mm|HoleType=Round|Shape=RoundedRectangle|*
%AMROUNDEDRECTD25*
21,1,0.90,0.85,0,0,0.0*
21,1,0.45,1.30,0,0,0.0*
1,1,0.45,0.23,-0.42*
1,1,0.45,-0.23,-0.42*
1,1,0.45,-0.23,0.42*
1,1,0.45,0.23,0.42*
%
%ADD25ROUNDEDRECTD25*%
G04:AMPARAMS|DCode=26|XSize=0.76mm|YSize=0.76mm|CornerRadius=0.19mm|HoleSize=0mm|Usage=FLASHONLY|Rotation=270.000|XOffset=0mm|YOffset=0mm|HoleType=Round|Shape=RoundedRectangle|*
%AMROUNDEDRECTD26*
21,1,0.76,0.38,0,0,270.0*
21,1,0.38,0.76,0,0,270.0*
1,1,0.38,-0.19,-0.19*
1,1,0.38,-0.19,0.19*
1,1,0.38,0.19,0.19*
1,1,0.38,0.19,-0.19*
%
%ADD26ROUNDEDRECTD26*%
G04:AMPARAMS|DCode=27|XSize=0.7mm|YSize=1.3mm|CornerRadius=0.17mm|HoleSize=0mm|Usage=FLASHONLY|Rotation=90.000|XOffset=0mm|YOffset=0mm|HoleType=Round|Shape=RoundedRectangle|*
%AMROUNDEDRECTD27*
21,1,0.70,0.95,0,0,90.0*
21,1,0.35,1.30,0,0,90.0*
1,1,0.35,0.47,0.17*
1,1,0.35,0.47,-0.17*
1,1,0.35,-0.47,-0.17*
1,1,0.35,-0.47,0.17*
%
%ADD27ROUNDEDRECTD27*%
G04:AMPARAMS|DCode=28|XSize=0.7mm|YSize=1.3mm|CornerRadius=0.17mm|HoleSize=0mm|Usage=FLASHONLY|Rotation=0.000|XOffset=0mm|YOffset=0mm|HoleType=Round|Shape=RoundedRectangle|*
%AMROUNDEDRECTD28*
21,1,0.70,0.95,0,0,0.0*
21,1,0.35,1.30,0,0,0.0*
1,1,0.35,0.17,-0.47*
1,1,0.35,-0.17,-0.47*
1,1,0.35,-0.17,0.47*
1,1,0.35,0.17,0.47*
%
%ADD28ROUNDEDRECTD28*%
%ADD29C,0.40*%
D10*
X-1300Y-2160D02*
G03*
X-898Y-1994I167J165D01*
G01*
X-1300Y-2160D02*
G03*
X-898Y-1994I167J165D01*
G01*
X-418Y-1765D02*
G03*
X-175Y-2130I51J-230D01*
G01*
X-418Y-1765D02*
G03*
X-175Y-2130I51J-230D01*
G01*
X-898Y-1994D02*
G03*
X-1300Y-1829I-235J0D01*
G01*
X-898Y-1994D02*
G03*
X-1300Y-1829I-235J0D01*
G01*
X-931Y-1731D02*
G03*
X-850Y-1765I81J81D01*
G01*
X-931Y-1731D02*
G03*
X-850Y-1765I81J81D01*
G01*
X-1056Y-1560D02*
G03*
X-1022Y-1641I115J0D01*
G01*
X-175Y-1859D02*
G03*
X-328Y-1763I-192J-136D01*
G01*
X-175Y-1859D02*
G03*
X-328Y-1763I-192J-136D01*
G01*
D02*
G03*
X-269Y-1731I-22J113D01*
G01*
X-328Y-1763D02*
G03*
X-269Y-1731I-22J113D01*
G01*
X-175Y-2130D02*
G03*
X252Y-1994I192J136D01*
G01*
X-175Y-2130D02*
G03*
X252Y-1994I192J136D01*
G01*
X732Y-1765D02*
G03*
X1018Y-1994I51J-230D01*
G01*
X252D02*
G03*
X-175Y-1859I-235J0D01*
G01*
X252Y-1994D02*
G03*
X-175Y-1859I-235J0D01*
G01*
X219Y-1731D02*
G03*
X300Y-1765I81J81D01*
G01*
X219Y-1731D02*
G03*
X300Y-1765I81J81D01*
G01*
X94Y-1560D02*
G03*
X128Y-1641I115J0D01*
G01*
X94Y-1560D02*
G03*
X128Y-1641I115J0D01*
G01*
X822Y-1763D02*
G03*
X881Y-1731I-22J113D01*
G01*
X822Y-1763D02*
G03*
X881Y-1731I-22J113D01*
G01*
X-1056Y-1560D02*
G03*
X-1022Y-1641I115J0D01*
G01*
X-568Y-1514D02*
G03*
X-565Y-1535I84J0D01*
G01*
X-770Y-1484D02*
G03*
X-545Y-1408I84J124D01*
G01*
X-538Y-1412D02*
G03*
X-568Y-1476I55J-64D01*
G01*
X-362D02*
G03*
X-391Y-1412I-84J0D01*
G01*
D02*
G03*
X-359Y-1381I-55J88D01*
G01*
X-983Y-1098D02*
G03*
X-961Y-1190I170J-7D01*
G01*
X-389Y-1106D02*
G03*
X-426Y-1000I-170J0D01*
G01*
X-359Y-1419D02*
G03*
X-351Y-1459I104J0D01*
G01*
X-341Y-1286D02*
G03*
X-349Y-1246I-104J0D01*
G01*
X-255Y-1277D02*
G03*
X-341Y-1324I0J-104D01*
G01*
X-349Y-1201D02*
G03*
X-383Y-1119I-115J0D01*
G01*
X-349Y-1201D02*
G03*
X-383Y-1119I-115J0D01*
G01*
X-154Y-1617D02*
G03*
X-121Y-1535I-81J81D01*
G01*
X-154Y-1617D02*
G03*
X-121Y-1535I-81J81D01*
G01*
X582Y-1514D02*
G03*
X585Y-1535I84J0D01*
G01*
X380Y-1484D02*
G03*
X605Y-1408I84J124D01*
G01*
X612Y-1412D02*
G03*
X582Y-1476I55J-64D01*
G01*
X789D02*
G03*
X759Y-1412I-84J0D01*
G01*
X-121Y-1459D02*
G03*
X-112Y-1419I-96J40D01*
G01*
Y-1381D02*
G03*
X-216Y-1277I-104J0D01*
G01*
X167Y-1098D02*
G03*
X189Y-1190I170J-7D01*
G01*
X761Y-1106D02*
G03*
X724Y-1000I-170J0D01*
G01*
X791Y-1419D02*
G03*
X799Y-1459I104J0D01*
G01*
X759Y-1412D02*
G03*
X791Y-1381I-55J88D01*
G01*
X895Y-1277D02*
G03*
X809Y-1324I0J-104D01*
G01*
X801Y-1201D02*
G03*
X767Y-1119I-115J0D01*
G01*
X809Y-1286D02*
G03*
X801Y-1246I-104J0D01*
G01*
Y-1201D02*
G03*
X767Y-1119I-115J0D01*
G01*
X732Y-1765D02*
G03*
X1018Y-1994I51J-230D01*
G01*
D02*
G03*
X822Y-1763I-235J0D01*
G01*
X2352Y-1994D02*
G03*
X2352Y-1994I-235J0D01*
G01*
D02*
G03*
X2352Y-1994I-235J0D01*
G01*
X1018D02*
G03*
X822Y-1763I-235J0D01*
G01*
X996Y-1617D02*
G03*
X1030Y-1535I-81J81D01*
G01*
X1103Y-1619D02*
G03*
X1071Y-1840I97J-127D01*
G01*
X996Y-1617D02*
G03*
X1030Y-1535I-81J81D01*
G01*
X1360Y-1746D02*
G03*
X1297Y-1619I-160J0D01*
G01*
X1329Y-1840D02*
G03*
X1360Y-1746I-129J94D01*
G01*
X3075Y-1859D02*
G03*
X3075Y-2130I-192J-136D01*
G01*
X3075D02*
G03*
X3502Y-1994I192J136D01*
G01*
X3075Y-2130D02*
G03*
X3502Y-1994I192J136D01*
G01*
X3075Y-1859D02*
G03*
X3075Y-2130I-192J-136D01*
G01*
X3502Y-1994D02*
G03*
X3075Y-1859I-235J0D01*
G01*
X3502Y-1994D02*
G03*
X3075Y-1859I-235J0D01*
G01*
X4225D02*
G03*
X4225Y-2130I-192J-136D01*
G01*
Y-1859D02*
G03*
X4225Y-2130I-192J-136D01*
G01*
X1103Y-1365D02*
G03*
X1103Y-1619I97J-127D01*
G01*
X1360Y-1492D02*
G03*
X1297Y-1365I-160J0D01*
G01*
Y-1619D02*
G03*
X1360Y-1492I-97J127D01*
G01*
X2480Y-1507D02*
G03*
X2689Y-1474I84J148D01*
G01*
X1038Y-1381D02*
G03*
X934Y-1277I-104J0D01*
G01*
X1030Y-1459D02*
G03*
X1038Y-1419I-96J40D01*
G01*
X1297Y-1365D02*
G03*
X1360Y-1238I-97J127D01*
G01*
D02*
G03*
X1103Y-1365I-160J0D01*
G01*
X2267Y-1092D02*
G03*
X2289Y-1190I169J-14D01*
G01*
X3629Y-1507D02*
G03*
X3883Y-1360I84J148D01*
G01*
X2745Y-1474D02*
G03*
X2827Y-1441I0J115D01*
G01*
X2745Y-1474D02*
G03*
X2827Y-1441I0J115D01*
G01*
X2961Y-1306D02*
G03*
X2995Y-1225I-81J81D01*
G01*
X2961Y-1306D02*
G03*
X2995Y-1225I-81J81D01*
G01*
X3883Y-1360D02*
G03*
X3861Y-1274I-170J0D01*
G01*
X3417Y-1088D02*
G03*
X3439Y-1190I169J-18D01*
G01*
X3861Y-1274D02*
G03*
X4010Y-1106I-20J169D01*
G01*
D02*
G03*
X3981Y-1010I-170J0D01*
G01*
X-1060Y-974D02*
G03*
X-1026Y-1055I115J0D01*
G01*
X-1060Y-974D02*
G03*
X-1026Y-1055I115J0D01*
G01*
X-690Y-988D02*
G03*
X-674Y-978I-47J91D01*
G01*
Y-980D02*
G03*
X-686Y-992I115J-125D01*
G01*
X-1065Y-898D02*
G03*
X-1060Y-929I102J0D01*
G01*
X-422Y-1000D02*
G03*
X-337Y-957I0J108D01*
G01*
D02*
G03*
X-278Y-980I59J65D01*
G01*
X90Y-974D02*
G03*
X124Y-1055I115J0D01*
G01*
X90Y-974D02*
G03*
X124Y-1055I115J0D01*
G01*
X-233Y-980D02*
G03*
X-145Y-893I0J88D01*
G01*
X85Y-898D02*
G03*
X90Y-929I102J0D01*
G01*
X-962Y-700D02*
G03*
X-1065Y-802I0J-102D01*
G01*
X-850Y-735D02*
G03*
X-927Y-700I-77J-67D01*
G01*
X-772Y-700D02*
G03*
X-850Y-735I0J-102D01*
G01*
X-660Y-735D02*
G03*
X-738Y-700I-77J-68D01*
G01*
X-526Y-639D02*
G03*
X-560Y-720I81J-81D01*
G01*
X-526Y-639D02*
G03*
X-560Y-720I81J-81D01*
G01*
X-383Y-543D02*
G03*
X-464Y-576I0J-115D01*
G01*
X-383Y-543D02*
G03*
X-464Y-576I0J-115D01*
G01*
X-145Y-807D02*
G03*
X-152Y-772I-88J0D01*
G01*
X89D02*
G03*
X85Y-802I98J-30D01*
G01*
X728Y-1000D02*
G03*
X813Y-957I0J108D01*
G01*
X460Y-988D02*
G03*
X476Y-978I-47J91D01*
G01*
Y-980D02*
G03*
X464Y-992I115J-125D01*
G01*
X813Y-957D02*
G03*
X873Y-980I59J65D01*
G01*
X918D02*
G03*
X1005Y-893I0J88D01*
G01*
X2150Y-929D02*
G03*
X2182Y-1007I110J0D01*
G01*
X2150Y-929D02*
G03*
X2182Y-1007I110J0D01*
G01*
X2564Y-992D02*
G03*
X2423Y-936I-127J-113D01*
G01*
X2538Y-728D02*
G03*
X2571Y-809I115J0D01*
G01*
X2538Y-728D02*
G03*
X2571Y-809I115J0D01*
G01*
X682Y-700D02*
G03*
X603Y-735I0J-108D01*
G01*
X873Y-720D02*
G03*
X813Y-743I0J-88D01*
G01*
X1005Y-807D02*
G03*
X918Y-720I-88J0D01*
G01*
X414Y-576D02*
G03*
X333Y-543I-81J-81D01*
G01*
X414Y-576D02*
G03*
X333Y-543I-81J-81D01*
G01*
X512Y-722D02*
G03*
X479Y-641I-115J0D01*
G01*
X813Y-743D02*
G03*
X728Y-700I-86J-65D01*
G01*
X512Y-722D02*
G03*
X479Y-641I-115J0D01*
G01*
X2110Y-657D02*
G03*
X2150Y-739I102J0D01*
G01*
X2370D02*
G03*
X2410Y-657I-62J81D01*
G01*
X2145Y-545D02*
G03*
X2110Y-622I67J-77D01*
G01*
Y-468D02*
G03*
X2145Y-545I102J0D01*
G01*
X2410Y-640D02*
G03*
X2442Y-645I33J102D01*
G01*
X2488D02*
G03*
X2538Y-633I0J108D01*
G01*
X435Y0D02*
G03*
X435Y0I-435J0D01*
G01*
X2173Y-338D02*
G03*
X2110Y-432I40J-95D01*
G01*
X2210Y93D02*
G03*
X2313Y-10I102J0D01*
G01*
X2210Y283D02*
G03*
X2245Y205I102J0D01*
G01*
D02*
G03*
X2210Y128I67J-77D01*
G01*
X2218Y357D02*
G03*
X2210Y318I95J-40D01*
G01*
X2408Y-10D02*
G03*
X2439Y-5I0J102D01*
G01*
X2492Y225D02*
G03*
X2510Y283I-85J57D01*
G01*
X2472Y566D02*
G03*
X2218Y375I-139J-80D01*
G01*
X2510Y318D02*
G03*
X2468Y400I-102J0D01*
G01*
X2698Y-936D02*
G03*
X2564Y-992I-8J-170D01*
G01*
X2995Y-955D02*
G03*
X2992Y-927I-115J0D01*
G01*
X3040Y-975D02*
G03*
X3117Y-1007I78J78D01*
G01*
X3040Y-975D02*
G03*
X3117Y-1007I78J78D01*
G01*
X2995Y-955D02*
G03*
X2992Y-927I-115J0D01*
G01*
X3018Y-642D02*
G03*
X3042Y-645I25J105D01*
G01*
X3088D02*
G03*
X3160Y-617I0J108D01*
G01*
X3278Y-645D02*
G03*
X3310Y-640I0J108D01*
G01*
Y-657D02*
G03*
X3412Y-760I102J0D01*
G01*
X2747Y-275D02*
G03*
X2493Y-147I-160J-1D01*
G01*
X2770Y-339D02*
G03*
X2747Y-275I-115J-5D01*
G01*
X2770Y-339D02*
G03*
X2747Y-275I-115J-5D01*
G01*
X3160Y-617D02*
G03*
X3233Y-645I73J79D01*
G01*
X3370Y-339D02*
G03*
X3347Y-275I-115J-5D01*
G01*
X3370Y-339D02*
G03*
X3347Y-275I-115J-5D01*
G01*
D02*
G03*
X3093Y-147I-160J-1D01*
G01*
X3460Y-820D02*
G03*
X3383Y-788I-78J-78D01*
G01*
X3601Y-936D02*
G03*
X3576Y-936I-14J-169D01*
G01*
X3460Y-820D02*
G03*
X3383Y-788I-78J-78D01*
G01*
X3910Y-657D02*
G03*
X4013Y-760I102J0D01*
G01*
X3688Y-645D02*
G03*
X3760Y-617I0J108D01*
G01*
X3618Y-642D02*
G03*
X3642Y-645I25J105D01*
G01*
X3760Y-617D02*
G03*
X3833Y-645I73J79D01*
G01*
X3878D02*
G03*
X3910Y-640I0J108D01*
G01*
X3970Y-339D02*
G03*
X3947Y-275I-115J-5D01*
G01*
X3970Y-339D02*
G03*
X3947Y-275I-115J-5D01*
G01*
D02*
G03*
X3693Y-147I-160J-1D01*
G01*
X4081Y-5D02*
G03*
X4113Y-10I32J98D01*
G01*
X2881Y-5D02*
G03*
X2913Y-10I32J98D01*
G01*
X2810Y283D02*
G03*
X2828Y225I102J0D01*
G01*
X2472Y406D02*
G03*
X2727Y486I115J80D01*
G01*
X2818Y357D02*
G03*
X2810Y318I94J-40D01*
G01*
X3008Y-10D02*
G03*
X3039Y-5I0J102D01*
G01*
X3110Y318D02*
G03*
X3068Y400I-102J0D01*
G01*
X3092Y225D02*
G03*
X3110Y283I-85J57D01*
G01*
X3072Y406D02*
G03*
X3327Y486I115J80D01*
G01*
X2727Y486D02*
G03*
X2472Y566I-140J0D01*
G01*
X3072Y566D02*
G03*
X2818Y375I-139J-80D01*
G01*
X3327Y486D02*
G03*
X3072Y566I-140J0D01*
G01*
X3410Y283D02*
G03*
X3428Y225I102J0D01*
G01*
X3481Y-5D02*
G03*
X3512Y-10I32J98D01*
G01*
X3608D02*
G03*
X3639Y-5I0J102D01*
G01*
X3418Y357D02*
G03*
X3410Y318I94J-40D01*
G01*
X3692Y225D02*
G03*
X3710Y283I-85J57D01*
G01*
Y318D02*
G03*
X3668Y400I-102J0D01*
G01*
X4010Y283D02*
G03*
X4028Y225I102J0D01*
G01*
X3672Y406D02*
G03*
X3927Y486I115J80D01*
G01*
X4018Y357D02*
G03*
X4010Y318I94J-40D01*
G01*
X3672Y566D02*
G03*
X3418Y375I-139J-80D01*
G01*
X3927Y486D02*
G03*
X3672Y566I-140J0D01*
G01*
X4272Y566D02*
G03*
X4018Y375I-139J-80D01*
G01*
X4225Y-2130D02*
G03*
X4652Y-1994I192J136D01*
G01*
X4225Y-2130D02*
G03*
X4652Y-1994I192J136D01*
G01*
X5375Y-1859D02*
G03*
X5375Y-2130I-192J-136D01*
G01*
X5375D02*
G03*
X5802Y-1994I192J136D01*
G01*
X4652D02*
G03*
X4225Y-1859I-235J0D01*
G01*
X4652Y-1994D02*
G03*
X4225Y-1859I-235J0D01*
G01*
X5375Y-2130D02*
G03*
X5802Y-1994I192J136D01*
G01*
X5375Y-1859D02*
G03*
X5375Y-2130I-192J-136D01*
G01*
X5802Y-1994D02*
G03*
X5375Y-1859I-235J0D01*
G01*
X5802Y-1994D02*
G03*
X5375Y-1859I-235J0D01*
G01*
X6568Y-1994D02*
G03*
X6568Y-1994I-235J0D01*
G01*
D02*
G03*
X6568Y-1994I-235J0D01*
G01*
X6590Y-2050D02*
G03*
X6950Y-2110I185J0D01*
G01*
Y-1890D02*
G03*
X6590Y-1950I-175J-60D01*
G01*
X4779Y-1507D02*
G03*
X5033Y-1360I84J148D01*
G01*
D02*
G03*
X5011Y-1274I-170J0D01*
G01*
X4567Y-1092D02*
G03*
X4589Y-1190I169J-14D01*
G01*
X5011Y-1274D02*
G03*
X5160Y-1106I-20J169D01*
G01*
X4863Y-992D02*
G03*
X4723Y-936I-127J-113D01*
G01*
X4967Y-937D02*
G03*
X4863Y-992I24J-168D01*
G01*
X5160Y-1106D02*
G03*
X5133Y-1012I-170J0D01*
G01*
X5929Y-1507D02*
G03*
X6183Y-1360I84J148D01*
G01*
D02*
G03*
X6161Y-1274I-170J0D01*
G01*
D02*
G03*
X6266Y-1220I-20J169D01*
G01*
X5717Y-1092D02*
G03*
X5739Y-1190I169J-14D01*
G01*
X6013Y-992D02*
G03*
X5873Y-936I-127J-113D01*
G01*
X6266Y-990D02*
G03*
X6013Y-992I-125J-115D01*
G01*
X6750Y-1220D02*
G03*
X6831Y-1187I0J115D01*
G01*
X6750Y-1220D02*
G03*
X6831Y-1187I0J115D01*
G01*
X5761Y-825D02*
G03*
X5683Y-793I-78J-78D01*
G01*
X5761Y-825D02*
G03*
X5683Y-793I-78J-78D01*
G01*
X6950Y-2110D02*
G03*
X7300Y-2110I175J60D01*
G01*
X7300D02*
G03*
X7650Y-2110I175J60D01*
G01*
D02*
G03*
X8000Y-2110I175J60D01*
G01*
X7300Y-1890D02*
G03*
X6950Y-1890I-175J-60D01*
G01*
X7650Y-1890D02*
G03*
X7300Y-1890I-175J-60D01*
G01*
X8000D02*
G03*
X7650Y-1890I-175J-60D01*
G01*
X8000Y-2110D02*
G03*
X8350Y-2110I175J60D01*
G01*
X8350D02*
G03*
X8700Y-2110I175J60D01*
G01*
X8350Y-1890D02*
G03*
X8000Y-1890I-175J-60D01*
G01*
X8700D02*
G03*
X8350Y-1890I-175J-60D01*
G01*
X8700Y-2110D02*
G03*
X9050Y-2110I175J60D01*
G01*
D02*
G03*
X9410Y-2050I175J60D01*
G01*
X9050Y-1890D02*
G03*
X8700Y-1890I-175J-60D01*
G01*
X9410Y-1950D02*
G03*
X9050Y-1890I-185J0D01*
G01*
X9829Y-1840D02*
G03*
X9860Y-1746I-129J94D01*
G01*
D02*
G03*
X9797Y-1619I-160J0D01*
G01*
X7603Y-1017D02*
G03*
X7684Y-984I0J115D01*
G01*
X7229Y-984D02*
G03*
X7310Y-1017I81J81D01*
G01*
X7229Y-984D02*
G03*
X7310Y-1017I81J81D01*
G01*
X8203D02*
G03*
X8284Y-984I0J115D01*
G01*
X7603Y-1017D02*
G03*
X7684Y-984I0J115D01*
G01*
X7829Y-984D02*
G03*
X7910Y-1017I81J81D01*
G01*
X7081Y-955D02*
G03*
X7113Y-960I32J98D01*
G01*
X7829Y-984D02*
G03*
X7910Y-1017I81J81D01*
G01*
X8203D02*
G03*
X8284Y-984I0J115D01*
G01*
X8429Y-984D02*
G03*
X8510Y-1017I81J81D01*
G01*
X8429Y-984D02*
G03*
X8510Y-1017I81J81D01*
G01*
X9603Y-1619D02*
G03*
X9571Y-1840I97J-127D01*
G01*
X9797Y-1619D02*
G03*
X9860Y-1492I-97J127D01*
G01*
X9603Y-1365D02*
G03*
X9603Y-1619I97J-127D01*
G01*
X9860Y-1492D02*
G03*
X9797Y-1365I-160J0D01*
G01*
X8803Y-1017D02*
G03*
X8884Y-984I0J115D01*
G01*
X8803Y-1017D02*
G03*
X8884Y-984I0J115D01*
G01*
X8999D02*
G03*
X9080Y-1017I81J81D01*
G01*
X9540Y-1241D02*
G03*
X9603Y-1365I160J3D01*
G01*
X8999Y-984D02*
G03*
X9080Y-1017I81J81D01*
G01*
X9445Y-821D02*
G03*
X9485Y-737I-68J83D01*
G01*
X9860Y-1238D02*
G03*
X9703Y-1078I-160J0D01*
G01*
X9797Y-1365D02*
G03*
X9860Y-1238I-97J127D01*
G01*
X4360Y-617D02*
G03*
X4367Y-622I73J79D01*
G01*
X4353D02*
G03*
X4360Y-617I-66J85D01*
G01*
X4543Y-622D02*
G03*
X4585Y-537I-66J85D01*
G01*
X4995Y-655D02*
G03*
X4917Y-622I-78J-78D01*
G01*
X4585Y-452D02*
G03*
X4570Y-398I-108J0D01*
G01*
X4995Y-655D02*
G03*
X4917Y-622I-78J-78D01*
G01*
X5028Y-339D02*
G03*
X5269Y-324I114J112D01*
G01*
X4570Y-344D02*
G03*
X4547Y-275I-115J0D01*
G01*
X4570Y-344D02*
G03*
X4547Y-275I-115J0D01*
G01*
D02*
G03*
X4293Y-147I-160J-1D01*
G01*
X4667Y-54D02*
G03*
X4748Y-88I81J81D01*
G01*
X4667Y-54D02*
G03*
X4748Y-88I81J81D01*
G01*
X5269Y-324D02*
G03*
X5523Y-324I127J97D01*
G01*
X5045Y-100D02*
G03*
X5028Y-115I97J-127D01*
G01*
X5015Y-70D02*
G03*
X5045Y-100I127J97D01*
G01*
X5000Y-87D02*
G03*
X5015Y-70I-112J114D01*
G01*
X5269Y-130D02*
G03*
X5239Y-100I-127J-97D01*
G01*
X5299D02*
G03*
X5269Y-130I97J-127D01*
G01*
Y-70D02*
G03*
X5299Y-100I127J97D01*
G01*
X5239D02*
G03*
X5269Y-70I-97J127D01*
G01*
X7015Y-725D02*
G03*
X6934Y-759I0J-115D01*
G01*
X7015Y-725D02*
G03*
X6934Y-759I0J-115D01*
G01*
X7010Y-667D02*
G03*
X7028Y-725I102J0D01*
G01*
X5777Y-324D02*
G03*
X6031Y-324I127J97D01*
G01*
D02*
G03*
X6285Y-324I127J97D01*
G01*
X5523D02*
G03*
X5777Y-324I127J97D01*
G01*
X6572Y-227D02*
G03*
X6509Y-100I-160J0D01*
G01*
X6285Y-324D02*
G03*
X6572Y-227I127J97D01*
G01*
X7045Y-555D02*
G03*
X7010Y-632I68J-77D01*
G01*
X7073Y-474D02*
G03*
X7045Y-549I87J-75D01*
G01*
X7073Y-474D02*
G03*
X7045Y-549I87J-75D01*
G01*
X5523Y-130D02*
G03*
X5493Y-100I-127J-97D01*
G01*
X5553D02*
G03*
X5523Y-130I97J-127D01*
G01*
X5777D02*
G03*
X5747Y-100I-127J-97D01*
G01*
X5807D02*
G03*
X5777Y-130I97J-127D01*
G01*
X6031D02*
G03*
X6001Y-100I-127J-97D01*
G01*
X5493D02*
G03*
X5523Y-70I-97J127D01*
G01*
D02*
G03*
X5553Y-100I127J97D01*
G01*
X5747D02*
G03*
X5777Y-70I-97J127D01*
G01*
D02*
G03*
X5807Y-100I127J97D01*
G01*
X6031Y-70D02*
G03*
X6061Y-100I127J97D01*
G01*
X6001D02*
G03*
X6031Y-70I-97J127D01*
G01*
X6959Y-171D02*
G03*
X7040Y-205I81J81D01*
G01*
X7181D02*
G03*
X7213Y-210I32J98D01*
G01*
X7308D02*
G03*
X7339Y-205I0J102D01*
G01*
X6959Y-171D02*
G03*
X7040Y-205I81J81D01*
G01*
X6061Y-100D02*
G03*
X6031Y-130I97J-127D01*
G01*
X6285D02*
G03*
X6255Y-100I-127J-97D01*
G01*
D02*
G03*
X6285Y-70I-97J127D01*
G01*
X6315Y-100D02*
G03*
X6285Y-130I97J-127D01*
G01*
Y-70D02*
G03*
X6315Y-100I127J97D01*
G01*
X4208Y-10D02*
G03*
X4239Y-5I0J102D01*
G01*
X4292Y225D02*
G03*
X4310Y283I-85J57D01*
G01*
X4746Y191D02*
G03*
X4665Y225I-81J-81D01*
G01*
X4885Y187D02*
G03*
X4787Y151I3J-160D01*
G01*
X4746Y191D02*
G03*
X4665Y225I-81J-81D01*
G01*
X4310Y318D02*
G03*
X4268Y400I-102J0D01*
G01*
X4272Y406D02*
G03*
X4527Y486I115J80D01*
G01*
D02*
G03*
X4272Y566I-140J0D01*
G01*
X5086Y340D02*
G03*
X5005Y306I0J-115D01*
G01*
X5086Y340D02*
G03*
X5005Y306I0J-115D01*
G01*
X6572Y27D02*
G03*
X6549Y110I-160J0D01*
G01*
X6509Y-100D02*
G03*
X6572Y27I-97J127D01*
G01*
X6806Y306D02*
G03*
X6725Y340I-81J-81D01*
G01*
X6806Y306D02*
G03*
X6725Y340I-81J-81D01*
G01*
X7110Y83D02*
G03*
X7128Y25I102J0D01*
G01*
X7392D02*
G03*
X7410Y83I-85J57D01*
G01*
X7372Y366D02*
G03*
X7118Y175I-139J-80D01*
G01*
Y157D02*
G03*
X7110Y118I94J-40D01*
G01*
X7410D02*
G03*
X7368Y200I-102J0D01*
G01*
X7673Y-474D02*
G03*
X7659Y-494I87J-75D01*
G01*
X7673Y-474D02*
G03*
X7659Y-494I87J-75D01*
G01*
D02*
G03*
X7647Y-475I-104J-50D01*
G01*
X7659Y-494D02*
G03*
X7647Y-475I-104J-50D01*
G01*
D02*
G03*
X7393Y-347I-160J-1D01*
G01*
X8273Y-474D02*
G03*
X8259Y-494I87J-75D01*
G01*
X8273Y-474D02*
G03*
X8259Y-494I87J-75D01*
G01*
D02*
G03*
X8247Y-475I-104J-50D01*
G01*
X8259Y-494D02*
G03*
X8247Y-475I-104J-50D01*
G01*
D02*
G03*
X7993Y-347I-160J-1D01*
G01*
X7781Y-205D02*
G03*
X7813Y-210I32J98D01*
G01*
X7710Y83D02*
G03*
X7728Y25I102J0D01*
G01*
X7908Y-210D02*
G03*
X7939Y-205I0J102D01*
G01*
X7992Y25D02*
G03*
X8010Y83I-85J58D01*
G01*
X8381Y-205D02*
G03*
X8413Y-210I32J98D01*
G01*
X8310Y83D02*
G03*
X8328Y25I102J0D01*
G01*
X8873Y-474D02*
G03*
X8859Y-494I87J-75D01*
G01*
X8873Y-474D02*
G03*
X8859Y-494I87J-75D01*
G01*
D02*
G03*
X8847Y-475I-104J-50D01*
G01*
X8859Y-494D02*
G03*
X8847Y-475I-104J-50D01*
G01*
D02*
G03*
X8593Y-347I-160J-1D01*
G01*
X9485Y-652D02*
G03*
X9470Y-598I-108J0D01*
G01*
X9447Y-475D02*
G03*
X9193Y-347I-160J-1D01*
G01*
X9470Y-544D02*
G03*
X9447Y-475I-115J0D01*
G01*
X9470Y-544D02*
G03*
X9447Y-475I-115J0D01*
G01*
X8508Y-210D02*
G03*
X8539Y-205I0J102D01*
G01*
X8981D02*
G03*
X9013Y-210I32J98D01*
G01*
X8592Y25D02*
G03*
X8610Y83I-85J58D01*
G01*
X8910D02*
G03*
X8928Y25I102J0D01*
G01*
X9210Y-72D02*
G03*
X9175Y5I-102J0D01*
G01*
X9108Y-210D02*
G03*
X9210Y-107I0J102D01*
G01*
X9175Y5D02*
G03*
X9210Y83I-67J77D01*
G01*
X7718Y157D02*
G03*
X7710Y118I94J-40D01*
G01*
X7372Y206D02*
G03*
X7627Y286I115J80D01*
G01*
X7972Y366D02*
G03*
X7718Y175I-139J-80D01*
G01*
X8318Y157D02*
G03*
X8310Y118I94J-40D01*
G01*
X8010D02*
G03*
X7968Y200I-102J0D01*
G01*
X7972Y206D02*
G03*
X8227Y286I115J80D01*
G01*
X8572Y366D02*
G03*
X8318Y175I-139J-80D01*
G01*
X7627Y286D02*
G03*
X7372Y366I-140J0D01*
G01*
X8227Y286D02*
G03*
X7972Y366I-140J0D01*
G01*
X8918Y157D02*
G03*
X8910Y118I94J-40D01*
G01*
X8610D02*
G03*
X8568Y200I-102J0D01*
G01*
X8572Y206D02*
G03*
X8827Y286I115J80D01*
G01*
X9210Y118D02*
G03*
X9168Y200I-102J0D01*
G01*
X9172Y206D02*
G03*
X9427Y286I115J80D01*
G01*
X9172Y366D02*
G03*
X8918Y175I-139J-80D01*
G01*
X9427Y286D02*
G03*
X9172Y366I-140J0D01*
G01*
X8827Y286D02*
G03*
X8572Y366I-140J0D01*
G01*
X2260Y-929D02*
Y-640D01*
Y-929D02*
X2436Y-1106D01*
Y-1232D02*
Y-1106D01*
X2309Y-1360D02*
X2436Y-1232D01*
X3587Y-1106D02*
Y-1102D01*
Y-1232D02*
Y-1106D01*
X3460Y-1360D02*
X3587Y-1232D01*
X4737Y-1232D02*
Y-1106D01*
X4610Y-1360D02*
X4737Y-1232D01*
X5088Y-902D02*
X5683D01*
X5887Y-1106D01*
Y-1232D02*
Y-1106D01*
X5760Y-1360D02*
X5887Y-1232D01*
X4060Y-640D02*
X4153Y-732D01*
X4917D01*
X5088Y-902D01*
X3460Y-640D02*
X3720Y-900D01*
X4531D01*
X4737Y-1106D01*
X2860Y-640D02*
X3117Y-898D01*
X3383D01*
X3587Y-1102D01*
X-1253Y-2400D02*
Y-2197D01*
X-1203Y-2400D02*
Y-2219D01*
X-1300Y-2173D02*
X-1286D01*
X-1300Y-2223D02*
X-1189D01*
X-1053Y-2400D02*
Y-2215D01*
X-1003Y-2400D02*
Y-2190D01*
X-1153Y-2400D02*
Y-2229D01*
X-1103Y-2400D02*
Y-2228D01*
X-1300Y-2400D02*
Y-2160D01*
X-953Y-2400D02*
Y-2146D01*
X-803Y-2400D02*
Y-1765D01*
X-753Y-2400D02*
Y-1765D01*
X-903Y-2400D02*
Y-2043D01*
X-853Y-2400D02*
Y-1765D01*
X-453Y-2400D02*
Y-2213D01*
X-403Y-2400D02*
Y-2227D01*
X-503Y-2400D02*
Y-2186D01*
X-1077Y-2223D02*
X-423D01*
X-353Y-2400D02*
Y-2229D01*
X-303Y-2400D02*
Y-2221D01*
X-253Y-2400D02*
Y-2200D01*
X-311Y-2223D02*
X-39D01*
X-703Y-2400D02*
Y-1765D01*
X-980Y-2173D02*
X-520D01*
X-911Y-2073D02*
X-589D01*
X-936Y-2123D02*
X-564D01*
X-653Y-2400D02*
Y-1765D01*
X-603Y-2400D02*
Y-1765D01*
X-553Y-2400D02*
Y-2138D01*
X-1300Y-1773D02*
X-1210D01*
X-899Y-1973D02*
X-601D01*
X-900Y-2023D02*
X-600D01*
X-903Y-1946D02*
Y-1752D01*
X-1300Y-1673D02*
X-990D01*
X-1300Y-1723D02*
X-940D01*
X-1300Y-1573D02*
X-1055D01*
X-1300Y-1623D02*
X-1037D01*
X-1003Y-1799D02*
Y-1660D01*
X-953Y-1843D02*
Y-1710D01*
X-1053Y-1774D02*
Y-1583D01*
X-1022Y-1641D02*
X-931Y-1731D01*
X-909Y-1923D02*
X-591D01*
X-932Y-1873D02*
X-568D01*
X-973Y-1823D02*
X-527D01*
X-1056Y-1773D02*
X-444D01*
X-503Y-1803D02*
Y-1765D01*
X-453Y-1776D02*
Y-1765D01*
X-850D02*
X-418D01*
X-290Y-1773D02*
X-60D01*
X-553Y-1851D02*
Y-1765D01*
X-303Y-1768D02*
Y-1755D01*
X-253Y-1789D02*
Y-1716D01*
X-260Y-1723D02*
X210D01*
X-269Y-1731D02*
X-154Y-1617D01*
X-103Y-2400D02*
Y-2197D01*
X-53Y-2400D02*
Y-2219D01*
X-203Y-2400D02*
Y-2163D01*
X-214Y-2173D02*
X-136D01*
X97Y-2400D02*
Y-2215D01*
X147Y-2400D02*
Y-2190D01*
X-3Y-2400D02*
Y-2229D01*
X47Y-2400D02*
Y-2228D01*
X-153Y-2400D02*
Y-2157D01*
X197Y-2400D02*
Y-2146D01*
X347Y-2400D02*
Y-1765D01*
X397Y-2400D02*
Y-1765D01*
X247Y-2400D02*
Y-2043D01*
X297Y-2400D02*
Y-1765D01*
X647Y-2400D02*
Y-2186D01*
X697Y-2400D02*
Y-2213D01*
X170Y-2173D02*
X630D01*
X73Y-2223D02*
X727D01*
X847Y-2400D02*
Y-2221D01*
X897Y-2400D02*
Y-2200D01*
X747Y-2400D02*
Y-2227D01*
X797Y-2400D02*
Y-2229D01*
X447Y-2400D02*
Y-1765D01*
X497Y-2400D02*
Y-1765D01*
X239Y-2073D02*
X561D01*
X214Y-2123D02*
X586D01*
X547Y-2400D02*
Y-1765D01*
X597Y-2400D02*
Y-2138D01*
X947Y-2400D02*
Y-2163D01*
X997Y-2400D02*
Y-2092D01*
X-207Y-1823D02*
X-143D01*
X-210Y-1673D02*
X160D01*
X197Y-1843D02*
Y-1710D01*
X247Y-1946D02*
Y-1752D01*
X-203Y-1826D02*
Y-1666D01*
X-153Y-1832D02*
Y-1616D01*
X-127Y-1573D02*
X95D01*
X-160Y-1623D02*
X113D01*
X97Y-1774D02*
Y-1583D01*
X147Y-1799D02*
Y-1660D01*
X128Y-1641D02*
X219Y-1731D01*
X241Y-1923D02*
X559D01*
X218Y-1873D02*
X582D01*
X177Y-1823D02*
X623D01*
X94Y-1773D02*
X706D01*
X251Y-1973D02*
X549D01*
X250Y-2023D02*
X550D01*
X647Y-1803D02*
Y-1765D01*
X697Y-1776D02*
Y-1765D01*
X597Y-1851D02*
Y-1765D01*
X300D02*
X732D01*
X947Y-1826D02*
Y-1666D01*
X997Y-1897D02*
Y-1616D01*
X847Y-1768D02*
Y-1755D01*
X897Y-1789D02*
Y-1716D01*
X881Y-1731D02*
X996Y-1617D01*
X-1103Y-1761D02*
Y-1530D01*
X-1300Y-1523D02*
X-1110D01*
Y-1530D02*
X-1056D01*
Y-1560D02*
Y-1530D01*
X-808D02*
X-802Y-1535D01*
X-808Y-1530D02*
X-770D01*
X-703Y-1535D02*
Y-1509D01*
X-1300Y-1829D02*
Y700D01*
X-1253Y-1792D02*
Y700D01*
X-1203Y-1770D02*
Y700D01*
X-1300Y-1473D02*
X-1110D01*
X-1153Y-1760D02*
Y700D01*
X-753Y-1535D02*
Y-1494D01*
X-1110Y-1530D02*
Y-1190D01*
X-770Y-1530D02*
Y-1484D01*
X-653Y-1535D02*
Y-1506D01*
X-802Y-1535D02*
X-565D01*
X-603D02*
Y-1484D01*
X-770Y-1523D02*
X-567D01*
X-362Y-1499D02*
X-351Y-1488D01*
X-568Y-1514D02*
Y-1476D01*
X-362Y-1499D02*
Y-1476D01*
X-353Y-1490D02*
Y-1452D01*
X-362Y-1473D02*
X-351D01*
Y-1488D02*
Y-1459D01*
X-1300Y-1373D02*
X-1110D01*
X-1300Y-1423D02*
X-1110D01*
X-1300Y-1223D02*
X-1110D01*
X-1300Y-1323D02*
X-1110D01*
X-588Y-1473D02*
X-567D01*
X-1300Y-1273D02*
X-1110D01*
Y-1190D02*
X-961D01*
X-1103D02*
Y700D01*
X-1053Y-1190D02*
Y-1013D01*
X-1300Y-1123D02*
X-983D01*
X-1300Y-1173D02*
X-970D01*
X-1003Y-1190D02*
Y-1079D01*
X-1026Y-1055D02*
X-983Y-1098D01*
X-390Y-1113D02*
X-383Y-1119D01*
X-381Y-1423D02*
X-358D01*
X-359Y-1419D02*
Y-1381D01*
X-341Y-1324D02*
Y-1286D01*
X-255Y-1277D02*
X-216D01*
X-342Y-1273D02*
X40D01*
X-353Y-1172D02*
Y-975D01*
X-380Y-1123D02*
X167D01*
X-303Y-1289D02*
Y-976D01*
X-253Y-1277D02*
Y-980D01*
X-349Y-1246D02*
Y-1201D01*
Y-1223D02*
X40D01*
X-353Y-1173D02*
X180D01*
X-121Y-1523D02*
X40D01*
Y-1530D02*
X94D01*
X47Y-1761D02*
Y-1530D01*
X94Y-1560D02*
Y-1530D01*
X342D02*
X348Y-1535D01*
X342Y-1530D02*
X380D01*
X-103Y-1792D02*
Y-772D01*
X-53Y-1770D02*
Y-772D01*
X-121Y-1535D02*
Y-1459D01*
X-3Y-1760D02*
Y-772D01*
X397Y-1535D02*
Y-1494D01*
X447Y-1535D02*
Y-1509D01*
X40Y-1530D02*
Y-1190D01*
X380Y-1530D02*
Y-1484D01*
X497Y-1535D02*
Y-1506D01*
X348Y-1535D02*
X585D01*
X547D02*
Y-1484D01*
X380Y-1523D02*
X583D01*
X789Y-1499D02*
X799Y-1488D01*
X582Y-1514D02*
Y-1476D01*
X562Y-1473D02*
X583D01*
X789Y-1499D02*
Y-1476D01*
X797Y-1490D02*
Y-1452D01*
X799Y-1488D02*
Y-1459D01*
X-121Y-1473D02*
X40D01*
X-130Y-1323D02*
X40D01*
X-112Y-1419D02*
Y-1381D01*
X-113Y-1423D02*
X40D01*
X-113Y-1373D02*
X40D01*
Y-1190D02*
X189D01*
X-203Y-1278D02*
Y-975D01*
X-153Y-1299D02*
Y-929D01*
X47Y-1190D02*
Y-772D01*
X97Y-1190D02*
Y-1013D01*
X147Y-1190D02*
Y-1079D01*
X124Y-1055D02*
X167Y-1098D01*
X760Y-1113D02*
X767Y-1119D01*
X788Y-1473D02*
X799D01*
X769Y-1423D02*
X792D01*
X791Y-1419D02*
Y-1381D01*
X809Y-1324D02*
Y-1286D01*
X895Y-1277D02*
X934D01*
X797Y-1172D02*
Y-975D01*
X847Y-1289D02*
Y-976D01*
X997Y-1299D02*
Y-929D01*
X801Y-1246D02*
Y-1201D01*
X897Y-1277D02*
Y-980D01*
X947Y-1278D02*
Y-975D01*
X1097Y-2400D02*
Y-2160D01*
X1147Y-2400D02*
Y-2160D01*
X1047Y-2400D02*
Y-2160D01*
X1040D02*
X1360D01*
X1297Y-2400D02*
Y-2160D01*
X1347Y-2400D02*
Y-2160D01*
X1197Y-2400D02*
Y-2160D01*
X1247Y-2400D02*
Y-2160D01*
X980Y-2123D02*
X1040D01*
X1005Y-2073D02*
X1040D01*
Y-2160D02*
Y-1840D01*
X1360Y-2160D02*
Y-1840D01*
X1016Y-2023D02*
X1040D01*
X1360D02*
X1884D01*
X-1300Y-2373D02*
X9900D01*
X-1300Y-2400D02*
X9900D01*
X-1300Y-2273D02*
X9900D01*
X-1300Y-2323D02*
X9900D01*
X2097Y-2400D02*
Y-2229D01*
X2147Y-2400D02*
Y-2228D01*
X839Y-2223D02*
X2061D01*
X2173D02*
X2827D01*
X936Y-2173D02*
X1964D01*
X1360Y-2073D02*
X1895D01*
X1360Y-2123D02*
X1920D01*
X1997Y-2400D02*
Y-2197D01*
X2047Y-2400D02*
Y-2219D01*
X1897Y-2400D02*
Y-2077D01*
X1947Y-2400D02*
Y-2157D01*
X984Y-1873D02*
X1040D01*
X860Y-1773D02*
X1042D01*
X943Y-1823D02*
X1060D01*
X1007Y-1923D02*
X1040D01*
X1017Y-1973D02*
X1040D01*
X1047Y-1840D02*
Y-1793D01*
X1040Y-1840D02*
X1071D01*
X890Y-1723D02*
X1042D01*
X940Y-1673D02*
X1058D01*
X990Y-1623D02*
X1098D01*
X1047Y-1699D02*
Y-1539D01*
X1097Y-1624D02*
Y-1614D01*
X1023Y-1573D02*
X1062D01*
X1347Y-1840D02*
Y-1809D01*
X1329Y-1840D02*
X1360D01*
X1340Y-1823D02*
X1957D01*
X1358Y-1773D02*
X2040D01*
X1360Y-1973D02*
X1883D01*
X1360Y-1923D02*
X1893D01*
X1360Y-1873D02*
X1916D01*
X2194Y-1773D02*
X2806D01*
X1338Y-1573D02*
X9562D01*
X1302Y-1623D02*
X9598D01*
X2147Y-1761D02*
Y-1530D01*
X1358Y-1723D02*
X9542D01*
X1347Y-1683D02*
Y-1555D01*
X1342Y-1673D02*
X9558D01*
X2140Y-1530D02*
X2480D01*
X2747Y-2400D02*
Y-2186D01*
X2797Y-2400D02*
Y-2213D01*
X2197Y-2400D02*
Y-2215D01*
X2247Y-2400D02*
Y-2190D01*
X2947Y-2400D02*
Y-2221D01*
X2997Y-2400D02*
Y-2200D01*
X2847Y-2400D02*
Y-2227D01*
X2897Y-2400D02*
Y-2229D01*
X2397Y-2400D02*
Y-1530D01*
X2447Y-2400D02*
Y-1530D01*
X2297Y-2400D02*
Y-2146D01*
X2347Y-2400D02*
Y-2043D01*
X3047Y-2400D02*
Y-2163D01*
X3097Y-2400D02*
Y-2157D01*
X2697Y-2400D02*
Y-2138D01*
X3297Y-2400D02*
Y-2228D01*
X3347Y-2400D02*
Y-2215D01*
X3197Y-2400D02*
Y-2219D01*
X3247Y-2400D02*
Y-2229D01*
X4047Y-2400D02*
Y-2229D01*
X4097Y-2400D02*
Y-2221D01*
X3947Y-2400D02*
Y-2213D01*
X3997Y-2400D02*
Y-2227D01*
X3147Y-2400D02*
Y-2197D01*
X3397Y-2400D02*
Y-2190D01*
X3897Y-2400D02*
Y-2186D01*
X4147Y-2400D02*
Y-2200D01*
X3447Y-2400D02*
Y-2146D01*
X3847Y-2400D02*
Y-2138D01*
X3497Y-2400D02*
Y-2043D01*
X2314Y-2123D02*
X2686D01*
X2270Y-2173D02*
X2730D01*
X2341Y-1923D02*
X2659D01*
X2339Y-2073D02*
X2661D01*
X3036Y-2173D02*
X3114D01*
X2939Y-2223D02*
X3211D01*
X2351Y-1973D02*
X2649D01*
X2350Y-2023D02*
X2650D01*
X2297Y-1843D02*
Y-1530D01*
X2277Y-1823D02*
X2723D01*
X2197Y-1774D02*
Y-1530D01*
X2247Y-1799D02*
Y-1530D01*
X2347Y-1946D02*
Y-1530D01*
X2318Y-1873D02*
X2682D01*
X3043Y-1823D02*
X3107D01*
X2960Y-1773D02*
X3190D01*
X3420Y-2173D02*
X3880D01*
X3323Y-2223D02*
X3977D01*
X3489Y-2073D02*
X3811D01*
X3464Y-2123D02*
X3836D01*
X4186Y-2173D02*
X4264D01*
X4089Y-2223D02*
X4361D01*
X3501Y-1973D02*
X3799D01*
X3500Y-2023D02*
X3800D01*
X3427Y-1823D02*
X3873D01*
X3344Y-1773D02*
X3956D01*
X3491Y-1923D02*
X3809D01*
X3468Y-1873D02*
X3832D01*
X4110Y-1773D02*
X4340D01*
X1030Y-1535D02*
Y-1459D01*
Y-1473D02*
X1041D01*
X1030Y-1523D02*
X1043D01*
X1397Y-2400D02*
Y700D01*
X1447Y-2400D02*
Y700D01*
X1597Y-2400D02*
Y700D01*
X1647Y-2400D02*
Y700D01*
X1497Y-2400D02*
Y700D01*
X1547Y-2400D02*
Y700D01*
X1797Y-2400D02*
Y700D01*
X1847Y-2400D02*
Y700D01*
X1697Y-2400D02*
Y700D01*
X1747Y-2400D02*
Y700D01*
X2480Y-1530D02*
Y-1507D01*
X2497Y-2400D02*
Y-1516D01*
X1357Y-1523D02*
X2140D01*
X2480D02*
X2516D01*
X2547Y-2400D02*
Y-1529D01*
X2597Y-2400D02*
Y-1526D01*
X2647Y-2400D02*
Y-1508D01*
X2611Y-1523D02*
X3290D01*
X1897Y-1912D02*
Y700D01*
X1947Y-1832D02*
Y700D01*
X1997Y-1792D02*
Y700D01*
X1359Y-1473D02*
X2140D01*
X2047Y-1770D02*
Y700D01*
X2097Y-1760D02*
Y700D01*
X2140Y-1530D02*
Y-1190D01*
X2689Y-1474D02*
X2745D01*
X1020Y-1323D02*
X1064D01*
X1037Y-1373D02*
X1093D01*
X1047Y-1445D02*
Y-1285D01*
X1037Y-1423D02*
X1056D01*
X1038Y-1419D02*
Y-1381D01*
X1097Y-1370D02*
Y-1360D01*
X801Y-1223D02*
X1041D01*
X808Y-1273D02*
X1044D01*
X797Y-1173D02*
X1054D01*
X770Y-1123D02*
X1089D01*
X1047Y-1191D02*
Y700D01*
X1097Y-1116D02*
Y700D01*
X1147Y-1087D02*
Y700D01*
X1297Y-1111D02*
Y700D01*
X1247Y-1085D02*
Y700D01*
X1307Y-1373D02*
X2140D01*
X1344Y-1423D02*
X2140D01*
X1336Y-1323D02*
X2140D01*
X1347Y-1429D02*
Y-1301D01*
X1356Y-1273D02*
X2140D01*
X1359Y-1223D02*
X2140D01*
Y-1190D02*
X2289D01*
X1347Y-1175D02*
Y700D01*
X1311Y-1123D02*
X2267D01*
X1346Y-1173D02*
X2280D01*
X2147Y-1190D02*
Y-736D01*
X2197Y-1190D02*
Y-1022D01*
X2247Y-1190D02*
Y-1072D01*
X2182Y-1007D02*
X2267Y-1092D01*
X2697Y-1851D02*
Y-1474D01*
X2747Y-1803D02*
Y-1474D01*
X2797Y-1776D02*
Y-1462D01*
X2847Y-1762D02*
Y-1421D01*
X3397Y-1799D02*
Y-1530D01*
X3447Y-1843D02*
Y-1530D01*
X3297Y-1761D02*
Y-1530D01*
X3347Y-1774D02*
Y-1530D01*
X2997Y-1789D02*
Y-933D01*
X3047Y-1826D02*
Y-982D01*
X2897Y-1760D02*
Y-1371D01*
X2947Y-1768D02*
Y-1321D01*
X3097Y-1832D02*
Y-1006D01*
X3147Y-1792D02*
Y-1007D01*
X3197Y-1770D02*
Y-1007D01*
X3247Y-1760D02*
Y-1007D01*
X3547Y-2400D02*
Y-1530D01*
X3597Y-2400D02*
Y-1530D01*
X3497Y-1946D02*
Y-1530D01*
X3290D02*
X3629D01*
X3747Y-2400D02*
Y-1526D01*
X3797Y-2400D02*
Y-1508D01*
X3647Y-2400D02*
Y-1516D01*
X3697Y-2400D02*
Y-1529D01*
X3847Y-1851D02*
Y-1465D01*
X3897Y-1803D02*
Y-1266D01*
X3629Y-1530D02*
Y-1507D01*
X3947Y-1776D02*
Y-1238D01*
X4147Y-1789D02*
Y-1010D01*
X3997Y-1762D02*
Y-1172D01*
X4097Y-1768D02*
Y-1010D01*
X4047Y-1760D02*
Y-1010D01*
X2827Y-1441D02*
X2961Y-1306D01*
X2766Y-1473D02*
X3290D01*
X2895Y-1373D02*
X3290D01*
X2845Y-1423D02*
X3290D01*
X2985Y-1273D02*
X3290D01*
X2945Y-1323D02*
X3290D01*
X2995Y-1223D02*
X3290D01*
X2995Y-1123D02*
X3417D01*
X2995Y-1225D02*
Y-955D01*
X3290Y-1530D02*
Y-1190D01*
X3297D02*
Y-1007D01*
X3397Y-1190D02*
Y-1068D01*
X3347Y-1190D02*
Y-1018D01*
X3629Y-1523D02*
X3666D01*
X3761D02*
X4440D01*
X3840Y-1473D02*
X4440D01*
X3883Y-1373D02*
X4440D01*
X3871Y-1423D02*
X4440D01*
X3872Y-1273D02*
X4440D01*
X3879Y-1323D02*
X4440D01*
X3290Y-1190D02*
X3439D01*
X3337Y-1007D02*
X3417Y-1088D01*
X2995Y-1173D02*
X3430D01*
X3964Y-1223D02*
X4440D01*
X3997Y-1173D02*
X4580D01*
X4010Y-1123D02*
X4567D01*
X-1300Y-1073D02*
X-1009D01*
X-1300Y-973D02*
X-1060D01*
X-1300Y-1023D02*
X-1049D01*
X-403Y-1039D02*
Y-998D01*
X-1300Y-923D02*
X-1062D01*
X-1300Y-823D02*
X-1065D01*
X-1300Y-873D02*
X-1065D01*
X-1060Y-974D02*
Y-929D01*
X-1065Y-898D02*
Y-802D01*
X-351Y-973D02*
X-313D01*
X-411Y-1023D02*
X101D01*
X-393Y-1073D02*
X141D01*
X-278Y-980D02*
X-233D01*
X-197Y-973D02*
X90D01*
Y-974D02*
Y-929D01*
X-150Y-923D02*
X88D01*
X85Y-898D02*
Y-802D01*
X-145Y-893D02*
Y-807D01*
Y-873D02*
X85D01*
X-145Y-823D02*
X85D01*
X-1300Y-773D02*
X-1061D01*
X-1300Y-723D02*
X-1027D01*
X-962Y-700D02*
X-927D01*
X-660Y-735D02*
X-560D01*
Y-720D01*
X-863Y-723D02*
X-837D01*
X-673D02*
X-560D01*
X-1300Y-673D02*
X-550D01*
X-1300Y-623D02*
X-510D01*
X-772Y-700D02*
X-738D01*
X-526Y-639D02*
X-464Y-576D01*
X-1300Y-573D02*
X-460D01*
X-383Y-543D02*
X333D01*
X-152Y-773D02*
X89D01*
X-152Y-772D02*
X89D01*
X-103Y-543D02*
Y-423D01*
X-1300Y-523D02*
X2126D01*
X-1300Y-423D02*
X-103D01*
X-1300Y-473D02*
X2110D01*
X-53Y-543D02*
Y-432D01*
X-3Y-543D02*
Y-435D01*
X47Y-543D02*
Y-432D01*
X97Y-543D02*
Y-424D01*
X103Y-423D02*
X2110D01*
X747Y-1039D02*
Y-998D01*
X873Y-980D02*
X918D01*
X799Y-973D02*
X837D01*
X1000Y-923D02*
X2150D01*
X1005Y-893D02*
Y-807D01*
X2150Y-929D02*
Y-739D01*
X1005Y-823D02*
X2150D01*
X1005Y-873D02*
X2150D01*
X739Y-1023D02*
X2198D01*
X757Y-1073D02*
X2248D01*
X953Y-973D02*
X2159D01*
X2370Y-883D02*
X2423Y-936D01*
X2543Y-973D02*
X2584D01*
X2397Y-910D02*
Y-707D01*
X2447Y-936D02*
Y-645D01*
X2370Y-883D02*
Y-739D01*
Y-823D02*
X2585D01*
X2547Y-976D02*
Y-773D01*
X2597Y-964D02*
Y-835D01*
X2497Y-947D02*
Y-645D01*
X512Y-735D02*
Y-722D01*
Y-735D02*
X600D01*
X512Y-723D02*
X617D01*
X793D02*
X851D01*
X873Y-720D02*
X918D01*
X414Y-576D02*
X479Y-641D01*
X460Y-623D02*
X2110D01*
X682Y-700D02*
X728D01*
X2110Y-468D02*
Y-432D01*
X998Y-773D02*
X2150D01*
X501Y-673D02*
X2111D01*
X939Y-723D02*
X2133D01*
X2370Y-773D02*
X2547D01*
X2409Y-673D02*
X2538D01*
X2387Y-723D02*
X2538D01*
X2110Y-657D02*
Y-622D01*
X410Y-573D02*
X2123D01*
X2410Y-657D02*
Y-640D01*
X2538Y-728D02*
Y-633D01*
X2442Y-645D02*
X2488D01*
X-653Y-735D02*
Y700D01*
X-603Y-735D02*
Y700D01*
X-1300Y-123D02*
X-417D01*
X-1300Y-173D02*
X-399D01*
X-553Y-681D02*
Y700D01*
X-503Y-615D02*
Y700D01*
X-453Y-567D02*
Y700D01*
X-403Y-544D02*
Y-164D01*
X-1053Y-754D02*
Y700D01*
X-1003Y-708D02*
Y700D01*
X-953Y-700D02*
Y700D01*
X-903Y-703D02*
Y700D01*
X-853Y-732D02*
Y700D01*
X-703Y-706D02*
Y700D01*
X-803Y-705D02*
Y700D01*
X-753Y-700D02*
Y700D01*
X-203Y-543D02*
Y-385D01*
X-153Y-543D02*
Y-407D01*
X-253Y-543D02*
Y-354D01*
X-1300Y-373D02*
X-224D01*
X147Y-543D02*
Y-409D01*
X197Y-543D02*
Y-388D01*
X247Y-543D02*
Y-358D01*
X224Y-373D02*
X2129D01*
X-1300Y-323D02*
X-292D01*
X-1300Y-223D02*
X-374D01*
X-1300Y-273D02*
X-339D01*
X-303Y-543D02*
Y-312D01*
X297Y-543D02*
Y-318D01*
X-353Y-543D02*
Y-254D01*
X292Y-323D02*
X2173D01*
X339Y-273D02*
X2173D01*
X-1300Y127D02*
X-416D01*
X-1300Y177D02*
X-397D01*
X-1300Y227D02*
X-371D01*
X-1300Y277D02*
X-335D01*
X-1300Y-23D02*
X-434D01*
X-1300Y-73D02*
X-429D01*
X-1300Y27D02*
X-434D01*
X-1300Y77D02*
X-428D01*
X-403Y164D02*
Y700D01*
X-353Y254D02*
Y700D01*
X-1300Y327D02*
X-286D01*
X-1300Y377D02*
X-216D01*
X-303Y312D02*
Y700D01*
X-253Y354D02*
Y700D01*
X-203Y385D02*
Y700D01*
X-103Y423D02*
Y700D01*
X-153Y407D02*
Y700D01*
X-1300Y427D02*
X-81D01*
X-1300Y477D02*
X2173D01*
X-1300Y527D02*
X2178D01*
X-1300Y577D02*
X2202D01*
X335Y277D02*
X2210D01*
X286Y327D02*
X2210D01*
X81Y427D02*
X2184D01*
X216Y377D02*
X2216D01*
X-53Y432D02*
Y700D01*
X47Y432D02*
Y700D01*
X-3Y435D02*
Y700D01*
X-1300Y627D02*
X2258D01*
X247Y358D02*
Y700D01*
X297Y318D02*
Y700D01*
X97Y424D02*
Y700D01*
X197Y388D02*
Y700D01*
X147Y409D02*
Y700D01*
X447Y-609D02*
Y700D01*
X497Y-665D02*
Y700D01*
X347Y-543D02*
Y-262D01*
X397Y-562D02*
Y-178D01*
X547Y-735D02*
Y700D01*
X597Y-735D02*
Y700D01*
X647Y-706D02*
Y700D01*
X697Y-700D02*
Y700D01*
X797Y-725D02*
Y700D01*
X847Y-724D02*
Y700D01*
X747Y-702D02*
Y700D01*
X897Y-720D02*
Y700D01*
X997Y-771D02*
Y700D01*
X1197Y-1078D02*
Y700D01*
X947Y-725D02*
Y700D01*
X2147Y-354D02*
Y700D01*
X374Y-223D02*
X2173D01*
X417Y-123D02*
X2173D01*
X399Y-173D02*
X2173D01*
Y-338D02*
Y-116D01*
X2493Y-147D02*
Y-116D01*
X2173D02*
X2493D01*
Y-123D02*
X2541D01*
X2197Y-116D02*
Y402D01*
X2247Y-116D02*
Y14D01*
X2297Y-116D02*
Y-9D01*
X2497Y-144D02*
Y-5D01*
X2547Y-121D02*
Y-5D01*
X2347Y-116D02*
Y-10D01*
X2397Y-116D02*
Y-10D01*
X2447Y-116D02*
Y-5D01*
X416Y127D02*
X2210D01*
X428Y77D02*
X2211D01*
X397Y177D02*
X2223D01*
X371Y227D02*
X2226D01*
X2210Y93D02*
Y128D01*
X434Y27D02*
X2233D01*
X347Y262D02*
Y700D01*
X397Y178D02*
Y700D01*
X2197Y570D02*
Y700D01*
X2210Y283D02*
Y318D01*
X2218Y357D02*
Y375D01*
X2247Y621D02*
Y700D01*
X2347Y645D02*
Y700D01*
X2297Y642D02*
Y700D01*
X2313Y-10D02*
X2408D01*
X2491Y377D02*
X2499D01*
X2547Y225D02*
Y352D01*
X2597Y225D02*
Y346D01*
X2497Y367D02*
Y379D01*
X2510Y283D02*
Y318D01*
X2464Y577D02*
X2481D01*
X2397Y633D02*
Y700D01*
X2447Y598D02*
Y700D01*
X2497Y593D02*
Y700D01*
X2547Y620D02*
Y700D01*
X2992Y-927D02*
X3040Y-975D01*
X2409Y-923D02*
X2685D01*
X2995Y-973D02*
X3037D01*
X2647Y-941D02*
Y-885D01*
X2571Y-809D02*
X2698Y-936D01*
X2370Y-873D02*
X2635D01*
X3097Y-721D02*
Y-645D01*
X3147Y-771D02*
Y-627D01*
X3047Y-671D02*
Y-645D01*
X3042D02*
X3088D01*
X2995Y-1023D02*
X3352D01*
X2995Y-1073D02*
X3402D01*
X3048Y-673D02*
X3311D01*
X3098Y-723D02*
X3333D01*
X3117Y-1007D02*
X3337D01*
X3163Y-788D02*
X3383D01*
X3347D02*
Y-736D01*
X3148Y-773D02*
X3437D01*
X3018Y-642D02*
X3163Y-788D01*
X3197D02*
Y-639D01*
X3233Y-645D02*
X3278D01*
X3247Y-788D02*
Y-645D01*
X3297Y-788D02*
Y-643D01*
X3310Y-657D02*
Y-640D01*
X2738Y-223D02*
X2773D01*
X2633Y-123D02*
X2773D01*
X2709Y-173D02*
X2773D01*
X2747Y-273D02*
X2773D01*
Y-338D02*
Y-116D01*
X2647Y-128D02*
Y-5D01*
X2747Y-273D02*
Y-5D01*
X2597Y-116D02*
Y-5D01*
X2797Y-116D02*
Y-5D01*
X2847Y-116D02*
Y-5D01*
X2897Y-116D02*
Y-9D01*
X2947Y-116D02*
Y-10D01*
X2913D02*
X3008D01*
X2997Y-116D02*
Y-10D01*
X3153Y-623D02*
X3167D01*
X3093Y-123D02*
X3141D01*
X3309Y-173D02*
X3373D01*
X3338Y-223D02*
X3373D01*
X3347Y-273D02*
X3373D01*
X2773Y-116D02*
X3093D01*
X434Y-23D02*
X4635D01*
X429Y-73D02*
X4691D01*
X3093Y-147D02*
Y-116D01*
X3297Y-160D02*
Y-5D01*
X3147Y-121D02*
Y-5D01*
X3233Y-123D02*
X3373D01*
X3247Y-128D02*
Y-5D01*
X3497Y-856D02*
Y-833D01*
X3460Y-820D02*
X3576Y-936D01*
X3463Y-823D02*
X3487D01*
X3563Y-923D02*
X3587D01*
X3513Y-873D02*
X3537D01*
X3547Y-906D02*
Y-883D01*
X3424Y-760D02*
X3601Y-936D01*
X3397Y-788D02*
Y-759D01*
X3412Y-760D02*
X3424D01*
X3447Y-808D02*
Y-783D01*
X3747Y-771D02*
Y-627D01*
X3647Y-671D02*
Y-645D01*
X3697Y-721D02*
Y-645D01*
X3981Y-1010D02*
X4485D01*
X3989Y-1023D02*
X4498D01*
X3748Y-773D02*
X4037D01*
X3766Y-790D02*
X4054D01*
X3997Y-1039D02*
Y-1010D01*
X4007Y-1073D02*
X4548D01*
X4013Y-760D02*
X4024D01*
X4054Y-790D01*
X3618Y-642D02*
X3766Y-790D01*
X3797D02*
Y-639D01*
X3648Y-673D02*
X3911D01*
X3698Y-723D02*
X3933D01*
X3847Y-790D02*
Y-645D01*
X3897Y-790D02*
Y-643D01*
X3947Y-790D02*
Y-736D01*
X3997Y-790D02*
Y-759D01*
X3642Y-645D02*
X3688D01*
X3373Y-338D02*
Y-116D01*
X3833Y-645D02*
X3878D01*
X3693Y-123D02*
X3741D01*
X3753Y-623D02*
X3767D01*
X3397Y-116D02*
Y-5D01*
X3373Y-116D02*
X3693D01*
X3497D02*
Y-9D01*
X3512Y-10D02*
X3608D01*
X3693Y-147D02*
Y-116D01*
X3897Y-160D02*
Y-5D01*
X3547Y-116D02*
Y-10D01*
X3597Y-116D02*
Y-10D01*
X3847Y-128D02*
Y-5D01*
X3910Y-657D02*
Y-640D01*
X3833Y-123D02*
X3973D01*
X3909Y-173D02*
X3973D01*
X3938Y-223D02*
X3973D01*
X3947Y-273D02*
X3973D01*
Y-338D02*
Y-116D01*
X3947Y-273D02*
Y-5D01*
X3973Y-116D02*
X4293D01*
X3997D02*
Y-5D01*
X4097Y-116D02*
Y-9D01*
X4113Y-10D02*
X4208D01*
X4147Y-116D02*
Y-10D01*
X2492Y225D02*
X2828D01*
X2439Y-5D02*
X2881D01*
X2510Y277D02*
X2810D01*
X2494Y227D02*
X2826D01*
X2697Y-160D02*
Y-5D01*
X2810Y283D02*
Y318D01*
X2647Y225D02*
Y360D01*
X2697Y225D02*
Y399D01*
X2510Y327D02*
X2810D01*
X2747Y225D02*
Y700D01*
X2797Y225D02*
Y402D01*
X2818Y357D02*
Y375D01*
X3047Y-116D02*
Y-5D01*
X3092Y225D02*
X3428D01*
X3039Y-5D02*
X3481D01*
X3097Y-144D02*
Y-5D01*
X3197Y-116D02*
Y-5D01*
X3110Y277D02*
X3410D01*
X3094Y227D02*
X3426D01*
X3110Y327D02*
X3410D01*
X3247Y225D02*
Y360D01*
X3297Y225D02*
Y399D01*
X3110Y283D02*
Y318D01*
X3197Y225D02*
Y346D01*
X3147Y225D02*
Y352D01*
X2675Y377D02*
X2816D01*
X2408Y627D02*
X2858D01*
X2727Y477D02*
X2773D01*
X2714Y427D02*
X2784D01*
X2721Y527D02*
X2778D01*
X2693Y577D02*
X2802D01*
X2697Y573D02*
Y700D01*
X2797Y570D02*
Y700D01*
X2597Y626D02*
Y700D01*
X2647Y612D02*
Y700D01*
X2847Y621D02*
Y700D01*
X3047Y598D02*
Y700D01*
X2897Y642D02*
Y700D01*
X2997Y633D02*
Y700D01*
X2947Y645D02*
Y700D01*
X3097Y368D02*
Y379D01*
X3091Y377D02*
X3099D01*
X3064Y577D02*
X3081D01*
X3275Y377D02*
X3416D01*
X3293Y577D02*
X3402D01*
X3008Y627D02*
X3458D01*
X-1300Y700D02*
X9900D01*
X-1300Y677D02*
X9900D01*
X3097Y593D02*
Y700D01*
X3147Y620D02*
Y700D01*
X3247Y613D02*
Y700D01*
X3197Y626D02*
Y700D01*
X3347Y-273D02*
Y-5D01*
X3447Y-116D02*
Y-5D01*
X3697Y-144D02*
Y-5D01*
X3747Y-121D02*
Y-5D01*
X3647Y-116D02*
Y-5D01*
X3347Y225D02*
Y700D01*
X3397Y225D02*
Y402D01*
X3410Y283D02*
Y318D01*
X3747Y225D02*
Y352D01*
X3418Y357D02*
Y375D01*
X3710Y283D02*
Y318D01*
X3692Y225D02*
X4028D01*
X3639Y-5D02*
X4081D01*
X3710Y277D02*
X4010D01*
X3694Y227D02*
X4026D01*
X3797Y-116D02*
Y-5D01*
X4047Y-116D02*
Y-5D01*
X4010Y283D02*
Y318D01*
X3797Y225D02*
Y346D01*
X3847Y225D02*
Y359D01*
X3710Y327D02*
X4010D01*
X3897Y225D02*
Y399D01*
X3947Y225D02*
Y700D01*
X3997Y225D02*
Y402D01*
X4018Y357D02*
Y375D01*
X3314Y427D02*
X3384D01*
X3327Y477D02*
X3373D01*
X3321Y527D02*
X3378D01*
X3697Y368D02*
Y379D01*
X3664Y577D02*
X3681D01*
X3691Y377D02*
X3699D01*
X3297Y573D02*
Y700D01*
X3397Y570D02*
Y700D01*
X3447Y621D02*
Y700D01*
X3497Y642D02*
Y700D01*
X3647Y598D02*
Y700D01*
X3697Y593D02*
Y700D01*
X3547Y645D02*
Y700D01*
X3747Y620D02*
Y700D01*
X3597Y633D02*
Y700D01*
X3875Y377D02*
X4016D01*
X3927Y477D02*
X3973D01*
X3914Y427D02*
X3984D01*
X3921Y527D02*
X3978D01*
X3893Y577D02*
X4002D01*
X3847Y613D02*
Y700D01*
X3897Y573D02*
Y700D01*
X3797Y626D02*
Y700D01*
X3608Y627D02*
X4058D01*
X3997Y570D02*
Y700D01*
X4047Y621D02*
Y700D01*
X4147Y645D02*
Y700D01*
X4097Y642D02*
Y700D01*
X4297Y-2400D02*
Y-2197D01*
X4347Y-2400D02*
Y-2219D01*
X4197Y-2400D02*
Y-2163D01*
X4247Y-2400D02*
Y-2157D01*
X4497Y-2400D02*
Y-2215D01*
X4547Y-2400D02*
Y-2190D01*
X4397Y-2400D02*
Y-2229D01*
X4447Y-2400D02*
Y-2228D01*
X4597Y-2400D02*
Y-2146D01*
X4647Y-2400D02*
Y-2043D01*
X4797Y-2400D02*
Y-1516D01*
X4847Y-2400D02*
Y-1529D01*
X4697Y-2400D02*
Y-1530D01*
X4747Y-2400D02*
Y-1530D01*
X5197Y-2400D02*
Y-2229D01*
X5247Y-2400D02*
Y-2221D01*
X5097Y-2400D02*
Y-2213D01*
X5147Y-2400D02*
Y-2227D01*
X5547Y-2400D02*
Y-2229D01*
X5597Y-2400D02*
Y-2228D01*
X5297Y-2400D02*
Y-2200D01*
X5497Y-2400D02*
Y-2219D01*
X4897Y-2400D02*
Y-1526D01*
X4947Y-2400D02*
Y-1508D01*
X4997Y-2400D02*
Y-2138D01*
X5047Y-2400D02*
Y-2186D01*
X5347Y-2400D02*
Y-2163D01*
X5397Y-2400D02*
Y-2157D01*
X5447Y-2400D02*
Y-2197D01*
X4614Y-2123D02*
X4986D01*
X4193Y-1823D02*
X4257D01*
X4618Y-1873D02*
X4982D01*
X4650Y-2023D02*
X4950D01*
X4639Y-2073D02*
X4961D01*
X4651Y-1973D02*
X4949D01*
X4641Y-1923D02*
X4959D01*
X4497Y-1774D02*
Y-1530D01*
X4447Y-1761D02*
Y-1530D01*
X4440D02*
X4779D01*
X4597Y-1843D02*
Y-1530D01*
X4647Y-1946D02*
Y-1530D01*
X4547Y-1799D02*
Y-1530D01*
X4779Y-1523D02*
X4816D01*
X4779Y-1530D02*
Y-1507D01*
X4473Y-2223D02*
X5127D01*
X5239D02*
X5511D01*
X4577Y-1823D02*
X5023D01*
X4570Y-2173D02*
X5030D01*
X5623Y-2223D02*
X6277D01*
X5343Y-1823D02*
X5407D01*
X5336Y-2173D02*
X5414D01*
X4494Y-1773D02*
X5106D01*
X4990Y-1473D02*
X5590D01*
X4911Y-1523D02*
X5590D01*
X5260Y-1773D02*
X5490D01*
X5590Y-1530D02*
X5929D01*
X5597Y-1761D02*
Y-1530D01*
X5747Y-2400D02*
Y-2146D01*
X6197Y-2400D02*
Y-2186D01*
X5647Y-2400D02*
Y-2215D01*
X5697Y-2400D02*
Y-2190D01*
X6347Y-2400D02*
Y-2229D01*
X6397Y-2400D02*
Y-2221D01*
X6247Y-2400D02*
Y-2213D01*
X6297Y-2400D02*
Y-2227D01*
X5897Y-2400D02*
Y-1530D01*
X5947Y-2400D02*
Y-1516D01*
X5797Y-2400D02*
Y-2043D01*
X5847Y-2400D02*
Y-1530D01*
X6097Y-2400D02*
Y-1508D01*
X6147Y-2400D02*
Y-2138D01*
X5997Y-2400D02*
Y-1529D01*
X6047Y-2400D02*
Y-1526D01*
X6747Y-2400D02*
Y-2233D01*
X6797Y-2400D02*
Y-2234D01*
X6447Y-2400D02*
Y-2200D01*
X6697Y-2400D02*
Y-2218D01*
X7047Y-2400D02*
Y-2218D01*
X7097Y-2400D02*
Y-2233D01*
X6847Y-2400D02*
Y-2220D01*
X6897Y-2400D02*
Y-2189D01*
X6497Y-2400D02*
Y-2163D01*
X6547Y-2400D02*
Y-2092D01*
X6947Y-2400D02*
Y-2118D01*
X6997Y-2400D02*
Y-2184D01*
X6597Y-2400D02*
Y-2100D01*
X6647Y-2400D02*
Y-2184D01*
X5764Y-2123D02*
X6136D01*
X5720Y-2173D02*
X6180D01*
X5789Y-2073D02*
X6111D01*
X5768Y-1873D02*
X6132D01*
X5801Y-1973D02*
X6099D01*
X5800Y-2023D02*
X6100D01*
X5791Y-1923D02*
X6109D01*
X6567Y-1973D02*
X6590D01*
X5697Y-1799D02*
Y-1530D01*
X5727Y-1823D02*
X6173D01*
X5647Y-1774D02*
Y-1530D01*
X5644Y-1773D02*
X6256D01*
X5797Y-1946D02*
Y-1530D01*
X6147Y-1851D02*
Y-1465D01*
X5747Y-1843D02*
Y-1530D01*
X5929Y-1523D02*
X5966D01*
X5929Y-1530D02*
Y-1507D01*
X6486Y-2173D02*
X6636D01*
X6389Y-2223D02*
X6708D01*
X6555Y-2073D02*
X6591D01*
X6530Y-2123D02*
X6605D01*
X6914Y-2173D02*
X6986D01*
X6842Y-2223D02*
X7058D01*
X6566Y-2023D02*
X6590D01*
X6945Y-2123D02*
X6955D01*
X6557Y-1923D02*
X6592D01*
X6534Y-1873D02*
X6607D01*
X6493Y-1823D02*
X6641D01*
X6410Y-1773D02*
X6722D01*
X6590Y-2050D02*
Y-1950D01*
X6943Y-1873D02*
X6957D01*
X6909Y-1823D02*
X6991D01*
X6828Y-1773D02*
X7072D01*
X4997Y-1851D02*
Y-1465D01*
X4440Y-1530D02*
Y-1190D01*
X4589D01*
X5047Y-1803D02*
Y-1266D01*
X5097Y-1776D02*
Y-1238D01*
X5147Y-1762D02*
Y-1172D01*
X4197Y-1826D02*
Y-1010D01*
X4247Y-1832D02*
Y-1010D01*
X4297Y-1792D02*
Y-1010D01*
X4347Y-1770D02*
Y-1010D01*
X4397Y-1760D02*
Y-1010D01*
X4447Y-1190D02*
Y-1010D01*
X4497Y-1190D02*
Y-1022D01*
X5029Y-1323D02*
X5590D01*
X5021Y-1423D02*
X5590D01*
X5022Y-1273D02*
X5590D01*
X5033Y-1373D02*
X5590D01*
Y-1530D02*
Y-1190D01*
X5114Y-1223D02*
X5590D01*
Y-1190D02*
X5739D01*
X5297Y-1789D02*
Y-1012D01*
X5347Y-1826D02*
Y-1012D01*
X5197Y-1760D02*
Y-1012D01*
X5247Y-1768D02*
Y-1012D01*
X5397Y-1832D02*
Y-1012D01*
X5447Y-1792D02*
Y-1012D01*
X5497Y-1770D02*
Y-1012D01*
X5597Y-1190D02*
Y-1012D01*
X5547Y-1760D02*
Y-1012D01*
X4547Y-1190D02*
Y-1072D01*
X4485Y-1010D02*
X4567Y-1092D01*
X4659Y-873D02*
X4902D01*
X4709Y-923D02*
X4952D01*
X4843Y-973D02*
X4884D01*
X4947Y-941D02*
Y-918D01*
X4697Y-910D02*
Y-843D01*
X4629D02*
X4723Y-936D01*
X4647Y-860D02*
Y-843D01*
X4629D02*
X4872D01*
X4847Y-976D02*
Y-843D01*
X4897Y-964D02*
Y-868D01*
X4747Y-936D02*
Y-843D01*
X4872D02*
X4967Y-937D01*
X4797Y-947D02*
Y-843D01*
X5147Y-1173D02*
X5730D01*
X5133Y-1012D02*
X5638D01*
X5139Y-1023D02*
X5648D01*
X5638Y-1012D02*
X5717Y-1092D01*
X5160Y-1123D02*
X5717D01*
X5147Y-1039D02*
Y-1012D01*
X5157Y-1073D02*
X5698D01*
X5347Y-793D02*
Y-379D01*
X5397Y-793D02*
Y-387D01*
X4995Y-655D02*
X5133Y-793D01*
X5297D02*
Y-353D01*
X5597Y-793D02*
Y-378D01*
X5647Y-793D02*
Y-387D01*
X5447Y-793D02*
Y-379D01*
X5497Y-793D02*
Y-351D01*
X5547Y-793D02*
Y-349D01*
X6197Y-1803D02*
Y-1266D01*
X6247Y-1776D02*
Y-1238D01*
X6447Y-1789D02*
Y-1220D01*
X6297Y-1762D02*
Y-1220D01*
X6397Y-1768D02*
Y-1220D01*
X5647Y-1190D02*
Y-1022D01*
X5697Y-1190D02*
Y-1072D01*
X6347Y-1760D02*
Y-1220D01*
X6497Y-1826D02*
Y-1220D01*
X6297Y-990D02*
Y-338D01*
X6547Y-1897D02*
Y-1220D01*
X6597Y-1900D02*
Y-1220D01*
X6647Y-1816D02*
Y-1220D01*
X6266D02*
X6750D01*
X6697Y-1782D02*
Y-1220D01*
X6747Y-1767D02*
Y-1220D01*
X6797Y-1766D02*
Y-1210D01*
X6847Y-1780D02*
Y-1171D01*
X6266Y-990D02*
X6702D01*
X6831Y-1187D02*
X7063Y-955D01*
X6947Y-1882D02*
Y-1071D01*
X6997Y-1816D02*
Y-1021D01*
X6897Y-1811D02*
Y-1121D01*
X7047Y-1782D02*
Y-971D01*
X7097Y-1767D02*
Y-959D01*
X5761Y-825D02*
X5873Y-936D01*
X5897Y-936D02*
Y-387D01*
X5947Y-947D02*
Y-381D01*
X5993Y-973D02*
X6034D01*
X6147Y-936D02*
Y-387D01*
X6197Y-945D02*
Y-382D01*
X5797Y-860D02*
Y-346D01*
X5847Y-910D02*
Y-376D01*
X5697Y-793D02*
Y-380D01*
X5747Y-813D02*
Y-354D01*
X5997Y-976D02*
Y-357D01*
X6347Y-990D02*
Y-373D01*
X6047Y-964D02*
Y-342D01*
X6097Y-941D02*
Y-375D01*
X6247Y-973D02*
Y-360D01*
X6247Y-973D02*
X6720D01*
X5859Y-923D02*
X6770D01*
X5809Y-873D02*
X6820D01*
X5759Y-823D02*
X6870D01*
X6397Y-990D02*
Y-386D01*
X6447Y-990D02*
Y-383D01*
X6702Y-990D02*
X6934Y-759D01*
X7063Y-955D02*
X7081D01*
X6597Y-990D02*
Y110D01*
X6647Y-990D02*
Y110D01*
X6497Y-990D02*
Y-363D01*
X6547Y-990D02*
Y-313D01*
X6697Y-990D02*
Y90D01*
X6747Y-945D02*
Y40D01*
X6797Y-895D02*
Y-10D01*
X6897Y-795D02*
Y-110D01*
X6847Y-845D02*
Y-60D01*
X7397Y-2400D02*
Y-2218D01*
X7447Y-2400D02*
Y-2233D01*
X7147Y-2400D02*
Y-2234D01*
X7197Y-2400D02*
Y-2220D01*
X7747Y-2400D02*
Y-2218D01*
X7797Y-2400D02*
Y-2233D01*
X7497Y-2400D02*
Y-2234D01*
X7547Y-2400D02*
Y-2220D01*
X7247Y-2400D02*
Y-2189D01*
X7297Y-2400D02*
Y-2118D01*
X7647Y-2400D02*
Y-2118D01*
X7697Y-2400D02*
Y-2184D01*
X7347Y-2400D02*
Y-2184D01*
X7597Y-2400D02*
Y-2189D01*
X8147Y-2400D02*
Y-2233D01*
X8197Y-2400D02*
Y-2234D01*
X7847Y-2400D02*
Y-2234D01*
X7897Y-2400D02*
Y-2220D01*
X8547Y-2400D02*
Y-2234D01*
X8597Y-2400D02*
Y-2220D01*
X8247Y-2400D02*
Y-2220D01*
X8497Y-2400D02*
Y-2233D01*
X8047Y-2400D02*
Y-2184D01*
X8097Y-2400D02*
Y-2218D01*
X7947Y-2400D02*
Y-2189D01*
X7997Y-2400D02*
Y-2118D01*
X8447Y-2400D02*
Y-2218D01*
X8647Y-2400D02*
Y-2189D01*
X8297Y-2400D02*
Y-2189D01*
X8397Y-2400D02*
Y-2184D01*
X8347Y-2400D02*
Y-2118D01*
X7192Y-2223D02*
X7408D01*
X7542D02*
X7758D01*
X7295Y-2123D02*
X7305D01*
X7264Y-2173D02*
X7336D01*
X7614D02*
X7686D01*
X7645Y-2123D02*
X7655D01*
X7995D02*
X8005D01*
X7293Y-1873D02*
X7307D01*
X7259Y-1823D02*
X7341D01*
X7178Y-1773D02*
X7422D01*
X7643Y-1873D02*
X7657D01*
X7609Y-1823D02*
X7691D01*
X7528Y-1773D02*
X7772D01*
X7892Y-2223D02*
X8108D01*
X7964Y-2173D02*
X8036D01*
X8242Y-2223D02*
X8458D01*
X8592D02*
X8808D01*
X8345Y-2123D02*
X8355D01*
X8314Y-2173D02*
X8386D01*
X7993Y-1873D02*
X8007D01*
X7959Y-1823D02*
X8041D01*
X7878Y-1773D02*
X8122D01*
X8343Y-1873D02*
X8357D01*
X8309Y-1823D02*
X8391D01*
X8578Y-1773D02*
X8822D01*
X8228D02*
X8472D01*
X8797Y-2400D02*
Y-2218D01*
X8847Y-2400D02*
Y-2233D01*
X8897Y-2400D02*
Y-2234D01*
X8942Y-2223D02*
X9158D01*
X9147Y-2400D02*
Y-2218D01*
X9197Y-2400D02*
Y-2233D01*
X8947Y-2400D02*
Y-2220D01*
X8997Y-2400D02*
Y-2189D01*
X8697Y-2400D02*
Y-2118D01*
X8747Y-2400D02*
Y-2184D01*
X8664Y-2173D02*
X8736D01*
X9047Y-2400D02*
Y-2118D01*
X9097Y-2400D02*
Y-2184D01*
X9045Y-2123D02*
X9055D01*
X9014Y-2173D02*
X9086D01*
X9247Y-2400D02*
Y-2234D01*
X9297Y-2400D02*
Y-2220D01*
X9347Y-2400D02*
Y-2189D01*
X9292Y-2223D02*
X9900D01*
X9597Y-2400D02*
Y-2160D01*
X9647Y-2400D02*
Y-2160D01*
X9547Y-2400D02*
Y-2160D01*
X9364Y-2173D02*
X9900D01*
X9397Y-2400D02*
Y-2118D01*
X9540Y-2160D02*
Y-1840D01*
Y-2160D02*
X9860D01*
X9697Y-2400D02*
Y-2160D01*
X9747Y-2400D02*
Y-2160D01*
X9797Y-2400D02*
Y-2160D01*
X9847Y-2400D02*
Y-2160D01*
X9860D02*
Y-1840D01*
X8695Y-2123D02*
X8705D01*
X9395D02*
X9540D01*
X9043Y-1873D02*
X9057D01*
X9408Y-1923D02*
X9540D01*
X9410Y-2050D02*
Y-1950D01*
X9409Y-2073D02*
X9540D01*
X9410Y-1973D02*
X9540D01*
X9410Y-2023D02*
X9540D01*
X8693Y-1873D02*
X8707D01*
X8659Y-1823D02*
X8741D01*
X8928Y-1773D02*
X9172D01*
X9393Y-1873D02*
X9540D01*
X9009Y-1823D02*
X9091D01*
X9547Y-1840D02*
Y-1793D01*
X9278Y-1773D02*
X9542D01*
X9860Y-2023D02*
X9900D01*
X9860Y-2073D02*
X9900D01*
X9540Y-1840D02*
X9571D01*
X9829D02*
X9860D01*
Y-1973D02*
X9900D01*
X9860Y-2123D02*
X9900D01*
X9860Y-1873D02*
X9900D01*
X9860Y-1923D02*
X9900D01*
X9359Y-1823D02*
X9560D01*
X9802Y-1623D02*
X9900D01*
X9847Y-1840D02*
Y-1809D01*
X9840Y-1823D02*
X9900D01*
X9842Y-1673D02*
X9900D01*
X9858Y-1773D02*
X9900D01*
X9858Y-1723D02*
X9900D01*
X7297Y-1882D02*
Y-1017D01*
X7347Y-1816D02*
Y-1017D01*
X7397Y-1782D02*
Y-1017D01*
X7447Y-1767D02*
Y-1017D01*
X7547Y-1780D02*
Y-1017D01*
X7597Y-1811D02*
Y-1017D01*
X7497Y-1766D02*
Y-1017D01*
X7897Y-1780D02*
Y-1017D01*
X7247Y-1811D02*
Y-999D01*
X7647Y-1882D02*
Y-1009D01*
X7147Y-1766D02*
Y-960D01*
X7197Y-1780D02*
Y-960D01*
X7697Y-1816D02*
Y-971D01*
X7747Y-1782D02*
Y-960D01*
X7797Y-1767D02*
Y-960D01*
X7847Y-1766D02*
Y-999D01*
X8047Y-1816D02*
Y-1017D01*
X8147Y-1767D02*
Y-1017D01*
X6140Y-1473D02*
X9541D01*
X6061Y-1523D02*
X9543D01*
X8597Y-1780D02*
Y-1017D01*
X8647Y-1811D02*
Y-1017D01*
X8197Y-1766D02*
Y-1017D01*
X8547Y-1766D02*
Y-1017D01*
X7947Y-1811D02*
Y-1017D01*
X7997Y-1882D02*
Y-1017D01*
X8097Y-1782D02*
Y-1017D01*
X8247Y-1780D02*
Y-1009D01*
X8347Y-1882D02*
Y-960D01*
X8397Y-1816D02*
Y-960D01*
X8297Y-1811D02*
Y-971D01*
X8497Y-1767D02*
Y-1017D01*
X8447Y-1782D02*
Y-999D01*
X7310Y-1017D02*
X7603D01*
X7910D02*
X8203D01*
X7045Y-973D02*
X7217D01*
X7205Y-960D02*
X7229Y-984D01*
X7113Y-960D02*
X7205D01*
X7684Y-984D02*
X7708Y-960D01*
X7713Y-960D02*
X7805D01*
X7695Y-973D02*
X7817D01*
X7805Y-960D02*
X7829Y-984D01*
X6171Y-1423D02*
X9556D01*
X6183Y-1373D02*
X9593D01*
X6172Y-1273D02*
X9544D01*
X6179Y-1323D02*
X9564D01*
X6845Y-1173D02*
X9472D01*
X6264Y-1223D02*
X9522D01*
X6945Y-1073D02*
X9372D01*
X6895Y-1123D02*
X9422D01*
X6995Y-1023D02*
X9322D01*
X8284Y-984D02*
X8308Y-960D01*
X8295Y-973D02*
X8417D01*
X8510Y-1017D02*
X8803D01*
X8313Y-960D02*
X8405D01*
X8429Y-984D01*
X8697Y-1882D02*
Y-1017D01*
X9097Y-1816D02*
Y-1017D01*
X8747Y-1816D02*
Y-1017D01*
X8797Y-1782D02*
Y-1017D01*
X9447Y-2400D02*
Y-1148D01*
X9497Y-2400D02*
Y-1198D01*
X9347Y-1811D02*
Y-1048D01*
X9397Y-1882D02*
Y-1098D01*
X8947Y-1780D02*
Y-960D01*
X8997Y-1811D02*
Y-982D01*
X8847Y-1767D02*
Y-1009D01*
X8897Y-1766D02*
Y-971D01*
X9047Y-1882D02*
Y-1013D01*
X9147Y-1782D02*
Y-1017D01*
X9197Y-1767D02*
Y-1017D01*
X9297Y-1780D02*
Y-1017D01*
X9247Y-1766D02*
Y-1017D01*
X9547Y-1699D02*
Y-1539D01*
X9597Y-1624D02*
Y-1614D01*
X9847Y-1683D02*
Y-1555D01*
X9838Y-1573D02*
X9900D01*
X9859Y-1473D02*
X9900D01*
X9857Y-1523D02*
X9900D01*
X9547Y-1445D02*
Y-1285D01*
X9597Y-1370D02*
Y-1360D01*
X9897Y-2400D02*
Y700D01*
X9900Y-2400D02*
Y700D01*
X9847Y-1429D02*
Y-1301D01*
X9844Y-1423D02*
X9900D01*
X9807Y-1373D02*
X9900D01*
X8895Y-973D02*
X8987D01*
X9317Y-1017D02*
X9540Y-1241D01*
X9080Y-1017D02*
X9317D01*
X8884Y-984D02*
X8908Y-960D01*
X8975Y-960D02*
X8999Y-984D01*
X8913Y-960D02*
X8975D01*
X9647Y-1022D02*
Y700D01*
X9697Y-1072D02*
Y700D01*
X9497Y-872D02*
Y700D01*
X9597Y-972D02*
Y700D01*
X9547Y-922D02*
Y700D01*
X9697Y-1073D02*
X9900D01*
X9811Y-1123D02*
X9900D01*
X9856Y-1273D02*
X9900D01*
X9836Y-1323D02*
X9900D01*
X9846Y-1173D02*
X9900D01*
X9859Y-1223D02*
X9900D01*
X9446Y-821D02*
X9703Y-1078D01*
X9547Y-923D02*
X9900D01*
X9447Y-823D02*
X9900D01*
X9497Y-873D02*
X9900D01*
X9797Y-1111D02*
Y700D01*
X9847Y-1175D02*
Y700D01*
X9747Y-1085D02*
Y700D01*
X9647Y-1023D02*
X9900D01*
X9597Y-973D02*
X9900D01*
X4543Y-622D02*
X4917D01*
X4353D02*
X4367D01*
X4585Y-537D02*
Y-452D01*
X4697Y-622D02*
Y-76D01*
X4747Y-622D02*
Y-88D01*
X4570Y-398D02*
Y-344D01*
X4647Y-622D02*
Y-35D01*
X4897Y-622D02*
Y-367D01*
X4947Y-627D02*
Y-367D01*
X4797Y-622D02*
Y-367D01*
X4847Y-622D02*
Y-367D01*
X4923Y-623D02*
X7010D01*
X4579Y-573D02*
X7029D01*
X4585Y-523D02*
X7048D01*
X5133Y-793D02*
X5683D01*
X5113Y-773D02*
X6920D01*
X5013Y-673D02*
X7010D01*
X5063Y-723D02*
X7026D01*
X4997Y-656D02*
Y-367D01*
X4585Y-473D02*
X7073D01*
X4581Y-423D02*
X7073D01*
X5197Y-793D02*
Y-377D01*
X5247Y-793D02*
Y-348D01*
X5047Y-706D02*
Y-356D01*
X5147Y-793D02*
Y-387D01*
X5097Y-756D02*
Y-381D01*
X4538Y-223D02*
X4748D01*
X4547Y-273D02*
X4748D01*
X4293Y-123D02*
X4341D01*
X4509Y-173D02*
X4748D01*
X4568Y-323D02*
X4748D01*
X4293Y-147D02*
Y-116D01*
X4197D02*
Y-10D01*
X4397Y-116D02*
Y-5D01*
X4433Y-123D02*
X4748D01*
Y-367D02*
Y-88D01*
X4777D01*
X4748Y-367D02*
X5028D01*
X4570Y-373D02*
X5076D01*
X5028Y-367D02*
Y-339D01*
X5208Y-373D02*
X5330D01*
X5263Y-123D02*
X5275D01*
X5028Y-115D02*
Y-87D01*
X5000D02*
X5028D01*
X5247Y-106D02*
Y-94D01*
X6224Y-373D02*
X6346D01*
X5716D02*
X5838D01*
X5970D02*
X6092D01*
X7010Y-667D02*
Y-632D01*
X7015Y-725D02*
X7028D01*
X5462Y-373D02*
X5584D01*
X6947Y-747D02*
Y-160D01*
X6997Y-726D02*
Y-197D01*
X6540Y-323D02*
X7073D01*
X6478Y-373D02*
X7073D01*
Y-474D02*
Y-316D01*
X7393D01*
Y-347D02*
Y-316D01*
X7047Y-528D02*
Y-205D01*
X7097Y-316D02*
Y-205D01*
X7147Y-316D02*
Y-205D01*
X7197Y-316D02*
Y-209D01*
X7347Y-316D02*
Y-205D01*
X7397Y-344D02*
Y-205D01*
X7247Y-316D02*
Y-210D01*
X7213D02*
X7308D01*
X7297Y-316D02*
Y-210D01*
X5517Y-123D02*
X5529D01*
X5771D02*
X5783D01*
X6025D02*
X6037D01*
X5547Y-105D02*
Y-95D01*
X5797Y-108D02*
Y-92D01*
X6047Y-112D02*
Y-88D01*
X6562Y-173D02*
X6960D01*
X6279Y-123D02*
X6291D01*
X6533D02*
X6910D01*
X7040Y-205D02*
X7181D01*
X6297Y-116D02*
Y-84D01*
X6547Y-141D02*
Y-59D01*
X6537Y-73D02*
X6860D01*
X6564Y-23D02*
X6810D01*
X4297Y-144D02*
Y-5D01*
X4347Y-121D02*
Y-5D01*
X4247Y-116D02*
Y-5D01*
X4547Y-273D02*
Y-5D01*
X4597Y-622D02*
Y-5D01*
X4447Y-128D02*
Y-5D01*
X4497Y-160D02*
Y-5D01*
X4239D02*
X4617D01*
X4347Y225D02*
Y352D01*
X4397Y225D02*
Y346D01*
X4547Y225D02*
Y700D01*
X4597Y225D02*
Y700D01*
X4447Y225D02*
Y359D01*
X4497Y225D02*
Y399D01*
X4617Y-5D02*
X4667Y-54D01*
X4292Y225D02*
X4665D01*
X4294Y227D02*
X4926D01*
X4746Y191D02*
X4787Y151D01*
X4760Y177D02*
X4833D01*
X4697Y220D02*
Y700D01*
X4747Y191D02*
Y700D01*
X4647Y225D02*
Y700D01*
X4310Y277D02*
X4976D01*
X4797Y159D02*
Y700D01*
X4847Y182D02*
Y700D01*
X4897Y199D02*
Y700D01*
X4885Y187D02*
X5005Y306D01*
X4947Y249D02*
Y700D01*
X4264Y577D02*
X4281D01*
X4291Y377D02*
X4299D01*
X4297Y368D02*
Y379D01*
X4310Y283D02*
Y318D01*
X4297Y593D02*
Y700D01*
X4197Y633D02*
Y700D01*
X4247Y598D02*
Y700D01*
X4497Y573D02*
Y700D01*
X4347Y620D02*
Y700D01*
X4447Y613D02*
Y700D01*
X4397Y626D02*
Y700D01*
X4310Y327D02*
X5034D01*
X4475Y377D02*
X7102D01*
X4514Y427D02*
X7158D01*
X5086Y340D02*
X6725D01*
X5097D02*
Y700D01*
X5147Y340D02*
Y700D01*
X4997Y299D02*
Y700D01*
X5047Y333D02*
Y700D01*
X5197Y340D02*
Y700D01*
X5247Y340D02*
Y700D01*
X5447Y340D02*
Y700D01*
X5497Y340D02*
Y700D01*
X5297Y340D02*
Y700D01*
X5397Y340D02*
Y700D01*
X5347Y340D02*
Y700D01*
X6549Y110D02*
X6677D01*
X6564Y77D02*
X6710D01*
X6572Y27D02*
X6760D01*
X6677Y110D02*
X6959Y-171D01*
X6835Y277D02*
X7073D01*
X6885Y227D02*
X7084D01*
X6847Y266D02*
Y700D01*
X6797Y315D02*
Y700D01*
X6997Y116D02*
Y700D01*
X7047Y66D02*
Y700D01*
X6897Y216D02*
Y700D01*
X6947Y166D02*
Y700D01*
X7085Y27D02*
X7126D01*
X7088Y25D02*
X7128D01*
X7035Y77D02*
X7110D01*
X6985Y127D02*
X7110D01*
X7110Y83D02*
Y118D01*
X7410Y83D02*
Y118D01*
X6806Y306D02*
X7088Y25D01*
X7097D02*
Y202D01*
X6935Y177D02*
X7116D01*
X7118Y157D02*
Y175D01*
X7391Y177D02*
X7399D01*
X7397Y168D02*
Y179D01*
X6097Y340D02*
Y700D01*
X6147Y340D02*
Y700D01*
X5997Y340D02*
Y700D01*
X6047Y340D02*
Y700D01*
X6297Y340D02*
Y700D01*
X6347Y340D02*
Y700D01*
X6197Y340D02*
Y700D01*
X6247Y340D02*
Y700D01*
X5647Y340D02*
Y700D01*
X5697Y340D02*
Y700D01*
X5547Y340D02*
Y700D01*
X5597Y340D02*
Y700D01*
X5897Y340D02*
Y700D01*
X5947Y340D02*
Y700D01*
X5747Y340D02*
Y700D01*
X5847Y340D02*
Y700D01*
X5797Y340D02*
Y700D01*
X6547Y340D02*
Y700D01*
X6597Y340D02*
Y700D01*
X6397Y340D02*
Y700D01*
X6447Y340D02*
Y700D01*
X6647Y340D02*
Y700D01*
X6777Y327D02*
X7078D01*
X6697Y340D02*
Y700D01*
X7364Y377D02*
X7381D01*
X6497Y340D02*
Y700D01*
X6747Y338D02*
Y700D01*
X7097Y370D02*
Y700D01*
X7147Y421D02*
Y700D01*
X7347Y398D02*
Y700D01*
X7397Y393D02*
Y700D01*
X7197Y442D02*
Y700D01*
X7297Y433D02*
Y700D01*
X7247Y445D02*
Y700D01*
X7638Y-423D02*
X7673D01*
X7647Y-473D02*
X7673D01*
X7393Y-323D02*
X7441D01*
X7609Y-373D02*
X7673D01*
X7533Y-323D02*
X7673D01*
X7447Y-321D02*
Y-205D01*
X7497Y-316D02*
Y-205D01*
X7647Y-473D02*
Y-205D01*
X7673Y-474D02*
Y-316D01*
X7547Y-328D02*
Y-205D01*
X7597Y-360D02*
Y-205D01*
X8238Y-423D02*
X8273D01*
X8247Y-473D02*
X8273D01*
X8133Y-323D02*
X8273D01*
X8209Y-373D02*
X8273D01*
X7993Y-347D02*
Y-316D01*
X7997Y-344D02*
Y-205D01*
X7993Y-323D02*
X8041D01*
X8247Y-473D02*
Y-205D01*
X8273Y-474D02*
Y-316D01*
X8047Y-321D02*
Y-205D01*
X8197Y-360D02*
Y-205D01*
X8147Y-328D02*
Y-205D01*
X7697Y-316D02*
Y-205D01*
X7747Y-316D02*
Y-205D01*
X7339D02*
X7781D01*
X7673Y-316D02*
X7993D01*
X7797D02*
Y-209D01*
X7847Y-316D02*
Y-210D01*
X7897Y-316D02*
Y-210D01*
X7813D02*
X7908D01*
X7394Y27D02*
X7726D01*
X7392Y25D02*
X7728D01*
X7710Y83D02*
Y118D01*
X7410Y77D02*
X7710D01*
X7947Y-316D02*
Y-205D01*
X8297Y-316D02*
Y-205D01*
X8273Y-316D02*
X8593D01*
X6572Y-223D02*
X9900D01*
X6565Y-273D02*
X9900D01*
X8397Y-316D02*
Y-209D01*
X8447Y-316D02*
Y-210D01*
X8497Y-316D02*
Y-210D01*
X8413D02*
X8508D01*
X7992Y25D02*
X8328D01*
X7939Y-205D02*
X8381D01*
X8010Y77D02*
X8310D01*
X7994Y27D02*
X8326D01*
X8097Y-316D02*
Y-205D01*
X8347Y-316D02*
Y-205D01*
X8310Y83D02*
Y118D01*
X8838Y-423D02*
X8873D01*
X8847Y-473D02*
X8873D01*
X8593Y-323D02*
X8641D01*
X8809Y-373D02*
X8873D01*
X8593Y-347D02*
Y-316D01*
X8597Y-344D02*
Y-205D01*
X8747Y-328D02*
Y-205D01*
X8847Y-473D02*
Y-205D01*
X8873Y-474D02*
Y-316D01*
X8797Y-360D02*
Y-205D01*
X9193Y-347D02*
Y-316D01*
X9479Y-773D02*
X9900D01*
X9470Y-598D02*
Y-544D01*
Y-573D02*
X9900D01*
X9485Y-737D02*
Y-652D01*
Y-723D02*
X9900D01*
X9481Y-623D02*
X9900D01*
X9485Y-673D02*
X9900D01*
X9409Y-373D02*
X9900D01*
X9197Y-344D02*
Y-158D01*
X9333Y-323D02*
X9900D01*
X9438Y-423D02*
X9900D01*
X9468Y-523D02*
X9900D01*
X9447Y-473D02*
X9900D01*
X8647Y-321D02*
Y-205D01*
X8697Y-316D02*
Y-205D01*
X8539D02*
X8981D01*
X8733Y-323D02*
X8873D01*
X8897Y-316D02*
Y-205D01*
X8997Y-316D02*
Y-209D01*
X8547Y-316D02*
Y-205D01*
X8594Y27D02*
X8926D01*
X8592Y25D02*
X8928D01*
X8947Y-316D02*
Y-205D01*
X8610Y83D02*
Y118D01*
X8610Y77D02*
X8910D01*
X8910Y83D02*
Y118D01*
X9047Y-316D02*
Y-210D01*
X8873Y-316D02*
X9193D01*
X9097D02*
Y-210D01*
X9013D02*
X9108D01*
X9147Y-316D02*
Y-202D01*
X9193Y-323D02*
X9241D01*
X9209Y-123D02*
X9900D01*
X9187Y-173D02*
X9900D01*
X9194Y27D02*
X9900D01*
X9210Y-107D02*
Y-72D01*
Y-73D02*
X9900D01*
X9197Y-22D02*
Y32D01*
X9197Y-23D02*
X9900D01*
X9210Y77D02*
X9900D01*
X7497Y25D02*
Y146D01*
X7547Y25D02*
Y159D01*
X7447Y25D02*
Y152D01*
X7410Y127D02*
X7710D01*
X7718Y157D02*
Y175D01*
X7575Y177D02*
X7716D01*
X7997Y168D02*
Y179D01*
X7597Y25D02*
Y199D01*
X7614Y227D02*
X7684D01*
X7647Y25D02*
Y700D01*
X7697Y25D02*
Y202D01*
X7627Y277D02*
X7673D01*
X8010Y83D02*
Y118D01*
X8047Y25D02*
Y152D01*
X7991Y177D02*
X7999D01*
X8010Y127D02*
X8310D01*
X8097Y25D02*
Y146D01*
X8147Y25D02*
Y159D01*
X8318Y157D02*
Y175D01*
X8175Y177D02*
X8316D01*
X8197Y25D02*
Y199D01*
X8247Y25D02*
Y700D01*
X8214Y227D02*
X8284D01*
X8297Y25D02*
Y202D01*
X7308Y427D02*
X7758D01*
X7621Y327D02*
X7678D01*
X7593Y377D02*
X7702D01*
X7497Y426D02*
Y700D01*
X7964Y377D02*
X7981D01*
X7597Y373D02*
Y700D01*
X7697Y370D02*
Y700D01*
X7447Y420D02*
Y700D01*
X7547Y413D02*
Y700D01*
X7747Y421D02*
Y700D01*
X7947Y398D02*
Y700D01*
X7797Y442D02*
Y700D01*
X7897Y433D02*
Y700D01*
X7847Y445D02*
Y700D01*
X7908Y427D02*
X8358D01*
X4527Y477D02*
X9900D01*
X8227Y277D02*
X8273D01*
X8221Y327D02*
X8278D01*
X8193Y377D02*
X8302D01*
X7997Y393D02*
Y700D01*
X4521Y527D02*
X9900D01*
X4208Y627D02*
X9900D01*
X4493Y577D02*
X9900D01*
X8197Y373D02*
Y700D01*
X8297Y370D02*
Y700D01*
X8047Y420D02*
Y700D01*
X8147Y413D02*
Y700D01*
X8097Y426D02*
Y700D01*
X8647Y25D02*
Y152D01*
X8697Y25D02*
Y146D01*
X8591Y177D02*
X8599D01*
X8610Y127D02*
X8910D01*
X8747Y25D02*
Y159D01*
X8775Y177D02*
X8916D01*
X8918Y157D02*
Y175D01*
X8597Y168D02*
Y179D01*
X8797Y25D02*
Y199D01*
X8847Y25D02*
Y700D01*
X8827Y277D02*
X8873D01*
X8897Y25D02*
Y202D01*
X8814Y227D02*
X8884D01*
X9210Y83D02*
Y118D01*
X9210Y127D02*
X9900D01*
X9197Y168D02*
Y179D01*
X9191Y177D02*
X9199D01*
X9247Y-321D02*
Y152D01*
X9347Y-328D02*
Y159D01*
X9297Y-316D02*
Y146D01*
X9375Y177D02*
X9900D01*
X9397Y-360D02*
Y199D01*
X9447Y-473D02*
Y700D01*
X9414Y227D02*
X9900D01*
X9427Y277D02*
X9900D01*
X8564Y377D02*
X8581D01*
X8497Y433D02*
Y700D01*
X8547Y398D02*
Y700D01*
X8821Y327D02*
X8878D01*
X8793Y377D02*
X8902D01*
X8347Y421D02*
Y700D01*
X8597Y393D02*
Y700D01*
X8397Y442D02*
Y700D01*
X8447Y445D02*
Y700D01*
X8797Y373D02*
Y700D01*
X8897Y370D02*
Y700D01*
X8647Y420D02*
Y700D01*
X8747Y413D02*
Y700D01*
X8697Y426D02*
Y700D01*
X8508Y427D02*
X8958D01*
X9164Y377D02*
X9181D01*
X9097Y433D02*
Y700D01*
X9108Y427D02*
X9900D01*
X9393Y377D02*
X9900D01*
X9421Y327D02*
X9900D01*
X8947Y421D02*
Y700D01*
X9147Y398D02*
Y700D01*
X8997Y442D02*
Y700D01*
X9047Y445D02*
Y700D01*
X9197Y393D02*
Y700D01*
X9397Y373D02*
Y700D01*
X9247Y420D02*
Y700D01*
X9347Y413D02*
Y700D01*
X9297Y426D02*
Y700D01*
D11*
X-945Y-974D02*
Y-850D01*
Y-974D02*
X-814Y-1106D01*
X-940Y-1360D02*
X-814Y-1232D01*
Y-1106D01*
X-559D02*
Y-860D01*
X-550Y-850D01*
X-755D02*
X-550D01*
X-445D01*
X-559Y-1106D02*
X-464Y-1201D01*
Y-1305D02*
Y-1201D01*
X-551Y-1495D02*
X-464D01*
X-686Y-1360D02*
X-551Y-1495D01*
X-236Y-1535D02*
Y-1400D01*
X-350Y-1650D02*
X-236Y-1535D01*
X-940Y-1560D02*
Y-1360D01*
Y-1560D02*
X-850Y-1650D01*
X-350D01*
X-255Y-1205D02*
Y-850D01*
X-350Y-1300D02*
X-255Y-1205D01*
X-350Y-1450D02*
Y-1300D01*
X-395Y-1495D02*
X-350Y-1450D01*
X-464Y-1495D02*
X-395D01*
X300Y-1650D02*
X800D01*
X210Y-1560D02*
X300Y-1650D01*
X210Y-1560D02*
Y-1360D01*
X800Y-1650D02*
X915Y-1535D01*
Y-1400D01*
X337Y-1232D02*
Y-1106D01*
X210Y-1360D02*
X337Y-1232D01*
X205Y-974D02*
X337Y-1106D01*
X205Y-974D02*
Y-850D01*
X686Y-1495D02*
X755D01*
X800Y-1450D01*
Y-1300D01*
X895Y-1205D01*
Y-850D01*
X464Y-1360D02*
X599Y-1495D01*
X686D01*
Y-1305D02*
Y-1201D01*
X591Y-1106D02*
X686Y-1201D01*
X600Y-850D02*
X705D01*
X395D02*
X600D01*
X591Y-860D02*
X600Y-850D01*
X591Y-1106D02*
Y-860D01*
X2333Y327D02*
Y486D01*
Y327D02*
X2360Y300D01*
X2933Y327D02*
Y486D01*
Y327D02*
X2960Y300D01*
X3533Y327D02*
Y486D01*
Y327D02*
X3560Y300D01*
X4133Y327D02*
Y486D01*
Y327D02*
X4160Y300D01*
X2360Y110D02*
X2960D01*
X3560D01*
X4160D01*
X3187Y486D02*
Y637D01*
X3200Y650D01*
X3787Y486D02*
Y637D01*
X3800Y650D01*
X3200D02*
X3800D01*
X2587Y486D02*
Y650D01*
X3200D01*
X2420Y-450D02*
X2465Y-495D01*
X2260Y-450D02*
X2420D01*
X2333D02*
Y-276D01*
X2587D02*
X2655Y-344D01*
Y-495D02*
Y-344D01*
X3255Y-495D02*
Y-344D01*
X3187Y-276D02*
X3255Y-344D01*
X2933Y-450D02*
Y-276D01*
X2860Y-450D02*
X3020D01*
X3065Y-495D01*
X3855D02*
Y-344D01*
X3787Y-276D02*
X3855Y-344D01*
X3533Y-450D02*
Y-276D01*
X3460Y-450D02*
X3620D01*
X3665Y-495D01*
X4455Y-495D02*
Y-344D01*
X4387Y-276D02*
X4455Y-344D01*
X4133Y-450D02*
Y-276D01*
X4060Y-450D02*
X4220D01*
X4265Y-495D01*
X7320Y-650D02*
X7365Y-695D01*
X7160Y-650D02*
X7320D01*
X7160Y-549D02*
X7233Y-476D01*
X7160Y-650D02*
Y-549D01*
X7760Y-650D02*
Y-549D01*
X7833Y-476D01*
X7760Y-650D02*
X7920D01*
X7965Y-695D01*
X8360Y-650D02*
Y-549D01*
X8433Y-476D01*
X8360Y-650D02*
X8520D01*
X8565Y-695D01*
X8960Y-650D02*
Y-549D01*
X9033Y-476D01*
X8960Y-650D02*
X9120D01*
X9165Y-695D01*
X7487Y-476D02*
X7555Y-544D01*
Y-695D02*
Y-544D01*
X8155Y-695D02*
Y-544D01*
X8087Y-476D02*
X8155Y-544D01*
X8755Y-695D02*
Y-544D01*
X8687Y-476D02*
X8755Y-544D01*
X9355Y-695D02*
Y-544D01*
X9287Y-476D02*
X9355Y-544D01*
X9696Y-1750D02*
X9700Y-1746D01*
X8265Y-840D02*
X8448D01*
X8510Y-902D01*
X8803D01*
X8865Y-840D01*
X8203Y-902D02*
X8265Y-840D01*
X7910Y-902D02*
X8203D01*
X7848Y-840D02*
X7910Y-902D01*
X7760Y-840D02*
X7848D01*
X7603Y-902D02*
X7665Y-840D01*
X7310Y-902D02*
X7603D01*
X7248Y-840D02*
X7310Y-902D01*
X7665Y-840D02*
X7760D01*
X8865Y-840D02*
X9018D01*
X9080Y-902D01*
X9364D01*
X7160Y-840D02*
X7248D01*
X9364Y-902D02*
X9700Y-1238D01*
X9060Y-90D02*
X9060Y-90D01*
X9033Y127D02*
X9060Y100D01*
X9033Y127D02*
Y286D01*
X8433Y127D02*
Y286D01*
Y127D02*
X8460Y100D01*
X7833Y127D02*
Y286D01*
Y127D02*
X7860Y100D01*
X7233Y127D02*
Y286D01*
Y127D02*
X7260Y100D01*
X9098Y475D02*
X9287Y286D01*
X8087Y286D02*
Y463D01*
X8075Y475D02*
X8087Y463D01*
X8687Y286D02*
Y462D01*
X8700Y475D01*
X8075D02*
X8700D01*
X9098D01*
X7040Y-90D02*
X7260D01*
X9060D01*
X3800Y650D02*
X4387D01*
Y486D02*
Y650D01*
X7487Y286D02*
Y475D01*
X8075D01*
X4387Y650D02*
X4600D01*
X4775Y475D01*
X7487D01*
X6725Y225D02*
X7040Y-90D01*
X4888Y27D02*
X5086Y225D01*
X6725D01*
X4160Y110D02*
X4665D01*
X4748Y27D01*
X4888D01*
X4852Y-227D02*
X4888D01*
X4625Y0D02*
X4852Y-227D01*
X6140Y-1106D02*
X6750D01*
X7015Y-840D01*
X7160D01*
X2564Y-1360D02*
X2745D01*
X2880Y-1225D01*
Y-955D01*
X2652Y-728D02*
X2880Y-955D01*
X2652Y-728D02*
Y-497D01*
X2655Y-495D01*
X2150Y553D02*
X2248Y650D01*
X2587D01*
X2150Y0D02*
Y553D01*
Y0D02*
X4625D01*
X895Y-850D02*
Y-722D01*
X1617Y0D01*
X2150D01*
X-445Y-850D02*
Y-720D01*
X-383Y-657D01*
X333D01*
X397Y-722D01*
Y-848D02*
Y-722D01*
X395Y-850D02*
X397Y-848D01*
D15*
X0Y0D02*
D03*
D16*
X2587Y486D02*
D03*
X2333D02*
D03*
X2587Y-276D02*
D03*
X3187Y486D02*
D03*
X2933D02*
D03*
X3187Y-276D02*
D03*
X3787Y486D02*
D03*
X3533D02*
D03*
X3787Y-276D02*
D03*
X4387Y486D02*
D03*
X4133D02*
D03*
X4387Y-276D02*
D03*
X7487Y286D02*
D03*
X7233D02*
D03*
X7487Y-476D02*
D03*
X8087Y286D02*
D03*
X7833D02*
D03*
X8087Y-476D02*
D03*
X8687Y286D02*
D03*
X8433D02*
D03*
X8687Y-476D02*
D03*
X9287Y286D02*
D03*
X9033Y286D02*
D03*
X9287Y-476D02*
D03*
D17*
X2333Y-276D02*
D03*
X2933Y-276D02*
D03*
X3533D02*
D03*
X4133Y-276D02*
D03*
X7233Y-476D02*
D03*
X7833Y-476D02*
D03*
X8433D02*
D03*
X9033D02*
D03*
D18*
X4888Y27D02*
D03*
X5142D02*
D03*
X5396D02*
D03*
X5650D02*
D03*
X5904D02*
D03*
X6158D02*
D03*
X6412D02*
D03*
Y-227D02*
D03*
X5904D02*
D03*
X5396D02*
D03*
X5142D02*
D03*
X5650D02*
D03*
X6158D02*
D03*
X9700Y-1238D02*
D03*
Y-1492D02*
D03*
Y-1746D02*
D03*
X1200Y-1238D02*
D03*
Y-1492D02*
D03*
Y-1746D02*
D03*
D19*
X4888Y-227D02*
D03*
D20*
X9225Y-2000D02*
D03*
X8875D02*
D03*
X8525D02*
D03*
X8175D02*
D03*
X7825D02*
D03*
X7475D02*
D03*
X7125D02*
D03*
X6775D02*
D03*
D21*
X9700D02*
D03*
X1200D02*
D03*
D22*
X591Y-1106D02*
D03*
X464Y-1360D02*
D03*
X337Y-1106D02*
D03*
X-814D02*
D03*
X-686Y-1360D02*
D03*
X-559Y-1106D02*
D03*
X6140D02*
D03*
X6013Y-1360D02*
D03*
X5887Y-1106D02*
D03*
X4737D02*
D03*
X4863Y-1360D02*
D03*
X4990Y-1106D02*
D03*
X3840D02*
D03*
X3713Y-1360D02*
D03*
X3587Y-1106D02*
D03*
X2436D02*
D03*
X2564Y-1360D02*
D03*
X2691Y-1106D02*
D03*
D23*
X17Y-1994D02*
D03*
X783D02*
D03*
X-367D02*
D03*
X-1133D02*
D03*
X5567D02*
D03*
X6333D02*
D03*
X5183D02*
D03*
X4417D02*
D03*
X3267D02*
D03*
X4033D02*
D03*
X2883D02*
D03*
X2117D02*
D03*
D24*
X210Y-1360D02*
D03*
X-940D02*
D03*
X5760D02*
D03*
X4610D02*
D03*
X3460D02*
D03*
X2309D02*
D03*
D25*
X2655Y-495D02*
D03*
X2465D02*
D03*
X3255Y-495D02*
D03*
X3065D02*
D03*
X3855Y-495D02*
D03*
X3665D02*
D03*
X4455D02*
D03*
X4265D02*
D03*
X7555Y-695D02*
D03*
X7365D02*
D03*
X8155D02*
D03*
X7965D02*
D03*
X8755D02*
D03*
X8565D02*
D03*
X9355D02*
D03*
X9165D02*
D03*
X-255Y-850D02*
D03*
X-445D02*
D03*
X895D02*
D03*
X705D02*
D03*
D26*
X-236Y-1400D02*
D03*
X-464Y-1305D02*
D03*
Y-1495D02*
D03*
X915Y-1400D02*
D03*
X686Y-1305D02*
D03*
X686Y-1495D02*
D03*
D27*
X2360Y300D02*
D03*
Y110D02*
D03*
X2260Y-640D02*
D03*
Y-450D02*
D03*
X2960Y300D02*
D03*
Y110D02*
D03*
X2860Y-640D02*
D03*
Y-450D02*
D03*
X3560Y300D02*
D03*
Y110D02*
D03*
X3460Y-640D02*
D03*
Y-450D02*
D03*
X4160Y300D02*
D03*
Y110D02*
D03*
X4060Y-640D02*
D03*
Y-450D02*
D03*
X7260Y100D02*
D03*
Y-90D02*
D03*
X7160Y-840D02*
D03*
Y-650D02*
D03*
X7860Y100D02*
D03*
Y-90D02*
D03*
X7760Y-840D02*
D03*
Y-650D02*
D03*
X8460Y100D02*
D03*
Y-90D02*
D03*
X8360Y-840D02*
D03*
Y-650D02*
D03*
X9060Y100D02*
D03*
Y-90D02*
D03*
X8960Y-840D02*
D03*
Y-650D02*
D03*
D28*
X-755Y-850D02*
D03*
X-945Y-850D02*
D03*
X395Y-850D02*
D03*
X205D02*
D03*
D29*
X-543Y-1495D02*
X-464D01*
X-387D01*
X-686Y-1485D02*
Y-1360D01*
X607Y-1495D02*
X686D01*
X764D01*
X464Y-1485D02*
Y-1360D01*
X-255Y-955D02*
Y-850D01*
X-170D01*
X895Y-955D02*
Y-850D01*
Y-745D01*
Y-850D02*
X980D01*
X2587Y371D02*
Y486D01*
Y601D01*
Y486D02*
X2702D01*
X3187Y486D02*
X3302D01*
X3187Y371D02*
Y486D01*
Y601D01*
X3787Y371D02*
Y486D01*
Y601D01*
Y486D02*
X3902D01*
X4773Y-227D02*
X4888D01*
Y-342D02*
Y-227D01*
X4387Y371D02*
Y486D01*
X4502D01*
X4387D02*
Y601D01*
X7487Y171D02*
Y286D01*
X8087Y171D02*
Y286D01*
X7487Y286D02*
X7602D01*
X7487D02*
Y401D01*
X8087Y286D02*
X8202D01*
X8087D02*
Y401D01*
X8687Y171D02*
Y286D01*
X9287Y171D02*
Y286D01*
X8687Y286D02*
Y401D01*
Y286D02*
X8802D01*
X9287Y286D02*
Y401D01*
Y286D02*
X9402D01*
M02*
