G04 Layer_Color=16711935*
%FSLAX42Y42*%
%MOMM*%
G71*
G01*
G75*
%ADD22C,1.70*%
%ADD24R,1.70X1.70*%
%ADD32C,7.20*%
%ADD33C,1.70*%
%ADD34R,1.70X1.70*%
%ADD35O,2.20X3.20*%
%ADD36R,1.70X1.70*%
%ADD37C,1.90*%
%ADD38C,3.20*%
%ADD39R,1.90X1.90*%
G04:AMPARAMS|DCode=40|XSize=1.1mm|YSize=1.5mm|CornerRadius=0.33mm|HoleSize=0mm|Usage=FLASHONLY|Rotation=0.000|XOffset=0mm|YOffset=0mm|HoleType=Round|Shape=RoundedRectangle|*
%AMROUNDEDRECTD40*
21,1,1.10,0.85,0,0,0.0*
21,1,0.45,1.50,0,0,0.0*
1,1,0.65,0.23,-0.42*
1,1,0.65,-0.23,-0.42*
1,1,0.65,-0.23,0.42*
1,1,0.65,0.23,0.42*
%
%ADD40ROUNDEDRECTD40*%
G04:AMPARAMS|DCode=41|XSize=0.96mm|YSize=0.96mm|CornerRadius=0.29mm|HoleSize=0mm|Usage=FLASHONLY|Rotation=270.000|XOffset=0mm|YOffset=0mm|HoleType=Round|Shape=RoundedRectangle|*
%AMROUNDEDRECTD41*
21,1,0.96,0.38,0,0,270.0*
21,1,0.38,0.96,0,0,270.0*
1,1,0.58,-0.19,-0.19*
1,1,0.58,-0.19,0.19*
1,1,0.58,0.19,0.19*
1,1,0.58,0.19,-0.19*
%
%ADD41ROUNDEDRECTD41*%
G04:AMPARAMS|DCode=42|XSize=0.9mm|YSize=1.5mm|CornerRadius=0.28mm|HoleSize=0mm|Usage=FLASHONLY|Rotation=90.000|XOffset=0mm|YOffset=0mm|HoleType=Round|Shape=RoundedRectangle|*
%AMROUNDEDRECTD42*
21,1,0.90,0.95,0,0,90.0*
21,1,0.35,1.50,0,0,90.0*
1,1,0.55,0.47,0.17*
1,1,0.55,0.47,-0.17*
1,1,0.55,-0.47,-0.17*
1,1,0.55,-0.47,0.17*
%
%ADD42ROUNDEDRECTD42*%
G04:AMPARAMS|DCode=43|XSize=0.9mm|YSize=1.5mm|CornerRadius=0.28mm|HoleSize=0mm|Usage=FLASHONLY|Rotation=0.000|XOffset=0mm|YOffset=0mm|HoleType=Round|Shape=RoundedRectangle|*
%AMROUNDEDRECTD43*
21,1,0.90,0.95,0,0,0.0*
21,1,0.35,1.50,0,0,0.0*
1,1,0.55,0.17,-0.47*
1,1,0.55,-0.17,-0.47*
1,1,0.55,-0.17,0.47*
1,1,0.55,0.17,0.47*
%
%ADD43ROUNDEDRECTD43*%
D22*
X4888Y27D02*
D03*
X5142D02*
D03*
X5396D02*
D03*
X5650D02*
D03*
X5904D02*
D03*
X6158D02*
D03*
X6412D02*
D03*
Y-227D02*
D03*
X5904D02*
D03*
X5396D02*
D03*
X5142D02*
D03*
X5650D02*
D03*
X6158D02*
D03*
X9700Y-1238D02*
D03*
Y-1492D02*
D03*
Y-1746D02*
D03*
X1200Y-1238D02*
D03*
Y-1492D02*
D03*
Y-1746D02*
D03*
D24*
X4888Y-227D02*
D03*
D32*
X0Y0D02*
D03*
D33*
X2587Y486D02*
D03*
X2333D02*
D03*
X2587Y-276D02*
D03*
X3187Y486D02*
D03*
X2933D02*
D03*
X3187Y-276D02*
D03*
X3787Y486D02*
D03*
X3533D02*
D03*
X3787Y-276D02*
D03*
X4387Y486D02*
D03*
X4133D02*
D03*
X4387Y-276D02*
D03*
X7487Y286D02*
D03*
X7233D02*
D03*
X7487Y-476D02*
D03*
X8087Y286D02*
D03*
X7833D02*
D03*
X8087Y-476D02*
D03*
X8687Y286D02*
D03*
X8433D02*
D03*
X8687Y-476D02*
D03*
X9287Y286D02*
D03*
X9033Y286D02*
D03*
X9287Y-476D02*
D03*
D34*
X2333Y-276D02*
D03*
X2933Y-276D02*
D03*
X3533D02*
D03*
X4133Y-276D02*
D03*
X7233Y-476D02*
D03*
X7833Y-476D02*
D03*
X8433D02*
D03*
X9033D02*
D03*
D35*
X9225Y-2000D02*
D03*
X8875D02*
D03*
X8525D02*
D03*
X8175D02*
D03*
X7825D02*
D03*
X7475D02*
D03*
X7125D02*
D03*
X6775D02*
D03*
D36*
X9700D02*
D03*
X1200D02*
D03*
D37*
X591Y-1106D02*
D03*
X464Y-1360D02*
D03*
X337Y-1106D02*
D03*
X-814D02*
D03*
X-686Y-1360D02*
D03*
X-559Y-1106D02*
D03*
X6140D02*
D03*
X6013Y-1360D02*
D03*
X5887Y-1106D02*
D03*
X4737D02*
D03*
X4863Y-1360D02*
D03*
X4990Y-1106D02*
D03*
X3840D02*
D03*
X3713Y-1360D02*
D03*
X3587Y-1106D02*
D03*
X2436D02*
D03*
X2564Y-1360D02*
D03*
X2691Y-1106D02*
D03*
D38*
X17Y-1994D02*
D03*
X783D02*
D03*
X-367D02*
D03*
X-1133D02*
D03*
X5567D02*
D03*
X6333D02*
D03*
X5183D02*
D03*
X4417D02*
D03*
X3267D02*
D03*
X4033D02*
D03*
X2883D02*
D03*
X2117D02*
D03*
D39*
X210Y-1360D02*
D03*
X-940D02*
D03*
X5760D02*
D03*
X4610D02*
D03*
X3460D02*
D03*
X2309D02*
D03*
D40*
X2655Y-495D02*
D03*
X2465D02*
D03*
X3255Y-495D02*
D03*
X3065D02*
D03*
X3855Y-495D02*
D03*
X3665D02*
D03*
X4455D02*
D03*
X4265D02*
D03*
X7555Y-695D02*
D03*
X7365D02*
D03*
X8155D02*
D03*
X7965D02*
D03*
X8755D02*
D03*
X8565D02*
D03*
X9355D02*
D03*
X9165D02*
D03*
X-255Y-850D02*
D03*
X-445D02*
D03*
X895D02*
D03*
X705D02*
D03*
D41*
X-236Y-1400D02*
D03*
X-464Y-1305D02*
D03*
Y-1495D02*
D03*
X915Y-1400D02*
D03*
X686Y-1305D02*
D03*
X686Y-1495D02*
D03*
D42*
X2360Y300D02*
D03*
Y110D02*
D03*
X2260Y-640D02*
D03*
Y-450D02*
D03*
X2960Y300D02*
D03*
Y110D02*
D03*
X2860Y-640D02*
D03*
Y-450D02*
D03*
X3560Y300D02*
D03*
Y110D02*
D03*
X3460Y-640D02*
D03*
Y-450D02*
D03*
X4160Y300D02*
D03*
Y110D02*
D03*
X4060Y-640D02*
D03*
Y-450D02*
D03*
X7260Y100D02*
D03*
Y-90D02*
D03*
X7160Y-840D02*
D03*
Y-650D02*
D03*
X7860Y100D02*
D03*
Y-90D02*
D03*
X7760Y-840D02*
D03*
Y-650D02*
D03*
X8460Y100D02*
D03*
Y-90D02*
D03*
X8360Y-840D02*
D03*
Y-650D02*
D03*
X9060Y100D02*
D03*
Y-90D02*
D03*
X8960Y-840D02*
D03*
Y-650D02*
D03*
D43*
X-755Y-850D02*
D03*
X-945Y-850D02*
D03*
X395Y-850D02*
D03*
X205D02*
D03*
M02*
