G04 Layer_Physical_Order=1*
G04 Layer_Color=255*
%FSLAX42Y42*%
%MOMM*%
G71*
G01*
G75*
%ADD10C,0.50*%
%ADD11R,0.60X2.20*%
%ADD12O,0.60X2.20*%
%ADD13C,0.60*%
%ADD14C,0.30*%
%ADD15C,3.00*%
%ADD16C,0.25*%
%ADD17C,3.00*%
%ADD18C,2.00*%
%ADD19C,1.50*%
%ADD20R,1.50X1.50*%
%ADD21O,2.00X3.00*%
%ADD22C,7.00*%
%ADD23C,1.00*%
D10*
X588Y330D02*
G03*
X715Y330I63J108D01*
G01*
X656Y-317D02*
G03*
X690Y-378I122J28D01*
G01*
X656Y-317D02*
G03*
X690Y-378I122J28D01*
G01*
X1539Y-113D02*
G03*
X1538Y-102I-125J0D01*
G01*
X715Y75D02*
G03*
X649Y92I-63J-108D01*
G01*
X807Y89D02*
G03*
X715Y75I-29J-122D01*
G01*
X827Y117D02*
G03*
X807Y89I78J-78D01*
G01*
X827Y117D02*
G03*
X807Y89I78J-78D01*
G01*
X1539Y-113D02*
G03*
X1538Y-102I-125J0D01*
G01*
X1028Y312D02*
G03*
X1006Y295I55J-95D01*
G01*
X1028Y312D02*
G03*
X1006Y295I55J-95D01*
G01*
X715Y330D02*
G03*
X842Y330I63J108D01*
G01*
X842D02*
G03*
X969Y330I63J108D01*
G01*
D02*
G03*
X1028Y312I63J108D01*
G01*
X1929Y295D02*
G03*
X1851Y327I-78J-78D01*
G01*
X1929Y295D02*
G03*
X1851Y327I-78J-78D01*
G01*
X2688Y188D02*
G03*
X2674Y202I-127J-113D01*
G01*
D02*
G03*
X2688Y216I-113J127D01*
G01*
X2702Y202D02*
G03*
X2688Y188I113J-127D01*
G01*
X2942D02*
G03*
X2928Y202I-127J-113D01*
G01*
X2956D02*
G03*
X2942Y188I113J-127D01*
G01*
X2928Y202D02*
G03*
X2942Y216I-113J127D01*
G01*
D02*
G03*
X2956Y202I127J113D01*
G01*
X2688Y216D02*
G03*
X2702Y202I127J113D01*
G01*
X2137Y322D02*
G03*
X2159Y245I170J7D01*
G01*
X-2061Y653D02*
G03*
X-1976Y617I85J85D01*
G01*
X-2061Y653D02*
G03*
X-1976Y617I85J85D01*
G01*
X1472Y327D02*
G03*
X1530Y392I-59J110D01*
G01*
X435Y92D02*
G03*
X399Y-197I-435J-92D01*
G01*
X399Y437D02*
G03*
X588Y330I125J0D01*
G01*
X2942Y442D02*
G03*
X2688Y442I-127J-113D01*
G01*
X401Y617D02*
G03*
X399Y597I123J-20D01*
G01*
X2207Y606D02*
G03*
X2161Y635I-88J-88D01*
G01*
X2434Y442D02*
G03*
X2314Y499I-127J-113D01*
G01*
X2207Y606D02*
G03*
X2161Y635I-88J-88D01*
G01*
X2299D02*
G03*
X2383Y670I0J120D01*
G01*
X2299Y635D02*
G03*
X2384Y670I0J120D01*
G01*
X2688Y442D02*
G03*
X2434Y442I-127J-113D01*
G01*
X3908Y-174D02*
G03*
X3941Y-96I-78J78D01*
G01*
X3908Y-173D02*
G03*
X3941Y-96I-78J78D01*
G01*
Y-54D02*
G03*
X4001Y75I-110J130D01*
G01*
X3196Y188D02*
G03*
X3182Y202I-127J-113D01*
G01*
X4001Y75D02*
G03*
X3944Y202I-170J0D01*
G01*
X3210D02*
G03*
X3196Y188I113J-127D01*
G01*
X3182Y202D02*
G03*
X3196Y216I-113J127D01*
G01*
D02*
G03*
X3210Y202I127J113D01*
G01*
X3196Y442D02*
G03*
X2942Y442I-127J-113D01*
G01*
X3450D02*
G03*
X3196Y442I-127J-113D01*
G01*
X3704D02*
G03*
X3450Y442I-127J-113D01*
G01*
X3498Y700D02*
G03*
X3583Y665I85J85D01*
G01*
X3498Y700D02*
G03*
X3583Y665I85J85D01*
G01*
X4001Y329D02*
G03*
X3704Y442I-170J0D01*
G01*
X3944Y202D02*
G03*
X4001Y329I-113J127D01*
G01*
X4546Y121D02*
G03*
X4526Y92I78J-78D01*
G01*
X5636Y-215D02*
G03*
X5638Y-193I-123J22D01*
G01*
X4546Y121D02*
G03*
X4526Y92I78J-78D01*
G01*
X4499Y437D02*
G03*
X4688Y330I125J0D01*
G01*
X4688D02*
G03*
X4739Y313I63J108D01*
G01*
X5882Y439D02*
G03*
X5895Y500I-132J61D01*
G01*
D02*
G03*
X5876Y572I-145J0D01*
G01*
X4504Y632D02*
G03*
X4499Y597I120J-35D01*
G01*
X6734Y442D02*
G03*
X6477Y439I-127J-113D01*
G01*
X6988Y442D02*
G03*
X6734Y442I-127J-113D01*
G01*
X7242D02*
G03*
X6988Y442I-127J-113D01*
G01*
X3297Y950D02*
G03*
X3333Y865I120J0D01*
G01*
X2974Y1158D02*
G03*
X3297Y994I194J-17D01*
G01*
Y950D02*
G03*
X3333Y865I120J0D01*
G01*
X4998Y824D02*
G03*
X4963Y909I-120J0D01*
G01*
X4998Y824D02*
G03*
X4963Y909I-120J0D01*
G01*
X3663Y1158D02*
G03*
X3988Y995I194J-17D01*
G01*
D02*
G03*
X4020Y935I117J25D01*
G01*
X3988Y995D02*
G03*
X4020Y935I117J25D01*
G01*
X3297Y1287D02*
G03*
X3151Y1335I-129J-146D01*
G01*
X3985Y1288D02*
G03*
X3840Y1335I-128J-147D01*
G01*
X4351Y1158D02*
G03*
X4401Y1010I194J-17D01*
G01*
X4675Y1286D02*
G03*
X4528Y1335I-129J-146D01*
G01*
X5606Y970D02*
G03*
X5608Y988I-119J17D01*
G01*
X6265Y903D02*
G03*
X6300Y988I-85J85D01*
G01*
X6265Y903D02*
G03*
X6300Y988I-85J85D01*
G01*
X5040Y1158D02*
G03*
X5167Y957I194J-17D01*
G01*
X5728Y1158D02*
G03*
X5828Y970I194J-17D01*
G01*
X6417Y1158D02*
G03*
X6650Y949I194J-17D01*
G01*
X6942Y903D02*
G03*
X6978Y988I-85J85D01*
G01*
X6942Y903D02*
G03*
X6978Y988I-85J85D01*
G01*
X5606Y970D02*
G03*
X5608Y988I-119J17D01*
G01*
X5367Y1283D02*
G03*
X5217Y1335I-134J-142D01*
G01*
X6060Y1279D02*
G03*
X5905Y1335I-138J-138D01*
G01*
X6738Y1289D02*
G03*
X6593Y1335I-127J-148D01*
G01*
X6978Y1289D02*
G03*
X6994Y1269I105J68D01*
G01*
X6978Y1289D02*
G03*
X6994Y1269I105J68D01*
G01*
X3055Y1490D02*
G03*
X3192Y1455I114J158D01*
G01*
X3364Y1648D02*
G03*
X3055Y1807I-195J0D01*
G01*
X3362Y1625D02*
G03*
X3364Y1648I-194J24D01*
G01*
X3747Y1487D02*
G03*
X3881Y1455I110J161D01*
G01*
X4052Y1648D02*
G03*
X3747Y1810I-195J0D01*
G01*
X3364Y2156D02*
G03*
X3055Y2315I-195J0D01*
G01*
Y1998D02*
G03*
X3364Y2156I114J158D01*
G01*
X3747Y1995D02*
G03*
X4052Y2156I110J161D01*
G01*
D02*
G03*
X3747Y2318I-195J0D01*
G01*
X4051Y1625D02*
G03*
X4052Y1648I-194J24D01*
G01*
X4440Y1484D02*
G03*
X4569Y1455I106J164D01*
G01*
X4741Y1648D02*
G03*
X4440Y1812I-195J0D01*
G01*
X4739Y1625D02*
G03*
X4741Y1648I-194J24D01*
G01*
X4741Y2156D02*
G03*
X4440Y2320I-195J0D01*
G01*
Y1992D02*
G03*
X4741Y2156I106J164D01*
G01*
X3055Y2506D02*
G03*
X3364Y2664I114J158D01*
G01*
D02*
G03*
X3294Y2814I-195J0D01*
G01*
Y2819D02*
G03*
X3273Y2888I-125J0D01*
G01*
X3294Y2819D02*
G03*
X3273Y2888I-125J0D01*
G01*
X3638Y3275D02*
G03*
X3646Y3218I195J0D01*
G01*
X3776Y3088D02*
G03*
X3892Y3089I57J187D01*
G01*
X3747Y2503D02*
G03*
X4052Y2664I110J161D01*
G01*
X3558Y3375D02*
G03*
X3188Y3461I-195J0D01*
G01*
X4008Y3461D02*
G03*
X3638Y3375I-175J-86D01*
G01*
X2488Y3461D02*
G03*
X2312Y3570I-175J-86D01*
G01*
X2838Y3461D02*
G03*
X2488Y3461I-175J-86D01*
G01*
X3188D02*
G03*
X2838Y3461I-175J-86D01*
G01*
X4052Y2664D02*
G03*
X3982Y2814I-195J0D01*
G01*
Y2830D02*
G03*
X3945Y2919I-125J0D01*
G01*
X3982Y2830D02*
G03*
X3945Y2919I-125J0D01*
G01*
X4440Y2500D02*
G03*
X4741Y2664I106J164D01*
G01*
D02*
G03*
X4671Y2814I-195J0D01*
G01*
X4358Y3461D02*
G03*
X4008Y3461I-175J-86D01*
G01*
X4708Y3461D02*
G03*
X4358Y3461I-175J-86D01*
G01*
X4671Y2962D02*
G03*
X4650Y3031I-125J0D01*
G01*
X4671Y2962D02*
G03*
X4650Y3031I-125J0D01*
G01*
X5130Y1483D02*
G03*
X5258Y1455I104J165D01*
G01*
X5429Y1648D02*
G03*
X5130Y1813I-195J0D01*
G01*
X5428Y1625D02*
G03*
X5429Y1648I-194J24D01*
G01*
X5825Y1479D02*
G03*
X5946Y1455I97J169D01*
G01*
X6117Y1648D02*
G03*
X5825Y1817I-195J0D01*
G01*
X5130Y1991D02*
G03*
X5429Y2156I104J165D01*
G01*
D02*
G03*
X5130Y2321I-195J0D01*
G01*
X5825Y1987D02*
G03*
X6117Y2156I97J169D01*
G01*
D02*
G03*
X5825Y2325I-195J0D01*
G01*
X6507Y1483D02*
G03*
X6635Y1455I103J165D01*
G01*
X6116Y1625D02*
G03*
X6117Y1648I-194J24D01*
G01*
X6957Y1468D02*
G03*
X6942Y1487I-100J-66D01*
G01*
X6957Y1468D02*
G03*
X6942Y1487I-100J-66D01*
G01*
X6806Y1648D02*
G03*
X6507Y1814I-195J0D01*
G01*
X6804Y1625D02*
G03*
X6806Y1648I-194J24D01*
G01*
X6507Y1991D02*
G03*
X6806Y2156I103J165D01*
G01*
D02*
G03*
X6507Y2322I-195J0D01*
G01*
X5130Y2499D02*
G03*
X5429Y2664I104J165D01*
G01*
D02*
G03*
X5359Y2814I-195J0D01*
G01*
Y2974D02*
G03*
X5338Y3042I-125J0D01*
G01*
X5359Y2974D02*
G03*
X5338Y3042I-125J0D01*
G01*
X5825Y2495D02*
G03*
X6117Y2664I97J169D01*
G01*
D02*
G03*
X6047Y2814I-195J0D01*
G01*
Y2985D02*
G03*
X6027Y3054I-125J0D01*
G01*
X6047Y2985D02*
G03*
X6027Y3054I-125J0D01*
G01*
X5058Y3461D02*
G03*
X4708Y3461I-175J-86D01*
G01*
X5408Y3461D02*
G03*
X5058Y3461I-175J-86D01*
G01*
X5758Y3461D02*
G03*
X5408Y3461I-175J-86D01*
G01*
X6108Y3461D02*
G03*
X5758Y3461I-175J-86D01*
G01*
X6736Y2997D02*
G03*
X6699Y3085I-125J0D01*
G01*
X6736Y2997D02*
G03*
X6699Y3085I-125J0D01*
G01*
X6806Y2664D02*
G03*
X6736Y2814I-195J0D01*
G01*
X6507Y2499D02*
G03*
X6806Y2664I103J165D01*
G01*
X6696Y3088D02*
G03*
X6812Y3089I57J187D01*
G01*
X6478Y3375D02*
G03*
X6108Y3461I-195J0D01*
G01*
X6558Y3275D02*
G03*
X6566Y3218I195J0D01*
G01*
X6928Y3461D02*
G03*
X6558Y3375I-175J-86D01*
G01*
X7278Y3461D02*
G03*
X6928Y3461I-175J-86D01*
G01*
X7496Y442D02*
G03*
X7242Y442I-127J-113D01*
G01*
X7750D02*
G03*
X7496Y442I-127J-113D01*
G01*
X8260Y185D02*
G03*
X8244Y202I-130J-110D01*
G01*
D02*
G03*
X8301Y329I-113J127D01*
G01*
X8004Y442D02*
G03*
X7750Y442I-127J-113D01*
G01*
X8301Y329D02*
G03*
X8004Y442I-170J0D01*
G01*
X7250Y572D02*
G03*
X7335Y608I0J120D01*
G01*
X7250Y572D02*
G03*
X7335Y608I0J120D01*
G01*
X7617Y890D02*
G03*
X7653Y975I-85J85D01*
G01*
X7617Y890D02*
G03*
X7653Y975I-85J85D01*
G01*
X8107Y965D02*
G03*
X8143Y880I120J0D01*
G01*
X8107Y965D02*
G03*
X8143Y880I120J0D01*
G01*
X8871Y347D02*
G03*
X8793Y315I0J-110D01*
G01*
X8871Y347D02*
G03*
X8793Y315I0J-110D01*
G01*
X10009Y219D02*
G03*
X10034Y182I110J48D01*
G01*
X10009Y219D02*
G03*
X10034Y181I110J48D01*
G01*
X9997Y217D02*
G03*
X10009Y219I-5J125D01*
G01*
X9234Y528D02*
G03*
X9232Y502I122J-26D01*
G01*
X8383Y640D02*
G03*
X8468Y605I85J85D01*
G01*
X8383Y640D02*
G03*
X8468Y605I85J85D01*
G01*
X8800Y952D02*
G03*
X8835Y868I120J0D01*
G01*
X8800Y952D02*
G03*
X8835Y868I120J0D01*
G01*
X9417Y917D02*
G03*
X9373Y946I-85J-85D01*
G01*
X9417Y917D02*
G03*
X9373Y946I-85J-85D01*
G01*
D02*
G03*
X9490Y991I-8J195D01*
G01*
X9878Y952D02*
G03*
X9793Y917I0J-120D01*
G01*
X9878Y952D02*
G03*
X9793Y917I0J-120D01*
G01*
X7105Y1158D02*
G03*
X7337Y949I194J-17D01*
G01*
X7653Y1306D02*
G03*
X7674Y1277I110J59D01*
G01*
X7412Y1299D02*
G03*
X7282Y1335I-113J-159D01*
G01*
X7653Y1306D02*
G03*
X7674Y1277I110J59D01*
G01*
X7794Y1158D02*
G03*
X8107Y986I194J-17D01*
G01*
X8482Y1158D02*
G03*
X8800Y990I194J-17D01*
G01*
X8092Y1305D02*
G03*
X7970Y1335I-104J-165D01*
G01*
X8347Y1295D02*
G03*
X8362Y1278I102J72D01*
G01*
X8347Y1295D02*
G03*
X8362Y1278I102J72D01*
G01*
X7207Y1476D02*
G03*
X7323Y1455I92J172D01*
G01*
X7638Y1473D02*
G03*
X7617Y1500I-105J-58D01*
G01*
X7638Y1473D02*
G03*
X7617Y1500I-105J-58D01*
G01*
X8325Y1409D02*
G03*
X8312Y1424I-98J-70D01*
G01*
X8325Y1409D02*
G03*
X8312Y1424I-98J-70D01*
G01*
X7888Y1481D02*
G03*
X7937Y1460I100J167D01*
G01*
X8575Y1482D02*
G03*
X8641Y1457I101J167D01*
G01*
X9171Y1158D02*
G03*
X9313Y952I194J-17D01*
G01*
X8800Y1291D02*
G03*
X8659Y1335I-124J-151D01*
G01*
X9040Y1291D02*
G03*
X9054Y1274I102J72D01*
G01*
X9040Y1291D02*
G03*
X9054Y1274I102J72D01*
G01*
X9859Y1158D02*
G03*
X10001Y952I194J-17D01*
G01*
X9490Y1290D02*
G03*
X9347Y1335I-125J-149D01*
G01*
X9730Y1289D02*
G03*
X9742Y1275I100J75D01*
G01*
X9730Y1289D02*
G03*
X9742Y1275I100J75D01*
G01*
X9018Y1417D02*
G03*
X9005Y1432I-98J-70D01*
G01*
X9018Y1417D02*
G03*
X9005Y1432I-98J-70D01*
G01*
X9705Y1430D02*
G03*
X9695Y1442I-95J-73D01*
G01*
X9705Y1430D02*
G03*
X9695Y1442I-95J-73D01*
G01*
X9268Y1479D02*
G03*
X9343Y1455I97J169D01*
G01*
X10339Y-450D02*
G03*
X10371Y-367I-93J83D01*
G01*
X10339Y-450D02*
G03*
X10371Y-367I-93J83D01*
G01*
Y-128D02*
G03*
X10215Y-6I-125J0D01*
G01*
Y-6D02*
G03*
X10196Y18I-96J-54D01*
G01*
X10215Y-6D02*
G03*
X10196Y18I-96J-54D01*
G01*
X10608Y211D02*
G03*
X11445Y0I392J-211D01*
G01*
X10103Y113D02*
G03*
X10188Y77I85J85D01*
G01*
X10425D02*
G03*
X10510Y113I0J120D01*
G01*
X10425Y77D02*
G03*
X10510Y113I0J120D01*
G01*
X10103D02*
G03*
X10188Y77I85J85D01*
G01*
X10350Y853D02*
G03*
X10385Y938I-85J85D01*
G01*
X10517Y459D02*
G03*
X10498Y493I-134J-54D01*
G01*
X10350Y853D02*
G03*
X10385Y938I-85J85D01*
G01*
X11445Y0D02*
G03*
X11236Y378I-445J0D01*
G01*
X11045Y855D02*
G03*
X11080Y940I-85J85D01*
G01*
X11045Y855D02*
G03*
X11080Y940I-85J85D01*
G01*
X11876Y378D02*
G03*
X11961Y413I0J120D01*
G01*
X11876Y378D02*
G03*
X11961Y413I0J120D01*
G01*
X12422Y874D02*
G03*
X12450Y917I-85J85D01*
G01*
X12422Y874D02*
G03*
X12450Y917I-85J85D01*
G01*
X10145Y1312D02*
G03*
X10036Y1335I-92J-172D01*
G01*
X10400Y1357D02*
G03*
X10437Y1269I125J0D01*
G01*
X10400Y1357D02*
G03*
X10437Y1269I125J0D01*
G01*
X10547Y1158D02*
G03*
X10807Y957I194J-17D01*
G01*
X10840Y1309D02*
G03*
X10724Y1335I-98J-168D01*
G01*
X11090Y1356D02*
G03*
X11127Y1267I125J0D01*
G01*
X11090Y1356D02*
G03*
X11127Y1267I125J0D01*
G01*
X9955Y1480D02*
G03*
X10044Y1454I98J168D01*
G01*
X10385Y1402D02*
G03*
X10350Y1487I-120J0D01*
G01*
X10385Y1402D02*
G03*
X10350Y1487I-120J0D01*
G01*
X10650Y1476D02*
G03*
X10744Y1453I92J172D01*
G01*
X11080Y1407D02*
G03*
X11045Y1492I-120J0D01*
G01*
X11080Y1407D02*
G03*
X11045Y1492I-120J0D01*
G01*
X11740Y865D02*
G03*
X11775Y950I-85J85D01*
G01*
X11740Y865D02*
G03*
X11775Y950I-85J85D01*
G01*
X11236Y1158D02*
G03*
X11490Y955I194J-17D01*
G01*
X11535Y1305D02*
G03*
X11413Y1335I-105J-164D01*
G01*
X11775Y1358D02*
G03*
X11812Y1271I125J1D01*
G01*
X11775Y1358D02*
G03*
X11812Y1271I125J1D01*
G01*
X11924Y1158D02*
G03*
X12159Y950I194J-17D01*
G01*
X12218Y1308D02*
G03*
X12101Y1335I-99J-168D01*
G01*
X11340Y1475D02*
G03*
X11443Y1454I90J173D01*
G01*
X11775Y1412D02*
G03*
X11740Y1497I-120J-0D01*
G01*
X11775Y1412D02*
G03*
X11740Y1497I-120J-0D01*
G01*
X12025Y1477D02*
G03*
X12142Y1455I94J171D01*
G01*
X12450Y1471D02*
G03*
X12422Y1514I-112J-42D01*
G01*
X12450Y1471D02*
G03*
X12422Y1514I-112J-42D01*
G01*
X7494Y1648D02*
G03*
X7207Y1820I-195J0D01*
G01*
X7493Y1625D02*
G03*
X7494Y1648I-194J24D01*
G01*
X7207Y1984D02*
G03*
X7494Y2156I92J172D01*
G01*
X8183Y1648D02*
G03*
X7888Y1816I-195J0D01*
G01*
X8166Y1570D02*
G03*
X8183Y1648I-179J78D01*
G01*
X7888Y1989D02*
G03*
X8183Y2156I100J167D01*
G01*
X7494D02*
G03*
X7207Y2328I-195J0D01*
G01*
X8183Y2156D02*
G03*
X7888Y2324I-195J0D01*
G01*
X8871Y1648D02*
G03*
X8575Y1815I-195J0D01*
G01*
X8858Y1578D02*
G03*
X8871Y1648I-182J70D01*
G01*
X8575Y1990D02*
G03*
X8871Y2156I101J167D01*
G01*
X9560Y1648D02*
G03*
X9268Y1817I-195J0D01*
G01*
X9550Y1587D02*
G03*
X9560Y1648I-185J61D01*
G01*
X9268Y1987D02*
G03*
X9560Y2156I97J169D01*
G01*
X8871D02*
G03*
X8575Y2323I-195J0D01*
G01*
X9560Y2156D02*
G03*
X9268Y2325I-195J0D01*
G01*
X7494Y2664D02*
G03*
X7424Y2814I-195J0D01*
G01*
X7207Y2492D02*
G03*
X7494Y2664I92J172D01*
G01*
X7628Y3461D02*
G03*
X7278Y3461I-175J-86D01*
G01*
X7424Y3082D02*
G03*
X7512Y3089I28J193D01*
G01*
X8183Y2664D02*
G03*
X8113Y2814I-195J0D01*
G01*
X7888Y2497D02*
G03*
X8183Y2664I100J167D01*
G01*
X8575Y2498D02*
G03*
X8871Y2664I101J167D01*
G01*
X7978Y3461D02*
G03*
X7628Y3461I-175J-86D01*
G01*
X8328Y3461D02*
G03*
X7978Y3461I-175J-86D01*
G01*
X8113Y3084D02*
G03*
X8212Y3089I40J191D01*
G01*
X8678Y3461D02*
G03*
X8328Y3461I-175J-86D01*
G01*
X8871Y2664D02*
G03*
X8801Y2814I-195J0D01*
G01*
Y3087D02*
G03*
X8912Y3089I51J188D01*
G01*
X9490Y3163D02*
G03*
X9453Y3251I-125J0D01*
G01*
X9560Y2664D02*
G03*
X9490Y2814I-195J0D01*
G01*
X9268Y2495D02*
G03*
X9560Y2664I97J169D01*
G01*
X9490Y3163D02*
G03*
X9453Y3251I-125J0D01*
G01*
X9483Y3275D02*
G03*
X9705Y3082I195J0D01*
G01*
X9028Y3461D02*
G03*
X8678Y3461I-175J-86D01*
G01*
X9398Y3375D02*
G03*
X9028Y3461I-195J0D01*
G01*
X10248Y1648D02*
G03*
X9955Y1817I-195J0D01*
G01*
X10241Y1596D02*
G03*
X10248Y1648I-188J53D01*
G01*
X9955Y1988D02*
G03*
X10248Y2156I98J168D01*
G01*
X10937Y1648D02*
G03*
X10650Y1821I-195J0D01*
G01*
X10932Y1605D02*
G03*
X10937Y1648I-190J43D01*
G01*
X10650Y1984D02*
G03*
X10937Y2156I92J172D01*
G01*
X10248D02*
G03*
X9955Y2325I-195J0D01*
G01*
X10937Y2156D02*
G03*
X10650Y2329I-195J0D01*
G01*
X11625Y2156D02*
G03*
X11340Y2329I-195J0D01*
G01*
X11625Y1648D02*
G03*
X11340Y1821I-195J0D01*
G01*
X11622Y1615D02*
G03*
X11625Y1648I-192J34D01*
G01*
X11340Y1983D02*
G03*
X11625Y2156I90J173D01*
G01*
X12314Y1648D02*
G03*
X12025Y1819I-195J0D01*
G01*
X12312Y1625D02*
G03*
X12314Y1648I-194J24D01*
G01*
X12025Y1985D02*
G03*
X12314Y2156I94J171D01*
G01*
D02*
G03*
X12025Y2327I-195J0D01*
G01*
X10248Y2664D02*
G03*
X10178Y2814I-195J0D01*
G01*
X9955Y2496D02*
G03*
X10248Y2664I98J168D01*
G01*
X9853Y3461D02*
G03*
X9483Y3375I-175J-86D01*
G01*
X10203Y3189D02*
G03*
X10400Y3081I175J86D01*
G01*
X10178Y3151D02*
G03*
X10203Y3189I-151J124D01*
G01*
X10937Y2664D02*
G03*
X10867Y2814I-195J0D01*
G01*
X10650Y2492D02*
G03*
X10937Y2664I92J172D01*
G01*
X10867Y3138D02*
G03*
X10903Y3189I-139J137D01*
G01*
X10903D02*
G03*
X11090Y3080I175J86D01*
G01*
X10203Y3461D02*
G03*
X9853Y3461I-175J-86D01*
G01*
X10553Y3461D02*
G03*
X10203Y3461I-175J-86D01*
G01*
X10903D02*
G03*
X10553Y3461I-175J-86D01*
G01*
X11253Y3461D02*
G03*
X10903Y3461I-175J-86D01*
G01*
X11625Y2664D02*
G03*
X11555Y2814I-195J0D01*
G01*
X11340Y2491D02*
G03*
X11625Y2664I90J173D01*
G01*
X11555Y3128D02*
G03*
X11603Y3189I-128J147D01*
G01*
X11603D02*
G03*
X11775Y3080I175J86D01*
G01*
X12314Y2664D02*
G03*
X12244Y2814I-195J0D01*
G01*
X12025Y2493D02*
G03*
X12314Y2664I94J171D01*
G01*
X12244Y3118D02*
G03*
X12323Y3275I-116J157D01*
G01*
X11603Y3461D02*
G03*
X11253Y3461I-175J-86D01*
G01*
X11953Y3461D02*
G03*
X11603Y3461I-175J-86D01*
G01*
X12323Y3375D02*
G03*
X11953Y3461I-195J0D01*
G01*
X1159Y517D02*
Y1002D01*
X869Y1292D02*
X1159Y1002D01*
X-2531Y1292D02*
X-1976Y737D01*
X856D01*
X905Y688D01*
Y517D02*
Y688D01*
X1032Y517D02*
Y764D01*
X956Y840D02*
X1032Y764D01*
X-379Y840D02*
X956D01*
X-831Y1292D02*
X-379Y840D01*
X1364Y755D02*
X2299D01*
X1286Y677D02*
X1364Y755D01*
X1286Y517D02*
Y677D01*
X2569Y1025D02*
Y1292D01*
X2299Y755D02*
X2569Y1025D01*
X10019Y1648D02*
X10265Y1402D01*
X10719Y1648D02*
X10960Y1407D01*
X11419Y1648D02*
X11655Y1412D01*
X12338Y959D02*
Y1430D01*
X12119Y1648D02*
X12338Y1430D01*
X10119Y266D02*
Y422D01*
X9992D02*
Y557D01*
X9865Y422D02*
X9865Y423D01*
X9610Y422D02*
Y1357D01*
X9319Y1648D02*
X9610Y1357D01*
X9357Y422D02*
Y576D01*
X9738Y422D02*
Y693D01*
X9878Y832D01*
X9865Y423D02*
Y640D01*
X9950Y725D01*
X9992Y557D02*
X10047Y612D01*
X9950Y725D02*
X10745D01*
X10960Y940D01*
Y1407D01*
X9878Y832D02*
X10160D01*
X10265Y938D01*
Y1402D01*
X10047Y612D02*
X11318D01*
X11655Y950D01*
Y1412D01*
X8619Y1648D02*
X8920Y1347D01*
Y952D02*
Y1347D01*
Y952D02*
X9040Y832D01*
X9332D01*
X9484Y681D01*
Y422D02*
Y681D01*
X9207Y725D02*
X9357Y576D01*
X7919Y1648D02*
X8228Y1340D01*
Y965D02*
Y1340D01*
Y965D02*
X8468Y725D01*
X9207D01*
X10119Y266D02*
X10188Y198D01*
X10425D01*
X10725Y497D01*
X11876D01*
X12338Y959D01*
X7532Y975D02*
Y1415D01*
X7299Y1648D02*
X7532Y1415D01*
X6857Y988D02*
Y1402D01*
X6611Y1648D02*
X6857Y1402D01*
X6180Y988D02*
Y1391D01*
X5922Y1648D02*
X6180Y1391D01*
X5386Y517D02*
Y624D01*
X5259Y517D02*
Y629D01*
X5132Y517D02*
Y627D01*
X5386Y624D02*
X5455Y693D01*
X7250D01*
X7532Y975D01*
X6643Y772D02*
X6857Y988D01*
X5259Y629D02*
X5403Y772D01*
X6643D01*
X5132Y627D02*
X5355Y850D01*
X6042D01*
X6180Y988D01*
X5234Y1648D02*
X5488Y1395D01*
X5435Y935D02*
X5488Y988D01*
Y1395D01*
X5005Y517D02*
Y625D01*
X5315Y935D01*
X5435D01*
X4546Y1648D02*
X4795Y1399D01*
X4105Y1020D02*
Y1400D01*
X3857Y1648D02*
X4105Y1400D01*
X4624Y517D02*
Y708D01*
X4547Y785D02*
X4624Y708D01*
X3583Y785D02*
X4547D01*
X3417Y950D02*
X3583Y785D01*
X3417Y950D02*
Y1400D01*
X3169Y1648D02*
X3417Y1400D01*
X4751Y517D02*
Y766D01*
X4105Y1020D02*
X4235Y890D01*
X4628D01*
X4751Y766D01*
X4795Y907D02*
Y1399D01*
Y907D02*
X4878Y824D01*
Y517D02*
Y824D01*
X-3150Y-450D02*
Y-375D01*
X-3100Y-450D02*
Y-375D01*
X-3210Y-450D02*
Y-375D01*
X-3200Y-450D02*
Y-375D01*
X-2850Y-450D02*
Y-375D01*
X-2800Y-450D02*
Y-375D01*
X-3050Y-450D02*
Y-375D01*
X-2900Y-450D02*
Y-375D01*
X-3000Y-450D02*
Y-375D01*
X-2600Y-450D02*
Y-375D01*
X-2550Y-450D02*
Y-375D01*
X-2750Y-450D02*
Y-375D01*
X-2650Y-450D02*
Y-375D01*
X-2700Y-450D02*
Y-375D01*
X-2350Y-450D02*
Y-375D01*
X-400Y-450D02*
Y-195D01*
X-2500Y-450D02*
Y-375D01*
X-2400Y-450D02*
Y-375D01*
X-2450Y-450D02*
Y-375D01*
X-150Y-450D02*
Y-419D01*
X-100Y-450D02*
Y-434D01*
X-200Y-450D02*
Y-398D01*
X-3210Y-450D02*
X762D01*
X150D02*
Y-419D01*
X200Y-450D02*
Y-398D01*
X-50Y-450D02*
Y-442D01*
X50Y-450D02*
Y-442D01*
X100Y-450D02*
Y-434D01*
X250Y-450D02*
Y-368D01*
X300Y-450D02*
Y-329D01*
X-350Y-450D02*
Y-275D01*
X-250Y-450D02*
Y-368D01*
X-300Y-450D02*
Y-329D01*
X550Y-450D02*
Y-318D01*
X600Y-450D02*
Y-318D01*
X400Y-450D02*
Y-318D01*
X500Y-450D02*
Y-318D01*
X450Y-450D02*
Y-318D01*
X-2950Y-450D02*
Y-375D01*
X-3210D02*
X-2345D01*
Y-300D02*
X-329D01*
X-2345Y-350D02*
X-275D01*
X-2345Y-200D02*
X-398D01*
X-2345Y-250D02*
X-368D01*
X-2345Y-50D02*
X-442D01*
X-2345Y-150D02*
X-419D01*
X-2345Y-100D02*
X-434D01*
X-3950Y150D02*
X-419D01*
X-3950Y200D02*
X-398D01*
X-3950Y250D02*
X-368D01*
X-3950Y300D02*
X-329D01*
X-3950Y350D02*
X-275D01*
X-3950Y-5D02*
X-2345D01*
Y-375D02*
Y-5D01*
X-3950Y-0D02*
X-445D01*
X-3950Y50D02*
X-442D01*
X-3950Y100D02*
X-434D01*
X-3210Y-400D02*
X-195D01*
X195D02*
X712D01*
X329Y-300D02*
X399D01*
X275Y-350D02*
X669D01*
X350Y-450D02*
Y-275D01*
X399Y-318D02*
Y-197D01*
X368Y-250D02*
X399D01*
Y-318D02*
X649D01*
X435Y92D02*
X649D01*
X419Y150D02*
X861D01*
X398Y200D02*
X911D01*
X275Y350D02*
X435D01*
X368Y250D02*
X961D01*
X329Y300D02*
X1011D01*
X450Y92D02*
Y337D01*
X500Y92D02*
Y315D01*
X550Y92D02*
Y315D01*
X434Y100D02*
X814D01*
X650Y-450D02*
Y-318D01*
X690Y-378D02*
X762Y-450D01*
X700D02*
Y-388D01*
X750Y-450D02*
Y-438D01*
X1538Y-102D02*
Y-58D01*
X1539Y-273D02*
Y-113D01*
X600Y92D02*
Y323D01*
X650Y92D02*
Y312D01*
X700Y82D02*
Y322D01*
X750Y89D02*
Y316D01*
X827Y117D02*
X1006Y295D01*
X800Y90D02*
Y314D01*
X1539Y-200D02*
X1879D01*
X1539Y-250D02*
X1929D01*
X1538Y-100D02*
X1779D01*
X1800Y-273D02*
Y-121D01*
X1539Y-273D02*
X1952D01*
X1539Y-150D02*
X1829D01*
X1900Y-273D02*
Y-221D01*
X1850Y-273D02*
Y-171D01*
X1650Y-273D02*
Y-58D01*
X1700Y-273D02*
Y-58D01*
X1550Y-273D02*
Y-58D01*
X1538D02*
X1737D01*
X1600Y-273D02*
Y-58D01*
X1750Y-273D02*
Y-71D01*
X1737Y-58D02*
X1952Y-273D01*
X2124Y100D02*
X2137D01*
Y87D02*
Y245D01*
X1929Y295D02*
X2137Y87D01*
X850Y139D02*
Y325D01*
X900Y189D02*
Y313D01*
X950Y239D02*
Y321D01*
X1000Y289D02*
Y317D01*
X1091Y327D02*
X1100D01*
X1472D02*
X1851D01*
X1218D02*
X1227D01*
X1345D02*
X1354D01*
X1500D02*
Y348D01*
X1800Y327D02*
Y392D01*
X1900Y316D02*
Y392D01*
X1850Y327D02*
Y392D01*
X2074Y150D02*
X2137D01*
X2024Y200D02*
X2137D01*
X2676D02*
X2699D01*
X2950Y197D02*
Y208D01*
X2930Y200D02*
X2953D01*
X2100Y124D02*
Y359D01*
X2137Y245D02*
X2159D01*
X1502Y350D02*
X2109D01*
X1974Y250D02*
X2156D01*
X1924Y300D02*
X2139D01*
X2150Y245D02*
Y263D01*
X-2000Y-450D02*
Y620D01*
X-1950Y-450D02*
Y617D01*
X-2100Y-450D02*
Y691D01*
X-2050Y-450D02*
Y643D01*
X-1750Y-450D02*
Y617D01*
X-1700Y-450D02*
Y617D01*
X-1900Y-450D02*
Y617D01*
X-1800Y-450D02*
Y617D01*
X-1850Y-450D02*
Y617D01*
X-3350Y-5D02*
Y700D01*
X-3300Y-5D02*
Y700D01*
X-3500Y-5D02*
Y700D01*
X-3400Y-5D02*
Y700D01*
X-3450Y-5D02*
Y700D01*
X-2200Y-450D02*
Y700D01*
X-2150Y-450D02*
Y700D01*
X-3150Y-5D02*
Y700D01*
X-2250Y-450D02*
Y700D01*
X-2300Y-450D02*
Y700D01*
X-1050Y-450D02*
Y617D01*
X-1000Y-450D02*
Y617D01*
X-1150Y-450D02*
Y617D01*
X-1100Y-450D02*
Y617D01*
X-800Y-450D02*
Y617D01*
X-750Y-450D02*
Y617D01*
X-950Y-450D02*
Y617D01*
X-850Y-450D02*
Y617D01*
X-900Y-450D02*
Y617D01*
X-1500Y-450D02*
Y617D01*
X-1450Y-450D02*
Y617D01*
X-1650Y-450D02*
Y617D01*
X-1550Y-450D02*
Y617D01*
X-1600Y-450D02*
Y617D01*
X-1250Y-450D02*
Y617D01*
X-1200Y-450D02*
Y617D01*
X-1400Y-450D02*
Y617D01*
X-1300Y-450D02*
Y617D01*
X-1350Y-450D02*
Y617D01*
X-3050Y-5D02*
Y700D01*
X-3000Y-5D02*
Y700D01*
X-3200Y-5D02*
Y700D01*
X-3100Y-5D02*
Y700D01*
X-2800Y-5D02*
Y700D01*
X-2750Y-5D02*
Y700D01*
X-2950Y-5D02*
Y700D01*
X-2850Y-5D02*
Y700D01*
X-2900Y-5D02*
Y700D01*
X-3800Y-5D02*
Y700D01*
X-3750Y-5D02*
Y700D01*
X-3950Y-5D02*
Y700D01*
X-3850Y-5D02*
Y700D01*
X-3900Y-5D02*
Y700D01*
X-3550Y-5D02*
Y700D01*
X-3250Y-5D02*
Y700D01*
X-3700Y-5D02*
Y700D01*
X-3600Y-5D02*
Y700D01*
X-3650Y-5D02*
Y700D01*
X-3950Y400D02*
X-195D01*
X-3950Y450D02*
X399D01*
X-3950Y500D02*
X399D01*
X-3950Y550D02*
X399D01*
X-3950Y600D02*
X399D01*
X-1976Y617D02*
X401D01*
X-3950Y700D02*
X-2109D01*
X-3950Y650D02*
X-2059D01*
X-2600Y-5D02*
Y700D01*
X-2550Y-5D02*
Y700D01*
X-2700Y-5D02*
Y700D01*
X-3950D02*
X-2109D01*
X-2650Y-5D02*
Y700D01*
X-2500Y-5D02*
Y700D01*
X-2450Y-5D02*
Y700D01*
X-2400Y-5D02*
Y700D01*
X-2109D02*
X-2061Y653D01*
X-2350Y-5D02*
Y700D01*
X-200Y398D02*
Y617D01*
X-150Y419D02*
Y617D01*
X-100Y434D02*
Y617D01*
X-50Y442D02*
Y617D01*
X200Y398D02*
Y617D01*
X250Y368D02*
Y617D01*
X50Y442D02*
Y617D01*
X150Y419D02*
Y617D01*
X100Y434D02*
Y617D01*
X-550Y-450D02*
Y617D01*
X-500Y-450D02*
Y617D01*
X-700Y-450D02*
Y617D01*
X-600Y-450D02*
Y617D01*
X-650Y-450D02*
Y617D01*
X-450Y-450D02*
Y617D01*
X-400Y195D02*
Y617D01*
X-350Y275D02*
Y617D01*
X-250Y368D02*
Y617D01*
X-300Y329D02*
Y617D01*
X1550Y327D02*
Y392D01*
X1600Y327D02*
Y392D01*
X1530D02*
X2067D01*
X2050Y174D02*
Y392D01*
X2067D02*
X2137Y322D01*
X1650Y327D02*
Y392D01*
X1750Y327D02*
Y392D01*
X1700Y327D02*
Y392D01*
X350Y275D02*
Y617D01*
X300Y329D02*
Y617D01*
X195Y400D02*
X405D01*
X400Y195D02*
Y423D01*
X2000Y224D02*
Y392D01*
X399Y437D02*
Y597D01*
X1950Y274D02*
Y392D01*
X-0Y445D02*
Y617D01*
X2161Y635D02*
X2299D01*
X2426Y450D02*
X2441D01*
X2200Y612D02*
Y635D01*
X2207Y606D02*
X2314Y499D01*
X2250Y563D02*
Y635D01*
X2300Y513D02*
Y635D01*
X2350Y494D02*
Y646D01*
X2400Y471D02*
Y687D01*
X2450Y458D02*
Y700D01*
X2384Y670D02*
X2413Y700D01*
X2550Y499D02*
Y700D01*
X2500Y488D02*
Y700D01*
X2680Y450D02*
X2695D01*
X2600Y495D02*
Y700D01*
X2413D02*
X2600D01*
X2650Y474D02*
Y757D01*
X2700Y455D02*
Y814D01*
X2934Y450D02*
X2949D01*
X2750Y487D02*
Y871D01*
X2800Y499D02*
Y929D01*
X2850Y496D02*
Y986D01*
X2900Y476D02*
Y1043D01*
X2950Y451D02*
Y1100D01*
X2600Y700D02*
X2950Y1100D01*
X2862Y1000D02*
X3033D01*
X2906Y1050D02*
X2996D01*
X2950Y1100D02*
X2978D01*
X3000Y485D02*
Y1042D01*
X2950Y1100D02*
Y1182D01*
Y1150D02*
X2974D01*
X2950Y1182D02*
X2974Y1158D01*
X3850Y-273D02*
Y-232D01*
X3809Y-273D02*
X3908Y-174D01*
X3900Y-273D02*
Y-182D01*
X3950Y-273D02*
Y-46D01*
X4000Y-273D02*
Y61D01*
X3941Y-96D02*
Y-54D01*
X3200Y193D02*
Y212D01*
X3184Y200D02*
X3207D01*
X4100Y-273D02*
Y665D01*
X4150Y-273D02*
Y665D01*
X3950Y196D02*
Y208D01*
X4000Y90D02*
Y315D01*
X4050Y-273D02*
Y665D01*
X3832Y-250D02*
X4499D01*
X3809Y-273D02*
X4499D01*
X3926Y-150D02*
X4499D01*
X3882Y-200D02*
X4499D01*
X3945Y-50D02*
X4499D01*
X3941Y-100D02*
X4499D01*
X3983Y-0D02*
X4499D01*
X3999Y50D02*
X4499D01*
Y92D02*
X4526D01*
X4200Y-273D02*
Y665D01*
X4250Y-273D02*
Y665D01*
X3999Y100D02*
X4530D01*
X3983Y150D02*
X4576D01*
X3946Y200D02*
X4626D01*
X4450Y-273D02*
Y665D01*
X4499Y-273D02*
Y92D01*
X4300Y-273D02*
Y665D01*
X4400Y-273D02*
Y665D01*
X4350Y-273D02*
Y665D01*
X3188Y450D02*
X3203D01*
X3442D02*
X3457D01*
X3700Y446D02*
Y665D01*
X3600Y498D02*
Y665D01*
X3400Y481D02*
Y798D01*
X3450Y443D02*
Y748D01*
X2687Y800D02*
X3398D01*
X2413Y700D02*
X3498D01*
X2644Y750D02*
X3448D01*
X3500Y481D02*
Y698D01*
X3650Y483D02*
Y665D01*
X3550Y497D02*
Y669D01*
X3696Y450D02*
X3711D01*
X2313Y500D02*
X4499D01*
X2263Y550D02*
X4499D01*
X3981Y250D02*
X4676D01*
X3998Y300D02*
X4726D01*
X3950Y450D02*
X4499D01*
X3999Y350D02*
X4535D01*
X3985Y400D02*
X4505D01*
X3750Y479D02*
Y665D01*
X3800Y497D02*
Y665D01*
X3583D02*
X4498D01*
X2213Y600D02*
X4499D01*
X2357Y650D02*
X4504D01*
X3950Y450D02*
Y665D01*
X4000Y344D02*
Y665D01*
X3850Y498D02*
Y665D01*
X4498D02*
X4504Y659D01*
X3900Y485D02*
Y665D01*
X5636Y-305D02*
Y-215D01*
Y-250D02*
X5748D01*
X5650Y-305D02*
Y-152D01*
X5700Y-305D02*
Y-202D01*
X5638Y-193D02*
Y-140D01*
X5638Y-200D02*
X5698D01*
X5638Y-150D02*
X5648D01*
X4500Y92D02*
Y423D01*
X4499Y437D02*
Y597D01*
X4546Y121D02*
X4739Y313D01*
X4550Y124D02*
Y337D01*
X4600Y174D02*
Y315D01*
X4650Y224D02*
Y315D01*
X4700Y274D02*
Y323D01*
X5750Y-305D02*
Y-252D01*
X5638Y-140D02*
X5803Y-305D01*
X5636Y-300D02*
X5798D01*
X5636Y-305D02*
X5803D01*
X6050Y185D02*
Y219D01*
X6100Y185D02*
Y219D01*
X6000Y198D02*
Y219D01*
X6013Y185D02*
X6437D01*
X5998Y200D02*
X6437D01*
X6150Y185D02*
Y219D01*
X6200Y185D02*
Y219D01*
X5900Y439D02*
Y572D01*
X5979Y219D02*
X6437D01*
X5979D02*
X6013Y185D01*
X6400D02*
Y219D01*
X6437Y185D02*
Y219D01*
X6250Y185D02*
Y219D01*
X6350Y185D02*
Y219D01*
X6300Y185D02*
Y219D01*
X5882Y439D02*
X6477D01*
X5886Y450D02*
X6487D01*
X6100Y439D02*
Y572D01*
X6150Y439D02*
Y572D01*
X5950Y439D02*
Y572D01*
X6050Y439D02*
Y572D01*
X6000Y439D02*
Y572D01*
X6200Y439D02*
Y572D01*
X4500Y612D02*
Y663D01*
X4504Y632D02*
Y659D01*
X4998Y800D02*
X5010D01*
X6400Y439D02*
Y572D01*
X6450Y439D02*
Y572D01*
X6250Y439D02*
Y572D01*
X6350Y439D02*
Y572D01*
X6300Y439D02*
Y572D01*
X6500Y462D02*
Y572D01*
X6650Y494D02*
Y572D01*
X5895Y500D02*
X9232D01*
X5886Y550D02*
X9213D01*
X6700Y471D02*
Y572D01*
X6980Y450D02*
X6995D01*
X6726D02*
X6741D01*
X6750Y458D02*
Y572D01*
X6800Y488D02*
Y572D01*
X6550Y490D02*
Y572D01*
X5876D02*
X7250D01*
X6600Y499D02*
Y572D01*
X6950Y474D02*
Y572D01*
X7000Y455D02*
Y572D01*
X6850Y499D02*
Y572D01*
X7050Y487D02*
Y572D01*
X6900Y495D02*
Y572D01*
X3150Y479D02*
Y946D01*
X2731Y850D02*
X3348D01*
X2819Y950D02*
X3127D01*
X2775Y900D02*
X3308D01*
X3200Y447D02*
Y948D01*
X3350Y497D02*
Y848D01*
X3211Y950D02*
X3297D01*
X3333Y865D02*
X3498Y700D01*
X3300Y498D02*
Y926D01*
X3100Y496D02*
Y958D01*
X3250Y483D02*
Y963D01*
X3050Y498D02*
Y986D01*
X3538Y1000D02*
X3632Y905D01*
X3600Y937D02*
Y1221D01*
X3700Y905D02*
Y1025D01*
X3650Y905D02*
Y1171D01*
X3850Y905D02*
Y946D01*
X3632Y905D02*
X4050D01*
X3587Y950D02*
X3815D01*
X3899D02*
X4008D01*
X4020Y935D02*
X4050Y905D01*
X4995Y850D02*
X5060D01*
X4971Y900D02*
X5110D01*
X3900Y905D02*
Y950D01*
X3950Y905D02*
Y969D01*
X3750Y905D02*
Y977D01*
X3800Y905D02*
Y954D01*
X4000Y905D02*
Y962D01*
X4915Y957D02*
X4963Y909D01*
X4950Y922D02*
Y1248D01*
X3297Y950D02*
Y994D01*
X3538Y1000D02*
X3722D01*
X3538Y1100D02*
X3666D01*
X3538Y1050D02*
X3684D01*
X4225Y1070D02*
X4285Y1010D01*
X4300D02*
Y1209D01*
X3538Y1250D02*
X3571D01*
X3538Y1150D02*
X3662D01*
X3538Y1200D02*
X3621D01*
X3538Y1000D02*
Y1283D01*
X3550Y987D02*
Y1271D01*
X3297Y1287D02*
Y1350D01*
X3538Y1283D02*
X3663Y1158D01*
X4225Y1070D02*
Y1284D01*
X4250Y1045D02*
Y1259D01*
X4225Y1250D02*
X4259D01*
X3985Y1288D02*
Y1351D01*
X4285Y1010D02*
X4401D01*
X4225Y1150D02*
X4351D01*
X4245Y1050D02*
X4373D01*
X4225Y1100D02*
X4355D01*
X4915Y1000D02*
X5099D01*
X4922Y950D02*
X5160D01*
X4915Y1150D02*
X5039D01*
X4915Y1050D02*
X5061D01*
X4915Y1100D02*
X5043D01*
X4350Y1010D02*
Y1159D01*
X4227Y1283D02*
X4351Y1158D01*
X4225Y1200D02*
X4309D01*
X4658Y1300D02*
X4675D01*
X4915Y957D02*
Y1283D01*
X4917Y1281D02*
X5040Y1158D01*
X4675Y1286D02*
Y1349D01*
X4915Y1200D02*
X4998D01*
X4915Y1250D02*
X4948D01*
X4998Y788D02*
Y824D01*
Y788D02*
X5167Y957D01*
X5100Y890D02*
Y999D01*
X5150Y940D02*
Y964D01*
X6255Y893D02*
X6265Y903D01*
X6300Y893D02*
Y985D01*
X5000Y790D02*
Y1198D01*
X5050Y840D02*
Y1076D01*
X5700Y970D02*
Y1186D01*
X5650Y970D02*
Y1236D01*
X6400Y893D02*
Y1175D01*
X6450Y893D02*
Y1030D01*
X5750Y970D02*
Y1049D01*
X6350Y893D02*
Y1225D01*
X6255Y893D02*
X6593D01*
X6852Y812D02*
X6942Y903D01*
X6600Y900D02*
Y946D01*
X6262Y900D02*
X6600D01*
X6900Y812D02*
Y860D01*
X6852Y812D02*
X7200D01*
X6950D02*
Y911D01*
X6890Y850D02*
X7238D01*
X6940Y900D02*
X7288D01*
X6550Y893D02*
Y955D01*
X6593Y893D02*
X6650Y949D01*
X6500Y893D02*
Y980D01*
X6294Y950D02*
X6569D01*
X7000Y812D02*
Y1263D01*
X7050Y812D02*
Y1213D01*
X6971Y950D02*
X7257D01*
X5606Y970D02*
X5828D01*
X5608Y1050D02*
X5750D01*
X5608Y1000D02*
X5787D01*
X5608Y1100D02*
X5732D01*
X5800Y970D02*
Y989D01*
X5608Y1250D02*
X5636D01*
X5608Y1150D02*
X5728D01*
X5608Y1200D02*
X5686D01*
X5608Y988D02*
Y1279D01*
X5350Y1297D02*
Y1363D01*
X5346Y1300D02*
X5367D01*
Y1283D02*
Y1345D01*
X5612Y1274D02*
X5728Y1158D01*
X6050Y1288D02*
Y1351D01*
X6035Y1300D02*
X6060D01*
Y1279D02*
Y1341D01*
X6300Y1050D02*
X6438D01*
X6300Y1000D02*
X6476D01*
X6300Y1200D02*
X6375D01*
X6300Y1100D02*
X6420D01*
X6300Y1150D02*
X6416D01*
X6978Y1050D02*
X7127D01*
X6978Y1000D02*
X7164D01*
X6978Y1200D02*
X7063D01*
X6978Y1100D02*
X7109D01*
X6978Y1150D02*
X7105D01*
X6300Y988D02*
Y1275D01*
X6417Y1158D01*
X6300Y1250D02*
X6325D01*
X6738Y1289D02*
Y1352D01*
X6978Y988D02*
Y1289D01*
X6994Y1269D02*
X7105Y1158D01*
X6978Y1250D02*
X7013D01*
X3055Y1431D02*
X3151Y1335D01*
X3136Y1350D02*
X3297D01*
X3055Y1450D02*
X3197D01*
X3086Y1400D02*
X3247D01*
X3250Y1318D02*
Y1397D01*
X3281Y1300D02*
X3297D01*
X3150Y1336D02*
Y1454D01*
X3200Y1333D02*
Y1447D01*
X3192Y1455D02*
X3297Y1350D01*
X3055Y1431D02*
Y1490D01*
X3100Y1386D02*
Y1466D01*
X3055Y1807D02*
Y1998D01*
X3357Y1700D02*
X3497D01*
X3250Y1826D02*
Y1979D01*
X3300Y1792D02*
Y2012D01*
X3350Y1720D02*
Y2085D01*
X3747Y1427D02*
Y1487D01*
Y1427D02*
X3840Y1335D01*
X3747Y1450D02*
X3886D01*
X3850Y1335D02*
Y1454D01*
X3824Y1350D02*
X3985D01*
X3750Y1424D02*
Y1485D01*
X3774Y1400D02*
X3936D01*
X3800Y1374D02*
Y1462D01*
X3387Y1600D02*
X3497D01*
X3362Y1625D02*
X3497Y1489D01*
X3291Y1800D02*
X3497D01*
X3364Y1650D02*
X3497D01*
X3335Y1750D02*
X3497D01*
X3437Y1550D02*
X3497D01*
X3487Y1500D02*
X3497D01*
X3747Y1810D02*
Y1995D01*
X3750Y1811D02*
Y1993D01*
X3100Y1831D02*
Y1974D01*
X3055Y1850D02*
X3497D01*
X3055Y1950D02*
X3497D01*
X3055Y1900D02*
X3497D01*
X3150Y1843D02*
Y1962D01*
X3200Y1841D02*
Y1964D01*
X3355Y2100D02*
X3497D01*
X3285Y2000D02*
X3497D01*
X3332Y2050D02*
X3497D01*
X3055Y2500D02*
X3064D01*
X3055Y2350D02*
X3145D01*
X3100Y2339D02*
Y2482D01*
X3359Y2200D02*
X3497D01*
X3363Y2150D02*
X3497D01*
X3150Y2351D02*
Y2470D01*
X3200Y2349D02*
Y2472D01*
X3250Y2334D02*
Y2487D01*
X3747Y1950D02*
X4190D01*
X3747Y1900D02*
X4190D01*
X3301Y2300D02*
X3497D01*
X3340Y2250D02*
X3497D01*
X3800Y1835D02*
Y1970D01*
X3850Y1843D02*
Y1962D01*
X3747Y1850D02*
X4190D01*
X3881Y2350D02*
X4190D01*
X3192D02*
X3497D01*
X3273Y2500D02*
X3497D01*
X3055Y2400D02*
X3497D01*
X3055Y2450D02*
X3497D01*
X3800Y2343D02*
Y2478D01*
X3747Y2350D02*
X3834D01*
X3850Y2351D02*
Y2470D01*
X3747Y2400D02*
X4190D01*
X3747Y2450D02*
X4190D01*
X3950Y1312D02*
Y1386D01*
X3969Y1300D02*
X3985D01*
X3900Y1331D02*
Y1436D01*
X3881Y1455D02*
X3985Y1351D01*
X4500Y1363D02*
Y1459D01*
X4440Y1423D02*
X4528Y1335D01*
X4175Y1500D02*
X4190D01*
X4450Y1413D02*
Y1478D01*
X4440Y1423D02*
Y1484D01*
X4050Y1677D02*
Y2128D01*
X4045Y1700D02*
X4190D01*
X4000Y1781D02*
Y2024D01*
X4024Y1750D02*
X4190D01*
X3980Y1800D02*
X4190D01*
X4051Y1625D02*
X4190Y1485D01*
X4125Y1550D02*
X4190D01*
X4075Y1600D02*
X4190D01*
X4052Y1650D02*
X4190D01*
X4463Y1400D02*
X4624D01*
X4513Y1350D02*
X4674D01*
X4440Y1450D02*
X4574D01*
X4600Y1328D02*
Y1424D01*
X4650Y1305D02*
Y1374D01*
X4550Y1335D02*
Y1453D01*
X4569Y1455D02*
X4675Y1349D01*
X4864Y1500D02*
X4880D01*
X4734Y1700D02*
X4880D01*
X4700Y1767D02*
Y2037D01*
X4712Y1750D02*
X4880D01*
X4668Y1800D02*
X4880D01*
X4739Y1625D02*
X4880Y1484D01*
X4814Y1550D02*
X4880D01*
X4764Y1600D02*
X4880D01*
X4741Y1650D02*
X4880D01*
X3900Y1839D02*
Y1966D01*
X3950Y1820D02*
Y1985D01*
X4020Y2050D02*
X4190D01*
X3974Y2000D02*
X4190D01*
X4440Y1812D02*
Y1992D01*
X4450Y1818D02*
Y1986D01*
X4052Y2150D02*
X4190D01*
X4500Y1838D02*
Y1967D01*
X4044Y2100D02*
X4190D01*
X3989Y2300D02*
X4190D01*
X4028Y2250D02*
X4190D01*
X3900Y2347D02*
Y2474D01*
X3950Y2328D02*
Y2493D01*
X3962Y2500D02*
X4190D01*
X4047Y2200D02*
X4190D01*
X4450Y2326D02*
Y2494D01*
X4500Y2346D02*
Y2475D01*
X4440Y2350D02*
X4522D01*
X4550Y2351D02*
Y2469D01*
Y1843D02*
Y1961D01*
X4600Y1836D02*
Y1969D01*
X4440Y1950D02*
X4880D01*
X4440Y1850D02*
X4880D01*
X4440Y1900D02*
X4880D01*
X4650Y1813D02*
Y1992D01*
X4662Y2000D02*
X4880D01*
X4740Y2150D02*
X4880D01*
X4709Y2050D02*
X4880D01*
X4732Y2100D02*
X4880D01*
X4440Y2450D02*
X4880D01*
X4569Y2350D02*
X4880D01*
X4440Y2400D02*
X4880D01*
X4717Y2250D02*
X4880D01*
X4736Y2200D02*
X4880D01*
X4600Y2344D02*
Y2477D01*
X4677Y2300D02*
X4880D01*
X4650Y2321D02*
Y2500D01*
X3300Y2300D02*
Y2520D01*
X3350Y2228D02*
Y2593D01*
X3055Y2315D02*
Y2506D01*
X3450Y1537D02*
Y2711D01*
X3497Y1489D02*
Y2663D01*
X3360Y2700D02*
X3461D01*
X3353Y2600D02*
X3497D01*
X3363Y2650D02*
X3497D01*
X3273Y2888D02*
X3497Y2663D01*
X3290Y2850D02*
X3311D01*
X3350Y2736D02*
Y2811D01*
X3400Y1587D02*
Y2761D01*
X3300Y2808D02*
Y2861D01*
X3344Y2750D02*
X3411D01*
X3309Y2800D02*
X3361D01*
X3327Y2550D02*
X3497D01*
X3564Y3300D02*
X3638D01*
X3614Y3250D02*
X3639D01*
X3747Y2318D02*
Y2503D01*
X3750Y2319D02*
Y2501D01*
X3776Y3088D02*
X3945Y2919D01*
X3558Y3307D02*
Y3375D01*
Y3350D02*
X3638D01*
X3550Y3429D02*
Y3700D01*
X3556Y3400D02*
X3639D01*
X3600Y3264D02*
Y3700D01*
X3558Y3307D02*
X3646Y3218D01*
X3638Y3275D02*
Y3375D01*
X3650Y3444D02*
Y3700D01*
X2399Y3550D02*
X2576D01*
X2312Y3570D02*
Y3700D01*
X2350Y3566D02*
Y3700D01*
X2500Y3483D02*
Y3700D01*
X2462Y3500D02*
X2513D01*
X2812D02*
X2863D01*
X2749Y3550D02*
X2926D01*
X2450Y3513D02*
Y3700D01*
X2550Y3534D02*
Y3700D01*
X2400Y3549D02*
Y3700D01*
X2650Y3570D02*
Y3700D01*
X2600Y3560D02*
Y3700D01*
X2800Y3513D02*
Y3700D01*
X2850Y3483D02*
Y3700D01*
X2700Y3566D02*
Y3700D01*
X2900Y3534D02*
Y3700D01*
X2750Y3549D02*
Y3700D01*
X3150Y3513D02*
Y3700D01*
X2950Y3560D02*
Y3700D01*
X3099Y3550D02*
X3276D01*
X3000Y3570D02*
Y3700D01*
X3200Y3483D02*
Y3700D01*
X3543Y3450D02*
X3652D01*
X3162Y3500D02*
X3213D01*
X3512D02*
X3683D01*
X3449Y3550D02*
X3746D01*
X3100Y3549D02*
Y3700D01*
X3250Y3534D02*
Y3700D01*
X3050Y3566D02*
Y3700D01*
X3350Y3570D02*
Y3700D01*
X3300Y3560D02*
Y3700D01*
X3500Y3513D02*
Y3700D01*
X3700Y3518D02*
Y3700D01*
X3400Y3566D02*
Y3700D01*
X3750Y3552D02*
Y3700D01*
X3450Y3549D02*
Y3700D01*
X4000Y2289D02*
Y2532D01*
X3982Y2814D02*
Y2830D01*
X3997Y2800D02*
X4181D01*
X4050Y2185D02*
Y2636D01*
X4190Y1485D02*
Y2791D01*
X4052Y2650D02*
X4190D01*
X4015Y2550D02*
X4190D01*
X4041Y2600D02*
X4190D01*
X3950Y2914D02*
Y3031D01*
X3961Y2900D02*
X4081D01*
X3914Y2950D02*
X4031D01*
X4100Y1575D02*
Y2881D01*
X4150Y1525D02*
Y2831D01*
X4000Y2797D02*
Y2981D01*
X3981Y2850D02*
X4131D01*
X4050Y2693D02*
Y2931D01*
X4440Y2320D02*
Y2500D01*
X4032Y2750D02*
X4190D01*
X4049Y2700D02*
X4190D01*
X4700Y2275D02*
Y2545D01*
X4650Y2500D02*
X4880D01*
X4686Y2800D02*
X4880D01*
X4740Y2650D02*
X4880D01*
X4737Y2700D02*
X4880D01*
X3892Y3089D02*
X4190Y2791D01*
X4671Y2814D02*
Y2962D01*
Y2850D02*
X4831D01*
X4671Y2900D02*
X4781D01*
X4850Y1514D02*
Y2831D01*
X4880Y1484D02*
Y2801D01*
X4700Y2783D02*
Y2981D01*
X4800Y1564D02*
Y2881D01*
X4750Y1614D02*
Y2931D01*
X3850Y3014D02*
Y3081D01*
X3814Y3050D02*
X3931D01*
X3800Y3567D02*
Y3700D01*
Y3064D02*
Y3083D01*
X3900Y2964D02*
Y3081D01*
X3864Y3000D02*
X3981D01*
X3950Y3531D02*
Y3700D01*
X3982Y3500D02*
X4033D01*
X3919Y3550D02*
X4096D01*
X4000Y3475D02*
Y3700D01*
X4050Y3518D02*
Y3700D01*
X3850Y3569D02*
Y3700D01*
X4100Y3552D02*
Y3700D01*
X3900Y3558D02*
Y3700D01*
X4300Y3531D02*
Y3700D01*
X4350Y3475D02*
Y3700D01*
X4150Y3567D02*
Y3700D01*
X4250Y3558D02*
Y3700D01*
X4200Y3569D02*
Y3700D01*
X4332Y3500D02*
X4383D01*
X4619Y3550D02*
X4796D01*
X4269D02*
X4446D01*
X4671Y2950D02*
X4731D01*
X4665Y3000D02*
X4681D01*
X4682Y3500D02*
X4733D01*
X4400Y3518D02*
Y3700D01*
X4450Y3552D02*
Y3700D01*
X4500Y3567D02*
Y3700D01*
X4600Y3558D02*
Y3700D01*
X4550Y3569D02*
Y3700D01*
X4700Y3475D02*
Y3700D01*
X4750Y3518D02*
Y3700D01*
X4650Y3531D02*
Y3700D01*
X4850Y3567D02*
Y3700D01*
X4800Y3552D02*
Y3700D01*
X5130Y1421D02*
X5217Y1335D01*
X5151Y1400D02*
X5313D01*
X5150Y1401D02*
Y1472D01*
X5130Y1450D02*
X5263D01*
X5250Y1335D02*
Y1454D01*
X5300Y1324D02*
Y1413D01*
X5200Y1351D02*
Y1456D01*
X5201Y1350D02*
X5363D01*
X5258Y1455D02*
X5367Y1345D01*
X5130Y1421D02*
Y1483D01*
Y1813D02*
Y1991D01*
X5150Y1824D02*
Y1980D01*
X5428Y1625D02*
X5572Y1480D01*
X5300Y1832D02*
Y1973D01*
X5350Y1805D02*
Y2000D01*
X5400Y1751D02*
Y2054D01*
X5825Y1415D02*
Y1479D01*
Y1415D02*
X5905Y1335D01*
X5825Y1450D02*
X5951D01*
X5900Y1340D02*
Y1455D01*
X5946Y1455D02*
X6060Y1341D01*
X5850Y1390D02*
Y1467D01*
X5890Y1350D02*
X6051D01*
X5840Y1400D02*
X6001D01*
X5429Y1650D02*
X5575D01*
X5452Y1600D02*
X5575D01*
X5357Y1800D02*
X5575D01*
X5422Y1700D02*
X5575D01*
X5400Y1750D02*
X5575D01*
X5502Y1550D02*
X5575D01*
X5552Y1500D02*
X5575D01*
X5825Y1817D02*
Y1987D01*
X5850Y1829D02*
Y1975D01*
X5130Y1900D02*
X5575D01*
X5130Y1850D02*
X5575D01*
X5130Y1950D02*
X5575D01*
X5200Y1840D02*
Y1964D01*
X5250Y1843D02*
Y1962D01*
X5429Y2150D02*
X5575D01*
X5350Y2000D02*
X5575D01*
X5421Y2100D02*
X5575D01*
X5130Y2321D02*
Y2499D01*
X5150Y2332D02*
Y2488D01*
X5130Y2350D02*
X5210D01*
X5200Y2348D02*
Y2472D01*
X5405Y2250D02*
X5575D01*
X5424Y2200D02*
X5575D01*
X5250Y2351D02*
Y2470D01*
X5300Y2340D02*
Y2481D01*
X5350Y2313D02*
Y2508D01*
X5825Y1950D02*
X6258D01*
X5825Y1850D02*
X6258D01*
X5257Y2350D02*
X5575D01*
X5397Y2050D02*
X5575D01*
X5366Y2300D02*
X5575D01*
X5900Y1842D02*
Y1963D01*
X5825Y1900D02*
X6258D01*
X5825Y2350D02*
X5899D01*
X5946D02*
X6258D01*
X5130Y2400D02*
X5575D01*
X5825D02*
X6258D01*
X5130Y2450D02*
X5575D01*
X5825D02*
X6258D01*
X5339Y2500D02*
X5575D01*
X5825Y2325D02*
Y2495D01*
X5850Y2337D02*
Y2483D01*
X5900Y2350D02*
Y2471D01*
X5950Y2349D02*
Y2471D01*
Y1333D02*
Y1451D01*
X6000Y1319D02*
Y1401D01*
X6507Y1421D02*
X6593Y1335D01*
X6507Y1450D02*
X6640D01*
X6600Y1335D02*
Y1454D01*
X6650Y1331D02*
Y1440D01*
X6507Y1421D02*
Y1483D01*
X6550Y1378D02*
Y1463D01*
X6111Y1700D02*
X6258D01*
X6050Y1796D02*
Y2009D01*
X6089Y1750D02*
X6258D01*
X6100Y1729D02*
Y2076D01*
X6241Y1500D02*
X6258D01*
X6116Y1625D02*
X6258Y1483D01*
X6117Y1650D02*
X6258D01*
X6191Y1550D02*
X6258D01*
X6141Y1600D02*
X6258D01*
X6700Y1314D02*
Y1390D01*
X6578Y1350D02*
X6738D01*
X6528Y1400D02*
X6690D01*
X6635Y1455D02*
X6738Y1352D01*
X6723Y1300D02*
X6738D01*
X6879Y1550D02*
X6957D01*
X6929Y1500D02*
X6957D01*
X6799Y1700D02*
X6957D01*
X6750Y1785D02*
Y2020D01*
X6777Y1750D02*
X6957D01*
X6734Y1800D02*
X6957D01*
X6804Y1625D02*
X6942Y1487D01*
X6829Y1600D02*
X6957D01*
X6800Y1696D02*
Y2109D01*
X6806Y1650D02*
X6957D01*
X6000Y1827D02*
Y1977D01*
X6045Y1800D02*
X6258D01*
X5950Y1841D02*
Y1963D01*
X6039Y2000D02*
X6258D01*
X6507Y1814D02*
Y1991D01*
X6550Y1834D02*
Y1971D01*
X6109Y2100D02*
X6258D01*
X6600Y1843D02*
Y1962D01*
X6086Y2050D02*
X6258D01*
X6094Y2250D02*
X6258D01*
X6113Y2200D02*
X6258D01*
X6000Y2335D02*
Y2485D01*
X6054Y2300D02*
X6258D01*
X6027Y2500D02*
X6258D01*
X6117Y2150D02*
X6258D01*
X6507Y2322D02*
Y2499D01*
X6550Y2342D02*
Y2479D01*
X6507Y2350D02*
X6587D01*
X6600Y2351D02*
Y2470D01*
X6650Y1839D02*
Y1965D01*
X6507Y1850D02*
X6957D01*
X6507Y1900D02*
X6957D01*
X6507Y1950D02*
X6957D01*
X6700Y1822D02*
Y1983D01*
X6727Y2000D02*
X6957D01*
X6806Y2150D02*
X6957D01*
X6774Y2050D02*
X6957D01*
X6798Y2100D02*
X6957D01*
X6650Y2347D02*
Y2473D01*
X6507Y2450D02*
X6957D01*
X6634Y2350D02*
X6957D01*
X6507Y2400D02*
X6957D01*
X6782Y2250D02*
X6957D01*
X6801Y2200D02*
X6957D01*
X6700Y2330D02*
Y2491D01*
X6743Y2300D02*
X6957D01*
X6716Y2500D02*
X6957D01*
X4703Y2550D02*
X4880D01*
X4721Y2750D02*
X4880D01*
X4730Y2600D02*
X4880D01*
X5550Y1502D02*
Y2831D01*
X5575Y1477D02*
Y2806D01*
X5400Y2259D02*
Y2562D01*
X5359Y2850D02*
X5531D01*
X4650Y3031D02*
X4880Y2801D01*
X5359Y2950D02*
X5431D01*
X5356Y3000D02*
X5381D01*
X5450Y1602D02*
Y2931D01*
X5500Y1552D02*
Y2881D01*
X5359Y2814D02*
Y2974D01*
Y2900D02*
X5481D01*
X5400Y2767D02*
Y2981D01*
X5418Y2600D02*
X5575D01*
X5392Y2550D02*
X5575D01*
X5374Y2800D02*
X5575D01*
X5409Y2750D02*
X5575D01*
X6050Y2304D02*
Y2517D01*
X5428Y2650D02*
X5575D01*
X5426Y2700D02*
X5575D01*
X5338Y3042D02*
X5575Y2806D01*
X6027Y3054D02*
X6258Y2823D01*
X6047Y3000D02*
X6081D01*
X6047Y2814D02*
Y2985D01*
X6050Y2812D02*
Y3031D01*
X6047Y2950D02*
X6131D01*
X6047Y2850D02*
X6231D01*
X6047Y2900D02*
X6181D01*
X5032Y3500D02*
X5083D01*
X4950Y3558D02*
Y3700D01*
X4969Y3550D02*
X5146D01*
X5350Y3020D02*
Y3031D01*
X5100Y3518D02*
Y3700D01*
X5382Y3500D02*
X5433D01*
X5319Y3550D02*
X5496D01*
X5000Y3531D02*
Y3700D01*
X5050Y3475D02*
Y3700D01*
X4900Y3569D02*
Y3700D01*
X5200Y3567D02*
Y3700D01*
X5150Y3552D02*
Y3700D01*
X5400Y3475D02*
Y3700D01*
X5450Y3518D02*
Y3700D01*
X5250Y3569D02*
Y3700D01*
X5350Y3531D02*
Y3700D01*
X5300Y3558D02*
Y3700D01*
X5669Y3550D02*
X5846D01*
X2312Y3700D02*
X12450D01*
X2312Y3600D02*
X12450D01*
X2312Y3650D02*
X12450D01*
X5750Y3475D02*
Y3700D01*
X5700Y3531D02*
Y3700D01*
X5732Y3500D02*
X5783D01*
X6019Y3550D02*
X6196D01*
X5500Y3552D02*
Y3700D01*
X5650Y3558D02*
Y3700D01*
X5550Y3567D02*
Y3700D01*
X2312D02*
X12450D01*
X5600Y3569D02*
Y3700D01*
X5800Y3518D02*
Y3700D01*
X5850Y3552D02*
Y3700D01*
X5900Y3567D02*
Y3700D01*
X6000Y3558D02*
Y3700D01*
X5950Y3569D02*
Y3700D01*
X6100Y2237D02*
Y2584D01*
X6080Y2550D02*
X6258D01*
X6063Y2800D02*
X6258D01*
X6098Y2750D02*
X6258D01*
X6750Y2293D02*
Y2528D01*
X6800Y2204D02*
Y2617D01*
X6114Y2700D02*
X6258D01*
X6106Y2600D02*
X6258D01*
X6117Y2650D02*
X6258D01*
X6250Y1491D02*
Y2831D01*
X6258Y1483D02*
Y2823D01*
X6100Y2745D02*
Y2981D01*
X6200Y1541D02*
Y2881D01*
X6150Y1591D02*
Y2931D01*
X6750Y2801D02*
Y3080D01*
X6800Y2712D02*
Y3086D01*
X6736Y2814D02*
Y2997D01*
Y2850D02*
X6957D01*
X6751Y2800D02*
X6957D01*
X6795Y2600D02*
X6957D01*
X6769Y2550D02*
X6957D01*
X6786Y2750D02*
X6957D01*
X6805Y2650D02*
X6957D01*
X6803Y2700D02*
X6957D01*
X6736Y2950D02*
X6951D01*
X6736Y2900D02*
X6957D01*
X6736Y3000D02*
X6901D01*
X6724Y3050D02*
X6851D01*
X6950Y1478D02*
Y2951D01*
X6957Y1468D02*
Y2943D01*
X6850Y1579D02*
Y3051D01*
X6900Y1529D02*
Y3001D01*
X6812Y3089D02*
X6957Y2943D01*
X6476Y3400D02*
X6559D01*
X6082Y3500D02*
X6133D01*
X6200Y3552D02*
Y3700D01*
X6558Y3275D02*
Y3375D01*
X6534Y3250D02*
X6559D01*
X6478Y3307D02*
Y3375D01*
X6484Y3300D02*
X6558D01*
X6478Y3350D02*
X6558D01*
X6100Y3475D02*
Y3700D01*
X6150Y3518D02*
Y3700D01*
X6050Y3531D02*
Y3700D01*
X6300Y3569D02*
Y3700D01*
X6250Y3567D02*
Y3700D01*
X6500Y3284D02*
Y3700D01*
X6550Y3234D02*
Y3700D01*
X6350Y3558D02*
Y3700D01*
X6450Y3475D02*
Y3700D01*
X6400Y3531D02*
Y3700D01*
X6478Y3307D02*
X6566Y3218D01*
X6463Y3450D02*
X6572D01*
X6432Y3500D02*
X6603D01*
X6369Y3550D02*
X6666D01*
X6700Y3563D02*
Y3700D01*
X6902Y3500D02*
X6953D01*
X6839Y3550D02*
X7016D01*
X6600Y3496D02*
Y3700D01*
X6650Y3541D02*
Y3700D01*
X6750Y3570D02*
Y3700D01*
X6850Y3544D02*
Y3700D01*
X6800Y3564D02*
Y3700D01*
X6900Y3503D02*
Y3700D01*
X6950Y3496D02*
Y3700D01*
X7000Y3541D02*
Y3700D01*
X7100Y3570D02*
Y3700D01*
X7050Y3563D02*
Y3700D01*
X7150Y-305D02*
Y-294D01*
X7139Y-305D02*
X7448D01*
X7194Y-250D02*
X7393D01*
X7144Y-300D02*
X7443D01*
X7200Y-305D02*
Y-244D01*
X7250Y-305D02*
Y-194D01*
X7244Y-200D02*
X7343D01*
X7400Y-305D02*
Y-257D01*
X7350Y-305D02*
Y-207D01*
X7139Y-305D02*
X7294Y-151D01*
X7200Y476D02*
Y572D01*
X7234Y450D02*
X7249D01*
X7250Y451D02*
Y572D01*
X7300Y-305D02*
Y-157D01*
X7294Y-151D02*
X7448Y-305D01*
X7500Y447D02*
Y773D01*
X7488Y450D02*
X7503D01*
X8250Y196D02*
Y208D01*
X8246Y200D02*
X8678D01*
X8300Y185D02*
Y315D01*
X8260Y185D02*
X8664D01*
X8281Y250D02*
X8728D01*
X8298Y300D02*
X8778D01*
X8299Y350D02*
X9232D01*
X7742Y450D02*
X7757D01*
X7996D02*
X8011D01*
X8000Y446D02*
Y946D01*
X8300Y344D02*
Y723D01*
X8350Y185D02*
Y673D01*
X8250Y450D02*
Y773D01*
X8285Y400D02*
X9232D01*
X8250Y450D02*
X9232D01*
X7100Y499D02*
Y572D01*
X7150Y496D02*
Y572D01*
X7450Y479D02*
Y723D01*
X7550Y483D02*
Y823D01*
X7300Y485D02*
Y583D01*
X7350Y498D02*
Y623D01*
X7400Y496D02*
Y673D01*
X7200Y812D02*
X7337Y949D01*
X7335Y608D02*
X7617Y890D01*
X7200Y812D02*
Y973D01*
X7300Y912D02*
Y945D01*
X7250Y862D02*
Y952D01*
X7600Y498D02*
Y873D01*
X7650Y497D02*
Y951D01*
X7653Y1000D02*
X7853D01*
X7377Y650D02*
X8373D01*
X7326Y600D02*
X9163D01*
X7477Y750D02*
X8273D01*
X7427Y700D02*
X8323D01*
X8150Y498D02*
Y873D01*
X8200Y485D02*
Y823D01*
X7577Y850D02*
X8173D01*
X7527Y800D02*
X8223D01*
X8143Y880D02*
X8383Y640D01*
X7900Y498D02*
Y966D01*
X7950Y483D02*
Y949D01*
X7650Y950D02*
X7946D01*
X7626Y900D02*
X8127D01*
X8030Y950D02*
X8108D01*
X8050Y479D02*
Y956D01*
X8100Y497D02*
Y981D01*
X8107Y965D02*
Y986D01*
X8500Y185D02*
Y605D01*
X8550Y185D02*
Y605D01*
X8700Y222D02*
Y605D01*
X8664Y185D02*
X8793Y315D01*
X9000Y-305D02*
Y-256D01*
X9050Y-305D02*
Y-206D01*
X8750Y272D02*
Y605D01*
X8400Y185D02*
Y626D01*
X8450Y185D02*
Y606D01*
X8600Y185D02*
Y605D01*
X8800Y321D02*
Y605D01*
X8650Y185D02*
Y605D01*
X8850Y345D02*
Y605D01*
X8900Y347D02*
Y605D01*
X8950Y347D02*
Y605D01*
X9050Y347D02*
Y605D01*
X9000Y347D02*
Y605D01*
X8951Y-305D02*
X9053Y-203D01*
X8951Y-305D02*
X9232D01*
X9006Y-250D02*
X9232D01*
X8956Y-300D02*
X9232D01*
X9200Y-305D02*
Y-203D01*
X9232Y-305D02*
Y-203D01*
X9100Y-305D02*
Y-203D01*
X9053D02*
X9232D01*
X9150Y-305D02*
Y-203D01*
X9100Y347D02*
Y605D01*
X8871Y347D02*
X9232D01*
X9150D02*
Y605D01*
X9200Y347D02*
Y563D01*
X9158Y605D02*
X9234Y528D01*
X9232Y347D02*
Y502D01*
X8462Y900D02*
X8812D01*
X8512Y850D02*
X8853D01*
X8850Y845D02*
Y853D01*
X8835Y868D02*
X8858Y845D01*
X8650D02*
Y947D01*
X8517Y845D02*
X8858D01*
X8700D02*
Y947D01*
X8550Y845D02*
Y992D01*
X8600Y845D02*
Y961D01*
X8362Y1000D02*
X8541D01*
X8718Y950D02*
X8800D01*
X8412D02*
X8634D01*
X8750Y845D02*
Y960D01*
X8800Y845D02*
Y990D01*
X8800Y952D02*
Y990D01*
X8468Y605D02*
X9158D01*
X9400Y932D02*
Y949D01*
X9407Y950D02*
X9490D01*
X9417Y917D02*
X9490Y845D01*
X9730Y855D02*
X9793Y917D01*
X9435Y900D02*
X9490D01*
X9730D02*
X9775D01*
X9730Y950D02*
X9853D01*
X9450Y885D02*
Y965D01*
X9042Y1000D02*
X9229D01*
X9090Y952D02*
X9313D01*
X9250D02*
Y983D01*
X9490Y845D02*
Y991D01*
X9878Y952D02*
X10001D01*
X9950D02*
Y975D01*
X7100Y812D02*
Y1163D01*
X7150Y812D02*
Y1015D01*
X7653Y1050D02*
X7815D01*
X7800Y481D02*
Y1088D01*
X7850Y497D02*
Y1002D01*
X7653Y1200D02*
X7751D01*
X7653Y1100D02*
X7797D01*
X7653Y1150D02*
X7793D01*
X7653Y1250D02*
X7701D01*
X7400Y1307D02*
Y1378D01*
X7412Y1299D02*
Y1366D01*
X7700Y481D02*
Y1251D01*
X7750Y443D02*
Y1201D01*
X7653Y975D02*
Y1306D01*
X7674Y1277D02*
X7794Y1158D01*
X8347Y1015D02*
X8517Y845D01*
X8347Y1100D02*
X8486D01*
X8347Y1050D02*
X8504D01*
X8450Y912D02*
Y1190D01*
X8500Y862D02*
Y1057D01*
X8347Y1200D02*
X8440D01*
X8347Y1150D02*
X8482D01*
X8347Y1015D02*
Y1295D01*
Y1250D02*
X8390D01*
X8050Y1325D02*
Y1347D01*
X7937Y1460D02*
X8092Y1305D01*
X8350Y1012D02*
Y1292D01*
X8400Y962D02*
Y1240D01*
X8362Y1278D02*
X8482Y1158D01*
X7250Y1367D02*
Y1460D01*
X7207Y1409D02*
X7282Y1335D01*
X7207Y1450D02*
X7328D01*
X7217Y1400D02*
X7378D01*
X7300Y1335D02*
Y1453D01*
X7350Y1329D02*
Y1428D01*
X7267Y1350D02*
X7412D01*
X7323Y1455D02*
X7412Y1366D01*
X7900Y1405D02*
Y1474D01*
X7207Y1409D02*
Y1476D01*
X7600Y1518D02*
Y3001D01*
X7567Y1550D02*
X7638D01*
X7493Y1625D02*
X7617Y1500D01*
X7888Y1418D02*
Y1481D01*
X7617Y1500D02*
X7638D01*
Y1473D02*
Y2963D01*
X7888Y1418D02*
X7970Y1335D01*
X7955Y1350D02*
X8047D01*
X7888Y1450D02*
X7947D01*
X7905Y1400D02*
X7997D01*
X7950Y1355D02*
Y1447D01*
X8000Y1335D02*
Y1397D01*
X8575Y1450D02*
X8647D01*
X8287D02*
X8325D01*
X8166Y1570D02*
X8312Y1424D01*
X8200Y1537D02*
Y3086D01*
X8237Y1500D02*
X8325D01*
X8187Y1550D02*
X8325D01*
Y1409D02*
Y2976D01*
X8575Y1418D02*
Y1482D01*
X8250Y1487D02*
Y3051D01*
X8300Y1437D02*
Y3001D01*
X9040Y1002D02*
X9090Y952D01*
X9040Y1050D02*
X9192D01*
X9040Y1150D02*
X9170D01*
X9040Y1100D02*
X9174D01*
X9200Y952D02*
Y1036D01*
X9100Y952D02*
Y1228D01*
X9150Y952D02*
Y1178D01*
X9040Y1200D02*
X9128D01*
X9040Y1002D02*
Y1291D01*
Y1250D02*
X9078D01*
X8788Y1300D02*
X8797D01*
X8641Y1457D02*
X8800Y1297D01*
X9050Y992D02*
Y1279D01*
X9054Y1274D02*
X9171Y1158D01*
X9450Y1316D02*
Y1347D01*
X9730Y1050D02*
X9880D01*
X9730Y1000D02*
X9918D01*
X9730Y1150D02*
X9858D01*
X9730Y1100D02*
X9862D01*
X9800Y924D02*
Y1217D01*
X9850Y949D02*
Y1167D01*
X9730Y1200D02*
X9817D01*
X9900Y952D02*
Y1020D01*
X9730Y855D02*
Y1289D01*
X9343Y1455D02*
X9490Y1307D01*
X9477Y1300D02*
X9490D01*
Y1290D02*
Y1307D01*
X9750Y875D02*
Y1267D01*
X9742Y1275D02*
X9859Y1158D01*
X9730Y1250D02*
X9767D01*
X8650Y1344D02*
Y1447D01*
X8575Y1418D02*
X8659Y1335D01*
X8593Y1400D02*
X8697D01*
X8643Y1350D02*
X8747D01*
X8700Y1334D02*
Y1397D01*
X8750Y1321D02*
Y1347D01*
X8987Y1450D02*
X9018D01*
X8600Y1394D02*
Y1469D01*
X8858Y1578D02*
X9005Y1432D01*
X8900Y1537D02*
Y3086D01*
X8937Y1500D02*
X9018D01*
X8887Y1550D02*
X9018D01*
X9268Y1414D02*
Y1479D01*
X9300Y1382D02*
Y1464D01*
X8950Y1487D02*
Y3051D01*
X9018Y1417D02*
Y2983D01*
X9000Y1437D02*
Y3001D01*
X9268Y1414D02*
X9347Y1335D01*
X9350Y1335D02*
Y1447D01*
X9268Y1450D02*
X9347D01*
X9332Y1350D02*
X9447D01*
X9282Y1400D02*
X9397D01*
X9400Y1332D02*
Y1397D01*
X9955Y1415D02*
X10036Y1335D01*
X9687Y1450D02*
X9705D01*
X9550Y1587D02*
X9695Y1442D01*
X9600Y1537D02*
Y3096D01*
X9637Y1500D02*
X9705D01*
X9587Y1550D02*
X9705D01*
X9955Y1415D02*
Y1480D01*
X10000Y1370D02*
Y1461D01*
X9650Y1487D02*
Y3082D01*
X9700Y1436D02*
Y3081D01*
X9705Y1430D02*
Y3082D01*
X10350Y-450D02*
Y-436D01*
X10368Y-100D02*
X10566D01*
X10371Y-367D02*
Y-208D01*
X10600Y-450D02*
Y-195D01*
X10371Y-288D02*
Y-208D01*
Y-150D02*
X10581D01*
X10371Y-208D02*
Y-128D01*
X10344Y-50D02*
X10558D01*
X10300Y-15D02*
Y77D01*
X10500Y-450D02*
Y104D01*
X10550Y-450D02*
Y153D01*
X10350Y-59D02*
Y77D01*
X10400Y-450D02*
Y77D01*
X10450Y-450D02*
Y80D01*
X10850Y-450D02*
Y-419D01*
X10339Y-450D02*
X12450D01*
X10366Y-400D02*
X10805D01*
X10900Y-450D02*
Y-434D01*
X10950Y-450D02*
Y-442D01*
X11050Y-450D02*
Y-442D01*
X11100Y-450D02*
Y-434D01*
X11150Y-450D02*
Y-419D01*
X11195Y-400D02*
X12450D01*
X10371Y-350D02*
X10725D01*
X10371Y-200D02*
X10602D01*
X10371Y-300D02*
X10671D01*
X10371Y-250D02*
X10632D01*
X10800Y-450D02*
Y-398D01*
X11200Y-450D02*
Y-398D01*
X10650Y-450D02*
Y-275D01*
X10750Y-450D02*
Y-368D01*
X10700Y-450D02*
Y-329D01*
X10150Y64D02*
Y84D01*
X10164Y50D02*
X10558D01*
X10188Y77D02*
X10425D01*
X10250Y-3D02*
Y77D01*
X10211Y-0D02*
X10555D01*
X10200Y14D02*
Y77D01*
X9997Y217D02*
X10196Y18D01*
X10034Y181D02*
X10103Y113D01*
X10342Y845D02*
X10350Y853D01*
X10517Y459D02*
X10550Y493D01*
X10350Y845D02*
Y853D01*
X10498Y493D02*
X10550D01*
X10495Y100D02*
X10566D01*
X10510Y113D02*
X10608Y211D01*
X10547Y150D02*
X10581D01*
X10600Y195D02*
Y203D01*
X10922Y732D02*
X11268D01*
X10950D02*
Y760D01*
X11000Y732D02*
Y810D01*
X10940Y750D02*
X11285D01*
X10990Y800D02*
X11335D01*
X10342Y845D02*
X10695D01*
X10922Y732D02*
X11045Y855D01*
X10347Y850D02*
X10700D01*
X10379Y900D02*
X10750D01*
X10750Y900D02*
Y946D01*
X11050Y732D02*
Y861D01*
X11040Y850D02*
X11385D01*
X11073Y900D02*
X11435D01*
X11250Y-450D02*
Y-368D01*
X11300Y-450D02*
Y-329D01*
X11350Y-450D02*
Y-275D01*
X11400Y195D02*
Y378D01*
X11550Y-450D02*
Y378D01*
X11600Y-450D02*
Y378D01*
X11400Y-450D02*
Y-195D01*
X11500Y-450D02*
Y378D01*
X11450Y-450D02*
Y378D01*
X11800Y-450D02*
Y378D01*
X11850Y-450D02*
Y378D01*
X11650Y-450D02*
Y378D01*
X11750Y-450D02*
Y378D01*
X11700Y-450D02*
Y378D01*
X12050Y-450D02*
Y502D01*
X12100Y-450D02*
Y552D01*
X11900Y-450D02*
Y380D01*
X11950Y-450D02*
Y403D01*
X12000Y-450D02*
Y452D01*
X11329Y-300D02*
X12450D01*
X11275Y-350D02*
X12450D01*
X11398Y-200D02*
X12450D01*
X11368Y-250D02*
X12450D01*
X11434Y-100D02*
X12450D01*
X11419Y-150D02*
X12450D01*
X11442Y50D02*
X12450D01*
X11442Y-50D02*
X12450D01*
X11445Y-0D02*
X12450D01*
X12200Y-450D02*
Y652D01*
X12250Y-450D02*
Y702D01*
X12150Y-450D02*
Y602D01*
X11434Y100D02*
X12450D01*
X11419Y150D02*
X12450D01*
X12450Y-450D02*
Y917D01*
X12450Y-450D02*
Y917D01*
X12300Y-450D02*
Y752D01*
X12350Y-450D02*
Y802D01*
X12400Y-450D02*
Y852D01*
X11300Y329D02*
Y378D01*
X11350Y275D02*
Y378D01*
X11250Y368D02*
Y378D01*
X11236D02*
X11876D01*
X11500Y618D02*
Y625D01*
X11492Y618D02*
X11826D01*
X11525Y650D02*
X11859D01*
X11550Y618D02*
Y675D01*
X11600Y618D02*
Y725D01*
X11492Y618D02*
X11740Y865D01*
X11575Y700D02*
X11909D01*
X11625Y750D02*
X11959D01*
X11650Y618D02*
Y775D01*
X11700Y618D02*
Y825D01*
X11750Y618D02*
Y877D01*
X11675Y800D02*
X12009D01*
X11725Y850D02*
X12059D01*
X11368Y250D02*
X12450D01*
X11398Y200D02*
X12450D01*
X11946Y400D02*
X12450D01*
X11329Y300D02*
X12450D01*
X11275Y350D02*
X12450D01*
X12048Y500D02*
X12450D01*
X11998Y450D02*
X12450D01*
X12198Y650D02*
X12450D01*
X12098Y550D02*
X12450D01*
X12148Y600D02*
X12450D01*
X11961Y413D02*
X12422Y874D01*
X12248Y700D02*
X12450D01*
X12100Y891D02*
Y946D01*
X12298Y750D02*
X12450D01*
X11764Y900D02*
X12109D01*
X12398Y850D02*
X12450D01*
X12348Y800D02*
X12450D01*
X12442Y900D02*
X12450D01*
X10385Y1050D02*
X10569D01*
X10385Y1000D02*
X10606D01*
X10385Y1200D02*
X10505D01*
X10385Y1100D02*
X10551D01*
X10600Y845D02*
Y1006D01*
X10650Y845D02*
Y968D01*
X10500Y845D02*
Y1205D01*
X10550Y845D02*
Y1105D01*
X10385Y1150D02*
X10547D01*
X10385Y938D02*
Y1402D01*
Y1250D02*
X10455D01*
X10145Y1312D02*
Y1352D01*
X10385Y1300D02*
X10414D01*
X10400Y845D02*
Y3081D01*
X10450Y845D02*
Y1255D01*
X10437Y1269D02*
X10547Y1158D01*
X10700Y850D02*
Y950D01*
X10695Y845D02*
X10807Y957D01*
X10385Y950D02*
X10700D01*
X10784D02*
X10800D01*
X11080Y1000D02*
X11295D01*
X11080Y950D02*
X11388D01*
X11080Y1150D02*
X11235D01*
X11080Y1050D02*
X11257D01*
X11080Y1100D02*
X11239D01*
X11080Y1200D02*
X11194D01*
X10840Y1309D02*
Y1357D01*
X11080Y1300D02*
X11103D01*
X11080Y940D02*
Y1407D01*
X11100Y732D02*
Y1307D01*
X11080Y1250D02*
X11144D01*
X10044Y1454D02*
X10145Y1352D01*
X10020Y1350D02*
X10145D01*
X9955Y1450D02*
X10047D01*
X9970Y1400D02*
X10097D01*
X10050Y1335D02*
Y1447D01*
X10100Y1330D02*
Y1397D01*
X10375Y1450D02*
X10400D01*
X10385Y1350D02*
X10400D01*
X10385Y1400D02*
X10400D01*
X10241Y1596D02*
X10350Y1487D01*
X10300Y1537D02*
Y3096D01*
X10337Y1500D02*
X10400D01*
X10287Y1550D02*
X10400D01*
Y1357D02*
Y3081D01*
X10350Y1487D02*
Y3082D01*
X10650Y1409D02*
Y1476D01*
Y1409D02*
X10724Y1335D01*
X10709Y1350D02*
X10840D01*
X10650Y1450D02*
X10747D01*
X10659Y1400D02*
X10797D01*
X10744Y1453D02*
X10840Y1357D01*
X10750Y1335D02*
Y1447D01*
X10800Y1326D02*
Y1397D01*
X11072Y1450D02*
X11090D01*
X11080Y1350D02*
X11090D01*
X11080Y1400D02*
X11090D01*
X10700Y1359D02*
Y1458D01*
X11000Y1537D02*
Y3096D01*
X10987Y1550D02*
X11090D01*
X10932Y1605D02*
X11045Y1492D01*
X11090Y1356D02*
Y3080D01*
X11050Y1486D02*
Y3082D01*
X11037Y1500D02*
X11090D01*
X11250Y732D02*
Y1066D01*
X11268Y732D02*
X11490Y955D01*
X11300Y765D02*
Y995D01*
X11350Y815D02*
Y963D01*
X11400Y865D02*
Y948D01*
X11450Y915D02*
Y946D01*
X11472Y950D02*
X11485D01*
X11150Y732D02*
Y1244D01*
X11200Y732D02*
Y1194D01*
X11127Y1267D02*
X11236Y1158D01*
X11775Y950D02*
Y1358D01*
X11800Y618D02*
Y1284D01*
X11535Y1305D02*
Y1362D01*
X11775Y1300D02*
X11790D01*
X11775Y1000D02*
X11983D01*
X11775Y950D02*
X12077D01*
X11775Y1150D02*
X11924D01*
X11775Y1050D02*
X11946D01*
X11950Y741D02*
Y1042D01*
X11826Y618D02*
X12159Y950D01*
X11775Y1100D02*
X11928D01*
X12050Y841D02*
Y958D01*
X12000Y791D02*
Y986D01*
X11850Y641D02*
Y1232D01*
X11812Y1271D02*
X11924Y1158D01*
X11775Y1200D02*
X11882D01*
X11775Y1250D02*
X11832D01*
X11900Y691D02*
Y1182D01*
X12200Y1318D02*
Y1397D01*
X12218Y1308D02*
Y1380D01*
X11340Y1407D02*
X11413Y1335D01*
X11397Y1350D02*
X11535D01*
X11340Y1450D02*
X11447D01*
X11347Y1400D02*
X11497D01*
X11450Y1334D02*
Y1447D01*
X11500Y1322D02*
Y1397D01*
X11400Y1347D02*
Y1456D01*
X11775Y1359D02*
Y1412D01*
X11443Y1454D02*
X11535Y1362D01*
X11340Y1407D02*
Y1475D01*
X11350Y1397D02*
Y1471D01*
X11622Y1615D02*
X11740Y1497D01*
X11700Y1537D02*
Y3096D01*
X11750Y1485D02*
Y3082D01*
X11737Y1500D02*
X11775D01*
Y1412D02*
Y3080D01*
X11775Y1360D02*
Y1412D01*
X12025Y1411D02*
X12101Y1335D01*
X12036Y1400D02*
X12197D01*
X12025Y1450D02*
X12147D01*
X12100Y1336D02*
Y1454D01*
X12150Y1333D02*
Y1447D01*
X12050Y1386D02*
Y1466D01*
X12086Y1350D02*
X12218D01*
X12142Y1455D02*
X12218Y1380D01*
X12025Y1411D02*
Y1477D01*
X12312Y1625D02*
X12422Y1514D01*
X11687Y1550D02*
X11775D01*
X12387D02*
X12450D01*
X12400Y1537D02*
Y3700D01*
X12450Y1471D02*
Y3700D01*
X12435Y1500D02*
X12450D01*
Y1471D02*
Y3700D01*
X7422Y1800D02*
X7638D01*
X7207Y1900D02*
X7638D01*
X7207Y1850D02*
X7638D01*
X7517Y1600D02*
X7638D01*
X7466Y1750D02*
X7638D01*
X7494Y1650D02*
X7638D01*
X7487Y1700D02*
X7638D01*
X7207Y1820D02*
Y1984D01*
X7250Y1837D02*
Y1968D01*
X7300Y1843D02*
Y1961D01*
X7207Y1950D02*
X7638D01*
X7400Y1815D02*
Y1989D01*
X7450Y1772D02*
Y2033D01*
X7350Y1837D02*
Y1968D01*
X7888Y1816D02*
Y1989D01*
X7416Y2000D02*
X7638D01*
X8111Y1800D02*
X8325D01*
X7888Y1900D02*
X8325D01*
X7888Y1850D02*
X8325D01*
X8177Y1600D02*
X8325D01*
X8154Y1750D02*
X8325D01*
X8183Y1650D02*
X8325D01*
X8176Y1700D02*
X8325D01*
X7900Y1822D02*
Y1982D01*
X7950Y1840D02*
Y1965D01*
X8000Y1843D02*
Y1962D01*
X7888Y1950D02*
X8325D01*
X8100Y1808D02*
Y1997D01*
X8150Y1757D02*
Y2048D01*
X8050Y1833D02*
Y1972D01*
X8575Y1815D02*
Y1990D01*
X8104Y2000D02*
X8325D01*
X7431Y2300D02*
X7638D01*
X7207Y2350D02*
X7276D01*
X7323D02*
X7638D01*
X7486Y2100D02*
X7638D01*
X7463Y2050D02*
X7638D01*
X7470Y2250D02*
X7638D01*
X7494Y2150D02*
X7638D01*
X7489Y2200D02*
X7638D01*
X7207Y2328D02*
Y2492D01*
X7250Y2345D02*
Y2476D01*
X7300Y2351D02*
Y2469D01*
X7207Y2400D02*
X7638D01*
X7207Y2450D02*
X7638D01*
X7400Y2323D02*
Y2497D01*
X7450Y2280D02*
Y2541D01*
X7350Y2345D02*
Y2476D01*
X7404Y2500D02*
X7638D01*
X7457Y2550D02*
X7638D01*
X8120Y2300D02*
X8325D01*
X7888Y2350D02*
X7964D01*
X8011D02*
X8325D01*
X7888Y2400D02*
X8325D01*
X8174Y2100D02*
X8325D01*
X8151Y2050D02*
X8325D01*
X8159Y2250D02*
X8325D01*
X8183Y2150D02*
X8325D01*
X8178Y2200D02*
X8325D01*
X7888Y2324D02*
Y2497D01*
X7900Y2330D02*
Y2490D01*
X7950Y2348D02*
Y2473D01*
X7888Y2450D02*
X8325D01*
X8000Y2351D02*
Y2470D01*
X8100Y2316D02*
Y2505D01*
X8150Y2265D02*
Y2556D01*
X8050Y2341D02*
Y2480D01*
X8093Y2500D02*
X8325D01*
X8146Y2550D02*
X8325D01*
X8799Y1800D02*
X9018D01*
X8575Y1900D02*
X9018D01*
X8575Y1850D02*
X9018D01*
X8865Y1600D02*
X9018D01*
X8843Y1750D02*
X9018D01*
X8871Y1650D02*
X9018D01*
X8864Y1700D02*
X9018D01*
X8600Y1828D02*
Y1977D01*
X8650Y1842D02*
Y1963D01*
X8700Y1842D02*
Y1963D01*
X8575Y1950D02*
X9018D01*
X8800Y1799D02*
Y2006D01*
X8850Y1737D02*
Y2068D01*
X8750Y1829D02*
Y1976D01*
X8793Y2000D02*
X9018D01*
X8840Y2050D02*
X9018D01*
X9487Y1800D02*
X9705D01*
X9268Y1900D02*
X9705D01*
X9268Y1850D02*
X9705D01*
X9554Y1600D02*
X9705D01*
X9531Y1750D02*
X9705D01*
X9560Y1650D02*
X9705D01*
X9553Y1700D02*
X9705D01*
X9268Y1817D02*
Y1987D01*
X9300Y1832D02*
Y1972D01*
X9350Y1843D02*
Y1962D01*
X9268Y1950D02*
X9705D01*
X9500Y1789D02*
Y2016D01*
X9550Y1709D02*
Y2095D01*
X9400Y1840D02*
Y1965D01*
X9450Y1824D02*
Y1981D01*
X9481Y2000D02*
X9705D01*
X8575Y2350D02*
X8653D01*
X8575Y2400D02*
X9018D01*
X8700Y2350D02*
X9018D01*
X8871Y2150D02*
X9018D01*
X8863Y2100D02*
X9018D01*
X8808Y2300D02*
X9018D01*
X8866Y2200D02*
X9018D01*
X8847Y2250D02*
X9018D01*
X8575Y2323D02*
Y2498D01*
X8600Y2336D02*
Y2485D01*
X8650Y2350D02*
Y2471D01*
X8575Y2450D02*
X9018D01*
X8700Y2350D02*
Y2471D01*
X8800Y2307D02*
Y2514D01*
X8850Y2245D02*
Y2576D01*
X8750Y2337D02*
Y2484D01*
X8781Y2500D02*
X9018D01*
X8834Y2550D02*
X9018D01*
X9497Y2300D02*
X9705D01*
X9268Y2350D02*
X9341D01*
X9388D02*
X9705D01*
X9268Y2400D02*
X9705D01*
X9551Y2100D02*
X9705D01*
X9528Y2050D02*
X9705D01*
X9536Y2250D02*
X9705D01*
X9560Y2150D02*
X9705D01*
X9555Y2200D02*
X9705D01*
X9268Y2325D02*
Y2495D01*
X9300Y2340D02*
Y2480D01*
X9350Y2351D02*
Y2470D01*
X9268Y2450D02*
X9705D01*
X9400Y2348D02*
Y2473D01*
X9450Y2332D02*
Y2489D01*
X9500Y2297D02*
Y2524D01*
X9549Y2600D02*
X9705D01*
X9470Y2500D02*
X9705D01*
X9523Y2550D02*
X9705D01*
X7424Y2900D02*
X7638D01*
X7424Y2850D02*
X7638D01*
X7494Y2650D02*
X7638D01*
X7483Y2600D02*
X7638D01*
X7440Y2800D02*
X7638D01*
X7491Y2700D02*
X7638D01*
X7475Y2750D02*
X7638D01*
X7424Y2814D02*
Y3082D01*
Y2950D02*
X7638D01*
X7424Y3050D02*
X7551D01*
X7424Y3000D02*
X7601D01*
X7500Y1618D02*
Y3086D01*
X7550Y1568D02*
Y3051D01*
X7450Y2788D02*
Y3080D01*
X7512Y3089D02*
X7638Y2963D01*
X8113Y2850D02*
X8325D01*
X8128Y2800D02*
X8325D01*
X8172Y2600D02*
X8325D01*
X8163Y2750D02*
X8325D01*
X8182Y2650D02*
X8325D01*
X8180Y2700D02*
X8325D01*
X8113Y3000D02*
X8301D01*
X8113Y2900D02*
X8325D01*
X8113Y3050D02*
X8251D01*
X8113Y2814D02*
Y3084D01*
X8150Y2773D02*
Y3080D01*
X8113Y2950D02*
X8325D01*
X8212Y3089D02*
X8325Y2976D01*
X7200Y3544D02*
Y3700D01*
X7252Y3500D02*
X7303D01*
X7150Y3564D02*
Y3700D01*
X7189Y3550D02*
X7366D01*
X7300Y3496D02*
Y3700D01*
X7602Y3500D02*
X7653D01*
X7350Y3541D02*
Y3700D01*
X7539Y3550D02*
X7716D01*
X7400Y3563D02*
Y3700D01*
X7250Y3503D02*
Y3700D01*
X7600Y3503D02*
Y3700D01*
X7450Y3570D02*
Y3700D01*
X7550Y3544D02*
Y3700D01*
X7500Y3564D02*
Y3700D01*
X7650Y3496D02*
Y3700D01*
X7700Y3541D02*
Y3700D01*
X7750Y3563D02*
Y3700D01*
X7850Y3564D02*
Y3700D01*
X7800Y3570D02*
Y3700D01*
X8000Y3496D02*
Y3700D01*
X7952Y3500D02*
X8003D01*
X7900Y3544D02*
Y3700D01*
X7889Y3550D02*
X8066D01*
X8100Y3563D02*
Y3700D01*
X8302Y3500D02*
X8353D01*
X8150Y3570D02*
Y3700D01*
X8589Y3550D02*
X8766D01*
X8239D02*
X8416D01*
X7950Y3503D02*
Y3700D01*
X8300Y3503D02*
Y3700D01*
X8050Y3541D02*
Y3700D01*
X8250Y3544D02*
Y3700D01*
X8200Y3564D02*
Y3700D01*
X8350Y3496D02*
Y3700D01*
X8400Y3541D02*
Y3700D01*
X8450Y3563D02*
Y3700D01*
X8550Y3564D02*
Y3700D01*
X8500Y3570D02*
Y3700D01*
X8801Y2850D02*
X9018D01*
X8801Y2950D02*
X9018D01*
X8801Y2900D02*
X9018D01*
X8871Y2650D02*
X9018D01*
X8860Y2600D02*
X9018D01*
X8816Y2800D02*
X9018D01*
X8868Y2700D02*
X9018D01*
X8852Y2750D02*
X9018D01*
X8801Y2814D02*
Y3087D01*
X8850Y2753D02*
Y3080D01*
X8801Y3000D02*
X9001D01*
X8801Y3050D02*
X8951D01*
X8912Y3089D02*
X9018Y2983D01*
X9490Y2814D02*
Y3163D01*
X9398Y3307D02*
X9453Y3251D01*
X9454Y3250D02*
X9484D01*
X9490Y2900D02*
X9705D01*
X9490Y2850D02*
X9705D01*
X9550Y2217D02*
Y2603D01*
X9559Y2650D02*
X9705D01*
X9505Y2800D02*
X9705D01*
X9556Y2700D02*
X9705D01*
X9540Y2750D02*
X9705D01*
X9490Y3050D02*
X9705D01*
X9490Y3000D02*
X9705D01*
X9484Y3200D02*
X9498D01*
X9500Y2805D02*
Y3194D01*
X9550Y2725D02*
Y3127D01*
X9490Y3150D02*
X9528D01*
X9490Y2950D02*
X9705D01*
X9490Y3100D02*
X9592D01*
X8652Y3500D02*
X8703D01*
X8600Y3544D02*
Y3700D01*
X8650Y3503D02*
Y3700D01*
X9002Y3500D02*
X9053D01*
X8939Y3550D02*
X9116D01*
X8800Y3563D02*
Y3700D01*
X8900Y3564D02*
Y3700D01*
X8850Y3570D02*
Y3700D01*
X8700Y3496D02*
Y3700D01*
X9050Y3496D02*
Y3700D01*
X8750Y3541D02*
Y3700D01*
X9000Y3503D02*
Y3700D01*
X8950Y3544D02*
Y3700D01*
X9100Y3541D02*
Y3700D01*
X9300Y3544D02*
Y3700D01*
X9150Y3563D02*
Y3700D01*
X9250Y3564D02*
Y3700D01*
X9200Y3570D02*
Y3700D01*
X9396Y3400D02*
X9484D01*
X9383Y3450D02*
X9497D01*
X9352Y3500D02*
X9528D01*
X9289Y3550D02*
X9591D01*
X9404Y3300D02*
X9483D01*
Y3275D02*
Y3375D01*
X9398Y3307D02*
Y3375D01*
Y3350D02*
X9483D01*
X9400Y3304D02*
Y3700D01*
X9450Y3254D02*
Y3700D01*
X9500Y3456D02*
Y3700D01*
X9350Y3503D02*
Y3700D01*
X9600Y3554D02*
Y3700D01*
X9550Y3523D02*
Y3700D01*
X9800Y3527D02*
Y3700D01*
X9850Y3466D02*
Y3700D01*
X9650Y3568D02*
Y3700D01*
X9750Y3556D02*
Y3700D01*
X9700Y3569D02*
Y3700D01*
X10176Y1800D02*
X10400D01*
X9955Y1900D02*
X10400D01*
X9955Y1850D02*
X10400D01*
X10242Y1600D02*
X10400D01*
X10220Y1750D02*
X10400D01*
X10248Y1650D02*
X10400D01*
X10241Y1700D02*
X10400D01*
X9955Y1817D02*
Y1988D01*
X10000Y1836D02*
Y1969D01*
X10050Y1843D02*
Y1961D01*
X9955Y1950D02*
X10400D01*
X10150Y1818D02*
Y1987D01*
X10200Y1777D02*
Y2028D01*
X10100Y1838D02*
Y1967D01*
X10170Y2000D02*
X10400D01*
X10217Y2050D02*
X10400D01*
X10864Y1800D02*
X11090D01*
X10650Y1900D02*
X11090D01*
X10650Y1850D02*
X11090D01*
X10937Y1600D02*
X11090D01*
X10908Y1750D02*
X11090D01*
X10937Y1650D02*
X11090D01*
X10930Y1700D02*
X11090D01*
X10650Y1821D02*
Y1984D01*
X10700Y1839D02*
Y1966D01*
X10750Y1843D02*
Y1962D01*
X10650Y1950D02*
X11090D01*
X10850Y1811D02*
Y1994D01*
X10900Y1762D02*
Y2043D01*
X10800Y1834D02*
Y1970D01*
X10858Y2000D02*
X11090D01*
X10905Y2050D02*
X11090D01*
X9955Y2350D02*
X10030D01*
X9955Y2400D02*
X10400D01*
X10077Y2350D02*
X10400D01*
X10248Y2150D02*
X10400D01*
X10240Y2100D02*
X10400D01*
X10185Y2300D02*
X10400D01*
X10243Y2200D02*
X10400D01*
X10224Y2250D02*
X10400D01*
X9955Y2325D02*
Y2496D01*
X10000Y2344D02*
Y2477D01*
X10050Y2351D02*
Y2469D01*
X9955Y2450D02*
X10400D01*
X10100Y2346D02*
Y2475D01*
X10150Y2326D02*
Y2495D01*
X10200Y2285D02*
Y2536D01*
X10211Y2550D02*
X10400D01*
X10650Y2329D02*
Y2492D01*
X10158Y2500D02*
X10400D01*
X10913Y2250D02*
X11090D01*
X10650Y2350D02*
X10718D01*
X10874Y2300D02*
X11090D01*
X10765Y2350D02*
X11090D01*
X10937Y2150D02*
X11090D01*
X10928Y2100D02*
X11090D01*
X10932Y2200D02*
X11090D01*
X11340Y2400D02*
X11775D01*
X10700Y2347D02*
Y2474D01*
X10800Y2342D02*
Y2478D01*
X10750Y2351D02*
Y2470D01*
X10650Y2400D02*
X11090D01*
X10650Y2450D02*
X11090D01*
X10850Y2319D02*
Y2502D01*
X10900Y2270D02*
Y2551D01*
X10926Y2600D02*
X11090D01*
X10847Y2500D02*
X11090D01*
X10900Y2550D02*
X11090D01*
X11553Y1800D02*
X11775D01*
X11340Y1900D02*
X11775D01*
X11340Y1850D02*
X11775D01*
X11637Y1600D02*
X11775D01*
X11597Y1750D02*
X11775D01*
X11625Y1650D02*
X11775D01*
X11618Y1700D02*
X11775D01*
X11340Y1821D02*
Y1983D01*
X11350Y1826D02*
Y1979D01*
X11400Y1841D02*
Y1964D01*
X11340Y1950D02*
X11775D01*
X11550Y1802D02*
Y2003D01*
X11600Y1744D02*
Y2061D01*
X11450Y1842D02*
Y1962D01*
X11500Y1830D02*
Y1974D01*
X11547Y2000D02*
X11775D01*
X12241Y1800D02*
X12450D01*
X12025Y1900D02*
X12450D01*
X12025Y1850D02*
X12450D01*
X12337Y1600D02*
X12450D01*
X12285Y1750D02*
X12450D01*
X12314Y1650D02*
X12450D01*
X12307Y1700D02*
X12450D01*
X12025Y1819D02*
Y1985D01*
X12050Y1831D02*
Y1974D01*
X12100Y1843D02*
Y1962D01*
X12025Y1950D02*
X12450D01*
X12250Y1793D02*
Y2012D01*
X12300Y1720D02*
Y2085D01*
X12150Y1841D02*
Y1964D01*
X12200Y1826D02*
Y1979D01*
X12235Y2000D02*
X12450D01*
X11340Y2350D02*
X11407D01*
X11562Y2300D02*
X11775D01*
X11340Y2450D02*
X11775D01*
X11454Y2350D02*
X11775D01*
X11617Y2100D02*
X11775D01*
X11594Y2050D02*
X11775D01*
X11601Y2250D02*
X11775D01*
X11625Y2150D02*
X11775D01*
X11620Y2200D02*
X11775D01*
X11340Y2329D02*
Y2491D01*
X11350Y2334D02*
Y2487D01*
X11400Y2349D02*
Y2472D01*
X11450Y2350D02*
Y2470D01*
X11500Y2338D02*
Y2482D01*
X11550Y2310D02*
Y2511D01*
X11600Y2252D02*
Y2569D01*
X11614Y2600D02*
X11775D01*
X11535Y2500D02*
X11775D01*
X11588Y2550D02*
X11775D01*
X12251Y2300D02*
X12450D01*
X12025Y2350D02*
X12095D01*
X12142D02*
X12450D01*
X12025Y2400D02*
X12450D01*
X12305Y2100D02*
X12450D01*
X12282Y2050D02*
X12450D01*
X12290Y2250D02*
X12450D01*
X12313Y2150D02*
X12450D01*
X12309Y2200D02*
X12450D01*
X12025Y2327D02*
Y2493D01*
X12050Y2339D02*
Y2482D01*
X12100Y2351D02*
Y2470D01*
X12025Y2450D02*
X12450D01*
X12150Y2349D02*
Y2472D01*
X12250Y2301D02*
Y2520D01*
X12300Y2228D02*
Y2593D01*
X12200Y2334D02*
Y2487D01*
X12223Y2500D02*
X12450D01*
X12277Y2550D02*
X12450D01*
X10178Y2900D02*
X10400D01*
X10178Y2850D02*
X10400D01*
X10248Y2650D02*
X10400D01*
X10237Y2600D02*
X10400D01*
X10193Y2800D02*
X10400D01*
X10245Y2700D02*
X10400D01*
X10228Y2750D02*
X10400D01*
X10178Y3050D02*
X10400D01*
X10178Y3000D02*
X10400D01*
X10178Y3100D02*
X10292D01*
X10178Y3150D02*
X10228D01*
X10200Y2793D02*
Y3184D01*
X10250Y1587D02*
Y3127D01*
X10178Y2814D02*
Y3151D01*
Y2950D02*
X10400D01*
X10867Y2900D02*
X11090D01*
X10933Y2700D02*
X11090D01*
X10936Y2650D02*
X11090D01*
X10867Y2850D02*
X11090D01*
X10917Y2750D02*
X11090D01*
X10882Y2800D02*
X11090D01*
X10867Y2814D02*
Y3138D01*
Y2950D02*
X11090D01*
X10867Y3100D02*
X10992D01*
X10867Y3000D02*
X11090D01*
X10867Y3050D02*
X11090D01*
X10900Y2778D02*
Y3184D01*
X10950Y1587D02*
Y3127D01*
X10877Y3150D02*
X10928D01*
X9827Y3500D02*
X9878D01*
X9764Y3550D02*
X9941D01*
X9950Y3554D02*
Y3700D01*
X10177Y3500D02*
X10228D01*
X10114Y3550D02*
X10291D01*
X10000Y3568D02*
Y3700D01*
X10100Y3556D02*
Y3700D01*
X10050Y3569D02*
Y3700D01*
X10200Y3466D02*
Y3700D01*
X10250Y3523D02*
Y3700D01*
X9900Y3523D02*
Y3700D01*
X10300Y3554D02*
Y3700D01*
X10150Y3527D02*
Y3700D01*
X10500Y3527D02*
Y3700D01*
X10550Y3466D02*
Y3700D01*
X10350Y3568D02*
Y3700D01*
X10450Y3556D02*
Y3700D01*
X10400Y3569D02*
Y3700D01*
X10527Y3500D02*
X10578D01*
X10464Y3550D02*
X10641D01*
X10650Y3554D02*
Y3700D01*
X10877Y3500D02*
X10928D01*
X10700Y3568D02*
Y3700D01*
X11164Y3550D02*
X11341D01*
X10814D02*
X10991D01*
X10600Y3523D02*
Y3700D01*
X10900Y3466D02*
Y3700D01*
X10750Y3569D02*
Y3700D01*
X10850Y3527D02*
Y3700D01*
X10800Y3556D02*
Y3700D01*
X10950Y3523D02*
Y3700D01*
X11000Y3554D02*
Y3700D01*
X11050Y3568D02*
Y3700D01*
X11150Y3556D02*
Y3700D01*
X11100Y3569D02*
Y3700D01*
X11555Y2950D02*
X11775D01*
X11555Y2850D02*
X11775D01*
X11622Y2700D02*
X11775D01*
X11625Y2650D02*
X11775D01*
X11555Y2900D02*
X11775D01*
X11605Y2750D02*
X11775D01*
X11570Y2800D02*
X11775D01*
X11555Y2814D02*
Y3128D01*
Y3000D02*
X11775D01*
X11555Y3050D02*
X11775D01*
X11555Y3100D02*
X11692D01*
X11600Y2760D02*
Y3184D01*
X11650Y1587D02*
Y3127D01*
X11577Y3150D02*
X11628D01*
X12244Y2814D02*
Y3118D01*
Y2900D02*
X12450D01*
X12244Y2850D02*
X12450D01*
X12313Y2650D02*
X12450D01*
X12303Y2600D02*
X12450D01*
X12259Y2800D02*
X12450D01*
X12310Y2700D02*
X12450D01*
X12294Y2750D02*
X12450D01*
X12244Y3000D02*
X12450D01*
X12244Y2950D02*
X12450D01*
X12244Y3050D02*
X12450D01*
X12244Y3100D02*
X12450D01*
X12300Y2736D02*
Y3184D01*
X12350Y1587D02*
Y3700D01*
X12250Y2809D02*
Y3123D01*
X12277Y3150D02*
X12450D01*
X12307Y3200D02*
X12450D01*
X11227Y3500D02*
X11278D01*
X11200Y3527D02*
Y3700D01*
X11300Y3523D02*
Y3700D01*
X11577Y3500D02*
X11628D01*
X11514Y3550D02*
X11691D01*
X11350Y3554D02*
Y3700D01*
X11500Y3556D02*
Y3700D01*
X11450Y3569D02*
Y3700D01*
X11250Y3466D02*
Y3700D01*
X11600Y3466D02*
Y3700D01*
X11400Y3568D02*
Y3700D01*
X11650Y3523D02*
Y3700D01*
X11550Y3527D02*
Y3700D01*
X11700Y3554D02*
Y3700D01*
X11900Y3527D02*
Y3700D01*
X11750Y3568D02*
Y3700D01*
X11850Y3556D02*
Y3700D01*
X11800Y3569D02*
Y3700D01*
X11927Y3500D02*
X11978D01*
X12308Y3450D02*
X12450D01*
X11864Y3550D02*
X12041D01*
X12277Y3500D02*
X12450D01*
X12214Y3550D02*
X12450D01*
X12323Y3275D02*
Y3375D01*
X12321Y3250D02*
X12450D01*
X12321Y3400D02*
X12450D01*
X12323Y3300D02*
X12450D01*
X12323Y3350D02*
X12450D01*
X11950Y3466D02*
Y3700D01*
X12050Y3554D02*
Y3700D01*
X12000Y3523D02*
Y3700D01*
X12250Y3527D02*
Y3700D01*
X12300Y3466D02*
Y3700D01*
X12100Y3568D02*
Y3700D01*
X12200Y3556D02*
Y3700D01*
X12150Y3569D02*
Y3700D01*
D11*
X524Y-113D02*
D03*
X4624D02*
D03*
X9357Y-208D02*
D03*
D12*
X651Y-113D02*
D03*
X778Y-113D02*
D03*
X905D02*
D03*
X1032D02*
D03*
X1159D02*
D03*
X1286Y-113D02*
D03*
X1413Y-113D02*
D03*
X524Y517D02*
D03*
X651D02*
D03*
X778D02*
D03*
X905D02*
D03*
X1032D02*
D03*
X1159D02*
D03*
X1286D02*
D03*
X1413D02*
D03*
X4751Y-113D02*
D03*
X4878Y-113D02*
D03*
X5005D02*
D03*
X5132D02*
D03*
X5259D02*
D03*
X5386Y-113D02*
D03*
X5513Y-113D02*
D03*
X4624Y517D02*
D03*
X4751D02*
D03*
X4878D02*
D03*
X5005D02*
D03*
X5132D02*
D03*
X5259D02*
D03*
X5386D02*
D03*
X5513D02*
D03*
X9484Y-208D02*
D03*
X9611Y-208D02*
D03*
X9738D02*
D03*
X9865D02*
D03*
X9992D02*
D03*
X10119Y-208D02*
D03*
X10246Y-208D02*
D03*
X9357Y422D02*
D03*
X9484D02*
D03*
X9611D02*
D03*
X9738D02*
D03*
X9865D02*
D03*
X9992D02*
D03*
X10119D02*
D03*
X10246D02*
D03*
D13*
X1413Y517D02*
X2119D01*
X2307Y329D01*
Y75D02*
Y329D01*
X1414Y-398D02*
Y-113D01*
X886Y-398D02*
X1414D01*
X778Y-290D02*
X886Y-398D01*
X1414D02*
X5511D01*
X778Y-290D02*
Y-113D01*
X5511Y-115D02*
X5513Y-113D01*
X524D02*
X778D01*
X1413D02*
X1414Y-113D01*
X5515Y500D02*
X5750D01*
X10245Y405D02*
X10383D01*
X5550Y-430D02*
X10182D01*
X5511Y-391D02*
X5550Y-430D01*
X5511Y-391D02*
Y-115D01*
X10182Y-430D02*
X10246Y-367D01*
Y-208D01*
X2930Y1379D02*
X3169Y1140D01*
X2930Y1379D02*
Y2708D01*
X2312Y3325D02*
X2930Y2708D01*
X3169Y2664D02*
Y2819D01*
X2662Y3325D02*
X3169Y2819D01*
X3622Y1375D02*
X3857Y1140D01*
X3622Y1375D02*
Y2715D01*
X3012Y3325D02*
X3622Y2715D01*
X3857Y2664D02*
Y2830D01*
X3362Y3325D02*
X3857Y2830D01*
X4315Y1371D02*
X4546Y1140D01*
X4315Y1371D02*
Y2842D01*
X3833Y3325D02*
X4315Y2842D01*
X4546Y2664D02*
Y2962D01*
X4183Y3325D02*
X4546Y2962D01*
X5005Y1369D02*
X5234Y1140D01*
X5005Y1369D02*
Y2852D01*
X4533Y3325D02*
X5005Y2852D01*
X5234Y2664D02*
Y2974D01*
X4883Y3325D02*
X5234Y2974D01*
X5700Y1363D02*
X5922Y1140D01*
X5700Y1363D02*
Y2858D01*
X5233Y3325D02*
X5700Y2858D01*
X5922Y2664D02*
Y2985D01*
X5583Y3325D02*
X5922Y2985D01*
X6383Y1369D02*
X6611Y1140D01*
X6383Y1369D02*
Y2875D01*
X5933Y3325D02*
X6383Y2875D01*
X6611Y2664D02*
Y2997D01*
X6283Y3325D02*
X6611Y2997D01*
X7082Y1357D02*
X7299Y1140D01*
X7082Y1357D02*
Y2995D01*
X6753Y3325D02*
X7082Y2995D01*
X7299Y2664D02*
Y3128D01*
X7103Y3325D02*
X7299Y3128D01*
X7762Y1366D02*
X7988Y1140D01*
X7762Y1366D02*
Y3015D01*
X7453Y3325D02*
X7762Y3015D01*
X7988Y2664D02*
Y3140D01*
X7803Y3325D02*
X7988Y3140D01*
X8450Y1367D02*
X8676Y1140D01*
X8450Y1367D02*
Y3028D01*
X8153Y3325D02*
X8450Y3028D01*
X8676Y2664D02*
Y3151D01*
X8503Y3325D02*
X8676Y3151D01*
X9143Y1363D02*
X9365Y1140D01*
X9143Y1363D02*
Y3035D01*
X8853Y3325D02*
X9143Y3035D01*
X9365Y2664D02*
Y3163D01*
X9203Y3325D02*
X9365Y3163D01*
X9830Y1364D02*
X10053Y1140D01*
X9830Y1364D02*
Y3173D01*
X9678Y3325D02*
X9830Y3173D01*
X10053Y2664D02*
Y3299D01*
X10028Y3325D02*
X10053Y3299D01*
X10525Y1357D02*
X10742Y1140D01*
X10525Y1357D02*
Y3178D01*
X10378Y3325D02*
X10525Y3178D01*
X10742Y2664D02*
Y3311D01*
X10728Y3325D02*
X10742Y3311D01*
X11215Y1356D02*
X11430Y1140D01*
X11215Y1356D02*
Y3188D01*
X11078Y3325D02*
X11215Y3188D01*
X11430Y2664D02*
Y3322D01*
X11428Y3325D02*
X11430Y3322D01*
X11900Y1359D02*
X12119Y1140D01*
X11900Y1359D02*
Y3203D01*
X11778Y3325D02*
X11900Y3203D01*
X12119Y2664D02*
Y3316D01*
X12128Y3325D01*
D14*
X7366Y-68D02*
X7613Y-315D01*
X8046Y-40D02*
X8672D01*
X8006Y-0D02*
X8046Y-40D01*
X7913Y-95D02*
X8695D01*
X7874Y-55D02*
X7913Y-95D01*
X7851Y-150D02*
X8717D01*
X7751Y-50D02*
X7851Y-150D01*
X7778Y-205D02*
X8740D01*
X7619Y-45D02*
X7778Y-205D01*
X7713Y-260D02*
X8763D01*
X7496Y-43D02*
X7713Y-260D01*
X7613Y-315D02*
X8786D01*
X905Y39D02*
X1084Y217D01*
X1032Y33D02*
X1161Y162D01*
X1159Y35D02*
X1231Y107D01*
X1286Y32D02*
X1306Y52D01*
X3515Y-118D02*
X3577Y-56D01*
X3586Y-173D02*
X3704Y-55D01*
X3699Y-228D02*
X3831Y-96D01*
X3396Y-63D02*
X3449Y-10D01*
Y201D02*
X3577Y329D01*
X3449Y-10D02*
Y201D01*
X905Y-113D02*
Y39D01*
X3577Y-56D02*
Y75D01*
X1032Y-113D02*
Y33D01*
X3704Y202D02*
X3831Y329D01*
X3704Y-55D02*
Y202D01*
X1159Y-113D02*
Y35D01*
X3831Y-96D02*
Y75D01*
X1286Y-113D02*
Y32D01*
X5414Y37D02*
X5616D01*
X5386Y10D02*
X5414Y37D01*
X5386Y-113D02*
Y10D01*
X6709Y-58D02*
X6739Y-28D01*
X6022Y-58D02*
X6709D01*
X5707Y257D02*
X6022Y-58D01*
X6784Y-113D02*
X6859Y-38D01*
X5999Y-113D02*
X6784D01*
X5684Y202D02*
X5999Y-113D01*
X6861Y-168D02*
X6991Y-38D01*
X5977Y-168D02*
X6861D01*
X5662Y147D02*
X5977Y-168D01*
X6939Y-223D02*
X7115Y-47D01*
X5954Y-223D02*
X6939D01*
X5639Y92D02*
X5954Y-223D01*
X7011Y-278D02*
X7244Y-45D01*
X5931Y-278D02*
X7011D01*
X5616Y37D02*
X5931Y-278D01*
X7244Y-45D02*
Y204D01*
X7115Y-47D02*
Y75D01*
X6991Y-38D02*
Y206D01*
X6859Y-38D02*
Y73D01*
X6739Y-28D02*
Y207D01*
X5791Y329D02*
X6607D01*
X5753Y367D02*
X5791Y329D01*
X5967Y75D02*
X6607D01*
X5730Y312D02*
X5967Y75D01*
X4949Y367D02*
X5753D01*
X4624Y43D02*
X4949Y367D01*
X4624Y-113D02*
Y43D01*
X4751Y40D02*
X5024Y312D01*
X5309Y92D02*
X5639D01*
X5259Y43D02*
X5309Y92D01*
X5246Y147D02*
X5662D01*
X5132Y33D02*
X5246Y147D01*
X5169Y202D02*
X5684D01*
X5005Y39D02*
X5169Y202D01*
X5091Y257D02*
X5707D01*
X4878Y44D02*
X5091Y257D01*
X5024Y312D02*
X5730D01*
X5259Y-113D02*
Y43D01*
X4751Y-113D02*
Y40D01*
X6739Y207D02*
X6861Y329D01*
X4878Y-113D02*
Y44D01*
X6859Y73D02*
X6861Y75D01*
X5005Y-113D02*
Y39D01*
X6991Y206D02*
X7115Y329D01*
X5132Y-113D02*
Y33D01*
X7244Y204D02*
X7369Y329D01*
X9357Y-208D02*
Y-138D01*
X9311Y-93D02*
X9357Y-138D01*
X9008Y-93D02*
X9311D01*
X8985Y-38D02*
X9454D01*
X8962Y17D02*
X9531D01*
X8939Y72D02*
X9604D01*
X8917Y127D02*
X9676D01*
X8894Y182D02*
X9749D01*
X8871Y237D02*
X9821D01*
X9454Y-38D02*
X9484Y-68D01*
X9531Y17D02*
X9611Y-62D01*
X9604Y72D02*
X9738Y-62D01*
X9676Y127D02*
X9865Y-61D01*
X9749Y182D02*
X9992Y-61D01*
X9821Y237D02*
X10119Y-60D01*
Y-208D02*
Y-60D01*
X9992Y-208D02*
Y-61D01*
X9738Y-208D02*
Y-62D01*
X9865Y-208D02*
Y-61D01*
X9611Y-208D02*
Y-62D01*
X8131Y75D02*
X8709D01*
X7874Y-55D02*
Y72D01*
X8006Y-0D02*
Y205D01*
X8131Y329D01*
X7751Y204D02*
X7877Y329D01*
X7751Y-50D02*
Y204D01*
X7496Y203D02*
X7623Y329D01*
X7496Y-43D02*
Y203D01*
X7366Y73D02*
X7369Y75D01*
X7366Y-68D02*
Y73D01*
X9484Y-208D02*
Y-68D01*
X7619Y71D02*
X7623Y75D01*
X7619Y-45D02*
Y71D01*
X7874Y72D02*
X7877Y75D01*
X1084Y217D02*
X1851D01*
X1161Y162D02*
X1828D01*
X1231Y107D02*
X1805D01*
X1306Y52D02*
X1783D01*
X1851Y217D02*
X2131Y-63D01*
X1828Y162D02*
X2108Y-118D01*
X1805Y107D02*
X2085Y-173D01*
X1783Y52D02*
X2063Y-228D01*
X2131Y-63D02*
X3396D01*
X2108Y-118D02*
X3515D01*
X2085Y-173D02*
X3586D01*
X2063Y-228D02*
X3699D01*
X8709Y75D02*
X8871Y237D01*
X8672Y-40D02*
X8894Y182D01*
X8695Y-95D02*
X8917Y127D01*
X8717Y-150D02*
X8939Y72D01*
X8740Y-205D02*
X8962Y17D01*
X8763Y-260D02*
X8985Y-38D01*
X8786Y-315D02*
X9008Y-93D01*
X-3870Y-150D02*
X-3890Y-130D01*
X-3930D01*
X-3950Y-150D01*
Y-170D01*
X-3930Y-190D01*
X-3890D01*
X-3870Y-210D01*
Y-230D01*
X-3890Y-250D01*
X-3930D01*
X-3950Y-230D01*
X-3830Y-250D02*
Y-130D01*
X-3790Y-170D01*
X-3750Y-130D01*
Y-250D01*
X-3710Y-190D02*
X-3630D01*
X-3590Y-130D02*
Y-250D01*
X-3530D01*
X-3510Y-230D01*
Y-150D01*
X-3530Y-130D01*
X-3590D01*
X-3390Y-150D02*
X-3410Y-130D01*
X-3450D01*
X-3470Y-150D01*
Y-230D01*
X-3450Y-250D01*
X-3410D01*
X-3390Y-230D01*
X-3350Y-250D02*
Y-130D01*
X-3290D01*
X-3270Y-150D01*
Y-190D01*
X-3290Y-210D01*
X-3350D01*
X-3170Y-250D02*
Y-130D01*
X-3230Y-190D01*
X-3150D01*
X-3110Y-250D02*
Y-230D01*
X-3090D01*
Y-250D01*
X-3110D01*
X-3010Y-130D02*
Y-250D01*
X-2950D01*
X-2930Y-230D01*
Y-150D01*
X-2950Y-130D01*
X-3010D01*
X-2810Y-150D02*
X-2830Y-130D01*
X-2870D01*
X-2890Y-150D01*
Y-230D01*
X-2870Y-250D01*
X-2830D01*
X-2810Y-230D01*
X-2690Y-150D02*
X-2710Y-130D01*
X-2750D01*
X-2770Y-150D01*
Y-170D01*
X-2750Y-190D01*
X-2710D01*
X-2690Y-210D01*
Y-230D01*
X-2710Y-250D01*
X-2750D01*
X-2770Y-230D01*
X-2650Y-250D02*
X-2610D01*
X-2630D01*
Y-130D01*
X-2650Y-150D01*
X-2490Y-250D02*
Y-130D01*
X-2550Y-190D01*
X-2470D01*
D15*
X1969Y1092D02*
Y2719D01*
X269Y1092D02*
Y2714D01*
X-3750Y3200D02*
Y3425D01*
Y3200D02*
X-3131Y2581D01*
Y1092D02*
Y2581D01*
X8Y2975D02*
X269Y2714D01*
X-572Y2975D02*
X8D01*
X-750Y3152D02*
X-572Y2975D01*
X-750Y3152D02*
Y3425D01*
X-2250Y3152D02*
Y3425D01*
Y3152D02*
X-2083Y2985D01*
X-1685D01*
X-1431Y2731D01*
Y1092D02*
Y2731D01*
X1728Y2960D02*
X1969Y2719D01*
X938Y2960D02*
X1728D01*
X750Y3147D02*
X938Y2960D01*
X750Y3147D02*
Y3425D01*
D16*
X-3950Y-370D02*
Y-450D01*
Y-410D01*
X-3930Y-390D01*
X-3910Y-370D01*
X-3890D01*
X-3770Y-450D02*
X-3810D01*
X-3830Y-430D01*
Y-390D01*
X-3810Y-370D01*
X-3770D01*
X-3750Y-390D01*
Y-410D01*
X-3830D01*
X-3710Y-370D02*
X-3670Y-450D01*
X-3630Y-370D01*
X-3590Y-450D02*
Y-430D01*
X-3570D01*
Y-450D01*
X-3590D01*
X-3370D02*
X-3330D01*
X-3350D01*
Y-330D01*
X-3370Y-350D01*
D17*
X1750Y3425D02*
D03*
X750D02*
D03*
X1250D02*
D03*
X250D02*
D03*
X-750D02*
D03*
X-250D02*
D03*
X-1250D02*
D03*
X-2250D02*
D03*
X-1750D02*
D03*
X-2750D02*
D03*
X-3750D02*
D03*
X-3250D02*
D03*
X2569Y2512D02*
D03*
X1369D02*
D03*
X1969Y1092D02*
D03*
X2569Y1292D02*
D03*
X1369D02*
D03*
X869Y2512D02*
D03*
X-331D02*
D03*
X269Y1092D02*
D03*
X869Y1292D02*
D03*
X-331D02*
D03*
X-831Y2512D02*
D03*
X-2031D02*
D03*
X-1431Y1092D02*
D03*
X-831Y1292D02*
D03*
X-2031D02*
D03*
X-2531Y2512D02*
D03*
X-3731D02*
D03*
X-3131Y1092D02*
D03*
X-2531Y1292D02*
D03*
X-3731D02*
D03*
D18*
X3169Y1648D02*
D03*
X3169Y2156D02*
D03*
X3169Y2664D02*
D03*
X3169Y1140D02*
D03*
X3857Y1648D02*
D03*
X3857Y2156D02*
D03*
X3857Y2664D02*
D03*
Y1140D02*
D03*
X4546Y1648D02*
D03*
X4546Y2156D02*
D03*
Y2664D02*
D03*
Y1140D02*
D03*
X5234Y1648D02*
D03*
X5234Y2156D02*
D03*
X5234Y2664D02*
D03*
X5234Y1140D02*
D03*
X5922Y1648D02*
D03*
Y2156D02*
D03*
Y2664D02*
D03*
Y1140D02*
D03*
X6611Y1648D02*
D03*
Y2156D02*
D03*
Y2664D02*
D03*
Y1140D02*
D03*
X7299Y1648D02*
D03*
Y2156D02*
D03*
Y2664D02*
D03*
Y1140D02*
D03*
X7988Y1648D02*
D03*
X7988Y2156D02*
D03*
X7988Y2664D02*
D03*
X7988Y1140D02*
D03*
X9365Y1648D02*
D03*
X9365Y2156D02*
D03*
Y2664D02*
D03*
Y1140D02*
D03*
X10053Y1648D02*
D03*
Y2156D02*
D03*
X10053Y2664D02*
D03*
X10053Y1140D02*
D03*
X10742Y1648D02*
D03*
X10742Y2156D02*
D03*
Y2664D02*
D03*
Y1140D02*
D03*
X11430Y1648D02*
D03*
Y2156D02*
D03*
X11430Y2664D02*
D03*
X11430Y1140D02*
D03*
X12119Y1648D02*
D03*
X12119Y2156D02*
D03*
X12119Y2664D02*
D03*
Y1140D02*
D03*
X8676Y1648D02*
D03*
Y2156D02*
D03*
Y2664D02*
D03*
Y1140D02*
D03*
D19*
X3831Y75D02*
D03*
Y329D02*
D03*
X3577Y75D02*
D03*
Y329D02*
D03*
X3323D02*
D03*
Y75D02*
D03*
X3069Y329D02*
D03*
Y75D02*
D03*
X2815Y329D02*
D03*
Y75D02*
D03*
X2561Y329D02*
D03*
Y75D02*
D03*
X2307Y329D02*
D03*
X8131Y75D02*
D03*
Y329D02*
D03*
X7877Y75D02*
D03*
Y329D02*
D03*
X7623D02*
D03*
Y75D02*
D03*
X7369Y329D02*
D03*
Y75D02*
D03*
X7115Y329D02*
D03*
Y75D02*
D03*
X6861Y329D02*
D03*
Y75D02*
D03*
X6607Y329D02*
D03*
D20*
X2307Y75D02*
D03*
X6607D02*
D03*
D21*
X2312Y3325D02*
D03*
X2662D02*
D03*
X3012D02*
D03*
X3362D02*
D03*
X3833D02*
D03*
X4183D02*
D03*
X4533D02*
D03*
X4883D02*
D03*
X5233D02*
D03*
X5583D02*
D03*
X5933D02*
D03*
X6283D02*
D03*
X6753Y3325D02*
D03*
X7103D02*
D03*
X7453D02*
D03*
X7803D02*
D03*
X8153D02*
D03*
X8503D02*
D03*
X8853D02*
D03*
X9203D02*
D03*
X9678D02*
D03*
X10028D02*
D03*
X10378D02*
D03*
X10728D02*
D03*
X11078D02*
D03*
X11428D02*
D03*
X11778D02*
D03*
X12128D02*
D03*
D22*
X0Y0D02*
D03*
X11000D02*
D03*
D23*
X5750Y500D02*
D03*
X10383Y405D02*
D03*
X2812Y-397D02*
D03*
M02*
