G04 Layer_Physical_Order=1*
G04 Layer_Color=255*
%FSLAX42Y42*%
%MOMM*%
G71*
G01*
G75*
%ADD10C,0.50*%
G04:AMPARAMS|DCode=11|XSize=0.7mm|YSize=1.3mm|CornerRadius=0.17mm|HoleSize=0mm|Usage=FLASHONLY|Rotation=90.000|XOffset=0mm|YOffset=0mm|HoleType=Round|Shape=RoundedRectangle|*
%AMROUNDEDRECTD11*
21,1,0.70,0.95,0,0,90.0*
21,1,0.35,1.30,0,0,90.0*
1,1,0.35,0.47,0.17*
1,1,0.35,0.47,-0.17*
1,1,0.35,-0.47,-0.17*
1,1,0.35,-0.47,0.17*
%
%ADD11ROUNDEDRECTD11*%
%ADD12O,0.60X1.90*%
%ADD13R,0.60X1.90*%
%ADD14O,2.20X0.60*%
%ADD15R,2.20X0.60*%
%ADD16O,0.25X1.55*%
%ADD17O,1.55X0.25*%
%ADD18R,1.55X0.25*%
G04:AMPARAMS|DCode=19|XSize=1mm|YSize=3mm|CornerRadius=0.25mm|HoleSize=0mm|Usage=FLASHONLY|Rotation=0.000|XOffset=0mm|YOffset=0mm|HoleType=Round|Shape=RoundedRectangle|*
%AMROUNDEDRECTD19*
21,1,1.00,2.50,0,0,0.0*
21,1,0.50,3.00,0,0,0.0*
1,1,0.50,0.25,-1.25*
1,1,0.50,-0.25,-1.25*
1,1,0.50,-0.25,1.25*
1,1,0.50,0.25,1.25*
%
%ADD19ROUNDEDRECTD19*%
%ADD20R,10.60X8.30*%
G04:AMPARAMS|DCode=21|XSize=0.7mm|YSize=1.3mm|CornerRadius=0.17mm|HoleSize=0mm|Usage=FLASHONLY|Rotation=180.000|XOffset=0mm|YOffset=0mm|HoleType=Round|Shape=RoundedRectangle|*
%AMROUNDEDRECTD21*
21,1,0.70,0.95,0,0,180.0*
21,1,0.35,1.30,0,0,180.0*
1,1,0.35,-0.17,0.47*
1,1,0.35,0.17,0.47*
1,1,0.35,0.17,-0.47*
1,1,0.35,-0.17,-0.47*
%
%ADD21ROUNDEDRECTD21*%
G04:AMPARAMS|DCode=22|XSize=2mm|YSize=2.2mm|CornerRadius=0.5mm|HoleSize=0mm|Usage=FLASHONLY|Rotation=0.000|XOffset=0mm|YOffset=0mm|HoleType=Round|Shape=RoundedRectangle|*
%AMROUNDEDRECTD22*
21,1,2.00,1.20,0,0,0.0*
21,1,1.00,2.20,0,0,0.0*
1,1,1.00,0.50,-0.60*
1,1,1.00,-0.50,-0.60*
1,1,1.00,-0.50,0.60*
1,1,1.00,0.50,0.60*
%
%ADD22ROUNDEDRECTD22*%
G04:AMPARAMS|DCode=23|XSize=2mm|YSize=2.2mm|CornerRadius=0.5mm|HoleSize=0mm|Usage=FLASHONLY|Rotation=270.000|XOffset=0mm|YOffset=0mm|HoleType=Round|Shape=RoundedRectangle|*
%AMROUNDEDRECTD23*
21,1,2.00,1.20,0,0,270.0*
21,1,1.00,2.20,0,0,270.0*
1,1,1.00,-0.60,-0.50*
1,1,1.00,-0.60,0.50*
1,1,1.00,0.60,0.50*
1,1,1.00,0.60,-0.50*
%
%ADD23ROUNDEDRECTD23*%
G04:AMPARAMS|DCode=24|XSize=2.5mm|YSize=3.3mm|CornerRadius=0.63mm|HoleSize=0mm|Usage=FLASHONLY|Rotation=180.000|XOffset=0mm|YOffset=0mm|HoleType=Round|Shape=RoundedRectangle|*
%AMROUNDEDRECTD24*
21,1,2.50,2.05,0,0,180.0*
21,1,1.25,3.30,0,0,180.0*
1,1,1.25,-0.63,1.02*
1,1,1.25,0.63,1.02*
1,1,1.25,0.63,-1.02*
1,1,1.25,-0.63,-1.02*
%
%ADD24ROUNDEDRECTD24*%
G04:AMPARAMS|DCode=25|XSize=0.9mm|YSize=1.3mm|CornerRadius=0.23mm|HoleSize=0mm|Usage=FLASHONLY|Rotation=90.000|XOffset=0mm|YOffset=0mm|HoleType=Round|Shape=RoundedRectangle|*
%AMROUNDEDRECTD25*
21,1,0.90,0.85,0,0,90.0*
21,1,0.45,1.30,0,0,90.0*
1,1,0.45,0.42,0.23*
1,1,0.45,0.42,-0.23*
1,1,0.45,-0.42,-0.23*
1,1,0.45,-0.42,0.23*
%
%ADD25ROUNDEDRECTD25*%
G04:AMPARAMS|DCode=26|XSize=0.9mm|YSize=1.3mm|CornerRadius=0.23mm|HoleSize=0mm|Usage=FLASHONLY|Rotation=180.000|XOffset=0mm|YOffset=0mm|HoleType=Round|Shape=RoundedRectangle|*
%AMROUNDEDRECTD26*
21,1,0.90,0.85,0,0,180.0*
21,1,0.45,1.30,0,0,180.0*
1,1,0.45,-0.23,0.42*
1,1,0.45,0.23,0.42*
1,1,0.45,0.23,-0.42*
1,1,0.45,-0.23,-0.42*
%
%ADD26ROUNDEDRECTD26*%
G04:AMPARAMS|DCode=27|XSize=1.15mm|YSize=1.8mm|CornerRadius=0.29mm|HoleSize=0mm|Usage=FLASHONLY|Rotation=0.000|XOffset=0mm|YOffset=0mm|HoleType=Round|Shape=RoundedRectangle|*
%AMROUNDEDRECTD27*
21,1,1.15,1.23,0,0,0.0*
21,1,0.57,1.80,0,0,0.0*
1,1,0.57,0.29,-0.61*
1,1,0.57,-0.29,-0.61*
1,1,0.57,-0.29,0.61*
1,1,0.57,0.29,0.61*
%
%ADD27ROUNDEDRECTD27*%
%ADD28R,3.30X2.40*%
%ADD29R,1.00X2.40*%
G04:AMPARAMS|DCode=30|XSize=1.6mm|YSize=3.5mm|CornerRadius=0.4mm|HoleSize=0mm|Usage=FLASHONLY|Rotation=270.000|XOffset=0mm|YOffset=0mm|HoleType=Round|Shape=RoundedRectangle|*
%AMROUNDEDRECTD30*
21,1,1.60,2.70,0,0,270.0*
21,1,0.80,3.50,0,0,270.0*
1,1,0.80,-1.35,-0.40*
1,1,0.80,-1.35,0.40*
1,1,0.80,1.35,0.40*
1,1,0.80,1.35,-0.40*
%
%ADD30ROUNDEDRECTD30*%
G04:AMPARAMS|DCode=31|XSize=10mm|YSize=11mm|CornerRadius=2.5mm|HoleSize=0mm|Usage=FLASHONLY|Rotation=270.000|XOffset=0mm|YOffset=0mm|HoleType=Round|Shape=RoundedRectangle|*
%AMROUNDEDRECTD31*
21,1,10.00,6.00,0,0,270.0*
21,1,5.00,11.00,0,0,270.0*
1,1,5.00,-3.00,-2.50*
1,1,5.00,-3.00,2.50*
1,1,5.00,3.00,2.50*
1,1,5.00,3.00,-2.50*
%
%ADD31ROUNDEDRECTD31*%
%ADD32C,0.25*%
%ADD33C,0.30*%
%ADD34C,0.60*%
%ADD35C,1.00*%
%ADD36C,2.00*%
%ADD37C,1.50*%
%ADD38C,0.80*%
%ADD39C,0.40*%
%ADD40C,0.35*%
%ADD41C,0.25*%
%ADD42C,7.00*%
%ADD43C,1.57*%
%ADD44C,2.00*%
%ADD45R,2.50X2.50*%
%ADD46C,2.50*%
%ADD47C,1.50*%
%ADD48R,1.50X1.50*%
%ADD49R,1.50X1.50*%
%ADD50C,1.50*%
%ADD51R,1.50X1.50*%
%ADD52R,1.50X1.50*%
%ADD53C,2.00*%
%ADD54R,2.00X2.00*%
%ADD55C,1.80*%
%ADD56C,1.00*%
%ADD57R,1.00X1.00*%
%ADD58R,1.20X1.20*%
%ADD59C,1.20*%
%ADD60O,2.00X3.00*%
%ADD61C,1.70*%
%ADD62C,3.00*%
%ADD63R,1.70X1.70*%
%ADD64C,0.80*%
D10*
X585Y-88D02*
G03*
X619Y-169I115J0D01*
G01*
X585Y-88D02*
G03*
X619Y-169I115J0D01*
G01*
X445Y0D02*
G03*
X445Y0I-445J0D01*
G01*
X1245Y175D02*
G03*
X944Y339I-195J0D01*
G01*
X709Y574D02*
G03*
X825Y753I-79J178D01*
G01*
X482Y880D02*
G03*
X452Y831I148J-127D01*
G01*
X825Y753D02*
G03*
X778Y880I-195J0D01*
G01*
X481Y1134D02*
G03*
X482Y880I149J-126D01*
G01*
X778D02*
G03*
X825Y1007I-148J127D01*
G01*
D02*
G03*
X779Y1134I-195J0D01*
G01*
Y1134D02*
G03*
X825Y1260I-149J126D01*
G01*
X1123Y1263D02*
G03*
X1158Y1178I120J0D01*
G01*
X1123Y1263D02*
G03*
X1158Y1178I120J0D01*
G01*
X1331Y-142D02*
G03*
X1345Y-75I-156J68D01*
G01*
X1682Y-235D02*
G03*
X1795Y-75I-57J160D01*
G01*
D02*
G03*
X1785Y-17I-170J0D01*
G01*
X1345Y-75D02*
G03*
X1224Y88I-170J0D01*
G01*
D02*
G03*
X1245Y175I-174J87D01*
G01*
X1576Y88D02*
G03*
X1455Y-82I49J-163D01*
G01*
X1785Y-17D02*
G03*
X1945Y175I-35J192D01*
G01*
X1635Y333D02*
G03*
X1576Y88I115J-157D01*
G01*
X1945Y175D02*
G03*
X1865Y333I-195J0D01*
G01*
X2669Y-386D02*
G03*
X2703Y-305I-81J81D01*
G01*
X2037Y-75D02*
G03*
X1991Y-235I136J-125D01*
G01*
X2669Y-386D02*
G03*
X2703Y-305I-81J81D01*
G01*
X2300Y185D02*
G03*
X2037Y-75I-127J-135D01*
G01*
X2611Y29D02*
G03*
X2612Y50I-184J21D01*
G01*
D02*
G03*
X2300Y185I-185J0D01*
G01*
X2703Y-110D02*
G03*
X2669Y-29I-115J0D01*
G01*
X2703Y-110D02*
G03*
X2669Y-29I-115J0D01*
G01*
X1267Y700D02*
G03*
X1302Y616I120J0D01*
G01*
X1267Y700D02*
G03*
X1302Y616I120J0D01*
G01*
X1550Y368D02*
G03*
X1635Y333I85J85D01*
G01*
X1550Y368D02*
G03*
X1635Y333I85J85D01*
G01*
X1262Y825D02*
G03*
X1267Y790I125J0D01*
G01*
X1295Y1040D02*
G03*
X1262Y955I92J-85D01*
G01*
X1893D02*
G03*
X1888Y990I-125J0D01*
G01*
X2063Y978D02*
G03*
X2058Y945I108J-33D01*
G01*
X281Y1771D02*
G03*
X362Y1738I81J81D01*
G01*
X281Y1771D02*
G03*
X362Y1738I81J81D01*
G01*
X825Y1260D02*
G03*
X481Y1134I-195J0D01*
G01*
X1041Y1738D02*
G03*
X1123Y1649I121J30D01*
G01*
X1068Y2143D02*
G03*
X921Y2060I-43J-96D01*
G01*
X1163Y2243D02*
G03*
X1068Y2143I0J-95D01*
G01*
X0Y2455D02*
G03*
X-14Y2469I-127J-113D01*
G01*
D02*
G03*
X0Y2483I-113J127D01*
G01*
X14Y2469D02*
G03*
X0Y2455I113J-127D01*
G01*
Y2483D02*
G03*
X14Y2469I127J113D01*
G01*
X240D02*
G03*
X297Y2596I-113J127D01*
G01*
X252Y2457D02*
G03*
X240Y2469I-125J-115D01*
G01*
X-240Y2723D02*
G03*
X-297Y2589I113J-127D01*
G01*
X-240Y2977D02*
G03*
X-240Y2723I113J-127D01*
G01*
X-14D02*
G03*
X0Y2737I-113J127D01*
G01*
X297Y2596D02*
G03*
X240Y2723I-170J0D01*
G01*
X0Y2709D02*
G03*
X-14Y2723I-127J-113D01*
G01*
X14D02*
G03*
X0Y2709I113J-127D01*
G01*
Y2737D02*
G03*
X14Y2723I127J113D01*
G01*
X240D02*
G03*
X297Y2850I-113J127D01*
G01*
X458Y2423D02*
G03*
X377Y2457I-81J-81D01*
G01*
X458Y2423D02*
G03*
X377Y2457I-81J-81D01*
G01*
X854Y2409D02*
G03*
X943Y2373I88J88D01*
G01*
X854Y2409D02*
G03*
X943Y2373I88J88D01*
G01*
X620Y2695D02*
G03*
X657Y2607I125J0D01*
G01*
X620Y2695D02*
G03*
X657Y2607I125J0D01*
G01*
X2359Y1270D02*
G03*
X2399Y1379I-130J109D01*
G01*
X2399Y1633D02*
G03*
X2342Y1760I-170J0D01*
G01*
Y2014D02*
G03*
X2349Y2021I-113J127D01*
G01*
X2342Y1760D02*
G03*
X2399Y1887I-113J127D01*
G01*
D02*
G03*
X2342Y2014I-170J0D01*
G01*
X2399Y1379D02*
G03*
X2364Y1482I-170J0D01*
G01*
Y1530D02*
G03*
X2399Y1633I-135J103D01*
G01*
X1691Y2268D02*
G03*
X1606Y2233I0J-120D01*
G01*
X1691Y2268D02*
G03*
X1606Y2233I0J-120D01*
G01*
X2349Y2261D02*
G03*
X2315Y2288I-120J-120D01*
G01*
X2585Y1835D02*
G03*
X2550Y1750I85J-85D01*
G01*
X2585Y1835D02*
G03*
X2550Y1750I85J-85D01*
G01*
X2878Y1760D02*
G03*
X2871Y1753I113J-127D01*
G01*
Y1767D02*
G03*
X2878Y1760I120J120D01*
G01*
X2469Y2021D02*
G03*
X2553Y2056I0J120D01*
G01*
X2469Y2021D02*
G03*
X2553Y2056I0J120D01*
G01*
X2807Y2007D02*
G03*
X2722Y1972I0J-120D01*
G01*
X2807Y2007D02*
G03*
X2722Y1972I0J-120D01*
G01*
X2825Y2178D02*
G03*
X2878Y2014I166J-37D01*
G01*
D02*
G03*
X2871Y2007I113J-127D01*
G01*
X1558Y2367D02*
G03*
X1521Y2456I-125J0D01*
G01*
X1558Y2367D02*
G03*
X1521Y2456I-125J0D01*
G01*
X1793Y2273D02*
G03*
X1758Y2268I0J-125D01*
G01*
X1397Y2579D02*
G03*
X1484Y2632I-40J165D01*
G01*
D02*
G03*
X1738Y2632I127J113D01*
G01*
X2035Y2745D02*
G03*
X1738Y2858I-170J0D01*
G01*
X1740Y2629D02*
G03*
X1777Y2544I125J3D01*
G01*
X2215Y2588D02*
G03*
X2133Y2553I0J-112D01*
G01*
X1740Y2629D02*
G03*
X1777Y2544I125J3D01*
G01*
X2013Y2661D02*
G03*
X2035Y2745I-148J84D01*
G01*
X2328Y2298D02*
G03*
X2405Y2268I77J82D01*
G01*
X2328Y2557D02*
G03*
X2250Y2588I-77J-82D01*
G01*
X2315Y2288D02*
G03*
X2328Y2298I-65J92D01*
G01*
X2405Y2588D02*
G03*
X2328Y2557I0J-112D01*
G01*
X2498Y2572D02*
G03*
X2440Y2588I-57J-97D01*
G01*
X2738Y2663D02*
G03*
X2810Y2668I28J132D01*
G01*
X2810D02*
G03*
X2888Y2545I135J-0D01*
G01*
X2533Y2805D02*
G03*
X2498Y2720I85J-85D01*
G01*
X3007Y2788D02*
G03*
X2900Y2795I-62J-120D01*
G01*
X2533Y2805D02*
G03*
X2498Y2720I85J-85D01*
G01*
X3260Y6D02*
G03*
X3260Y6I-245J0D01*
G01*
D02*
G03*
X3260Y6I-245J0D01*
G01*
X4199Y184D02*
G03*
X4199Y-173I-168J-178D01*
G01*
Y184D02*
G03*
X4199Y-173I-168J-178D01*
G01*
X4612Y6D02*
G03*
X4199Y184I-245J0D01*
G01*
X4612Y6D02*
G03*
X4199Y184I-245J0D01*
G01*
Y-173D02*
G03*
X4612Y6I168J178D01*
G01*
X4199Y-173D02*
G03*
X4612Y6I168J178D01*
G01*
X3073Y293D02*
G03*
X3158Y258I85J85D01*
G01*
X3073Y293D02*
G03*
X3158Y258I85J85D01*
G01*
X3838D02*
G03*
X3922Y293I0J120D01*
G01*
X3838Y258D02*
G03*
X3922Y293I0J120D01*
G01*
X4085Y455D02*
G03*
X4120Y540I-85J85D01*
G01*
X4085Y455D02*
G03*
X4120Y540I-85J85D01*
G01*
X3586Y1022D02*
G03*
X3579Y1029I-127J-128D01*
G01*
X3817Y1041D02*
G03*
X3586Y1022I-104J-147D01*
G01*
X4395Y390D02*
G03*
X4480Y355I85J85D01*
G01*
X4395Y390D02*
G03*
X4480Y355I85J85D01*
G01*
X4773D02*
G03*
X4858Y390I0J120D01*
G01*
X4773Y355D02*
G03*
X4858Y390I0J120D01*
G01*
X4928Y461D02*
G03*
X5066Y513I10J180D01*
G01*
D02*
G03*
X5373Y641I127J128D01*
G01*
X5246Y895D02*
G03*
X5055Y1074I-180J0D01*
G01*
X4483Y1080D02*
G03*
X4495Y1082I-25J143D01*
G01*
X6293Y-450D02*
G03*
X6317Y-356I-171J94D01*
G01*
X5995Y-208D02*
G03*
X5697Y-450I-127J-148D01*
G01*
X6317Y-356D02*
G03*
X5995Y-208I-195J0D01*
G01*
X5628Y6D02*
G03*
X5628Y6I-245J0D01*
G01*
D02*
G03*
X5628Y6I-245J0D01*
G01*
X7112D02*
G03*
X7112Y6I-245J0D01*
G01*
D02*
G03*
X7112Y6I-245J0D01*
G01*
X5373Y641D02*
G03*
X5228Y817I-180J0D01*
G01*
X5228Y817D02*
G03*
X5246Y895I-162J78D01*
G01*
X5927Y592D02*
G03*
X5927Y220I-59J-186D01*
G01*
X5512Y983D02*
G03*
X5615Y940I103J102D01*
G01*
X5512Y982D02*
G03*
X5615Y940I103J103D01*
G01*
X5825D02*
G03*
X6104Y959I130J145D01*
G01*
D02*
G03*
X6375Y1085I106J126D01*
G01*
X7240Y510D02*
G03*
X7464Y641I74J130D01*
G01*
X7296Y1038D02*
G03*
X7022Y821I-109J-143D01*
G01*
X3374Y1176D02*
G03*
X3339Y1092I85J-85D01*
G01*
X3374Y1176D02*
G03*
X3339Y1092I85J-85D01*
G01*
X3300Y1335D02*
G03*
X3385Y1300I85J85D01*
G01*
X3300Y1335D02*
G03*
X3385Y1300I85J85D01*
G01*
X3388D02*
G03*
X3442Y1245I127J70D01*
G01*
X3139Y1549D02*
G03*
X3161Y1633I-148J84D01*
G01*
D02*
G03*
X3104Y1760I-170J0D01*
G01*
X3195Y1490D02*
G03*
X3230Y1405I120J0D01*
G01*
X3195Y1490D02*
G03*
X3230Y1405I120J0D01*
G01*
X3515Y1615D02*
G03*
X3435Y1591I0J-145D01*
G01*
X3660Y1123D02*
G03*
X3695Y1207I-85J85D01*
G01*
X3660Y1123D02*
G03*
X3695Y1207I-85J85D01*
G01*
X3742Y1223D02*
G03*
X3817Y1096I145J0D01*
G01*
X3695Y1238D02*
G03*
X3742Y1273I-60J132D01*
G01*
X4058Y1096D02*
G03*
X4133Y1223I-70J127D01*
G01*
X4212D02*
G03*
X4242Y1134I145J0D01*
G01*
X3692Y1603D02*
G03*
X3635Y1615I-57J-133D01*
G01*
X4133Y1343D02*
G03*
X4114Y1412I-145J0D01*
G01*
X4231D02*
G03*
X4212Y1343I127J-70D01*
G01*
X3104Y1760D02*
G03*
X3161Y1887I-113J127D01*
G01*
D02*
G03*
X3104Y2014I-170J0D01*
G01*
D02*
G03*
X3152Y2086I-113J127D01*
G01*
X3435Y1719D02*
G03*
X3515Y1695I80J121D01*
G01*
X3252Y2752D02*
G03*
X3167Y2788I-85J-85D01*
G01*
X3252Y2752D02*
G03*
X3167Y2788I-85J-85D01*
G01*
X4888Y1440D02*
G03*
X4852Y1525I-120J0D01*
G01*
X4888Y1440D02*
G03*
X4852Y1525I-120J0D01*
G01*
X6104Y1211D02*
G03*
X5825Y1230I-149J-126D01*
G01*
X6375Y1085D02*
G03*
X6104Y1211I-165J0D01*
G01*
X4635Y1742D02*
G03*
X4550Y1778I-85J-85D01*
G01*
X4635Y1742D02*
G03*
X4550Y1778I-85J-85D01*
G01*
X4984Y2819D02*
G03*
X4984Y2819I-170J0D01*
G01*
X7016Y2819D02*
G03*
X7016Y2819I-170J0D01*
G01*
X14Y2977D02*
G03*
X0Y2963I113J-127D01*
G01*
D02*
G03*
X-14Y2977I-127J-113D01*
G01*
X-215Y3249D02*
G03*
X-240Y2977I88J-145D01*
G01*
X-14D02*
G03*
X0Y2991I-113J127D01*
G01*
Y3217D02*
G03*
X-39Y3249I-127J-113D01*
G01*
X0Y2991D02*
G03*
X14Y2977I127J113D01*
G01*
X-215Y3467D02*
G03*
X-215Y3249I88J-109D01*
G01*
X-12Y3737D02*
G03*
X-215Y3467I-115J-125D01*
G01*
X0Y3417D02*
G03*
X-39Y3467I-127J-59D01*
G01*
Y3249D02*
G03*
X0Y3299I-88J109D01*
G01*
X-39Y3467D02*
G03*
X-12Y3487I-88J145D01*
G01*
X297Y2850D02*
G03*
X240Y2977I-170J0D01*
G01*
D02*
G03*
X297Y3104I-113J127D01*
G01*
D02*
G03*
X215Y3249I-170J0D01*
G01*
X39D02*
G03*
X0Y3217I88J-145D01*
G01*
Y3299D02*
G03*
X39Y3249I127J59D01*
G01*
Y3467D02*
G03*
X0Y3417I88J-109D01*
G01*
X215Y3249D02*
G03*
X267Y3358I-88J109D01*
G01*
D02*
G03*
X215Y3467I-140J0D01*
G01*
D02*
G03*
X242Y3487I-88J145D01*
G01*
X12D02*
G03*
X39Y3467I115J125D01*
G01*
X-50Y5095D02*
G03*
X-50Y4705I0J-195D01*
G01*
Y5095D02*
G03*
X-50Y4705I0J-195D01*
G01*
X242Y3737D02*
G03*
X12Y3737I-115J-125D01*
G01*
X465Y3700D02*
G03*
X377Y3737I-88J-88D01*
G01*
X465Y3700D02*
G03*
X377Y3737I-88J-88D01*
G01*
X115Y4400D02*
G03*
X115Y4400I-165J0D01*
G01*
X1484Y2858D02*
G03*
X1243Y2871I-127J-113D01*
G01*
X870Y3244D02*
G03*
X833Y3332I-125J0D01*
G01*
X870Y3244D02*
G03*
X833Y3332I-125J0D01*
G01*
X1738Y2858D02*
G03*
X1484Y2858I-127J-113D01*
G01*
X2693Y2915D02*
G03*
X2608Y2880I0J-120D01*
G01*
X2693Y2915D02*
G03*
X2608Y2880I0J-120D01*
G01*
X2461Y3605D02*
G03*
X2639Y3605I89J145D01*
G01*
Y3895D02*
G03*
X2461Y3895I-89J-145D01*
G01*
X775Y4365D02*
G03*
X890Y4250I115J0D01*
G01*
Y4580D02*
G03*
X775Y4465I0J-115D01*
G01*
X1010Y4250D02*
G03*
X1125Y4365I0J115D01*
G01*
Y4465D02*
G03*
X1010Y4580I-115J0D01*
G01*
X826Y4705D02*
G03*
X890Y4690I64J130D01*
G01*
X1010Y5080D02*
G03*
X935Y5095I-75J-180D01*
G01*
X1010Y5080D02*
G03*
X935Y5095I-75J-180D01*
G01*
X1377Y4690D02*
G03*
X1515Y4747I0J195D01*
G01*
X1377Y4690D02*
G03*
X1515Y4747I0J195D01*
G01*
X1840Y4250D02*
G03*
X1840Y4250I-140J0D01*
G01*
X2639Y4395D02*
G03*
X2639Y4105I-89J-145D01*
G01*
X1595Y4780D02*
G03*
X1753Y4938I0J158D01*
G01*
X2063D02*
G03*
X2220Y4780I158J0D01*
G01*
X2345D02*
G03*
X2503Y4938I0J158D01*
G01*
X115Y5400D02*
G03*
X115Y5400I-165J0D01*
G01*
X-245Y5893D02*
G03*
X-50Y5690I195J-8D01*
G01*
X-134Y6076D02*
G03*
X-245Y5893I84J-176D01*
G01*
X775Y5365D02*
G03*
X890Y5250I115J0D01*
G01*
Y5580D02*
G03*
X775Y5465I0J-115D01*
G01*
X147Y6080D02*
G03*
X445Y6500I-147J420D01*
G01*
D02*
G03*
X-134Y6076I-445J0D01*
G01*
X1010Y5250D02*
G03*
X1125Y5365I0J115D01*
G01*
X1470Y5300D02*
G03*
X1313Y5143I0J-158D01*
G01*
X1125Y5465D02*
G03*
X1010Y5580I-115J0D01*
G01*
X1312Y5622D02*
G03*
X1470Y5465I158J0D01*
G01*
X1753Y5143D02*
G03*
X1595Y5300I-158J0D01*
G01*
X2088Y5228D02*
G03*
X2063Y5143I133J-85D01*
G01*
X2503D02*
G03*
X2477Y5228I-158J0D01*
G01*
X1595Y5465D02*
G03*
X1752Y5622I0J158D01*
G01*
X2062D02*
G03*
X2088Y5537I158J0D01*
G01*
X2477D02*
G03*
X2502Y5622I-133J85D01*
G01*
X1500Y6023D02*
G03*
X1362Y6080I-138J-138D01*
G01*
X1500Y6023D02*
G03*
X1362Y6080I-138J-138D01*
G01*
X1752Y5828D02*
G03*
X1595Y5985I-158J0D01*
G01*
X2220D02*
G03*
X2062Y5828I0J-158D01*
G01*
X2482Y6608D02*
G03*
X2405Y6232I-432J-108D01*
G01*
X2900Y2795D02*
G03*
X2703Y2915I-135J0D01*
G01*
X2861Y3605D02*
G03*
X2910Y3585I89J145D01*
G01*
X3115Y3790D02*
G03*
X2861Y3895I-165J-40D01*
G01*
X3147Y3847D02*
G03*
X3250Y3805I103J103D01*
G01*
X3147Y3848D02*
G03*
X3250Y3805I103J102D01*
G01*
X3625D02*
G03*
X3728Y3847I0J145D01*
G01*
X3625Y3805D02*
G03*
X3728Y3848I0J145D01*
G01*
X3115Y4290D02*
G03*
X2861Y4395I-165J-40D01*
G01*
Y4105D02*
G03*
X2910Y4085I89J145D01*
G01*
X3368Y4127D02*
G03*
X3372Y4095I120J0D01*
G01*
X3658Y4497D02*
G03*
X3645Y4497I0J-120D01*
G01*
X3794Y4461D02*
G03*
X3708Y4497I-86J-83D01*
G01*
X3645Y4497D02*
G03*
X3615Y4540I-132J-59D01*
G01*
X3645Y4497D02*
G03*
X3615Y4540I-132J-59D01*
G01*
X3875Y3878D02*
G03*
X3988Y3765I112J0D01*
G01*
X4022D02*
G03*
X4119Y3819I0J112D01*
G01*
D02*
G03*
X4178Y3795I59J58D01*
G01*
X4212D02*
G03*
X4295Y3878I0J82D01*
G01*
X3785Y3905D02*
G03*
X3828Y4008I-102J103D01*
G01*
X3785Y3905D02*
G03*
X3828Y4008I-103J103D01*
G01*
X3880Y4006D02*
G03*
X3875Y3972I108J-33D01*
G01*
X4295Y3972D02*
G03*
X4253Y4045I-82J0D01*
G01*
Y4045D02*
G03*
X4308Y4127I-35J83D01*
G01*
X3828Y4467D02*
G03*
X3794Y4461I0J-90D01*
G01*
X4170Y4525D02*
G03*
X3840Y4467I-170J0D01*
G01*
X4168Y4467D02*
G03*
X4160Y4467I0J-90D01*
G01*
X4160D02*
G03*
X4170Y4525I-160J58D01*
G01*
X4308Y4377D02*
G03*
X4218Y4467I-90J0D01*
G01*
X6224Y4851D02*
G03*
X6224Y4851I-140J0D01*
G01*
X7016D02*
G03*
X7016Y4851I-170J0D01*
G01*
X2738Y5905D02*
G03*
X2795Y6042I-138J138D01*
G01*
X2738Y5905D02*
G03*
X2795Y6042I-138J138D01*
G01*
X3072Y5943D02*
G03*
X3030Y5840I103J-103D01*
G01*
X3073Y5943D02*
G03*
X3030Y5840I102J-103D01*
G01*
X2795Y6100D02*
G03*
X3085Y6262I100J162D01*
G01*
X4448Y5748D02*
G03*
X4495Y5742I47J189D01*
G01*
X4448Y5748D02*
G03*
X4495Y5742I47J189D01*
G01*
X4002Y6217D02*
G03*
X4002Y6217I-125J0D01*
G01*
X4042Y6195D02*
G03*
X4100Y6057I195J0D01*
G01*
X4042Y6195D02*
G03*
X4100Y6057I195J0D01*
G01*
X4433Y6346D02*
G03*
X4599Y6133I418J154D01*
G01*
X3085Y6262D02*
G03*
X2877Y6451I-190J0D01*
G01*
X2825Y6950D02*
G03*
X2812Y6938I125J-150D01*
G01*
X2825Y6950D02*
G03*
X2812Y6938I125J-150D01*
G01*
X4406Y6533D02*
G03*
X4375Y6573I-169J-98D01*
G01*
X4406Y6533D02*
G03*
X4375Y6573I-169J-98D01*
G01*
X4010Y6938D02*
G03*
X3997Y6950I-138J-138D01*
G01*
X4010Y6938D02*
G03*
X3997Y6950I-138J-138D01*
G01*
X5295Y6500D02*
G03*
X4406Y6533I-445J0D01*
G01*
X5258Y5742D02*
G03*
X5395Y5800I0J195D01*
G01*
X5258Y5742D02*
G03*
X5395Y5800I0J195D01*
G01*
X5101Y6133D02*
G03*
X5295Y6500I-251J367D01*
G01*
X6933Y6231D02*
G03*
X6933Y6231I-220J0D01*
G01*
X6059Y6934D02*
G03*
X5921Y6877I0J-195D01*
G01*
X6059Y6934D02*
G03*
X5921Y6877I0J-195D01*
G01*
X6611Y6544D02*
G03*
X6814Y6544I102J195D01*
G01*
X6650Y6950D02*
G03*
X6611Y6934I62J-211D01*
G01*
X6814D02*
G03*
X6775Y6950I-102J-195D01*
G01*
X7825Y158D02*
G03*
X7825Y-147I-192J-152D01*
G01*
Y158D02*
G03*
X7825Y-147I-192J-152D01*
G01*
X7464Y641D02*
G03*
X7444Y715I-150J0D01*
G01*
Y715D02*
G03*
X7621Y895I-3J180D01*
G01*
X7825Y-147D02*
G03*
X8262Y6I192J152D01*
G01*
X7825Y-147D02*
G03*
X8262Y6I192J152D01*
G01*
D02*
G03*
X7825Y158I-245J0D01*
G01*
X8262Y6D02*
G03*
X7825Y158I-245J0D01*
G01*
X8390Y510D02*
G03*
X8614Y641I74J130D01*
G01*
X7621Y895D02*
G03*
X7601Y975I-180J0D01*
G01*
X7650Y1428D02*
G03*
X7586Y1398I22J-133D01*
G01*
X7822Y1555D02*
G03*
X7745Y1523I0J-110D01*
G01*
X7781Y1215D02*
G03*
X7806Y1273I-109J80D01*
G01*
X7586Y1838D02*
G03*
X8000Y1555I414J162D01*
G01*
X7338Y2293D02*
G03*
X7296Y2191I103J-103D01*
G01*
X7338Y2293D02*
G03*
X7296Y2191I102J-103D01*
G01*
X7822Y1555D02*
G03*
X7745Y1523I0J-110D01*
G01*
X8176Y975D02*
G03*
X8172Y821I161J-80D01*
G01*
X8475Y1180D02*
G03*
X8390Y1215I-85J-85D01*
G01*
X8475Y1180D02*
G03*
X8390Y1215I-85J-85D01*
G01*
X8000Y1555D02*
G03*
X8445Y2000I0J445D01*
G01*
X9028Y6D02*
G03*
X9028Y6I-245J0D01*
G01*
X8614Y641D02*
G03*
X8594Y715I-150J0D01*
G01*
Y715D02*
G03*
X8771Y895I-3J180D01*
G01*
D02*
G03*
X8580Y1074I-180J0D01*
G01*
X9028Y6D02*
G03*
X9028Y6I-245J0D01*
G01*
X9052Y170D02*
G03*
X9061Y155I148J84D01*
G01*
Y353D02*
G03*
X9052Y170I138J-99D01*
G01*
X9061Y607D02*
G03*
X9061Y409I138J-99D01*
G01*
Y861D02*
G03*
X9061Y663I138J-99D01*
G01*
X8705Y1335D02*
G03*
X8970Y1298I130J-38D01*
G01*
D02*
G03*
X8958Y1353I-135J0D01*
G01*
X7571Y3032D02*
G03*
X7889Y2948I148J-84D01*
G01*
X8202Y2747D02*
G03*
X8245Y2850I-102J103D01*
G01*
X8203Y2747D02*
G03*
X8245Y2850I-103J103D01*
G01*
X7889Y2948D02*
G03*
X7867Y3032I-170J0D01*
G01*
X8445Y2000D02*
G03*
X7885Y2430I-445J0D01*
G01*
X8393Y3057D02*
G03*
X8621Y2948I88J-109D01*
G01*
D02*
G03*
X8569Y3057I-140J0D01*
G01*
X8820Y3364D02*
G03*
X9695Y3250I430J-114D01*
G01*
X8371Y3332D02*
G03*
X8393Y3057I110J-130D01*
G01*
X8403Y3471D02*
G03*
X8371Y3394I78J-78D01*
G01*
X8403Y3471D02*
G03*
X8371Y3394I78J-78D01*
G01*
X8569Y3057D02*
G03*
X8651Y3202I-88J145D01*
G01*
D02*
G03*
X8591Y3332I-170J0D01*
G01*
X8592Y3349D02*
G03*
X8635Y3340I43J104D01*
G01*
X8730D02*
G03*
X8791Y3358I0J112D01*
G01*
D02*
G03*
X8820Y3364I-8J110D01*
G01*
X8791Y3358D02*
G03*
X8820Y3364I-8J110D01*
G01*
X8544Y3577D02*
G03*
X8477Y3545I11J-109D01*
G01*
X8544Y3577D02*
G03*
X8477Y3545I11J-109D01*
G01*
X8578Y3775D02*
G03*
X8522Y3678I57J-97D01*
G01*
Y3642D02*
G03*
X8544Y3577I112J0D01*
G01*
X8605Y3818D02*
G03*
X8578Y3775I78J-78D01*
G01*
X8605Y3818D02*
G03*
X8578Y3775I78J-78D01*
G01*
X10017Y3042D02*
G03*
X10095Y3010I78J78D01*
G01*
X10017Y3042D02*
G03*
X10095Y3010I78J78D01*
G01*
X10303Y2411D02*
G03*
X10568Y2443I121J120D01*
G01*
D02*
G03*
X10817Y2531I109J88D01*
G01*
D02*
G03*
X10758Y2645I-140J0D01*
G01*
X10897D02*
G03*
X11168Y2443I126J-114D01*
G01*
X9695Y3250D02*
G03*
X9674Y3386I-445J0D01*
G01*
X9929Y3620D02*
G03*
X10025Y3580I96J95D01*
G01*
X9930Y3620D02*
G03*
X10025Y3580I95J95D01*
G01*
X10109Y3860D02*
G03*
X10115Y3850I101J55D01*
G01*
X10305D02*
G03*
X10311Y3860I-95J65D01*
G01*
X10497Y3580D02*
G03*
X10593Y3620I0J135D01*
G01*
X10497Y3580D02*
G03*
X10593Y3620I0J135D01*
G01*
X11168Y2443D02*
G03*
X11417Y2531I109J88D01*
G01*
X11458Y2573D02*
G03*
X11768Y2443I165J-41D01*
G01*
D02*
G03*
X12017Y2531I109J88D01*
G01*
X12058Y2570D02*
G03*
X12368Y2443I165J-39D01*
G01*
D02*
G03*
X12598Y2461I109J88D01*
G01*
X13015Y2140D02*
G03*
X12734Y2100I-127J-113D01*
G01*
X12598Y2461D02*
G03*
X12763Y2408I114J72D01*
G01*
X14655Y2505D02*
G03*
X14968Y2443I168J26D01*
G01*
D02*
G03*
X15217Y2531I109J88D01*
G01*
X12017Y2531D02*
G03*
X12011Y2570I-140J0D01*
G01*
X11417Y2531D02*
G03*
X11411Y2573I-140J0D01*
G01*
X11987Y3090D02*
G03*
X11972Y3078I63J-90D01*
G01*
X11987Y3090D02*
G03*
X11972Y3078I63J-90D01*
G01*
X13191Y2521D02*
G03*
X13160Y2445I76J-76D01*
G01*
X13192Y2521D02*
G03*
X13160Y2445I76J-76D01*
G01*
X14716Y2663D02*
G03*
X14655Y2557I108J-132D01*
G01*
X14968Y2619D02*
G03*
X14930Y2663I-145J-88D01*
G01*
X15313Y2660D02*
G03*
X15568Y2443I110J-129D01*
G01*
D02*
G03*
X15817Y2531I109J88D01*
G01*
X15854Y2551D02*
G03*
X16168Y2443I169J-20D01*
G01*
D02*
G03*
X16417Y2531I109J88D01*
G01*
X16770Y2438D02*
G03*
X17018Y2526I109J88D01*
G01*
X16455Y2544D02*
G03*
X16770Y2438I169J-17D01*
G01*
X15596Y2645D02*
G03*
X15568Y2619I81J-114D01*
G01*
D02*
G03*
X15549Y2645I-145J-88D01*
G01*
X15817Y2531D02*
G03*
X15783Y2623I-140J0D01*
G01*
X15769Y2637D02*
G03*
X15758Y2645I-92J-106D01*
G01*
X15217Y2531D02*
G03*
X14968Y2619I-140J0D01*
G01*
X16168D02*
G03*
X16009Y2700I-145J-88D01*
G01*
X16417Y2531D02*
G03*
X16399Y2600I-140J0D01*
G01*
X16346Y2653D02*
G03*
X16168Y2619I-69J-122D01*
G01*
X17018Y2526D02*
G03*
X16770Y2615I-140J0D01*
G01*
D02*
G03*
X16607Y2696I-145J-88D01*
G01*
X16382Y2921D02*
G03*
X16306Y2952I-76J-76D01*
G01*
X16382Y2921D02*
G03*
X16306Y2952I-76J-76D01*
G01*
X11178Y3233D02*
G03*
X11266Y3269I0J125D01*
G01*
X11178Y3233D02*
G03*
X11266Y3269I0J125D01*
G01*
X11397Y3703D02*
G03*
X11309Y3666I0J-125D01*
G01*
X11397Y3703D02*
G03*
X11309Y3666I0J-125D01*
G01*
X12738Y3110D02*
G03*
X12753Y3122I-63J90D01*
G01*
X12738Y3110D02*
G03*
X12753Y3122I-63J90D01*
G01*
X13279Y3535D02*
G03*
X13368Y3475I96J47D01*
G01*
X11738Y3722D02*
G03*
X11753Y3778I-101J55D01*
G01*
D02*
G03*
X11537Y3722I-115J0D01*
G01*
X12363D02*
G03*
X12378Y3778I-101J55D01*
G01*
D02*
G03*
X12162Y3722I-115J0D01*
G01*
X12495Y3858D02*
G03*
X12582Y3770I88J0D01*
G01*
X13400Y3817D02*
G03*
X13276Y3755I-25J-105D01*
G01*
X13550Y3817D02*
G03*
X13500Y3817I-25J-105D01*
G01*
X13450D02*
G03*
X13400Y3817I-25J-105D01*
G01*
X13500D02*
G03*
X13450Y3817I-25J-105D01*
G01*
X13950D02*
G03*
X13900Y3817I-25J-105D01*
G01*
D02*
G03*
X13850Y3817I-25J-105D01*
G01*
X14232Y3712D02*
G03*
X14075Y3808I-108J0D01*
G01*
X14000Y3817D02*
G03*
X13950Y3817I-25J-105D01*
G01*
X14075Y3808D02*
G03*
X14000Y3817I-50J-95D01*
G01*
X13650D02*
G03*
X13600Y3817I-25J-105D01*
G01*
X13600D02*
G03*
X13550Y3817I-25J-105D01*
G01*
X13800D02*
G03*
X13750Y3817I-25J-105D01*
G01*
X13700D02*
G03*
X13650Y3817I-25J-105D01*
G01*
X13750D02*
G03*
X13700Y3817I-25J-105D01*
G01*
X13212Y3767D02*
G03*
X13320Y3875I0J108D01*
G01*
X13850Y3817D02*
G03*
X13800Y3817I-25J-105D01*
G01*
X14145Y3208D02*
G03*
X14232Y3120I88J0D01*
G01*
X14318D02*
G03*
X14405Y3208I0J88D01*
G01*
X14162Y3304D02*
G03*
X14145Y3253I71J-51D01*
G01*
X14405D02*
G03*
X14388Y3304I-88J0D01*
G01*
X14549Y3305D02*
G03*
X14596Y3149I101J-55D01*
G01*
X17945Y3250D02*
G03*
X17945Y3250I-445J0D01*
G01*
X14132Y3336D02*
G03*
X14162Y3304I100J62D01*
G01*
X14370Y3547D02*
G03*
X14318Y3560I-53J-105D01*
G01*
X14183Y3900D02*
G03*
X14288Y3767I105J-25D01*
G01*
X7581Y4709D02*
G03*
X7675Y4662I94J71D01*
G01*
X7698D02*
G03*
X7785Y4385I127J-112D01*
G01*
X7397Y4780D02*
G03*
X7485Y4692I88J0D01*
G01*
X7530D02*
G03*
X7581Y4709I0J88D01*
G01*
X7882Y4710D02*
G03*
X7903Y4727I-75J112D01*
G01*
X7882Y4710D02*
G03*
X7903Y4727I-75J112D01*
G01*
X7915Y4739D02*
G03*
X7986Y4719I71J115D01*
G01*
X7485Y4953D02*
G03*
X7397Y4865I0J-88D01*
G01*
X7581Y4936D02*
G03*
X7530Y4953I-51J-71D01*
G01*
X7675Y4983D02*
G03*
X7581Y4936I0J-117D01*
G01*
X7767Y4973D02*
G03*
X7720Y4983I-47J-108D01*
G01*
X7879Y5028D02*
G03*
X7783Y4989I0J-135D01*
G01*
X8245Y4275D02*
G03*
X8234Y4331I-145J0D01*
G01*
X8245Y4275D02*
G03*
X8234Y4331I-145J0D01*
G01*
X7986Y4617D02*
G03*
X7986Y4604I135J0D01*
G01*
X7986Y4617D02*
G03*
X7986Y4604I135J0D01*
G01*
X8234Y4331D02*
G03*
X8280Y4322I46J127D01*
G01*
X8234Y4331D02*
G03*
X8280Y4322I46J127D01*
G01*
X7986Y4604D02*
G03*
X7882Y4710I-161J-54D01*
G01*
X8256Y4719D02*
G03*
X8391Y4853I0J135D01*
G01*
Y4933D02*
G03*
X8256Y5069I-135J0D01*
G01*
X8544Y4897D02*
G03*
X8781Y4592I315J0D01*
G01*
X7431Y5395D02*
G03*
X7525Y5489I0J94D01*
G01*
X7550D02*
G03*
X7674Y5365I124J0D01*
G01*
X7280Y5489D02*
G03*
X7374Y5395I94J0D01*
G01*
X7879Y5028D02*
G03*
X7783Y4989I0J-135D01*
G01*
X7763Y5313D02*
G03*
X7851Y5276I88J88D01*
G01*
X7763Y5313D02*
G03*
X7851Y5276I88J88D01*
G01*
X7374Y5705D02*
G03*
X7280Y5611I0J-94D01*
G01*
X7525D02*
G03*
X7431Y5705I-94J0D01*
G01*
X7674Y5735D02*
G03*
X7550Y5611I0J-124D01*
G01*
X7855D02*
G03*
X7731Y5735I-124J0D01*
G01*
X7986Y5069D02*
G03*
X7890Y5028I0J-135D01*
G01*
X7881Y5276D02*
G03*
X7986Y5226I105J85D01*
G01*
X8256D02*
G03*
X8391Y5362I0J135D01*
G01*
X7981Y5576D02*
G03*
X7891Y5538I5J-135D01*
G01*
X8391Y5442D02*
G03*
X8337Y5549I-135J0D01*
G01*
X8018Y5641D02*
G03*
X7981Y5576I103J-103D01*
G01*
X8018Y5641D02*
G03*
X7981Y5576I102J-103D01*
G01*
X8859Y5712D02*
G03*
X8544Y5397I0J-315D01*
G01*
X8720Y3888D02*
G03*
X8642Y3855I0J-110D01*
G01*
X8720Y3888D02*
G03*
X8642Y3855I0J-110D01*
G01*
X9635D02*
G03*
X9557Y3888I-78J-78D01*
G01*
X9635Y3855D02*
G03*
X9557Y3888I-78J-78D01*
G01*
X10311Y3860D02*
G03*
X10325Y3915I-101J55D01*
G01*
D02*
G03*
X10109Y3860I-115J0D01*
G01*
X11675Y4128D02*
G03*
X11618Y4255I-170J0D01*
G01*
X11392D02*
G03*
X11675Y4128I113J-127D01*
G01*
X9378Y4553D02*
G03*
X9333Y4583I-95J-95D01*
G01*
X9378Y4553D02*
G03*
X9333Y4583I-96J-95D01*
G01*
X9459D02*
G03*
X9774Y4897I0J315D01*
G01*
Y5397D02*
G03*
X9459Y5712I-315J0D01*
G01*
X11417Y4527D02*
G03*
X11392Y4255I88J-145D01*
G01*
X11593Y4527D02*
G03*
X11645Y4636I-88J109D01*
G01*
X11618Y4255D02*
G03*
X11675Y4382I-113J127D01*
G01*
D02*
G03*
X11593Y4527I-170J0D01*
G01*
X11393Y4720D02*
G03*
X11417Y4527I112J-84D01*
G01*
X11645Y4636D02*
G03*
X11617Y4720I-140J0D01*
G01*
X8428Y6028D02*
G03*
X8370Y5992I45J-138D01*
G01*
X8428Y6028D02*
G03*
X8370Y5993I45J-138D01*
G01*
X7833Y6231D02*
G03*
X7833Y6231I-220J0D01*
G01*
X8845Y5745D02*
G03*
X8948Y5788I0J145D01*
G01*
X8845Y5745D02*
G03*
X8948Y5787I0J145D01*
G01*
X8733Y6231D02*
G03*
X8428Y6028I-220J0D01*
G01*
X8612Y6035D02*
G03*
X8733Y6231I-100J196D01*
G01*
X9247Y6086D02*
G03*
X9633Y6231I165J145D01*
G01*
X9186Y6376D02*
G03*
X9083Y6334I0J-145D01*
G01*
X9186Y6376D02*
G03*
X9083Y6333I0J-145D01*
G01*
X9633Y6231D02*
G03*
X9247Y6376I-220J0D01*
G01*
X7511Y6544D02*
G03*
X7714Y6544I102J195D01*
G01*
Y6934D02*
G03*
X7675Y6950I-102J-195D01*
G01*
X7550D02*
G03*
X7511Y6934I62J-211D01*
G01*
X8411Y6544D02*
G03*
X8614Y6544I102J195D01*
G01*
Y6934D02*
G03*
X8575Y6950I-102J-195D01*
G01*
X8450D02*
G03*
X8411Y6934I62J-211D01*
G01*
X10533Y6231D02*
G03*
X10533Y6231I-220J0D01*
G01*
X11958Y6225D02*
G03*
X12187Y6285I84J148D01*
G01*
D02*
G03*
X12405Y6285I109J88D01*
G01*
X9311Y6544D02*
G03*
X9514Y6544I102J195D01*
G01*
X9514Y6934D02*
G03*
X9475Y6950I-102J-195D01*
G01*
X9350D02*
G03*
X9311Y6934I62J-211D01*
G01*
X10250Y6950D02*
G03*
X10211Y6934I62J-211D01*
G01*
Y6544D02*
G03*
X10533Y6739I102J195D01*
G01*
X11915Y6740D02*
G03*
X11640Y6543I-127J-113D01*
G01*
X12187Y6461D02*
G03*
X12155Y6500I-145J-88D01*
G01*
X12237D02*
G03*
X12187Y6461I59J-127D01*
G01*
X12155Y6500D02*
G03*
X12187Y6539I-113J127D01*
G01*
D02*
G03*
X12237Y6500I109J88D01*
G01*
X10533Y6739D02*
G03*
X10375Y6950I-220J0D01*
G01*
X12187Y6715D02*
G03*
X11915Y6740I-145J-88D01*
G01*
X12582Y4030D02*
G03*
X12495Y3942I0J-88D01*
G01*
X13320Y3975D02*
G03*
X13317Y4000I-108J0D01*
G01*
D02*
G03*
X13320Y4025I-105J25D01*
G01*
X13317Y3900D02*
G03*
X13320Y3925I-105J25D01*
G01*
D02*
G03*
X13317Y3950I-108J0D01*
G01*
X12679Y4013D02*
G03*
X12628Y4030I-51J-71D01*
G01*
X12691Y4027D02*
G03*
X12679Y4013I82J-84D01*
G01*
X12659Y4049D02*
G03*
X12691Y4027I76J76D01*
G01*
X12659Y4049D02*
G03*
X12691Y4027I76J76D01*
G01*
X12474Y4296D02*
G03*
X12474Y4296I-174J0D01*
G01*
X13308Y4075D02*
G03*
X13320Y4125I-95J50D01*
G01*
X12480Y4272D02*
G03*
X12511Y4196I108J0D01*
G01*
X12480Y4272D02*
G03*
X12512Y4196I108J0D01*
G01*
X13317Y4500D02*
G03*
X13320Y4517I-105J25D01*
G01*
X13320Y3875D02*
G03*
X13317Y3900I-108J0D01*
G01*
Y3950D02*
G03*
X13320Y3975I-105J25D01*
G01*
Y4025D02*
G03*
X13308Y4075I-108J0D01*
G01*
X13320Y4225D02*
G03*
X13317Y4250I-108J0D01*
G01*
D02*
G03*
X13320Y4275I-105J25D01*
G01*
Y4125D02*
G03*
X13317Y4150I-108J0D01*
G01*
X13320Y4175D02*
G03*
X13317Y4200I-108J0D01*
G01*
Y4150D02*
G03*
X13320Y4175I-105J25D01*
G01*
X13317Y4200D02*
G03*
X13320Y4225I-105J25D01*
G01*
Y4325D02*
G03*
X13317Y4350I-108J0D01*
G01*
D02*
G03*
X13320Y4375I-105J25D01*
G01*
Y4275D02*
G03*
X13317Y4300I-108J0D01*
G01*
Y4300D02*
G03*
X13320Y4325I-105J25D01*
G01*
X13317Y4450D02*
G03*
X13320Y4475I-105J25D01*
G01*
D02*
G03*
X13317Y4500I-108J0D01*
G01*
X13320Y4375D02*
G03*
X13317Y4400I-108J0D01*
G01*
X13320Y4425D02*
G03*
X13317Y4450I-108J0D01*
G01*
Y4400D02*
G03*
X13320Y4425I-105J25D01*
G01*
X13890Y4250D02*
G03*
X13890Y4250I-140J0D01*
G01*
X13320Y4525D02*
G03*
X13356Y4549I-40J100D01*
G01*
X13320Y4525D02*
G03*
X13356Y4549I-40J100D01*
G01*
X12474Y4804D02*
G03*
X12474Y4804I-174J0D01*
G01*
X12975Y4685D02*
G03*
X12875Y4735I-105J-85D01*
G01*
X13090Y4882D02*
G03*
X13081Y4733I108J-82D01*
G01*
X13068Y5007D02*
G03*
X13090Y4942I108J0D01*
G01*
X13451Y4644D02*
G03*
X13475Y4680I-76J76D01*
G01*
X13451Y4644D02*
G03*
X13475Y4680I-76J76D01*
G01*
X13575Y4692D02*
G03*
X13650Y4683I50J95D01*
G01*
X13068Y5007D02*
G03*
X13090Y4942I108J0D01*
G01*
X13475Y4680D02*
G03*
X13500Y4683I0J108D01*
G01*
D02*
G03*
X13575Y4692I25J105D01*
G01*
X13650Y4683D02*
G03*
X13700Y4683I25J105D01*
G01*
X13050Y5233D02*
G03*
X13035Y5175I102J-57D01*
G01*
Y5090D02*
G03*
X13068Y5009I117J0D01*
G01*
X13035Y5290D02*
G03*
X13050Y5233I117J0D01*
G01*
X13153Y5493D02*
G03*
X13035Y5375I0J-117D01*
G01*
X13291Y5446D02*
G03*
X13198Y5493I-94J-71D01*
G01*
X13343Y5463D02*
G03*
X13291Y5446I0J-88D01*
G01*
X13434Y5491D02*
G03*
X13412Y5459I76J-76D01*
G01*
D02*
G03*
X13388Y5463I-24J-84D01*
G01*
X13434Y5491D02*
G03*
X13412Y5459I76J-76D01*
G01*
X14183Y4150D02*
G03*
X14183Y4100I105J-25D01*
G01*
Y4050D02*
G03*
X14183Y4000I105J-25D01*
G01*
Y4100D02*
G03*
X14183Y4050I105J-25D01*
G01*
Y3950D02*
G03*
X14183Y3900I105J-25D01*
G01*
Y4000D02*
G03*
X14183Y3950I105J-25D01*
G01*
Y4200D02*
G03*
X14183Y4150I105J-25D01*
G01*
Y4250D02*
G03*
X14183Y4200I105J-25D01*
G01*
Y4300D02*
G03*
X14183Y4250I105J-25D01*
G01*
Y4350D02*
G03*
X14183Y4300I105J-25D01*
G01*
X14713Y4333D02*
G03*
X14701Y4370I-133J-22D01*
G01*
X13850Y4683D02*
G03*
X13900Y4683I25J105D01*
G01*
X13700D02*
G03*
X13750Y4683I25J105D01*
G01*
X14073Y4560D02*
G03*
X14104Y4484I108J0D01*
G01*
X14073Y4560D02*
G03*
X14104Y4484I108J0D01*
G01*
X14139Y4449D02*
G03*
X14180Y4423I76J76D01*
G01*
X14139Y4449D02*
G03*
X14180Y4423I76J76D01*
G01*
X14183Y4400D02*
G03*
X14183Y4350I105J-25D01*
G01*
X14180Y4423D02*
G03*
X14183Y4400I107J2D01*
G01*
X14701Y4370D02*
G03*
X14715Y4430I-121J60D01*
G01*
D02*
G03*
X14701Y4490I-135J0D01*
G01*
X14715Y4550D02*
G03*
X14685Y4635I-135J0D01*
G01*
X14701Y4490D02*
G03*
X14715Y4550I-121J60D01*
G01*
X14883Y4301D02*
G03*
X14806Y4333I-76J-76D01*
G01*
X14882Y4301D02*
G03*
X14806Y4333I-76J-76D01*
G01*
X15265Y3874D02*
G03*
X15234Y3950I-108J0D01*
G01*
X15265Y3874D02*
G03*
X15233Y3950I-108J0D01*
G01*
X13800Y4683D02*
G03*
X13850Y4683I25J105D01*
G01*
X13750D02*
G03*
X13800Y4683I25J105D01*
G01*
X13950D02*
G03*
X14000Y4683I25J105D01*
G01*
X13900D02*
G03*
X13950Y4683I25J105D01*
G01*
X14050D02*
G03*
X14073Y4680I25J105D01*
G01*
X14000Y4683D02*
G03*
X14050Y4683I25J105D01*
G01*
X14371Y4891D02*
G03*
X14343Y4947I-131J-31D01*
G01*
X14462Y4817D02*
G03*
X14371Y4891I-122J-57D01*
G01*
X14465Y4947D02*
G03*
X14541Y4979I0J108D01*
G01*
X14465Y4947D02*
G03*
X14541Y4979I0J108D01*
G01*
X12511Y5564D02*
G03*
X12480Y5488I76J-76D01*
G01*
X12512Y5564D02*
G03*
X12480Y5488I76J-76D01*
G01*
X12405Y6285D02*
G03*
X12677Y6260I145J88D01*
G01*
D02*
G03*
X12825Y6204I127J113D01*
G01*
X13388Y5813D02*
G03*
X13420Y5890I-76J76D01*
G01*
X13388Y5813D02*
G03*
X13420Y5890I-76J76D01*
G01*
Y6241D02*
G03*
X13482Y6373I-108J132D01*
G01*
X12405Y6461D02*
G03*
X12355Y6500I-109J-88D01*
G01*
D02*
G03*
X12405Y6539I-59J127D01*
G01*
X12437Y6500D02*
G03*
X12405Y6461I113J-127D01*
G01*
Y6715D02*
G03*
X12187Y6715I-109J-88D01*
G01*
X12663Y6500D02*
G03*
X12677Y6514I-113J127D01*
G01*
Y6740D02*
G03*
X12405Y6715I-127J-113D01*
G01*
Y6539D02*
G03*
X12437Y6500I145J88D01*
G01*
X12677Y6486D02*
G03*
X12663Y6500I-127J-113D01*
G01*
X12691D02*
G03*
X12677Y6486I113J-127D01*
G01*
Y6514D02*
G03*
X12691Y6500I127J113D01*
G01*
X12931Y6740D02*
G03*
X12677Y6740I-127J-113D01*
G01*
X13185D02*
G03*
X12931Y6740I-127J-113D01*
G01*
X13482Y6373D02*
G03*
X13425Y6500I-170J0D01*
G01*
D02*
G03*
X13482Y6627I-113J127D01*
G01*
D02*
G03*
X13185Y6740I-170J0D01*
G01*
X14159Y6550D02*
G03*
X14127Y6474I76J-76D01*
G01*
X14159Y6550D02*
G03*
X14127Y6474I76J-76D01*
G01*
X14515Y6740D02*
G03*
X14219Y6610I-127J-113D01*
G01*
X14769Y6740D02*
G03*
X14515Y6740I-127J-113D01*
G01*
X15988Y5938D02*
G03*
X16020Y6015I-76J76D01*
G01*
X15988Y5938D02*
G03*
X16020Y6015I-76J76D01*
G01*
Y6241D02*
G03*
X16082Y6373I-108J132D01*
G01*
X17945Y6500D02*
G03*
X17945Y6500I-445J0D01*
G01*
X15023Y6740D02*
G03*
X14769Y6740I-127J-113D01*
G01*
X15277D02*
G03*
X15023Y6740I-127J-113D01*
G01*
X15531D02*
G03*
X15277Y6740I-127J-113D01*
G01*
X15785D02*
G03*
X15531Y6740I-127J-113D01*
G01*
X16025Y6500D02*
G03*
X16082Y6627I-113J127D01*
G01*
Y6373D02*
G03*
X16025Y6500I-170J0D01*
G01*
X16082Y6627D02*
G03*
X15785Y6740I-170J0D01*
G01*
X7441Y1095D02*
X8390D01*
X9493Y-202D02*
X9493Y-203D01*
X9493Y-202D02*
Y283D01*
X4480Y475D02*
X4773D01*
X3938Y1018D02*
X4480Y475D01*
X3938Y1018D02*
Y1282D01*
X3385Y1420D02*
X3575D01*
X3315Y1490D02*
X3385Y1420D01*
X3315Y1490D02*
Y2093D01*
X3800Y1420D02*
X3938Y1282D01*
X3575Y1420D02*
X3800D01*
X3575Y1207D02*
Y1420D01*
X3459Y1092D02*
X3575Y1207D01*
X3459Y895D02*
Y1092D01*
X4767Y1193D02*
Y1440D01*
X4550Y1658D02*
X4767Y1440D01*
X4177Y1658D02*
X4550D01*
X4767Y1193D02*
X5066Y895D01*
X4615Y952D02*
Y1395D01*
X4478Y1532D02*
X4615Y1395D01*
X3933Y1532D02*
X4478D01*
X3575Y1890D02*
X3933Y1532D01*
X3575Y1890D02*
Y2027D01*
X3177Y2425D02*
X3575Y2027D01*
X2618Y2425D02*
X3177D01*
X3167Y2668D02*
X4177Y1658D01*
X2945Y2668D02*
X3167D01*
X3110Y2298D02*
X3315Y2093D01*
X3843Y895D02*
X4000Y738D01*
Y540D02*
Y738D01*
X3838Y378D02*
X4000Y540D01*
X3083Y453D02*
X3158Y378D01*
X1635Y453D02*
X3083D01*
X1387Y700D02*
X1635Y453D01*
X3145Y545D02*
X3208Y482D01*
X1695Y545D02*
X3145D01*
X1514Y726D02*
X1695Y545D01*
X1387Y700D02*
Y890D01*
X3158Y378D02*
X3838D01*
X3713Y895D02*
X3843D01*
X1514Y726D02*
Y890D01*
X3208Y482D02*
X3682D01*
X3840Y641D01*
X3048Y738D02*
X3205Y895D01*
X1825Y738D02*
X3048D01*
X1768Y794D02*
X1825Y738D01*
X1641Y766D02*
Y890D01*
Y766D02*
X1767Y641D01*
X3332D01*
X1768Y794D02*
Y890D01*
X4773Y475D02*
X4939Y641D01*
X4362Y1238D02*
X4408Y1282D01*
X4362Y775D02*
Y1238D01*
Y775D02*
X4497Y641D01*
X4558Y895D02*
X4615Y952D01*
X1387Y1510D02*
Y1622D01*
X1595Y1830D01*
Y2053D01*
X1691Y2148D01*
X1873D01*
X2670Y1385D02*
Y1750D01*
X2807Y1887D01*
X2991D01*
X2378Y898D02*
X2783Y1303D01*
Y1575D01*
X2841Y1633D01*
X2991D01*
X1243Y1263D02*
Y1767D01*
Y1263D02*
X1395Y1110D01*
X2188D01*
X2386Y1101D02*
X2670Y1385D01*
X1970Y1510D02*
Y1767D01*
X3459Y768D02*
Y895D01*
Y768D02*
X3586Y641D01*
X4939D02*
Y768D01*
X4812Y895D02*
X4939Y768D01*
X4497Y641D02*
X4685D01*
X2618Y2720D02*
X2693Y2795D01*
X2765D01*
X2229Y2141D02*
X2469D01*
X2625Y2298D01*
X3110D01*
X2618Y2425D02*
Y2720D01*
X2425Y2425D02*
X2618D01*
X2423Y2428D02*
X2425Y2425D01*
X16875Y0D02*
Y1761D01*
X16878Y1764D01*
X16175Y0D02*
Y1510D01*
X16277Y1612D01*
Y1769D01*
X15475Y0D02*
Y1398D01*
X15677Y1600D01*
Y1769D01*
X14775Y0D02*
Y1302D01*
X15077Y1605D01*
Y1769D01*
X8390Y1095D02*
X8591Y895D01*
X14275Y3420D02*
X14282Y3428D01*
X14627D01*
X14650Y3450D01*
X14275Y3230D02*
X14285Y3240D01*
X14640D01*
X14650Y3250D01*
X-300Y-450D02*
Y-329D01*
X-350Y-450D02*
Y-275D01*
X-150Y-450D02*
Y-419D01*
X-250Y-450D02*
Y-368D01*
X-450Y-300D02*
X-329D01*
X-450Y-250D02*
X-368D01*
X-450Y-400D02*
X-195D01*
X-450Y-350D02*
X-275D01*
X-200Y-450D02*
Y-397D01*
X200Y-450D02*
Y-398D01*
X250Y-450D02*
Y-368D01*
X300Y-450D02*
Y-329D01*
X350Y-450D02*
Y-275D01*
X-50Y-450D02*
Y-442D01*
X-100Y-450D02*
Y-434D01*
X50Y-450D02*
Y-442D01*
X100Y-450D02*
Y-434D01*
X150Y-450D02*
Y-419D01*
X-450Y-100D02*
X-434D01*
X-450Y-50D02*
X-442D01*
X-450Y-200D02*
X-397D01*
X-450Y-150D02*
X-419D01*
X-450Y50D02*
X-442D01*
X-450Y100D02*
X-434D01*
X-450Y150D02*
X-419D01*
X-450Y250D02*
X-368D01*
X-450Y200D02*
X-398D01*
X-450Y-450D02*
Y250D01*
Y1165D01*
X-400Y-450D02*
Y-195D01*
Y195D02*
Y1115D01*
X-350Y275D02*
Y1065D01*
X-450Y300D02*
X-329D01*
X-300Y329D02*
Y1015D01*
X-450Y350D02*
X-275D01*
X300Y329D02*
Y415D01*
X350Y275D02*
Y365D01*
X275Y-350D02*
X800D01*
X400Y-450D02*
Y-195D01*
X-450Y-450D02*
X900D01*
X195Y-400D02*
X850D01*
X419Y-150D02*
X604D01*
X434Y-100D02*
X586D01*
X329Y-300D02*
X750D01*
X368Y-250D02*
X700D01*
X397Y-200D02*
X650D01*
X700Y-450D02*
Y-250D01*
X650Y-450D02*
Y-200D01*
X850Y-450D02*
Y-400D01*
X750Y-450D02*
Y-300D01*
X800Y-450D02*
Y-350D01*
X600Y-450D02*
Y-144D01*
X442Y-50D02*
X585D01*
X619Y-169D02*
X900Y-450D01*
X419Y150D02*
X565D01*
X434Y100D02*
X585D01*
X-450Y1165D02*
X585Y130D01*
X400Y195D02*
Y315D01*
X275Y350D02*
X365D01*
X398Y200D02*
X515D01*
X329Y300D02*
X415D01*
X368Y250D02*
X465D01*
X500Y-450D02*
Y215D01*
X450Y-450D02*
Y265D01*
X445Y-0D02*
X585D01*
X550Y-450D02*
Y165D01*
X585Y-88D02*
Y130D01*
X442Y50D02*
X585D01*
X709Y574D02*
X944Y339D01*
X933Y350D02*
X964D01*
X1150Y342D02*
Y1186D01*
X-450Y400D02*
X-195D01*
X-450Y550D02*
X165D01*
X-450Y450D02*
X265D01*
X-450Y500D02*
X215D01*
X-450Y750D02*
X-35D01*
X-450Y800D02*
X-85D01*
X-450Y600D02*
X115D01*
X-450Y700D02*
X15D01*
X-450Y650D02*
X65D01*
X200Y398D02*
Y515D01*
X150Y419D02*
Y565D01*
X195Y400D02*
X315D01*
X250Y368D02*
Y465D01*
X-50Y442D02*
Y765D01*
X-100Y434D02*
Y815D01*
X100Y434D02*
Y615D01*
X-0Y445D02*
Y715D01*
X50Y442D02*
Y665D01*
X-200Y397D02*
Y915D01*
X-250Y368D02*
Y965D01*
X-450Y850D02*
X-135D01*
X-450Y900D02*
X-185D01*
X-450Y1100D02*
X-385D01*
X-450Y1150D02*
X-435D01*
X-450Y950D02*
X-235D01*
X-450Y1050D02*
X-335D01*
X-450Y1000D02*
X-285D01*
X-150Y419D02*
Y865D01*
X283Y1000D02*
X435D01*
X450Y833D02*
Y933D01*
X-12Y1295D02*
X452Y831D01*
X333Y950D02*
X444D01*
X33Y1250D02*
X435D01*
X-12Y1300D02*
X439D01*
X233Y1050D02*
X440D01*
X83Y1200D02*
X444D01*
X450Y1082D02*
Y1185D01*
X750Y533D02*
Y599D01*
X783Y500D02*
X1418D01*
X733Y550D02*
X1368D01*
X433Y850D02*
X461D01*
X383Y900D02*
X467D01*
X751Y600D02*
X1318D01*
X796Y650D02*
X1278D01*
X800Y483D02*
Y657D01*
X1136Y350D02*
X1573D01*
X833Y450D02*
X1468D01*
X883Y400D02*
X1518D01*
X799Y850D02*
X1262D01*
X793Y900D02*
X1262D01*
X818Y700D02*
X1267D01*
X819Y800D02*
X1265D01*
X825Y750D02*
X1267D01*
X800Y848D02*
Y912D01*
X183Y1100D02*
X458D01*
X133Y1150D02*
X469D01*
X791D02*
X1185D01*
X800Y1103D02*
Y1164D01*
X816Y950D02*
X1262D01*
X802Y1100D02*
X1235D01*
X825Y1000D02*
X1270D01*
X820Y1050D02*
X1285D01*
X1158Y1178D02*
X1295Y1040D01*
X825Y1250D02*
X1123D01*
X821Y1300D02*
X1123D01*
X816Y1200D02*
X1140D01*
X1331Y-142D02*
X1395D01*
X1682Y-235D02*
X1991D01*
X1343Y-100D02*
X1437D01*
X1395Y-142D02*
X1455Y-82D01*
X1343Y-50D02*
X1457D01*
X1290Y50D02*
X1510D01*
X1328Y-0D02*
X1472D01*
X1750Y-235D02*
Y-190D01*
X1800Y-235D02*
Y-13D01*
X1740Y-200D02*
X1988D01*
X1850Y-235D02*
Y8D01*
X1900Y50D02*
X1988D01*
X1778Y-150D02*
X1995D01*
X1836Y-0D02*
X1995D01*
X2000Y-135D02*
Y-15D01*
X1350Y-142D02*
Y568D01*
X1450Y-87D02*
Y468D01*
X1400Y-137D02*
Y518D01*
X1250Y78D02*
Y1085D01*
X1230Y100D02*
X1570D01*
X1243Y150D02*
X1557D01*
X1300Y40D02*
Y618D01*
X1500Y40D02*
Y418D01*
X1900Y-235D02*
Y50D01*
X1950Y-235D02*
Y333D01*
X1550Y78D02*
Y368D01*
X1930Y100D02*
X1995D01*
X2000Y115D02*
Y333D01*
X2650Y-450D02*
Y-405D01*
X2605Y-450D02*
X2669Y-386D01*
X2700Y-450D02*
Y-329D01*
X1793Y-100D02*
X2017D01*
X2702D02*
X2793D01*
X2703Y-200D02*
X2881D01*
X2850Y-450D02*
Y-176D01*
X2800Y-450D02*
Y-113D01*
X2950Y-450D02*
Y-231D01*
X2900Y-450D02*
Y-211D01*
X3100Y-450D02*
Y-224D01*
X2703Y-150D02*
X2825D01*
X2703Y-305D02*
Y-110D01*
X3000Y-450D02*
Y-239D01*
X3050Y-450D02*
Y-237D01*
X3150Y-450D02*
Y-199D01*
X1793Y-50D02*
X2017D01*
X1943Y150D02*
X2017D01*
X2300Y185D02*
Y333D01*
X2605Y100D02*
X2788D01*
X2583Y150D02*
X2817D01*
X2600Y116D02*
Y333D01*
X2700Y-86D02*
Y333D01*
X2685Y-50D02*
X2776D01*
X2750Y-450D02*
Y333D01*
X2611Y29D02*
X2669Y-29D01*
X2650Y-10D02*
Y333D01*
X2640Y-0D02*
X2770D01*
X2612Y50D02*
X2774D01*
X2800Y124D02*
Y333D01*
X1243Y200D02*
X1557D01*
X1230Y250D02*
X1570D01*
X1200Y300D02*
X1600D01*
X1600Y300D02*
Y338D01*
X1302Y616D02*
X1550Y368D01*
X1943Y200D02*
X2065D01*
X2050Y188D02*
Y333D01*
X2281Y200D02*
X2319D01*
X2350Y218D02*
Y333D01*
X2100Y220D02*
Y333D01*
X1900Y300D02*
Y333D01*
X2250Y218D02*
Y333D01*
X2150Y234D02*
Y333D01*
X2200Y233D02*
Y333D01*
X1262Y825D02*
Y955D01*
X1200Y300D02*
Y1135D01*
X1267Y700D02*
Y790D01*
X1893Y857D02*
Y955D01*
Y900D02*
X2058D01*
X1888Y990D02*
X2063D01*
X1950Y857D02*
Y990D01*
X1900Y857D02*
Y990D01*
X1893Y857D02*
X2058D01*
X2000D02*
Y990D01*
X2050Y857D02*
Y990D01*
X2058Y857D02*
Y945D01*
X1893Y950D02*
X2058D01*
X2063Y978D02*
Y990D01*
X2360Y1270D02*
X2385D01*
X2450Y234D02*
Y333D01*
X2400Y233D02*
Y333D01*
X2535Y200D02*
X2865D01*
X2500Y220D02*
Y333D01*
X1930Y250D02*
X2998D01*
X2508Y857D02*
X2998D01*
X1900Y300D02*
X3065D01*
X1865Y333D02*
X3033D01*
X2550Y900D02*
X3025D01*
X2850Y187D02*
Y333D01*
X2550Y188D02*
Y333D01*
X3100Y235D02*
Y272D01*
X2900Y222D02*
Y333D01*
X2950Y242D02*
Y333D01*
X3000Y250D02*
Y333D01*
X2550Y857D02*
Y900D01*
X3050Y248D02*
Y315D01*
X2998Y857D02*
X3025Y884D01*
X3033Y333D02*
X3073Y293D01*
X2600Y857D02*
Y950D01*
X2650Y857D02*
Y1000D01*
X2700Y857D02*
Y1050D01*
X2750Y857D02*
Y1100D01*
X2508Y858D02*
X2859Y1209D01*
X2379Y1300D02*
X2415D01*
X2600Y950D02*
X3025D01*
X2650Y1000D02*
X3025D01*
X2700Y1050D02*
X3025D01*
X2800Y857D02*
Y1150D01*
X2850Y857D02*
Y1200D01*
X3000Y859D02*
Y1209D01*
X2900Y857D02*
Y1209D01*
X2950Y857D02*
Y1209D01*
X3025Y884D02*
Y1075D01*
X2859Y1209D02*
X2867Y1218D01*
X3150Y1075D02*
Y1209D01*
X3050Y1075D02*
Y1209D01*
X3100Y1075D02*
Y1209D01*
X200Y1083D02*
Y1852D01*
X150Y1133D02*
Y1902D01*
X-12Y1350D02*
X457D01*
X-12Y1400D02*
X494D01*
X-12Y1850D02*
X202D01*
X-12Y1900D02*
X152D01*
X-12Y1450D02*
X586D01*
X-12Y1800D02*
X252D01*
X-12Y1750D02*
X310D01*
X300Y983D02*
Y1756D01*
X250Y1033D02*
Y1802D01*
X400Y883D02*
Y1738D01*
X350Y933D02*
Y1738D01*
X550Y1438D02*
Y1738D01*
X450Y1335D02*
Y1738D01*
X500Y1405D02*
Y1738D01*
X-0Y1283D02*
Y1918D01*
X-12Y1295D02*
Y1918D01*
X100Y1183D02*
Y1918D01*
X50Y1233D02*
Y1918D01*
X134D02*
X281Y1771D01*
X-12Y1918D02*
X134D01*
X297Y2081D02*
X410Y1967D01*
X297Y2081D02*
Y2227D01*
Y2150D02*
X406D01*
X450Y1967D02*
Y2106D01*
X400Y1978D02*
Y2156D01*
X410Y1967D02*
X589D01*
X500D02*
Y2056D01*
X550Y1967D02*
Y2006D01*
X350Y2028D02*
Y2206D01*
X300Y2078D02*
Y2227D01*
X378Y2000D02*
X556D01*
X297Y2100D02*
X456D01*
X328Y2050D02*
X506D01*
X700Y1442D02*
Y1738D01*
X650Y1454D02*
Y1738D01*
X674Y1450D02*
X1123D01*
X-12Y1650D02*
X1119D01*
X-12Y1700D02*
X1057D01*
X-12Y1500D02*
X1123D01*
X-12Y1600D02*
X1123D01*
X-12Y1550D02*
X1123D01*
X950Y342D02*
Y1738D01*
X900Y383D02*
Y1738D01*
X1100Y363D02*
Y1659D01*
X1000Y363D02*
Y1738D01*
X1050Y370D02*
Y1713D01*
X850Y433D02*
Y1738D01*
X750Y1414D02*
Y1738D01*
X803Y1350D02*
X1123D01*
X766Y1400D02*
X1123D01*
Y1263D02*
Y1649D01*
X600Y1453D02*
Y1738D01*
X329Y2227D02*
X589Y1967D01*
X362Y1738D02*
X1041D01*
X800Y1356D02*
Y1738D01*
Y2082D02*
Y2463D01*
X750Y2132D02*
Y2513D01*
X782Y2100D02*
X934D01*
X458Y2423D02*
X822Y2060D01*
X732Y2150D02*
X1002D01*
X900Y2060D02*
Y2380D01*
X850Y2060D02*
Y2413D01*
X822Y2060D02*
X921D01*
X1000Y2149D02*
Y2373D01*
X950Y2121D02*
Y2373D01*
X1048Y2150D02*
X1068D01*
X1050Y2149D02*
Y2373D01*
X-450Y2450D02*
X-436D01*
X-450Y2436D02*
X-297Y2589D01*
X-450Y2500D02*
X-386D01*
X-450Y2550D02*
X-336D01*
X-450Y2600D02*
X-297D01*
X-450Y2700D02*
X-262D01*
X-450Y2650D02*
X-288D01*
X-0Y2455D02*
Y2483D01*
X297Y2200D02*
X356D01*
X297Y2227D02*
X329D01*
X250Y2459D02*
Y2479D01*
X252Y2457D02*
X377D01*
X-400Y2486D02*
Y6305D01*
X-450Y2436D02*
Y6950D01*
X-300Y2586D02*
Y6171D01*
X-350Y2536D02*
Y6225D01*
X-250Y2713D02*
Y2733D01*
X-450Y2750D02*
X-264D01*
X400Y2455D02*
Y3412D01*
X300Y2457D02*
Y3487D01*
X350Y2457D02*
Y3462D01*
X-0Y2709D02*
Y2737D01*
X250Y2713D02*
Y2733D01*
X482Y2400D02*
X864D01*
X582Y2300D02*
X1308D01*
X532Y2350D02*
X1273D01*
X297Y2600D02*
X663D01*
X417Y2450D02*
X813D01*
X267Y2500D02*
X763D01*
X291Y2550D02*
X713D01*
X700Y2182D02*
Y2563D01*
X650Y2232D02*
Y2614D01*
X682Y2200D02*
X1083D01*
X1100Y2219D02*
Y2373D01*
X657Y2607D02*
X854Y2409D01*
X632Y2250D02*
X1308D01*
X943Y2373D02*
X1251D01*
X500Y2382D02*
Y3312D01*
X450Y2431D02*
Y3362D01*
X600Y2282D02*
Y3212D01*
X550Y2332D02*
Y3262D01*
X262Y2700D02*
X620D01*
X264Y2750D02*
X620D01*
X288Y2650D02*
X628D01*
X620Y2695D02*
Y3192D01*
X950Y2667D02*
Y4250D01*
X917Y2700D02*
X963D01*
X870Y2747D02*
X963Y2654D01*
Y2885D01*
X870Y2747D02*
Y3244D01*
X900Y2717D02*
Y4250D01*
X870Y2750D02*
X963D01*
X2350Y1752D02*
Y1768D01*
X2352Y1750D02*
X2550D01*
X2350Y2006D02*
Y2021D01*
X2349D02*
X2469D01*
X2400Y1285D02*
Y2021D01*
X2396Y1350D02*
X2465D01*
X2398Y1400D02*
X2515D01*
X2364Y1482D02*
Y1530D01*
X2396Y1600D02*
X2550D01*
X2385Y1700D02*
X2550D01*
X2398Y1650D02*
X2550D01*
X1200Y2243D02*
Y2373D01*
X1150Y2242D02*
Y2373D01*
X1558Y2185D02*
X1606Y2233D01*
X1300Y2243D02*
Y2323D01*
X1250Y2243D02*
Y2373D01*
X1163Y2243D02*
X1308D01*
Y2316D01*
X1558Y2250D02*
X1627D01*
X1558Y2200D02*
X1573D01*
X1558Y2185D02*
Y2367D01*
X2450Y1335D02*
Y2021D01*
X2500Y1385D02*
Y2025D01*
X2550Y1435D02*
Y2053D01*
X1600Y2227D02*
Y2575D01*
X1650Y2261D02*
Y2579D01*
X2364Y1500D02*
X2550D01*
X2377Y1550D02*
X2550D01*
X2385Y1270D02*
X2550Y1435D01*
X2383Y1450D02*
X2550D01*
X2375Y1800D02*
X2561D01*
X2395Y1850D02*
X2600D01*
X2399Y1900D02*
X2650D01*
X2356Y2000D02*
X2766D01*
X2387Y1950D02*
X2700D01*
X2550Y1435D02*
Y1750D01*
X3150Y1549D02*
Y1573D01*
X2843Y1753D02*
X2857Y1767D01*
X2843Y1753D02*
X2871D01*
X2585Y1835D02*
X2722Y1972D01*
X2857Y1767D02*
X2871D01*
X2600Y1850D02*
Y2103D01*
X2650Y1900D02*
Y2153D01*
X2647Y2150D02*
X2821D01*
X2553Y2056D02*
X2675Y2178D01*
X2547Y2050D02*
X2847D01*
X2597Y2100D02*
X2826D01*
X2675Y2178D02*
X2825D01*
X2750Y1993D02*
Y2178D01*
X2700Y1950D02*
Y2178D01*
X3150Y1947D02*
Y2081D01*
X2850Y2007D02*
Y2046D01*
X2800Y2007D02*
Y2178D01*
X2807Y2007D02*
X2871D01*
X1251Y2373D02*
X1308Y2316D01*
X1558Y2350D02*
X1945D01*
X1427Y2550D02*
X1771D01*
X1397Y2579D02*
X1521Y2456D01*
X1553Y2400D02*
X1921D01*
X1477Y2500D02*
X1821D01*
X1526Y2450D02*
X1871D01*
X1691Y2268D02*
X1758D01*
X1793Y2273D02*
X1945D01*
X1800D02*
Y2521D01*
X1945Y2273D02*
Y2376D01*
X1900Y2273D02*
Y2421D01*
X1850Y2273D02*
Y2471D01*
X1558Y2300D02*
X1945D01*
X1777Y2544D02*
X1945Y2376D01*
X2122Y2553D02*
X2133D01*
X1450Y2527D02*
Y2602D01*
X1500Y2477D02*
Y2616D01*
X1550Y2410D02*
Y2586D01*
X1700Y2268D02*
Y2600D01*
X1446Y2600D02*
X1522D01*
X1700D02*
X1744D01*
X1750Y2268D02*
Y2584D01*
X2013Y2661D02*
X2122Y2553D01*
X2050Y2624D02*
Y3605D01*
X2200Y2586D02*
Y3605D01*
X2100Y2574D02*
Y3605D01*
X2150Y2567D02*
Y3605D01*
X2350Y2261D02*
Y2282D01*
X2349Y2261D02*
X2419D01*
X2405Y2268D02*
X2425D01*
X2215Y2588D02*
X2250D01*
X2074Y2600D02*
X2498D01*
X2419Y2261D02*
X2425Y2268D01*
X2850Y2545D02*
Y2572D01*
X2738Y2545D02*
X2888D01*
X3002D02*
X3120D01*
X3007Y2548D02*
X3118D01*
X2405Y2588D02*
X2440D01*
X2738Y2550D02*
X2879D01*
X2738Y2650D02*
X2811D01*
X2738Y2600D02*
X2828D01*
X2350Y2573D02*
Y3605D01*
X2300Y2576D02*
Y3605D01*
X2498Y2572D02*
Y2720D01*
X2450Y2587D02*
Y3605D01*
X2400Y2587D02*
Y3605D01*
X2250Y2588D02*
Y3605D01*
X2024Y2650D02*
X2498D01*
X2029Y2700D02*
X2498D01*
X2035Y2750D02*
X2501D01*
X2750Y2545D02*
Y2661D01*
X2738Y2545D02*
Y2663D01*
X2800Y2545D02*
Y2665D01*
X2500Y2744D02*
Y3588D01*
X3050Y2788D02*
Y3445D01*
X3200Y-450D02*
Y-155D01*
X3250Y-450D02*
Y-62D01*
X3148Y-200D02*
X3897D01*
X3204Y-150D02*
X3841D01*
X3253Y-50D02*
X3792D01*
X3255Y50D02*
X3790D01*
X3236Y-100D02*
X3809D01*
X3212Y150D02*
X3833D01*
X3241Y100D02*
X3804D01*
X4050Y-450D02*
Y-239D01*
X4000Y-450D02*
Y-238D01*
X4100Y-450D02*
Y-229D01*
X4150Y-450D02*
Y-208D01*
X3800Y-450D02*
Y-77D01*
X3259Y-0D02*
X3786D01*
X3950Y-450D02*
Y-226D01*
X3850Y-450D02*
Y-160D01*
X3900Y-450D02*
Y-202D01*
X3350Y-450D02*
Y258D01*
X3300Y-450D02*
Y258D01*
X3500Y-450D02*
Y258D01*
X3400Y-450D02*
Y258D01*
X3250Y73D02*
Y258D01*
X3200Y166D02*
Y258D01*
X3450Y-450D02*
Y258D01*
X3600Y-450D02*
Y258D01*
X3550Y-450D02*
Y258D01*
X3750Y-450D02*
Y258D01*
X3650Y-450D02*
Y258D01*
X3700Y-450D02*
Y258D01*
X3800Y88D02*
Y258D01*
X3850Y171D02*
Y258D01*
X4200Y185D02*
Y585D01*
X4250Y-450D02*
Y-210D01*
X4200Y-450D02*
Y-174D01*
X2605Y-450D02*
X5697D01*
X4300D02*
Y-230D01*
X2693Y-350D02*
X5673D01*
X4164Y-200D02*
X4234D01*
X2655Y-400D02*
X5678D01*
X2703Y-250D02*
X5704D01*
X2703Y-300D02*
X5681D01*
X4350Y-450D02*
Y-239D01*
X4400Y-450D02*
Y-237D01*
X4450Y-450D02*
Y-225D01*
X4500Y-450D02*
Y-200D01*
X4550Y-450D02*
Y-157D01*
X4600Y-450D02*
Y-70D01*
X4606Y-50D02*
X5144D01*
X4500Y-200D02*
X5250D01*
X4556Y-150D02*
X5194D01*
X4588Y-100D02*
X5162D01*
X4600Y81D02*
Y355D01*
X4550Y168D02*
Y355D01*
X4608Y50D02*
X5142D01*
X4565Y150D02*
X5185D01*
X4593Y100D02*
X5157D01*
X4850Y-450D02*
Y383D01*
X4900Y-450D02*
Y432D01*
X4950Y-450D02*
Y461D01*
X5000Y-450D02*
Y471D01*
X5050Y-450D02*
Y499D01*
X4700Y-450D02*
Y355D01*
X4650Y-450D02*
Y355D01*
X4612Y-0D02*
X5138D01*
X4750Y-450D02*
Y355D01*
X4800Y-450D02*
Y358D01*
X3164Y200D02*
X3881D01*
X3150Y210D02*
Y258D01*
X3031Y250D02*
X4014D01*
X3900Y213D02*
Y275D01*
X3158Y258D02*
X3838D01*
X3950Y237D02*
Y320D01*
X4000Y249D02*
Y370D01*
X4180Y200D02*
X4218D01*
X4100Y240D02*
Y474D01*
X4050Y250D02*
Y420D01*
X3922Y293D02*
X4085Y455D01*
X4120Y600D02*
X4185D01*
X3579Y1029D02*
Y1042D01*
X3600Y1035D02*
Y1063D01*
X3025Y1075D02*
X3339D01*
Y1092D01*
X3587Y1050D02*
X3622D01*
X2750Y1100D02*
X3339D01*
X3579Y1042D02*
X3660Y1123D01*
X3817Y1041D02*
Y1096D01*
X4100Y1025D02*
Y1131D01*
X4150Y219D02*
Y635D01*
X4120Y540D02*
Y665D01*
Y650D02*
X4135D01*
X3800Y1052D02*
Y1107D01*
X3650Y1063D02*
Y1113D01*
X3804Y1050D02*
X3817D01*
X3637Y1100D02*
X3810D01*
X4058Y1067D02*
Y1096D01*
X4047Y250D02*
X4350D01*
X4350Y250D02*
Y435D01*
X4384Y250D02*
X5366D01*
X3930Y300D02*
X5704D01*
X4030Y400D02*
X4385D01*
X4080Y450D02*
X4335D01*
X3980Y350D02*
X5681D01*
X4450Y236D02*
Y359D01*
X4400Y248D02*
Y386D01*
X4516Y200D02*
X5234D01*
X4480Y355D02*
X4773D01*
X4500Y211D02*
Y355D01*
X4868Y400D02*
X5673D01*
X4858Y390D02*
X4928Y461D01*
X4918Y450D02*
X5678D01*
X4120Y550D02*
X4235D01*
X4058Y1067D02*
X4242Y882D01*
X4113Y500D02*
X4285D01*
X4120Y665D02*
X4395Y390D01*
X4075Y1050D02*
X4242D01*
X4065Y1100D02*
X4242D01*
X4225Y900D02*
X4242D01*
X4125Y1000D02*
X4242D01*
X4175Y950D02*
X4242D01*
X4300Y241D02*
Y485D01*
X4250Y221D02*
Y535D01*
X5051Y500D02*
X5080D01*
X4483Y1075D02*
X4495D01*
Y1082D01*
X5030Y1100D02*
X5395D01*
X5200Y-450D02*
Y-157D01*
X5150Y-450D02*
Y-70D01*
X5300Y-450D02*
Y-225D01*
X5250Y-450D02*
Y-200D01*
X5400Y-450D02*
Y-239D01*
X5350Y-450D02*
Y-237D01*
X5450Y-450D02*
Y-230D01*
X5500Y-450D02*
Y-210D01*
X5516Y-200D02*
X5751D01*
X5550Y-450D02*
Y-174D01*
X5600Y-450D02*
Y-108D01*
X5985Y-200D02*
X6005D01*
X6250Y-209D02*
Y211D01*
X6300Y-450D02*
Y-436D01*
Y-276D02*
Y211D01*
X5100Y-450D02*
Y486D01*
X5700Y-257D02*
Y307D01*
X5650Y-450D02*
Y940D01*
X5200Y168D02*
Y461D01*
X5150Y81D02*
Y466D01*
X5600Y119D02*
Y941D01*
X5750Y-201D02*
Y251D01*
X6000Y-204D02*
Y211D01*
X5950Y-179D02*
Y211D01*
X6050Y-175D02*
Y211D01*
X6200Y-177D02*
Y211D01*
X6350Y-450D02*
Y998D01*
X5850Y-162D02*
Y212D01*
X5800Y-173D02*
Y223D01*
X6150Y-163D02*
Y211D01*
X5900Y-164D02*
Y214D01*
X6100Y-162D02*
Y211D01*
X6293Y-450D02*
X9061D01*
X6650D02*
Y-108D01*
X6312Y-400D02*
X9061D01*
X6317Y-350D02*
X9061D01*
X5572Y-150D02*
X6678D01*
X5604Y-100D02*
X6646D01*
X6309Y-300D02*
X9061D01*
X6239Y-200D02*
X6734D01*
X6286Y-250D02*
X9061D01*
X6750Y-450D02*
Y-210D01*
X6700Y-450D02*
Y-174D01*
X6850Y-450D02*
Y-239D01*
X6800Y-450D02*
Y-230D01*
X6900Y-450D02*
Y-237D01*
X6950Y-450D02*
Y-225D01*
X7000Y-450D02*
Y-200D01*
X7000Y-200D02*
X7500D01*
X7050Y-450D02*
Y-157D01*
X7056Y-150D02*
X7444D01*
X5622Y-50D02*
X6628D01*
X5628Y-0D02*
X6622D01*
X5624Y50D02*
X6626D01*
X5609Y100D02*
X6641D01*
X5581Y150D02*
X6669D01*
X7050Y168D02*
Y461D01*
X7065Y150D02*
X7435D01*
X7100Y-450D02*
Y-70D01*
X7150Y-450D02*
Y461D01*
X7088Y-100D02*
X7412D01*
X7200Y-450D02*
Y461D01*
X7250Y-450D02*
Y505D01*
X7112Y-0D02*
X7388D01*
X7100Y81D02*
Y461D01*
X7106Y-50D02*
X7394D01*
X7093Y100D02*
X7407D01*
X7108Y50D02*
X7392D01*
X5250Y211D02*
Y470D01*
X5300Y236D02*
Y496D01*
X5305Y500D02*
X5697D01*
X5350Y248D02*
Y553D01*
X5348Y550D02*
X5736D01*
X5245Y900D02*
X5894D01*
X5368Y600D02*
X5848D01*
X5400Y250D02*
X5751D01*
X5900Y598D02*
Y898D01*
X5927Y211D02*
Y220D01*
Y592D02*
Y601D01*
X5888Y600D02*
X5927D01*
X5950Y601D02*
Y890D01*
X6000Y601D02*
Y895D01*
X6050Y601D02*
Y915D01*
X6200Y601D02*
Y920D01*
X5450Y241D02*
Y1045D01*
X5400Y250D02*
Y1095D01*
X5550Y185D02*
Y955D01*
X5500Y221D02*
Y995D01*
X5211Y1000D02*
X5495D01*
X5156Y1050D02*
X5445D01*
X5237Y950D02*
X5562D01*
X5750Y561D02*
Y940D01*
X5700Y505D02*
Y940D01*
X5850Y600D02*
Y921D01*
X5800Y589D02*
Y940D01*
X6100Y601D02*
Y955D01*
X5615Y940D02*
X5825D01*
X6150Y601D02*
Y931D01*
X6096Y950D02*
X6115D01*
X5532Y200D02*
X6718D01*
X5927Y211D02*
X6317D01*
Y250D02*
X6850D01*
X6317Y300D02*
X9036D01*
X6317Y600D02*
X6880D01*
X5927Y601D02*
X6317D01*
Y400D02*
X9061D01*
X6317Y550D02*
X6880D01*
X6317Y450D02*
X9040D01*
X6950Y236D02*
Y461D01*
X6900Y248D02*
Y461D01*
X7016Y200D02*
X7484D01*
X6884Y250D02*
X7616D01*
X7000Y211D02*
Y461D01*
X6880D02*
X7240D01*
X6317Y500D02*
X6880D01*
X6317Y350D02*
X9060D01*
X7240Y461D02*
Y510D01*
Y500D02*
X7261D01*
X5372Y650D02*
X6880D01*
X6250Y601D02*
Y925D01*
X5362Y700D02*
X6880D01*
X5335Y750D02*
X6880D01*
X5276Y800D02*
X6880D01*
X5240Y850D02*
X7012D01*
X6016Y900D02*
X7007D01*
X6317Y211D02*
Y601D01*
X6300D02*
Y947D01*
X6880Y461D02*
Y821D01*
X7022D01*
X6305Y950D02*
X7015D01*
X6351Y1000D02*
X7041D01*
X6371Y1050D02*
X7096D01*
X6374Y1100D02*
X7296D01*
X2859Y1209D02*
X3161D01*
X3250Y1075D02*
Y1385D01*
X2800Y1150D02*
X3354D01*
X2850Y1200D02*
X3398D01*
X3161Y1350D02*
X3285D01*
X3161Y1400D02*
X3235D01*
X3161Y1250D02*
X3434D01*
X3161Y1300D02*
X3388D01*
X3230Y1405D02*
X3300Y1335D01*
X3350Y1142D02*
Y1305D01*
X3300Y1075D02*
Y1335D01*
X3374Y1176D02*
X3442Y1245D01*
X3400Y1202D02*
Y1282D01*
X3161Y1209D02*
Y1549D01*
Y1450D02*
X3202D01*
X3161Y1500D02*
X3195D01*
X3139Y1549D02*
X3161D01*
X3139Y1550D02*
X3195D01*
X3158Y1600D02*
X3195D01*
X3160Y1650D02*
X3195D01*
X3200Y1075D02*
Y1456D01*
X3195Y1490D02*
Y2043D01*
X3435Y1591D02*
Y1719D01*
Y1600D02*
X3451D01*
X3450Y1600D02*
Y1710D01*
X3500Y1614D02*
Y1696D01*
X3550Y1615D02*
Y1695D01*
X3700Y1074D02*
Y1240D01*
X3695Y1207D02*
Y1238D01*
X3716Y1250D02*
X3742D01*
X3680Y1150D02*
X3762D01*
X3695Y1200D02*
X3744D01*
X3750Y1071D02*
Y1177D01*
X4113Y1150D02*
X4232D01*
X4131Y1200D02*
X4214D01*
X3742Y1223D02*
Y1273D01*
X4133Y1223D02*
Y1343D01*
Y1250D02*
X4212D01*
X4133Y1300D02*
X4212D01*
Y1223D02*
Y1343D01*
X3600Y1695D02*
X3692Y1603D01*
X2910Y3585D02*
X5512Y983D01*
X3115Y3790D02*
X5675Y1230D01*
X3515Y1615D02*
X3635D01*
X3600D02*
Y1695D01*
X3650Y1614D02*
Y1645D01*
X3435Y1650D02*
X3645D01*
X3780Y1855D02*
X3982Y1652D01*
X4150Y975D02*
Y1412D01*
X4132Y1350D02*
X4213D01*
X4200Y925D02*
Y1412D01*
X4000Y1652D02*
Y1665D01*
X3780Y1885D02*
X4013Y1652D01*
X4121Y1400D02*
X4224D01*
X3982Y1652D02*
X4013D01*
X4114Y1412D02*
X4231D01*
X3147Y1700D02*
X3195D01*
X3114Y1750D02*
X3195D01*
X3137Y1800D02*
X3195D01*
X3149Y1950D02*
X3195D01*
X3118Y2000D02*
X3195D01*
X3135Y2050D02*
X3188D01*
X3435Y1700D02*
X3477D01*
X3150Y1693D02*
Y1827D01*
X3515Y1695D02*
X3600D01*
X3157Y1850D02*
X3195D01*
X3161Y1900D02*
X3195D01*
X3800Y1835D02*
Y1865D01*
X3152Y2086D02*
X3195Y2043D01*
X3780Y1855D02*
Y1885D01*
X3300Y2705D02*
Y3195D01*
X3305Y2700D02*
X3795D01*
X3255Y2750D02*
X3745D01*
X3007Y2788D02*
X3167D01*
X3150D02*
Y3345D01*
X3200Y2783D02*
Y3295D01*
X3250Y2755D02*
Y3245D01*
X3650Y2355D02*
Y2845D01*
X3600Y2405D02*
Y2895D01*
X3800Y2205D02*
Y2695D01*
X3700Y2305D02*
Y2795D01*
X3750Y2255D02*
Y2745D01*
X3400Y2605D02*
Y3095D01*
X3350Y2655D02*
Y3145D01*
X3550Y2455D02*
Y2945D01*
X3450Y2555D02*
Y3045D01*
X3500Y2505D02*
Y2995D01*
X3835Y1800D02*
X3865D01*
X3850Y1785D02*
Y1815D01*
X3885Y1750D02*
X3915D01*
X3900Y1735D02*
Y1765D01*
X3785Y1850D02*
X3815D01*
X3705Y2300D02*
X4195D01*
X3855Y2150D02*
X4345D01*
X3755Y2250D02*
X4245D01*
X3805Y2200D02*
X4295D01*
X3935Y1700D02*
X3965D01*
X3950Y1685D02*
Y1715D01*
X4205Y1800D02*
X4695D01*
X4155Y1850D02*
X4645D01*
X4200Y1805D02*
Y2295D01*
X3955Y2050D02*
X4445D01*
X3905Y2100D02*
X4395D01*
X4105Y1900D02*
X4595D01*
X4005Y2000D02*
X4495D01*
X4055Y1950D02*
X4545D01*
X3605Y2400D02*
X4095D01*
X3850Y2155D02*
Y2645D01*
X3655Y2350D02*
X4145D01*
X3252Y2752D02*
X4227Y1778D01*
X3405Y2600D02*
X3895D01*
X3355Y2650D02*
X3845D01*
X3555Y2450D02*
X4045D01*
X3455Y2550D02*
X3945D01*
X3505Y2500D02*
X3995D01*
X4000Y2005D02*
Y2495D01*
X3950Y2055D02*
Y2545D01*
X4150Y1855D02*
Y2345D01*
X4050Y1955D02*
Y2445D01*
X4100Y1905D02*
Y2395D01*
X3900Y2105D02*
Y2595D01*
X4150Y2755D02*
Y3800D01*
X4205Y2700D02*
X4693D01*
X4155Y2750D02*
X4659D01*
X4200Y2705D02*
Y3795D01*
X4242Y882D02*
Y1134D01*
X4888Y1242D02*
X5055Y1074D01*
X4980Y1150D02*
X5345D01*
X4930Y1200D02*
X5295D01*
X4888Y1400D02*
X5095D01*
X4888Y1242D02*
Y1440D01*
Y1250D02*
X5245D01*
X4888Y1350D02*
X5145D01*
X4888Y1300D02*
X5195D01*
X5250Y811D02*
Y1245D01*
X5200Y1014D02*
Y1295D01*
X5350Y728D02*
Y1145D01*
X5300Y785D02*
Y1195D01*
X5100Y1071D02*
Y1395D01*
X5050Y1080D02*
Y1445D01*
X5675Y1230D02*
X5825D01*
X5150Y1053D02*
Y1345D01*
X5655Y1250D02*
X5851D01*
X4900Y1230D02*
Y1595D01*
X5000Y1130D02*
Y1495D01*
X4950Y1180D02*
Y1545D01*
X4871Y1500D02*
X4995D01*
X4887Y1450D02*
X5045D01*
X5400Y1505D02*
Y5804D01*
X5450Y1455D02*
Y4681D01*
X5700Y1230D02*
Y4681D01*
X5650Y1255D02*
Y4681D01*
X5750Y1230D02*
Y6154D01*
X5800Y1230D02*
Y6204D01*
X5850Y1249D02*
Y6254D01*
X5550Y1355D02*
Y4681D01*
X5500Y1405D02*
Y4681D01*
X5600Y1305D02*
Y4681D01*
X5900Y1272D02*
Y6304D01*
X5950Y1280D02*
Y4811D01*
X6059Y1250D02*
X6206D01*
X6214D02*
X7296D01*
X5455Y1450D02*
X7296D01*
X5405Y1500D02*
X7296D01*
X5605Y1300D02*
X7296D01*
X5505Y1400D02*
X7296D01*
X5555Y1350D02*
X7296D01*
X6750Y221D02*
Y2679D01*
X6700Y185D02*
Y2732D01*
X6850Y250D02*
Y2649D01*
X6800Y241D02*
Y2655D01*
X7000Y821D02*
Y2747D01*
X6900Y821D02*
Y2658D01*
X6362Y1150D02*
X7296D01*
X6328Y1200D02*
X7296D01*
X6950Y821D02*
Y2684D01*
X6100Y1215D02*
Y4712D01*
X6300Y1223D02*
Y6544D01*
X6400Y-450D02*
Y6544D01*
X6350Y1172D02*
Y6544D01*
X6050Y1255D02*
Y4715D01*
X6000Y1275D02*
Y4739D01*
X6150Y1239D02*
Y4727D01*
X6200Y1250D02*
Y4772D01*
X6250Y1245D02*
Y6544D01*
X6500Y-450D02*
Y6174D01*
X6450Y-450D02*
Y6544D01*
X6650Y119D02*
Y6020D01*
X6550Y-450D02*
Y6083D01*
X6600Y-450D02*
Y6042D01*
X7100Y1052D02*
Y6544D01*
X7050Y1012D02*
Y6544D01*
X7250Y1063D02*
Y6544D01*
X7150Y1071D02*
Y6544D01*
X7200Y1074D02*
Y6544D01*
X4600Y1767D02*
Y1895D01*
X4627Y1750D02*
X4745D01*
X4450Y1778D02*
Y2045D01*
X4400Y1778D02*
Y2095D01*
X4227Y1778D02*
X4550D01*
X4500D02*
Y1995D01*
X4550Y1778D02*
Y1945D01*
X4850Y1527D02*
Y1645D01*
X4800Y1577D02*
Y1695D01*
X4827Y1550D02*
X4945D01*
X4635Y1742D02*
X4852Y1525D01*
X4777Y1600D02*
X4895D01*
X4700Y1677D02*
Y1795D01*
X4650Y1727D02*
Y1845D01*
X4727Y1650D02*
X4845D01*
X4677Y1700D02*
X4795D01*
X4750Y1627D02*
Y1745D01*
X4300Y1778D02*
Y2195D01*
X4250Y1778D02*
Y2245D01*
X4350Y1778D02*
Y2145D01*
X4450Y2455D02*
Y5748D01*
X4250Y2655D02*
Y3804D01*
X4300Y2605D02*
Y4091D01*
X4255Y2650D02*
X4796D01*
X4350Y2555D02*
Y4840D01*
X4400Y2505D02*
Y4840D01*
X4800Y2105D02*
Y2650D01*
X4750Y2155D02*
Y2662D01*
X4850Y2055D02*
Y2653D01*
X4900Y2005D02*
Y2672D01*
X4950Y1955D02*
Y2717D01*
X4550Y2355D02*
Y5742D01*
X4500Y2405D02*
Y5742D01*
X4700Y2205D02*
Y2693D01*
X4600Y2305D02*
Y5742D01*
X4650Y2255D02*
Y2775D01*
X4855Y2050D02*
X7296D01*
X4805Y2100D02*
X7296D01*
X4755Y2150D02*
X7296D01*
X4705Y2200D02*
X7296D01*
X4655Y2250D02*
X7308D01*
X4605Y2300D02*
X7345D01*
X4555Y2350D02*
X7395D01*
X4455Y2450D02*
X7495D01*
X4505Y2400D02*
X7445D01*
X5205Y1700D02*
X7296D01*
X5155Y1750D02*
X7296D01*
X5355Y1550D02*
X7296D01*
X5255Y1650D02*
X7296D01*
X5305Y1600D02*
X7296D01*
X4955Y1950D02*
X7296D01*
X4905Y2000D02*
X7296D01*
X5105Y1800D02*
X7296D01*
X5005Y1900D02*
X7296D01*
X5055Y1850D02*
X7296D01*
X5050Y1855D02*
Y5742D01*
X5000Y1905D02*
Y5742D01*
X4405Y2500D02*
X7545D01*
X4355Y2550D02*
X7595D01*
X4969Y2750D02*
X6691D01*
X4305Y2600D02*
X7645D01*
X4832Y2650D02*
X6828D01*
X4935Y2700D02*
X6725D01*
X5200Y1705D02*
Y5742D01*
X5150Y1755D02*
Y5742D01*
X5250Y1655D02*
Y5742D01*
X5300Y1605D02*
Y5747D01*
X5350Y1555D02*
Y5766D01*
X5100Y1805D02*
Y5742D01*
X6864Y2650D02*
X7695D01*
X6967Y2700D02*
X7745D01*
X7001Y2750D02*
X7795D01*
X-450Y2850D02*
X-297D01*
X-450Y2900D02*
X-289D01*
X-450Y2800D02*
X-289D01*
X-450Y2950D02*
X-265D01*
X-450Y3050D02*
X-288D01*
X-450Y3100D02*
X-297D01*
X-450Y3000D02*
X-261D01*
X-450Y3250D02*
X-216D01*
X-450Y3200D02*
X-267D01*
X-250Y2967D02*
Y2987D01*
X-0Y2963D02*
Y2991D01*
X-450Y3150D02*
X-291D01*
X-450Y3350D02*
X-267D01*
X-450Y3400D02*
X-261D01*
X-450Y3300D02*
X-254D01*
X-450Y3550D02*
X-285D01*
X-450Y3600D02*
X-297D01*
X-450Y3450D02*
X-233D01*
X-450Y3500D02*
X-255D01*
X-250Y3221D02*
Y3291D01*
X-0Y3217D02*
Y3299D01*
X-250Y3425D02*
Y3495D01*
X-21Y3450D02*
X21D01*
X-12Y3487D02*
X12D01*
X-0Y3417D02*
Y3487D01*
X250Y2967D02*
Y2987D01*
X-38Y3250D02*
X38D01*
X216D02*
X562D01*
X250Y3221D02*
Y3291D01*
X265Y2950D02*
X620D01*
X261Y3000D02*
X620D01*
X289Y2800D02*
X620D01*
X289Y2900D02*
X620D01*
X297Y2850D02*
X620D01*
X267Y3200D02*
X612D01*
X254Y3300D02*
X512D01*
X288Y3050D02*
X620D01*
X291Y3150D02*
X620D01*
X297Y3100D02*
X620D01*
X233Y3450D02*
X362D01*
X242Y3487D02*
X325D01*
X250Y3425D02*
Y3487D01*
X267Y3350D02*
X462D01*
X261Y3400D02*
X412D01*
X325Y3487D02*
X620Y3192D01*
X465Y3700D02*
X833Y3332D01*
X750Y3416D02*
Y4705D01*
X600Y3566D02*
Y4705D01*
X550Y3616D02*
Y4705D01*
X566Y3600D02*
X1530D01*
X650Y3516D02*
Y4705D01*
X700Y3466D02*
Y4705D01*
X-450Y3650D02*
X-293D01*
X-450Y3700D02*
X-272D01*
X-450Y3750D02*
X-226D01*
X-200Y3765D02*
Y4331D01*
X-450Y4350D02*
X-207D01*
X-450Y4400D02*
X-215D01*
X-450Y4250D02*
X-119D01*
X-450Y4300D02*
X-181D01*
X-12Y3737D02*
X12D01*
X-0D02*
Y4243D01*
X-28Y3750D02*
X28D01*
X50Y3764D02*
Y4269D01*
X-100Y3780D02*
Y4243D01*
X-150Y3780D02*
Y4269D01*
X-50Y3764D02*
Y4235D01*
X-450Y4450D02*
X-207D01*
X-450Y4500D02*
X-181D01*
X-450Y4550D02*
X-119D01*
X-450Y4750D02*
X-175D01*
X-450Y4850D02*
X-238D01*
X-450Y4900D02*
X-245D01*
X-450Y4800D02*
X-217D01*
X-450Y5050D02*
X-175D01*
X-450Y5000D02*
X-217D01*
X-150Y4531D02*
Y4733D01*
X-200Y4469D02*
Y4775D01*
X-100Y4557D02*
Y4712D01*
X50Y4531D02*
Y4705D01*
X-50Y4565D02*
Y4705D01*
X-450Y4950D02*
X-238D01*
X-0Y4557D02*
Y4705D01*
X-450Y3800D02*
X1530D01*
X-450Y3850D02*
X1530D01*
X-450Y3900D02*
X1530D01*
X19Y4250D02*
X1560D01*
X81Y4300D02*
X795D01*
X-450Y4100D02*
X2470D01*
X-450Y4200D02*
X1569D01*
X-450Y4150D02*
X1602D01*
X242Y3737D02*
X377D01*
X516Y3650D02*
X1530D01*
X466Y3700D02*
X1530D01*
X100Y3780D02*
Y4331D01*
X115Y4400D02*
X775D01*
X226Y3750D02*
X1530D01*
X107Y4350D02*
X776D01*
X107Y4450D02*
X775D01*
X81Y4500D02*
X780D01*
X19Y4550D02*
X812D01*
X-450Y4600D02*
X2680D01*
X-450Y4700D02*
X837D01*
X-50Y4705D02*
X826D01*
X-450Y4650D02*
X2680D01*
X-450Y5100D02*
X1313D01*
X-50Y5095D02*
X935D01*
X300Y3737D02*
Y4705D01*
X250Y3737D02*
Y4705D01*
X500Y3666D02*
Y4705D01*
X400Y3735D02*
Y4705D01*
X450Y3714D02*
Y4705D01*
X150Y3780D02*
Y4705D01*
X100Y4469D02*
Y4705D01*
X775Y4365D02*
Y4465D01*
X200Y3766D02*
Y4705D01*
X350Y3737D02*
Y4705D01*
X870Y2800D02*
X963D01*
X870Y2850D02*
X963D01*
X1243Y2871D02*
Y2885D01*
X963D02*
X1243D01*
X870Y2900D02*
X1288D01*
X1426D02*
X1542D01*
X1700Y2890D02*
Y3580D01*
X1680Y2900D02*
X1796D01*
X1750Y2870D02*
Y3580D01*
X1600Y2914D02*
Y3580D01*
X1550Y2903D02*
Y3580D01*
X1850Y2914D02*
Y3580D01*
X1650Y2910D02*
Y3580D01*
X1800Y2902D02*
Y3580D01*
X1000Y2885D02*
Y4250D01*
X1050Y2885D02*
Y4257D01*
X1100Y2885D02*
Y4293D01*
X1250Y2876D02*
Y4690D01*
X850Y3312D02*
Y4257D01*
X800Y3366D02*
Y4293D01*
X1300Y2905D02*
Y4690D01*
X1150Y2885D02*
Y4690D01*
X1200Y2885D02*
Y4690D01*
X1350Y2914D02*
Y4690D01*
X1400Y2909D02*
Y4691D01*
X1530Y3580D02*
Y3920D01*
X1450Y2887D02*
Y4704D01*
X1500Y2873D02*
Y4733D01*
X1600Y3920D02*
Y4152D01*
X1550Y3920D02*
Y4780D01*
X1750Y3920D02*
Y4119D01*
X1650Y3920D02*
Y4119D01*
X1800Y3920D02*
Y4152D01*
X2026Y2800D02*
X2528D01*
X2000Y2848D02*
Y3605D01*
X1999Y2850D02*
X2578D01*
X1934Y2900D02*
X2634D01*
X1530Y3580D02*
X1870D01*
Y3605D01*
Y3600D02*
X2470D01*
X1870Y3605D02*
X2461D01*
X1900Y2911D02*
Y3605D01*
X2550Y2822D02*
Y3580D01*
X2600Y2872D02*
Y3587D01*
X2533Y2805D02*
X2608Y2880D01*
X2650Y2907D02*
Y3605D01*
X2693Y2915D02*
X2703D01*
X2700D02*
Y3605D01*
X2750Y2929D02*
Y3605D01*
X1950Y2892D02*
Y3605D01*
X1870Y3895D02*
Y3920D01*
Y3895D02*
X2461D01*
X2250D02*
Y4780D01*
X1530Y3920D02*
X1870D01*
X2100Y3895D02*
Y4836D01*
X1870Y3900D02*
X2470D01*
X2150Y3895D02*
Y4796D01*
X2200Y3895D02*
Y4781D01*
X2400Y3895D02*
Y4170D01*
X2350Y3895D02*
Y4780D01*
X2450Y3895D02*
Y4113D01*
X2700Y3895D02*
Y4105D01*
X2500Y3912D02*
Y4088D01*
X2300Y3895D02*
Y4780D01*
X2600Y3913D02*
Y4087D01*
X2650Y3895D02*
Y4105D01*
X2750Y3895D02*
Y4105D01*
X890Y4250D02*
X1010D01*
X950Y4580D02*
Y4690D01*
X890Y4580D02*
X1010D01*
X950Y4690D02*
X1010D01*
X950D02*
X1010D01*
X1125Y4365D02*
Y4465D01*
X1105Y4300D02*
X1569D01*
X1124Y4350D02*
X1602D01*
X850Y4573D02*
Y4696D01*
X800Y4537D02*
Y4705D01*
X1000Y4580D02*
Y4690D01*
X900Y4580D02*
Y4690D01*
X890D02*
X950D01*
X1010D02*
X1377D01*
X1100Y4537D02*
Y4690D01*
X1050Y4573D02*
Y4690D01*
X1600Y4348D02*
Y4780D01*
X1650Y4381D02*
Y4790D01*
X1010Y5080D02*
X1297D01*
X1313Y5096D01*
X1515Y4747D02*
X1548Y4780D01*
X1595D01*
X1700Y3920D02*
Y4110D01*
X1798Y4150D02*
X2413D01*
X1125Y4400D02*
X2470D01*
X1088Y4550D02*
X2680D01*
X1439Y4700D02*
X2680D01*
X1518Y4750D02*
X2680D01*
X1840Y4250D02*
X2380D01*
X1831Y4300D02*
X2387D01*
X2550Y3920D02*
Y4080D01*
X1831Y4200D02*
X2388D01*
X2220Y4780D02*
X2345D01*
X2400Y4330D02*
Y4790D01*
X1798Y4350D02*
X2412D01*
X2700Y4395D02*
Y4510D01*
X2750Y4395D02*
Y4510D01*
X1700Y4390D02*
Y4820D01*
X1750Y4381D02*
Y4909D01*
X1672Y4800D02*
X2143D01*
X1753Y5000D02*
X2063D01*
X1753Y5050D02*
X2063D01*
X1726Y4850D02*
X2089D01*
X1748Y4900D02*
X2067D01*
X1753Y4950D02*
X2063D01*
X2450Y4387D02*
Y4820D01*
X2500Y4412D02*
Y4909D01*
X2680Y4510D02*
Y4950D01*
X2503Y4950D02*
X2680D01*
X1753Y5100D02*
X2063D01*
X2422Y4800D02*
X2680D01*
X2476Y4850D02*
X2680D01*
X2498Y4900D02*
X2680D01*
X-200Y5025D02*
Y5331D01*
X-450Y5350D02*
X-207D01*
X-450Y5250D02*
X-119D01*
X-450Y5300D02*
X-181D01*
X-450Y5400D02*
X-215D01*
X-450Y5450D02*
X-207D01*
X-450Y5550D02*
X-119D01*
X-450Y5500D02*
X-181D01*
X-100Y5088D02*
Y5243D01*
X-150Y5067D02*
Y5269D01*
X-50Y5095D02*
Y5235D01*
X100Y5095D02*
Y5331D01*
X-0Y5095D02*
Y5243D01*
X50Y5095D02*
Y5269D01*
X-450Y5700D02*
X-111D01*
X-250Y3729D02*
Y6132D01*
X-450Y5850D02*
X-242D01*
X-450Y5900D02*
X-245D01*
X-450Y5750D02*
X-191D01*
X-450Y5800D02*
X-225D01*
X100Y5469D02*
Y5690D01*
X-200Y5469D02*
Y5760D01*
X250Y5095D02*
Y5690D01*
X150Y5095D02*
Y5690D01*
X200Y5095D02*
Y5690D01*
X-100Y5557D02*
Y5697D01*
X-150Y5531D02*
Y5718D01*
X50Y5531D02*
Y5690D01*
X-50Y5565D02*
Y5690D01*
X-0Y5557D02*
Y5690D01*
X-450Y5150D02*
X1313D01*
X81Y5300D02*
X795D01*
X-450Y5200D02*
X1323D01*
X19Y5250D02*
X1355D01*
X115Y5400D02*
X775D01*
X107Y5450D02*
X775D01*
X107Y5350D02*
X776D01*
X19Y5550D02*
X812D01*
X81Y5500D02*
X780D01*
X850Y5095D02*
Y5257D01*
X800Y5095D02*
Y5293D01*
X950Y5094D02*
Y5250D01*
X900Y5095D02*
Y5250D01*
X775Y5365D02*
Y5465D01*
X890Y5250D02*
X1010D01*
X890Y5580D02*
X1010D01*
X350Y5095D02*
Y5690D01*
X300Y5095D02*
Y5690D01*
X550Y5095D02*
Y5690D01*
X400Y5095D02*
Y5690D01*
X500Y5095D02*
Y5690D01*
X450Y5095D02*
Y5690D01*
X-450Y5600D02*
X1314D01*
X-450Y5650D02*
X1312D01*
X-50Y5690D02*
X890D01*
X650Y5095D02*
Y5690D01*
X600Y5095D02*
Y5690D01*
X800Y5537D02*
Y5690D01*
X700Y5095D02*
Y5690D01*
X750Y5095D02*
Y5690D01*
X900Y5580D02*
Y5690D01*
X850Y5573D02*
Y5690D01*
X890D02*
X950D01*
X890D02*
X950D01*
X950Y5580D02*
Y5690D01*
X-450Y5950D02*
X-238D01*
X-450Y6000D02*
X-217D01*
X-450Y6050D02*
X-175D01*
X-450Y6100D02*
X-195D01*
X-450Y6550D02*
X-442D01*
X-450Y6600D02*
X-434D01*
X-450Y6150D02*
X-275D01*
X-450Y6250D02*
X-368D01*
X-450Y6200D02*
X-329D01*
X-150Y6067D02*
Y6081D01*
X-200Y6025D02*
Y6103D01*
X250Y6080D02*
Y6132D01*
X300Y6080D02*
Y6171D01*
X-450Y6400D02*
X-434D01*
X-450Y6450D02*
X-442D01*
X200Y6080D02*
Y6102D01*
X-450Y6350D02*
X-419D01*
X-450Y6300D02*
X-397D01*
X-450Y6650D02*
X-419D01*
X-400Y6695D02*
Y6950D01*
X-450Y6700D02*
X-398D01*
X-450Y6750D02*
X-368D01*
X-450Y6800D02*
X-329D01*
X-350Y6775D02*
Y6950D01*
X-450Y6850D02*
X-275D01*
X-450Y6900D02*
X-195D01*
X-300Y6829D02*
Y6950D01*
X-200Y6897D02*
Y6950D01*
X-250Y6868D02*
Y6950D01*
X250Y6868D02*
Y6950D01*
X-150Y6919D02*
Y6950D01*
X200Y6898D02*
Y6950D01*
X-50Y6942D02*
Y6950D01*
X-100Y6934D02*
Y6950D01*
X150Y6919D02*
Y6950D01*
X50Y6942D02*
Y6950D01*
X100Y6934D02*
Y6950D01*
X350Y6080D02*
Y6225D01*
X147Y6080D02*
X890D01*
X195Y6100D02*
X1855D01*
X397Y6300D02*
X1653D01*
X398Y6700D02*
X1652D01*
X275Y6150D02*
X1775D01*
X329Y6200D02*
X1721D01*
X368Y6250D02*
X1682D01*
X890Y6080D02*
X950D01*
X400D02*
Y6305D01*
X890Y6080D02*
X950D01*
X419Y6350D02*
X1631D01*
X434Y6400D02*
X1616D01*
X445Y6500D02*
X1605D01*
X442Y6550D02*
X1608D01*
X442Y6450D02*
X1608D01*
X419Y6650D02*
X1631D01*
X434Y6600D02*
X1616D01*
X400Y6695D02*
Y6950D01*
X368Y6750D02*
X1682D01*
X450Y6080D02*
Y6950D01*
X350Y6775D02*
Y6950D01*
X300Y6829D02*
Y6950D01*
X329Y6800D02*
X1721D01*
X195Y6900D02*
X1855D01*
X275Y6850D02*
X1775D01*
X800Y6080D02*
Y6950D01*
X750Y6080D02*
Y6950D01*
X950Y6080D02*
Y6950D01*
X850Y6080D02*
Y6950D01*
X900Y6080D02*
Y6950D01*
X550Y6080D02*
Y6950D01*
X500Y6080D02*
Y6950D01*
X700Y6080D02*
Y6950D01*
X600Y6080D02*
Y6950D01*
X650Y6080D02*
Y6950D01*
X1000Y5084D02*
Y5250D01*
X1050Y5080D02*
Y5257D01*
X1313Y5096D02*
Y5143D01*
X1100Y5080D02*
Y5293D01*
X1105Y5300D02*
X1465D01*
X1125Y5365D02*
Y5465D01*
X1450Y5299D02*
Y5466D01*
X1400Y5284D02*
Y5481D01*
X1650Y5290D02*
Y5475D01*
X1550Y5300D02*
Y5465D01*
X1500Y5300D02*
Y5465D01*
X1470Y5300D02*
X1595D01*
X1470Y5465D02*
X1595D01*
X1600Y5300D02*
Y5465D01*
X1100Y5537D02*
Y5690D01*
X1120Y5500D02*
X1371D01*
X950Y5690D02*
X1010D01*
X1000Y5580D02*
Y5690D01*
X1088Y5550D02*
X1330D01*
X950Y5690D02*
X1010D01*
X1050Y5573D02*
Y5690D01*
X1200Y5080D02*
Y5690D01*
X1150Y5080D02*
Y5690D01*
X1750Y5171D02*
Y5594D01*
X1250Y5080D02*
Y5690D01*
X1300Y5083D02*
Y5672D01*
X1312Y5622D02*
Y5659D01*
X1282Y5690D02*
X1312Y5659D01*
X1700Y5260D02*
Y5505D01*
X1350Y5244D02*
Y5521D01*
X1742Y5200D02*
X2073D01*
X1710Y5250D02*
X2088D01*
X1600Y5300D02*
X2088D01*
X1694Y5500D02*
X2088D01*
X1735Y5550D02*
X2080D01*
X1124Y5350D02*
X2088D01*
X1125Y5450D02*
X2088D01*
X1125Y5400D02*
X2088D01*
X2063Y4938D02*
Y5143D01*
X1753Y4938D02*
Y5143D01*
X2503Y4938D02*
Y5143D01*
X1752Y5150D02*
X2063D01*
X1751Y5600D02*
X2064D01*
X2088Y5228D02*
Y5537D01*
X2477Y5228D02*
Y5537D01*
X2500Y5171D02*
Y5594D01*
X1950Y3895D02*
Y6066D01*
X1900Y3895D02*
Y6081D01*
X2050Y3895D02*
Y6055D01*
X2000Y3895D02*
Y6058D01*
X1752Y5622D02*
Y5828D01*
Y5650D02*
X2062D01*
X1800Y4348D02*
Y6132D01*
X1850Y3920D02*
Y6103D01*
X2550Y4420D02*
Y5717D01*
X2600Y4413D02*
Y5767D01*
X2650Y4395D02*
Y5817D01*
X2700Y4950D02*
Y5867D01*
X2750Y4950D02*
Y5918D01*
X2062Y5622D02*
Y5828D01*
X2502Y5669D02*
X2738Y5905D01*
X2502Y5622D02*
Y5669D01*
X1010Y5690D02*
X1282D01*
X1500Y6023D02*
X1538Y5985D01*
X950Y6080D02*
X1010D01*
X950D02*
X1010D01*
X1362D01*
X1150D02*
Y6950D01*
X1200Y6080D02*
Y6950D01*
X1752Y5750D02*
X2062D01*
X1752Y5700D02*
X2062D01*
X1751Y5850D02*
X2064D01*
X1752Y5800D02*
X2062D01*
X1538Y5985D02*
X1595D01*
X1650Y5975D02*
Y6305D01*
X1735Y5900D02*
X2080D01*
X1700Y5945D02*
Y6225D01*
X1750Y5856D02*
Y6171D01*
X1400Y6076D02*
Y6950D01*
X1350Y6080D02*
Y6950D01*
X1500Y6023D02*
Y6950D01*
X1450Y6059D02*
Y6950D01*
X1050Y6080D02*
Y6950D01*
X1000Y6080D02*
Y6950D01*
X1300Y6080D02*
Y6950D01*
X1100Y6080D02*
Y6950D01*
X1250Y6080D02*
Y6950D01*
X1600Y5985D02*
Y6950D01*
X1550Y5985D02*
Y6950D01*
X1750Y6829D02*
Y6950D01*
X1650Y6695D02*
Y6950D01*
X1700Y6775D02*
Y6950D01*
X1850Y6897D02*
Y6950D01*
X1800Y6868D02*
Y6950D01*
X2000Y6942D02*
Y6950D01*
X1900Y6919D02*
Y6950D01*
X1950Y6934D02*
Y6950D01*
X1694Y5950D02*
X2121D01*
X2100Y5929D02*
Y6058D01*
X2150Y5969D02*
Y6066D01*
X2220Y5985D02*
X2267D01*
X2200Y5984D02*
Y6081D01*
X1523Y6000D02*
X2282D01*
X1467Y6050D02*
X2332D01*
X2245Y6100D02*
X2382D01*
X2250Y5985D02*
Y6102D01*
X2300Y6018D02*
Y6132D01*
X2267Y5985D02*
X2405Y6123D01*
X2350Y6068D02*
Y6171D01*
X2400Y6118D02*
Y6225D01*
X2325Y6150D02*
X2405D01*
Y6123D02*
Y6232D01*
X2379Y6200D02*
X2405D01*
X2448Y6700D02*
X2574D01*
X2469Y6650D02*
X2524D01*
X2350Y6829D02*
Y6950D01*
X2300Y6868D02*
Y6950D01*
X2325Y6850D02*
X2724D01*
X2150Y6934D02*
Y6950D01*
X2100Y6942D02*
Y6950D01*
X2245Y6900D02*
X2774D01*
X2200Y6919D02*
Y6950D01*
X2250Y6898D02*
Y6950D01*
X2500Y6626D02*
Y6950D01*
X2450Y6695D02*
Y6950D01*
X2418Y6750D02*
X2624D01*
X2550Y6676D02*
Y6950D01*
X2600Y6726D02*
Y6950D01*
X2650Y6776D02*
Y6950D01*
X2400Y6775D02*
Y6950D01*
X2379Y6800D02*
X2674D01*
X2700Y6826D02*
Y6950D01*
X2750Y6876D02*
Y6950D01*
X816Y3350D02*
X3145D01*
X766Y3400D02*
X3095D01*
X870Y3250D02*
X3245D01*
X857Y3300D02*
X3195D01*
X2630Y3600D02*
X2870D01*
X2639Y3605D02*
X2861D01*
X716Y3450D02*
X3045D01*
X616Y3550D02*
X2945D01*
X666Y3500D02*
X2995D01*
X2900Y2799D02*
Y3588D01*
X3100Y2788D02*
Y3395D01*
X3000Y2791D02*
Y3495D01*
X2850Y2900D02*
Y3605D01*
X2800Y2925D02*
Y3605D01*
X2900Y2800D02*
X2919D01*
X2950Y2802D02*
Y3545D01*
X2850Y3895D02*
Y4105D01*
X2800Y3895D02*
Y4105D01*
X2639Y3895D02*
X2861D01*
X2630Y3900D02*
X2870D01*
X2900Y3912D02*
Y4088D01*
X-450Y3950D02*
X3045D01*
X-450Y4050D02*
X2945D01*
X-450Y4000D02*
X2995D01*
X3100Y3830D02*
Y3895D01*
X2910Y4085D02*
X3147Y3848D01*
X3250Y3655D02*
Y3805D01*
X3150Y3755D02*
Y3845D01*
X3200Y3705D02*
Y3814D01*
X3000Y3913D02*
Y3995D01*
X2950Y3920D02*
Y4045D01*
X3088Y3850D02*
X3145D01*
X3030Y3900D02*
X3095D01*
X3050Y3888D02*
Y3945D01*
X2850Y2900D02*
X3595D01*
X870Y2950D02*
X3545D01*
X2971Y2800D02*
X3695D01*
X2888Y2850D02*
X3645D01*
X870Y3150D02*
X3345D01*
X870Y3200D02*
X3295D01*
X870Y3000D02*
X3495D01*
X870Y3100D02*
X3395D01*
X870Y3050D02*
X3445D01*
X3705Y3200D02*
X7549D01*
X3655Y3250D02*
X7549D01*
X3605Y3300D02*
X7549D01*
X3505Y3400D02*
X7955D01*
X3555Y3350D02*
X7549D01*
X3305Y3600D02*
X7955D01*
X3255Y3650D02*
X7955D01*
X3455Y3450D02*
X7955D01*
X3355Y3550D02*
X7955D01*
X3405Y3500D02*
X7955D01*
X3350Y3555D02*
Y3805D01*
X3300Y3605D02*
Y3805D01*
X3205Y3700D02*
X7955D01*
X3400Y3505D02*
Y3805D01*
X3155Y3750D02*
X7955D01*
X3113Y3800D02*
X3906D01*
X3250Y3805D02*
X3625D01*
X3550Y3355D02*
Y3805D01*
X3500Y3405D02*
Y3805D01*
X3600Y3305D02*
Y3805D01*
X3650Y3255D02*
Y3807D01*
X3700Y3205D02*
Y3826D01*
X3450Y3455D02*
Y3805D01*
X3728Y3848D02*
X3785Y3905D01*
X3730Y3850D02*
X3878D01*
X2639Y4105D02*
X2861D01*
X2639Y4395D02*
X2861D01*
X2630Y4100D02*
X2870D01*
X2850Y4395D02*
Y4510D01*
X2800Y4395D02*
Y4510D01*
X2630Y4400D02*
X2870D01*
X1120Y4500D02*
X3245D01*
X2680Y4510D02*
X3120D01*
X3100Y4330D02*
Y4510D01*
X3250Y4155D02*
Y4495D01*
X3200Y4205D02*
Y4545D01*
X2950Y4420D02*
Y4510D01*
X2900Y4412D02*
Y4510D01*
X3000Y4413D02*
Y4510D01*
X3050Y4388D02*
Y4510D01*
X3120Y4550D02*
X3195D01*
X2477Y5300D02*
X3030D01*
X2477Y5350D02*
X3030D01*
X2492Y5200D02*
X3030D01*
X2477Y5250D02*
X3030D01*
X2485Y5550D02*
X3030D01*
X2501Y5600D02*
X3030D01*
X2477Y5400D02*
X3030D01*
X2477Y5500D02*
X3030D01*
X2477Y5450D02*
X3030D01*
X2680Y4950D02*
X3030D01*
X2503Y5000D02*
X3030D01*
X3150Y4255D02*
Y4595D01*
X3120Y4510D02*
Y4625D01*
Y4600D02*
X3145D01*
X2502Y5650D02*
X3030D01*
X2533Y5700D02*
X3030D01*
X2503Y5050D02*
X3030D01*
X2502Y5150D02*
X3030D01*
X2503Y5100D02*
X3030D01*
X3115Y4290D02*
X3310Y4095D01*
X3300Y4105D02*
Y4445D01*
X3255Y4150D02*
X3368D01*
X3205Y4200D02*
X3368D01*
X3030Y4400D02*
X3345D01*
X1125Y4450D02*
X3295D01*
X3155Y4250D02*
X3368D01*
X3088Y4350D02*
X3368D01*
X3113Y4300D02*
X3368D01*
Y4127D02*
Y4377D01*
X3350Y4095D02*
Y4395D01*
X3310Y4095D02*
X3372D01*
X3305Y4100D02*
X3371D01*
X3368Y4252D02*
Y4377D01*
X3658Y4497D02*
X3708D01*
X3643Y4500D02*
X3832D01*
X3120Y4625D02*
X3368Y4377D01*
X3450Y4705D02*
Y4840D01*
X3455Y4700D02*
X5406D01*
X3320Y4835D02*
X3615Y4540D01*
X3400Y4755D02*
Y4840D01*
X3350Y4805D02*
Y4840D01*
X3405Y4750D02*
X5406D01*
X3320Y4840D02*
X4448D01*
X3355Y4800D02*
X5406D01*
X3605Y4550D02*
X3832D01*
X3650Y4497D02*
Y4840D01*
X3700Y4497D02*
Y4840D01*
X3550Y4605D02*
Y4840D01*
X3500Y4655D02*
Y4840D01*
X3555Y4600D02*
X3847D01*
X3505Y4650D02*
X3885D01*
X3600Y4555D02*
Y4840D01*
X3950Y2955D02*
Y3771D01*
X3900Y3005D02*
Y3807D01*
X4000Y2905D02*
Y3765D01*
X4050Y2855D02*
Y3768D01*
X3750Y3155D02*
Y3870D01*
X3780Y3900D02*
X3875D01*
X3988Y3765D02*
X4022D01*
X4100Y2805D02*
Y3796D01*
X4105Y2800D02*
X4645D01*
X4055Y2850D02*
X4647D01*
X4104Y3800D02*
X4149D01*
X4178Y3795D02*
X4212D01*
X3800Y3105D02*
Y3922D01*
X3850Y3055D02*
Y4037D01*
X3828Y4008D02*
Y4037D01*
X3816Y3950D02*
X3875D01*
X3827Y4000D02*
X3878D01*
X3828Y4037D02*
X3878D01*
X3875Y3878D02*
Y3972D01*
X4295Y3878D02*
Y3972D01*
X3880Y4006D02*
Y4030D01*
X4308Y4127D02*
Y4377D01*
X4005Y2900D02*
X4665D01*
X3955Y2950D02*
X4706D01*
X3905Y3000D02*
X7557D01*
X3855Y3050D02*
X7549D01*
X3805Y3100D02*
X7549D01*
X3755Y3150D02*
X7549D01*
X4241Y3800D02*
X7955D01*
X4290Y3850D02*
X7955D01*
X4290Y4000D02*
X7955D01*
X4983Y2800D02*
X6677D01*
X4981Y2850D02*
X6679D01*
X7015Y2800D02*
X7635D01*
X4963Y2900D02*
X6697D01*
X7013Y2850D02*
X7580D01*
X6954Y2950D02*
X7549D01*
X4922D02*
X6738D01*
X6995Y2900D02*
X7556D01*
X4295Y3950D02*
X7955D01*
X4295Y3900D02*
X7955D01*
X4700Y2945D02*
Y5742D01*
X4650Y2863D02*
Y5742D01*
X4263Y4050D02*
X7955D01*
X4750Y2976D02*
Y5742D01*
X4308Y4250D02*
X7920D01*
X4308Y4300D02*
X7870D01*
X4303Y4100D02*
X7955D01*
X4308Y4200D02*
X7955D01*
X4308Y4150D02*
X7955D01*
X6700Y2906D02*
Y4764D01*
X4950Y2921D02*
Y5742D01*
X6750Y2959D02*
Y4711D01*
X6950Y2954D02*
Y4716D01*
X7000Y2891D02*
Y4779D01*
X4900Y2966D02*
Y5742D01*
X4850Y2985D02*
Y5742D01*
X6850Y2989D02*
Y4681D01*
X6800Y2983D02*
Y4687D01*
X6900Y2980D02*
Y4690D01*
X3800Y4463D02*
Y4840D01*
X3828Y4467D02*
X3840D01*
X3850Y4605D02*
Y4840D01*
X3750Y4490D02*
Y4840D01*
X4050Y4688D02*
Y4840D01*
X3950Y4687D02*
Y4840D01*
X4000Y4695D02*
Y4840D01*
X4168Y4467D02*
X4218D01*
X4200D02*
Y4840D01*
X4150Y4605D02*
Y4840D01*
X4100Y4663D02*
Y4840D01*
X5406Y4681D02*
X5746D01*
Y4800D02*
X5954D01*
X5746Y4750D02*
X5987D01*
X4250Y4461D02*
Y4840D01*
X3900Y4662D02*
Y4840D01*
X4300Y4414D02*
Y4840D01*
X4448Y4850D02*
X5406D01*
X4448Y4900D02*
X5406D01*
X4448Y5000D02*
X5406D01*
X4448Y4950D02*
X5406D01*
X5746Y4681D02*
Y5021D01*
X5406Y4681D02*
Y5021D01*
X5746Y4850D02*
X5944D01*
X5406Y5021D02*
X5746D01*
X4495Y5742D02*
X5258D01*
X5746Y4900D02*
X5953D01*
X5746Y4950D02*
X5985D01*
X4271Y4450D02*
X7688D01*
X4168Y4500D02*
X7663D01*
X4308Y4350D02*
X7820D01*
X4305Y4400D02*
X7745D01*
X5746Y4700D02*
X6768D01*
X4168Y4550D02*
X7655D01*
X4115Y4650D02*
X7687D01*
X4153Y4600D02*
X7662D01*
X6181Y4750D02*
X6709D01*
X6214Y4800D02*
X6684D01*
X6924Y4700D02*
X7450D01*
X6983Y4750D02*
X7403D01*
X7008Y4800D02*
X7397D01*
X6224Y4850D02*
X6676D01*
X6215Y4900D02*
X6683D01*
X7016Y4850D02*
X7397D01*
X6183Y4950D02*
X6708D01*
X7009Y4900D02*
X7405D01*
X4448Y5050D02*
X7917D01*
X4448Y5100D02*
X8544D01*
X4448Y5150D02*
X8544D01*
X4448Y5200D02*
X8544D01*
X4448Y5600D02*
X7280D01*
X4448Y5650D02*
X7288D01*
X4448Y5250D02*
X7910D01*
X4448Y5350D02*
X7726D01*
X4448Y5300D02*
X7778D01*
X5746Y5000D02*
X6764D01*
X6984Y4950D02*
X7464D01*
X6928Y5000D02*
X7795D01*
X4448Y5500D02*
X7280D01*
X4448Y5550D02*
X7280D01*
X4448Y5400D02*
X7344D01*
X4448Y5700D02*
X7343D01*
X4448Y5450D02*
X7288D01*
X2583Y5750D02*
X3030D01*
X2633Y5800D02*
X3030D01*
X2683Y5850D02*
X3030D01*
X2733Y5900D02*
X3043D01*
X2772Y5950D02*
X3080D01*
X2790Y6000D02*
X3130D01*
X2795Y6050D02*
X3180D01*
X3350Y5800D02*
Y5810D01*
X3030Y4950D02*
Y5840D01*
X3400Y5800D02*
Y5860D01*
X3450Y5800D02*
Y5910D01*
X3500Y5800D02*
Y5960D01*
X3550Y5800D02*
Y6010D01*
X3600Y5800D02*
Y6060D01*
X2850Y4950D02*
Y6077D01*
X2800Y4950D02*
Y6098D01*
X2900Y4950D02*
Y6072D01*
X3000Y4950D02*
Y6104D01*
X2795Y6042D02*
Y6100D01*
X2950Y4950D02*
Y6080D01*
X2994Y6100D02*
X3230D01*
X3050Y5913D02*
Y6152D01*
X3100Y5970D02*
Y6605D01*
X3650Y5800D02*
Y6062D01*
X3073Y5943D02*
X3397Y6268D01*
X3340Y5800D02*
X3603Y6062D01*
X3200Y6070D02*
Y6605D01*
X3150Y6020D02*
Y6605D01*
X3048Y6150D02*
X3280D01*
X3250Y6120D02*
Y6605D01*
X3300Y6170D02*
Y6605D01*
X3700Y5800D02*
Y6062D01*
X3340Y5800D02*
X4357D01*
X3390Y5850D02*
X4307D01*
X3590Y6050D02*
X4107D01*
X3603Y6062D02*
X3708D01*
X3440Y5900D02*
X4257D01*
X3490Y5950D02*
X4207D01*
X3540Y6000D02*
X4157D01*
X4100Y5800D02*
Y6057D01*
X4100Y6057D02*
X4357Y5800D01*
X4448Y4840D02*
Y5748D01*
X4150Y5800D02*
Y6007D01*
X3900Y5800D02*
Y6095D01*
X4300Y5800D02*
Y5857D01*
X4200Y5800D02*
Y5957D01*
X4250Y5800D02*
Y5907D01*
X3708Y6062D02*
Y6372D01*
X3750Y5800D02*
Y6605D01*
X3850Y5800D02*
Y6096D01*
X3800Y5800D02*
Y6119D01*
X3708Y6100D02*
X3835D01*
X3708Y6150D02*
X3772D01*
X3920Y6100D02*
X4067D01*
X3950Y5800D02*
Y6116D01*
X4000Y5800D02*
Y6192D01*
X4050Y5800D02*
Y6142D01*
X4001Y6200D02*
X4042D01*
Y6195D02*
Y6354D01*
X3983Y6150D02*
X4048D01*
X4433Y6276D02*
X4576Y6133D01*
X3075Y6200D02*
X3330D01*
X2900Y6452D02*
Y6474D01*
X2950Y6444D02*
Y6524D01*
X3063Y6350D02*
X3397D01*
X2976Y6550D02*
X3847D01*
X3000Y6420D02*
Y6574D01*
X3708Y6200D02*
X3754D01*
X3085Y6250D02*
X3380D01*
X3708D02*
X3757D01*
X3081Y6300D02*
X3397D01*
Y6268D02*
Y6372D01*
X3708Y6300D02*
X3784D01*
X3397Y6372D02*
X3708D01*
X3850Y6339D02*
Y6547D01*
X2877Y6451D02*
X3031Y6605D01*
X2482Y6608D02*
X2812Y6938D01*
X3026Y6600D02*
X3797D01*
X3031Y6605D02*
X3792D01*
X-450Y6950D02*
X2825D01*
X2800Y6926D02*
Y6950D01*
X-450D02*
X2825D01*
X3350Y6220D02*
Y6605D01*
X3050Y6372D02*
Y6605D01*
X3800Y6316D02*
Y6597D01*
X3400Y6372D02*
Y6605D01*
X3450Y6372D02*
Y6605D01*
X3550Y6372D02*
Y6605D01*
X3500Y6372D02*
Y6605D01*
X3700Y6372D02*
Y6605D01*
X3600Y6372D02*
Y6605D01*
X3650Y6372D02*
Y6605D01*
X3900Y6340D02*
Y6497D01*
X3950Y6319D02*
Y6447D01*
X2923Y6450D02*
X3947D01*
X2926Y6500D02*
X3897D01*
X3708Y6350D02*
X4042D01*
X3026Y6400D02*
X3997D01*
X3792Y6605D02*
X4042Y6354D01*
X3998Y6250D02*
X4042D01*
X4000Y6243D02*
Y6397D01*
X3971Y6300D02*
X4042D01*
X4433Y6276D02*
Y6346D01*
Y6300D02*
X4453D01*
X4395Y6550D02*
X4408D01*
X4298Y6650D02*
X4431D01*
X4348Y6600D02*
X4416D01*
X4100Y6848D02*
Y6950D01*
X4050Y6898D02*
Y6950D01*
X4098Y6850D02*
X4575D01*
X4010Y6938D02*
X4375Y6573D01*
X4048Y6900D02*
X4655D01*
X3997Y6950D02*
X6650D01*
X3997Y6950D02*
X6650D01*
X4300Y6648D02*
Y6950D01*
X4250Y6698D02*
Y6950D01*
X4350Y6598D02*
Y6950D01*
X4400Y6543D02*
Y6950D01*
X4200Y6748D02*
Y6950D01*
X4150Y6798D02*
Y6950D01*
X4248Y6700D02*
X4452D01*
X4148Y6800D02*
X4521D01*
X4198Y6750D02*
X4482D01*
X4800Y2988D02*
Y5742D01*
X4576Y6133D02*
X4599D01*
X5101D02*
X5177D01*
X5150D02*
Y6171D01*
X4550Y6158D02*
Y6171D01*
X4508Y6200D02*
X4521D01*
X4558Y6150D02*
X4575D01*
X5125D02*
X5194D01*
X5179Y6200D02*
X5244D01*
X5550Y5021D02*
Y5954D01*
X5600Y5021D02*
Y6004D01*
X5650Y5021D02*
Y6054D01*
X5700Y5021D02*
Y6104D01*
X5200Y6156D02*
Y6225D01*
X5450Y5021D02*
Y5854D01*
X5500Y5021D02*
Y5904D01*
X4500Y6208D02*
Y6225D01*
X5250Y6206D02*
Y6305D01*
X5177Y6133D02*
X5921Y6877D01*
X4458Y6250D02*
X4482D01*
X4450Y6258D02*
Y6305D01*
X5218Y6250D02*
X5294D01*
X5247Y6300D02*
X5344D01*
X5269Y6350D02*
X5394D01*
X5950Y4891D02*
Y6354D01*
X6000Y4963D02*
Y6404D01*
X6050Y4987D02*
Y6454D01*
X5395Y5800D02*
X6140Y6544D01*
X6100Y4990D02*
Y6504D01*
X5350Y6306D02*
Y6950D01*
X5300Y6256D02*
Y6950D01*
X5284Y6400D02*
X5444D01*
X5400Y6356D02*
Y6950D01*
X5450Y6406D02*
Y6950D01*
X5311Y5750D02*
X8127D01*
X5396Y5800D02*
X8177D01*
X5446Y5850D02*
X8227D01*
X5496Y5900D02*
X8277D01*
X5696Y6100D02*
X6536D01*
X5746Y6150D02*
X6508D01*
X5546Y5950D02*
X8327D01*
X5596Y6000D02*
X8378D01*
X5646Y6050D02*
X6588D01*
X6700Y4938D02*
Y6011D01*
X6750Y4991D02*
Y6014D01*
X6800Y5015D02*
Y6029D01*
X6850Y5021D02*
Y6059D01*
X6900Y5012D02*
Y6116D01*
X6930Y6200D02*
X7395D01*
X5796D02*
X6495D01*
X6837Y6050D02*
X7488D01*
X6889Y6100D02*
X7436D01*
X6917Y6150D02*
X7408D01*
X6200Y4930D02*
Y6544D01*
X6150Y4975D02*
Y6544D01*
X5846Y6250D02*
X6493D01*
X5896Y6300D02*
X6504D01*
X6500Y6288D02*
Y6544D01*
X5946Y6350D02*
X6527D01*
X5996Y6400D02*
X6572D01*
X6550Y6379D02*
Y6544D01*
X6950Y4986D02*
Y6544D01*
X6900Y6346D02*
Y6544D01*
X6932Y6250D02*
X7393D01*
X6921Y6300D02*
X7404D01*
X7000Y4923D02*
Y6544D01*
X6800Y6433D02*
Y6537D01*
X6600Y6420D02*
Y6544D01*
X6898Y6350D02*
X7427D01*
X6850Y6403D02*
Y6544D01*
X6853Y6400D02*
X7472D01*
X4500Y6775D02*
Y6950D01*
X4450Y6695D02*
Y6950D01*
X5100Y6868D02*
Y6950D01*
X4550Y6829D02*
Y6950D01*
X4750Y6934D02*
Y6950D01*
X4700Y6919D02*
Y6950D01*
X5045Y6900D02*
X5949D01*
X5000Y6919D02*
Y6950D01*
X5050Y6898D02*
Y6950D01*
X5292Y6450D02*
X5494D01*
X5295Y6500D02*
X5544D01*
X5292Y6550D02*
X5594D01*
X5269Y6650D02*
X5694D01*
X5284Y6600D02*
X5644D01*
X5248Y6700D02*
X5744D01*
X5150Y6829D02*
Y6950D01*
X5218Y6750D02*
X5794D01*
X5125Y6850D02*
X5894D01*
X5179Y6800D02*
X5844D01*
X5250Y6695D02*
Y6950D01*
X5200Y6775D02*
Y6950D01*
X5550Y6506D02*
Y6950D01*
X5500Y6456D02*
Y6950D01*
X4650Y6897D02*
Y6950D01*
X4600Y6868D02*
Y6950D01*
X4950Y6934D02*
Y6950D01*
X4800Y6942D02*
Y6950D01*
X4900Y6942D02*
Y6950D01*
X5650Y6606D02*
Y6950D01*
X5600Y6556D02*
Y6950D01*
X5800Y6756D02*
Y6950D01*
X5700Y6656D02*
Y6950D01*
X5750Y6706D02*
Y6950D01*
X5900Y6856D02*
Y6950D01*
X5850Y6806D02*
Y6950D01*
X6050Y6934D02*
Y6950D01*
X5950Y6901D02*
Y6950D01*
X6000Y6925D02*
Y6950D01*
X6140Y6544D02*
X6611D01*
X6046Y6450D02*
X6691D01*
X6096Y6500D02*
X11618D01*
X6200Y6934D02*
Y6950D01*
X6059Y6934D02*
X6611D01*
X6250D02*
Y6950D01*
X6500Y6934D02*
Y6950D01*
X6700Y6451D02*
Y6519D01*
X6650Y6442D02*
Y6528D01*
X6734Y6450D02*
X7591D01*
X6750Y6448D02*
Y6522D01*
X6600Y6934D02*
Y6950D01*
X6550Y6934D02*
Y6950D01*
X6814Y6544D02*
X7511D01*
X6775Y6950D02*
X7550D01*
X6814Y6934D02*
X7511D01*
X6150D02*
Y6950D01*
X6100Y6934D02*
Y6950D01*
X6350Y6934D02*
Y6950D01*
X6300Y6934D02*
Y6950D01*
X6450Y6934D02*
Y6950D01*
X6400Y6934D02*
Y6950D01*
X6775D02*
X7550D01*
X7100Y6934D02*
Y6950D01*
X7050Y6934D02*
Y6950D01*
X7250Y6934D02*
Y6950D01*
X7150Y6934D02*
Y6950D01*
X7200Y6934D02*
Y6950D01*
X6850Y6934D02*
Y6950D01*
X6800Y6941D02*
Y6950D01*
X7000Y6934D02*
Y6950D01*
X6900Y6934D02*
Y6950D01*
X6950Y6934D02*
Y6950D01*
X7400Y-450D02*
Y-70D01*
X7300Y-450D02*
Y491D01*
X7500Y-450D02*
Y-200D01*
X7450Y-450D02*
Y-157D01*
X7600Y-450D02*
Y-237D01*
X7550Y-450D02*
Y-225D01*
X7650Y-450D02*
Y-239D01*
X7700Y-450D02*
Y-230D01*
X7750Y-450D02*
Y-210D01*
X7800Y-450D02*
Y-174D01*
X7850Y-450D02*
Y-174D01*
X7766Y-200D02*
X7884D01*
X7782Y200D02*
X7868D01*
X8000Y-450D02*
Y-239D01*
X7900Y-450D02*
Y-210D01*
X7950Y-450D02*
Y-230D01*
X7350Y-450D02*
Y495D01*
X7400Y81D02*
Y518D01*
X7450Y168D02*
Y578D01*
X7500Y211D02*
Y725D01*
X7450Y703D02*
Y715D01*
X7550Y236D02*
Y752D01*
X7750Y221D02*
Y975D01*
X7900Y221D02*
Y975D01*
X7800Y185D02*
Y975D01*
X7850Y185D02*
Y975D01*
X7600Y248D02*
Y811D01*
X7650Y250D02*
Y975D01*
X8000Y250D02*
Y975D01*
X7700Y241D02*
Y975D01*
X7950Y241D02*
Y975D01*
X8050Y-450D02*
Y-237D01*
X8100Y-450D02*
Y-225D01*
X8150Y-450D02*
Y-200D01*
X7650Y250D02*
X8000D01*
X8150Y-200D02*
X8650D01*
X8034Y250D02*
X8766D01*
X8200Y-450D02*
Y-157D01*
X8250Y-450D02*
Y-70D01*
X8206Y-150D02*
X8594D01*
X8238Y-100D02*
X8562D01*
X8256Y-50D02*
X8544D01*
X8262Y-0D02*
X8538D01*
X8258Y50D02*
X8542D01*
X8243Y100D02*
X8557D01*
X8166Y200D02*
X8634D01*
X8215Y150D02*
X8585D01*
X7366Y500D02*
X8030D01*
Y461D02*
Y821D01*
Y461D02*
X8390D01*
X7451Y700D02*
X8030D01*
X7548Y750D02*
X8030D01*
X7433Y550D02*
X8030D01*
X7458Y600D02*
X8030D01*
X7463Y650D02*
X8030D01*
X8200Y168D02*
Y461D01*
X8150Y211D02*
Y461D01*
X8350Y-450D02*
Y461D01*
X8250Y81D02*
Y461D01*
X8300Y-450D02*
Y461D01*
X8100Y236D02*
Y461D01*
X8050Y248D02*
Y461D01*
X8390Y500D02*
X8411D01*
X8390Y461D02*
Y510D01*
X7277Y1050D02*
X7296D01*
X7594Y800D02*
X8030D01*
X7586Y1450D02*
X7672D01*
X7586Y1500D02*
X7722D01*
X7650Y1428D02*
X7745Y1523D01*
X7586Y1550D02*
X7790D01*
X7800Y1215D02*
Y1250D01*
X8050Y821D02*
Y975D01*
X7850Y1215D02*
Y1317D01*
X7900Y1215D02*
Y1335D01*
X7806Y1273D02*
X7868Y1335D01*
X8050Y1215D02*
Y1335D01*
X7950Y1215D02*
Y1335D01*
X8000Y1215D02*
Y1335D01*
X7586Y1398D02*
Y1838D01*
X7296Y1038D02*
Y2191D01*
X7586Y1600D02*
X7805D01*
X7586Y1650D02*
X7725D01*
X7586Y1750D02*
X7632D01*
X7586Y1700D02*
X7671D01*
X7650Y1428D02*
Y1725D01*
X7600Y1409D02*
Y1805D01*
X7700Y1478D02*
Y1671D01*
X7750Y1528D02*
Y1632D01*
X7800Y1553D02*
Y1603D01*
X7586Y1800D02*
X7603D01*
X7822Y1555D02*
X8000D01*
X7850D02*
Y1581D01*
X7900Y1555D02*
Y1566D01*
X7615Y850D02*
X8162D01*
X7620Y900D02*
X8157D01*
X8030Y821D02*
X8172D01*
X7612Y950D02*
X8165D01*
X7601Y975D02*
X8176D01*
X8100Y1215D02*
Y1335D01*
X7781Y1215D02*
X8390D01*
X7800Y1250D02*
X8709D01*
X7833Y1300D02*
X8700D01*
X8150Y821D02*
Y975D01*
X8100Y821D02*
Y975D01*
X8200Y1215D02*
Y1335D01*
X8150Y1215D02*
Y1335D01*
X8350Y1215D02*
Y1335D01*
X8250Y1215D02*
Y1335D01*
X8300Y1215D02*
Y1335D01*
X8100Y1555D02*
Y1566D01*
X7868Y1335D02*
X8705D01*
X8000Y1555D02*
X8724D01*
X8150D02*
Y1581D01*
X8200Y1555D02*
Y1602D01*
X8195Y1600D02*
X8769D01*
X8195Y2400D02*
X9569D01*
X8250Y1555D02*
Y1632D01*
X8300Y1555D02*
Y1671D01*
X8350Y1555D02*
Y1725D01*
X8275Y1650D02*
X8819D01*
X8329Y1700D02*
X8869D01*
X8368Y1750D02*
X8919D01*
X8397Y1800D02*
X8969D01*
X8398Y2200D02*
X9369D01*
X8368Y2250D02*
X9419D01*
X8275Y2350D02*
X9519D01*
X8329Y2300D02*
X9469D01*
X8450Y-450D02*
Y491D01*
X8400Y-450D02*
Y505D01*
X8600Y-450D02*
Y-157D01*
X8500Y-450D02*
Y495D01*
X8550Y-450D02*
Y-70D01*
Y81D02*
Y518D01*
X8850Y-450D02*
Y-230D01*
X8900Y-450D02*
Y-210D01*
X8950Y-450D02*
Y-174D01*
X9000Y-450D02*
Y-108D01*
X8650Y-450D02*
Y-200D01*
X8600Y168D02*
Y578D01*
X8800Y-450D02*
Y-239D01*
X8700Y-450D02*
Y-225D01*
X8750Y-450D02*
Y-237D01*
X8600Y703D02*
Y715D01*
X8650Y211D02*
Y725D01*
X8550Y1105D02*
Y1335D01*
X8500Y1155D02*
Y1335D01*
X8475Y1180D02*
X8580Y1074D01*
X8600Y1074D02*
Y1335D01*
X8700Y236D02*
Y752D01*
X8850Y241D02*
Y1163D01*
X8900Y221D02*
Y1179D01*
X8950Y185D02*
Y1227D01*
X9000Y119D02*
Y1394D01*
X8700Y1037D02*
Y1335D01*
X8650Y1064D02*
Y1335D01*
X8750Y248D02*
Y811D01*
Y978D02*
Y1193D01*
X8800Y250D02*
Y1167D01*
X8972Y-150D02*
X9030D01*
X8916Y-200D02*
X9061D01*
X9004Y-100D02*
X9030D01*
X9009Y100D02*
X9030D01*
X8981Y150D02*
X9030D01*
X8932Y200D02*
X9039D01*
X8516Y500D02*
X9030D01*
X8800Y250D02*
X9030D01*
X9022Y-50D02*
X9030D01*
Y-170D02*
Y170D01*
Y-170D02*
X9061D01*
X9050Y-450D02*
Y-170D01*
X9061Y-450D02*
Y-170D01*
X9030Y170D02*
X9052D01*
X9050Y334D02*
Y428D01*
X9061Y353D02*
Y409D01*
X8583Y550D02*
X9035D01*
X8601Y700D02*
X9042D01*
X8608Y600D02*
X9057D01*
X8613Y650D02*
X9061D01*
X8698Y750D02*
X9030D01*
X8736Y1000D02*
X9061D01*
X8681Y1050D02*
X9061D01*
X8505Y1150D02*
X9061D01*
X8555Y1100D02*
X9061D01*
X9050Y588D02*
Y682D01*
X8744Y800D02*
X9034D01*
X9061Y607D02*
Y663D01*
X8765Y850D02*
X9055D01*
X9050Y842D02*
Y1444D01*
X8770Y900D02*
X9061D01*
X8762Y950D02*
X9061D01*
Y861D02*
Y1239D01*
X8448Y1200D02*
X8742D01*
X8450Y1199D02*
Y1335D01*
X8928Y1200D02*
X9061D01*
X8400Y1215D02*
Y1335D01*
X8961Y1250D02*
X9073D01*
X8959Y1350D02*
X9173D01*
X8970Y1300D02*
X9123D01*
X9100Y1277D02*
Y1494D01*
X9150Y1327D02*
Y1544D01*
X9006Y1400D02*
X9223D01*
X9200Y1377D02*
Y1594D01*
X9056Y1450D02*
X9273D01*
X9250Y1427D02*
Y1644D01*
X9106Y1500D02*
X9323D01*
X9156Y1550D02*
X9373D01*
X9206Y1600D02*
X9423D01*
X8400Y1555D02*
Y1805D01*
X8419Y1850D02*
X9019D01*
X9256Y1650D02*
X9473D01*
X8434Y1900D02*
X9069D01*
X8442Y1950D02*
X9119D01*
X8445Y2000D02*
X9169D01*
X8442Y2050D02*
X9219D01*
X8419Y2150D02*
X9319D01*
X8434Y2100D02*
X9269D01*
X9300Y1477D02*
Y1694D01*
X9350Y1527D02*
Y1744D01*
X9400Y1577D02*
Y1794D01*
X9450Y1627D02*
Y1844D01*
X9500Y1677D02*
Y1894D01*
X9306Y1700D02*
X9523D01*
X9550Y1727D02*
Y1944D01*
X9356Y1750D02*
X9573D01*
X9406Y1800D02*
X9623D01*
X9600Y1777D02*
Y1994D01*
X9456Y1850D02*
X9673D01*
X9650Y1827D02*
Y2044D01*
X9700Y1877D02*
Y2094D01*
X9061Y1239D02*
X9923Y2100D01*
X9506Y1900D02*
X9723D01*
X9556Y1950D02*
X9773D01*
X9606Y2000D02*
X9823D01*
X9656Y2050D02*
X9873D01*
X9706Y2100D02*
X9923D01*
X9750Y1927D02*
Y2144D01*
X9800Y1977D02*
Y2194D01*
X9923Y2100D02*
X10082Y2100D01*
X9850Y2027D02*
Y2244D01*
X9900Y2077D02*
Y2294D01*
X9756Y2150D02*
X10082D01*
X9950Y2100D02*
Y2344D01*
X9806Y2200D02*
X10082D01*
X9856Y2250D02*
X10082D01*
X9906Y2300D02*
X10082D01*
X10350Y2100D02*
Y2378D01*
X10303Y2100D02*
Y2411D01*
X10400Y2100D02*
Y2363D01*
X10500Y2100D02*
Y2379D01*
X9956Y2350D02*
X10082D01*
X10000Y2100D02*
Y2394D01*
X10450Y2100D02*
Y2363D01*
X10006Y2400D02*
X10082D01*
X10303D02*
X10315D01*
X10700Y2100D02*
Y2393D01*
X10650Y2100D02*
Y2394D01*
X10950Y2100D02*
Y2378D01*
X10750Y2100D02*
Y2411D01*
X11100Y2100D02*
Y2379D01*
X10726Y2400D02*
X10915D01*
X10531D02*
X10628D01*
X11000Y2100D02*
Y2363D01*
X11050Y2100D02*
Y2363D01*
X11131Y2400D02*
X11228D01*
X7650Y2605D02*
Y2793D01*
X7600Y2555D02*
Y2827D01*
X7338Y2293D02*
X7787Y2742D01*
X7700Y2655D02*
Y2779D01*
X7750Y2705D02*
Y2781D01*
X7800Y2755D02*
Y2798D01*
X7803Y2800D02*
X7845D01*
X7850Y2805D02*
Y2840D01*
X7858Y2850D02*
X7895D01*
X7900Y2434D02*
Y2445D01*
X7885Y2430D02*
X7992Y2537D01*
X8150Y2419D02*
Y2695D01*
X8200Y2398D02*
Y2745D01*
X7950Y2442D02*
Y2495D01*
X8000Y2445D02*
Y2545D01*
X8050Y2442D02*
Y2595D01*
X7993Y2538D02*
X8202Y2747D01*
X8100Y2434D02*
Y2645D01*
X7350Y2305D02*
Y5398D01*
X7300Y2226D02*
Y5431D01*
X7450Y2405D02*
Y4700D01*
X7400Y2355D02*
Y4760D01*
X7550Y2505D02*
Y2930D01*
X7500Y2455D02*
Y4692D01*
X7788Y2743D02*
X7955Y2910D01*
X7550Y2966D02*
Y3032D01*
X7882Y2900D02*
X7945D01*
X7900Y2855D02*
Y4270D01*
X8245Y2850D02*
Y4275D01*
X7950Y2905D02*
Y4220D01*
X7889Y2950D02*
X7955D01*
X7881Y3000D02*
X7955D01*
Y2910D02*
Y4215D01*
X7905Y2450D02*
X9619D01*
X7955Y2500D02*
X9669D01*
X8005Y2550D02*
X9719D01*
X8055Y2600D02*
X9769D01*
X8105Y2650D02*
X9819D01*
X8155Y2700D02*
X9869D01*
X8205Y2750D02*
X9919D01*
X8236Y2800D02*
X9969D01*
X8450Y1555D02*
Y2811D01*
X8400Y2195D02*
Y2834D01*
X8500Y1555D02*
Y2809D01*
X8550Y1555D02*
Y2826D01*
X8600Y1555D02*
Y2874D01*
X8350Y2275D02*
Y2899D01*
X8245Y2900D02*
X8350D01*
X8245Y2850D02*
X8381D01*
X8581D02*
X9055D01*
X8612Y2900D02*
X8975D01*
X8300Y2329D02*
Y4322D01*
X8250Y2368D02*
Y4326D01*
X8245Y2950D02*
X8341D01*
X8350Y2997D02*
Y3094D01*
X8650Y1555D02*
Y3183D01*
X8700Y1555D02*
Y3340D01*
X8724Y1555D02*
X10179Y3010D01*
X8750Y1580D02*
Y3342D01*
X8800Y1630D02*
Y3359D01*
X8900Y1730D02*
Y2975D01*
X8850Y1680D02*
Y3055D01*
X8950Y1780D02*
Y2921D01*
X8621Y2950D02*
X8921D01*
X7867Y3032D02*
X7889D01*
X7549D02*
X7571D01*
X7889Y3050D02*
X7955D01*
X7889Y3100D02*
X7955D01*
X7889Y3300D02*
X7955D01*
X7889Y3350D02*
X7955D01*
X7889Y3150D02*
X7955D01*
X7889Y3250D02*
X7955D01*
X7889Y3200D02*
X7955D01*
X8245Y3000D02*
X8351D01*
X8245Y3100D02*
X8345D01*
X8245Y3050D02*
X8385D01*
X8245Y3200D02*
X8311D01*
X8245Y3250D02*
X8318D01*
X8245Y3150D02*
X8319D01*
X8245Y3350D02*
X8371D01*
X8245Y3300D02*
X8342D01*
X7549Y3032D02*
Y3372D01*
X7550D02*
Y4695D01*
X7549Y3372D02*
X7889D01*
X7600D02*
Y4690D01*
X7700Y3372D02*
Y4435D01*
X7650Y3372D02*
Y4665D01*
X7850Y3372D02*
Y4320D01*
X7750Y3372D02*
Y4397D01*
X7800Y3372D02*
Y4370D01*
X7889Y3032D02*
Y3372D01*
X8350Y3310D02*
Y4322D01*
X8371Y3332D02*
Y3394D01*
X8245Y3400D02*
X8371D01*
X8245Y3450D02*
X8387D01*
X8245Y3500D02*
X8432D01*
X8400Y3468D02*
Y4322D01*
X8450Y3518D02*
Y4322D01*
X8600Y3022D02*
Y3081D01*
X8611Y3000D02*
X8882D01*
X8577Y3050D02*
X8853D01*
X8600Y3323D02*
Y3346D01*
X8591Y3332D02*
Y3348D01*
X8617Y3100D02*
X8831D01*
X8644Y3250D02*
X8805D01*
X8650Y3221D02*
Y3340D01*
X8643Y3150D02*
X8816D01*
X8620Y3300D02*
X8808D01*
X8651Y3200D02*
X8808D01*
X8635Y3340D02*
X8730D01*
X8776Y3350D02*
X8816D01*
X8403Y3471D02*
X8477Y3545D01*
X8245Y3550D02*
X8482D01*
X8245Y3600D02*
X8531D01*
X8245Y3650D02*
X8522D01*
X8245Y3700D02*
X8525D01*
X8245Y3750D02*
X8549D01*
X8245Y3850D02*
X8637D01*
X8245Y3800D02*
X8590D01*
X8522Y3642D02*
Y3678D01*
X8500Y3563D02*
Y4322D01*
X8600Y3813D02*
Y4322D01*
X8550Y3751D02*
Y4322D01*
X8605Y3818D02*
X8642Y3855D01*
X9050Y1880D02*
Y2853D01*
X9000Y1830D02*
Y2882D01*
X8958Y1353D02*
X10082Y2477D01*
X9100Y1930D02*
Y2831D01*
X9200Y2030D02*
Y2808D01*
X9150Y1980D02*
Y2816D01*
X9250Y2080D02*
Y2805D01*
X9300Y2130D02*
Y2808D01*
X9350Y2180D02*
Y2816D01*
X9400Y2230D02*
Y2831D01*
X9450Y2280D02*
Y2852D01*
X10050Y2100D02*
Y2444D01*
X10082Y2100D02*
Y2477D01*
X9500Y2330D02*
Y2882D01*
X9550Y2380D02*
Y2921D01*
X10056Y2450D02*
X10082D01*
X9445Y2850D02*
X10019D01*
X9525Y2900D02*
X10069D01*
X9600Y2430D02*
Y2975D01*
X9650Y2480D02*
Y3055D01*
X9700Y2530D02*
Y3360D01*
X9674Y3386D02*
X10017Y3042D01*
X9692Y3200D02*
X9859D01*
X9695Y3250D02*
X9809D01*
X9647Y3050D02*
X10009D01*
X9669Y3100D02*
X9959D01*
X9684Y3150D02*
X9909D01*
X9800Y2630D02*
Y3260D01*
X9750Y2580D02*
Y3310D01*
X9950Y2780D02*
Y3110D01*
X9850Y2680D02*
Y3210D01*
X9900Y2730D02*
Y3160D01*
X10050Y2880D02*
Y3020D01*
X10000Y2830D02*
Y3060D01*
X10100Y2930D02*
Y3010D01*
X10550Y2100D02*
Y2418D01*
X10600Y2100D02*
Y2414D01*
X10791Y2450D02*
X10874D01*
X10758Y2645D02*
X10897D01*
X10800Y2100D02*
Y2464D01*
X10850Y2100D02*
Y2645D01*
X10900Y2100D02*
Y2414D01*
X11150Y2100D02*
Y2418D01*
X11200Y2100D02*
Y2414D01*
X10816Y2550D02*
X10854D01*
X10800Y2598D02*
Y2645D01*
X10814Y2500D02*
X10856D01*
X10799Y2600D02*
X10868D01*
X9579Y2950D02*
X10119D01*
X10150Y2980D02*
Y3010D01*
X9618Y3000D02*
X10169D01*
X10095Y3010D02*
X10179D01*
X10150Y3230D02*
Y3247D01*
X10123D02*
X10141Y3230D01*
X10612D01*
X10123Y3247D02*
X10612D01*
X10200Y3230D02*
Y3247D01*
X10300Y3230D02*
Y3247D01*
X10250Y3230D02*
Y3247D01*
X10450Y3230D02*
Y3247D01*
X10350Y3230D02*
Y3247D01*
X10400Y3230D02*
Y3247D01*
X10550Y3230D02*
Y3247D01*
X10500Y3230D02*
Y3247D01*
X11132Y3233D02*
X11178D01*
X10600Y3230D02*
Y3247D01*
X10612Y3230D02*
Y3247D01*
X9684Y3350D02*
X9710D01*
X9692Y3300D02*
X9759D01*
X10000Y3491D02*
Y3582D01*
X9891Y3600D02*
X9954D01*
X9950Y3541D02*
Y3603D01*
X10025Y3580D02*
X10065D01*
X10100Y3467D02*
Y3570D01*
X10050Y3467D02*
Y3580D01*
X10350Y3467D02*
Y3570D01*
X10150Y3467D02*
Y3570D01*
X10200Y3467D02*
Y3570D01*
X10250Y3467D02*
Y3570D01*
X10065D02*
Y3580D01*
X10300Y3467D02*
Y3570D01*
X10065D02*
X10355D01*
Y3580D01*
X9791Y3700D02*
X9849D01*
X9750Y3741D02*
Y3799D01*
X9635Y3855D02*
X10023Y3467D01*
X9227Y4322D02*
X9929Y3620D01*
X9641Y3850D02*
X9699D01*
X9650Y3841D02*
Y3899D01*
X9741Y3750D02*
X9799D01*
X9691Y3800D02*
X9749D01*
X9700Y3791D02*
Y3849D01*
X9850Y3641D02*
Y3699D01*
X9800Y3691D02*
Y3749D01*
X9900Y3591D02*
Y3649D01*
X9841Y3650D02*
X9899D01*
X10071Y3860D02*
X10081Y3850D01*
X10100D02*
Y3860D01*
X10305Y3850D02*
X10355D01*
Y3860D01*
X10450Y3467D02*
Y3580D01*
X10400Y3467D02*
Y3580D01*
X10023Y3467D02*
X10612D01*
X10500D02*
Y3580D01*
X10355Y3580D02*
X10497D01*
X9991Y3500D02*
X10612D01*
X9941Y3550D02*
X10612D01*
X10550Y3467D02*
Y3591D01*
X10600Y3467D02*
Y3626D01*
X11132Y3500D02*
X11143D01*
X10612Y3467D02*
Y3572D01*
X11132Y3489D02*
Y3572D01*
X10612D02*
X10728D01*
X10568Y3600D02*
X10728D01*
X11132Y3550D02*
X11193D01*
X10623Y3650D02*
X10728D01*
X11018Y3572D02*
X11132D01*
X10650D02*
Y3676D01*
X10593Y3620D02*
X10696Y3722D01*
X10728Y3572D02*
Y3722D01*
X10700Y3572D02*
Y3722D01*
X10355Y3850D02*
X10442D01*
X10400D02*
Y6029D01*
X10673Y3700D02*
X10728D01*
X10442Y3850D02*
X10497Y3906D01*
X10696Y3722D02*
X10728D01*
X11018Y3572D02*
Y3722D01*
X11050Y3572D02*
Y3753D01*
X11200Y3557D02*
Y3753D01*
X11100Y3572D02*
Y3753D01*
X11150Y3507D02*
Y3753D01*
X11018Y3722D02*
Y3753D01*
X11018Y3722D02*
Y3753D01*
X11018D02*
X11218D01*
Y4122D01*
X11600Y2100D02*
Y2363D01*
X11550Y2100D02*
Y2378D01*
X11650Y2100D02*
Y2363D01*
X11900Y2100D02*
Y2393D01*
X11300Y2100D02*
Y2393D01*
X11250Y2100D02*
Y2394D01*
X11700Y2100D02*
Y2379D01*
X11326Y2400D02*
X11515D01*
X11850Y2100D02*
Y2394D01*
X12200Y2100D02*
Y2363D01*
X12150Y2100D02*
Y2378D01*
X12250Y2100D02*
Y2363D01*
X12300Y2100D02*
Y2379D01*
X12331Y2400D02*
X12428D01*
X11926D02*
X12115D01*
X12500Y2100D02*
Y2393D01*
X12450Y2100D02*
Y2394D01*
X12550Y2100D02*
Y2411D01*
X11400Y2100D02*
Y2464D01*
X11450Y2100D02*
Y2573D01*
X11800Y2100D02*
Y2414D01*
X11750Y2100D02*
Y2418D01*
X11350Y2100D02*
Y2411D01*
X11500Y2100D02*
Y2414D01*
X11950Y2100D02*
Y2411D01*
X12000Y2100D02*
Y2464D01*
X12100Y2100D02*
Y2414D01*
X12050Y2100D02*
Y2570D01*
X12350Y2100D02*
Y2418D01*
X12400Y2100D02*
Y2414D01*
X12650Y2100D02*
Y2413D01*
X12600Y2100D02*
Y2458D01*
X10303Y2100D02*
X12734Y2100D01*
X10303Y2150D02*
X12771D01*
X12850Y2193D02*
Y2338D01*
X10303Y2300D02*
X12888D01*
X10303Y2350D02*
X12838D01*
X10303Y2200D02*
X12988D01*
X10303Y2250D02*
X12938D01*
X12900Y2197D02*
Y2288D01*
X13017Y2142D02*
Y2171D01*
X13000Y2155D02*
Y2188D01*
X14655Y2100D02*
X17950Y2100D01*
X13005Y2150D02*
X13017D01*
X14655D02*
X17950D01*
X14655Y2200D02*
X17950D01*
X12950Y2185D02*
Y2238D01*
X14655Y2250D02*
X17950D01*
X14655Y2350D02*
X17950D01*
X14655Y2300D02*
X17950D01*
X12700Y2100D02*
Y2398D01*
X12750Y2126D02*
Y2403D01*
X12800Y2172D02*
Y2388D01*
X12781Y2408D02*
X13017Y2171D01*
X12526Y2400D02*
X12687D01*
X13160Y2382D02*
Y2445D01*
X12962Y2580D02*
X13160Y2382D01*
X13150Y2392D02*
Y2580D01*
X14700Y2100D02*
Y2414D01*
X14655Y2100D02*
Y2505D01*
X14800Y2100D02*
Y2363D01*
X14750Y2100D02*
Y2378D01*
X14950Y2100D02*
Y2418D01*
X14850Y2100D02*
Y2363D01*
X14655Y2400D02*
X14715D01*
X14900Y2100D02*
Y2379D01*
X11391Y2450D02*
X11474D01*
X11731Y2400D02*
X11828D01*
X11416Y2550D02*
X11454D01*
X11991Y2450D02*
X12074D01*
X11414Y2500D02*
X11456D01*
X12763Y2408D02*
X12781D01*
X13142Y2400D02*
X13160D01*
X12738D02*
X12788D01*
X12016Y2550D02*
X12054D01*
X12591Y2450D02*
X12606D01*
X12011Y2570D02*
X12058D01*
X12014Y2500D02*
X12056D01*
X11411Y2573D02*
X11458D01*
X11638Y3008D02*
X11902D01*
X11638D02*
X11721Y3090D01*
X11650Y3008D02*
Y3019D01*
X11700Y3008D02*
Y3069D01*
X11681Y3050D02*
X11944D01*
X11721Y3090D02*
X11987D01*
X11750Y3008D02*
Y3090D01*
X11902Y3008D02*
X11972Y3078D01*
X11900Y3008D02*
Y3090D01*
X13100Y2442D02*
Y2580D01*
X13000Y2542D02*
Y2580D01*
X13050Y2492D02*
Y2580D01*
X11850Y3008D02*
Y3090D01*
X11800Y3008D02*
Y3090D01*
X11950Y3055D02*
Y3090D01*
X13092Y2450D02*
X13160D01*
X13042Y2500D02*
X13175D01*
X12992Y2550D02*
X13220D01*
X13200Y2529D02*
Y2580D01*
X13192Y2521D02*
X13250Y2580D01*
X12962D02*
X13250D01*
X14132Y2700D02*
X14147D01*
X14655Y2600D02*
X14668D01*
X14655Y2557D02*
Y2662D01*
X14931Y2400D02*
X15028D01*
X14655Y2450D02*
X14674D01*
X14655Y2650D02*
X14702D01*
X14693Y2700D02*
X14716D01*
X14944Y2650D02*
X15003D01*
X14930Y2700D02*
X15273D01*
X14132Y2750D02*
X14197D01*
X14132Y2800D02*
X14247D01*
X14132Y2850D02*
X14297D01*
X14132Y2900D02*
X14347D01*
X14132Y2950D02*
X14397D01*
X12738Y3110D02*
X13227D01*
X14132Y3000D02*
X14447D01*
X14132Y3100D02*
X14547D01*
X14132Y3050D02*
X14497D01*
X14700Y2648D02*
Y2707D01*
X14655Y2662D02*
X14716Y2722D01*
Y2663D02*
Y2722D01*
X14930Y2663D02*
Y2863D01*
X14950Y2644D02*
Y2883D01*
X14967Y2900D02*
X15073D01*
X14930Y2863D02*
X15020Y2953D01*
X14930Y2750D02*
X15223D01*
X14930Y2850D02*
X15123D01*
X14930Y2800D02*
X15173D01*
X15100Y2100D02*
Y2393D01*
X15050Y2100D02*
Y2394D01*
X15400Y2100D02*
Y2363D01*
X15350Y2100D02*
Y2378D01*
X15450Y2100D02*
Y2363D01*
X15126Y2400D02*
X15315D01*
X15500Y2100D02*
Y2379D01*
X15531Y2400D02*
X15628D01*
X15650Y2100D02*
Y2394D01*
X15950Y2100D02*
Y2378D01*
X15700Y2100D02*
Y2393D01*
X16000Y2100D02*
Y2363D01*
X16050Y2100D02*
Y2363D01*
X16100Y2100D02*
Y2379D01*
X15726Y2400D02*
X15915D01*
X16300Y2100D02*
Y2393D01*
X16131Y2400D02*
X16228D01*
X16250Y2100D02*
Y2394D01*
X15150Y2100D02*
Y2411D01*
X15000Y2100D02*
Y2414D01*
X15200Y2100D02*
Y2464D01*
X15250Y2100D02*
Y2723D01*
X15300Y2100D02*
Y2414D01*
X15550Y2100D02*
Y2418D01*
X15750Y2100D02*
Y2411D01*
X15600Y2100D02*
Y2414D01*
X15900Y2100D02*
Y2414D01*
X15800Y2100D02*
Y2464D01*
X15850Y2100D02*
Y2556D01*
X16150Y2100D02*
Y2418D01*
X16200Y2100D02*
Y2414D01*
X16350Y2100D02*
Y2411D01*
X16400Y2100D02*
Y2464D01*
X16550Y2100D02*
Y2374D01*
X16500Y2100D02*
Y2411D01*
X16326Y2400D02*
X16511D01*
X16600Y2100D02*
Y2358D01*
X16650Y2100D02*
Y2358D01*
X16700Y2100D02*
Y2374D01*
X16850Y2100D02*
Y2389D01*
X16800Y2100D02*
Y2410D01*
X16900Y2100D02*
Y2388D01*
X16950Y2100D02*
Y2406D01*
X17000Y2100D02*
Y2457D01*
X16738Y2400D02*
X16818D01*
X16750Y2100D02*
Y2412D01*
X16938Y2400D02*
X17950D01*
X16450Y2100D02*
Y2549D01*
X17100Y2100D02*
Y3055D01*
X17200Y2100D02*
Y2921D01*
X17150Y2100D02*
Y2975D01*
X17250Y2100D02*
Y2882D01*
X17400Y2100D02*
Y2816D01*
X17300Y2100D02*
Y2853D01*
X17350Y2100D02*
Y2831D01*
X17700Y2100D02*
Y2852D01*
X17750Y2100D02*
Y2882D01*
X17800Y2100D02*
Y2921D01*
X17850Y2100D02*
Y2975D01*
X17900Y2100D02*
Y3055D01*
X17500Y2100D02*
Y2805D01*
X17450Y2100D02*
Y2808D01*
X17550Y2100D02*
Y2808D01*
X17600Y2100D02*
Y2816D01*
X17650Y2100D02*
Y2831D01*
X15191Y2450D02*
X15274D01*
X15214Y2500D02*
X15256D01*
X15216Y2550D02*
X15254D01*
X15199Y2600D02*
X15268D01*
X15549Y2645D02*
X15596D01*
X15791Y2450D02*
X15874D01*
X15814Y2500D02*
X15856D01*
X15760Y2645D02*
X15769Y2637D01*
X15816Y2550D02*
X15854D01*
X15783Y2623D02*
X15854Y2551D01*
X16144Y2650D02*
X16203D01*
X15200Y2598D02*
Y2773D01*
X15000Y2648D02*
Y2933D01*
X15300Y2648D02*
Y2673D01*
X15100Y2669D02*
Y2873D01*
X15050Y2668D02*
Y2923D01*
X15151Y2650D02*
X15302D01*
X15020Y2953D02*
X15313Y2660D01*
X15150Y2651D02*
Y2823D01*
X16150Y2644D02*
Y2738D01*
X16100Y2683D02*
Y2738D01*
X16200Y2648D02*
Y2738D01*
X16250Y2668D02*
Y2738D01*
X15972D02*
X16009Y2700D01*
X16000Y2710D02*
Y2738D01*
X16042Y2700D02*
X16299D01*
X15972Y2738D02*
X16261D01*
X16050Y2699D02*
Y2738D01*
X16391Y2450D02*
X16472D01*
X16414Y2500D02*
X16456D01*
X16300Y2669D02*
Y2699D01*
X16416Y2550D02*
X16449D01*
X16399Y2600D02*
X16455Y2544D01*
X16603Y2700D02*
X17950D01*
X16996Y2450D02*
X17950D01*
X17016Y2500D02*
X17950D01*
X16741Y2650D02*
X16812D01*
X17016Y2550D02*
X17950D01*
X16944Y2650D02*
X17950D01*
X16997Y2600D02*
X17950D01*
X16261Y2738D02*
X16346Y2653D01*
X16382Y2921D02*
X16607Y2696D01*
X15582Y2952D02*
X16306D01*
X15435Y3100D02*
X17081D01*
X16329Y2950D02*
X17171D01*
X15485Y3050D02*
X17103D01*
X15535Y3000D02*
X17132D01*
X16453Y2850D02*
X17305D01*
X16403Y2900D02*
X17225D01*
X16553Y2750D02*
X17950D01*
X16503Y2800D02*
X17950D01*
X17695Y2850D02*
X17950D01*
X17897Y3050D02*
X17950D01*
X17919Y3100D02*
X17950D01*
X17775Y2900D02*
X17950D01*
X17829Y2950D02*
X17950D01*
X17868Y3000D02*
X17950D01*
X11250Y3230D02*
Y3256D01*
X11300Y3230D02*
Y3303D01*
X11132Y3230D02*
X11307D01*
X11509Y3433D01*
X11241Y3250D02*
X11327D01*
X11266Y3269D02*
X11449Y3453D01*
X11297Y3300D02*
X11377D01*
X11350Y3273D02*
Y3353D01*
X11400Y3323D02*
Y3403D01*
X11347Y3350D02*
X11427D01*
X11397Y3400D02*
X11477D01*
X11447Y3450D02*
X11493D01*
Y3433D02*
Y3453D01*
Y3433D02*
X11509D01*
X11449Y3453D02*
X11493D01*
X11500Y3423D02*
Y3433D01*
X11018Y3600D02*
X11243D01*
X11250Y3607D02*
Y6950D01*
X11018Y3650D02*
X11293D01*
X11132Y3489D02*
X11309Y3666D01*
X11350Y3693D02*
Y4058D01*
X11300Y3657D02*
Y6950D01*
X11018Y3700D02*
X11372D01*
X11450Y3703D02*
Y3967D01*
X11400Y3703D02*
Y3994D01*
X11450Y3373D02*
Y3453D01*
X11397Y3703D02*
X11493D01*
Y3722D01*
X11782Y3703D02*
Y3722D01*
X11800Y3703D02*
Y6203D01*
X11950Y3703D02*
Y6203D01*
X11850Y3703D02*
Y6203D01*
X11900Y3703D02*
Y6203D01*
X12750Y3110D02*
Y3119D01*
X12800Y3110D02*
Y3169D01*
X12850Y3110D02*
Y3219D01*
X12900Y3110D02*
Y3269D01*
X12781Y3150D02*
X13267D01*
X12831Y3200D02*
X13317D01*
X12881Y3250D02*
X13367D01*
X12950Y3110D02*
Y3319D01*
X13000Y3110D02*
Y3369D01*
X13227Y3110D02*
X13368Y3251D01*
X13050Y3110D02*
Y3419D01*
X13100Y3110D02*
Y3469D01*
X13031Y3400D02*
X13368D01*
X13081Y3450D02*
X13368D01*
X12931Y3300D02*
X13368D01*
X12981Y3350D02*
X13368D01*
Y3251D02*
Y3475D01*
X12407Y3703D02*
Y3722D01*
X12450Y3703D02*
Y4208D01*
X12407Y3703D02*
X12541D01*
X12500D02*
Y3829D01*
X12050Y3703D02*
Y6203D01*
X12000Y3703D02*
Y6208D01*
X11782Y3703D02*
X12118D01*
X12100D02*
Y6213D01*
X12118Y3703D02*
Y3722D01*
X13150Y3110D02*
Y3519D01*
X12753Y3122D02*
X13166Y3535D01*
X13300Y3183D02*
Y3506D01*
X13200Y3110D02*
Y3535D01*
X13250Y3133D02*
Y3535D01*
X13166D02*
X13279D01*
X12541Y3703D02*
X12608Y3770D01*
X13350Y3233D02*
Y3478D01*
X13131Y3500D02*
X13306D01*
X11493Y3722D02*
X11537D01*
X11750D02*
Y3753D01*
X11738Y3722D02*
X11782D01*
X12150D02*
Y3754D01*
X11018Y3750D02*
X11526D01*
X12118Y3722D02*
X12162D01*
X11749Y3750D02*
X12151D01*
X12363Y3722D02*
X12407D01*
X12374Y3750D02*
X12588D01*
X13200Y3755D02*
Y3767D01*
X13145Y3755D02*
Y3767D01*
X13150Y3755D02*
Y3767D01*
X12582Y3770D02*
X12608D01*
X12600Y3762D02*
Y3770D01*
X11500Y3722D02*
Y3958D01*
X11218Y3800D02*
X11525D01*
X11218Y3850D02*
X11548D01*
X11750Y3800D02*
X12150D01*
X11727Y3850D02*
X12173D01*
X11750Y3802D02*
Y6203D01*
X12550Y3712D02*
Y3776D01*
X12400Y3722D02*
Y4154D01*
X12150Y3801D02*
Y4208D01*
X12375Y3800D02*
X12517D01*
X12352Y3850D02*
X12495D01*
X13145Y3767D02*
X13212D01*
X13250Y3755D02*
Y3774D01*
X13145Y3755D02*
X13276D01*
X13289Y3800D02*
X13312D01*
X13300Y3789D02*
Y3812D01*
X13350Y3817D02*
Y4543D01*
X13400Y3817D02*
Y4593D01*
X13450Y3817D02*
Y4643D01*
X13550Y3817D02*
Y4683D01*
X13500Y3817D02*
Y4683D01*
X13317Y3850D02*
X14183D01*
X13600Y3817D02*
Y4683D01*
X13650Y3817D02*
Y4152D01*
X13750Y3817D02*
Y4110D01*
X13700Y3817D02*
Y4119D01*
X13800Y3817D02*
Y4119D01*
X14100Y3817D02*
Y4488D01*
X13850Y3817D02*
Y4152D01*
X13900Y3817D02*
Y4683D01*
X14050Y3817D02*
Y4683D01*
X13950Y3817D02*
Y4683D01*
X14000Y3817D02*
Y4683D01*
X14200Y2753D02*
Y3126D01*
X14150Y2703D02*
Y3179D01*
X14250Y2803D02*
Y3120D01*
X14132Y2686D02*
X14596Y3149D01*
X14132Y3150D02*
X14167D01*
X14132Y3200D02*
X14145D01*
X14232Y3120D02*
X14318D01*
X14300Y2853D02*
Y3120D01*
X14350Y2903D02*
Y3126D01*
X14400Y2953D02*
Y3178D01*
X14550Y3103D02*
Y3193D01*
X14383Y3150D02*
X14593D01*
X14405Y3200D02*
X14546D01*
X14145Y3208D02*
Y3253D01*
X14132Y2686D02*
Y3336D01*
X14500Y3053D02*
Y3308D01*
X14450Y3003D02*
Y3308D01*
X14132Y3250D02*
X14145D01*
X14405D02*
X14535D01*
X14405Y3208D02*
Y3253D01*
X15400Y3135D02*
Y5350D01*
X15450Y3085D02*
Y5400D01*
X15265Y3270D02*
X15582Y2952D01*
X15500Y3035D02*
Y5450D01*
X15550Y2985D02*
Y5500D01*
X15265Y3270D02*
Y3874D01*
X15300Y3235D02*
Y5250D01*
X15350Y3185D02*
Y5300D01*
X15700Y2952D02*
Y5650D01*
X15750Y2952D02*
Y5700D01*
X15800Y2952D02*
Y5750D01*
X15850Y2952D02*
Y5800D01*
X15600Y2952D02*
Y5550D01*
X15650Y2952D02*
Y5600D01*
X15385Y3150D02*
X17066D01*
X15285Y3250D02*
X17055D01*
X15335Y3200D02*
X17058D01*
X15900Y2952D02*
Y5850D01*
X16000Y2952D02*
Y5953D01*
X16050Y2952D02*
Y6274D01*
X16350Y2943D02*
Y6950D01*
X15950Y2952D02*
Y5900D01*
X16250Y2952D02*
Y6950D01*
X17934Y3150D02*
X17950D01*
X16300Y2952D02*
Y6950D01*
X17942Y3200D02*
X17950D01*
X16550Y2753D02*
Y6950D01*
X16500Y2803D02*
Y6950D01*
X16650Y2694D02*
Y6950D01*
X16600Y2703D02*
Y6950D01*
X16150Y2952D02*
Y6950D01*
X16100Y2952D02*
Y6950D01*
X16450Y2853D02*
Y6950D01*
X16200Y2952D02*
Y6950D01*
X16400Y2903D02*
Y6950D01*
X17000Y2596D02*
Y6950D01*
X16750Y2641D02*
Y6950D01*
X17950Y2100D02*
Y6950D01*
X17050Y2100D02*
Y6950D01*
X17950Y2100D02*
Y6950D01*
X16800Y2642D02*
Y6950D01*
X16700Y2679D02*
Y6950D01*
X16950Y2647D02*
Y6950D01*
X16850Y2663D02*
Y6950D01*
X16900Y2665D02*
Y6950D01*
X14132Y3300D02*
X14159D01*
X14150Y3281D02*
Y3314D01*
X14232Y3592D02*
X14265Y3560D01*
X14318D01*
X14232Y3592D02*
Y3647D01*
X14232Y3600D02*
X14677D01*
X14232Y3700D02*
X14656D01*
X14232Y3650D02*
X14677D01*
X14393Y3308D02*
X14505D01*
X14400Y3282D02*
Y3308D01*
X14391Y3300D02*
X14546D01*
X14505Y3308D02*
X14550D01*
X14505Y3305D02*
X14549D01*
X14370Y3547D02*
X14505D01*
X14365Y3550D02*
X14505D01*
Y3547D02*
Y3595D01*
X14677D02*
Y3679D01*
X14232Y3592D02*
Y3712D01*
X14250Y3575D02*
Y3774D01*
X14226Y3750D02*
X14606D01*
X14300Y3560D02*
Y3767D01*
X14200Y3790D02*
Y3813D01*
X14150Y3817D02*
Y4439D01*
X14288Y3767D02*
X14418D01*
X14188Y3800D02*
X14211D01*
X14400Y3547D02*
Y3767D01*
X14350Y3555D02*
Y3767D01*
X14650Y3595D02*
Y3706D01*
X14450Y3547D02*
Y3767D01*
X14500Y3547D02*
Y3767D01*
X14550Y3595D02*
Y3767D01*
X14352D02*
X14418D01*
X14600Y3595D02*
Y3756D01*
X14418Y3767D02*
X14589D01*
X14677Y3679D01*
X15265Y3300D02*
X17058D01*
X15265Y3350D02*
X17066D01*
X15265Y3400D02*
X17081D01*
X15265Y3450D02*
X17102D01*
X15265Y3500D02*
X17132D01*
X14505Y3595D02*
X14677D01*
X15265Y3550D02*
X17171D01*
X15265Y3700D02*
X17950D01*
X15265Y3650D02*
X17305D01*
X17898Y3450D02*
X17950D01*
X17868Y3500D02*
X17950D01*
X17942Y3300D02*
X17950D01*
X17919Y3400D02*
X17950D01*
X17934Y3350D02*
X17950D01*
X17829Y3550D02*
X17950D01*
X15265Y3600D02*
X17225D01*
X17775D02*
X17950D01*
X15265Y3750D02*
X17950D01*
X17695Y3650D02*
X17950D01*
X17150Y3525D02*
Y6225D01*
X17100Y3445D02*
Y6305D01*
X17250Y3618D02*
Y6132D01*
X17200Y3579D02*
Y6171D01*
X17350Y3669D02*
Y4575D01*
X17300Y3647D02*
Y4575D01*
X15265Y3800D02*
X17950D01*
X15265Y3850D02*
X17950D01*
X17400Y3684D02*
Y4575D01*
X17750Y3618D02*
Y4575D01*
X17700Y3648D02*
Y4575D01*
X17800Y3579D02*
Y4575D01*
X17850Y3525D02*
Y4575D01*
X17900Y3445D02*
Y6305D01*
X17500Y3695D02*
Y4575D01*
X17450Y3692D02*
Y4575D01*
X17650Y3669D02*
Y4575D01*
X17550Y3692D02*
Y4575D01*
X17600Y3684D02*
Y4575D01*
X7675Y4662D02*
X7698D01*
X7785Y4385D02*
X7955Y4215D01*
X7485Y4692D02*
X7530D01*
X7565Y4700D02*
X7589D01*
X7986Y4617D02*
Y4719D01*
X7950Y4665D02*
Y4723D01*
X7963Y4650D02*
X7986D01*
X7905Y4700D02*
X7986D01*
X7900Y4703D02*
Y4724D01*
X7903Y4727D02*
X7915Y4739D01*
X7397Y4780D02*
Y4865D01*
X7400Y4885D02*
Y5395D01*
X7450Y4945D02*
Y5397D01*
X7485Y4953D02*
X7530D01*
X7500D02*
Y5425D01*
X7551Y4950D02*
X7594D01*
X7600Y4955D02*
Y5389D01*
X7767Y4973D02*
X7783Y4989D01*
X7700Y4983D02*
Y5365D01*
X7650Y4980D02*
Y5367D01*
X7675Y4983D02*
X7720D01*
X7750Y4979D02*
Y5326D01*
X8245Y4150D02*
X9399D01*
X8245Y4200D02*
X9349D01*
X8243Y4300D02*
X9249D01*
X8245Y4050D02*
X9499D01*
X8245Y4100D02*
X9449D01*
X8245Y3900D02*
X9649D01*
X8245Y4000D02*
X9549D01*
X8245Y3950D02*
X9599D01*
X8328Y4600D02*
X8756D01*
X8278Y4650D02*
X8665D01*
X8245Y4250D02*
X9299D01*
X8280Y4322D02*
X9227D01*
X8336Y4592D02*
X8781D01*
X8300Y4629D02*
Y4726D01*
X8256Y4673D02*
X8336Y4592D01*
X8350D02*
Y4757D01*
X8256Y4673D02*
Y4719D01*
Y4700D02*
X8614D01*
X8342Y4750D02*
X8581D01*
X8400Y4592D02*
Y5612D01*
X8450Y4592D02*
Y5662D01*
X8380Y4800D02*
X8560D01*
X8500Y4592D02*
Y5712D01*
X8391Y4853D02*
Y4933D01*
X8544Y4897D02*
Y5397D01*
X8391Y4850D02*
X8548D01*
X8390Y4950D02*
X8544D01*
X8391Y4900D02*
X8544D01*
X7374Y5395D02*
X7431D01*
X7674Y5365D02*
X7711D01*
X7461Y5400D02*
X7588D01*
X7517Y5450D02*
X7556D01*
X7525Y5500D02*
X7550D01*
X7850Y5025D02*
Y5277D01*
X7800Y5003D02*
Y5287D01*
X7879Y5028D02*
X7890D01*
X7711Y5365D02*
X7763Y5313D01*
X7900Y5038D02*
Y5257D01*
X7851Y5276D02*
X7881D01*
X7280Y5489D02*
Y5611D01*
X7374Y5705D02*
X7431D01*
X7517Y5650D02*
X7556D01*
X7462Y5700D02*
X7587D01*
X7550Y5489D02*
Y5611D01*
X7525Y5489D02*
Y5611D01*
Y5550D02*
X7550D01*
X7855Y5574D02*
X7891Y5538D01*
X7879Y5550D02*
X7905D01*
X7525Y5600D02*
X7550D01*
X7855Y5574D02*
Y5611D01*
X7674Y5735D02*
X7731D01*
X7950Y5064D02*
Y5231D01*
X7986Y5069D02*
X8256D01*
X8000D02*
Y5226D01*
X8050Y5069D02*
Y5226D01*
X7986D02*
X8256D01*
X8100Y5069D02*
Y5226D01*
X8150Y5069D02*
Y5226D01*
X8250Y5069D02*
Y5226D01*
X8300Y5061D02*
Y5234D01*
X8373Y5000D02*
X8544D01*
X8324Y5050D02*
X8544D01*
X8350Y5030D02*
Y5265D01*
X8200Y5069D02*
Y5226D01*
X8332Y5250D02*
X8544D01*
X8376Y5300D02*
X8544D01*
X8390Y5350D02*
X8544D01*
X8350Y5538D02*
Y5562D01*
X8337Y5550D02*
X8584D01*
X7855Y5600D02*
X7989D01*
X7818Y5700D02*
X8077D01*
X7849Y5650D02*
X8027D01*
X8391Y5400D02*
X8544D01*
X8391Y5362D02*
Y5442D01*
X8390Y5450D02*
X8549D01*
X8550Y5456D02*
Y5745D01*
X8377Y5500D02*
X8561D01*
X8387Y5600D02*
X8618D01*
X8437Y5650D02*
X8671D01*
X8487Y5700D02*
X8771D01*
X8533Y5745D02*
X8845D01*
X9500Y3888D02*
Y4049D01*
X9450Y3888D02*
Y4099D01*
X8720Y3888D02*
X9557D01*
X9550D02*
Y3999D01*
X9600Y3879D02*
Y3949D01*
X10100Y3860D02*
Y3882D01*
X10031Y3900D02*
X10096D01*
X10081Y3850D02*
X10115D01*
X10071Y3860D02*
X10109D01*
X9981Y3950D02*
X10100D01*
X9931Y4000D02*
X10132D01*
X8700Y3886D02*
Y4322D01*
X8650Y3862D02*
Y4322D01*
X8800Y3888D02*
Y4322D01*
X8750Y3888D02*
Y4322D01*
X8900Y3888D02*
Y4322D01*
X8850Y3888D02*
Y4322D01*
X9050Y3888D02*
Y4322D01*
X8950Y3888D02*
Y4322D01*
X9000Y3888D02*
Y4322D01*
X9150Y3888D02*
Y4322D01*
X9100Y3888D02*
Y4322D01*
X9250Y3888D02*
Y4299D01*
X9200Y3888D02*
Y4322D01*
X9378Y4553D02*
X10071Y3860D01*
X9350Y3888D02*
Y4199D01*
X9300Y3888D02*
Y4249D01*
X9400Y3888D02*
Y4149D01*
X9700Y4231D02*
Y4694D01*
X9750Y4181D02*
Y4776D01*
X10311Y3860D02*
X10355D01*
X10350Y3850D02*
Y3860D01*
X10324Y3900D02*
X10492D01*
X10320Y3950D02*
X10497D01*
X10288Y4000D02*
X10497D01*
X9831Y4100D02*
X10497D01*
X9881Y4050D02*
X10497D01*
X11550Y3852D02*
Y3964D01*
X11600Y3886D02*
Y3987D01*
X11650Y3892D02*
Y4039D01*
X12300Y3886D02*
Y4122D01*
X11018Y4122D02*
X11218D01*
Y4000D02*
X11393D01*
X11218Y4100D02*
X11337D01*
X11218Y4050D02*
X11354D01*
X9781Y4150D02*
X10497D01*
Y3906D02*
Y4153D01*
X11018Y4150D02*
X11336D01*
X11018Y4122D02*
Y4153D01*
X10728D02*
X10788D01*
X10497Y4153D02*
X10788D01*
Y4153D02*
X11018D01*
X9681Y4250D02*
X11387D01*
X9731Y4200D02*
X11351D01*
X12350Y3852D02*
Y4130D01*
X12200Y3874D02*
Y4154D01*
X12250Y3892D02*
Y4130D01*
X11650Y4217D02*
Y4293D01*
X11350Y4198D02*
Y4312D01*
X11674Y4150D02*
X12206D01*
X11623Y4250D02*
X12132D01*
X11659Y4200D02*
X12155D01*
X9350Y4574D02*
Y4583D01*
X9400Y4531D02*
Y4583D01*
X8650Y4592D02*
Y4662D01*
X8600Y4592D02*
Y4719D01*
X9333Y4583D02*
X9459D01*
X8700Y4592D02*
Y4626D01*
X8750Y4592D02*
Y4602D01*
X9550Y4381D02*
Y4596D01*
X9600Y4331D02*
Y4616D01*
X9581Y4350D02*
X11338D01*
X9531Y4400D02*
X11336D01*
X9650Y4281D02*
Y4647D01*
X9450Y4481D02*
Y4583D01*
X9500Y4431D02*
Y4585D01*
X9481Y4450D02*
X11349D01*
X9738Y4750D02*
X11335D01*
X11350Y4452D02*
Y4720D01*
X8550Y4592D02*
Y4839D01*
X8650Y5633D02*
Y5745D01*
X8600Y5576D02*
Y5745D01*
X8859Y5712D02*
X9459D01*
X8700Y5669D02*
Y5745D01*
X8750Y5693D02*
Y5745D01*
X9774Y4897D02*
Y5397D01*
X9759Y4800D02*
X11335D01*
X9771Y4850D02*
X11335D01*
Y4720D02*
Y5060D01*
X9774Y5050D02*
X11335D01*
X9774Y4900D02*
X11335D01*
X9774Y5000D02*
X11335D01*
X9774Y4950D02*
X11335D01*
X9631Y4300D02*
X11356D01*
X9431Y4500D02*
X11383D01*
X11400Y4516D02*
Y4543D01*
X9381Y4550D02*
X11395D01*
X9563Y4600D02*
X11370D01*
X11654Y4300D02*
X12126D01*
X11672Y4350D02*
X12135D01*
X11674Y4400D02*
X12161D01*
X11661Y4450D02*
X12219D01*
X11600Y4523D02*
Y4533D01*
X12300Y4470D02*
Y4630D01*
X12250Y4462D02*
Y4638D01*
X12350Y4462D02*
Y4638D01*
X9654Y4650D02*
X11366D01*
X11644D02*
X12220D01*
X9705Y4700D02*
X11380D01*
X11335Y4720D02*
X11393D01*
X11630Y4700D02*
X12161D01*
X11335Y5060D02*
X11675D01*
X11617Y4720D02*
X11675D01*
X11650Y4471D02*
Y4720D01*
X11675D02*
Y5060D01*
X12400Y4438D02*
Y4662D01*
X12150Y4384D02*
Y4716D01*
X12200Y4438D02*
Y4662D01*
X11675Y4800D02*
X12126D01*
X11675Y4850D02*
X12132D01*
X11675Y4750D02*
X12135D01*
X11675Y4950D02*
X12206D01*
X11675Y4900D02*
X12155D01*
X7450Y5703D02*
Y6083D01*
X7400Y5705D02*
Y6174D01*
X7550Y4950D02*
Y6020D01*
X7500Y5675D02*
Y6042D01*
X7600Y5711D02*
Y6011D01*
X7650Y5733D02*
Y6014D01*
X7700Y5735D02*
Y6029D01*
X7737Y6050D02*
X8388D01*
X7750Y5734D02*
Y6059D01*
X8350Y5972D02*
Y6083D01*
X7800Y5714D02*
Y6116D01*
X8337Y5549D02*
X8533Y5745D01*
X8018Y5641D02*
X8370Y5992D01*
X7789Y6100D02*
X8336D01*
X7817Y6150D02*
X8308D01*
X8400Y6016D02*
Y6042D01*
X7350Y5702D02*
Y6544D01*
X7300Y5669D02*
Y6544D01*
X7850Y5646D02*
Y6544D01*
X7800Y6346D02*
Y6544D01*
X7400Y6288D02*
Y6544D01*
X7830Y6200D02*
X8295D01*
X7821Y6300D02*
X8304D01*
X7832Y6250D02*
X8293D01*
X7950Y5572D02*
Y6544D01*
X7900Y5546D02*
Y6544D01*
X8100Y5722D02*
Y6544D01*
X8000Y5618D02*
Y6544D01*
X8050Y5672D02*
Y6544D01*
X8200Y5822D02*
Y6544D01*
X8150Y5772D02*
Y6544D01*
X8300Y5922D02*
Y6174D01*
X8250Y5872D02*
Y6544D01*
X8300Y6288D02*
Y6544D01*
X8800Y5707D02*
Y5745D01*
X8850Y5712D02*
Y5745D01*
X8900Y5712D02*
Y5756D01*
X8612Y6035D02*
X8785D01*
X8650D02*
Y6059D01*
X8637Y6050D02*
X8800D01*
X8689Y6100D02*
X8850D01*
X8950Y5712D02*
Y5790D01*
X9000Y5712D02*
Y5840D01*
X9050Y5712D02*
Y5890D01*
X9100Y5712D02*
Y5940D01*
X9150Y5712D02*
Y5990D01*
X9200Y5712D02*
Y6040D01*
X8948Y5788D02*
X9246Y6086D01*
X9300Y5712D02*
Y6042D01*
X9210Y6050D02*
X9288D01*
X9250Y5712D02*
Y6083D01*
X8700Y6035D02*
Y6116D01*
X8785Y6035D02*
X9083Y6333D01*
X8717Y6150D02*
X8900D01*
X8750Y6035D02*
Y6544D01*
X8730Y6200D02*
X8950D01*
X8721Y6300D02*
X9050D01*
X8732Y6250D02*
X9000D01*
X8850Y6100D02*
Y6544D01*
X8800Y6050D02*
Y6544D01*
X8900Y6150D02*
Y6544D01*
X8950Y6200D02*
Y6544D01*
X9050Y6300D02*
Y6544D01*
X9000Y6250D02*
Y6544D01*
X7500Y6420D02*
Y6544D01*
X7450Y6379D02*
Y6544D01*
X7650Y6448D02*
Y6522D01*
X7550Y6442D02*
Y6528D01*
X7400Y6934D02*
Y6950D01*
X7300Y6934D02*
Y6950D01*
X7600Y6451D02*
Y6519D01*
X7700Y6941D02*
Y6950D01*
X7798Y6350D02*
X8327D01*
X7750Y6403D02*
Y6544D01*
X7753Y6400D02*
X8372D01*
X8350Y6379D02*
Y6544D01*
X7700Y6433D02*
Y6537D01*
X8400Y6420D02*
Y6544D01*
X8450Y6442D02*
Y6528D01*
X7714Y6934D02*
X8411D01*
X7714Y6544D02*
X8411D01*
X7800Y6934D02*
Y6950D01*
X7750Y6934D02*
Y6950D01*
X7900Y6934D02*
Y6950D01*
X7850Y6934D02*
Y6950D01*
X7450Y6934D02*
Y6950D01*
X7350Y6934D02*
Y6950D01*
X7500Y6934D02*
Y6950D01*
X8250Y6934D02*
Y6950D01*
X8200Y6934D02*
Y6950D01*
X8400Y6934D02*
Y6950D01*
X8300Y6934D02*
Y6950D01*
X8350Y6934D02*
Y6950D01*
X8000Y6934D02*
Y6950D01*
X7950Y6934D02*
Y6950D01*
X8150Y6934D02*
Y6950D01*
X8050Y6934D02*
Y6950D01*
X8100Y6934D02*
Y6950D01*
X7634Y6450D02*
X8491D01*
X8550Y6448D02*
Y6522D01*
X8534Y6450D02*
X9391D01*
X8600Y6433D02*
Y6537D01*
X8500Y6451D02*
Y6519D01*
X7675Y6950D02*
X8450D01*
X8575D02*
X9350D01*
X8614Y6934D02*
X9311D01*
X9100Y6348D02*
Y6544D01*
X8700Y6346D02*
Y6544D01*
X8698Y6350D02*
X9103D01*
X9150Y6371D02*
Y6544D01*
X9186Y6376D02*
X9247D01*
X9200D02*
Y6544D01*
X8650Y6403D02*
Y6544D01*
X8653Y6400D02*
X9272D01*
X8614Y6544D02*
X9311D01*
X9250Y6379D02*
Y6544D01*
X8800Y6934D02*
Y6950D01*
X8650Y6934D02*
Y6950D01*
X8600Y6941D02*
Y6950D01*
X7675D02*
X8450D01*
X8575D02*
X9350D01*
X8700Y6934D02*
Y6950D01*
X8750Y6934D02*
Y6950D01*
X9150Y6934D02*
Y6950D01*
X9100Y6934D02*
Y6950D01*
X9300Y6934D02*
Y6950D01*
X9200Y6934D02*
Y6950D01*
X9250Y6934D02*
Y6950D01*
X8900Y6934D02*
Y6950D01*
X8850Y6934D02*
Y6950D01*
X9050Y6934D02*
Y6950D01*
X8950Y6934D02*
Y6950D01*
X9000Y6934D02*
Y6950D01*
X9450Y5712D02*
Y6014D01*
X9500Y5710D02*
Y6029D01*
X9550Y5699D02*
Y6059D01*
X9600Y5679D02*
Y6116D01*
X9400Y5712D02*
Y6011D01*
X9350Y5712D02*
Y6020D01*
X9537Y6050D02*
X10188D01*
X9589Y6100D02*
X10136D01*
X9617Y6150D02*
X10108D01*
X10300Y3987D02*
Y6011D01*
X10100Y3948D02*
Y6174D01*
X10350Y3860D02*
Y6014D01*
X10450Y3858D02*
Y6059D01*
X10150Y4013D02*
Y6083D01*
X9630Y6200D02*
X10095D01*
X10250Y4023D02*
Y6020D01*
X10200Y4030D02*
Y6042D01*
X10500Y4153D02*
Y6116D01*
X9700Y5601D02*
Y6544D01*
X9650Y5648D02*
Y6544D01*
X9800Y4131D02*
Y6544D01*
X9750Y5519D02*
Y6544D01*
X9632Y6250D02*
X10093D01*
X9600Y6346D02*
Y6544D01*
X9621Y6300D02*
X10104D01*
X9553Y6400D02*
X10172D01*
X9598Y6350D02*
X10127D01*
X9900Y4031D02*
Y6544D01*
X9850Y4081D02*
Y6544D01*
X10050Y3881D02*
Y6544D01*
X9950Y3981D02*
Y6544D01*
X10000Y3931D02*
Y6544D01*
X10150Y6379D02*
Y6544D01*
X10100Y6288D02*
Y6544D01*
X10500Y6346D02*
Y6624D01*
X10550Y4153D02*
Y6950D01*
X11650Y5060D02*
Y6203D01*
X11618D02*
Y6543D01*
Y6203D02*
X11958D01*
X11700Y3874D02*
Y6203D01*
X10498Y6350D02*
X11618D01*
X10453Y6400D02*
X11618D01*
X11958Y6203D02*
Y6225D01*
X10521Y6300D02*
X11618D01*
X10532Y6250D02*
X11618D01*
X12150Y4892D02*
Y6242D01*
X12200Y4946D02*
Y6271D01*
X12250Y4970D02*
Y6241D01*
X12350Y4970D02*
Y6244D01*
X12400Y4946D02*
Y6279D01*
X12159Y6250D02*
X12229D01*
X12300Y4978D02*
Y6233D01*
X10900Y4153D02*
Y6950D01*
X10850Y4153D02*
Y6950D01*
X11000Y4153D02*
Y6950D01*
X10950Y4153D02*
Y6950D01*
X10650Y4153D02*
Y6950D01*
X10600Y4153D02*
Y6950D01*
X10800Y4153D02*
Y6950D01*
X10700Y4153D02*
Y6950D01*
X10750Y4153D02*
Y6950D01*
X11100Y4122D02*
Y6950D01*
X11050Y4122D02*
Y6950D01*
X11350Y5060D02*
Y6950D01*
X11150Y4122D02*
Y6950D01*
X11200Y4122D02*
Y6950D01*
X11450Y5060D02*
Y6950D01*
X11400Y5060D02*
Y6950D01*
X11600Y5060D02*
Y6950D01*
X11500Y5060D02*
Y6950D01*
X11550Y5060D02*
Y6950D01*
X9350Y6442D02*
Y6528D01*
X9300Y6420D02*
Y6544D01*
X9450Y6448D02*
Y6522D01*
X9500Y6433D02*
Y6537D01*
X9400Y6451D02*
Y6519D01*
X9434Y6450D02*
X10291D01*
X9475Y6950D02*
X10250D01*
X9514Y6934D02*
X10211D01*
X10200Y6420D02*
Y6544D01*
X9550Y6403D02*
Y6544D01*
X10250Y6442D02*
Y6528D01*
X10400Y6433D02*
Y6537D01*
X10450Y6403D02*
Y6567D01*
X9700Y6934D02*
Y6950D01*
X9600Y6934D02*
Y6950D01*
X10300Y6451D02*
Y6519D01*
X9514Y6544D02*
X10211D01*
X10350Y6448D02*
Y6522D01*
X9650Y6934D02*
Y6950D01*
X9550Y6934D02*
Y6950D01*
X9750Y6934D02*
Y6950D01*
X9500Y6941D02*
Y6950D01*
X9475D02*
X10250D01*
X9800Y6934D02*
Y6950D01*
X9850Y6934D02*
Y6950D01*
X9950Y6934D02*
Y6950D01*
X9900Y6934D02*
Y6950D01*
X10450Y6911D02*
Y6950D01*
X10000Y6934D02*
Y6950D01*
X10050Y6934D02*
Y6950D01*
X10150Y6934D02*
Y6950D01*
X10100Y6934D02*
Y6950D01*
X10400Y6941D02*
Y6950D01*
X10200Y6934D02*
Y6950D01*
X10334Y6450D02*
X11618D01*
Y6543D02*
X11640D01*
X10483Y6600D02*
X11620D01*
X10514Y6650D02*
X11620D01*
X10425Y6550D02*
X11636D01*
X10529Y6700D02*
X11634D01*
X10532Y6750D02*
X11671D01*
X12200Y6475D02*
Y6525D01*
X12155Y6500D02*
X12237D01*
X12400Y6467D02*
Y6533D01*
X11905Y6750D02*
X11925D01*
X12159D02*
X12229D01*
X11650Y6726D02*
Y6950D01*
X11900Y6755D02*
Y6950D01*
X11700Y6772D02*
Y6950D01*
X10500Y6854D02*
Y6950D01*
X11850Y6785D02*
Y6950D01*
X11750Y6793D02*
Y6950D01*
X11800Y6797D02*
Y6950D01*
X12200Y6729D02*
Y6950D01*
X12150Y6758D02*
Y6950D01*
X12400Y6721D02*
Y6950D01*
X12250Y6759D02*
Y6950D01*
X12350Y6756D02*
Y6950D01*
X12000Y6792D02*
Y6950D01*
X11950Y6770D02*
Y6950D01*
X12300Y6767D02*
Y6950D01*
X12050Y6797D02*
Y6950D01*
X12100Y6787D02*
Y6950D01*
X11218Y3900D02*
X12495D01*
Y3858D02*
Y3942D01*
X11218Y3950D02*
X12495D01*
X11617Y4000D02*
X12516D01*
X11656Y4050D02*
X12658D01*
X12582Y4030D02*
X12628D01*
X12650Y4027D02*
Y4058D01*
X12445Y4200D02*
X12508D01*
X11673Y4100D02*
X12608D01*
X12394Y4150D02*
X12558D01*
X12465Y4350D02*
X12480D01*
X12450Y4384D02*
Y4716D01*
X12439Y4400D02*
X12480D01*
X11627Y4500D02*
X12480D01*
X12381Y4450D02*
X12480D01*
X12550Y4024D02*
Y4158D01*
X12500Y3971D02*
Y4210D01*
X12600Y4030D02*
Y4108D01*
X12512Y4196D02*
X12659Y4049D01*
X12468Y4250D02*
X12482D01*
X12480Y4272D02*
Y5488D01*
X13317Y4100D02*
X14183D01*
X13317Y4050D02*
X14183D01*
X13317Y4150D02*
X13652D01*
X13317Y3900D02*
X14183D01*
X13317Y4000D02*
X14183D01*
X13317Y3950D02*
X14183D01*
X13317Y4250D02*
X13610D01*
X13317Y4200D02*
X13619D01*
X13317Y4300D02*
X13619D01*
X13317Y4350D02*
X13652D01*
X13650Y4348D02*
Y4683D01*
X13317Y4450D02*
X14138D01*
X13317Y4400D02*
X14183D01*
X13317Y4500D02*
X14091D01*
X13356Y4549D02*
X13451Y4644D01*
X13357Y4550D02*
X14073D01*
X11615D02*
X12480D01*
X11640Y4600D02*
X12480D01*
X12380Y4650D02*
X12480D01*
X11675Y5050D02*
X12480D01*
X9774Y5100D02*
X12480D01*
X12439Y4700D02*
X12480D01*
X11675Y5000D02*
X12480D01*
X12394Y4950D02*
X12480D01*
X12961Y4700D02*
X12975D01*
X12465Y4750D02*
X12480D01*
X12975Y4685D02*
Y4733D01*
X12468Y4850D02*
X12480D01*
X12445Y4900D02*
X12480D01*
X12875Y5050D02*
X13042D01*
X12875Y5150D02*
X13035D01*
X12875Y5100D02*
X13035D01*
X9774Y5250D02*
X12480D01*
X9774Y5300D02*
X12480D01*
X9774Y5150D02*
X12480D01*
X9774Y5200D02*
X12480D01*
X9774Y5350D02*
X12480D01*
X9774Y5400D02*
X12480D01*
X9770Y5450D02*
X12480D01*
X9735Y5550D02*
X12500D01*
X9757Y5500D02*
X12481D01*
X12875Y4735D02*
Y5300D01*
X12900Y4732D02*
Y5325D01*
X13035Y5090D02*
Y5175D01*
X12950Y4709D02*
Y5375D01*
X13000Y4733D02*
Y5425D01*
X12875Y5300D02*
X13035D01*
Y5290D02*
Y5375D01*
X12875Y5200D02*
X13038D01*
X12924Y5350D02*
X13035D01*
X12974Y5400D02*
X13038D01*
X12875Y4750D02*
X13072D01*
X12875Y4800D02*
X13062D01*
X12975Y4733D02*
X13081D01*
X12875Y4850D02*
X13072D01*
X12875Y5000D02*
X13068D01*
X12875Y4900D02*
X13090D01*
X12875Y4950D02*
X13084D01*
X13407Y4600D02*
X14073D01*
X13457Y4650D02*
X14073D01*
X13090Y4882D02*
Y4942D01*
X13050Y4733D02*
Y5033D01*
X12875Y5250D02*
X13042D01*
X13050Y5432D02*
Y5475D01*
X13024Y5450D02*
X13062D01*
X13074Y5500D02*
X13443D01*
X13288Y5450D02*
X13297D01*
X13153Y5493D02*
X13198D01*
X13100Y5480D02*
Y5525D01*
X13343Y5463D02*
X13388D01*
X13848Y4150D02*
X14183D01*
X13881Y4200D02*
X14183D01*
X13890Y4250D02*
X14183D01*
X13848Y4350D02*
X14183D01*
X13881Y4300D02*
X14183D01*
X13750Y4390D02*
Y4683D01*
X13700Y4381D02*
Y4683D01*
X13850Y4348D02*
Y4683D01*
X13800Y4381D02*
Y4683D01*
X14073Y4560D02*
Y4680D01*
X14104Y4484D02*
X14139Y4449D01*
X14700Y4612D02*
Y4650D01*
X14883Y4300D02*
X17950D01*
X14883Y4301D02*
X15233Y3950D01*
X14713Y4333D02*
X14806D01*
X14709Y4350D02*
X17950D01*
X14712Y4400D02*
X17950D01*
X14705Y4500D02*
X17950D01*
X14714Y4450D02*
X17950D01*
X15262Y3900D02*
X17950D01*
X15183Y4000D02*
X17950D01*
X15233Y3950D02*
X17950D01*
X14983Y4200D02*
X17950D01*
X14933Y4250D02*
X17950D01*
X15133Y4050D02*
X17950D01*
X15033Y4150D02*
X17950D01*
X15083Y4100D02*
X17950D01*
X14850Y4323D02*
Y4800D01*
X14900Y4284D02*
Y4850D01*
X14950Y4234D02*
Y4900D01*
X15000Y4184D02*
Y4950D01*
X14750Y4333D02*
Y4700D01*
X14800Y4333D02*
Y4750D01*
X14715Y4550D02*
X17950D01*
X14699Y4650D02*
X17275D01*
X14705Y4600D02*
X17275D01*
X15050Y4134D02*
Y5000D01*
X15100Y4084D02*
Y5050D01*
X15150Y4034D02*
Y5100D01*
X15200Y3984D02*
Y5150D01*
X15250Y3929D02*
Y5200D01*
X17275Y4575D02*
X17668D01*
X17502Y4575D02*
X17668D01*
X17895D01*
Y4650D02*
X17950D01*
X17895Y4600D02*
X17950D01*
X14343Y4947D02*
X14465D01*
X14350Y4938D02*
Y4947D01*
X14450Y4838D02*
Y4947D01*
X14400Y4881D02*
Y4947D01*
X14441Y4850D02*
X14495D01*
X14500Y4854D02*
Y4953D01*
X14369Y4900D02*
X14545D01*
X14487Y4950D02*
X14595D01*
X14550Y4904D02*
Y4988D01*
X14562Y5000D02*
X14645D01*
X14600Y4954D02*
Y5038D01*
X14612Y5050D02*
X14695D01*
X14650Y5004D02*
Y5088D01*
X14662Y5100D02*
X14745D01*
X14700Y5054D02*
Y5138D01*
X14712Y5150D02*
X14795D01*
X14750Y5104D02*
Y5188D01*
X14762Y5200D02*
X14845D01*
X14800Y5154D02*
Y5238D01*
X14850Y5204D02*
Y5288D01*
X14812Y5250D02*
X14895D01*
X14862Y5300D02*
X14945D01*
X14900Y5254D02*
Y5338D01*
X14912Y5350D02*
X14995D01*
X14950Y5304D02*
Y5388D01*
X14962Y5400D02*
X15045D01*
X15000Y5354D02*
Y5438D01*
X15050Y5404D02*
Y5488D01*
X14849Y4800D02*
X17275D01*
X14899Y4850D02*
X17275D01*
X14749Y4700D02*
X17275D01*
X14799Y4750D02*
X17275D01*
X15099Y5050D02*
X17275D01*
X15149Y5100D02*
X17275D01*
X14949Y4900D02*
X17275D01*
X14999Y4950D02*
X17275D01*
X15049Y5000D02*
X17275D01*
X17895Y4850D02*
X17950D01*
X17895Y4900D02*
X17950D01*
X17895Y4700D02*
X17950D01*
X17895Y4800D02*
X17950D01*
X17895Y4750D02*
X17950D01*
X17895Y5100D02*
X17950D01*
X15199Y5150D02*
X17275D01*
X17895Y4950D02*
X17950D01*
X17895Y5050D02*
X17950D01*
X17895Y5000D02*
X17950D01*
X15349Y5300D02*
X17275D01*
X15399Y5350D02*
X17275D01*
X15249Y5200D02*
X17275D01*
X15299Y5250D02*
X17275D01*
X15012Y5450D02*
X15095D01*
X15100Y5454D02*
Y5538D01*
X15449Y5400D02*
X17275D01*
X15062Y5500D02*
X15145D01*
X15112Y5550D02*
X15195D01*
X17895Y5300D02*
X17950D01*
X17895Y5350D02*
X17950D01*
X17895Y5150D02*
X17950D01*
X17895Y5250D02*
X17950D01*
X17895Y5200D02*
X17950D01*
X15499Y5450D02*
X17275D01*
X15549Y5500D02*
X17275D01*
X17895Y5400D02*
X17950D01*
X17895Y5500D02*
X17950D01*
X17895Y5450D02*
X17950D01*
X9701Y5600D02*
X12548D01*
X9648Y5650D02*
X12598D01*
X9547Y5700D02*
X12648D01*
X8882Y5750D02*
X12698D01*
X8960Y5800D02*
X12748D01*
X9010Y5850D02*
X12798D01*
X9060Y5900D02*
X12825D01*
X9110Y5950D02*
X12825D01*
X13300Y5451D02*
Y5725D01*
X13350Y5463D02*
Y5775D01*
X12875Y5300D02*
X13388Y5813D01*
X13400Y5462D02*
Y5828D01*
X12512Y5564D02*
X12825Y5877D01*
X13150Y5492D02*
Y5575D01*
X13200Y5492D02*
Y5625D01*
X13250Y5480D02*
Y5675D01*
X12500Y5550D02*
Y6211D01*
X12450Y4892D02*
Y6236D01*
X9160Y6000D02*
X12825D01*
X10437Y6050D02*
X12825D01*
X12363Y6250D02*
X12433D01*
X10489Y6100D02*
X12825D01*
X10517Y6150D02*
X12825D01*
X10530Y6200D02*
X12825D01*
X12550Y5602D02*
Y6203D01*
X12600Y5652D02*
Y6210D01*
X12750Y5802D02*
Y6212D01*
X12650Y5702D02*
Y6235D01*
X12700Y5752D02*
Y6239D01*
X12800Y5852D02*
Y6203D01*
X12667Y6250D02*
X12687D01*
X12825Y5877D02*
Y6204D01*
X13420Y5890D02*
Y6241D01*
X13124Y5550D02*
X13493D01*
X13174Y5600D02*
X13543D01*
X13224Y5650D02*
X13593D01*
X13274Y5700D02*
X13643D01*
X13324Y5750D02*
X13693D01*
X13374Y5800D02*
X13743D01*
X13412Y5850D02*
X13793D01*
X13420Y5900D02*
X13843D01*
X13434Y5491D02*
X14127Y6185D01*
X14685Y4635D02*
X15988Y5938D01*
X14462Y4817D02*
X15680Y6035D01*
X14541Y4979D02*
X15680Y6118D01*
X13420Y5950D02*
X13893D01*
X13420Y6000D02*
X13943D01*
X13420Y6050D02*
X13993D01*
X13420Y6150D02*
X14093D01*
X13420Y6100D02*
X14043D01*
X13450Y5507D02*
Y6274D01*
X13500Y5557D02*
Y6950D01*
X13600Y5657D02*
Y6950D01*
X13550Y5607D02*
Y6950D01*
X13650Y5707D02*
Y6950D01*
X13420Y6200D02*
X14127D01*
X13429Y6250D02*
X14127D01*
X13465Y6300D02*
X14127D01*
X13750Y5807D02*
Y6950D01*
X13700Y5757D02*
Y6950D01*
X13900Y5957D02*
Y6950D01*
X13800Y5857D02*
Y6950D01*
X13850Y5907D02*
Y6950D01*
X14000Y6057D02*
Y6950D01*
X13950Y6007D02*
Y6950D01*
X14127Y6185D02*
Y6474D01*
X14050Y6107D02*
Y6950D01*
X14100Y6157D02*
Y6950D01*
X12355Y6500D02*
X12437D01*
X12363Y6750D02*
X12433D01*
X12663Y6500D02*
X12691D01*
X12667Y6750D02*
X12687D01*
X12921D02*
X12941D01*
X13175D02*
X13195D01*
X12650Y6765D02*
Y6950D01*
X12450Y6764D02*
Y6950D01*
X12750Y6788D02*
Y6950D01*
X12700Y6761D02*
Y6950D01*
X12550Y6797D02*
Y6950D01*
X12500Y6789D02*
Y6950D01*
X12850Y6791D02*
Y6950D01*
X12600Y6790D02*
Y6950D01*
X12800Y6797D02*
Y6950D01*
X12950Y6758D02*
Y6950D01*
X12900Y6767D02*
Y6950D01*
X13250Y6785D02*
Y6950D01*
X13150Y6770D02*
Y6950D01*
X13200Y6755D02*
Y6950D01*
X13050Y6797D02*
Y6950D01*
X13000Y6787D02*
Y6950D01*
X13350Y6793D02*
Y6950D01*
X13100Y6792D02*
Y6950D01*
X13300Y6797D02*
Y6950D01*
X13450Y6472D02*
Y6528D01*
X13464Y6450D02*
X14127D01*
X13425Y6500D02*
X14131D01*
X13464Y6550D02*
X14159D01*
X13429Y6750D02*
X14271D01*
X13466Y6700D02*
X14234D01*
X13480Y6350D02*
X14127D01*
X13480Y6400D02*
X14127D01*
X14159Y6550D02*
X14219Y6610D01*
X13480Y6600D02*
X14209D01*
X13480Y6650D02*
X14220D01*
X14505Y6750D02*
X14525D01*
X13450Y6726D02*
Y6950D01*
X13400Y6773D02*
Y6950D01*
X14200Y6591D02*
Y6950D01*
X14150Y6540D02*
Y6950D01*
X10524Y6800D02*
X17171D01*
X10502Y6850D02*
X17225D01*
X10463Y6900D02*
X17305D01*
X10375Y6950D02*
X17950D01*
X10375Y6950D02*
X17950D01*
X14300Y6772D02*
Y6950D01*
X14250Y6726D02*
Y6950D01*
X14550Y6770D02*
Y6950D01*
X14450Y6785D02*
Y6950D01*
X14500Y6755D02*
Y6950D01*
X14400Y6797D02*
Y6950D01*
X14350Y6793D02*
Y6950D01*
X14700Y6787D02*
Y6950D01*
X14600Y6792D02*
Y6950D01*
X14650Y6797D02*
Y6950D01*
X15150Y5504D02*
Y5588D01*
X15200Y5554D02*
Y5638D01*
X15162Y5600D02*
X15245D01*
X15250Y5604D02*
Y5688D01*
X15212Y5650D02*
X15295D01*
X15300Y5654D02*
Y5738D01*
X15262Y5700D02*
X15345D01*
X15312Y5750D02*
X15395D01*
X15350Y5704D02*
Y5788D01*
X15799Y5750D02*
X17275D01*
X15400Y5754D02*
Y5838D01*
X15699Y5650D02*
X17275D01*
X15749Y5700D02*
X17275D01*
X15362Y5800D02*
X15445D01*
X15450Y5804D02*
Y5888D01*
X15849Y5800D02*
X17275D01*
X15412Y5850D02*
X15495D01*
X15899D02*
X17275D01*
X15462Y5900D02*
X15545D01*
X15500Y5854D02*
Y5938D01*
X15512Y5950D02*
X15595D01*
X15550Y5904D02*
Y5988D01*
X15562Y6000D02*
X15645D01*
X15600Y5954D02*
Y6038D01*
X15612Y6050D02*
X15680D01*
X15650Y6004D02*
Y6088D01*
X15662Y6100D02*
X15680D01*
Y6035D02*
Y6118D01*
X16020Y6015D02*
Y6241D01*
X15949Y5900D02*
X17275D01*
X16065Y6300D02*
X17103D01*
X16020Y6150D02*
X17225D01*
X16020Y6200D02*
X17171D01*
X16029Y6250D02*
X17132D01*
X15599Y5550D02*
X17275D01*
Y4575D02*
Y5983D01*
X15649Y5600D02*
X17275D01*
X17668Y5650D02*
X17950D01*
X15998Y5950D02*
X17275D01*
Y5983D02*
X17668D01*
Y5700D02*
X17950D01*
X16019Y6000D02*
X17950D01*
X16020Y6050D02*
X17950D01*
X17895Y4575D02*
Y5603D01*
X17668D02*
Y5983D01*
X17895Y5550D02*
X17950D01*
X17668Y5603D02*
X17895D01*
Y5600D02*
X17950D01*
X17668Y5900D02*
X17950D01*
X17668Y5950D02*
X17950D01*
X17668Y5750D02*
X17950D01*
X17668Y5850D02*
X17950D01*
X17668Y5800D02*
X17950D01*
X17500Y5983D02*
Y6055D01*
X17450Y5983D02*
Y6058D01*
X17550Y5983D02*
Y6058D01*
X17600Y5983D02*
Y6066D01*
X16020Y6100D02*
X17305D01*
X17300Y5983D02*
Y6103D01*
X17400Y5983D02*
Y6066D01*
X17350Y5983D02*
Y6081D01*
X17650Y5983D02*
Y6081D01*
X17700Y5603D02*
Y6102D01*
X17750Y5603D02*
Y6132D01*
X17800Y5603D02*
Y6171D01*
X17850Y5603D02*
Y6225D01*
X17868Y6250D02*
X17950D01*
X17897Y6300D02*
X17950D01*
X17695Y6100D02*
X17950D01*
X17775Y6150D02*
X17950D01*
X17829Y6200D02*
X17950D01*
X14759Y6750D02*
X14779D01*
X15013D02*
X15033D01*
X14800Y6767D02*
Y6950D01*
X14750Y6758D02*
Y6950D01*
X15100Y6789D02*
Y6950D01*
X14850Y6791D02*
Y6950D01*
X14900Y6797D02*
Y6950D01*
X15267Y6750D02*
X15287D01*
X16050Y6472D02*
Y6528D01*
X15200Y6790D02*
Y6950D01*
X15150Y6797D02*
Y6950D01*
X15775Y6750D02*
X15795D01*
X15250Y6765D02*
Y6950D01*
X15521Y6750D02*
X15541D01*
X15050Y6764D02*
Y6950D01*
X15000Y6762D02*
Y6950D01*
X15550Y6758D02*
Y6950D01*
X15300Y6761D02*
Y6950D01*
X15350Y6788D02*
Y6950D01*
X14950Y6788D02*
Y6950D01*
X15500Y6767D02*
Y6950D01*
X15400Y6797D02*
Y6950D01*
X15450Y6791D02*
Y6950D01*
X15800Y6755D02*
Y6950D01*
X15750Y6770D02*
Y6950D01*
X16050Y6726D02*
Y6950D01*
X15850Y6785D02*
Y6950D01*
X16000Y6773D02*
Y6950D01*
X15650Y6797D02*
Y6950D01*
X15600Y6787D02*
Y6950D01*
X15950Y6793D02*
Y6950D01*
X15700Y6792D02*
Y6950D01*
X15900Y6797D02*
Y6950D01*
X16025Y6500D02*
X17055D01*
X16080Y6400D02*
X17066D01*
X16064Y6450D02*
X17058D01*
X16064Y6550D02*
X17058D01*
X16080Y6600D02*
X17066D01*
X16029Y6750D02*
X17132D01*
X16066Y6700D02*
X17102D01*
X17919Y6350D02*
X17950D01*
X16080D02*
X17081D01*
X17934Y6400D02*
X17950D01*
X17942Y6450D02*
X17950D01*
X17942Y6550D02*
X17950D01*
X17934Y6600D02*
X17950D01*
X16080Y6650D02*
X17081D01*
X17919D02*
X17950D01*
X17868Y6750D02*
X17950D01*
X17898Y6700D02*
X17950D01*
X17150Y6775D02*
Y6950D01*
X17100Y6695D02*
Y6950D01*
X17250Y6868D02*
Y6950D01*
X17200Y6829D02*
Y6950D01*
X17350Y6919D02*
Y6950D01*
X17300Y6897D02*
Y6950D01*
X17550Y6942D02*
Y6950D01*
X17400Y6934D02*
Y6950D01*
X17450Y6942D02*
Y6950D01*
X17850Y6775D02*
Y6950D01*
X17800Y6829D02*
Y6950D01*
X17829Y6800D02*
X17950D01*
X17775Y6850D02*
X17950D01*
X17900Y6695D02*
Y6950D01*
X17650Y6919D02*
Y6950D01*
X17600Y6934D02*
Y6950D01*
X17695Y6900D02*
X17950D01*
X17700Y6898D02*
Y6950D01*
X17750Y6868D02*
Y6950D01*
D11*
X8682Y3660D02*
D03*
Y3470D02*
D03*
X9493Y472D02*
D03*
Y283D02*
D03*
D12*
X1387Y890D02*
D03*
X1514D02*
D03*
X1641D02*
D03*
X1768D02*
D03*
X1387Y1510D02*
D03*
X1514D02*
D03*
X1641D02*
D03*
D13*
X1768D02*
D03*
D14*
X1243Y2148D02*
D03*
Y2021D02*
D03*
Y1894D02*
D03*
Y1767D02*
D03*
X1873Y2148D02*
D03*
Y2021D02*
D03*
Y1894D02*
D03*
D15*
Y1767D02*
D03*
D16*
X13375Y4853D02*
D03*
X13425D02*
D03*
X13475D02*
D03*
X13525D02*
D03*
X13575D02*
D03*
X13625D02*
D03*
X13675D02*
D03*
X13725D02*
D03*
X13775D02*
D03*
X13825D02*
D03*
X13875D02*
D03*
X13925D02*
D03*
X13975D02*
D03*
X14025D02*
D03*
X14075D02*
D03*
X14125D02*
D03*
Y3647D02*
D03*
X14075D02*
D03*
X14025D02*
D03*
X13975D02*
D03*
X13925D02*
D03*
X13875D02*
D03*
X13825D02*
D03*
X13775D02*
D03*
X13725D02*
D03*
X13675D02*
D03*
X13625D02*
D03*
X13575D02*
D03*
X13525D02*
D03*
X13475D02*
D03*
X13425D02*
D03*
X13375D02*
D03*
D17*
X14352Y4625D02*
D03*
Y4575D02*
D03*
Y4525D02*
D03*
Y4475D02*
D03*
Y4425D02*
D03*
Y4375D02*
D03*
Y4325D02*
D03*
Y4275D02*
D03*
Y4225D02*
D03*
Y4175D02*
D03*
Y4125D02*
D03*
Y4075D02*
D03*
Y4025D02*
D03*
Y3975D02*
D03*
Y3925D02*
D03*
Y3875D02*
D03*
X13148D02*
D03*
Y3925D02*
D03*
Y3975D02*
D03*
Y4025D02*
D03*
Y4075D02*
D03*
Y4125D02*
D03*
Y4175D02*
D03*
Y4225D02*
D03*
Y4275D02*
D03*
Y4325D02*
D03*
Y4375D02*
D03*
Y4425D02*
D03*
Y4475D02*
D03*
Y4525D02*
D03*
Y4575D02*
D03*
D18*
Y4625D02*
D03*
D19*
X3683Y4252D02*
D03*
X4023Y4252D02*
D03*
X4193D02*
D03*
X3513Y4252D02*
D03*
X3853D02*
D03*
D20*
Y5320D02*
D03*
D21*
X2233Y2428D02*
D03*
X2423D02*
D03*
X2188Y1110D02*
D03*
X2378D02*
D03*
X2188Y898D02*
D03*
X2378D02*
D03*
X4005Y3925D02*
D03*
X4195Y3925D02*
D03*
D22*
X3938Y1282D02*
D03*
X4408D02*
D03*
D23*
X3575Y1890D02*
D03*
Y1420D02*
D03*
X950Y5885D02*
D03*
Y5415D02*
D03*
Y4885D02*
D03*
Y4415D02*
D03*
D24*
X1533Y5040D02*
D03*
X2283D02*
D03*
X1532Y5725D02*
D03*
X2283D02*
D03*
D25*
X1978Y1495D02*
D03*
Y1305D02*
D03*
X14275Y3230D02*
D03*
Y3420D02*
D03*
D26*
X12605Y3900D02*
D03*
X12795D02*
D03*
X13365Y5133D02*
D03*
X13175D02*
D03*
X13365Y5333D02*
D03*
X13175D02*
D03*
X7697Y4822D02*
D03*
X7507Y4822D02*
D03*
D27*
X7703Y5550D02*
D03*
X7403D02*
D03*
D28*
X10872Y3358D02*
D03*
D29*
X10643Y3938D02*
D03*
X10872Y3938D02*
D03*
X11103Y3938D02*
D03*
D30*
X8121Y4894D02*
D03*
X8121Y5401D02*
D03*
D31*
X9159Y5147D02*
D03*
D32*
X13198Y4800D02*
Y4985D01*
X13175Y5007D02*
X13198Y4985D01*
X13175Y5007D02*
Y5133D01*
X13198Y4955D02*
X13338D01*
X14490Y4310D02*
X14580D01*
X14475Y4325D02*
X14490Y4310D01*
X14352Y4325D02*
X14475D01*
X14525Y4375D02*
X14580Y4430D01*
X14352Y4375D02*
X14525D01*
X14505Y4475D02*
X14580Y4550D01*
X14352Y4475D02*
X14505D01*
X15912Y6015D02*
Y6373D01*
X14473Y4575D02*
X15912Y6015D01*
X14352Y4575D02*
X14473D01*
X15788Y5990D02*
Y6503D01*
X14423Y4625D02*
X15788Y5990D01*
X14352Y4625D02*
X14423D01*
X13043Y3847D02*
X13070Y3875D01*
X13043Y3845D02*
Y3847D01*
X13010Y3975D02*
X13148D01*
X13007Y3972D02*
X13010Y3975D01*
X12898Y4025D02*
X13148D01*
X12735Y4125D02*
X13148D01*
X12760Y4175D02*
X13148D01*
X12788Y4225D02*
X13148D01*
X12820Y4275D02*
X13148D01*
X14075Y3647D02*
Y3840D01*
X13380D02*
X14075D01*
X13338Y3883D02*
X13380Y3840D01*
X13338Y3883D02*
Y4075D01*
Y4578D02*
X13425Y4665D01*
X13338Y4075D02*
Y4578D01*
X13148Y4075D02*
X13338D01*
X13575Y4665D02*
Y4853D01*
X13425Y4665D02*
X13575D01*
X13425D02*
Y4853D01*
X10644Y2752D02*
X11597D01*
X10423Y2531D02*
X10644Y2752D01*
X13070Y3875D02*
X13148D01*
X11668Y2823D02*
X12010D01*
X11597Y2752D02*
X11668Y2823D01*
X13475Y3203D02*
Y3647D01*
X14352Y4525D02*
X14352Y4525D01*
X14215Y4525D02*
X14352D01*
X14180Y4560D02*
X14215Y4525D01*
X14180Y4560D02*
Y4680D01*
X14260Y4760D01*
X14340D01*
X14132Y4860D02*
X14240D01*
X14125Y4853D02*
X14132Y4860D01*
X12870Y4360D02*
X12905Y4325D01*
X13148D01*
X12872Y4600D02*
X13047Y4425D01*
X12870Y4600D02*
X12872D01*
X12975Y4375D02*
X13148D01*
X12870Y4480D02*
X12975Y4375D01*
X13047Y4425D02*
X13148D01*
X12010Y2823D02*
X12105Y2917D01*
X13295D01*
X11718Y2752D02*
X12085D01*
X11645Y2680D02*
X11718Y2752D01*
X11172Y2680D02*
X11645D01*
X11023Y2531D02*
X11172Y2680D01*
X12085Y2752D02*
X12170Y2838D01*
X13320D01*
X12232Y2762D02*
X13360D01*
X12147Y2677D02*
X12232Y2762D01*
X11769Y2677D02*
X12147D01*
X11623Y2531D02*
X11769Y2677D01*
X13295Y2917D02*
X13525Y3148D01*
X13320Y2838D02*
X13575Y3092D01*
X13360Y2762D02*
X13625Y3027D01*
X13398Y2688D02*
X13675Y2965D01*
X12379Y2688D02*
X13398D01*
X12223Y2531D02*
X12379Y2688D01*
X13525Y3148D02*
Y3647D01*
X13575Y3092D02*
Y3647D01*
X13625Y3027D02*
Y3647D01*
X13675Y2965D02*
Y3647D01*
X13375Y4720D02*
Y4853D01*
X13280Y4625D02*
X13375Y4720D01*
X13148Y4625D02*
X13280D01*
X12647Y5438D02*
X13058Y5848D01*
X12647Y4288D02*
Y5438D01*
Y4288D02*
X12760Y4175D01*
X12588Y5488D02*
X12932Y5833D01*
X12588Y4272D02*
Y5488D01*
Y4272D02*
X12735Y4125D01*
X12768Y4328D02*
X12820Y4275D01*
X12768Y4328D02*
Y5345D01*
X12707Y4305D02*
X12788Y4225D01*
X12707Y4305D02*
Y5390D01*
X12932Y5833D02*
Y6501D01*
X13058Y6627D01*
Y5848D02*
Y6373D01*
X12707Y5390D02*
X13188Y5870D01*
Y6503D01*
X13312Y6627D01*
X12768Y5345D02*
X13312Y5890D01*
Y6373D01*
X14235Y6474D02*
X14388Y6627D01*
X14235Y6140D02*
Y6474D01*
X13510Y5415D02*
X14235Y6140D01*
X13510Y5072D02*
Y5415D01*
X13475Y5038D02*
X13510Y5072D01*
X13475Y4853D02*
Y5038D01*
X14388Y6178D02*
Y6373D01*
X13573Y5362D02*
X14388Y6178D01*
X13573Y5030D02*
Y5362D01*
X13525Y4983D02*
X13573Y5030D01*
X13525Y4853D02*
Y4983D01*
X14523Y6507D02*
X14642Y6627D01*
X14523Y6197D02*
Y6507D01*
X13625Y5300D02*
X14523Y6197D01*
X13625Y4853D02*
Y5300D01*
X13775Y5125D02*
X14896Y6246D01*
X13775Y4853D02*
Y5125D01*
X14896Y6246D02*
Y6373D01*
X13825Y4853D02*
Y5069D01*
X15025Y6269D01*
X13875Y4853D02*
Y5048D01*
X14180Y5353D01*
X14312D01*
X13925Y4853D02*
Y5027D01*
X14175Y5278D01*
X14345D01*
X13975Y4853D02*
Y5006D01*
X14169Y5200D01*
X14373D01*
X14025Y4853D02*
Y4986D01*
X14164Y5125D01*
X14420D01*
X14075Y4853D02*
Y4965D01*
X14165Y5055D01*
X14465D01*
X15025Y6269D02*
Y6502D01*
X13725Y5190D02*
X14773Y6238D01*
X13725Y4853D02*
Y5190D01*
X14773Y6238D02*
Y6504D01*
X13675Y5245D02*
X14642Y6212D01*
X13675Y4853D02*
Y5245D01*
X14642Y6212D02*
Y6373D01*
X14773Y6504D02*
X14896Y6627D01*
X14312Y5353D02*
X15150Y6190D01*
X14345Y5278D02*
X15280Y6212D01*
X14373Y5200D02*
X15404Y6231D01*
X14420Y5125D02*
X15535Y6240D01*
X14465Y5055D02*
X15658Y6248D01*
X15280Y6212D02*
Y6503D01*
X15404Y6231D02*
Y6373D01*
X15535Y6240D02*
Y6504D01*
X15150Y6190D02*
Y6373D01*
X15658Y6248D02*
Y6373D01*
X15025Y6502D02*
X15150Y6627D01*
X15280Y6503D02*
X15404Y6627D01*
X15535Y6504D02*
X15658Y6627D01*
X15788Y6503D02*
X15912Y6627D01*
X15500Y2752D02*
X15805D01*
X15107Y3145D02*
X15500Y2752D01*
X15107Y3145D02*
Y3853D01*
X15423Y2531D02*
Y2702D01*
X15055Y3070D02*
X15423Y2702D01*
X15055Y3070D02*
Y3835D01*
X16306Y2845D02*
X16624Y2526D01*
X15538Y2845D02*
X16306D01*
X15157Y3225D02*
X15538Y2845D01*
X15157Y3225D02*
Y3874D01*
X15805Y2752D02*
X16023Y2534D01*
X14806Y4225D02*
X15157Y3874D01*
X14352Y4225D02*
X14806D01*
X16023Y2531D02*
Y2534D01*
X14786Y4175D02*
X15107Y3853D01*
X14352Y4175D02*
X14786D01*
X15005Y3090D02*
Y3814D01*
X14823Y2908D02*
X15005Y3090D01*
X14823Y2531D02*
Y2908D01*
X14765Y4125D02*
X15055Y3835D01*
X14352Y4125D02*
X14765D01*
X14744Y4075D02*
X15005Y3814D01*
X14352Y4075D02*
X14744D01*
X13725Y2902D02*
Y3647D01*
X13268Y2445D02*
X13725Y2902D01*
X13268Y1899D02*
Y2445D01*
X13775Y2840D02*
Y3647D01*
X13396Y2461D02*
X13775Y2840D01*
X13396Y2027D02*
Y2461D01*
X13825Y2780D02*
Y3647D01*
X13527Y2483D02*
X13825Y2780D01*
X13527Y1905D02*
Y2483D01*
X13875Y2725D02*
Y3647D01*
X13650Y2500D02*
X13875Y2725D01*
X13650Y2027D02*
Y2500D01*
X13925Y2670D02*
Y3647D01*
X13777Y2523D02*
X13925Y2670D01*
X13777Y1900D02*
Y2523D01*
X13142Y1773D02*
X13268Y1899D01*
X13396Y1773D02*
X13527Y1905D01*
X13650Y1773D02*
X13777Y1900D01*
X13975Y2608D02*
Y3647D01*
X13904Y2536D02*
X13975Y2608D01*
X13904Y2027D02*
Y2536D01*
Y1773D02*
X14025Y1894D01*
Y3647D01*
X12795Y3900D02*
Y3922D01*
X12898Y4025D01*
X13365Y5025D02*
Y5133D01*
Y5333D01*
Y5025D02*
X13425Y4965D01*
Y4853D02*
Y4965D01*
X13375Y4853D02*
Y4917D01*
X13338Y4955D02*
X13375Y4917D01*
X13175Y5133D02*
Y5333D01*
X14125Y3547D02*
Y3647D01*
Y3547D02*
X14252Y3420D01*
X14275D01*
X14352Y4025D02*
X14352Y4025D01*
X14720D02*
X14725Y4020D01*
X14352Y4025D02*
X14720D01*
X14690Y3975D02*
X14693Y3972D01*
X14352Y3975D02*
X14690D01*
X14352Y3925D02*
X14664D01*
X14637Y3875D02*
X14641Y3871D01*
X14352Y3875D02*
X14637D01*
X14170Y3230D02*
X14275D01*
X14132Y3267D02*
X14170Y3230D01*
X14132Y3267D02*
Y3336D01*
X14075Y3393D02*
X14132Y3336D01*
X14075Y3393D02*
Y3647D01*
X12753Y4075D02*
X13148D01*
X12605Y3900D02*
Y3928D01*
X12753Y4075D01*
D33*
X9015Y3700D02*
X9515D01*
X8782Y3467D02*
X9015Y3700D01*
X8555Y3467D02*
X8782D01*
X8720Y3778D02*
X9557D01*
X8682Y3740D02*
X8720Y3778D01*
X8682Y3660D02*
Y3740D01*
X8481Y3394D02*
X8555Y3467D01*
X8481Y3202D02*
Y3394D01*
X11353Y3120D02*
X11590Y3358D01*
X10095Y3120D02*
X11353D01*
X9515Y3700D02*
X10095Y3120D01*
X9978Y3358D02*
X10872D01*
X9557Y3778D02*
X9978Y3358D01*
X11590Y3358D02*
X12568D01*
X13035Y3838D02*
X13043Y3845D01*
X13035Y3683D02*
Y3838D01*
X13005Y3972D02*
X13007D01*
X12940Y3908D02*
X13005Y3972D01*
X10490Y2825D02*
X11550D01*
X10193Y2527D02*
X10490Y2825D01*
X10400Y2950D02*
X11425D01*
X8839Y1389D02*
X10400Y2950D01*
X8839Y1294D02*
Y1389D01*
X10350Y3025D02*
X11400D01*
X8770Y1445D02*
X10350Y3025D01*
X7822Y1445D02*
X8770D01*
X12628Y3275D02*
X13035Y3683D01*
X11650Y3275D02*
X12628D01*
X11400Y3025D02*
X11650Y3275D01*
X11675Y3200D02*
X12675D01*
X11425Y2950D02*
X11675Y3200D01*
X13120Y3645D02*
X13370D01*
X12675Y3200D02*
X13120Y3645D01*
X13370D02*
X13373Y3647D01*
X12940Y3730D02*
Y3908D01*
X12568Y3358D02*
X12940Y3730D01*
X7672Y1295D02*
X7822Y1445D01*
X10193Y1225D02*
Y2527D01*
X9747Y780D02*
X10193Y1225D01*
X9747Y-203D02*
Y780D01*
X11622Y2898D02*
X11947D01*
X11550Y2825D02*
X11622Y2898D01*
X11947D02*
X12050Y3000D01*
X13273D01*
X13473Y3200D01*
X14952Y3115D02*
Y3792D01*
X14545Y2708D02*
X14952Y3115D01*
X14898Y3138D02*
Y3770D01*
X14412Y2652D02*
X14898Y3138D01*
X14843Y3161D02*
Y3747D01*
X14288Y2606D02*
X14843Y3161D01*
X14788Y3185D02*
Y3724D01*
X14158Y2556D02*
X14788Y3185D01*
X14545Y1906D02*
Y2708D01*
X14412Y2027D02*
Y2652D01*
X14288Y1902D02*
Y2606D01*
X14158Y2027D02*
Y2556D01*
Y1773D02*
X14288Y1902D01*
X14412Y1773D02*
X14545Y1906D01*
X14693Y3972D02*
X14695D01*
X14641Y3871D02*
X14788Y3724D01*
X14667Y3922D02*
X14843Y3747D01*
X14695Y3972D02*
X14898Y3770D01*
X14725Y4020D02*
X14952Y3792D01*
D34*
X13142Y2027D02*
Y2223D01*
X12832Y2533D02*
X13142Y2223D01*
X12712Y2533D02*
X12832D01*
X7403Y5150D02*
Y5550D01*
Y4928D02*
Y5147D01*
X11103Y4258D02*
Y4495D01*
X11243Y4636D02*
X11505D01*
X11103Y4495D02*
X11243Y4636D01*
X10872Y3358D02*
X11178D01*
X11397Y3578D01*
X11638D01*
X11103Y3870D02*
Y3938D01*
Y3870D02*
X11195Y3778D01*
X11638D01*
Y3578D02*
X12262D01*
X11638Y3778D02*
X12262D01*
X12605Y3842D02*
Y3900D01*
X12540Y3778D02*
X12605Y3842D01*
X12262Y3778D02*
X12540D01*
X12795Y3780D02*
Y3900D01*
X12593Y3578D02*
X12795Y3780D01*
X12262Y3578D02*
X12593D01*
X7851Y5401D02*
X8121D01*
X7703Y5550D02*
X7851Y5401D01*
X7403Y4928D02*
X7507Y4822D01*
X8464Y641D02*
X8668D01*
X8972Y945D01*
X9372D01*
X9493Y825D01*
Y472D02*
Y825D01*
X14630Y1720D02*
Y1898D01*
X14520Y1610D02*
X14630Y1720D01*
X13051Y1610D02*
X14520D01*
X12888Y1773D02*
X13051Y1610D01*
X14630Y1898D02*
X15077Y2345D01*
X15675D01*
X15077D02*
Y2531D01*
X11272Y2335D02*
X11878D01*
X10873D02*
X11272D01*
X11277Y2340D01*
Y2531D01*
X11878Y2335D02*
X12472D01*
X11877Y2335D02*
X11878Y2335D01*
X11877Y2335D02*
Y2531D01*
X12472Y2526D02*
X12477Y2531D01*
X12472Y2335D02*
Y2526D01*
X12635Y2026D02*
Y2173D01*
X12472Y2335D02*
X12635Y2173D01*
Y2026D02*
X12888Y1773D01*
X10677Y2531D02*
X10873Y2335D01*
X1433Y1818D02*
Y2367D01*
X1302Y2498D02*
X1433Y2367D01*
X943Y2498D02*
X1302D01*
X745Y2695D02*
X943Y2498D01*
X1865Y2632D02*
Y2745D01*
Y2632D02*
X2070Y2428D01*
X2233D01*
X2070Y1767D02*
Y2428D01*
X4000Y4525D02*
X4023Y4502D01*
Y4252D02*
Y4502D01*
Y4048D02*
Y4252D01*
X4005Y4030D02*
X4023Y4048D01*
X4005Y3925D02*
Y4030D01*
X955Y2048D02*
X1025D01*
X1382Y1767D02*
X1433Y1818D01*
X1243Y1767D02*
X1382D01*
X1387Y1366D02*
Y1510D01*
Y1366D02*
X1448Y1305D01*
X1978D01*
X1963Y1510D02*
X1978Y1495D01*
X1768Y1510D02*
X1963D01*
X2070Y1767D02*
X2204Y1633D01*
X2229D01*
X1873Y1767D02*
X1970D01*
X2070D01*
X2188Y898D02*
Y1110D01*
X1025Y2048D02*
X1126Y2148D01*
X1243D01*
X377Y3612D02*
X745Y3244D01*
Y2695D02*
Y3244D01*
X13962Y1073D02*
X14140Y894D01*
X12990D02*
Y1073D01*
X13962D01*
X11840Y894D02*
Y1073D01*
X12990D01*
X10868D02*
X11840D01*
X10690Y894D02*
X10868Y1073D01*
X16712Y2345D02*
X16878Y2511D01*
Y2526D01*
X15677Y2347D02*
Y2531D01*
X15675Y2345D02*
X15677Y2347D01*
X16277Y2348D02*
Y2531D01*
Y2348D02*
X16280Y2345D01*
X15675D02*
X16280D01*
X16712D01*
X-127Y3358D02*
X315D01*
X-127Y3612D02*
X377D01*
X568Y2435D02*
X955Y2048D01*
X568Y2435D02*
Y3105D01*
X315Y3358D02*
X568Y3105D01*
D35*
X12003Y5828D02*
X12296Y6121D01*
Y6373D01*
Y6627D01*
X8472Y5890D02*
X8845D01*
X8121Y5538D02*
X8472Y5890D01*
X8121Y5401D02*
Y5538D01*
X8845Y5890D02*
X9186Y6231D01*
X9413D01*
X10872Y3358D02*
Y3938D01*
X6128Y1355D02*
X6210Y1273D01*
X5712Y1355D02*
X6128D01*
X3850Y3217D02*
X5712Y1355D01*
X3850Y3217D02*
Y3725D01*
X6210Y1085D02*
Y1273D01*
X5615Y1085D02*
X5955D01*
X2950Y3750D02*
X5615Y1085D01*
X2950Y3750D02*
X2950Y3750D01*
X2550Y3750D02*
X2950D01*
X1700D02*
X2550D01*
X4193Y3725D02*
Y4252D01*
X3850Y3725D02*
X4193D01*
X3850D02*
Y4250D01*
X3683Y4008D02*
Y4252D01*
X3625Y3950D02*
X3683Y4008D01*
X3250Y3950D02*
X3625D01*
X2550Y4250D02*
X2550Y4250D01*
X2950D01*
X3250Y3950D01*
X3175Y5840D02*
X3553Y6217D01*
X3175Y4775D02*
Y5840D01*
Y4775D02*
X3513Y4437D01*
Y4252D02*
Y4437D01*
X3853Y5320D02*
X4193Y4980D01*
Y4252D02*
Y4980D01*
X3850Y4250D02*
X3853Y4252D01*
X6084Y4851D02*
Y5319D01*
X6085Y5320D01*
X7441Y895D02*
Y2191D01*
X7890Y2640D01*
X8100Y2850D01*
Y4275D01*
X7825Y4550D02*
X8100Y4275D01*
X9159Y5759D02*
X9228Y5828D01*
X12003D01*
D36*
X7103Y5150D02*
X7403D01*
X6933Y5319D02*
X7103Y5150D01*
X3853Y5320D02*
X6085D01*
X6084Y5319D02*
X6933D01*
X4238Y6195D02*
Y6435D01*
X3872Y6800D02*
X4238Y6435D01*
X2950Y6800D02*
X3872D01*
X4238Y6195D02*
X4495Y5938D01*
X5258D01*
X2600Y6450D02*
X2950Y6800D01*
X3675Y6475D02*
X3877Y6273D01*
X3108Y6475D02*
X3675D01*
X2895Y6262D02*
X3108Y6475D01*
X2600Y6042D02*
Y6450D01*
X3853Y5320D02*
X3877Y5345D01*
Y6217D01*
Y6273D01*
X2283Y5725D02*
X2600Y6042D01*
X5258Y5938D02*
X6059Y6739D01*
X6713D01*
X2283Y5040D02*
X2283Y5040D01*
X2283Y5040D02*
Y5725D01*
X935Y4400D02*
X950Y4415D01*
X-50Y4400D02*
X935D01*
X1377Y4885D02*
X1533Y5040D01*
X935Y4900D02*
X950Y4885D01*
X-50Y4900D02*
X935D01*
X935Y5400D02*
X950Y5415D01*
X-50Y5400D02*
X935D01*
X-50Y5885D02*
X950D01*
X6713Y6739D02*
X7613D01*
X8513D01*
X10313D01*
X950Y4885D02*
X1377D01*
X950Y5885D02*
X1362D01*
X1532Y5715D01*
X9159Y5147D02*
Y5759D01*
D37*
X7403Y5147D02*
X9159D01*
D38*
X10049Y4258D02*
X10210D01*
X9159Y5147D02*
X10049Y4258D01*
X10025Y3715D02*
X10210D01*
X8121Y4617D02*
Y4894D01*
X10210Y4258D02*
X11103D01*
X7879Y4894D02*
X8123D01*
X10210Y3915D02*
Y4258D01*
X11103Y3938D02*
Y4258D01*
X10643Y3860D02*
Y3938D01*
X10497Y3715D02*
X10643Y3860D01*
X10210Y3715D02*
X10497D01*
X7807Y4822D02*
X7879Y4894D01*
X7697Y4822D02*
X7807D01*
X950Y2898D02*
X1103Y2745D01*
X950Y2898D02*
Y4415D01*
X2229Y1379D02*
Y1633D01*
X9282Y4458D02*
X10025Y3715D01*
X8121Y4617D02*
X8280Y4458D01*
X9282D01*
D39*
X875Y-15D02*
Y245D01*
X-127Y1247D02*
X875Y245D01*
X785Y-52D02*
Y210D01*
X-275Y1270D02*
X785Y210D01*
X700Y-88D02*
Y177D01*
X-375Y1252D02*
X700Y177D01*
X1107Y1852D02*
X1149Y1894D01*
X1070Y1945D02*
X1146Y2021D01*
X1038Y-425D02*
X2467D01*
X700Y-88D02*
X1038Y-425D01*
X2467D02*
X2588Y-305D01*
X2277Y-350D02*
X2427Y-200D01*
X1083Y-350D02*
X2277D01*
X785Y-52D02*
X1083Y-350D01*
X2427Y50D02*
X2588Y-110D01*
Y-305D02*
Y-110D01*
X875Y-15D02*
X1118Y-257D01*
X1443D01*
X1625Y-75D01*
X1514Y1510D02*
Y1597D01*
X1515Y1598D01*
X1149Y1894D02*
X1243D01*
X1146Y2021D02*
X1243D01*
X127Y2088D02*
X362Y1852D01*
X1107D01*
X377Y2342D02*
X774Y1945D01*
X1070D01*
X-275Y2194D02*
X-127Y2342D01*
X-375Y2348D02*
X-127Y2596D01*
X127Y2342D02*
X377D01*
X-127Y1247D02*
Y2088D01*
X-275Y1270D02*
Y2194D01*
X-375Y1252D02*
Y2348D01*
X1093Y2148D02*
X1243D01*
X988Y2745D02*
X1103D01*
Y2860D01*
X1243Y2148D02*
Y2218D01*
X6210Y945D02*
Y1085D01*
X6350D01*
X6210D02*
Y1225D01*
X-242Y3358D02*
X-127D01*
X127D02*
X242D01*
X-190Y4400D02*
X-50D01*
X90D01*
X-50Y4260D02*
Y4400D01*
Y4540D01*
X800Y4415D02*
X950D01*
X1100D01*
X950Y4275D02*
Y4415D01*
X1585Y4250D02*
X1700D01*
Y4365D01*
X950Y4415D02*
Y4555D01*
X1700Y4135D02*
Y4250D01*
X1815D01*
X-190Y5400D02*
X-50D01*
Y5260D02*
Y5400D01*
Y5540D01*
Y5400D02*
X90D01*
X800Y5415D02*
X950D01*
X1100D01*
X950Y5275D02*
Y5415D01*
Y5555D01*
X4195Y3820D02*
Y3925D01*
X4270D01*
X3853Y4062D02*
Y4252D01*
X4193Y4252D02*
Y4442D01*
X3853Y4252D02*
Y4442D01*
X4193Y4252D02*
X4283D01*
X3853Y5320D02*
X4423D01*
X3853Y4865D02*
Y5320D01*
X6084Y4736D02*
Y4851D01*
X5969D02*
X6084D01*
Y4966D01*
Y4851D02*
X6199D01*
X2895Y6097D02*
Y6262D01*
X3853Y5320D02*
Y5775D01*
X3877Y6117D02*
Y6217D01*
X2895Y6262D02*
X3060D01*
X2895D02*
Y6427D01*
X3778Y6217D02*
X3877D01*
Y6317D01*
Y6217D02*
X3977D01*
X7314Y641D02*
X7439D01*
X7314Y516D02*
Y641D01*
X8464Y516D02*
Y641D01*
X8589D01*
X8481Y2833D02*
Y2948D01*
X8366D02*
X8481D01*
X8596D01*
X10677Y2531D02*
X10792D01*
X10677Y2416D02*
Y2531D01*
X11103Y3778D02*
Y3938D01*
X11277Y2416D02*
Y2531D01*
X11877Y2416D02*
Y2531D01*
X11277Y2531D02*
X11392D01*
X11877Y2531D02*
X11992D01*
X12477Y2416D02*
Y2531D01*
X15077Y2416D02*
Y2531D01*
X15677Y2416D02*
Y2531D01*
X16277Y2416D02*
Y2531D01*
X16878Y2411D02*
Y2526D01*
X15077Y2531D02*
X15192D01*
X15077D02*
Y2646D01*
X15677Y2531D02*
X15792D01*
X16277Y2531D02*
Y2646D01*
Y2531D02*
X16392D01*
X16878Y2526D02*
X16993D01*
X16878D02*
Y2641D01*
X11547Y3778D02*
X11638D01*
X11728D01*
X12262D02*
X12353D01*
X12172D02*
X12262D01*
X11638D02*
Y3867D01*
X12262Y3778D02*
Y3867D01*
X12605Y3795D02*
Y3900D01*
X14170Y3230D02*
X14275D01*
X14380D01*
X14275Y3145D02*
Y3230D01*
X14560Y3250D02*
X14650D01*
X7507Y4717D02*
Y4822D01*
X7422D02*
X7507D01*
Y4928D01*
X7403Y5550D02*
X7500D01*
X7403Y5420D02*
Y5550D01*
X7305D02*
X7403D01*
Y5680D01*
X10210Y3915D02*
X10300D01*
X10120D02*
X10210D01*
Y4005D01*
X11103Y3938D02*
X11193D01*
X11103D02*
Y4097D01*
X8569Y5147D02*
X9159D01*
X9749D01*
X9159D02*
Y5688D01*
X11390Y4636D02*
X11505D01*
X11620D01*
X12296Y6258D02*
Y6373D01*
Y6627D02*
Y6742D01*
X12520Y3900D02*
X12605D01*
Y4005D01*
X13635Y4250D02*
X13750D01*
X13365Y5333D02*
Y5438D01*
X13750Y4135D02*
Y4250D01*
X13865D01*
X13750D02*
Y4365D01*
D40*
X1641Y1510D02*
Y1624D01*
X1683Y1665D01*
Y1988D01*
X1716Y2021D01*
X1873D01*
D41*
X17421Y4797D02*
X17395Y4771D01*
Y4720D01*
X17421Y4695D01*
X17446D01*
X17471Y4720D01*
Y4771D01*
X17497Y4797D01*
X17522D01*
X17548Y4771D01*
Y4720D01*
X17522Y4695D01*
X17548Y4847D02*
X17395D01*
X17446Y4898D01*
X17395Y4949D01*
X17548D01*
X17471Y5000D02*
Y5101D01*
X17548Y5152D02*
X17395D01*
X17446Y5203D01*
X17395Y5254D01*
X17548D01*
X17395Y5381D02*
Y5330D01*
X17421Y5304D01*
X17522D01*
X17548Y5330D01*
Y5381D01*
X17522Y5406D01*
X17421D01*
X17395Y5381D01*
Y5457D02*
Y5558D01*
Y5508D01*
X17548D01*
X17395Y5609D02*
X17548D01*
X17471D01*
Y5711D01*
X17395D01*
X17548D01*
X17395Y5761D02*
X17548D01*
Y5838D01*
X17522Y5863D01*
X17497D01*
X17471Y5838D01*
Y5761D01*
Y5838D01*
X17446Y5863D01*
X17421D01*
X17395Y5838D01*
Y5761D01*
X17673Y4695D02*
X17775D01*
X17724D01*
X17699Y4720D01*
X17673Y4746D01*
Y4771D01*
X17775Y4924D02*
Y4873D01*
X17750Y4847D01*
X17699D01*
X17673Y4873D01*
Y4924D01*
X17699Y4949D01*
X17724D01*
Y4847D01*
X17673Y5000D02*
X17775Y5050D01*
X17673Y5101D01*
X17775Y5152D02*
X17750D01*
Y5177D01*
X17775D01*
Y5152D01*
Y5431D02*
Y5482D01*
Y5457D01*
X17623D01*
X17648Y5431D01*
D42*
X8000Y2000D02*
D03*
X0Y6500D02*
D03*
Y0D02*
D03*
X17500Y3250D02*
D03*
Y6500D02*
D03*
X2050D02*
D03*
X4850D02*
D03*
X9250Y3250D02*
D03*
D43*
X12300Y4804D02*
D03*
Y4296D02*
D03*
D44*
X630Y753D02*
D03*
Y1007D02*
D03*
Y1260D02*
D03*
X6210Y1085D02*
D03*
X5955D02*
D03*
D45*
X2900Y4730D02*
D03*
D46*
X2895Y6262D02*
D03*
X10313Y6739D02*
D03*
Y6231D02*
D03*
X8513Y6739D02*
D03*
Y6231D02*
D03*
X7613Y6739D02*
D03*
Y6231D02*
D03*
X9413Y6739D02*
D03*
Y6231D02*
D03*
X6713Y6739D02*
D03*
Y6231D02*
D03*
D47*
X2229Y2141D02*
D03*
X2229Y1887D02*
D03*
Y1633D02*
D03*
X2229Y1379D02*
D03*
X2991Y2141D02*
D03*
Y1887D02*
D03*
Y1633D02*
D03*
X16878Y2526D02*
D03*
X16624Y2526D02*
D03*
X16878Y1764D02*
D03*
X16277Y2531D02*
D03*
X16023D02*
D03*
X16277Y1769D02*
D03*
X15677Y2531D02*
D03*
X15423D02*
D03*
X15677Y1769D02*
D03*
X15077Y2531D02*
D03*
X14823D02*
D03*
X15077Y1769D02*
D03*
X12477Y2531D02*
D03*
X12223D02*
D03*
X12477Y1769D02*
D03*
X11877Y2531D02*
D03*
X11623D02*
D03*
X11877Y1769D02*
D03*
X11277Y2531D02*
D03*
X11023D02*
D03*
X11277Y1769D02*
D03*
X10677Y2531D02*
D03*
X10423D02*
D03*
X10677Y1769D02*
D03*
X8481Y2948D02*
D03*
Y3202D02*
D03*
X7719Y2948D02*
D03*
D48*
X2991Y1379D02*
D03*
X7719Y3202D02*
D03*
D49*
X16624Y1764D02*
D03*
X16023Y1769D02*
D03*
X15423D02*
D03*
X14823D02*
D03*
X12223Y1769D02*
D03*
X11623Y1769D02*
D03*
X11023Y1769D02*
D03*
X10423Y1769D02*
D03*
D50*
X4814Y2819D02*
D03*
X6846Y2819D02*
D03*
X6846Y4851D02*
D03*
X6084D02*
D03*
X1357Y2745D02*
D03*
X1611Y2745D02*
D03*
X1865D02*
D03*
X1625Y-75D02*
D03*
X1175D02*
D03*
X2950Y4250D02*
D03*
X2550Y4250D02*
D03*
X2550Y3750D02*
D03*
X2950Y3750D02*
D03*
X1700Y4250D02*
D03*
X13312Y6373D02*
D03*
Y6627D02*
D03*
X13058Y6373D02*
D03*
Y6627D02*
D03*
X12804D02*
D03*
Y6373D02*
D03*
X12550Y6627D02*
D03*
Y6373D02*
D03*
X12296Y6627D02*
D03*
Y6373D02*
D03*
X12042Y6627D02*
D03*
Y6373D02*
D03*
X11788Y6627D02*
D03*
X15912Y6373D02*
D03*
Y6627D02*
D03*
X15658Y6373D02*
D03*
Y6627D02*
D03*
X15404D02*
D03*
Y6373D02*
D03*
X15150Y6627D02*
D03*
Y6373D02*
D03*
X14896Y6627D02*
D03*
Y6373D02*
D03*
X14642Y6627D02*
D03*
Y6373D02*
D03*
X14388Y6627D02*
D03*
X127Y3612D02*
D03*
X-127D02*
D03*
X127Y3358D02*
D03*
X-127D02*
D03*
Y3104D02*
D03*
X127D02*
D03*
X-127Y2850D02*
D03*
X127D02*
D03*
X-127Y2596D02*
D03*
X127D02*
D03*
X-127Y2342D02*
D03*
X127D02*
D03*
X-127Y2088D02*
D03*
X12888Y2027D02*
D03*
X13142D02*
D03*
X13396D02*
D03*
X13650D02*
D03*
X13904D02*
D03*
X14158D02*
D03*
X14412D02*
D03*
Y1773D02*
D03*
X13904D02*
D03*
X13396D02*
D03*
X13142D02*
D03*
X13650D02*
D03*
X14158D02*
D03*
X17700Y762D02*
D03*
Y508D02*
D03*
Y254D02*
D03*
X11505Y4128D02*
D03*
Y4382D02*
D03*
Y4636D02*
D03*
X9200Y762D02*
D03*
Y508D02*
D03*
Y254D02*
D03*
X4000Y4525D02*
D03*
X7825Y4550D02*
D03*
X13750Y4250D02*
D03*
D51*
X5576Y4851D02*
D03*
X1700Y3750D02*
D03*
X127Y2088D02*
D03*
X17700Y0D02*
D03*
X11505Y4890D02*
D03*
X9200Y0D02*
D03*
D52*
X1103Y2745D02*
D03*
X11788Y6373D02*
D03*
X14388D02*
D03*
X12888Y1773D02*
D03*
D53*
X1050Y175D02*
D03*
X1750D02*
D03*
X5868Y-356D02*
D03*
X6122D02*
D03*
X5868Y406D02*
D03*
X-50Y4400D02*
D03*
Y4900D02*
D03*
Y5400D02*
D03*
Y5900D02*
D03*
D54*
X6122Y406D02*
D03*
D55*
X2427Y50D02*
D03*
X2173D02*
D03*
X2427Y-200D02*
D03*
X2173D02*
D03*
X9747Y-203D02*
D03*
X9493D02*
D03*
D56*
X12262Y3778D02*
D03*
X11638D02*
D03*
X10210Y3915D02*
D03*
X14650Y3250D02*
D03*
D57*
X12262Y3578D02*
D03*
X11638D02*
D03*
X10210Y3715D02*
D03*
X14650Y3450D02*
D03*
D58*
X3553Y6217D02*
D03*
D59*
X3877D02*
D03*
D60*
X17225Y0D02*
D03*
X16875D02*
D03*
X16525D02*
D03*
X16175D02*
D03*
X15825D02*
D03*
X15475D02*
D03*
X15125D02*
D03*
X14775D02*
D03*
D61*
X14140Y894D02*
D03*
X14013Y641D02*
D03*
X13887Y894D02*
D03*
X12736D02*
D03*
X12863Y641D02*
D03*
X12990Y894D02*
D03*
X11840D02*
D03*
X11714Y641D02*
D03*
X11586Y894D02*
D03*
X10436D02*
D03*
X10564Y641D02*
D03*
X10690Y894D02*
D03*
X7441Y895D02*
D03*
X7314Y641D02*
D03*
X7187Y895D02*
D03*
X8337D02*
D03*
X8464Y641D02*
D03*
X8591Y895D02*
D03*
X5193Y641D02*
D03*
X5066Y895D02*
D03*
X4685Y641D02*
D03*
X4939D02*
D03*
X4812Y895D02*
D03*
X3840Y641D02*
D03*
X3713Y895D02*
D03*
X3332Y641D02*
D03*
X3586D02*
D03*
X3459Y895D02*
D03*
D62*
X13567Y5D02*
D03*
X14333D02*
D03*
X13183D02*
D03*
X12417D02*
D03*
X11267D02*
D03*
X12033D02*
D03*
X10883D02*
D03*
X10117D02*
D03*
X6867Y6D02*
D03*
X7633D02*
D03*
X8783D02*
D03*
X8017D02*
D03*
X4367D02*
D03*
X5383D02*
D03*
X3015D02*
D03*
X4031D02*
D03*
D63*
X13760Y641D02*
D03*
X12610D02*
D03*
X11460D02*
D03*
X10310D02*
D03*
X7060Y641D02*
D03*
X8210D02*
D03*
X4558Y895D02*
D03*
X3205D02*
D03*
D64*
X14580Y4310D02*
D03*
Y4430D02*
D03*
Y4550D02*
D03*
X12712Y2533D02*
D03*
X13198Y4800D02*
D03*
X8835Y1298D02*
D03*
X7672Y1295D02*
D03*
X14240Y4860D02*
D03*
X14340Y4760D02*
D03*
X12870Y4360D02*
D03*
Y4600D02*
D03*
Y4480D02*
D03*
X1770Y1893D02*
D03*
X1515Y1598D02*
D03*
X1595Y2053D02*
D03*
X1025Y2048D02*
D03*
X2765Y2795D02*
D03*
X2945Y2668D02*
D03*
M02*
