M48
;Layer_Color=9474304
;FILE_FORMAT=4:2
METRIC,LZ
;TYPE=PLATED
T1F00S00C0.30
T2F00S00C0.60
T3F00S00C0.70
T4F00S00C0.76
T5F00S00C0.80
T6F00S00C0.90
T7F00S00C1.00
T8F00S00C1.20
T9F00S00C1.40
T10F00S00C1.50
T11F00S00C3.00
;TYPE=NON_PLATED
T12F00S00C3.00
%
T01
X012712Y002533
X008835Y001298
X007672Y001295
X002945Y002668
X002765Y002795
X00177Y001893
X001595Y002053
X001515Y001598
X001025Y002048
X01287Y00436
Y00448
Y0046
X013198Y0048
X01424Y00486
X01434Y00476
X01458Y00455
Y00443
Y00431
T02
X003553Y006217
X003877
X01021Y003915
Y003715
X011638Y003778
Y003578
X012262
Y003778
X01465Y00345
Y00325
T03
X006846Y002819
X004814Y002819
X001865Y002745
X001611
X001357Y002745
X001103Y002745
X005576Y004851
X006084
X006846
T04
X0123Y004296
Y004804
T05
X009493Y-000203
X009747
X002427Y-0002
Y00005
X002173
Y-0002
X0017Y00375
X0017Y00425
X004Y004525
X007825Y00455
X01375Y00425
T06
X014158Y001773
Y002027
X014412
Y001773
X014823Y001769
X015077Y001769
X015423Y001769
X015677Y001769
X016023Y001769
X016277Y001769
X016624Y001764
X016878
Y002526
X016624Y002526
X016277Y002531
X016023
X015677Y002531
X015423
X015077Y002531
X014823
X0177Y000762
Y000508
Y000254
Y0
X013904Y001773
Y002027
X01365
X013396
X013142
X012888
Y001773
X013142
X013396
X01365
X012477Y001769
X012223Y001769
X011877Y001769
X011623
X011277Y001769
X011023
X010677Y001769
X010423
Y002531
X010677
X011023Y002531
X011277
X011623Y002531
X011877
X012223Y002531
X012477
X008481Y002948
X007719
X0092Y000762
Y000508
Y000254
Y0
X002991Y001379
Y001633
Y001887
Y002141
X002229
X002229Y001887
Y001633
X002229Y001379
X000127Y002088
Y002342
Y002596
Y00285
X-000127
Y002596
Y002342
Y002088
Y003104
Y003358
Y003612
X000127
Y003358
Y003104
X007719Y003202
X008481
X011505Y004128
Y004382
Y004636
Y00489
X011788Y006373
X012042
X012296
X01255
X012804
X013058
X013312
Y006627
X013058
X012804
X01255
X012296
X012042
X011788
X014388
X014642
X014896
X01515
X015404
X015658
X015912
Y006373
X015658
X015404
X01515
X014896
X014642
X014388
T07
X014013Y000641
X01414Y000894
X013887
X01376Y000641
X012863
X01261
X012736Y000894
X01299
X01184
X011586
X01146Y000641
X011714
X010564
X01031
X010436Y000894
X01069
X008591Y000895
X008337
X008464Y000641
X00821
X007314
X00706
X007187Y000895
X007441
X00621Y001085
X006122Y000406
Y-000356
X005868
Y000406
X005955Y001085
X005066Y000895
X004812
X004558
X004685Y000641
X004939
X005193
X00384
X003586
X003332
X003205Y000895
X003459
X003713
X001625Y-000075
X001175
X00063Y000753
Y001007
Y00126
X00255Y00375
X00295Y00375
X00295Y00425
X00255Y00425
X006713Y006231
Y006739
X007613
Y006231
X008513
Y006739
X009413Y006739
Y006231
X010313
Y006739
T08
X00105Y000175
X00175
X-00005Y0044
Y0049
Y0054
Y0059
T09
X014775Y0
X015125
X015475
X015825
X016175
X016525
X016875
X017225
T10
X0029Y00473
X002895Y006262
T11
X008Y002
X0Y0
Y0065
X00205
X00485
X00925Y00325
X0175
Y0065
T12
X014333Y000005
X013567
X013183
X012417
X012033
X011267
X010883
X010117
X008783Y000006
X008017
X007633
X006867
X005383
X004367
X004031
X003015
M30
