G04 Layer_Physical_Order=1*
G04 Layer_Color=255*
%FSLAX42Y42*%
%MOMM*%
G71*
G01*
G75*
%ADD10C,0.50*%
%ADD11C,0.40*%
%ADD12C,0.30*%
%ADD13C,0.25*%
%ADD14R,1.50X1.50*%
%ADD15C,1.50*%
%ADD16C,0.50*%
%ADD17C,1.00*%
D10*
X-50Y5709D02*
G03*
X-50Y5631I-113J-39D01*
G01*
Y5709D02*
G03*
X-50Y5631I-113J-39D01*
G01*
X-806Y5023D02*
G03*
X-806Y5023I-120J0D01*
G01*
D02*
G03*
X-806Y5023I-120J0D01*
G01*
X-839Y2055D02*
G03*
X-782Y2182I-113J127D01*
G01*
Y1928D02*
G03*
X-839Y2055I-170J0D01*
G01*
X-782Y2182D02*
G03*
X-1079Y2295I-170J0D01*
G01*
Y1815D02*
G03*
X-782Y1928I127J113D01*
G01*
X-1060Y5670D02*
G03*
X-1060Y5670I-120J0D01*
G01*
D02*
G03*
X-1060Y5670I-120J0D01*
G01*
X-1314D02*
G03*
X-1314Y5670I-120J0D01*
G01*
D02*
G03*
X-1314Y5670I-120J0D01*
G01*
X-1079Y2295D02*
G03*
X-1333Y2295I-127J-113D01*
G01*
X-1065Y2055D02*
G03*
X-1079Y2041I113J-127D01*
G01*
Y2069D02*
G03*
X-1065Y2055I127J113D01*
G01*
X-1079Y2041D02*
G03*
X-1093Y2055I-127J-113D01*
G01*
D02*
G03*
X-1079Y2069I-113J127D01*
G01*
X-1165Y1763D02*
G03*
X-1079Y1815I-41J165D01*
G01*
X-1822Y5023D02*
G03*
X-1822Y5023I-120J0D01*
G01*
D02*
G03*
X-1822Y5023I-120J0D01*
G01*
X-1333Y2295D02*
G03*
X-1587Y2295I-127J-113D01*
G01*
D02*
G03*
X-1841Y2295I-127J-113D01*
G01*
X-1955Y1759D02*
G03*
X-1921Y1684I115J6D01*
G01*
X-1955Y1759D02*
G03*
X-1921Y1684I115J6D01*
G01*
X-660Y1210D02*
G03*
X-694Y1291I-115J0D01*
G01*
X-660Y1210D02*
G03*
X-694Y1291I-115J0D01*
G01*
X-890Y1099D02*
G03*
X-1003Y1077I-36J-114D01*
G01*
X-890Y1099D02*
G03*
X-1003Y1077I-36J-114D01*
G01*
X-630Y970D02*
G03*
X-660Y1058I-145J0D01*
G01*
X-50Y387D02*
G03*
X-50Y313I-114J-37D01*
G01*
Y387D02*
G03*
X-50Y313I-114J-37D01*
G01*
X-883Y873D02*
G03*
X-630Y970I108J97D01*
G01*
X-997Y889D02*
G03*
X-883Y873I71J96D01*
G01*
X-997Y889D02*
G03*
X-883Y873I71J96D01*
G01*
X-1213Y860D02*
G03*
X-997Y889I95J110D01*
G01*
X-1423Y1058D02*
G03*
X-1213Y860I115J-88D01*
G01*
X-1822Y985D02*
G03*
X-1822Y985I-120J0D01*
G01*
D02*
G03*
X-1822Y985I-120J0D01*
G01*
X-1060Y350D02*
G03*
X-1060Y350I-120J0D01*
G01*
D02*
G03*
X-1060Y350I-120J0D01*
G01*
X-1314D02*
G03*
X-1314Y350I-120J0D01*
G01*
D02*
G03*
X-1314Y350I-120J0D01*
G01*
X-2330Y5670D02*
G03*
X-2330Y5670I-120J0D01*
G01*
D02*
G03*
X-2330Y5670I-120J0D01*
G01*
X-2076Y5023D02*
G03*
X-2076Y5023I-120J0D01*
G01*
D02*
G03*
X-2076Y5023I-120J0D01*
G01*
X-2095Y2295D02*
G03*
X-2349Y2295I-127J-113D01*
G01*
X-1841D02*
G03*
X-2095Y2295I-127J-113D01*
G01*
X-3092Y5023D02*
G03*
X-3092Y5023I-120J0D01*
G01*
D02*
G03*
X-3092Y5023I-120J0D01*
G01*
X-2081Y2055D02*
G03*
X-2095Y2041I113J-127D01*
G01*
X-2095Y1815D02*
G03*
X-1955Y1759I127J113D01*
G01*
X-2095Y2069D02*
G03*
X-2081Y2055I127J113D01*
G01*
X-2306Y1780D02*
G03*
X-2095Y1815I84J148D01*
G01*
X-2109Y2055D02*
G03*
X-2095Y2069I-113J127D01*
G01*
Y2041D02*
G03*
X-2109Y2055I-127J-113D01*
G01*
X-2076Y985D02*
G03*
X-2076Y985I-120J0D01*
G01*
D02*
G03*
X-2076Y985I-120J0D01*
G01*
X-2349Y2295D02*
G03*
X-2624Y2098I-127J-113D01*
G01*
X-2330Y350D02*
G03*
X-2330Y350I-120J0D01*
G01*
D02*
G03*
X-2330Y350I-120J0D01*
G01*
X-3092Y985D02*
G03*
X-3092Y985I-120J0D01*
G01*
D02*
G03*
X-3092Y985I-120J0D01*
G01*
X-118Y5781D02*
X-50D01*
Y5709D02*
Y5950D01*
X-60Y5731D02*
X-50D01*
X-83Y5581D02*
X-50D01*
X-197Y5785D02*
Y5950D01*
X-247Y5756D02*
Y5950D01*
X-97Y5770D02*
Y5950D01*
X-147Y5789D02*
Y5950D01*
X-821Y5081D02*
X-50D01*
X-806Y5031D02*
X-50D01*
X-813Y4981D02*
X-50D01*
X-797Y2252D02*
Y5950D01*
X-847Y5113D02*
Y5950D01*
Y2316D02*
Y4932D01*
X-848Y4931D02*
X-50D01*
X-1076Y5731D02*
X-267D01*
X-1134Y5781D02*
X-209D01*
X-875Y5131D02*
X-50D01*
X-1099Y5581D02*
X-244D01*
X-897Y5139D02*
Y5950D01*
X-947Y5141D02*
Y5950D01*
X-1060Y5681D02*
X-283D01*
X-1066Y5631D02*
X-277D01*
X-997Y5119D02*
Y5950D01*
X-1891Y5131D02*
X-977D01*
X-1829Y4981D02*
X-1039D01*
X-1837Y5081D02*
X-1031D01*
X-997Y2346D02*
Y4926D01*
X-1864Y4931D02*
X-1004D01*
X-789Y2231D02*
X-50D01*
X-782Y2181D02*
X-50D01*
X-814Y2281D02*
X-50D01*
X-790Y2131D02*
X-50D01*
X-815Y2081D02*
X-50D01*
X-797Y1998D02*
Y2112D01*
X-790Y1981D02*
X-50D01*
X-817Y2031D02*
X-50D01*
X-782Y1931D02*
X-50D01*
X-789Y1881D02*
X-50D01*
X-812Y1831D02*
X-50D01*
X-867Y1781D02*
X-50D01*
X-797Y1395D02*
Y1858D01*
X-833Y1431D02*
X-50D01*
X-847Y1445D02*
Y1794D01*
X-870Y2331D02*
X-50D01*
X-1133Y1731D02*
X-50D01*
X-897Y2343D02*
Y4906D01*
X-947Y2352D02*
Y4904D01*
X-1121Y1781D02*
X-1037D01*
X-1124Y2331D02*
X-1034D01*
X-1033Y1631D02*
X-50D01*
X-1083Y1681D02*
X-50D01*
X-883Y1481D02*
X-50D01*
X-983Y1581D02*
X-50D01*
X-897Y1495D02*
Y1767D01*
X-997Y1595D02*
Y1764D01*
X-933Y1531D02*
X-50D01*
X-947Y1545D02*
Y1758D01*
X-1147Y5786D02*
Y5950D01*
X-1097Y5757D02*
Y5950D01*
X-1197Y5789D02*
Y5950D01*
X-1247Y5769D02*
Y5950D01*
X-1388Y5781D02*
X-1225D01*
X-1347Y5753D02*
Y5950D01*
X-1397Y5784D02*
Y5950D01*
X-1297Y5694D02*
Y5950D01*
X-1330Y5731D02*
X-1283D01*
X-1047Y2323D02*
Y5950D01*
X-1097Y2313D02*
Y5583D01*
X-1297Y2326D02*
Y5646D01*
X-1314Y5681D02*
X-1299D01*
X-1320Y5631D02*
X-1293D01*
X-1347Y2309D02*
Y5587D01*
X-1447Y5789D02*
Y5950D01*
X-1497Y5772D02*
Y5950D01*
X-1947Y5142D02*
Y5950D01*
X-1997Y5129D02*
Y5950D01*
X-1547Y5709D02*
Y5950D01*
X-1897Y5134D02*
Y5950D01*
X-1647Y2338D02*
Y5950D01*
X-1697Y2351D02*
Y5950D01*
X-1547Y2328D02*
Y5631D01*
X-1597Y2305D02*
Y5950D01*
X-1847Y5096D02*
Y5950D01*
X-2047Y5080D02*
Y5950D01*
X-1747Y2349D02*
Y5950D01*
X-1797Y2330D02*
Y5950D01*
X-1247Y2347D02*
Y5571D01*
X-1147Y2341D02*
Y5554D01*
X-1353Y5581D02*
X-1260D01*
X-1197Y2352D02*
Y5551D01*
X-1397Y2340D02*
Y5556D01*
X-1497Y2348D02*
Y5568D01*
X-1378Y2331D02*
X-1288D01*
X-1447Y2352D02*
Y5551D01*
X-1047Y1645D02*
Y1787D01*
X-1097Y1695D02*
Y1797D01*
X-1147Y1745D02*
Y1769D01*
X-1822Y5031D02*
X-1046D01*
X-1897Y2337D02*
Y4911D01*
X-2076Y5031D02*
X-2062D01*
X-2083Y4981D02*
X-2055D01*
X-1947Y2351D02*
Y4903D01*
X-1997Y2349D02*
Y4916D01*
X-1632Y2331D02*
X-1542D01*
X-1886D02*
X-1796D01*
X-1847Y2302D02*
Y4949D01*
X-2047Y2332D02*
Y4965D01*
X-147Y469D02*
Y5551D01*
X-97Y450D02*
Y5570D01*
X-662Y1231D02*
X-50D01*
X-660Y1131D02*
X-50D01*
X-660Y1181D02*
X-50D01*
X-247Y437D02*
Y5584D01*
X-647Y1038D02*
Y5950D01*
X-197Y465D02*
Y5555D01*
X-660Y1058D02*
Y1210D01*
X-347Y50D02*
Y5950D01*
X-397Y50D02*
Y5950D01*
X-50Y387D02*
Y5631D01*
X-297Y50D02*
Y5950D01*
X-547Y50D02*
Y5950D01*
X-597Y50D02*
Y5950D01*
X-447Y50D02*
Y5950D01*
X-497Y50D02*
Y5950D01*
X-733Y1331D02*
X-50D01*
X-783Y1381D02*
X-50D01*
X-685Y1281D02*
X-50D01*
X-697Y1295D02*
Y5950D01*
X-747Y1345D02*
Y5950D01*
X-1165Y1763D02*
X-694Y1291D01*
X-890Y1099D02*
Y1162D01*
X-1003Y1275D02*
X-890Y1162D01*
X-1003Y1131D02*
X-890D01*
X-947Y1103D02*
Y1219D01*
X-1003Y1181D02*
X-909D01*
X-897Y1101D02*
Y1169D01*
X-643Y1031D02*
X-50D01*
X-630Y981D02*
X-50D01*
X-660Y1081D02*
X-50D01*
X-66Y281D02*
X-50D01*
X-635Y931D02*
X-50D01*
X-661Y881D02*
X-50D01*
X-75Y431D02*
X-50D01*
X-149Y231D02*
X-50D01*
Y50D02*
Y313D01*
X-97Y50D02*
Y250D01*
X-247Y50D02*
Y263D01*
X-647Y50D02*
Y902D01*
X-147Y50D02*
Y231D01*
X-197Y50D02*
Y235D01*
X-734Y831D02*
X-50D01*
X-1091Y431D02*
X-253D01*
X-1062Y331D02*
X-282D01*
X-1064Y381D02*
X-280D01*
X-1076Y831D02*
X-816D01*
X-697Y50D02*
Y848D01*
X-747Y50D02*
Y828D01*
X-1082Y281D02*
X-262D01*
X-1165Y231D02*
X-179D01*
X-897Y50D02*
Y869D01*
X-947Y50D02*
Y867D01*
X-797Y50D02*
Y827D01*
X-847Y50D02*
Y844D01*
X-997Y1082D02*
Y1269D01*
X-1003Y1077D02*
Y1275D01*
Y1231D02*
X-959D01*
X-1003Y881D02*
X-986D01*
X-1423Y1058D02*
Y1185D01*
X-1447Y1009D02*
Y1209D01*
Y469D02*
Y931D01*
X-1547Y390D02*
Y1309D01*
X-1597Y50D02*
Y1359D01*
X-997Y50D02*
Y888D01*
X-1497Y452D02*
Y1259D01*
X-1747Y50D02*
Y1509D01*
X-1797Y50D02*
Y1559D01*
X-1647Y50D02*
Y1409D01*
X-1697Y50D02*
Y1459D01*
X-1847Y1058D02*
Y1609D01*
X-1921Y1684D02*
X-1423Y1185D01*
X-1831Y1031D02*
X-1439D01*
X-1870Y1081D02*
X-1423D01*
X-1997Y1092D02*
Y1761D01*
X-2047Y1043D02*
Y1778D01*
X-1897Y1096D02*
Y1659D01*
X-1947Y1105D02*
Y1723D01*
X-1822Y981D02*
X-1452D01*
X-1835Y931D02*
X-1447D01*
X-2076Y981D02*
X-2062D01*
X-2085Y1031D02*
X-2053D01*
X-1847Y50D02*
Y912D01*
X-2047Y50D02*
Y927D01*
X-1197Y469D02*
Y849D01*
X-1266Y831D02*
X-1159D01*
X-1097Y437D02*
Y826D01*
X-1147Y465D02*
Y828D01*
X-1247Y449D02*
Y838D01*
X-1297Y376D02*
Y825D01*
X-1316Y331D02*
X-1298D01*
X-1318Y381D02*
X-1296D01*
X-1047Y50D02*
Y843D01*
X-1097Y50D02*
Y263D01*
X-1247Y50D02*
Y251D01*
X-1297Y50D02*
Y324D01*
X-1147Y50D02*
Y235D01*
X-1197Y50D02*
Y231D01*
X-1345Y431D02*
X-1269D01*
X-1336Y281D02*
X-1278D01*
X-1419Y231D02*
X-1195D01*
X-1397Y464D02*
Y856D01*
X-1882Y881D02*
X-1422D01*
X-1347Y433D02*
Y831D01*
Y50D02*
Y267D01*
X-1497Y50D02*
Y248D01*
X-1397Y50D02*
Y236D01*
X-1447Y50D02*
Y231D01*
X-1897Y50D02*
Y874D01*
X-1997Y50D02*
Y878D01*
X-1547Y50D02*
Y310D01*
X-1947Y50D02*
Y865D01*
X-3450Y5881D02*
X-50D01*
X-3450Y5831D02*
X-50D01*
X-3450Y5931D02*
X-50D01*
X-3450Y5481D02*
X-50D01*
X-3450Y5531D02*
X-50D01*
X-2404Y5781D02*
X-1479D01*
X-3450Y5950D02*
X-50D01*
X-2346Y5731D02*
X-1537D01*
X-2369Y5581D02*
X-1514D01*
X-3450Y5181D02*
X-50D01*
X-3450Y5231D02*
X-50D01*
X-3450Y4831D02*
X-50D01*
X-3450Y4881D02*
X-50D01*
X-3450Y5381D02*
X-50D01*
X-3450Y5431D02*
X-50D01*
X-3450Y5281D02*
X-50D01*
X-3450Y5331D02*
X-50D01*
X-3450Y4531D02*
X-50D01*
X-3450Y4581D02*
X-50D01*
X-3450Y4431D02*
X-50D01*
X-3450Y4481D02*
X-50D01*
X-3450Y4731D02*
X-50D01*
X-3450Y4781D02*
X-50D01*
X-3450Y4631D02*
X-50D01*
X-3450Y4681D02*
X-50D01*
X-3450Y4131D02*
X-50D01*
X-3450Y4181D02*
X-50D01*
X-3450Y4031D02*
X-50D01*
X-3450Y4081D02*
X-50D01*
X-3450Y4331D02*
X-50D01*
X-3450Y4381D02*
X-50D01*
X-3450Y4231D02*
X-50D01*
X-3450Y4281D02*
X-50D01*
X-3175Y2931D02*
X-50D01*
X-3175Y2881D02*
X-50D01*
X-3175Y2981D02*
X-50D01*
X-3175Y2781D02*
X-50D01*
X-3175Y2831D02*
X-50D01*
X-3175Y3131D02*
X-50D01*
X-3175Y3181D02*
X-50D01*
X-3175Y3031D02*
X-50D01*
X-3175Y3081D02*
X-50D01*
X-3175Y2481D02*
X-50D01*
X-3175Y2531D02*
X-50D01*
X-3175Y2381D02*
X-50D01*
X-3175Y2431D02*
X-50D01*
X-3175Y2681D02*
X-50D01*
X-3175Y2731D02*
X-50D01*
X-3175Y2581D02*
X-50D01*
X-3175Y2631D02*
X-50D01*
X-3450Y3731D02*
X-50D01*
X-3450Y3781D02*
X-50D01*
X-3450Y3631D02*
X-50D01*
X-3450Y3681D02*
X-50D01*
X-3450Y3931D02*
X-50D01*
X-3450Y3981D02*
X-50D01*
X-3450Y3831D02*
X-50D01*
X-3450Y3881D02*
X-50D01*
X-3175Y3331D02*
X-50D01*
X-3175Y3381D02*
X-50D01*
X-3175Y3231D02*
X-50D01*
X-3175Y3281D02*
X-50D01*
X-3450Y3531D02*
X-50D01*
X-3450Y3581D02*
X-50D01*
X-3175Y3431D02*
X-50D01*
X-3450Y3481D02*
X-50D01*
X-2347Y5733D02*
Y5950D01*
X-2197Y5142D02*
Y5950D01*
X-2330Y5681D02*
X-1553D01*
X-2336Y5631D02*
X-1547D01*
X-2497Y5780D02*
Y5950D01*
X-2547Y5740D02*
Y5950D01*
X-2397Y5778D02*
Y5950D01*
X-2447Y5790D02*
Y5950D01*
X-2247Y5131D02*
Y5950D01*
X-2297Y5087D02*
Y5950D01*
X-2097Y5090D02*
Y5950D01*
X-2147Y5132D02*
Y5950D01*
X-2347Y2297D02*
Y5607D01*
X-2547Y2336D02*
Y5600D01*
X-2397Y2333D02*
Y5562D01*
X-2497Y2351D02*
Y5560D01*
X-3450Y5781D02*
X-2495D01*
X-3450Y5581D02*
X-2530D01*
X-3450Y5731D02*
X-2553D01*
X-3197Y5142D02*
Y5950D01*
X-3247Y5137D02*
Y5950D01*
X-3450Y5631D02*
X-2563D01*
X-3450Y5681D02*
X-2569D01*
X-3147Y5123D02*
Y5950D01*
X-3297Y5107D02*
Y5950D01*
X-2597Y2301D02*
Y5950D01*
X-3097Y5057D02*
Y5950D01*
X-3447Y3464D02*
Y5950D01*
X-3450Y3464D02*
Y5950D01*
X-3347Y3464D02*
Y5950D01*
X-3397Y3464D02*
Y5950D01*
X-2145Y5131D02*
X-1993D01*
X-2091Y5081D02*
X-2047D01*
X-2118Y4931D02*
X-2020D01*
X-3092Y5031D02*
X-2316D01*
X-2197Y2350D02*
Y4903D01*
X-2247Y2350D02*
Y4914D01*
X-2097Y2297D02*
Y4955D01*
X-2140Y2331D02*
X-2050D01*
X-2297Y2335D02*
Y4958D01*
X-2447Y2350D02*
Y5550D01*
X-2147Y2335D02*
Y4913D01*
X-2394Y2331D02*
X-2304D01*
X-3107Y5081D02*
X-2301D01*
X-3161Y5131D02*
X-2247D01*
X-3099Y4981D02*
X-2309D01*
X-3134Y4931D02*
X-2274D01*
X-3450Y5081D02*
X-3317D01*
X-3450Y5131D02*
X-3263D01*
X-3450Y4981D02*
X-3325D01*
X-3450Y5031D02*
X-3332D01*
X-3175Y2331D02*
X-2558D01*
X-3450Y3464D02*
X-3175D01*
X-3297D02*
Y4938D01*
X-3450Y4931D02*
X-3290D01*
X-3197Y3464D02*
Y4903D01*
X-3247Y3464D02*
Y4908D01*
X-2137Y1781D02*
X-2053D01*
X-2097Y2043D02*
Y2067D01*
X-2306Y1758D02*
Y1780D01*
X-2097Y1053D02*
Y1813D01*
X-2147Y1095D02*
Y1775D01*
X-2247Y1094D02*
Y1760D01*
X-2297Y1050D02*
Y1775D01*
X-2197Y1105D02*
Y1760D01*
X-2347Y412D02*
Y1758D01*
X-2980Y1581D02*
X-1819D01*
X-2980Y1631D02*
X-1869D01*
X-2980Y1481D02*
X-1719D01*
X-2980Y1531D02*
X-1769D01*
X-2646Y1758D02*
X-2306D01*
X-2980Y1681D02*
X-1919D01*
X-2980Y1731D02*
X-1950D01*
X-2980Y1281D02*
X-1519D01*
X-3450Y1231D02*
X-1469D01*
X-3450Y1131D02*
X-1423D01*
X-3450Y1181D02*
X-1423D01*
X-2397Y458D02*
Y1758D01*
X-2980Y1431D02*
X-1669D01*
X-2980Y1331D02*
X-1569D01*
X-2980Y1381D02*
X-1619D01*
X-2334Y381D02*
X-1550D01*
X-2332Y331D02*
X-1552D01*
X-2361Y431D02*
X-1523D01*
X-2352Y281D02*
X-1532D01*
X-2435Y231D02*
X-1449D01*
X-2124Y1081D02*
X-2014D01*
X-3092Y981D02*
X-2316D01*
X-2089Y931D02*
X-2049D01*
X-2136Y881D02*
X-2002D01*
X-2097Y50D02*
Y917D01*
X-2247Y50D02*
Y876D01*
X-2147Y50D02*
Y875D01*
X-2197Y50D02*
Y865D01*
X-2297Y50D02*
Y920D01*
X-2347Y50D02*
Y288D01*
X-3450Y781D02*
X-50D01*
X-3450Y831D02*
X-1349D01*
X-3450Y681D02*
X-50D01*
X-3450Y731D02*
X-50D01*
X-3101Y1031D02*
X-2307D01*
X-3140Y1081D02*
X-2268D01*
X-3105Y931D02*
X-2303D01*
X-3152Y881D02*
X-2256D01*
X-3450Y131D02*
X-50D01*
X-3450Y181D02*
X-50D01*
X-3450Y50D02*
X-50D01*
X-3450Y81D02*
X-50D01*
X-3450Y581D02*
X-50D01*
X-3450Y631D02*
X-50D01*
X-3450Y481D02*
X-50D01*
X-3450Y531D02*
X-50D01*
X-2646Y2098D02*
X-2624D01*
X-2547Y420D02*
Y1758D01*
X-2980Y2131D02*
X-2638D01*
X-2447Y470D02*
Y1758D01*
X-2497Y460D02*
Y1758D01*
X-2646D02*
Y2098D01*
X-2980Y1280D02*
Y2140D01*
Y1931D02*
X-2646D01*
X-2980Y1981D02*
X-2646D01*
X-2697Y50D02*
Y5950D01*
X-2747Y50D02*
Y5950D01*
X-2597Y50D02*
Y1758D01*
X-2647Y50D02*
Y5950D01*
X-2897Y50D02*
Y5950D01*
X-2947Y50D02*
Y5950D01*
X-2797Y50D02*
Y5950D01*
X-2847Y50D02*
Y5950D01*
X-3175Y2231D02*
X-2639D01*
X-3175Y2281D02*
X-2614D01*
X-3175Y2140D02*
X-2980D01*
X-3175Y2181D02*
X-2646D01*
X-2997Y2140D02*
Y5950D01*
X-3047Y2140D02*
Y5950D01*
X-3097Y2140D02*
Y4988D01*
X-3175Y2140D02*
Y3464D01*
X-2980Y2031D02*
X-2646D01*
X-2980Y2081D02*
X-2646D01*
X-2980Y1831D02*
X-2646D01*
X-2980Y1881D02*
X-2646D01*
X-2980Y1781D02*
X-2646D01*
X-3147Y2140D02*
Y4922D01*
X-3097Y1020D02*
Y1280D01*
X-3147Y1086D02*
Y1280D01*
X-2997Y50D02*
Y1280D01*
X-3175D02*
X-2980D01*
X-2447Y50D02*
Y230D01*
X-2547Y50D02*
Y280D01*
X-3247Y1100D02*
Y1275D01*
X-3297Y1070D02*
Y1275D01*
X-3197Y1104D02*
Y1275D01*
X-3047Y50D02*
Y1280D01*
X-3097Y50D02*
Y950D01*
X-2397Y50D02*
Y242D01*
X-2497Y50D02*
Y240D01*
X-3147Y50D02*
Y884D01*
X-3297Y50D02*
Y900D01*
X-3197Y50D02*
Y866D01*
X-3247Y50D02*
Y870D01*
X-3450Y1275D02*
X-3175D01*
X-3450Y431D02*
X-2539D01*
X-3450Y881D02*
X-3272D01*
X-3450Y1031D02*
X-3323D01*
X-3450Y1081D02*
X-3284D01*
X-3450Y931D02*
X-3319D01*
X-3450Y981D02*
X-3332D01*
X-3450Y331D02*
X-2568D01*
X-3450Y381D02*
X-2566D01*
X-3450Y231D02*
X-2465D01*
X-3450Y281D02*
X-2548D01*
X-3447Y50D02*
Y1275D01*
X-3450Y50D02*
Y1275D01*
X-3347Y50D02*
Y1275D01*
X-3397Y50D02*
Y1275D01*
D11*
X-1968Y2182D02*
X-1840Y2054D01*
X-1714Y2182D02*
X-1588Y2055D01*
X-1460Y2182D02*
X-1330Y2052D01*
X-1588Y1768D02*
Y2055D01*
Y1768D02*
X-1118Y1298D01*
Y970D02*
Y1298D01*
X-1330Y1765D02*
Y2052D01*
Y1765D02*
X-775Y1210D01*
Y970D02*
Y1210D01*
X-1840Y1765D02*
Y2054D01*
Y1765D02*
X-1308Y1233D01*
Y970D02*
Y1233D01*
D12*
X-3400Y1480D02*
X-3420Y1460D01*
Y1420D01*
X-3400Y1400D01*
X-3380D01*
X-3360Y1420D01*
Y1460D01*
X-3340Y1480D01*
X-3320D01*
X-3300Y1460D01*
Y1420D01*
X-3320Y1400D01*
X-3300Y1520D02*
X-3420D01*
X-3380Y1560D01*
X-3420Y1600D01*
X-3300D01*
X-3360Y1640D02*
Y1720D01*
X-3400Y1840D02*
X-3420Y1820D01*
Y1780D01*
X-3400Y1760D01*
X-3320D01*
X-3300Y1780D01*
Y1820D01*
X-3320Y1840D01*
X-3300Y1900D02*
Y1940D01*
X-3320Y1960D01*
X-3360D01*
X-3380Y1940D01*
Y1900D01*
X-3360Y1880D01*
X-3320D01*
X-3300Y1900D01*
Y2000D02*
X-3380D01*
Y2060D01*
X-3360Y2080D01*
X-3300D01*
Y2120D02*
X-3380D01*
Y2180D01*
X-3360Y2200D01*
X-3300D01*
Y2300D02*
Y2260D01*
X-3320Y2240D01*
X-3360D01*
X-3380Y2260D01*
Y2300D01*
X-3360Y2320D01*
X-3340D01*
Y2240D01*
X-3380Y2440D02*
Y2380D01*
X-3360Y2360D01*
X-3320D01*
X-3300Y2380D01*
Y2440D01*
X-3400Y2500D02*
X-3380D01*
Y2480D01*
Y2520D01*
Y2500D01*
X-3320D01*
X-3300Y2520D01*
X-3420Y2760D02*
Y2720D01*
X-3400Y2700D01*
X-3320D01*
X-3300Y2720D01*
Y2760D01*
X-3320Y2780D01*
X-3400D01*
X-3420Y2760D01*
X-3300Y2820D02*
Y2860D01*
Y2840D01*
X-3420D01*
Y2820D01*
X-3300Y2920D02*
Y2959D01*
Y2940D01*
X-3380D01*
Y2920D01*
X-3300Y3019D02*
X-3380D01*
Y3039D01*
X-3360Y3059D01*
X-3300D01*
X-3360D01*
X-3380Y3079D01*
X-3360Y3099D01*
X-3300D01*
Y3199D02*
Y3159D01*
X-3320Y3139D01*
X-3360D01*
X-3380Y3159D01*
Y3199D01*
X-3360Y3219D01*
X-3340D01*
Y3139D01*
X-3380Y3259D02*
X-3300Y3339D01*
X-3340Y3299D01*
X-3380Y3339D01*
X-3300Y3259D01*
D13*
X-3180Y1400D02*
X-3100D01*
X-3140D01*
X-3160Y1420D01*
X-3180Y1440D01*
Y1460D01*
X-3100Y1580D02*
Y1540D01*
X-3120Y1520D01*
X-3160D01*
X-3180Y1540D01*
Y1580D01*
X-3160Y1600D01*
X-3140D01*
Y1520D01*
X-3180Y1640D02*
X-3100Y1680D01*
X-3180Y1720D01*
X-3100Y1760D02*
X-3120D01*
Y1780D01*
X-3100D01*
Y1760D01*
Y1980D02*
Y2020D01*
Y2000D01*
X-3220D01*
X-3200Y1980D01*
D14*
X-2476Y1928D02*
D03*
D15*
Y2182D02*
D03*
X-2222Y1928D02*
D03*
Y2182D02*
D03*
X-1968Y1928D02*
D03*
Y2182D02*
D03*
X-1714Y1928D02*
D03*
Y2182D02*
D03*
X-1460Y1928D02*
D03*
Y2182D02*
D03*
X-1206D02*
D03*
Y1928D02*
D03*
X-952Y2182D02*
D03*
Y1928D02*
D03*
D16*
X-1942Y985D02*
D03*
X-926D02*
D03*
X-3212D02*
D03*
X-2196D02*
D03*
X-2450Y5670D02*
D03*
X-1434D02*
D03*
X-1180D02*
D03*
X-164D02*
D03*
X-3212Y5023D02*
D03*
X-2196D02*
D03*
X-1942D02*
D03*
X-926D02*
D03*
X-2450Y350D02*
D03*
X-1434D02*
D03*
X-1180D02*
D03*
X-164D02*
D03*
D17*
X-1308Y970D02*
D03*
X-1118D02*
D03*
X-775D02*
D03*
M02*
