G04 Layer_Color=65535*
%FSLAX42Y42*%
%MOMM*%
G71*
G01*
G75*
%ADD32C,0.25*%
%ADD34C,0.60*%
%ADD41C,0.25*%
%ADD66C,0.18*%
%ADD67C,0.20*%
%ADD68C,0.10*%
%ADD69C,0.20*%
%ADD70R,5.50X1.50*%
G36*
X12313Y3918D02*
X12361Y3903D01*
X12406Y3880D01*
X12445Y3848D01*
X12453Y3838D01*
X12072Y3838D01*
X12072Y3838D01*
X12080Y3848D01*
X12119Y3880D01*
X12164Y3903D01*
X12212Y3918D01*
X12262Y3923D01*
X12313Y3918D01*
D02*
G37*
G36*
X11688D02*
X11736Y3903D01*
X11781Y3880D01*
X11820Y3848D01*
X11828Y3838D01*
X11447Y3838D01*
X11447Y3838D01*
X11455Y3848D01*
X11494Y3880D01*
X11539Y3903D01*
X11587Y3918D01*
X11637Y3923D01*
X11688Y3918D01*
D02*
G37*
G36*
X14840Y3190D02*
X14832Y3180D01*
X14793Y3148D01*
X14749Y3124D01*
X14700Y3109D01*
X14650Y3104D01*
X14600Y3109D01*
X14551Y3124D01*
X14507Y3148D01*
X14468Y3180D01*
X14460Y3190D01*
X14840Y3190D01*
X14840Y3190D01*
D02*
G37*
G36*
X3988Y6511D02*
X4024Y6471D01*
X4054Y6426D01*
X4078Y6377D01*
X4095Y6326D01*
X4106Y6273D01*
X4109Y6219D01*
X4106Y6165D01*
X4095Y6112D01*
X4078Y6060D01*
X4054Y6012D01*
X4024Y5967D01*
X3988Y5926D01*
X3973Y5912D01*
X3972Y6525D01*
X3973Y6525D01*
X3988Y6511D01*
D02*
G37*
G36*
X1774Y4492D02*
X1836Y4480D01*
X1895Y4459D01*
X1952Y4432D01*
X2004Y4397D01*
X2052Y4355D01*
X2060Y4345D01*
X1343Y4345D01*
X1342Y4345D01*
X1352Y4356D01*
X1399Y4397D01*
X1451Y4432D01*
X1507Y4460D01*
X1566Y4480D01*
X1628Y4492D01*
X1690Y4496D01*
X1700Y4495D01*
X1700Y4495D01*
X1711Y4496D01*
X1774Y4492D01*
D02*
G37*
G36*
X10260Y4056D02*
X10309Y4041D01*
X10353Y4017D01*
X10392Y3985D01*
X10400Y3975D01*
X10020Y3975D01*
X10020Y3975D01*
X10028Y3985D01*
X10067Y4017D01*
X10111Y4041D01*
X10160Y4056D01*
X10210Y4061D01*
X10260Y4056D01*
D02*
G37*
D32*
X1790Y1300D02*
G03*
X1790Y1300I-12J0D01*
G01*
X1670Y1758D02*
G03*
X1670Y1758I-12J0D01*
G01*
X13210Y4692D02*
G03*
X13210Y4692I-12J0D01*
G01*
X3525Y4450D02*
G03*
X3525Y4450I-12J0D01*
G01*
X11220Y3938D02*
G03*
X11220Y3938I-12J0D01*
G01*
X8021Y5558D02*
G03*
X8021Y5558I-12J0D01*
G01*
D34*
X13445Y4585D02*
G03*
X13445Y4585I-30J0D01*
G01*
D41*
X1103Y2570D02*
G03*
X1103Y2570I-13J0D01*
G01*
D66*
X12503Y4876D02*
G03*
X12097Y4878I-203J1D01*
G01*
X12097Y4226D02*
G03*
X12503Y4225I203J-1D01*
G01*
X12539Y4880D02*
G03*
X12061Y4880I-239J-0D01*
G01*
Y4220D02*
G03*
X12539Y4220I239J0D01*
G01*
X12503Y4225D02*
Y4876D01*
X12097Y4226D02*
Y4878D01*
X12539Y4220D02*
Y4879D01*
X12061Y4220D02*
Y4879D01*
D67*
X2674Y1270D02*
G03*
X2547Y1270I-63J0D01*
G01*
X16515Y2082D02*
G03*
X16515Y2209I0J63D01*
G01*
X15914Y2086D02*
G03*
X15914Y2213I0J63D01*
G01*
X15314Y2086D02*
G03*
X15314Y2213I0J63D01*
G01*
X14714Y2086D02*
G03*
X14714Y2213I0J63D01*
G01*
X12114Y2087D02*
G03*
X12114Y2214I0J63D01*
G01*
X11514Y2086D02*
G03*
X11514Y2214I0J63D01*
G01*
X10914Y2086D02*
G03*
X10914Y2214I0J63D01*
G01*
X10314Y2086D02*
G03*
X10314Y2214I0J63D01*
G01*
X8037Y3311D02*
G03*
X8164Y3311I63J0D01*
G01*
X3250Y4000D02*
G03*
X3250Y4000I-500J0D01*
G01*
X12512Y3678D02*
G03*
X12512Y3678I-250J0D01*
G01*
X1700Y4495D02*
G03*
X1700Y4495I0J-500D01*
G01*
X4115Y6217D02*
G03*
X4115Y6217I-400J0D01*
G01*
X11888Y3678D02*
G03*
X11888Y3678I-250J0D01*
G01*
X10460Y3815D02*
G03*
X10460Y3815I-250J0D01*
G01*
X14900Y3350D02*
G03*
X14900Y3350I-250J0D01*
G01*
X2620Y5100D02*
X2620Y6000D01*
X3170Y5100D02*
Y6000D01*
X2620D02*
X3170D01*
X2620Y5100D02*
X3170D01*
X10113Y6068D02*
Y6903D01*
Y6068D02*
X10513Y6068D01*
Y6903D01*
X10113Y6903D02*
X10513Y6903D01*
X1328Y1050D02*
Y1350D01*
X1828Y1050D02*
Y1350D01*
X1328Y1050D02*
X1828D01*
X1328Y1350D02*
X1828D01*
X1408Y2208D02*
X1708D01*
X1408Y1708D02*
X1708D01*
X1408D02*
Y2208D01*
X1708Y1708D02*
Y2208D01*
X2345Y1270D02*
Y2250D01*
X2875Y1270D02*
Y2250D01*
X2345D02*
X2875D01*
X2345Y1270D02*
X2547D01*
X2674D02*
X2875D01*
X16515Y2410D02*
X16976D01*
X16515Y1880D02*
X16976Y1880D01*
X16976Y2410D02*
X16976Y1880D01*
X16515Y2209D02*
X16515Y2410D01*
X16515Y2082D02*
X16515Y1880D01*
X15914Y2415D02*
X16375D01*
X15914Y1885D02*
X16375Y1885D01*
X16375Y2415D02*
X16375Y1885D01*
X15914Y2213D02*
Y2415D01*
Y1885D02*
Y2086D01*
X15314Y2415D02*
X15775Y2415D01*
X15314Y1885D02*
X15775Y1885D01*
Y2415D01*
X15314Y2213D02*
Y2415D01*
Y1885D02*
X15314Y2086D01*
X14714Y2415D02*
X15175D01*
X14714Y1885D02*
X15175Y1885D01*
X15175Y2415D02*
X15175Y1885D01*
X14714Y2213D02*
X14714Y2415D01*
X14714Y1885D02*
X14714Y2086D01*
X13315Y3815D02*
X14185D01*
X13315Y4685D02*
X14185D01*
Y3815D02*
Y4685D01*
X13315Y3815D02*
Y4685D01*
X12114Y2415D02*
X12575Y2415D01*
X12114Y1885D02*
X12575D01*
Y2415D01*
X12114Y2214D02*
Y2415D01*
X12114Y2086D02*
X12114Y1885D01*
X11514Y2415D02*
X11975D01*
X11514Y1885D02*
X11975Y1885D01*
X11975Y2415D02*
X11975Y1885D01*
X11514Y2214D02*
Y2415D01*
Y1885D02*
Y2086D01*
X10914Y2415D02*
X11375D01*
X10914Y1885D02*
X11375D01*
Y2415D01*
X10914D02*
X10914Y2214D01*
X10914Y1885D02*
X10914Y2086D01*
X10314Y2415D02*
X10775D01*
X10314Y1885D02*
X10775Y1885D01*
Y2415D01*
X10314Y2214D02*
Y2415D01*
Y1885D02*
Y2086D01*
X4560Y5668D02*
Y5768D01*
X4560Y5868D02*
X7100D01*
X7100Y1808D01*
X4560Y1808D02*
X7100Y1808D01*
X4560Y1808D02*
Y5868D01*
X8365Y3311D02*
X8365Y2850D01*
X7835Y2850D02*
Y3311D01*
Y2850D02*
X8365Y2850D01*
X8164Y3311D02*
X8365D01*
X7835Y3311D02*
X8036Y3311D01*
X903Y2620D02*
X2071Y2620D01*
X2071Y3340D02*
X2071Y2620D01*
X903Y3340D02*
X2071Y3340D01*
X903Y2620D02*
Y3340D01*
X953Y2620D02*
Y3340D01*
X2023Y2620D02*
X2023Y3340D01*
X1003Y2620D02*
X1103D01*
X3290Y5767D02*
X4415D01*
Y4070D02*
Y5767D01*
X3290Y4070D02*
X3290Y5767D01*
X3290Y4070D02*
X4415D01*
X1838Y275D02*
Y330D01*
X1838Y-230D02*
Y75D01*
X963Y-230D02*
Y75D01*
X963D01*
X963Y275D02*
Y330D01*
Y-230D02*
X1838D01*
X963Y330D02*
X1838D01*
X5677Y-631D02*
Y546D01*
Y-631D02*
X6312D01*
Y546D01*
X5677D02*
X6312D01*
X8313Y6068D02*
Y6903D01*
Y6068D02*
X8713Y6068D01*
Y6903D01*
X8313Y6903D02*
X8713Y6903D01*
X7413Y6068D02*
Y6903D01*
Y6068D02*
X7813Y6068D01*
Y6903D01*
X7413Y6903D02*
X7813Y6903D01*
X9213Y6068D02*
Y6903D01*
Y6068D02*
X9613D01*
Y6903D01*
X9213D02*
X9613D01*
X6513Y6068D02*
Y6903D01*
Y6068D02*
X6913D01*
Y6903D01*
X6513D02*
X6913D01*
X4083Y1082D02*
Y1482D01*
X3892D02*
X3892Y1412D01*
X3892Y1082D02*
X3892Y1152D01*
X4447Y1412D02*
Y1482D01*
Y1082D02*
Y1152D01*
X3892Y1482D02*
X4447D01*
X3892Y1082D02*
X4447D01*
X3375Y1745D02*
X3775D01*
X3705Y1935D02*
X3775D01*
X3375D02*
X3445D01*
X3705Y1380D02*
X3775D01*
X3375D02*
X3445D01*
X3775D02*
Y1935D01*
X3375Y1380D02*
Y1935D01*
X750Y5740D02*
X1150D01*
X1080Y5930D02*
X1150D01*
X750D02*
X820D01*
X1080Y5375D02*
X1150D01*
X750D02*
X820D01*
X1150D02*
Y5930D01*
X750Y5375D02*
Y5930D01*
Y4740D02*
X1150D01*
X1080Y4930D02*
X1150D01*
X750D02*
X820D01*
X1080Y4375D02*
X1150D01*
X750D02*
X820D01*
X1150D02*
Y4930D01*
X750Y4375D02*
Y4930D01*
X2083Y4745D02*
Y5335D01*
X1507D02*
X2317D01*
X1505Y4745D02*
X2315D01*
X1505D02*
Y4845D01*
X1507Y5235D02*
Y5335D01*
X2317Y5233D02*
Y5335D01*
X2315Y4745D02*
X2315Y4845D01*
X12122Y3578D02*
X12182D01*
X12153Y3608D02*
X12153Y3547D01*
X1480Y3750D02*
X1580D01*
X1530Y3700D02*
Y3800D01*
X3553Y6320D02*
Y6380D01*
X3522Y6350D02*
X3583D01*
X2083Y5430D02*
Y6020D01*
X1507D02*
X2317D01*
X1505Y5430D02*
X2315D01*
X1505D02*
Y5530D01*
X1507Y5920D02*
Y6020D01*
X2317Y5917D02*
Y6020D01*
X2315Y5430D02*
X2315Y5530D01*
X7320Y5435D02*
Y5665D01*
X7785Y5435D02*
Y5665D01*
X7320Y5435D02*
X7785D01*
X7320Y5665D02*
X7785D01*
X10538Y3508D02*
Y3788D01*
X11207Y3508D02*
Y3788D01*
X10538Y3508D02*
X11207D01*
X10538Y3788D02*
X11207D01*
X11497Y3578D02*
X11557D01*
X11528Y3608D02*
X11528Y3547D01*
X10070Y3715D02*
X10130D01*
X10100Y3745D02*
X10100Y3685D01*
X14730Y3450D02*
X14790D01*
X14760Y3420D02*
Y3480D01*
X9734Y4622D02*
Y5672D01*
X7908Y4622D02*
Y5672D01*
Y4622D02*
X9734D01*
X7908Y5672D02*
X9734D01*
X-470Y5150D02*
X-50D01*
X-470Y4150D02*
Y5150D01*
Y4150D02*
X440D01*
Y5150D01*
X-50D02*
X440D01*
X-470Y6150D02*
X-50D01*
X-470Y5150D02*
Y6150D01*
Y5150D02*
X440D01*
Y6150D01*
X-50D02*
X440D01*
X13818Y6050D02*
Y6975D01*
X11282Y6050D02*
X13818D01*
X11282D02*
Y6975D01*
X13818D01*
X16418Y6050D02*
Y6975D01*
X13882Y6050D02*
X16418D01*
X13882D02*
Y6975D01*
X16418D01*
X-475Y4118D02*
X450D01*
Y1582D02*
Y4118D01*
X-475Y1582D02*
X450D01*
X-475D02*
Y4118D01*
X14539Y1646D02*
Y2153D01*
X12761Y2154D02*
X14539D01*
X12761Y1646D02*
Y2153D01*
Y1646D02*
X14539D01*
X17455Y-810D02*
Y170D01*
X14545D02*
X17455D01*
X14545Y-810D02*
Y170D01*
Y-810D02*
X17455D01*
X17573Y-127D02*
X17827D01*
X17573D02*
Y889D01*
X17827Y-127D02*
Y889D01*
X17573D02*
X17827D01*
X11378Y5017D02*
X11632D01*
Y4001D02*
Y5017D01*
X11378Y4001D02*
Y5017D01*
Y4001D02*
X11632D01*
X9073Y-127D02*
X9327D01*
X9073D02*
Y889D01*
X9327Y-127D02*
Y889D01*
X9073D02*
X9327D01*
X2635Y6130D02*
Y6030D01*
X2685D01*
X2702Y6047D01*
Y6113D01*
X2685Y6130D01*
X2635D01*
X2785Y6030D02*
Y6130D01*
X2735Y6080D01*
X2802D01*
X9954Y6885D02*
X9888D01*
Y6835D01*
X9921D01*
X9888D01*
Y6785D01*
X10054Y6885D02*
X9987D01*
Y6835D01*
X10021Y6852D01*
X10037D01*
X10054Y6835D01*
Y6802D01*
X10037Y6785D01*
X10004D01*
X9987Y6802D01*
X11923Y4408D02*
Y4474D01*
X11939D01*
X12006Y4408D01*
X12022D01*
Y4474D01*
X12006Y4574D02*
X11939D01*
X11923Y4557D01*
Y4524D01*
X11939Y4507D01*
X12006D01*
X12022Y4524D01*
Y4557D01*
X11989Y4541D02*
X12022Y4574D01*
Y4557D02*
X12006Y4574D01*
X12022Y4607D02*
Y4641D01*
Y4624D01*
X11923D01*
X11939Y4607D01*
X3320Y1172D02*
X3387Y1073D01*
Y1172D02*
X3320Y1073D01*
X3487Y1156D02*
X3470Y1172D01*
X3437D01*
X3420Y1156D01*
Y1139D01*
X3437Y1122D01*
X3470D01*
X3487Y1106D01*
Y1089D01*
X3470Y1073D01*
X3437D01*
X3420Y1089D01*
X3520Y1073D02*
X3553D01*
X3537D01*
Y1172D01*
X3520Y1156D01*
X3603D02*
X3620Y1172D01*
X3653D01*
X3670Y1156D01*
Y1089D01*
X3653Y1073D01*
X3620D01*
X3603Y1089D01*
Y1156D01*
X4792Y1167D02*
X4859Y1068D01*
Y1167D02*
X4792Y1068D01*
X4959Y1151D02*
X4942Y1167D01*
X4909D01*
X4892Y1151D01*
Y1134D01*
X4909Y1117D01*
X4942D01*
X4959Y1101D01*
Y1084D01*
X4942Y1068D01*
X4909D01*
X4892Y1084D01*
X4992D02*
X5009Y1068D01*
X5042D01*
X5059Y1084D01*
Y1151D01*
X5042Y1167D01*
X5009D01*
X4992Y1151D01*
Y1134D01*
X5009Y1117D01*
X5059D01*
X8277Y1172D02*
X8344Y1072D01*
Y1172D02*
X8277Y1072D01*
X8444Y1155D02*
X8427Y1172D01*
X8394D01*
X8377Y1155D01*
Y1138D01*
X8394Y1122D01*
X8427D01*
X8444Y1105D01*
Y1088D01*
X8427Y1072D01*
X8394D01*
X8377Y1088D01*
X8544Y1072D02*
X8477D01*
X8544Y1138D01*
Y1155D01*
X8527Y1172D01*
X8494D01*
X8477Y1155D01*
X7127Y1172D02*
X7193Y1072D01*
Y1172D02*
X7127Y1072D01*
X7293Y1155D02*
X7277Y1172D01*
X7243D01*
X7227Y1155D01*
Y1138D01*
X7243Y1122D01*
X7277D01*
X7293Y1105D01*
Y1088D01*
X7277Y1072D01*
X7243D01*
X7227Y1088D01*
X7326Y1072D02*
X7360D01*
X7343D01*
Y1172D01*
X7326Y1155D01*
X9075Y1025D02*
X9142Y925D01*
Y1025D02*
X9075Y925D01*
X9175D02*
X9208D01*
X9192D01*
Y1025D01*
X9175Y1008D01*
X9258Y1025D02*
X9325D01*
Y1008D01*
X9258Y942D01*
Y925D01*
X11380Y5150D02*
X11447Y5050D01*
Y5150D02*
X11380Y5050D01*
X11480D02*
X11513D01*
X11497D01*
Y5150D01*
X11480Y5133D01*
X11630Y5150D02*
X11597Y5133D01*
X11563Y5100D01*
Y5067D01*
X11580Y5050D01*
X11613D01*
X11630Y5067D01*
Y5083D01*
X11613Y5100D01*
X11563D01*
X13523Y2302D02*
X13589Y2202D01*
Y2302D02*
X13523Y2202D01*
X13622D02*
X13656D01*
X13639D01*
Y2302D01*
X13622Y2286D01*
X13706D02*
X13722Y2302D01*
X13756D01*
X13772Y2286D01*
Y2269D01*
X13756Y2252D01*
X13739D01*
X13756D01*
X13772Y2236D01*
Y2219D01*
X13756Y2202D01*
X13722D01*
X13706Y2219D01*
X17600Y1025D02*
X17667Y925D01*
Y1025D02*
X17600Y925D01*
X17700Y1008D02*
X17717Y1025D01*
X17750D01*
X17767Y1008D01*
Y992D01*
X17750Y975D01*
X17733D01*
X17750D01*
X17767Y958D01*
Y942D01*
X17750Y925D01*
X17717D01*
X17700Y942D01*
X500Y6100D02*
X567Y6000D01*
Y6100D02*
X500Y6000D01*
X667D02*
X600D01*
X667Y6067D01*
Y6083D01*
X650Y6100D01*
X617D01*
X600Y6083D01*
X500Y5050D02*
X567Y4950D01*
Y5050D02*
X500Y4950D01*
X600D02*
X633D01*
X617D01*
Y5050D01*
X600Y5033D01*
X1450Y1260D02*
Y1177D01*
X1467Y1160D01*
X1500D01*
X1517Y1177D01*
Y1260D01*
X1550Y1243D02*
X1567Y1260D01*
X1600D01*
X1617Y1243D01*
Y1227D01*
X1600Y1210D01*
X1583D01*
X1600D01*
X1617Y1193D01*
Y1177D01*
X1600Y1160D01*
X1567D01*
X1550Y1177D01*
X1717Y1160D02*
X1650D01*
X1717Y1227D01*
Y1243D01*
X1700Y1260D01*
X1667D01*
X1650Y1243D01*
X1448Y2027D02*
Y1944D01*
X1464Y1928D01*
X1497D01*
X1514Y1944D01*
Y2027D01*
X1547Y2011D02*
X1564Y2027D01*
X1597D01*
X1614Y2011D01*
Y1994D01*
X1597Y1977D01*
X1581D01*
X1597D01*
X1614Y1961D01*
Y1944D01*
X1597Y1928D01*
X1564D01*
X1547Y1944D01*
X1647Y1928D02*
X1681D01*
X1664D01*
Y2027D01*
X1647Y2011D01*
X2478Y1827D02*
Y1744D01*
X2494Y1728D01*
X2527D01*
X2544Y1744D01*
Y1827D01*
X2644Y1728D02*
X2577D01*
X2644Y1794D01*
Y1811D01*
X2627Y1827D01*
X2594D01*
X2577Y1811D01*
X2677D02*
X2694Y1827D01*
X2727D01*
X2744Y1811D01*
Y1794D01*
X2727Y1777D01*
X2744Y1761D01*
Y1744D01*
X2727Y1728D01*
X2694D01*
X2677Y1744D01*
Y1761D01*
X2694Y1777D01*
X2677Y1794D01*
Y1811D01*
X2694Y1777D02*
X2727D01*
X16625Y2800D02*
Y2717D01*
X16642Y2700D01*
X16675D01*
X16692Y2717D01*
Y2800D01*
X16792Y2700D02*
X16725D01*
X16792Y2767D01*
Y2783D01*
X16775Y2800D01*
X16742D01*
X16725Y2783D01*
X16825Y2800D02*
X16892D01*
Y2783D01*
X16825Y2717D01*
Y2700D01*
X16025Y2800D02*
Y2717D01*
X16042Y2700D01*
X16075D01*
X16092Y2717D01*
Y2800D01*
X16192Y2700D02*
X16125D01*
X16192Y2767D01*
Y2783D01*
X16175Y2800D01*
X16142D01*
X16125Y2783D01*
X16292Y2800D02*
X16258Y2783D01*
X16225Y2750D01*
Y2717D01*
X16242Y2700D01*
X16275D01*
X16292Y2717D01*
Y2733D01*
X16275Y2750D01*
X16225D01*
X15425Y2800D02*
Y2717D01*
X15442Y2700D01*
X15475D01*
X15492Y2717D01*
Y2800D01*
X15592Y2700D02*
X15525D01*
X15592Y2767D01*
Y2783D01*
X15575Y2800D01*
X15542D01*
X15525Y2783D01*
X15692Y2800D02*
X15625D01*
Y2750D01*
X15658Y2767D01*
X15675D01*
X15692Y2750D01*
Y2717D01*
X15675Y2700D01*
X15642D01*
X15625Y2717D01*
X14825Y2800D02*
Y2717D01*
X14842Y2700D01*
X14875D01*
X14892Y2717D01*
Y2800D01*
X14992Y2700D02*
X14925D01*
X14992Y2767D01*
Y2783D01*
X14975Y2800D01*
X14942D01*
X14925Y2783D01*
X15075Y2700D02*
Y2800D01*
X15025Y2750D01*
X15092D01*
X13600Y4500D02*
Y4417D01*
X13617Y4400D01*
X13650D01*
X13667Y4417D01*
Y4500D01*
X13700Y4400D02*
X13733D01*
X13717D01*
Y4500D01*
X13700Y4483D01*
X13850Y4500D02*
X13817Y4483D01*
X13783Y4450D01*
Y4417D01*
X13800Y4400D01*
X13833D01*
X13850Y4417D01*
Y4433D01*
X13833Y4450D01*
X13783D01*
X12225Y2800D02*
Y2717D01*
X12242Y2700D01*
X12275D01*
X12292Y2717D01*
Y2800D01*
X12325Y2700D02*
X12358D01*
X12342D01*
Y2800D01*
X12325Y2783D01*
X12408Y2700D02*
X12442D01*
X12425D01*
Y2800D01*
X12408Y2783D01*
X11625Y2811D02*
Y2728D01*
X11641Y2711D01*
X11675D01*
X11691Y2728D01*
Y2811D01*
X11725Y2711D02*
X11758D01*
X11741D01*
Y2811D01*
X11725Y2795D01*
X11808D02*
X11825Y2811D01*
X11858D01*
X11875Y2795D01*
Y2728D01*
X11858Y2711D01*
X11825D01*
X11808Y2728D01*
Y2795D01*
X11025Y2800D02*
Y2717D01*
X11042Y2700D01*
X11075D01*
X11092Y2717D01*
Y2800D01*
X11125Y2717D02*
X11142Y2700D01*
X11175D01*
X11192Y2717D01*
Y2783D01*
X11175Y2800D01*
X11142D01*
X11125Y2783D01*
Y2767D01*
X11142Y2750D01*
X11192D01*
X10425Y2800D02*
Y2717D01*
X10442Y2700D01*
X10475D01*
X10492Y2717D01*
Y2800D01*
X10525Y2783D02*
X10542Y2800D01*
X10575D01*
X10592Y2783D01*
Y2767D01*
X10575Y2750D01*
X10592Y2733D01*
Y2717D01*
X10575Y2700D01*
X10542D01*
X10525Y2717D01*
Y2733D01*
X10542Y2750D01*
X10525Y2767D01*
Y2783D01*
X10542Y2750D02*
X10575D01*
X5730Y3985D02*
Y3902D01*
X5747Y3885D01*
X5780D01*
X5797Y3902D01*
Y3985D01*
X5830D02*
X5897D01*
Y3968D01*
X5830Y3902D01*
Y3885D01*
X8000Y3125D02*
Y3042D01*
X8017Y3025D01*
X8050D01*
X8067Y3042D01*
Y3125D01*
X8167D02*
X8100D01*
Y3075D01*
X8133Y3092D01*
X8150D01*
X8167Y3075D01*
Y3042D01*
X8150Y3025D01*
X8117D01*
X8100Y3042D01*
X998Y3470D02*
Y3387D01*
X1014Y3370D01*
X1047D01*
X1064Y3387D01*
Y3470D01*
X1147Y3370D02*
Y3470D01*
X1097Y3420D01*
X1164D01*
X9207Y5802D02*
Y5719D01*
X9224Y5703D01*
X9257D01*
X9274Y5719D01*
Y5802D01*
X9307Y5786D02*
X9324Y5802D01*
X9357D01*
X9374Y5786D01*
Y5769D01*
X9357Y5752D01*
X9341D01*
X9357D01*
X9374Y5736D01*
Y5719D01*
X9357Y5703D01*
X9324D01*
X9307Y5719D01*
X10793Y3707D02*
Y3624D01*
X10809Y3608D01*
X10842D01*
X10859Y3624D01*
Y3707D01*
X10959Y3608D02*
X10892D01*
X10959Y3674D01*
Y3691D01*
X10942Y3707D01*
X10909D01*
X10892Y3691D01*
X4228Y5907D02*
Y5824D01*
X4244Y5808D01*
X4277D01*
X4294Y5824D01*
Y5907D01*
X4327Y5808D02*
X4361D01*
X4344D01*
Y5907D01*
X4327Y5891D01*
X1367Y483D02*
X1350Y500D01*
X1317D01*
X1300Y483D01*
Y467D01*
X1317Y450D01*
X1350D01*
X1367Y433D01*
Y417D01*
X1350Y400D01*
X1317D01*
X1300Y417D01*
X1467Y400D02*
X1400D01*
X1467Y467D01*
Y483D01*
X1450Y500D01*
X1417D01*
X1400Y483D01*
X6012Y48D02*
X5995Y65D01*
X5962D01*
X5945Y48D01*
Y32D01*
X5962Y15D01*
X5995D01*
X6012Y-2D01*
Y-18D01*
X5995Y-35D01*
X5962D01*
X5945Y-18D01*
X6045Y-35D02*
X6078D01*
X6062D01*
Y65D01*
X6045Y48D01*
X2200Y2543D02*
Y2642D01*
X2250D01*
X2267Y2626D01*
Y2592D01*
X2250Y2576D01*
X2200D01*
X2233D02*
X2267Y2543D01*
X2367Y2642D02*
X2300D01*
Y2592D01*
X2333Y2609D01*
X2350D01*
X2367Y2592D01*
Y2559D01*
X2350Y2543D01*
X2317D01*
X2300Y2559D01*
X2467Y2642D02*
X2400D01*
Y2592D01*
X2433Y2609D01*
X2450D01*
X2467Y2592D01*
Y2559D01*
X2450Y2543D01*
X2417D01*
X2400Y2559D01*
X2455Y1058D02*
Y1157D01*
X2505D01*
X2522Y1141D01*
Y1107D01*
X2505Y1091D01*
X2455D01*
X2488D02*
X2522Y1058D01*
X2622Y1157D02*
X2555D01*
Y1107D01*
X2588Y1124D01*
X2605D01*
X2622Y1107D01*
Y1074D01*
X2605Y1058D01*
X2572D01*
X2555Y1074D01*
X2705Y1058D02*
Y1157D01*
X2655Y1107D01*
X2722D01*
X2460Y840D02*
Y940D01*
X2510D01*
X2527Y923D01*
Y890D01*
X2510Y873D01*
X2460D01*
X2493D02*
X2527Y840D01*
X2627Y940D02*
X2560D01*
Y890D01*
X2593Y907D01*
X2610D01*
X2627Y890D01*
Y857D01*
X2610Y840D01*
X2577D01*
X2560Y857D01*
X2727Y840D02*
X2660D01*
X2727Y907D01*
Y923D01*
X2710Y940D01*
X2677D01*
X2660Y923D01*
X9535Y555D02*
X9435D01*
Y605D01*
X9452Y622D01*
X9485D01*
X9502Y605D01*
Y555D01*
Y588D02*
X9535Y622D01*
X9452Y655D02*
X9435Y672D01*
Y705D01*
X9452Y722D01*
X9468D01*
X9485Y705D01*
Y688D01*
Y705D01*
X9502Y722D01*
X9518D01*
X9535Y705D01*
Y672D01*
X9518Y655D01*
X9535Y822D02*
Y755D01*
X9468Y822D01*
X9452D01*
X9435Y805D01*
Y772D01*
X9452Y755D01*
X8605Y3742D02*
Y3842D01*
X8655D01*
X8672Y3826D01*
Y3792D01*
X8655Y3776D01*
X8605D01*
X8638D02*
X8672Y3742D01*
X8755D02*
Y3842D01*
X8705Y3792D01*
X8772D01*
X3900Y3825D02*
X3800D01*
Y3875D01*
X3817Y3892D01*
X3850D01*
X3867Y3875D01*
Y3825D01*
Y3858D02*
X3900Y3892D01*
Y3992D02*
Y3925D01*
X3833Y3992D01*
X3817D01*
X3800Y3975D01*
Y3942D01*
X3817Y3925D01*
X500Y3850D02*
Y3950D01*
X550D01*
X567Y3933D01*
Y3900D01*
X550Y3883D01*
X500D01*
X600Y3850D02*
X633D01*
X617D01*
Y3950D01*
X600Y3933D01*
X2308Y4542D02*
Y4442D01*
X2374D01*
X2407D02*
X2441D01*
X2424D01*
Y4542D01*
X2407Y4526D01*
X8154Y6885D02*
X8088D01*
Y6835D01*
X8121D01*
X8088D01*
Y6785D01*
X8237D02*
Y6885D01*
X8187Y6835D01*
X8254D01*
X7254Y6885D02*
X7188D01*
Y6835D01*
X7221D01*
X7188D01*
Y6785D01*
X7287Y6868D02*
X7304Y6885D01*
X7337D01*
X7354Y6868D01*
Y6852D01*
X7337Y6835D01*
X7321D01*
X7337D01*
X7354Y6818D01*
Y6802D01*
X7337Y6785D01*
X7304D01*
X7287Y6802D01*
X9054Y6885D02*
X8988D01*
Y6835D01*
X9021D01*
X8988D01*
Y6785D01*
X9154D02*
X9087D01*
X9154Y6852D01*
Y6868D01*
X9137Y6885D01*
X9104D01*
X9087Y6868D01*
X6379Y6885D02*
X6313D01*
Y6835D01*
X6346D01*
X6313D01*
Y6785D01*
X6412D02*
X6446D01*
X6429D01*
Y6885D01*
X6412Y6868D01*
X2550Y100D02*
Y0D01*
X2600D01*
X2617Y17D01*
Y83D01*
X2600Y100D01*
X2550D01*
X2717Y83D02*
X2700Y100D01*
X2667D01*
X2650Y83D01*
Y67D01*
X2667Y50D01*
X2700D01*
X2717Y33D01*
Y17D01*
X2700Y0D01*
X2667D01*
X2650Y17D01*
X2750Y83D02*
X2767Y100D01*
X2800D01*
X2817Y83D01*
Y67D01*
X2800Y50D01*
X2783D01*
X2800D01*
X2817Y33D01*
Y17D01*
X2800Y0D01*
X2767D01*
X2750Y17D01*
X2550Y-150D02*
Y-250D01*
X2600D01*
X2617Y-233D01*
Y-167D01*
X2600Y-150D01*
X2550D01*
X2717Y-167D02*
X2700Y-150D01*
X2667D01*
X2650Y-167D01*
Y-183D01*
X2667Y-200D01*
X2700D01*
X2717Y-217D01*
Y-233D01*
X2700Y-250D01*
X2667D01*
X2650Y-233D01*
X2817Y-250D02*
X2750D01*
X2817Y-183D01*
Y-167D01*
X2800Y-150D01*
X2767D01*
X2750Y-167D01*
X9263Y-410D02*
X9362D01*
Y-360D01*
X9346Y-343D01*
X9279D01*
X9263Y-360D01*
Y-410D01*
X9279Y-243D02*
X9263Y-260D01*
Y-293D01*
X9279Y-310D01*
X9296D01*
X9313Y-293D01*
Y-260D01*
X9329Y-243D01*
X9346D01*
X9362Y-260D01*
Y-293D01*
X9346Y-310D01*
X9362Y-210D02*
Y-177D01*
Y-193D01*
X9263D01*
X9279Y-210D01*
X4195Y1632D02*
Y1532D01*
X4245D01*
X4262Y1549D01*
Y1616D01*
X4245Y1632D01*
X4195D01*
X4295Y1616D02*
X4312Y1632D01*
X4345D01*
X4362Y1616D01*
Y1599D01*
X4345Y1582D01*
X4362Y1566D01*
Y1549D01*
X4345Y1532D01*
X4312D01*
X4295Y1549D01*
Y1566D01*
X4312Y1582D01*
X4295Y1599D01*
Y1616D01*
X4312Y1582D02*
X4345D01*
X3225Y1420D02*
X3325D01*
Y1470D01*
X3308Y1487D01*
X3242D01*
X3225Y1470D01*
Y1420D01*
Y1520D02*
Y1587D01*
X3242D01*
X3308Y1520D01*
X3325D01*
X850Y6150D02*
Y6050D01*
X900D01*
X917Y6067D01*
Y6133D01*
X900Y6150D01*
X850D01*
X950Y6133D02*
X967Y6150D01*
X1000D01*
X1017Y6133D01*
Y6117D01*
X1000Y6100D01*
X983D01*
X1000D01*
X1017Y6083D01*
Y6067D01*
X1000Y6050D01*
X967D01*
X950Y6067D01*
X850Y5150D02*
Y5050D01*
X900D01*
X917Y5067D01*
Y5133D01*
X900Y5150D01*
X850D01*
X1017Y5050D02*
X950D01*
X1017Y5117D01*
Y5133D01*
X1000Y5150D01*
X967D01*
X950Y5133D01*
X1258Y4965D02*
X1358D01*
Y5015D01*
X1341Y5032D01*
X1274D01*
X1258Y5015D01*
Y4965D01*
X1358Y5065D02*
Y5098D01*
Y5082D01*
X1258D01*
X1274Y5065D01*
X1904Y1666D02*
X1887Y1682D01*
X1854D01*
X1838Y1666D01*
Y1599D01*
X1854Y1583D01*
X1887D01*
X1904Y1599D01*
X1987Y1583D02*
Y1682D01*
X1937Y1632D01*
X2004D01*
X2037Y1682D02*
X2104D01*
Y1666D01*
X2037Y1599D01*
Y1583D01*
X12189Y3383D02*
X12172Y3400D01*
X12139D01*
X12122Y3383D01*
Y3317D01*
X12139Y3300D01*
X12172D01*
X12189Y3317D01*
X12272Y3300D02*
Y3400D01*
X12222Y3350D01*
X12289D01*
X12372Y3300D02*
Y3400D01*
X12322Y3350D01*
X12389D01*
X12644Y4098D02*
X12627Y4115D01*
X12594D01*
X12578Y4098D01*
Y4032D01*
X12594Y4015D01*
X12627D01*
X12644Y4032D01*
X12727Y4015D02*
Y4115D01*
X12677Y4065D01*
X12744D01*
X12777Y4098D02*
X12794Y4115D01*
X12827D01*
X12844Y4098D01*
Y4082D01*
X12827Y4065D01*
X12811D01*
X12827D01*
X12844Y4048D01*
Y4032D01*
X12827Y4015D01*
X12794D01*
X12777Y4032D01*
X12862Y5166D02*
X12845Y5182D01*
X12812D01*
X12795Y5166D01*
Y5099D01*
X12812Y5083D01*
X12845D01*
X12862Y5099D01*
X12945Y5083D02*
Y5182D01*
X12895Y5132D01*
X12962D01*
X13062Y5083D02*
X12995D01*
X13062Y5149D01*
Y5166D01*
X13045Y5182D01*
X13012D01*
X12995Y5166D01*
X14072Y3259D02*
X14055Y3242D01*
Y3209D01*
X14072Y3192D01*
X14138D01*
X14155Y3209D01*
Y3242D01*
X14138Y3259D01*
X14155Y3342D02*
X14055D01*
X14105Y3292D01*
Y3359D01*
X14155Y3392D02*
Y3426D01*
Y3409D01*
X14055D01*
X14072Y3392D01*
X14567Y3708D02*
X14550Y3725D01*
X14517D01*
X14500Y3708D01*
Y3642D01*
X14517Y3625D01*
X14550D01*
X14567Y3642D01*
X14650Y3625D02*
Y3725D01*
X14600Y3675D01*
X14667D01*
X14700Y3708D02*
X14717Y3725D01*
X14750D01*
X14767Y3708D01*
Y3642D01*
X14750Y3625D01*
X14717D01*
X14700Y3642D01*
Y3708D01*
X12862Y5366D02*
X12845Y5382D01*
X12812D01*
X12795Y5366D01*
Y5299D01*
X12812Y5283D01*
X12845D01*
X12862Y5299D01*
X12895Y5366D02*
X12912Y5382D01*
X12945D01*
X12962Y5366D01*
Y5349D01*
X12945Y5332D01*
X12928D01*
X12945D01*
X12962Y5316D01*
Y5299D01*
X12945Y5283D01*
X12912D01*
X12895Y5299D01*
X12995D02*
X13012Y5283D01*
X13045D01*
X13062Y5299D01*
Y5366D01*
X13045Y5382D01*
X13012D01*
X12995Y5366D01*
Y5349D01*
X13012Y5332D01*
X13062D01*
X11612Y3386D02*
X11595Y3402D01*
X11562D01*
X11545Y3386D01*
Y3319D01*
X11562Y3303D01*
X11595D01*
X11612Y3319D01*
X11645D02*
X11662Y3303D01*
X11695D01*
X11712Y3319D01*
Y3386D01*
X11695Y3402D01*
X11662D01*
X11645Y3386D01*
Y3369D01*
X11662Y3352D01*
X11712D01*
X10197Y4178D02*
X10180Y4195D01*
X10147D01*
X10130Y4178D01*
Y4112D01*
X10147Y4095D01*
X10180D01*
X10197Y4112D01*
X10230Y4178D02*
X10247Y4195D01*
X10280D01*
X10297Y4178D01*
Y4162D01*
X10280Y4145D01*
X10297Y4128D01*
Y4112D01*
X10280Y4095D01*
X10247D01*
X10230Y4112D01*
Y4128D01*
X10247Y4145D01*
X10230Y4162D01*
Y4178D01*
X10247Y4145D02*
X10280D01*
X7594Y5008D02*
X7577Y5025D01*
X7544D01*
X7528Y5008D01*
Y4942D01*
X7544Y4925D01*
X7577D01*
X7594Y4942D01*
X7627Y5025D02*
X7694D01*
Y5008D01*
X7627Y4942D01*
Y4925D01*
X7542Y5778D02*
X7525Y5795D01*
X7492D01*
X7475Y5778D01*
Y5712D01*
X7492Y5695D01*
X7525D01*
X7542Y5712D01*
X7642Y5795D02*
X7608Y5778D01*
X7575Y5745D01*
Y5712D01*
X7592Y5695D01*
X7625D01*
X7642Y5712D01*
Y5728D01*
X7625Y5745D01*
X7575D01*
X1359Y4553D02*
X1342Y4570D01*
X1309D01*
X1293Y4553D01*
Y4487D01*
X1309Y4470D01*
X1342D01*
X1359Y4487D01*
X1442Y4470D02*
Y4570D01*
X1392Y4520D01*
X1459D01*
X3692Y6746D02*
X3675Y6762D01*
X3642D01*
X3625Y6746D01*
Y6679D01*
X3642Y6662D01*
X3675D01*
X3692Y6679D01*
X3725Y6746D02*
X3742Y6762D01*
X3775D01*
X3792Y6746D01*
Y6729D01*
X3775Y6712D01*
X3758D01*
X3775D01*
X3792Y6696D01*
Y6679D01*
X3775Y6662D01*
X3742D01*
X3725Y6679D01*
X1283Y5450D02*
X1382D01*
Y5500D01*
X1366Y5517D01*
X1299D01*
X1283Y5500D01*
Y5450D01*
X1382Y5550D02*
Y5583D01*
Y5567D01*
X1283D01*
X1299Y5550D01*
X1382Y5633D02*
X1366D01*
Y5650D01*
X1382D01*
Y5633D01*
Y5717D02*
Y5750D01*
Y5733D01*
X1283D01*
X1299Y5717D01*
X15050Y5900D02*
Y6000D01*
X15100D01*
X15117Y5983D01*
Y5950D01*
X15100Y5933D01*
X15050D01*
X15217Y5900D02*
X15150D01*
X15217Y5967D01*
Y5983D01*
X15200Y6000D01*
X15167D01*
X15150Y5983D01*
X12450Y5900D02*
Y6000D01*
X12500D01*
X12517Y5983D01*
Y5950D01*
X12500Y5933D01*
X12450D01*
X12550Y5983D02*
X12567Y6000D01*
X12600D01*
X12617Y5983D01*
Y5967D01*
X12600Y5950D01*
X12583D01*
X12600D01*
X12617Y5933D01*
Y5917D01*
X12600Y5900D01*
X12567D01*
X12550Y5917D01*
X15843Y320D02*
X15909Y220D01*
Y320D02*
X15843Y220D01*
X15942D02*
X15976D01*
X15959D01*
Y320D01*
X15942Y303D01*
X16026Y237D02*
X16042Y220D01*
X16076D01*
X16092Y237D01*
Y303D01*
X16076Y320D01*
X16042D01*
X16026Y303D01*
Y287D01*
X16042Y270D01*
X16092D01*
X10320Y1174D02*
X10387Y1074D01*
Y1174D02*
X10320Y1074D01*
X10487Y1158D02*
X10470Y1174D01*
X10437D01*
X10420Y1158D01*
Y1141D01*
X10437Y1124D01*
X10470D01*
X10487Y1108D01*
Y1091D01*
X10470Y1074D01*
X10437D01*
X10420Y1091D01*
X10520Y1074D02*
X10554D01*
X10537D01*
Y1174D01*
X10520Y1158D01*
X10604Y1074D02*
X10637D01*
X10620D01*
Y1174D01*
X10604Y1158D01*
X11471Y1174D02*
X11538Y1074D01*
Y1174D02*
X11471Y1074D01*
X11637Y1158D02*
X11621Y1174D01*
X11588D01*
X11571Y1158D01*
Y1141D01*
X11588Y1124D01*
X11621D01*
X11637Y1108D01*
Y1091D01*
X11621Y1074D01*
X11588D01*
X11571Y1091D01*
X11671Y1074D02*
X11704D01*
X11687D01*
Y1174D01*
X11671Y1158D01*
X11821Y1074D02*
X11754D01*
X11821Y1141D01*
Y1158D01*
X11804Y1174D01*
X11771D01*
X11754Y1158D01*
X12619Y1174D02*
X12686Y1074D01*
Y1174D02*
X12619Y1074D01*
X12786Y1158D02*
X12769Y1174D01*
X12736D01*
X12719Y1158D01*
Y1141D01*
X12736Y1124D01*
X12769D01*
X12786Y1108D01*
Y1091D01*
X12769Y1074D01*
X12736D01*
X12719Y1091D01*
X12819Y1074D02*
X12852D01*
X12836D01*
Y1174D01*
X12819Y1158D01*
X12902D02*
X12919Y1174D01*
X12952D01*
X12969Y1158D01*
Y1141D01*
X12952Y1124D01*
X12936D01*
X12952D01*
X12969Y1108D01*
Y1091D01*
X12952Y1074D01*
X12919D01*
X12902Y1091D01*
X13770Y1174D02*
X13836Y1074D01*
Y1174D02*
X13770Y1074D01*
X13936Y1158D02*
X13920Y1174D01*
X13886D01*
X13870Y1158D01*
Y1141D01*
X13886Y1124D01*
X13920D01*
X13936Y1108D01*
Y1091D01*
X13920Y1074D01*
X13886D01*
X13870Y1091D01*
X13970Y1074D02*
X14003D01*
X13986D01*
Y1174D01*
X13970Y1158D01*
X14103Y1074D02*
Y1174D01*
X14053Y1124D01*
X14119D01*
D68*
X8600Y3712D02*
X8765D01*
X8600Y3417D02*
Y3712D01*
X8765Y3417D02*
X8765Y3712D01*
X8600Y3417D02*
X8765D01*
X8627Y3585D02*
X8738D01*
Y3545D02*
Y3585D01*
X8627Y3545D02*
X8738D01*
X8627D02*
Y3585D01*
X9410Y525D02*
X9575D01*
X9410Y230D02*
Y525D01*
X9575Y230D02*
Y525D01*
X9410Y230D02*
X9575D01*
X9437Y398D02*
X9548D01*
Y357D02*
Y398D01*
X9437Y357D02*
X9548D01*
X9437D02*
Y398D01*
X2180Y2345D02*
Y2510D01*
Y2345D02*
X2475D01*
X2180Y2510D02*
X2475D01*
Y2345D02*
Y2510D01*
X2307Y2372D02*
Y2483D01*
X2348D01*
Y2372D02*
Y2483D01*
X2307Y2372D02*
X2348D01*
X2135Y1028D02*
Y1193D01*
Y1028D02*
X2430D01*
X2135Y1193D02*
X2430D01*
Y1028D02*
Y1193D01*
X2262Y1054D02*
Y1166D01*
X2303D01*
Y1054D02*
Y1166D01*
X2262Y1054D02*
X2303D01*
X2135Y815D02*
Y980D01*
Y815D02*
X2430D01*
X2135Y980D02*
X2430D01*
Y815D02*
Y980D01*
X2262Y842D02*
Y953D01*
X2303D01*
Y842D02*
Y953D01*
X2262Y842D02*
X2303D01*
X3953Y3842D02*
Y4008D01*
Y3842D02*
X4247Y3842D01*
X3953Y4008D02*
X4247Y4008D01*
X4247Y3842D02*
X4247Y4008D01*
X4080Y3869D02*
Y3981D01*
X4120Y3981D01*
Y3869D02*
Y3981D01*
X4080Y3869D02*
X4120Y3869D01*
X2322Y23D02*
Y80D01*
X2280Y53D02*
X2322Y23D01*
X2280Y53D02*
X2322Y80D01*
X2277Y20D02*
Y83D01*
X2322Y-227D02*
Y-170D01*
X2280Y-197D02*
X2322Y-227D01*
X2280Y-197D02*
X2322Y-170D01*
X2277Y-230D02*
Y-167D01*
X9643Y-230D02*
Y-173D01*
X9600Y-200D02*
X9643Y-230D01*
X9600Y-200D02*
X9643Y-173D01*
X9597Y-233D02*
Y-170D01*
X1895Y1558D02*
X2060D01*
X1895Y1243D02*
Y1558D01*
X2060Y1243D02*
Y1558D01*
X1895Y1243D02*
X2060D01*
X12543Y3817D02*
Y3983D01*
Y3817D02*
X12857D01*
X12543Y3983D02*
X12857D01*
Y3817D02*
Y3983D01*
X13428Y5050D02*
Y5215D01*
X13113D02*
X13428D01*
X13113Y5050D02*
X13428D01*
X13113D02*
Y5215D01*
X13428Y5250D02*
Y5415D01*
X13113D02*
X13428D01*
X13113Y5250D02*
X13428D01*
X13113D02*
Y5415D01*
X7760Y4740D02*
Y4905D01*
X7445D02*
X7760D01*
X7445Y4740D02*
X7760D01*
X7445D02*
Y4905D01*
X14193Y3167D02*
X14357D01*
Y3483D01*
X14193Y3167D02*
Y3483D01*
X14357D01*
X13390Y1026D02*
X14510D01*
Y-782D02*
Y1026D01*
X13390Y-782D02*
Y1026D01*
Y-782D02*
X14510D01*
X12240D02*
X13360D01*
X12240D02*
Y1026D01*
X13360Y-782D02*
Y1026D01*
X12240D02*
X13360D01*
X11090D02*
X12210D01*
Y-782D02*
Y1026D01*
X11090Y-782D02*
Y1026D01*
Y-782D02*
X12210D01*
X9940D02*
X11060D01*
X9940D02*
Y1026D01*
X11060Y-782D02*
Y1026D01*
X9940D02*
X11060D01*
X6690Y1026D02*
X7810D01*
Y-782D02*
Y1026D01*
X6690Y-782D02*
Y1026D01*
Y-782D02*
X7810D01*
X7840D02*
X8960D01*
X7840D02*
Y1026D01*
X8960Y-782D02*
Y1026D01*
X7840D02*
X8960D01*
X4215D02*
X5535D01*
Y-784D02*
Y1026D01*
X4215Y-784D02*
Y1026D01*
Y-784D02*
X5535D01*
X2863Y1026D02*
X4183D01*
Y-784D02*
Y1026D01*
X2863Y-784D02*
Y1026D01*
Y-784D02*
X4183D01*
D69*
X14097Y6330D02*
X14139D01*
X14118D01*
Y6457D01*
X14097Y6436D01*
X14162Y6610D02*
X14077D01*
X14162Y6695D01*
Y6716D01*
X14140Y6737D01*
X14098D01*
X14077Y6716D01*
X16123Y6320D02*
X16165D01*
X16144D01*
Y6447D01*
X16123Y6426D01*
X16229D02*
X16250Y6447D01*
X16292D01*
X16313Y6426D01*
Y6405D01*
X16292Y6383D01*
X16271D01*
X16292D01*
X16313Y6362D01*
Y6341D01*
X16292Y6320D01*
X16250D01*
X16229Y6341D01*
X16121Y6580D02*
X16163D01*
X16142D01*
Y6707D01*
X16121Y6686D01*
X16290Y6580D02*
Y6707D01*
X16226Y6643D01*
X16311D01*
X11497Y6330D02*
X11539D01*
X11518D01*
Y6457D01*
X11497Y6436D01*
X11562Y6610D02*
X11477D01*
X11562Y6695D01*
Y6716D01*
X11540Y6737D01*
X11498D01*
X11477Y6716D01*
X13523Y6320D02*
X13565D01*
X13544D01*
Y6447D01*
X13523Y6426D01*
X13629D02*
X13650Y6447D01*
X13692D01*
X13713Y6426D01*
Y6405D01*
X13692Y6383D01*
X13671D01*
X13692D01*
X13713Y6362D01*
Y6341D01*
X13692Y6320D01*
X13650D01*
X13629Y6341D01*
X13521Y6580D02*
X13563D01*
X13542D01*
Y6707D01*
X13521Y6686D01*
X13690Y6580D02*
Y6707D01*
X13626Y6643D01*
X13711D01*
X170Y1797D02*
Y1839D01*
Y1818D01*
X43D01*
X64Y1797D01*
X-110Y1862D02*
Y1777D01*
X-195Y1862D01*
X-216D01*
X-237Y1840D01*
Y1798D01*
X-216Y1777D01*
X180Y3823D02*
Y3865D01*
Y3844D01*
X53D01*
X74Y3823D01*
Y3929D02*
X53Y3950D01*
Y3992D01*
X74Y4013D01*
X95D01*
X117Y3992D01*
Y3971D01*
Y3992D01*
X138Y4013D01*
X159D01*
X180Y3992D01*
Y3950D01*
X159Y3929D01*
X-80Y3821D02*
Y3863D01*
Y3842D01*
X-207D01*
X-186Y3821D01*
X-80Y3990D02*
X-207D01*
X-143Y3926D01*
Y4011D01*
D70*
X2895Y5175D02*
D03*
M02*
