M48
;Layer_Color=9474304
;FILE_FORMAT=4:2
METRIC,LZ
;TYPE=PLATED
T1F00S00C0.50
T2F00S00C0.90
%
T01
X-001434Y00035
X-00118
X-001118Y00097
X-001308
X-000926Y000985
X-000775Y00097
X-000164Y00035
X-00245
X-002196Y000985
X-001942
X-003212
X-003212Y005023
X-002196
X-001942
X-00245Y00567
X-001434
X-00118
X-000926Y005023
X-000164Y00567
T02
X-00146Y001928
Y002182
X-001206
Y001928
X-000952Y001928
Y002182
X-001714Y002182
Y001928
X-001968Y001928
Y002182
X-002222Y002182
Y001928
X-002476
Y002182
M30
