M48
;Layer_Color=9474304
;FILE_FORMAT=4:2
METRIC,LZ
;TYPE=PLATED
T1F00S00C0.90
T2F00S00C1.00
T3F00S00C1.40
T4F00S00C3.00
;TYPE=NON_PLATED
T5F00S00C3.00
%
T01
X0012Y-002
Y-001746
Y-001492
Y-001238
X002333Y-000276
X002587
X002933Y-000276
X003187
X003533
X003787
X004133Y-000276
X004387
X004888Y-000227
Y000027
X005142
X005396
X00565
X005904
X006158
X006412
Y-000227
X006158
X005904
X00565
X005396
X005142
X007233Y-000476
X007487
X007833Y-000476
X008087
X008433
X008687
X009033
X009287
X0097Y-001238
Y-001492
Y-001746
Y-002
X009287Y000286
X009033Y000286
X008687
X008433
X008087
X007833
X007487Y000286
X007233
X004387Y000486
X004133
X003787Y000486
X003533
X003187
X002933
X002587Y000486
X002333
T02
X-00094Y-00136
X-000686
X-000814Y-001106
X-000559
X00021Y-00136
X000464
X000591Y-001106
X000337
X002436
X002691
X002564Y-00136
X002309
X00346
X003713
X00384Y-001106
X003587
X004737
X00499
X004863Y-00136
X00461
X00576
X006013
X00614Y-001106
X005887
T03
X006775Y-002
X007125
X007475
X007825
X008175
X008525
X008875
X009225
T04
X0Y0
T05
X-001133Y-001994
X-000367
X000017
X000783
X002117
X002883
X003267
X004033
X004417
X005183
X005567
X006333
M30
