M48
;Layer_Color=9474304
;FILE_FORMAT=4:2
METRIC,LZ
;TYPE=PLATED
T1F00S00C0.50
T2F00S00C0.80
T3F00S00C0.90
T4F00S00C1.30
T5F00S00C1.40
T6F00S00C1.50
T7F00S00C3.00
%
T01
X002812Y-000397
X00575Y0005
X010383Y000405
T02
X003169Y00114
X003169Y001648
X003169Y002156
X003169Y002664
X003857
X003857Y002156
X003857Y001648
Y00114
X004546Y00114
X004546Y001648
X004546Y002156
Y002664
X005234Y002664
X005234Y002156
X005234Y001648
X005234Y00114
X005922
Y001648
Y002156
Y002664
X006611Y002664
Y002156
Y001648
Y00114
X007299
Y001648
Y002156
Y002664
X007988
X007988Y002156
X007988Y001648
X007988Y00114
X008676
Y001648
Y002156
Y002664
X009365Y002664
Y002156
X009365Y001648
X009365Y00114
X010053
Y001648
Y002156
X010053Y002664
X010742Y002664
Y002156
X010742Y001648
X010742Y00114
X01143
Y001648
Y002156
X01143Y002664
X012119Y002664
X012119Y002156
X012119Y001648
Y00114
T03
X006607Y000075
X006861
X007115
X007369
X007623
X007877
X008131
X003831
X003577
X003323
X003069
X002815
X002561
X002307
Y000329
X002561
X002815
X003069
X003323
X003577
X003831
X006607
X006861
X007115
X007369
X007623
X007877
X008131
T04
X-00375Y003425
X-00325
X-00275
X-00225
X-00175
X-00125
X-00075
X-00025
X00025
X00075
X00125
X00175
T05
X002312Y003325
X002662
X003012
X003362
X003833
X004183
X004533
X004883
X005233
X005583
X005933
X006283
X006753Y003325
X007103
X007453
X007803
X008153
X008503
X008853
X009203
X009678
X010028
X010378
X010728
X011078
X011428
X011778
X012128
T06
X-003731Y001292
X-003131Y001092
X-002531Y001292
Y002512
X-003731
X-002031
X-000831
X-000331
X000869
X001369
Y001292
X000869
X000269Y001092
X-000331Y001292
X-000831
X-001431Y001092
X-002031Y001292
X001969Y001092
X002569Y001292
Y002512
T07
X011Y0
X0
M30
