G04 Layer_Physical_Order=2*
G04 Layer_Color=16750848*
%FSLAX42Y42*%
%MOMM*%
G71*
G01*
G75*
%ADD10C,0.50*%
G04:AMPARAMS|DCode=11|XSize=0.7mm|YSize=1.3mm|CornerRadius=0.17mm|HoleSize=0mm|Usage=FLASHONLY|Rotation=90.000|XOffset=0mm|YOffset=0mm|HoleType=Round|Shape=RoundedRectangle|*
%AMROUNDEDRECTD11*
21,1,0.70,0.95,0,0,90.0*
21,1,0.35,1.30,0,0,90.0*
1,1,0.35,0.47,0.17*
1,1,0.35,0.47,-0.17*
1,1,0.35,-0.47,-0.17*
1,1,0.35,-0.47,0.17*
%
%ADD11ROUNDEDRECTD11*%
%ADD12O,0.60X1.90*%
%ADD13R,0.60X1.90*%
%ADD14O,2.20X0.60*%
%ADD15R,2.20X0.60*%
G04:AMPARAMS|DCode=25|XSize=0.9mm|YSize=1.3mm|CornerRadius=0.23mm|HoleSize=0mm|Usage=FLASHONLY|Rotation=90.000|XOffset=0mm|YOffset=0mm|HoleType=Round|Shape=RoundedRectangle|*
%AMROUNDEDRECTD25*
21,1,0.90,0.85,0,0,90.0*
21,1,0.45,1.30,0,0,90.0*
1,1,0.45,0.42,0.23*
1,1,0.45,0.42,-0.23*
1,1,0.45,-0.42,-0.23*
1,1,0.45,-0.42,0.23*
%
%ADD25ROUNDEDRECTD25*%
G04:AMPARAMS|DCode=26|XSize=0.9mm|YSize=1.3mm|CornerRadius=0.23mm|HoleSize=0mm|Usage=FLASHONLY|Rotation=180.000|XOffset=0mm|YOffset=0mm|HoleType=Round|Shape=RoundedRectangle|*
%AMROUNDEDRECTD26*
21,1,0.90,0.85,0,0,180.0*
21,1,0.45,1.30,0,0,180.0*
1,1,0.45,-0.23,0.42*
1,1,0.45,0.23,0.42*
1,1,0.45,0.23,-0.42*
1,1,0.45,-0.23,-0.42*
%
%ADD26ROUNDEDRECTD26*%
G04:AMPARAMS|DCode=27|XSize=1.15mm|YSize=1.8mm|CornerRadius=0.29mm|HoleSize=0mm|Usage=FLASHONLY|Rotation=0.000|XOffset=0mm|YOffset=0mm|HoleType=Round|Shape=RoundedRectangle|*
%AMROUNDEDRECTD27*
21,1,1.15,1.23,0,0,0.0*
21,1,0.57,1.80,0,0,0.0*
1,1,0.57,0.29,-0.61*
1,1,0.57,-0.29,-0.61*
1,1,0.57,-0.29,0.61*
1,1,0.57,0.29,0.61*
%
%ADD27ROUNDEDRECTD27*%
%ADD33C,0.30*%
%ADD34C,0.60*%
%ADD35C,1.00*%
%ADD36C,2.00*%
%ADD38C,0.80*%
%ADD39C,0.40*%
%ADD42C,7.00*%
%ADD43C,1.57*%
%ADD44C,2.00*%
%ADD45R,2.50X2.50*%
%ADD46C,2.50*%
%ADD47C,1.50*%
%ADD48R,1.50X1.50*%
%ADD49R,1.50X1.50*%
%ADD50C,1.50*%
%ADD51R,1.50X1.50*%
%ADD52R,1.50X1.50*%
%ADD53C,2.00*%
%ADD54R,2.00X2.00*%
%ADD55C,1.80*%
%ADD56C,1.00*%
%ADD57R,1.00X1.00*%
%ADD58R,1.20X1.20*%
%ADD59C,1.20*%
%ADD60O,2.00X3.00*%
%ADD61C,1.70*%
%ADD62C,3.00*%
%ADD63R,1.70X1.70*%
%ADD64C,0.80*%
G04:AMPARAMS|DCode=65|XSize=1.15mm|YSize=1.8mm|CornerRadius=0.29mm|HoleSize=0mm|Usage=FLASHONLY|Rotation=270.000|XOffset=0mm|YOffset=0mm|HoleType=Round|Shape=RoundedRectangle|*
%AMROUNDEDRECTD65*
21,1,1.15,1.23,0,0,270.0*
21,1,0.57,1.80,0,0,270.0*
1,1,0.57,-0.61,-0.29*
1,1,0.57,-0.61,0.29*
1,1,0.57,0.61,0.29*
1,1,0.57,0.61,-0.29*
%
%ADD65ROUNDEDRECTD65*%
G36*
X15888Y1640D02*
X15874Y1622D01*
X15866Y1602D01*
X15863Y1580D01*
X15847Y1568D01*
X15842Y1561D01*
X15829Y1565D01*
Y1585D01*
X15827Y1607D01*
X15818Y1627D01*
X15804Y1645D01*
X15775Y1675D01*
X15795Y1701D01*
X15809Y1734D01*
X15813Y1769D01*
X15809Y1804D01*
X15795Y1837D01*
X15773Y1865D01*
X15745Y1887D01*
X15744Y1888D01*
X15746Y1900D01*
X15888D01*
Y1640D01*
D02*
G37*
G36*
X15288Y1640D02*
X15274Y1622D01*
X15266Y1602D01*
X15263Y1580D01*
X15247Y1568D01*
X15242Y1561D01*
X15229Y1565D01*
Y1585D01*
X15227Y1607D01*
X15218Y1627D01*
X15204Y1645D01*
X15175Y1675D01*
X15195Y1701D01*
X15209Y1734D01*
X15213Y1769D01*
X15209Y1804D01*
X15195Y1837D01*
X15173Y1865D01*
X15145Y1887D01*
X15144Y1888D01*
X15146Y1900D01*
X15288D01*
Y1640D01*
D02*
G37*
G36*
X14688Y1871D02*
Y1640D01*
X14674Y1622D01*
X14666Y1602D01*
X14663Y1580D01*
X14647Y1568D01*
X14635Y1552D01*
X14627Y1533D01*
X14624Y1512D01*
Y1477D01*
X14627Y1457D01*
X14635Y1438D01*
X14647Y1422D01*
X14663Y1410D01*
X14667Y1408D01*
X14664Y1396D01*
X14551D01*
X14551Y1396D01*
X14528Y1393D01*
X14506Y1384D01*
X14487Y1369D01*
X14156Y1039D01*
X14140Y1041D01*
X14103Y1036D01*
X14067Y1021D01*
X14037Y998D01*
X14022Y978D01*
X14005D01*
X13990Y998D01*
X13960Y1021D01*
X13924Y1036D01*
X13887Y1041D01*
X13864Y1038D01*
X13624Y1278D01*
X13606Y1292D01*
X13586Y1300D01*
X13563Y1303D01*
X12276D01*
Y1323D01*
X12274Y1332D01*
X12286Y1339D01*
X12291Y1335D01*
X12311Y1327D01*
X12332Y1324D01*
X12378D01*
X12399Y1327D01*
X12419Y1335D01*
X12436Y1349D01*
X12450Y1366D01*
X12454Y1375D01*
X12468Y1377D01*
X12477Y1362D01*
X12498Y1349D01*
X12522Y1344D01*
X12525D01*
Y1450D01*
Y1556D01*
X12522D01*
X12498Y1551D01*
X12477Y1538D01*
X12468Y1523D01*
X12454Y1525D01*
X12450Y1534D01*
X12436Y1551D01*
X12419Y1565D01*
X12399Y1573D01*
X12378Y1576D01*
X12347D01*
X12331Y1582D01*
X12309Y1585D01*
X12293D01*
X12287Y1598D01*
X12297Y1611D01*
X12306Y1632D01*
X12306Y1634D01*
X12358D01*
Y1723D01*
X12371Y1725D01*
X12377Y1711D01*
X12395Y1687D01*
X12419Y1669D01*
X12447Y1657D01*
X12457Y1656D01*
Y1769D01*
X12497D01*
Y1656D01*
X12507Y1657D01*
X12535Y1669D01*
X12559Y1687D01*
X12577Y1711D01*
X12589Y1739D01*
X12590Y1744D01*
X12602Y1748D01*
X12650Y1700D01*
X12800Y1550D01*
X14550D01*
X14650Y1650D01*
Y1800D01*
Y1850D01*
X14676Y1876D01*
X14688Y1871D01*
D02*
G37*
G36*
X16489Y1899D02*
Y1636D01*
X16476Y1618D01*
X16467Y1597D01*
X16465Y1581D01*
X16463Y1580D01*
X16447Y1568D01*
X16442Y1561D01*
X16429Y1565D01*
Y1585D01*
X16427Y1607D01*
X16418Y1627D01*
X16404Y1645D01*
X16375Y1675D01*
X16395Y1701D01*
X16409Y1734D01*
X16413Y1769D01*
X16409Y1804D01*
X16395Y1837D01*
X16373Y1865D01*
X16345Y1887D01*
X16344Y1888D01*
X16346Y1900D01*
X16477D01*
X16489Y1899D01*
D02*
G37*
G36*
X6760Y2923D02*
X6750Y2915D01*
X6745Y2910D01*
X6744D01*
X6744Y2910D01*
X6721Y2907D01*
X6699Y2898D01*
X6680Y2883D01*
X6636Y2839D01*
X6621Y2820D01*
X6612Y2798D01*
X6609Y2775D01*
Y2695D01*
X6594Y2689D01*
X6575Y2675D01*
X6574Y2673D01*
X6551D01*
X6550Y2675D01*
X6531Y2689D01*
X6509Y2698D01*
X6486Y2701D01*
X6364D01*
X6341Y2698D01*
X6319Y2689D01*
X6300Y2675D01*
X6299Y2673D01*
X6276D01*
X6275Y2675D01*
X6256Y2689D01*
X6234Y2698D01*
X6211Y2701D01*
X6089D01*
X6066Y2698D01*
X6044Y2689D01*
X6025Y2675D01*
X6024Y2673D01*
X6001D01*
X6000Y2675D01*
X5981Y2689D01*
X5959Y2698D01*
X5936Y2701D01*
X5814D01*
X5791Y2698D01*
X5769Y2689D01*
X5750Y2675D01*
X5736Y2656D01*
X5727Y2634D01*
X5724Y2611D01*
Y2554D01*
X5727Y2531D01*
X5736Y2509D01*
X5750Y2490D01*
X5769Y2476D01*
X5791Y2467D01*
X5814Y2464D01*
X5936D01*
X5959Y2467D01*
X5981Y2476D01*
X6000Y2490D01*
X6001Y2492D01*
X6024D01*
X6025Y2490D01*
X6044Y2476D01*
X6066Y2467D01*
X6089Y2464D01*
X6211D01*
X6234Y2467D01*
X6256Y2476D01*
X6275Y2490D01*
X6276Y2492D01*
X6299D01*
X6300Y2490D01*
X6319Y2476D01*
X6341Y2467D01*
X6364Y2464D01*
X6486D01*
X6509Y2467D01*
X6531Y2476D01*
X6550Y2490D01*
X6551Y2492D01*
X6574D01*
X6575Y2490D01*
X6594Y2476D01*
X6616Y2467D01*
X6639Y2464D01*
X6761D01*
X6784Y2467D01*
X6806Y2476D01*
X6825Y2490D01*
X6826Y2492D01*
X6850D01*
Y2358D01*
X6975D01*
Y2317D01*
X6850D01*
Y500D01*
X7000Y350D01*
X7050Y300D01*
X8550D01*
X8700Y450D01*
X8900D01*
X9000Y550D01*
Y850D01*
Y900D01*
X9950Y1850D01*
X10050Y1950D01*
X12400D01*
X12456Y1894D01*
X12452Y1882D01*
X12447Y1881D01*
X12419Y1869D01*
X12395Y1851D01*
X12377Y1827D01*
X12371Y1813D01*
X12358Y1815D01*
Y1904D01*
X12088D01*
Y1640D01*
X12074Y1622D01*
X12066Y1602D01*
X12063Y1580D01*
X12047Y1568D01*
X12035Y1552D01*
X12029Y1536D01*
X12015Y1534D01*
X12013Y1538D01*
X11992Y1551D01*
X11968Y1556D01*
X11965D01*
Y1450D01*
Y1344D01*
X11968D01*
X11992Y1349D01*
X12013Y1362D01*
X12026Y1383D01*
X12031Y1407D01*
Y1422D01*
X12044Y1427D01*
X12047Y1422D01*
X12063Y1410D01*
X12070Y1407D01*
Y1393D01*
X12063Y1390D01*
X12047Y1378D01*
X12035Y1362D01*
X12027Y1343D01*
X12024Y1323D01*
Y1288D01*
X12027Y1267D01*
X12035Y1248D01*
X12047Y1232D01*
X12063Y1220D01*
X12082Y1212D01*
X12103Y1209D01*
X12124D01*
X12161Y1172D01*
X12156Y1161D01*
X11816D01*
X11676Y1301D01*
Y1323D01*
X11674Y1332D01*
X11686Y1339D01*
X11691Y1335D01*
X11711Y1327D01*
X11732Y1324D01*
X11778D01*
X11799Y1327D01*
X11819Y1335D01*
X11836Y1349D01*
X11850Y1366D01*
X11854Y1375D01*
X11868Y1377D01*
X11877Y1362D01*
X11898Y1349D01*
X11922Y1344D01*
X11925D01*
Y1450D01*
Y1556D01*
X11922D01*
X11898Y1551D01*
X11877Y1538D01*
X11868Y1523D01*
X11854Y1525D01*
X11850Y1534D01*
X11836Y1551D01*
X11819Y1565D01*
X11799Y1573D01*
X11778Y1576D01*
X11747D01*
X11731Y1582D01*
X11709Y1585D01*
X11693D01*
X11687Y1598D01*
X11697Y1611D01*
X11706Y1632D01*
X11706Y1634D01*
X11758D01*
Y1723D01*
X11771Y1725D01*
X11777Y1711D01*
X11795Y1687D01*
X11819Y1669D01*
X11847Y1657D01*
X11857Y1656D01*
Y1769D01*
Y1882D01*
X11847Y1881D01*
X11819Y1869D01*
X11795Y1851D01*
X11777Y1827D01*
X11771Y1813D01*
X11758Y1815D01*
Y1904D01*
X11488D01*
Y1640D01*
X11474Y1622D01*
X11466Y1602D01*
X11463Y1580D01*
X11447Y1568D01*
X11435Y1552D01*
X11429Y1536D01*
X11415Y1534D01*
X11413Y1538D01*
X11392Y1551D01*
X11368Y1556D01*
X11365D01*
Y1450D01*
Y1344D01*
X11368D01*
X11392Y1349D01*
X11413Y1362D01*
X11426Y1383D01*
X11431Y1407D01*
Y1422D01*
X11444Y1427D01*
X11447Y1422D01*
X11463Y1410D01*
X11470Y1407D01*
Y1393D01*
X11463Y1390D01*
X11447Y1378D01*
X11435Y1362D01*
X11427Y1343D01*
X11424Y1323D01*
Y1288D01*
X11427Y1267D01*
X11435Y1248D01*
X11447Y1232D01*
X11463Y1220D01*
X11482Y1212D01*
X11503Y1209D01*
X11524D01*
X11719Y1014D01*
X11729Y1007D01*
X11729Y1007D01*
X11731Y990D01*
X11731Y990D01*
X11722Y978D01*
X11705D01*
X11690Y998D01*
X11660Y1021D01*
X11624Y1036D01*
X11586Y1041D01*
X11564Y1038D01*
X11532Y1071D01*
X11514Y1084D01*
X11493Y1093D01*
X11471Y1096D01*
X11281D01*
X11076Y1301D01*
Y1323D01*
X11074Y1332D01*
X11086Y1339D01*
X11091Y1335D01*
X11111Y1327D01*
X11132Y1324D01*
X11178D01*
X11199Y1327D01*
X11219Y1335D01*
X11236Y1349D01*
X11250Y1366D01*
X11254Y1375D01*
X11268Y1377D01*
X11277Y1362D01*
X11298Y1349D01*
X11322Y1344D01*
X11325D01*
Y1450D01*
Y1556D01*
X11322D01*
X11298Y1551D01*
X11277Y1538D01*
X11268Y1523D01*
X11254Y1525D01*
X11250Y1534D01*
X11236Y1551D01*
X11219Y1565D01*
X11199Y1573D01*
X11178Y1576D01*
X11147D01*
X11131Y1582D01*
X11109Y1585D01*
X11093D01*
X11087Y1598D01*
X11097Y1611D01*
X11106Y1632D01*
X11106Y1634D01*
X11158D01*
Y1723D01*
X11171Y1725D01*
X11177Y1711D01*
X11195Y1687D01*
X11219Y1669D01*
X11247Y1657D01*
X11257Y1656D01*
Y1769D01*
Y1882D01*
X11247Y1881D01*
X11219Y1869D01*
X11195Y1851D01*
X11177Y1827D01*
X11171Y1813D01*
X11158Y1815D01*
Y1904D01*
X10888D01*
Y1640D01*
X10874Y1622D01*
X10866Y1602D01*
X10863Y1580D01*
X10847Y1568D01*
X10835Y1552D01*
X10829Y1536D01*
X10815Y1534D01*
X10813Y1538D01*
X10792Y1551D01*
X10768Y1556D01*
X10765D01*
Y1450D01*
Y1344D01*
X10768D01*
X10792Y1349D01*
X10813Y1362D01*
X10826Y1383D01*
X10831Y1407D01*
Y1422D01*
X10844Y1427D01*
X10847Y1422D01*
X10863Y1410D01*
X10870Y1407D01*
Y1393D01*
X10863Y1390D01*
X10847Y1378D01*
X10835Y1362D01*
X10827Y1343D01*
X10824Y1323D01*
Y1288D01*
X10827Y1267D01*
X10835Y1248D01*
X10847Y1232D01*
X10863Y1220D01*
X10882Y1212D01*
X10903Y1209D01*
X10924D01*
X11184Y949D01*
X11202Y936D01*
X11223Y927D01*
X11245Y924D01*
X11434D01*
X11443Y915D01*
X11440Y894D01*
X11443Y872D01*
X11399Y828D01*
X11385Y810D01*
X11377Y790D01*
X11376Y786D01*
X11314D01*
Y495D01*
X11604D01*
Y557D01*
X11617Y562D01*
X11624Y551D01*
X11650Y531D01*
X11681Y519D01*
X11693Y517D01*
Y641D01*
Y764D01*
X11681Y762D01*
X11650Y750D01*
X11624Y730D01*
X11617Y719D01*
X11604Y724D01*
Y751D01*
X11624Y753D01*
X11660Y768D01*
X11690Y791D01*
X11705Y811D01*
X11722D01*
X11737Y791D01*
X11767Y768D01*
X11803Y753D01*
X11840Y748D01*
X11878Y753D01*
X11914Y768D01*
X11944Y791D01*
X11967Y821D01*
X11982Y857D01*
X11987Y894D01*
X11982Y932D01*
X11967Y968D01*
X11959Y978D01*
X11965Y989D01*
X12520D01*
X12593Y917D01*
X12590Y894D01*
X12593Y872D01*
X12549Y828D01*
X12535Y810D01*
X12527Y790D01*
X12526Y786D01*
X12464D01*
Y495D01*
X12754D01*
Y557D01*
X12767Y562D01*
X12774Y551D01*
X12800Y531D01*
X12831Y519D01*
X12843Y517D01*
Y641D01*
Y764D01*
X12831Y762D01*
X12800Y750D01*
X12774Y730D01*
X12767Y719D01*
X12754Y724D01*
Y751D01*
X12774Y753D01*
X12810Y768D01*
X12840Y791D01*
X12855Y811D01*
X12872D01*
X12887Y791D01*
X12917Y768D01*
X12953Y753D01*
X12990Y748D01*
X13028Y753D01*
X13064Y768D01*
X13094Y791D01*
X13117Y821D01*
X13132Y857D01*
X13137Y894D01*
X13132Y932D01*
X13117Y968D01*
X13094Y998D01*
X13064Y1021D01*
X13028Y1036D01*
X12990Y1041D01*
X12953Y1036D01*
X12917Y1021D01*
X12887Y998D01*
X12872Y978D01*
X12855D01*
X12840Y998D01*
X12810Y1021D01*
X12774Y1036D01*
X12736Y1041D01*
X12714Y1038D01*
X12632Y1120D01*
X12637Y1132D01*
X13528D01*
X13743Y917D01*
X13740Y894D01*
X13743Y872D01*
X13699Y828D01*
X13685Y810D01*
X13677Y790D01*
X13676Y786D01*
X13615D01*
Y495D01*
X13904D01*
Y557D01*
X13917Y562D01*
X13924Y551D01*
X13950Y531D01*
X13981Y519D01*
X13993Y517D01*
Y641D01*
Y764D01*
X13981Y762D01*
X13950Y750D01*
X13924Y730D01*
X13917Y719D01*
X13904Y724D01*
Y751D01*
X13924Y753D01*
X13960Y768D01*
X13990Y791D01*
X14005Y811D01*
X14022D01*
X14037Y791D01*
X14067Y768D01*
X14103Y753D01*
X14140Y748D01*
X14178Y753D01*
X14214Y768D01*
X14244Y791D01*
X14267Y821D01*
X14282Y857D01*
X14287Y894D01*
X14285Y910D01*
X14589Y1214D01*
X14677D01*
X14682Y1212D01*
X14703Y1209D01*
X14798D01*
X14804Y1210D01*
X14836Y1178D01*
X14836Y1178D01*
X14855Y1164D01*
X14877Y1155D01*
X14900Y1152D01*
X14900Y1152D01*
X15193D01*
X15216Y1155D01*
X15238Y1164D01*
X15257Y1178D01*
X15289Y1211D01*
X15303Y1209D01*
X15398D01*
X15404Y1210D01*
X15436Y1178D01*
X15436Y1178D01*
X15455Y1164D01*
X15477Y1155D01*
X15500Y1152D01*
X15500Y1152D01*
X15793D01*
X15816Y1155D01*
X15838Y1164D01*
X15857Y1178D01*
X15889Y1211D01*
X15903Y1209D01*
X15998D01*
X16004Y1210D01*
X16036Y1178D01*
X16036Y1178D01*
X16055Y1164D01*
X16077Y1155D01*
X16100Y1152D01*
X16100Y1152D01*
X16393D01*
X16416Y1155D01*
X16438Y1164D01*
X16457Y1178D01*
X16489Y1211D01*
X16503Y1209D01*
X16575D01*
X16606Y1178D01*
X16625Y1164D01*
X16647Y1155D01*
X16670Y1152D01*
X16670Y1152D01*
X17182D01*
X17565Y769D01*
X17564Y762D01*
X17568Y727D01*
X17582Y694D01*
X17589Y685D01*
Y585D01*
X17582Y576D01*
X17568Y543D01*
X17564Y508D01*
X17568Y473D01*
X17582Y440D01*
X17589Y431D01*
Y331D01*
X17582Y322D01*
X17568Y289D01*
X17564Y254D01*
X17568Y219D01*
X17582Y186D01*
X17589Y177D01*
Y135D01*
X17565D01*
Y-7D01*
X17237Y-334D01*
X9843D01*
X9839Y-322D01*
X9854Y-309D01*
X9873Y-286D01*
X9887Y-260D01*
X9895Y-232D01*
X9898Y-203D01*
X9895Y-173D01*
X9887Y-145D01*
X9873Y-119D01*
X9854Y-96D01*
X9831Y-77D01*
X9805Y-63D01*
X9777Y-55D01*
X9747Y-52D01*
X9718Y-55D01*
X9690Y-63D01*
X9664Y-77D01*
X9641Y-96D01*
X9629Y-111D01*
X9612D01*
X9600Y-96D01*
X9577Y-77D01*
X9551Y-63D01*
X9523Y-55D01*
X9493Y-52D01*
X9464Y-55D01*
X9436Y-63D01*
X9410Y-77D01*
X9387Y-96D01*
X9368Y-119D01*
X9354Y-145D01*
X9346Y-173D01*
X9343Y-203D01*
X9346Y-232D01*
X9354Y-260D01*
X9368Y-286D01*
X9387Y-309D01*
X9402Y-322D01*
X9398Y-334D01*
X6823D01*
X6648Y-160D01*
Y-41D01*
X6661Y-39D01*
X6672Y-75D01*
X6692Y-112D01*
X6718Y-144D01*
X6750Y-170D01*
X6786Y-189D01*
X6826Y-201D01*
X6867Y-206D01*
X6908Y-201D01*
X6948Y-189D01*
X6984Y-170D01*
X7016Y-144D01*
X7042Y-112D01*
X7062Y-75D01*
X7074Y-36D01*
X7078Y6D01*
X7074Y47D01*
X7062Y86D01*
X7042Y123D01*
X7016Y155D01*
X6984Y181D01*
X6948Y200D01*
X6908Y212D01*
X6867Y217D01*
X6826Y212D01*
X6786Y200D01*
X6750Y181D01*
X6718Y155D01*
X6692Y123D01*
X6672Y86D01*
X6661Y50D01*
X6648Y52D01*
Y1475D01*
X6645Y1498D01*
X6636Y1520D01*
X6622Y1539D01*
X6550Y1611D01*
Y1700D01*
X6450Y1800D01*
X5828D01*
X4950Y2678D01*
Y2818D01*
X4950Y2819D01*
X4950Y2820D01*
Y2950D01*
Y3000D01*
X5000Y3050D01*
X6760D01*
Y2923D01*
D02*
G37*
G36*
X17950Y-450D02*
X17395D01*
X17390Y-438D01*
X17693Y-135D01*
X17835D01*
Y135D01*
X17811D01*
Y177D01*
X17818Y186D01*
X17832Y219D01*
X17836Y254D01*
X17832Y289D01*
X17818Y322D01*
X17811Y331D01*
Y431D01*
X17818Y440D01*
X17832Y473D01*
X17836Y508D01*
X17832Y543D01*
X17818Y576D01*
X17811Y585D01*
Y685D01*
X17818Y694D01*
X17832Y727D01*
X17836Y762D01*
X17832Y797D01*
X17818Y830D01*
X17796Y858D01*
X17768Y880D01*
X17735Y894D01*
X17700Y898D01*
X17693Y897D01*
X17284Y1307D01*
X17265Y1321D01*
X17243Y1330D01*
X17220Y1333D01*
X17027D01*
X17023Y1346D01*
X17026Y1349D01*
X17040Y1366D01*
X17048Y1386D01*
X17051Y1407D01*
Y1492D01*
X17048Y1514D01*
X17040Y1534D01*
X17031Y1546D01*
Y1580D01*
X17028Y1602D01*
X17019Y1623D01*
X17006Y1641D01*
X16976Y1670D01*
X16996Y1696D01*
X17010Y1729D01*
X17014Y1764D01*
X17010Y1800D01*
X16996Y1832D01*
X16975Y1861D01*
X16946Y1882D01*
X16934Y1887D01*
X16937Y1900D01*
X17950D01*
Y-450D01*
D02*
G37*
%LPC*%
G36*
X15805Y189D02*
X15788Y186D01*
X15754Y172D01*
X15725Y150D01*
X15703Y121D01*
X15689Y87D01*
X15684Y50D01*
Y20D01*
X15805D01*
Y189D01*
D02*
G37*
G36*
X16505D02*
X16488Y186D01*
X16454Y172D01*
X16425Y150D01*
X16403Y121D01*
X16389Y87D01*
X16384Y50D01*
Y20D01*
X16505D01*
Y189D01*
D02*
G37*
G36*
X15845D02*
Y20D01*
X15966D01*
Y50D01*
X15961Y87D01*
X15947Y121D01*
X15925Y150D01*
X15896Y172D01*
X15862Y186D01*
X15845Y189D01*
D02*
G37*
G36*
X15145D02*
Y20D01*
X15266D01*
Y50D01*
X15261Y87D01*
X15247Y121D01*
X15225Y150D01*
X15196Y172D01*
X15162Y186D01*
X15145Y189D01*
D02*
G37*
G36*
X9180Y115D02*
X9085D01*
Y20D01*
X9180D01*
Y115D01*
D02*
G37*
G36*
X9315D02*
X9220D01*
Y20D01*
X9315D01*
Y115D01*
D02*
G37*
G36*
X15105Y189D02*
X15088Y186D01*
X15054Y172D01*
X15025Y150D01*
X15003Y121D01*
X14989Y87D01*
X14984Y50D01*
Y20D01*
X15105D01*
Y189D01*
D02*
G37*
G36*
X16545D02*
Y20D01*
X16666D01*
Y50D01*
X16661Y87D01*
X16647Y121D01*
X16625Y150D01*
X16596Y172D01*
X16562Y186D01*
X16545Y189D01*
D02*
G37*
G36*
X9180Y234D02*
X9087D01*
X9088Y224D01*
X9100Y196D01*
X9118Y172D01*
X9142Y154D01*
X9170Y142D01*
X9180Y141D01*
Y234D01*
D02*
G37*
G36*
X8017Y217D02*
X7976Y212D01*
X7936Y200D01*
X7900Y181D01*
X7868Y155D01*
X7842Y123D01*
X7831Y104D01*
X7819D01*
X7808Y123D01*
X7782Y155D01*
X7750Y181D01*
X7714Y200D01*
X7674Y212D01*
X7633Y217D01*
X7592Y212D01*
X7552Y200D01*
X7516Y181D01*
X7484Y155D01*
X7458Y123D01*
X7438Y86D01*
X7426Y47D01*
X7422Y6D01*
X7426Y-36D01*
X7438Y-75D01*
X7458Y-112D01*
X7484Y-144D01*
X7516Y-170D01*
X7552Y-189D01*
X7592Y-201D01*
X7633Y-206D01*
X7674Y-201D01*
X7714Y-189D01*
X7750Y-170D01*
X7782Y-144D01*
X7808Y-112D01*
X7819Y-93D01*
X7831D01*
X7842Y-112D01*
X7868Y-144D01*
X7900Y-170D01*
X7936Y-189D01*
X7976Y-201D01*
X8017Y-206D01*
X8058Y-201D01*
X8098Y-189D01*
X8134Y-170D01*
X8166Y-144D01*
X8192Y-112D01*
X8212Y-75D01*
X8224Y-36D01*
X8228Y6D01*
X8224Y47D01*
X8212Y86D01*
X8192Y123D01*
X8166Y155D01*
X8134Y181D01*
X8098Y200D01*
X8058Y212D01*
X8017Y217D01*
D02*
G37*
G36*
X9180Y367D02*
X9170Y366D01*
X9142Y354D01*
X9118Y336D01*
X9100Y312D01*
X9088Y284D01*
X9087Y274D01*
X9180D01*
Y367D01*
D02*
G37*
G36*
X9313Y234D02*
X9220D01*
Y141D01*
X9230Y142D01*
X9258Y154D01*
X9282Y172D01*
X9300Y196D01*
X9312Y224D01*
X9313Y234D01*
D02*
G37*
G36*
X13567Y217D02*
X13526Y212D01*
X13486Y200D01*
X13450Y181D01*
X13418Y155D01*
X13392Y123D01*
X13381Y104D01*
X13369D01*
X13358Y123D01*
X13332Y155D01*
X13300Y181D01*
X13264Y200D01*
X13224Y212D01*
X13183Y217D01*
X13142Y212D01*
X13102Y200D01*
X13066Y181D01*
X13034Y155D01*
X13008Y123D01*
X12988Y86D01*
X12976Y47D01*
X12972Y5D01*
X12976Y-36D01*
X12988Y-75D01*
X13008Y-112D01*
X13034Y-144D01*
X13066Y-170D01*
X13102Y-189D01*
X13142Y-201D01*
X13183Y-206D01*
X13224Y-201D01*
X13264Y-189D01*
X13300Y-170D01*
X13332Y-144D01*
X13358Y-112D01*
X13369Y-93D01*
X13381D01*
X13392Y-112D01*
X13418Y-144D01*
X13450Y-170D01*
X13486Y-189D01*
X13526Y-201D01*
X13567Y-206D01*
X13608Y-201D01*
X13648Y-189D01*
X13684Y-170D01*
X13716Y-144D01*
X13742Y-112D01*
X13762Y-75D01*
X13774Y-36D01*
X13778Y5D01*
X13774Y47D01*
X13762Y86D01*
X13742Y123D01*
X13716Y155D01*
X13684Y181D01*
X13648Y200D01*
X13608Y212D01*
X13567Y217D01*
D02*
G37*
G36*
X17245Y189D02*
Y20D01*
X17366D01*
Y50D01*
X17361Y87D01*
X17347Y121D01*
X17325Y150D01*
X17296Y172D01*
X17262Y186D01*
X17245Y189D01*
D02*
G37*
G36*
X17205D02*
X17188Y186D01*
X17154Y172D01*
X17125Y150D01*
X17103Y121D01*
X17089Y87D01*
X17084Y50D01*
Y20D01*
X17205D01*
Y189D01*
D02*
G37*
G36*
X12417Y217D02*
X12376Y212D01*
X12336Y200D01*
X12300Y181D01*
X12268Y155D01*
X12242Y123D01*
X12231Y104D01*
X12219D01*
X12208Y123D01*
X12182Y155D01*
X12150Y181D01*
X12114Y200D01*
X12074Y212D01*
X12033Y217D01*
X11992Y212D01*
X11952Y200D01*
X11916Y181D01*
X11884Y155D01*
X11858Y123D01*
X11838Y86D01*
X11826Y47D01*
X11822Y5D01*
X11826Y-36D01*
X11838Y-75D01*
X11858Y-112D01*
X11884Y-144D01*
X11916Y-170D01*
X11952Y-189D01*
X11992Y-201D01*
X12033Y-206D01*
X12074Y-201D01*
X12114Y-189D01*
X12150Y-170D01*
X12182Y-144D01*
X12208Y-112D01*
X12219Y-93D01*
X12231D01*
X12242Y-112D01*
X12268Y-144D01*
X12300Y-170D01*
X12336Y-189D01*
X12376Y-201D01*
X12417Y-206D01*
X12458Y-201D01*
X12498Y-189D01*
X12534Y-170D01*
X12566Y-144D01*
X12592Y-112D01*
X12612Y-75D01*
X12624Y-36D01*
X12628Y5D01*
X12624Y47D01*
X12612Y86D01*
X12592Y123D01*
X12566Y155D01*
X12534Y181D01*
X12498Y200D01*
X12458Y212D01*
X12417Y217D01*
D02*
G37*
G36*
X11267D02*
X11226Y212D01*
X11186Y200D01*
X11150Y181D01*
X11118Y155D01*
X11092Y123D01*
X11081Y104D01*
X11069D01*
X11058Y123D01*
X11032Y155D01*
X11000Y181D01*
X10964Y200D01*
X10924Y212D01*
X10883Y217D01*
X10842Y212D01*
X10802Y200D01*
X10766Y181D01*
X10734Y155D01*
X10708Y123D01*
X10688Y86D01*
X10676Y47D01*
X10672Y5D01*
X10676Y-36D01*
X10688Y-75D01*
X10708Y-112D01*
X10734Y-144D01*
X10766Y-170D01*
X10802Y-189D01*
X10842Y-201D01*
X10883Y-206D01*
X10924Y-201D01*
X10964Y-189D01*
X11000Y-170D01*
X11032Y-144D01*
X11058Y-112D01*
X11069Y-93D01*
X11081D01*
X11092Y-112D01*
X11118Y-144D01*
X11150Y-170D01*
X11186Y-189D01*
X11226Y-201D01*
X11267Y-206D01*
X11308Y-201D01*
X11348Y-189D01*
X11384Y-170D01*
X11416Y-144D01*
X11442Y-112D01*
X11462Y-75D01*
X11474Y-36D01*
X11478Y5D01*
X11474Y47D01*
X11462Y86D01*
X11442Y123D01*
X11416Y155D01*
X11384Y181D01*
X11348Y200D01*
X11308Y212D01*
X11267Y217D01*
D02*
G37*
G36*
X15105Y-20D02*
X14984D01*
Y-50D01*
X14989Y-87D01*
X15003Y-121D01*
X15025Y-150D01*
X15054Y-172D01*
X15088Y-186D01*
X15105Y-189D01*
Y-20D01*
D02*
G37*
G36*
X8783Y217D02*
X8742Y212D01*
X8702Y200D01*
X8666Y181D01*
X8634Y155D01*
X8608Y123D01*
X8588Y86D01*
X8576Y47D01*
X8572Y6D01*
X8576Y-36D01*
X8588Y-75D01*
X8608Y-112D01*
X8634Y-144D01*
X8666Y-170D01*
X8702Y-189D01*
X8742Y-201D01*
X8783Y-206D01*
X8824Y-201D01*
X8864Y-189D01*
X8900Y-170D01*
X8932Y-144D01*
X8958Y-112D01*
X8978Y-75D01*
X8990Y-36D01*
X8994Y6D01*
X8990Y47D01*
X8978Y86D01*
X8958Y123D01*
X8932Y155D01*
X8900Y181D01*
X8864Y200D01*
X8824Y212D01*
X8783Y217D01*
D02*
G37*
G36*
X15805Y-20D02*
X15684D01*
Y-50D01*
X15689Y-87D01*
X15703Y-121D01*
X15725Y-150D01*
X15754Y-172D01*
X15788Y-186D01*
X15805Y-189D01*
Y-20D01*
D02*
G37*
G36*
X15266D02*
X15145D01*
Y-189D01*
X15162Y-186D01*
X15196Y-172D01*
X15225Y-150D01*
X15247Y-121D01*
X15261Y-87D01*
X15266Y-50D01*
Y-20D01*
D02*
G37*
G36*
X16875Y211D02*
X16844Y208D01*
X16813Y199D01*
X16786Y184D01*
X16761Y164D01*
X16741Y139D01*
X16726Y112D01*
X16717Y81D01*
X16714Y50D01*
Y-50D01*
X16717Y-81D01*
X16726Y-112D01*
X16741Y-139D01*
X16761Y-164D01*
X16786Y-184D01*
X16813Y-199D01*
X16844Y-208D01*
X16875Y-211D01*
X16906Y-208D01*
X16937Y-199D01*
X16964Y-184D01*
X16989Y-164D01*
X17009Y-139D01*
X17024Y-112D01*
X17033Y-81D01*
X17036Y-50D01*
Y50D01*
X17033Y81D01*
X17024Y112D01*
X17009Y139D01*
X16989Y164D01*
X16964Y184D01*
X16937Y199D01*
X16906Y208D01*
X16875Y211D01*
D02*
G37*
G36*
X16175D02*
X16144Y208D01*
X16113Y199D01*
X16086Y184D01*
X16061Y164D01*
X16041Y139D01*
X16026Y112D01*
X16017Y81D01*
X16014Y50D01*
Y-50D01*
X16017Y-81D01*
X16026Y-112D01*
X16041Y-139D01*
X16061Y-164D01*
X16086Y-184D01*
X16113Y-199D01*
X16144Y-208D01*
X16175Y-211D01*
X16206Y-208D01*
X16237Y-199D01*
X16264Y-184D01*
X16289Y-164D01*
X16309Y-139D01*
X16324Y-112D01*
X16333Y-81D01*
X16336Y-50D01*
Y50D01*
X16333Y81D01*
X16324Y112D01*
X16309Y139D01*
X16289Y164D01*
X16264Y184D01*
X16237Y199D01*
X16206Y208D01*
X16175Y211D01*
D02*
G37*
G36*
X14333Y217D02*
X14292Y212D01*
X14252Y200D01*
X14216Y181D01*
X14184Y155D01*
X14158Y123D01*
X14138Y86D01*
X14126Y47D01*
X14122Y5D01*
X14126Y-36D01*
X14138Y-75D01*
X14158Y-112D01*
X14184Y-144D01*
X14216Y-170D01*
X14252Y-189D01*
X14292Y-201D01*
X14333Y-206D01*
X14374Y-201D01*
X14414Y-189D01*
X14450Y-170D01*
X14482Y-144D01*
X14508Y-112D01*
X14528Y-75D01*
X14540Y-36D01*
X14544Y5D01*
X14540Y47D01*
X14528Y86D01*
X14508Y123D01*
X14482Y155D01*
X14450Y181D01*
X14414Y200D01*
X14374Y212D01*
X14333Y217D01*
D02*
G37*
G36*
X10117D02*
X10076Y212D01*
X10036Y200D01*
X10000Y181D01*
X9968Y155D01*
X9942Y123D01*
X9922Y86D01*
X9910Y47D01*
X9906Y5D01*
X9910Y-36D01*
X9922Y-75D01*
X9942Y-112D01*
X9968Y-144D01*
X10000Y-170D01*
X10036Y-189D01*
X10076Y-201D01*
X10117Y-206D01*
X10158Y-201D01*
X10198Y-189D01*
X10234Y-170D01*
X10266Y-144D01*
X10292Y-112D01*
X10312Y-75D01*
X10324Y-36D01*
X10328Y5D01*
X10324Y47D01*
X10312Y86D01*
X10292Y123D01*
X10266Y155D01*
X10234Y181D01*
X10198Y200D01*
X10158Y212D01*
X10117Y217D01*
D02*
G37*
G36*
X15966Y-20D02*
X15845D01*
Y-189D01*
X15862Y-186D01*
X15896Y-172D01*
X15925Y-150D01*
X15947Y-121D01*
X15961Y-87D01*
X15966Y-50D01*
Y-20D01*
D02*
G37*
G36*
X14775Y211D02*
X14744Y208D01*
X14713Y199D01*
X14686Y184D01*
X14661Y164D01*
X14641Y139D01*
X14626Y112D01*
X14617Y81D01*
X14614Y50D01*
Y-50D01*
X14617Y-81D01*
X14626Y-112D01*
X14641Y-139D01*
X14661Y-164D01*
X14686Y-184D01*
X14713Y-199D01*
X14744Y-208D01*
X14775Y-211D01*
X14806Y-208D01*
X14837Y-199D01*
X14864Y-184D01*
X14889Y-164D01*
X14909Y-139D01*
X14924Y-112D01*
X14933Y-81D01*
X14936Y-50D01*
Y50D01*
X14933Y81D01*
X14924Y112D01*
X14909Y139D01*
X14889Y164D01*
X14864Y184D01*
X14837Y199D01*
X14806Y208D01*
X14775Y211D01*
D02*
G37*
G36*
X15475D02*
X15444Y208D01*
X15413Y199D01*
X15386Y184D01*
X15361Y164D01*
X15341Y139D01*
X15326Y112D01*
X15317Y81D01*
X15314Y50D01*
Y-50D01*
X15317Y-81D01*
X15326Y-112D01*
X15341Y-139D01*
X15361Y-164D01*
X15386Y-184D01*
X15413Y-199D01*
X15444Y-208D01*
X15475Y-211D01*
X15506Y-208D01*
X15537Y-199D01*
X15564Y-184D01*
X15589Y-164D01*
X15609Y-139D01*
X15624Y-112D01*
X15633Y-81D01*
X15636Y-50D01*
Y50D01*
X15633Y81D01*
X15624Y112D01*
X15609Y139D01*
X15589Y164D01*
X15564Y184D01*
X15537Y199D01*
X15506Y208D01*
X15475Y211D01*
D02*
G37*
G36*
X9315Y-20D02*
X9220D01*
Y-115D01*
X9315D01*
Y-20D01*
D02*
G37*
G36*
X9180D02*
X9085D01*
Y-115D01*
X9180D01*
Y-20D01*
D02*
G37*
G36*
X16666D02*
X16545D01*
Y-189D01*
X16562Y-186D01*
X16596Y-172D01*
X16625Y-150D01*
X16647Y-121D01*
X16661Y-87D01*
X16666Y-50D01*
Y-20D01*
D02*
G37*
G36*
X16505D02*
X16384D01*
Y-50D01*
X16389Y-87D01*
X16403Y-121D01*
X16425Y-150D01*
X16454Y-172D01*
X16488Y-186D01*
X16505Y-189D01*
Y-20D01*
D02*
G37*
G36*
X17366D02*
X17245D01*
Y-189D01*
X17262Y-186D01*
X17296Y-172D01*
X17325Y-150D01*
X17347Y-121D01*
X17361Y-87D01*
X17366Y-50D01*
Y-20D01*
D02*
G37*
G36*
X17205D02*
X17084D01*
Y-50D01*
X17089Y-87D01*
X17103Y-121D01*
X17125Y-150D01*
X17154Y-172D01*
X17188Y-186D01*
X17205Y-189D01*
Y-20D01*
D02*
G37*
G36*
X10697Y1882D02*
Y1789D01*
X10790D01*
X10789Y1799D01*
X10777Y1827D01*
X10759Y1851D01*
X10735Y1869D01*
X10707Y1881D01*
X10697Y1882D01*
D02*
G37*
G36*
X11390Y1749D02*
X11297D01*
Y1656D01*
X11307Y1657D01*
X11335Y1669D01*
X11359Y1687D01*
X11377Y1711D01*
X11389Y1739D01*
X11390Y1749D01*
D02*
G37*
G36*
X11297Y1882D02*
Y1789D01*
X11390D01*
X11389Y1799D01*
X11377Y1827D01*
X11359Y1851D01*
X11335Y1869D01*
X11307Y1881D01*
X11297Y1882D01*
D02*
G37*
G36*
X11897Y1882D02*
Y1789D01*
X11990D01*
X11989Y1799D01*
X11977Y1827D01*
X11959Y1851D01*
X11935Y1869D01*
X11907Y1881D01*
X11897Y1882D01*
D02*
G37*
G36*
X10558Y1904D02*
X10288D01*
Y1640D01*
X10274Y1622D01*
X10266Y1602D01*
X10263Y1580D01*
X10247Y1568D01*
X10235Y1552D01*
X10227Y1533D01*
X10224Y1512D01*
Y1477D01*
X10227Y1457D01*
X10235Y1438D01*
X10247Y1422D01*
X10263Y1410D01*
X10270Y1407D01*
Y1393D01*
X10263Y1390D01*
X10247Y1378D01*
X10235Y1362D01*
X10227Y1343D01*
X10224Y1323D01*
Y1288D01*
X10227Y1267D01*
X10235Y1248D01*
X10247Y1232D01*
X10263Y1220D01*
X10282Y1212D01*
X10303Y1209D01*
X10324D01*
X10352Y1182D01*
Y1012D01*
X10333Y998D01*
X10310Y968D01*
X10295Y932D01*
X10290Y894D01*
X10293Y872D01*
X10249Y828D01*
X10235Y810D01*
X10227Y790D01*
X10226Y786D01*
X10164D01*
Y495D01*
X10454D01*
Y557D01*
X10467Y562D01*
X10474Y551D01*
X10500Y531D01*
X10531Y519D01*
X10543Y517D01*
Y641D01*
Y764D01*
X10531Y762D01*
X10500Y750D01*
X10474Y730D01*
X10467Y719D01*
X10454Y724D01*
Y751D01*
X10474Y753D01*
X10510Y768D01*
X10540Y791D01*
X10555Y811D01*
X10572D01*
X10587Y791D01*
X10617Y768D01*
X10653Y753D01*
X10690Y748D01*
X10728Y753D01*
X10764Y768D01*
X10794Y791D01*
X10817Y821D01*
X10832Y857D01*
X10837Y894D01*
X10832Y932D01*
X10817Y968D01*
X10794Y998D01*
X10764Y1021D01*
X10728Y1036D01*
X10690Y1041D01*
X10653Y1036D01*
X10617Y1021D01*
X10587Y998D01*
X10572Y978D01*
X10555D01*
X10540Y998D01*
X10523Y1011D01*
Y1218D01*
X10520Y1240D01*
X10512Y1260D01*
X10498Y1278D01*
X10476Y1301D01*
Y1323D01*
X10474Y1332D01*
X10486Y1339D01*
X10491Y1335D01*
X10511Y1327D01*
X10532Y1324D01*
X10578D01*
X10599Y1327D01*
X10619Y1335D01*
X10636Y1349D01*
X10650Y1366D01*
X10654Y1375D01*
X10668Y1377D01*
X10677Y1362D01*
X10698Y1349D01*
X10722Y1344D01*
X10725D01*
Y1450D01*
Y1556D01*
X10722D01*
X10698Y1551D01*
X10677Y1538D01*
X10668Y1523D01*
X10654Y1525D01*
X10650Y1534D01*
X10636Y1551D01*
X10619Y1565D01*
X10599Y1573D01*
X10578Y1576D01*
X10547D01*
X10531Y1582D01*
X10509Y1585D01*
X10493D01*
X10487Y1598D01*
X10497Y1611D01*
X10506Y1632D01*
X10506Y1634D01*
X10558D01*
Y1723D01*
X10571Y1725D01*
X10577Y1711D01*
X10595Y1687D01*
X10619Y1669D01*
X10647Y1657D01*
X10657Y1656D01*
Y1769D01*
Y1882D01*
X10647Y1881D01*
X10619Y1869D01*
X10595Y1851D01*
X10577Y1827D01*
X10571Y1813D01*
X10558Y1815D01*
Y1904D01*
D02*
G37*
G36*
X12568Y1556D02*
X12565D01*
Y1470D01*
X12631D01*
Y1493D01*
X12626Y1517D01*
X12613Y1538D01*
X12592Y1551D01*
X12568Y1556D01*
D02*
G37*
G36*
X11990Y1749D02*
X11897D01*
Y1656D01*
X11907Y1657D01*
X11935Y1669D01*
X11959Y1687D01*
X11977Y1711D01*
X11989Y1739D01*
X11990Y1749D01*
D02*
G37*
G36*
X10790D02*
X10697D01*
Y1656D01*
X10707Y1657D01*
X10735Y1669D01*
X10759Y1687D01*
X10777Y1711D01*
X10789Y1739D01*
X10790Y1749D01*
D02*
G37*
G36*
X5855Y2262D02*
X5744D01*
Y2254D01*
X5747Y2236D01*
X5754Y2219D01*
X5765Y2205D01*
X5779Y2194D01*
X5796Y2187D01*
X5814Y2184D01*
X5855D01*
Y2262D01*
D02*
G37*
G36*
X6680Y2381D02*
X6639D01*
X6621Y2378D01*
X6604Y2371D01*
X6590Y2360D01*
X6579Y2346D01*
X6572Y2329D01*
X6569Y2311D01*
Y2254D01*
X6572Y2236D01*
X6579Y2219D01*
X6590Y2205D01*
X6604Y2194D01*
X6621Y2187D01*
X6639Y2184D01*
X6680D01*
Y2283D01*
Y2381D01*
D02*
G37*
G36*
X6486D02*
X6445D01*
Y2283D01*
Y2184D01*
X6486D01*
X6504Y2187D01*
X6521Y2194D01*
X6535Y2205D01*
X6546Y2219D01*
X6553Y2236D01*
X6556Y2254D01*
Y2311D01*
X6553Y2329D01*
X6546Y2346D01*
X6535Y2360D01*
X6521Y2371D01*
X6504Y2378D01*
X6486Y2381D01*
D02*
G37*
G36*
X5855D02*
X5814D01*
X5796Y2378D01*
X5779Y2371D01*
X5765Y2360D01*
X5754Y2346D01*
X5747Y2329D01*
X5744Y2311D01*
Y2302D01*
X5855D01*
Y2381D01*
D02*
G37*
G36*
X6761D02*
X6720D01*
Y2283D01*
Y2184D01*
X6761D01*
X6779Y2187D01*
X6796Y2194D01*
X6810Y2205D01*
X6821Y2219D01*
X6828Y2236D01*
X6831Y2254D01*
Y2311D01*
X6828Y2329D01*
X6821Y2346D01*
X6810Y2360D01*
X6796Y2371D01*
X6779Y2378D01*
X6761Y2381D01*
D02*
G37*
G36*
X6130D02*
X6089D01*
X6071Y2378D01*
X6054Y2371D01*
X6040Y2360D01*
X6029Y2346D01*
X6022Y2329D01*
X6019Y2311D01*
Y2254D01*
X6022Y2236D01*
X6029Y2219D01*
X6040Y2205D01*
X6054Y2194D01*
X6071Y2187D01*
X6089Y2184D01*
X6130D01*
Y2283D01*
Y2381D01*
D02*
G37*
G36*
X5936D02*
X5895D01*
Y2283D01*
Y2184D01*
X5936D01*
X5954Y2187D01*
X5971Y2194D01*
X5985Y2205D01*
X5996Y2219D01*
X6003Y2236D01*
X6006Y2254D01*
Y2311D01*
X6003Y2329D01*
X5996Y2346D01*
X5985Y2360D01*
X5971Y2371D01*
X5954Y2378D01*
X5936Y2381D01*
D02*
G37*
G36*
X6405D02*
X6364D01*
X6346Y2378D01*
X6329Y2371D01*
X6315Y2360D01*
X6304Y2346D01*
X6297Y2329D01*
X6294Y2311D01*
Y2254D01*
X6297Y2236D01*
X6304Y2219D01*
X6315Y2205D01*
X6329Y2194D01*
X6346Y2187D01*
X6364Y2184D01*
X6405D01*
Y2283D01*
Y2381D01*
D02*
G37*
G36*
X6211D02*
X6170D01*
Y2283D01*
Y2184D01*
X6211D01*
X6229Y2187D01*
X6246Y2194D01*
X6260Y2205D01*
X6271Y2219D01*
X6278Y2236D01*
X6281Y2254D01*
Y2311D01*
X6278Y2329D01*
X6271Y2346D01*
X6260Y2360D01*
X6246Y2371D01*
X6229Y2378D01*
X6211Y2381D01*
D02*
G37*
G36*
X12631Y1430D02*
X12565D01*
Y1344D01*
X12568D01*
X12592Y1349D01*
X12613Y1362D01*
X12626Y1383D01*
X12631Y1407D01*
Y1430D01*
D02*
G37*
G36*
X12987Y620D02*
X12884D01*
Y517D01*
X12896Y519D01*
X12927Y531D01*
X12953Y551D01*
X12973Y577D01*
X12985Y608D01*
X12987Y620D01*
D02*
G37*
G36*
X11837D02*
X11733D01*
Y517D01*
X11746Y519D01*
X11777Y531D01*
X11803Y551D01*
X11823Y577D01*
X11835Y608D01*
X11837Y620D01*
D02*
G37*
G36*
X9180Y621D02*
X9170Y620D01*
X9142Y608D01*
X9118Y590D01*
X9100Y566D01*
X9088Y538D01*
X9087Y528D01*
X9180D01*
Y621D01*
D02*
G37*
G36*
X14137Y620D02*
X14034D01*
Y517D01*
X14046Y519D01*
X14077Y531D01*
X14103Y551D01*
X14123Y577D01*
X14135Y608D01*
X14137Y620D01*
D02*
G37*
G36*
X9180Y488D02*
X9087D01*
X9088Y478D01*
X9100Y450D01*
X9118Y426D01*
X9142Y408D01*
X9170Y396D01*
X9180Y395D01*
Y488D01*
D02*
G37*
G36*
X9220Y367D02*
Y274D01*
X9313D01*
X9312Y284D01*
X9300Y312D01*
X9282Y336D01*
X9258Y354D01*
X9230Y366D01*
X9220Y367D01*
D02*
G37*
G36*
X10687Y620D02*
X10583D01*
Y517D01*
X10596Y519D01*
X10627Y531D01*
X10653Y551D01*
X10673Y577D01*
X10685Y608D01*
X10687Y620D01*
D02*
G37*
G36*
X9313Y488D02*
X9220D01*
Y395D01*
X9230Y396D01*
X9258Y408D01*
X9282Y426D01*
X9300Y450D01*
X9312Y478D01*
X9313Y488D01*
D02*
G37*
G36*
X9220Y621D02*
Y528D01*
X9313D01*
X9312Y538D01*
X9300Y566D01*
X9282Y590D01*
X9258Y608D01*
X9230Y620D01*
X9220Y621D01*
D02*
G37*
G36*
X14034Y764D02*
Y661D01*
X14137D01*
X14135Y673D01*
X14123Y704D01*
X14103Y730D01*
X14077Y750D01*
X14046Y762D01*
X14034Y764D01*
D02*
G37*
G36*
X12884D02*
Y661D01*
X12987D01*
X12985Y673D01*
X12973Y704D01*
X12953Y730D01*
X12927Y750D01*
X12896Y762D01*
X12884Y764D01*
D02*
G37*
G36*
X9220Y875D02*
Y782D01*
X9313D01*
X9312Y792D01*
X9300Y820D01*
X9282Y844D01*
X9258Y862D01*
X9230Y874D01*
X9220Y875D01*
D02*
G37*
G36*
X9180D02*
X9170Y874D01*
X9142Y862D01*
X9118Y844D01*
X9100Y820D01*
X9088Y792D01*
X9087Y782D01*
X9180D01*
Y875D01*
D02*
G37*
G36*
X9313Y742D02*
X9220D01*
Y649D01*
X9230Y650D01*
X9258Y662D01*
X9282Y680D01*
X9300Y704D01*
X9312Y732D01*
X9313Y742D01*
D02*
G37*
G36*
X9180D02*
X9087D01*
X9088Y732D01*
X9100Y704D01*
X9118Y680D01*
X9142Y662D01*
X9170Y650D01*
X9180Y649D01*
Y742D01*
D02*
G37*
G36*
X11733Y764D02*
Y661D01*
X11837D01*
X11835Y673D01*
X11823Y704D01*
X11803Y730D01*
X11777Y750D01*
X11746Y762D01*
X11733Y764D01*
D02*
G37*
G36*
X10583D02*
Y661D01*
X10687D01*
X10685Y673D01*
X10673Y704D01*
X10653Y730D01*
X10627Y750D01*
X10596Y762D01*
X10583Y764D01*
D02*
G37*
%LPD*%
D10*
X435Y0D02*
G03*
X435Y0I-435J0D01*
G01*
X1029Y-9D02*
G03*
X1335Y-75I146J-66D01*
G01*
X1121Y346D02*
G03*
X1029Y-9I-71J-171D01*
G01*
X1118Y373D02*
G03*
X1121Y346I102J0D01*
G01*
X815Y753D02*
G03*
X764Y880I-185J0D01*
G01*
X496D02*
G03*
X815Y753I134J-127D01*
G01*
X764Y880D02*
G03*
X815Y1007I-134J127D01*
G01*
X495Y1134D02*
G03*
X496Y880I135J-126D01*
G01*
X815Y1007D02*
G03*
X765Y1134I-185J0D01*
G01*
X815Y1260D02*
G03*
X495Y1134I-185J0D01*
G01*
X765D02*
G03*
X815Y1260I-135J126D01*
G01*
X1170Y497D02*
G03*
X1118Y408I50J-89D01*
G01*
X1138Y563D02*
G03*
X1170Y497I82J0D01*
G01*
X1220Y680D02*
G03*
X1138Y598I0J-82D01*
G01*
X1095Y1433D02*
G03*
X1126Y1358I105J0D01*
G01*
X1095Y1433D02*
G03*
X1126Y1358I105J0D01*
G01*
X1447Y-315D02*
G03*
X1525Y-347I78J78D01*
G01*
X1358Y-180D02*
G03*
X1390Y-258I110J0D01*
G01*
X1358Y-180D02*
G03*
X1390Y-258I110J0D01*
G01*
X1447Y-315D02*
G03*
X1525Y-347I78J78D01*
G01*
X1348Y-58D02*
G03*
X1358Y-47I-78J78D01*
G01*
X1348Y-58D02*
G03*
X1358Y-47I-78J78D01*
G01*
X1593Y274D02*
G03*
X1578Y242I157J-99D01*
G01*
X1776Y-127D02*
G03*
X1785Y-75I-151J53D01*
G01*
D02*
G03*
X1771Y-9I-160J0D01*
G01*
X1591Y81D02*
G03*
X1578Y78I34J-156D01*
G01*
Y279D02*
G03*
X1593Y274I43J93D01*
G01*
X1578Y108D02*
G03*
X1591Y81I173J67D01*
G01*
X1825Y-347D02*
G03*
X1903Y-315I0J110D01*
G01*
X1825Y-347D02*
G03*
X1903Y-315I0J110D01*
G01*
X1863Y-90D02*
G03*
X1785Y-122I0J-110D01*
G01*
X1863Y-90D02*
G03*
X1785Y-122I0J-110D01*
G01*
X2051Y-75D02*
G03*
X2037Y-90I122J-125D01*
G01*
X1771Y-9D02*
G03*
X1931Y136I-21J184D01*
G01*
X1999Y68D02*
G03*
X2051Y-75I174J-18D01*
G01*
X1620Y680D02*
G03*
X1568Y661I0J-82D01*
G01*
D02*
G03*
X1515Y680I-52J-64D01*
G01*
X1368Y661D02*
G03*
X1315Y680I-52J-64D01*
G01*
X1420D02*
G03*
X1368Y661I0J-82D01*
G01*
X1769Y500D02*
G03*
X1798Y563I-54J62D01*
G01*
X1491Y993D02*
G03*
X1565Y963I74J74D01*
G01*
X1491Y993D02*
G03*
X1565Y963I74J74D01*
G01*
X1640Y1598D02*
G03*
X1623Y1660I-125J0D01*
G01*
X1562Y1482D02*
G03*
X1640Y1598I-47J116D01*
G01*
X1798Y598D02*
G03*
X1715Y680I-82J0D01*
G01*
X1911Y468D02*
G03*
X1833Y500I-78J-78D01*
G01*
X1911Y468D02*
G03*
X1833Y500I-78J-78D01*
G01*
X2132Y1506D02*
G03*
X2079Y1323I97J-127D01*
G01*
X2113Y1523D02*
G03*
X2132Y1506I116J110D01*
G01*
X1845Y1650D02*
G03*
X1953Y1543I108J0D01*
G01*
X1873Y1768D02*
G03*
X1845Y1695I79J-73D01*
G01*
X2012Y1543D02*
G03*
X2075Y1523I63J90D01*
G01*
X2012Y1543D02*
G03*
X2075Y1523I63J90D01*
G01*
X2126Y1756D02*
G03*
X2117Y1768I-89J-61D01*
G01*
X2119Y1770D02*
G03*
X2132Y1760I110J117D01*
G01*
X-224Y2215D02*
G03*
X-33Y1959I97J-127D01*
G01*
X-30Y2215D02*
G03*
X0Y2245I-97J127D01*
G01*
X-224Y2469D02*
G03*
X-224Y2215I97J-127D01*
G01*
X30Y2469D02*
G03*
X0Y2439I97J-127D01*
G01*
D02*
G03*
X-30Y2469I-127J-97D01*
G01*
D02*
G03*
X0Y2499I-97J127D01*
G01*
D02*
G03*
X30Y2469I127J97D01*
G01*
X256Y2248D02*
G03*
X287Y2342I-129J94D01*
G01*
D02*
G03*
X224Y2469I-160J0D01*
G01*
X-224Y2723D02*
G03*
X-224Y2469I97J-127D01*
G01*
X30Y2723D02*
G03*
X0Y2693I97J-127D01*
G01*
D02*
G03*
X-30Y2723I-127J-97D01*
G01*
D02*
G03*
X0Y2753I-97J127D01*
G01*
D02*
G03*
X30Y2723I127J97D01*
G01*
X-224Y2977D02*
G03*
X-224Y2723I97J-127D01*
G01*
X-207Y3243D02*
G03*
X-224Y2977I80J-139D01*
G01*
X30D02*
G03*
X0Y2947I97J-127D01*
G01*
D02*
G03*
X-30Y2977I-127J-97D01*
G01*
D02*
G03*
X0Y3007I-97J127D01*
G01*
Y3201D02*
G03*
X-47Y3243I-127J-97D01*
G01*
X0Y3007D02*
G03*
X30Y2977I127J97D01*
G01*
X224Y2469D02*
G03*
X233Y2476I-97J127D01*
G01*
X248Y2701D02*
G03*
X224Y2723I-121J-105D01*
G01*
D02*
G03*
X237Y2734I-97J127D01*
G01*
X248Y2955D02*
G03*
X224Y2977I-121J-105D01*
G01*
X271Y2701D02*
G03*
X262Y2701I-9J-105D01*
G01*
X271Y2701D02*
G03*
X262Y2701I-9J-105D01*
G01*
X670Y2808D02*
G03*
X639Y2882I-105J0D01*
G01*
X670Y2808D02*
G03*
X639Y2882I-105J0D01*
G01*
X224Y2977D02*
G03*
X237Y2987I-97J127D01*
G01*
X47Y3243D02*
G03*
X0Y3201I80J-139D01*
G01*
X343Y3178D02*
G03*
X269Y3209I-74J-74D01*
G01*
X343Y3178D02*
G03*
X269Y3209I-74J-74D01*
G01*
X1058Y1948D02*
G03*
X1074Y1955I-33J100D01*
G01*
X1301Y2378D02*
G03*
X1293Y2385I-74J-74D01*
G01*
X1301Y2378D02*
G03*
X1293Y2385I-74J-74D01*
G01*
Y2385D02*
G03*
X1303Y2431I-106J46D01*
G01*
D02*
G03*
X1188Y2546I-115J0D01*
G01*
X1483Y1998D02*
G03*
X1594Y1928I112J54D01*
G01*
X1736Y1772D02*
G03*
X1853Y1799I34J120D01*
G01*
X1853D02*
G03*
X1873Y1768I99J41D01*
G01*
X2096Y1975D02*
G03*
X2067Y1988I-58J-90D01*
G01*
X2132Y2014D02*
G03*
X2096Y1975I97J-127D01*
G01*
X2113Y2031D02*
G03*
X2132Y2014I116J110D01*
G01*
X2144Y2277D02*
G03*
X2148Y2303I-102J26D01*
G01*
X2144Y2277D02*
G03*
X2148Y2303I-102J26D01*
G01*
X1030Y2955D02*
G03*
X1066Y2885I88J0D01*
G01*
X1226D02*
G03*
X1242Y2870I81J70D01*
G01*
X1214Y2885D02*
G03*
X1222Y2890I-52J70D01*
G01*
X1117Y3128D02*
G03*
X1030Y3040I0J-88D01*
G01*
X1195Y3121D02*
G03*
X1162Y3128I-32J-81D01*
G01*
X1243Y2632D02*
G03*
X1430Y2602I114J112D01*
G01*
X1496Y2856D02*
G03*
X1484Y2842I115J-111D01*
G01*
D02*
G03*
X1472Y2856I-127J-97D01*
G01*
X1738Y2842D02*
G03*
X1726Y2856I-127J-97D01*
G01*
X1750D02*
G03*
X1738Y2842I115J-111D01*
G01*
X1726Y2857D02*
G03*
X1750Y2871I-44J98D01*
G01*
X1472Y2970D02*
G03*
X1465Y3010I-115J0D01*
G01*
X1472Y2970D02*
G03*
X1465Y3010I-115J0D01*
G01*
X1530Y3030D02*
G03*
X1496Y2949I81J-81D01*
G01*
X1530Y3030D02*
G03*
X1496Y2949I81J-81D01*
G01*
X1550Y3102D02*
G03*
X1530Y3040I87J-62D01*
G01*
X1582Y3188D02*
G03*
X1550Y3110I78J-78D01*
G01*
X1582Y3188D02*
G03*
X1550Y3110I78J-78D01*
G01*
X2037Y-310D02*
G03*
X2300Y-320I136J110D01*
G01*
D02*
G03*
X2602Y-200I127J120D01*
G01*
D02*
G03*
X2549Y-75I-175J0D01*
G01*
D02*
G03*
X2602Y50I-122J125D01*
G01*
X3250Y6D02*
G03*
X3250Y6I-235J0D01*
G01*
D02*
G03*
X3250Y6I-235J0D01*
G01*
X4199Y-159D02*
G03*
X4573Y-107I168J164D01*
G01*
X4199Y-159D02*
G03*
X4573Y-107I168J164D01*
G01*
X4199Y170D02*
G03*
X4199Y-159I-168J-164D01*
G01*
Y170D02*
G03*
X4199Y-159I-168J-164D01*
G01*
X2300Y170D02*
G03*
X2155Y224I-127J-120D01*
G01*
X2602Y50D02*
G03*
X2300Y170I-175J0D01*
G01*
X3184Y725D02*
G03*
X3459Y527I148J-84D01*
G01*
X2443Y963D02*
G03*
X2517Y993I0J105D01*
G01*
X2443Y963D02*
G03*
X2517Y993I0J105D01*
G01*
X4592Y75D02*
G03*
X4199Y170I-225J-69D01*
G01*
X4592Y75D02*
G03*
X4199Y170I-225J-69D01*
G01*
X3459Y527D02*
G03*
X3713Y527I127J113D01*
G01*
X3860Y809D02*
G03*
X3883Y895I-147J85D01*
G01*
X3713Y527D02*
G03*
X4010Y641I127J113D01*
G01*
D02*
G03*
X3860Y809I-170J0D01*
G01*
X4573Y-107D02*
G03*
X4676Y-173I103J48D01*
G01*
Y112D02*
G03*
X4592Y75I0J-114D01*
G01*
X4562Y241D02*
G03*
X4676Y127I114J0D01*
G01*
X4893Y62D02*
G03*
X4799Y112I-94J-64D01*
G01*
Y127D02*
G03*
X4883Y165I0J114D01*
G01*
X4977Y-425D02*
G03*
X5015Y-450I78J78D01*
G01*
X4977Y-425D02*
G03*
X5015Y-450I78J78D01*
G01*
X4984Y108D02*
G03*
X4893Y62I0J-114D01*
G01*
X5164Y92D02*
G03*
X5106Y108I-58J-98D01*
G01*
X4895Y165D02*
G03*
X4984Y123I89J71D01*
G01*
X5106D02*
G03*
X5220Y236I0J114D01*
G01*
X5550Y171D02*
G03*
X5164Y92I-167J-165D01*
G01*
X5550Y171D02*
G03*
X5164Y92I-167J-165D01*
G01*
X4400Y465D02*
G03*
X4431Y391I105J0D01*
G01*
X4400Y465D02*
G03*
X4431Y391I105J0D01*
G01*
X4883Y375D02*
G03*
X4799Y412I-84J-76D01*
G01*
X4984Y407D02*
G03*
X4904Y375I0J-114D01*
G01*
X4643Y476D02*
G03*
X4812Y527I42J165D01*
G01*
D02*
G03*
X5066Y527I127J113D01*
G01*
D02*
G03*
X5088Y507I127J113D01*
G01*
X5267Y308D02*
G03*
X5298Y383I-74J74D01*
G01*
X5267Y308D02*
G03*
X5298Y383I-74J74D01*
G01*
X5460Y552D02*
G03*
X5538Y520I78J78D01*
G01*
X5298Y507D02*
G03*
X5363Y641I-105J134D01*
G01*
X5351Y972D02*
G03*
X5273Y1005I-78J-78D01*
G01*
X5351Y972D02*
G03*
X5273Y1005I-78J-78D01*
G01*
X5460Y552D02*
G03*
X5538Y520I78J78D01*
G01*
X5363Y641D02*
G03*
X5362Y650I-170J0D01*
G01*
X2386Y1410D02*
G03*
X2326Y1506I-157J-31D01*
G01*
D02*
G03*
X2341Y1519I-97J127D01*
G01*
D02*
G03*
X2381Y1533I-16J114D01*
G01*
X2341Y1519D02*
G03*
X2381Y1533I-16J114D01*
G01*
X2478Y1533D02*
G03*
X2517Y1540I0J102D01*
G01*
X2350Y1992D02*
G03*
X2326Y2014I-121J-105D01*
G01*
D02*
G03*
X2353Y2039I-97J127D01*
G01*
X2555Y1737D02*
G03*
X2545Y1748I-77J-67D01*
G01*
D02*
G03*
X2555Y1758I-67J77D01*
G01*
X3120Y1539D02*
G03*
X3151Y1633I-129J94D01*
G01*
X2867Y1992D02*
G03*
X2840Y1988I0J-105D01*
G01*
X2867Y1992D02*
G03*
X2840Y1988I0J-105D01*
G01*
X2894Y2014D02*
G03*
X2870Y1992I97J-127D01*
G01*
X2847Y2072D02*
G03*
X2894Y2014I144J69D01*
G01*
X3088Y1760D02*
G03*
X3151Y1877I-97J127D01*
G01*
X3151Y1633D02*
G03*
X3088Y1760I-160J0D01*
G01*
X3148Y2172D02*
G03*
X3142Y2195I-157J-31D01*
G01*
X2353Y2243D02*
G03*
X2144Y2277I-124J-102D01*
G01*
X2640Y2462D02*
G03*
X2718Y2430I78J78D01*
G01*
X2428Y2773D02*
G03*
X2430Y2794I-113J21D01*
G01*
D02*
G03*
X2411Y2857I-115J0D01*
G01*
X2465Y2748D02*
G03*
X2428Y2773I-81J-81D01*
G01*
X2465Y2748D02*
G03*
X2428Y2773I-81J-81D01*
G01*
X2411Y2857D02*
G03*
X2430Y2921I-96J63D01*
G01*
D02*
G03*
X2430Y2930I-115J0D01*
G01*
X2640Y2462D02*
G03*
X2718Y2430I78J78D01*
G01*
X2751D02*
G03*
X2785Y2425I34J110D01*
G01*
X3057Y2513D02*
G03*
X3060Y2540I-112J27D01*
G01*
D02*
G03*
X3059Y2558I-115J0D01*
G01*
X3110D02*
G03*
X3170Y2575I0J110D01*
G01*
X3172Y3005D02*
G03*
X3102Y3031I-70J-85D01*
G01*
X3110Y2558D02*
G03*
X3170Y2575I0J110D01*
G01*
X2765Y3148D02*
G03*
X2691Y3250I-108J0D01*
G01*
X2979Y3031D02*
G03*
X2945Y3036I-34J-110D01*
G01*
X3172Y3005D02*
G03*
X3102Y3031I-70J-85D01*
G01*
X3586Y1008D02*
G03*
X3375Y1042I-127J-113D01*
G01*
X3883Y895D02*
G03*
X3586Y1008I-170J0D01*
G01*
X4939D02*
G03*
X4728Y1042I-127J-113D01*
G01*
X5195Y1005D02*
G03*
X4939Y1008I-130J-110D01*
G01*
X3185Y2575D02*
G03*
X3288Y2678I0J102D01*
G01*
Y2713D02*
G03*
X3252Y2790I-102J0D01*
G01*
D02*
G03*
X3288Y2868I-67J77D01*
G01*
Y2903D02*
G03*
X3185Y3005I-102J0D01*
G01*
X-207Y3473D02*
G03*
X-207Y3243I80J-115D01*
G01*
X-47D02*
G03*
X0Y3299I-80J115D01*
G01*
D02*
G03*
X47Y3243I127J59D01*
G01*
X0Y3417D02*
G03*
X-47Y3473I-127J-59D01*
G01*
X47D02*
G03*
X0Y3417I80J-115D01*
G01*
X-41Y3747D02*
G03*
X-207Y3473I-86J-135D01*
G01*
X248Y3209D02*
G03*
X207Y3243I-121J-105D01*
G01*
D02*
G03*
X267Y3358I-80J115D01*
G01*
X1235Y3370D02*
G03*
X1195Y3275I95J-95D01*
G01*
X1235Y3370D02*
G03*
X1195Y3275I95J-95D01*
G01*
X213Y3747D02*
G03*
X41Y3747I-86J-135D01*
G01*
X267Y3358D02*
G03*
X207Y3473I-140J0D01*
G01*
X114Y4414D02*
G03*
X189Y4378I74J57D01*
G01*
X115Y4400D02*
G03*
X114Y4414I-165J0D01*
G01*
X95Y4479D02*
G03*
X115Y4400I-145J-79D01*
G01*
X-45Y4705D02*
G03*
X50Y4665I95J95D01*
G01*
X-45Y4705D02*
G03*
X50Y4665I95J95D01*
G01*
X189Y4622D02*
G03*
X95Y4529I0J-94D01*
G01*
X148Y4665D02*
G03*
X189Y4658I41J106D01*
G01*
X1050Y3885D02*
G03*
X955Y3845I0J-135D01*
G01*
X1050Y3885D02*
G03*
X955Y3845I0J-135D01*
G01*
X311Y4378D02*
G03*
X405Y4471I0J94D01*
G01*
Y4529D02*
G03*
X311Y4622I-94J0D01*
G01*
X1725Y3285D02*
G03*
X1647Y3253I0J-110D01*
G01*
X1725Y3285D02*
G03*
X1647Y3253I0J-110D01*
G01*
X1880Y3312D02*
G03*
X1975Y3352I0J135D01*
G01*
X1880Y3312D02*
G03*
X1975Y3352I0J135D01*
G01*
X1502Y3583D02*
G03*
X1407Y3543I0J-135D01*
G01*
X1502Y3583D02*
G03*
X1407Y3543I0J-135D01*
G01*
X2283Y3350D02*
G03*
X2205Y3318I0J-110D01*
G01*
X2283Y3350D02*
G03*
X2205Y3318I0J-110D01*
G01*
X2623D02*
G03*
X2545Y3350I-78J-78D01*
G01*
X2623Y3318D02*
G03*
X2545Y3350I-78J-78D01*
G01*
X2280Y3657D02*
G03*
X2320Y3753I-95J95D01*
G01*
X2280Y3657D02*
G03*
X2320Y3753I-95J95D01*
G01*
X2636Y3885D02*
G03*
X2636Y3615I-86J-135D01*
G01*
X1840Y4250D02*
G03*
X1840Y4250I-140J0D01*
G01*
X2090Y4680D02*
G03*
X2050Y4585I95J-95D01*
G01*
X2090Y4680D02*
G03*
X2050Y4585I95J-95D01*
G01*
X2932Y3909D02*
G03*
X2864Y3885I18J-159D01*
G01*
X2610Y4398D02*
G03*
X2636Y4115I-60J-148D01*
G01*
X2650Y4670D02*
G03*
X2610Y4575I95J-95D01*
G01*
X2650Y4670D02*
G03*
X2610Y4575I95J-95D01*
G01*
X132Y4935D02*
G03*
X-56Y4715I-182J-35D01*
G01*
X189Y4942D02*
G03*
X148Y4935I0J-114D01*
G01*
X95Y5479D02*
G03*
X115Y5400I-145J-79D01*
G01*
X189Y5622D02*
G03*
X95Y5529I0J-94D01*
G01*
X115Y5400D02*
G03*
X114Y5414I-165J0D01*
G01*
D02*
G03*
X189Y5378I74J57D01*
G01*
X-103Y6077D02*
G03*
X-56Y5715I53J-177D01*
G01*
X-45Y5705D02*
G03*
X50Y5665I95J95D01*
G01*
X-45Y5705D02*
G03*
X50Y5665I95J95D01*
G01*
X132Y5935D02*
G03*
X31Y6066I-182J-35D01*
G01*
X148Y5665D02*
G03*
X189Y5658I41J106D01*
G01*
Y5942D02*
G03*
X148Y5935I0J-114D01*
G01*
X31Y6066D02*
G03*
X435Y6500I-31J434D01*
G01*
D02*
G03*
X-103Y6077I-435J0D01*
G01*
X311Y4658D02*
G03*
X425Y4771I0J114D01*
G01*
Y4829D02*
G03*
X311Y4942I-114J0D01*
G01*
Y5378D02*
G03*
X405Y5471I0J94D01*
G01*
Y5529D02*
G03*
X311Y5622I-94J0D01*
G01*
Y5658D02*
G03*
X425Y5771I0J114D01*
G01*
Y5829D02*
G03*
X311Y5942I-114J0D01*
G01*
X2775Y5310D02*
G03*
X2680Y5270I0J-135D01*
G01*
X2775Y5310D02*
G03*
X2680Y5270I0J-135D01*
G01*
X2485Y6500D02*
G03*
X2485Y6500I-435J0D01*
G01*
X2864Y3615D02*
G03*
X3109Y3732I86J135D01*
G01*
X3440Y3935D02*
G03*
X3473Y3930I32J102D01*
G01*
X3558D02*
G03*
X3590Y3935I0J108D01*
G01*
X3765D02*
G03*
X3800Y3940I0J125D01*
G01*
X3813D02*
G03*
X3915Y4042I0J102D01*
G01*
X2864Y4115D02*
G03*
X3110Y4250I86J135D01*
G01*
X3260Y4185D02*
G03*
X3172Y4148I0J-125D01*
G01*
X3260Y4185D02*
G03*
X3172Y4148I0J-125D01*
G01*
X3915Y4077D02*
G03*
X3896Y4137I-102J0D01*
G01*
X3365Y4227D02*
G03*
X3374Y4185I108J0D01*
G01*
X3896Y4137D02*
G03*
X3956Y4169I-21J113D01*
G01*
X3896Y4137D02*
G03*
X3956Y4169I-21J113D01*
G01*
X3110Y4250D02*
G03*
X2880Y4394I-160J0D01*
G01*
X3473Y4380D02*
G03*
X3365Y4272I0J-108D01*
G01*
X3612Y4365D02*
G03*
X3558Y4380I-55J-92D01*
G01*
X3718Y4370D02*
G03*
X3686Y4365I0J-102D01*
G01*
X3831Y4368D02*
G03*
X3813Y4370I-18J-101D01*
G01*
X4081Y4294D02*
G03*
X4115Y4375I-81J81D01*
G01*
X4081Y4294D02*
G03*
X4115Y4375I-81J81D01*
G01*
Y4414D02*
G03*
X4160Y4525I-115J111D01*
G01*
D02*
G03*
X3881Y4418I-160J0D01*
G01*
X5025Y4255D02*
G03*
X4951Y4224I0J-105D01*
G01*
X5025Y4255D02*
G03*
X4951Y4224I0J-105D01*
G01*
X5443Y4691D02*
G03*
X5481Y4617I133J21D01*
G01*
X5443Y4691D02*
G03*
X5481Y4617I133J21D01*
G01*
X5599Y4499D02*
G03*
X5611Y4487I95J95D01*
G01*
D02*
G03*
X5710Y4422I99J43D01*
G01*
X5755D02*
G03*
X5841Y4465I0J108D01*
G01*
D02*
G03*
X5900Y4442I59J65D01*
G01*
X5945D02*
G03*
X6033Y4530I0J88D01*
G01*
X5841Y4680D02*
G03*
X5757Y4722I-86J-65D01*
G01*
X6033Y4615D02*
G03*
X5945Y4703I-88J0D01*
G01*
X5441Y4712D02*
G03*
X5443Y4691I135J0D01*
G01*
X5025Y5040D02*
G03*
X5120Y5080I0J135D01*
G01*
X5025Y5040D02*
G03*
X5120Y5080I0J135D01*
G01*
X5441Y4712D02*
G03*
X5443Y4691I135J0D01*
G01*
X5441Y5011D02*
G03*
X5441Y5001I135J-10D01*
G01*
X5441Y5011D02*
G03*
X5441Y5001I135J-10D01*
G01*
X5481Y5096D02*
G03*
X5441Y5011I95J-95D01*
G01*
X5481Y5096D02*
G03*
X5441Y5011I95J-95D01*
G01*
X5670Y5230D02*
G03*
X5575Y5190I0J-135D01*
G01*
X5670Y5230D02*
G03*
X5575Y5190I0J-135D01*
G01*
X5900Y4703D02*
G03*
X5841Y4680I0J-88D01*
G01*
X5996Y4960D02*
G03*
X6224Y4851I88J-109D01*
G01*
D02*
G03*
X6172Y4960I-140J0D01*
G01*
X3514Y5802D02*
G03*
X3645Y5747I131J131D01*
G01*
X3514Y5802D02*
G03*
X3645Y5747I131J131D01*
G01*
X3085Y6262D02*
G03*
X3085Y6262I-190J0D01*
G01*
X3367Y6025D02*
G03*
X3422Y5894I185J0D01*
G01*
X3367Y6025D02*
G03*
X3422Y5894I185J0D01*
G01*
X3952Y6117D02*
G03*
X4002Y6217I-75J100D01*
G01*
X3408Y6332D02*
G03*
X3367Y6217I145J-115D01*
G01*
X3738D02*
G03*
X3697Y6332I-185J0D01*
G01*
X3438Y6362D02*
G03*
X3408Y6332I115J-145D01*
G01*
X3667Y6362D02*
G03*
X3438Y6362I-115J-145D01*
G01*
X3697Y6332D02*
G03*
X3667Y6362I-145J-115D01*
G01*
X4002Y6217D02*
G03*
X3803Y6117I-125J0D01*
G01*
X5285Y6500D02*
G03*
X4643Y6117I-435J0D01*
G01*
X5350Y5635D02*
G03*
X5255Y5595I0J-135D01*
G01*
X5350Y5635D02*
G03*
X5255Y5595I0J-135D01*
G01*
X5642Y5747D02*
G03*
X5773Y5802I0J185D01*
G01*
X5642Y5747D02*
G03*
X5773Y5802I0J185D01*
G01*
X6613Y6046D02*
G03*
X6923Y6231I99J185D01*
G01*
X5057Y6117D02*
G03*
X5285Y6500I-207J383D01*
G01*
X5941Y6416D02*
G03*
X5810Y6362I0J-185D01*
G01*
X5941Y6416D02*
G03*
X5810Y6362I0J-185D01*
G01*
X6923Y6231D02*
G03*
X6613Y6416I-210J0D01*
G01*
X6923Y6739D02*
G03*
X6923Y6739I-210J0D01*
G01*
X7464Y641D02*
G03*
X7438Y725I-150J0D01*
G01*
Y725D02*
G03*
X7611Y895I3J170D01*
G01*
D02*
G03*
X7577Y996I-170J0D01*
G01*
X7577D02*
G03*
X7655Y1083I-10J87D01*
G01*
Y1128D02*
G03*
X7642Y1174I-88J0D01*
G01*
X7204Y1410D02*
G03*
X7173Y1415I-32J-98D01*
G01*
X7404Y1410D02*
G03*
X7373Y1415I-32J-98D01*
G01*
X7278D02*
G03*
X7246Y1410I0J-102D01*
G01*
X7622D02*
G03*
X7568Y1425I-55J-92D01*
G01*
X7483D02*
G03*
X7428Y1410I0J-108D01*
G01*
X7797Y1295D02*
G03*
X7624Y1410I-125J0D01*
G01*
X7642Y1174D02*
G03*
X7797Y1295I31J121D01*
G01*
X8114Y863D02*
G03*
X8082Y811I95J-95D01*
G01*
X8114Y863D02*
G03*
X8082Y811I95J-95D01*
G01*
X8125Y1088D02*
G03*
X8196Y990I102J0D01*
G01*
D02*
G03*
X8168Y917I141J-96D01*
G01*
X8160Y1200D02*
G03*
X8125Y1123I67J-77D01*
G01*
X8125Y1278D02*
G03*
X8160Y1200I102J0D01*
G01*
X8228Y1415D02*
G03*
X8125Y1313I0J-102D01*
G01*
X7078Y1415D02*
G03*
X7060Y1413I0J-102D01*
G01*
X7060Y2216D02*
G03*
X7072Y2223I-42J99D01*
G01*
X7138D02*
G03*
X7219Y2256I0J115D01*
G01*
X7138Y2223D02*
G03*
X7219Y2256I0J115D01*
G01*
X7281Y2319D02*
G03*
X7315Y2400I-81J81D01*
G01*
X7281Y2319D02*
G03*
X7315Y2400I-81J81D01*
G01*
X8435Y2000D02*
G03*
X8435Y2000I-435J0D01*
G01*
X8756Y933D02*
G03*
X8727Y996I-166J-39D01*
G01*
X8727D02*
G03*
X8805Y1083I-10J87D01*
G01*
Y1128D02*
G03*
X8788Y1180I-88J0D01*
G01*
X8792D02*
G03*
X8960Y1298I43J117D01*
G01*
X8354Y1410D02*
G03*
X8323Y1415I-32J-98D01*
G01*
X8428D02*
G03*
X8396Y1410I0J-102D01*
G01*
X8554D02*
G03*
X8523Y1415I-32J-98D01*
G01*
X8960Y1298D02*
G03*
X8781Y1410I-125J0D01*
G01*
X8633Y1425D02*
G03*
X8578Y1410I0J-108D01*
G01*
X8772D02*
G03*
X8718Y1425I-55J-92D01*
G01*
X10300Y2138D02*
G03*
X10307Y2100I102J0D01*
G01*
X10335Y2250D02*
G03*
X10300Y2173I67J-77D01*
G01*
X10300Y2327D02*
G03*
X10335Y2250I102J0D01*
G01*
X10579Y2265D02*
G03*
X10600Y2327I-81J63D01*
G01*
X10313Y2412D02*
G03*
X10300Y2362I89J-50D01*
G01*
X10913Y2412D02*
G03*
X10900Y2362I89J-50D01*
G01*
X10562Y2611D02*
G03*
X10313Y2415I-139J-80D01*
G01*
X10600Y2362D02*
G03*
X10558Y2445I-102J0D01*
G01*
X10562Y2451D02*
G03*
X10817Y2531I115J80D01*
G01*
D02*
G03*
X10562Y2611I-140J0D01*
G01*
X10900Y2327D02*
G03*
X10921Y2265I102J0D01*
G01*
X11179D02*
G03*
X11200Y2327I-81J63D01*
G01*
X11500D02*
G03*
X11521Y2265I102J0D01*
G01*
X11513Y2412D02*
G03*
X11500Y2362I89J-50D01*
G01*
X11162Y2611D02*
G03*
X10913Y2415I-139J-80D01*
G01*
X11200Y2362D02*
G03*
X11158Y2445I-102J0D01*
G01*
X11162Y2451D02*
G03*
X11417Y2531I115J80D01*
G01*
D02*
G03*
X11162Y2611I-140J0D01*
G01*
X11762Y2611D02*
G03*
X11513Y2415I-139J-80D01*
G01*
X7621Y2821D02*
G03*
X7879Y2948I98J127D01*
G01*
D02*
G03*
X7846Y3046I-160J0D01*
G01*
X8401Y3063D02*
G03*
X8621Y2948I80J-115D01*
G01*
D02*
G03*
X8561Y3063I-140J0D01*
G01*
X7887Y3087D02*
G03*
X7958Y3121I-10J115D01*
G01*
X7887Y3087D02*
G03*
X7958Y3121I-10J115D01*
G01*
X8034Y3196D02*
G03*
X8068Y3278I-81J81D01*
G01*
X8034Y3196D02*
G03*
X8068Y3278I-81J81D01*
G01*
X8561Y3063D02*
G03*
X8641Y3202I-80J139D01*
G01*
D02*
G03*
X8401Y3063I-160J0D01*
G01*
X9685Y3250D02*
G03*
X9685Y3250I-435J0D01*
G01*
X8068Y3388D02*
G03*
X8103Y3465I-68J77D01*
G01*
Y3500D02*
G03*
X8067Y3578I-102J0D01*
G01*
D02*
G03*
X8103Y3655I-67J77D01*
G01*
Y3690D02*
G03*
X8050Y3779I-102J0D01*
G01*
X9475Y3895D02*
G03*
X9549Y3926I0J105D01*
G01*
X9475Y3895D02*
G03*
X9549Y3926I0J105D01*
G01*
X11529Y2976D02*
G03*
X11610Y2942I81J81D01*
G01*
X11529Y2976D02*
G03*
X11610Y2942I81J81D01*
G01*
X11395Y3500D02*
G03*
X11472Y3467I78J78D01*
G01*
X11395Y3500D02*
G03*
X11472Y3467I78J78D01*
G01*
X10325Y3915D02*
G03*
X10115Y3850I-115J0D01*
G01*
X11034Y3796D02*
G03*
X10953Y3830I-81J-81D01*
G01*
X11034Y3796D02*
G03*
X10953Y3830I-81J-81D01*
G01*
X10305Y3850D02*
G03*
X10325Y3915I-95J65D01*
G01*
X11140Y3800D02*
G03*
X11172Y3722I110J0D01*
G01*
X11140Y3800D02*
G03*
X11172Y3722I110J0D01*
G01*
X11729Y3848D02*
G03*
X11605Y3888I-91J-70D01*
G01*
X11100Y4047D02*
G03*
X11140Y3966I102J0D01*
G01*
X11135Y4160D02*
G03*
X11100Y4083I67J-77D01*
G01*
Y4238D02*
G03*
X11135Y4160I102J0D01*
G01*
X11360Y3966D02*
G03*
X11394Y4013I-62J81D01*
G01*
D02*
G03*
X11405Y4003I111J115D01*
G01*
X11605D02*
G03*
X11665Y4128I-100J125D01*
G01*
D02*
G03*
X11602Y4255I-160J0D01*
G01*
X11779Y2265D02*
G03*
X11800Y2327I-81J63D01*
G01*
X12100D02*
G03*
X12121Y2265I102J0D01*
G01*
X12379Y2265D02*
G03*
X12400Y2327I-81J62D01*
G01*
X12665Y2233D02*
G03*
X12588Y2265I-78J-78D01*
G01*
X12665Y2233D02*
G03*
X12588Y2265I-78J-78D01*
G01*
X11800Y2362D02*
G03*
X11758Y2445I-102J0D01*
G01*
X11762Y2451D02*
G03*
X12017Y2531I115J80D01*
G01*
X12113Y2412D02*
G03*
X12100Y2362I89J-50D01*
G01*
X12400D02*
G03*
X12358Y2445I-102J0D01*
G01*
X12362Y2451D02*
G03*
X12604Y2471I115J80D01*
G01*
X14979Y2265D02*
G03*
X15000Y2327I-81J62D01*
G01*
X14708Y2288D02*
G03*
X14630Y2320I-78J-78D01*
G01*
X14708Y2288D02*
G03*
X14630Y2320I-78J-78D01*
G01*
X14700Y2327D02*
G03*
X14708Y2287I102J0D01*
G01*
X14713Y2412D02*
G03*
X14700Y2362I89J-50D01*
G01*
X15000D02*
G03*
X14958Y2445I-102J0D01*
G01*
X14962Y2451D02*
G03*
X15217Y2531I115J80D01*
G01*
X12017Y2531D02*
G03*
X11762Y2611I-140J0D01*
G01*
X12362Y2611D02*
G03*
X12113Y2415I-139J-80D01*
G01*
X12422Y2660D02*
G03*
X12362Y2611I55J-129D01*
G01*
X12604Y2471D02*
G03*
X12773Y2423I109J61D01*
G01*
X13003Y2517D02*
G03*
X12969Y2598I-115J0D01*
G01*
X14962Y2611D02*
G03*
X14713Y2415I-139J-80D01*
G01*
X13003Y2517D02*
G03*
X12969Y2598I-115J0D01*
G01*
X15217Y2531D02*
G03*
X14962Y2611I-140J0D01*
G01*
X15300Y2327D02*
G03*
X15321Y2265I102J0D01*
G01*
X15579Y2265D02*
G03*
X15600Y2327I-81J63D01*
G01*
X16179Y2265D02*
G03*
X16200Y2327I-81J62D01*
G01*
X15900D02*
G03*
X15921Y2265I102J0D01*
G01*
X16500Y2327D02*
G03*
X16521Y2265I102J0D01*
G01*
X16793Y2100D02*
G03*
X16800Y2137I-95J37D01*
G01*
Y2172D02*
G03*
X16765Y2250I-102J0D01*
G01*
D02*
G03*
X16800Y2327I-67J77D01*
G01*
X15313Y2412D02*
G03*
X15300Y2362I89J-50D01*
G01*
X15600D02*
G03*
X15558Y2445I-102J0D01*
G01*
X15913Y2412D02*
G03*
X15900Y2362I89J-50D01*
G01*
X16200D02*
G03*
X16158Y2445I-102J0D01*
G01*
X15562Y2451D02*
G03*
X15817Y2531I115J80D01*
G01*
X15562Y2611D02*
G03*
X15313Y2415I-139J-80D01*
G01*
X15817Y2531D02*
G03*
X15562Y2611I-140J0D01*
G01*
X16162Y2611D02*
G03*
X15913Y2415I-139J-80D01*
G01*
X16162Y2451D02*
G03*
X16417Y2531I115J80D01*
G01*
X16513Y2412D02*
G03*
X16500Y2362I90J-49D01*
G01*
X16800D02*
G03*
X16761Y2443I-102J0D01*
G01*
X16763Y2447D02*
G03*
X17018Y2526I115J80D01*
G01*
X16417Y2531D02*
G03*
X16162Y2611I-140J0D01*
G01*
X16763Y2606D02*
G03*
X16513Y2412I-139J-80D01*
G01*
X17018Y2526D02*
G03*
X16763Y2606I-140J0D01*
G01*
X12324Y3244D02*
G03*
X12243Y3278I-81J-81D01*
G01*
X12324Y3244D02*
G03*
X12243Y3278I-81J-81D01*
G01*
X12378Y3778D02*
G03*
X12168Y3712I-115J0D01*
G01*
X12357D02*
G03*
X12378Y3778I-95J65D01*
G01*
X12110Y4188D02*
G03*
X12039Y4158I0J-100D01*
G01*
X12362Y3988D02*
G03*
X12433Y4017I0J100D01*
G01*
X12110Y4188D02*
G03*
X12039Y4158I0J-100D01*
G01*
X12362Y3988D02*
G03*
X12433Y4017I0J100D01*
G01*
X13890Y4250D02*
G03*
X13890Y4250I-140J0D01*
G01*
X14555Y3315D02*
G03*
X14765Y3250I95J-65D01*
G01*
X17935Y3250D02*
G03*
X17935Y3250I-435J0D01*
G01*
X14604Y3659D02*
G03*
X14523Y3692I-81J-81D01*
G01*
X14765Y3250D02*
G03*
X14745Y3315I-115J0D01*
G01*
X14604Y3659D02*
G03*
X14523Y3692I-81J-81D01*
G01*
X7006Y4851D02*
G03*
X6963Y4960I-160J0D01*
G01*
X6729D02*
G03*
X7006Y4851I117J-109D01*
G01*
X7911Y4685D02*
G03*
X7911Y4415I-86J-135D01*
G01*
X7595Y4960D02*
G03*
X7690Y5000I0J135D01*
G01*
X7595Y4960D02*
G03*
X7690Y5000I0J135D01*
G01*
X7100Y5365D02*
G03*
X7195Y5405I0J135D01*
G01*
X7100Y5365D02*
G03*
X7195Y5405I0J135D01*
G01*
X7708Y5917D02*
G03*
X7748Y6013I-95J95D01*
G01*
X7708Y5917D02*
G03*
X7748Y6013I-95J95D01*
G01*
X8875Y4415D02*
G03*
X8970Y4455I0J135D01*
G01*
X8875Y4415D02*
G03*
X8970Y4455I0J135D01*
G01*
X11132Y4346D02*
G03*
X11100Y4272I71J-74D01*
G01*
Y4422D02*
G03*
X11132Y4346I108J0D01*
G01*
X11602Y4255D02*
G03*
X11665Y4382I-97J127D01*
G01*
X11425Y4521D02*
G03*
X11395Y4499I80J-139D01*
G01*
X11143Y4553D02*
G03*
X11100Y4467I65J-86D01*
G01*
X11120Y4612D02*
G03*
X11143Y4553I88J0D01*
G01*
X11207Y4745D02*
G03*
X11120Y4658I0J-88D01*
G01*
X11395Y4499D02*
G03*
X11357Y4553I-103J-31D01*
G01*
X11375Y4584D02*
G03*
X11425Y4521I130J52D01*
G01*
X11357Y4553D02*
G03*
X11375Y4584I-65J59D01*
G01*
X11375Y4687D02*
G03*
X11293Y4745I-82J-30D01*
G01*
X11401Y4730D02*
G03*
X11375Y4687I104J-94D01*
G01*
X8608Y5917D02*
G03*
X8648Y6013I-95J95D01*
G01*
X8608Y5917D02*
G03*
X8648Y6013I-95J95D01*
G01*
X10408Y5892D02*
G03*
X10448Y5988I-95J95D01*
G01*
X10408Y5892D02*
G03*
X10448Y5988I-95J95D01*
G01*
X10645Y5525D02*
G03*
X10571Y5494I0J-105D01*
G01*
X10645Y5525D02*
G03*
X10571Y5494I0J-105D01*
G01*
X7748Y6070D02*
G03*
X7823Y6231I-135J161D01*
G01*
D02*
G03*
X7478Y6070I-210J0D01*
G01*
X8648D02*
G03*
X8723Y6231I-135J161D01*
G01*
D02*
G03*
X8378Y6070I-210J0D01*
G01*
X7823Y6739D02*
G03*
X7823Y6739I-210J0D01*
G01*
X8723D02*
G03*
X8723Y6739I-210J0D01*
G01*
X9623Y6739D02*
G03*
X9623Y6739I-210J0D01*
G01*
X10448Y6070D02*
G03*
X10473Y6096I-135J161D01*
G01*
X9623Y6231D02*
G03*
X9623Y6231I-210J0D01*
G01*
X10473Y6366D02*
G03*
X10178Y6070I-161J-135D01*
G01*
X10831Y6096D02*
G03*
X10926Y6136I0J135D01*
G01*
X10831Y6096D02*
G03*
X10926Y6136I0J135D01*
G01*
X10523Y6739D02*
G03*
X10523Y6739I-210J0D01*
G01*
X10973Y6508D02*
G03*
X10878Y6468I0J-135D01*
G01*
X10973Y6508D02*
G03*
X10878Y6468I0J-135D01*
G01*
X11745Y4358D02*
G03*
X11832Y4270I88J0D01*
G01*
X11748Y4466D02*
G03*
X11745Y4442I84J-23D01*
G01*
X11937Y4293D02*
G03*
X12022Y4250I86J65D01*
G01*
X11878Y4270D02*
G03*
X11937Y4293I0J88D01*
G01*
X11798Y4523D02*
G03*
X11810Y4573I-98J50D01*
G01*
X11798Y4523D02*
G03*
X11810Y4573I-98J50D01*
G01*
X11832Y4530D02*
G03*
X11798Y4523I0J-88D01*
G01*
X11810Y4573D02*
G03*
X11832Y4570I22J85D01*
G01*
X11937Y4507D02*
G03*
X11878Y4530I-59J-65D01*
G01*
X12022Y4550D02*
G03*
X11937Y4507I0J-108D01*
G01*
Y4593D02*
G03*
X12022Y4550I86J65D01*
G01*
X11878Y4570D02*
G03*
X11937Y4593I0J88D01*
G01*
X12068Y4215D02*
G03*
X12111Y4188I81J81D01*
G01*
X12068Y4215D02*
G03*
X12111Y4188I81J81D01*
G01*
X12301Y4460D02*
G03*
X12190Y4417I-1J-164D01*
G01*
X12795Y4260D02*
G03*
X12995Y4360I75J100D01*
G01*
D02*
G03*
X12980Y4420I-125J0D01*
G01*
Y4420D02*
G03*
X12995Y4480I-110J60D01*
G01*
D02*
G03*
X12980Y4540I-125J0D01*
G01*
X12175Y4442D02*
G03*
X12068Y4550I-108J0D01*
G01*
D02*
G03*
X12175Y4658I0J108D01*
G01*
X12190Y4683D02*
G03*
X12301Y4640I110J121D01*
G01*
X12980Y4540D02*
G03*
X12995Y4600I-110J60D01*
G01*
D02*
G03*
X12821Y4715I-125J0D01*
G01*
X11937Y4807D02*
G03*
X11878Y4830I-59J-65D01*
G01*
X12022Y4850D02*
G03*
X11937Y4807I0J-108D01*
G01*
X12464Y4804D02*
G03*
X12450Y4870I-164J0D01*
G01*
X13094D02*
G03*
X13151Y4684I104J-70D01*
G01*
X13425Y4688D02*
G03*
X13391Y4769I-115J0D01*
G01*
X13425Y4688D02*
G03*
X13391Y4769I-115J0D01*
G01*
X14070Y4682D02*
G03*
X14148Y4650I78J78D01*
G01*
X14070Y4682D02*
G03*
X14148Y4650I78J78D01*
G01*
X14470Y4370D02*
G03*
X14648Y4205I110J-60D01*
G01*
X14680D02*
G03*
X14754Y4236I0J105D01*
G01*
X14470Y4490D02*
G03*
X14470Y4370I110J-60D01*
G01*
X14680Y4205D02*
G03*
X14754Y4236I0J105D01*
G01*
X14824Y4306D02*
G03*
X14855Y4380I-74J74D01*
G01*
X14824Y4306D02*
G03*
X14855Y4380I-74J74D01*
G01*
X14281Y4650D02*
G03*
X14465Y4760I59J110D01*
G01*
X14475Y4618D02*
G03*
X14470Y4490I105J-68D01*
G01*
X14465Y4760D02*
G03*
X14363Y4883I-125J0D01*
G01*
X13313Y4847D02*
G03*
X13301Y4870I-116J-47D01*
G01*
X14363Y4883D02*
G03*
X14350Y4919I-123J-23D01*
G01*
Y4942D02*
G03*
X14318Y5020I-110J0D01*
G01*
X14350Y4942D02*
G03*
X14318Y5020I-110J0D01*
G01*
X14407Y5494D02*
G03*
X14332Y5525I-74J-74D01*
G01*
X14407Y5494D02*
G03*
X14332Y5525I-74J-74D01*
G01*
X14855Y5003D02*
G03*
X14824Y5077I-105J0D01*
G01*
X14855Y5003D02*
G03*
X14824Y5077I-105J0D01*
G01*
X11948Y6244D02*
G03*
X12181Y6293I94J129D01*
G01*
D02*
G03*
X12411Y6293I115J80D01*
G01*
D02*
G03*
X12677Y6276I139J80D01*
G01*
D02*
G03*
X12931Y6276I127J97D01*
G01*
X12237Y6500D02*
G03*
X12181Y6453I59J-127D01*
G01*
D02*
G03*
X12139Y6500I-139J-80D01*
G01*
X12411Y6453D02*
G03*
X12355Y6500I-115J-80D01*
G01*
X12181Y6547D02*
G03*
X12237Y6500I115J80D01*
G01*
X12677Y6470D02*
G03*
X12647Y6500I-127J-97D01*
G01*
X12453D02*
G03*
X12411Y6453I97J-127D01*
G01*
X12961Y6500D02*
G03*
X12931Y6470I97J-127D01*
G01*
X12707Y6500D02*
G03*
X12677Y6470I97J-127D01*
G01*
X12647Y6500D02*
G03*
X12677Y6530I-97J127D01*
G01*
X12411Y6547D02*
G03*
X12453Y6500I139J80D01*
G01*
X12931Y6470D02*
G03*
X12901Y6500I-127J-97D01*
G01*
X12931Y6276D02*
G03*
X13185Y6276I127J97D01*
G01*
D02*
G03*
X13472Y6373I127J97D01*
G01*
X13185Y6470D02*
G03*
X13155Y6500I-127J-97D01*
G01*
X13215D02*
G03*
X13185Y6470I97J-127D01*
G01*
X13472Y6373D02*
G03*
X13409Y6500I-160J0D01*
G01*
D02*
G03*
X13472Y6627I-97J127D01*
G01*
X11915Y6724D02*
G03*
X11653Y6541I-127J-97D01*
G01*
X11923Y6520D02*
G03*
X11945Y6500I119J107D01*
G01*
X12181Y6707D02*
G03*
X11915Y6724I-139J-80D01*
G01*
X12139Y6500D02*
G03*
X12181Y6547I-97J127D01*
G01*
X12677Y6530D02*
G03*
X12707Y6500I127J97D01*
G01*
X12355D02*
G03*
X12411Y6547I-59J127D01*
G01*
Y6707D02*
G03*
X12181Y6707I-115J-80D01*
G01*
X12677Y6724D02*
G03*
X12411Y6707I-127J-97D01*
G01*
X12931Y6530D02*
G03*
X12961Y6500I127J97D01*
G01*
X12901D02*
G03*
X12931Y6530I-97J127D01*
G01*
X13185D02*
G03*
X13215Y6500I127J97D01*
G01*
X13155D02*
G03*
X13185Y6530I-97J127D01*
G01*
X12931Y6724D02*
G03*
X12677Y6724I-127J-97D01*
G01*
X13185D02*
G03*
X12931Y6724I-127J-97D01*
G01*
X14515D02*
G03*
X14259Y6533I-127J-97D01*
G01*
X13472Y6627D02*
G03*
X13185Y6724I-160J0D01*
G01*
X14548Y6244D02*
G03*
X14769Y6276I94J129D01*
G01*
D02*
G03*
X15023Y6276I127J97D01*
G01*
X14769Y6470D02*
G03*
X14739Y6500I-127J-97D01*
G01*
X15023Y6470D02*
G03*
X14993Y6500I-127J-97D01*
G01*
X15023Y6276D02*
G03*
X15277Y6276I127J97D01*
G01*
D02*
G03*
X15531Y6276I127J97D01*
G01*
X15053Y6500D02*
G03*
X15023Y6470I97J-127D01*
G01*
X15561Y6500D02*
G03*
X15531Y6470I97J-127D01*
G01*
X14515Y6530D02*
G03*
X14545Y6500I127J97D01*
G01*
X14799D02*
G03*
X14769Y6470I97J-127D01*
G01*
Y6530D02*
G03*
X14799Y6500I127J97D01*
G01*
X14739D02*
G03*
X14769Y6530I-97J127D01*
G01*
X15023D02*
G03*
X15053Y6500I127J97D01*
G01*
X14993D02*
G03*
X15023Y6530I-97J127D01*
G01*
X15307Y6500D02*
G03*
X15277Y6470I97J-127D01*
G01*
D02*
G03*
X15247Y6500I-127J-97D01*
G01*
X15531Y6470D02*
G03*
X15501Y6500I-127J-97D01*
G01*
X15247D02*
G03*
X15277Y6530I-97J127D01*
G01*
X15531D02*
G03*
X15561Y6500I127J97D01*
G01*
X15277Y6530D02*
G03*
X15307Y6500I127J97D01*
G01*
X15501D02*
G03*
X15531Y6530I-97J127D01*
G01*
Y6276D02*
G03*
X15785Y6276I127J97D01*
G01*
D02*
G03*
X16072Y6373I127J97D01*
G01*
D02*
G03*
X16009Y6500I-160J0D01*
G01*
X15785Y6470D02*
G03*
X15755Y6500I-127J-97D01*
G01*
X15815D02*
G03*
X15785Y6470I97J-127D01*
G01*
Y6530D02*
G03*
X15815Y6500I127J97D01*
G01*
X15755D02*
G03*
X15785Y6530I-97J127D01*
G01*
X16009Y6500D02*
G03*
X16072Y6627I-97J127D01*
G01*
D02*
G03*
X15785Y6724I-160J0D01*
G01*
X17935Y6500D02*
G03*
X17935Y6500I-435J0D01*
G01*
X14769Y6724D02*
G03*
X14515Y6724I-127J-97D01*
G01*
X15023D02*
G03*
X14769Y6724I-127J-97D01*
G01*
X15531D02*
G03*
X15277Y6724I-127J-97D01*
G01*
D02*
G03*
X15023Y6724I-127J-97D01*
G01*
X15785D02*
G03*
X15531Y6724I-127J-97D01*
G01*
X8747Y3055D02*
Y3467D01*
X8640Y2948D02*
X8747Y3055D01*
X8481Y2948D02*
X8640D01*
X8747Y3467D02*
X9018Y3738D01*
X9465D01*
X9635Y3908D01*
X10015D01*
X8481Y2948D02*
X8489Y2940D01*
X10015Y3908D02*
X10203D01*
X10015Y2995D02*
Y3908D01*
X8525Y1505D02*
X10015Y2995D01*
X8115Y1505D02*
X8525D01*
X7875Y1265D02*
X8115Y1505D01*
X10203Y3908D02*
X10210Y3915D01*
X7875Y1105D02*
Y1265D01*
Y641D02*
X8066Y450D01*
X7875Y641D02*
Y1105D01*
X7525D02*
X7875D01*
X7314Y641D02*
X7875D01*
X8066Y450D02*
X8415D01*
X11638Y3578D02*
X11638Y3578D01*
X11472Y3578D02*
X11638D01*
X11250Y3800D02*
X11472Y3578D01*
X11250Y3800D02*
Y4065D01*
X12715Y2027D02*
X12888D01*
X12588Y2155D02*
X12715Y2027D01*
X12890Y2210D02*
X14630D01*
X12250Y2155D02*
X12588D01*
X14073Y5110D02*
X14240Y4942D01*
X11725Y5110D02*
X14073D01*
X11505Y4890D02*
X11725Y5110D01*
X14148Y4760D02*
X14340D01*
X13927Y4980D02*
X14148Y4760D01*
X11840Y4980D02*
X13927D01*
X14240Y4860D02*
Y4942D01*
X8464Y499D02*
Y641D01*
X8415Y450D02*
X8464Y499D01*
X14845Y2150D02*
X14850Y2155D01*
X14690Y2150D02*
X14845D01*
X14630Y2210D02*
X14690Y2150D01*
X11700Y4573D02*
Y4840D01*
X11507Y4380D02*
X11700Y4573D01*
Y4840D02*
X11840Y4980D01*
X11505Y4382D02*
X11507Y4380D01*
X6846Y2819D02*
Y3185D01*
X5870D02*
X6846D01*
X5273Y895D02*
X5538Y630D01*
X5066Y895D02*
X5273D01*
X5538Y630D02*
X6275D01*
X6353Y553D01*
Y-125D02*
Y553D01*
X6122Y-356D02*
X6353Y-125D01*
X2275Y3075D02*
X2305Y3105D01*
X1925Y3075D02*
X2275Y3075D01*
X1875Y3025D02*
X1925Y3075D01*
X1725Y3175D02*
X2217D01*
X1660Y3110D02*
X1725Y3175D01*
X1660Y2998D02*
Y3110D01*
X1738Y2617D02*
X1865Y2745D01*
X1738Y2431D02*
Y2617D01*
X1540Y2673D02*
X1611Y2745D01*
X1825Y-238D02*
X1863Y-200D01*
X1525Y-238D02*
X1825D01*
X1468Y-180D02*
X1525Y-238D01*
X1833Y390D02*
X2173Y50D01*
X1668Y390D02*
X1833D01*
X1468Y-180D02*
Y390D01*
X1863Y-200D02*
X2173D01*
X5868Y111D02*
Y406D01*
X5517Y-240D02*
X5868Y111D01*
X5270Y-240D02*
X5517D01*
X6122Y187D02*
Y406D01*
X5588Y-347D02*
X6122Y187D01*
X5055Y-347D02*
X5588D01*
X5065Y-35D02*
X5270Y-240D01*
X5045Y-35D02*
X5065D01*
X4738Y-30D02*
X5055Y-347D01*
X1175Y-75D02*
X1270Y20D01*
Y385D01*
X2645Y2613D02*
X2718Y2540D01*
X2865D01*
X1540Y2100D02*
Y2673D01*
Y2100D02*
X1588Y2053D01*
X1735D01*
X1738Y2050D01*
X1957D01*
X2049Y2141D01*
X2229D01*
X1957Y1901D02*
Y2050D01*
Y1901D02*
X1995Y1863D01*
Y1673D02*
X2035D01*
X2075Y1633D01*
X2229D01*
X2217Y3175D02*
X2283Y3240D01*
X2635Y3068D02*
Y3105D01*
Y3068D02*
X2778Y2925D01*
X2861D01*
X2283Y3240D02*
X2545D01*
X2635Y3150D01*
Y3105D02*
Y3150D01*
X2445Y3070D02*
Y3105D01*
Y3070D02*
X2645Y2870D01*
Y2613D02*
Y2870D01*
X2305Y3105D02*
X2445Y3105D01*
X2765Y2795D02*
X2864D01*
X2865Y2794D01*
Y2667D02*
X2944D01*
X2945Y2668D01*
X3102Y2921D02*
X3138Y2885D01*
X2865Y2921D02*
X3102D01*
X3110Y2668D02*
X3138Y2695D01*
X2945Y2668D02*
X3110D01*
X5868Y-356D02*
X6122D01*
X16945Y1450D02*
Y1580D01*
X16875Y1650D02*
X16945Y1580D01*
X16875Y1650D02*
Y1761D01*
X16878Y1764D01*
X16710Y1495D02*
X16755Y1450D01*
X16550Y1495D02*
X16710D01*
X16550D02*
Y1575D01*
X16624Y1649D01*
Y1764D01*
X16023Y1654D02*
Y1769D01*
X15949Y1580D02*
X16023Y1654D01*
X15949Y1500D02*
Y1580D01*
Y1500D02*
X16109D01*
X16154Y1455D01*
X16274Y1766D02*
X16277Y1769D01*
X16274Y1655D02*
Y1766D01*
Y1655D02*
X16344Y1585D01*
Y1455D02*
Y1585D01*
X15423Y1654D02*
Y1769D01*
X15349Y1580D02*
X15423Y1654D01*
X15349Y1500D02*
Y1580D01*
Y1500D02*
X15509D01*
X15554Y1455D01*
X15674Y1766D02*
X15677Y1769D01*
X15674Y1655D02*
Y1766D01*
Y1655D02*
X15744Y1585D01*
Y1455D02*
Y1585D01*
X14823Y1654D02*
Y1769D01*
X14749Y1580D02*
X14823Y1654D01*
X14749Y1500D02*
Y1580D01*
Y1500D02*
X14909D01*
X14954Y1455D01*
X15074Y1766D02*
X15077Y1769D01*
X15074Y1655D02*
Y1766D01*
Y1655D02*
X15144Y1585D01*
Y1455D02*
Y1585D01*
X12223Y1654D02*
Y1769D01*
X12149Y1580D02*
X12223Y1654D01*
X12149Y1500D02*
Y1580D01*
Y1500D02*
X12309D01*
X12354Y1455D01*
X12474Y1766D02*
X12477Y1769D01*
X12474Y1655D02*
Y1766D01*
Y1655D02*
X12544Y1585D01*
Y1455D02*
Y1585D01*
X11623Y1654D02*
Y1769D01*
X11549Y1580D02*
X11623Y1654D01*
X11549Y1500D02*
Y1580D01*
Y1500D02*
X11709D01*
X11754Y1455D01*
X11874Y1766D02*
X11877Y1769D01*
X11874Y1655D02*
Y1766D01*
Y1655D02*
X11944Y1585D01*
Y1455D02*
Y1585D01*
X11023Y1654D02*
Y1769D01*
X10949Y1580D02*
X11023Y1654D01*
X10949Y1500D02*
Y1580D01*
Y1500D02*
X11109D01*
X11154Y1455D01*
X11274Y1766D02*
X11277Y1769D01*
X11274Y1655D02*
Y1766D01*
Y1655D02*
X11344Y1585D01*
Y1455D02*
Y1585D01*
X10423Y1654D02*
Y1769D01*
X10349Y1580D02*
X10423Y1654D01*
X10349Y1500D02*
Y1580D01*
Y1500D02*
X10509D01*
X10554Y1455D01*
X10674Y1766D02*
X10677Y1769D01*
X10674Y1655D02*
Y1766D01*
Y1655D02*
X10744Y1585D01*
Y1455D02*
Y1585D01*
X7325Y1105D02*
X7525D01*
X8475D02*
X8675D01*
X13760Y641D02*
Y768D01*
X13887Y894D01*
X12610Y641D02*
Y768D01*
X12736Y894D01*
X11460Y641D02*
Y768D01*
X11586Y894D01*
X10310Y641D02*
Y768D01*
X10436Y894D01*
X10438Y895D01*
X11471Y1010D02*
X11586Y894D01*
X12556Y1075D02*
X12736Y894D01*
X13563Y1218D02*
X13887Y894D01*
X12238Y1218D02*
X13563D01*
X12150Y1305D02*
X12238Y1218D01*
X11550Y1305D02*
X11780Y1075D01*
X12556D01*
X10950Y1305D02*
X11245Y1010D01*
X11471D01*
X10350Y1305D02*
X10438Y1218D01*
Y895D02*
Y1218D01*
X12477Y1769D02*
Y1891D01*
X12422Y1945D02*
X12477Y1891D01*
X10677Y1772D02*
X10850Y1945D01*
X10677Y1769D02*
Y1772D01*
X11875Y1771D02*
X11877Y1769D01*
X11875Y1771D02*
Y1945D01*
X12422D01*
X11277Y1769D02*
Y1945D01*
X11278Y1945D01*
X10850D02*
X11278D01*
X11875D01*
X12250Y2155D02*
X12250Y2155D01*
X10450Y2155D02*
X12250D01*
X8464Y641D02*
X8676D01*
X8818Y782D01*
X8675Y1105D02*
X8777D01*
X8818Y1065D01*
Y782D02*
Y1065D01*
X10423Y2372D02*
X10450Y2345D01*
X10423Y2372D02*
Y2531D01*
X11023Y2372D02*
Y2531D01*
Y2372D02*
X11050Y2345D01*
X11623Y2372D02*
Y2531D01*
Y2372D02*
X11650Y2345D01*
X12223Y2372D02*
Y2531D01*
Y2372D02*
X12250Y2345D01*
X14823Y2372D02*
Y2531D01*
Y2372D02*
X14850Y2345D01*
X15423Y2372D02*
Y2531D01*
Y2372D02*
X15450Y2345D01*
X16023Y2372D02*
Y2531D01*
Y2372D02*
X16050Y2345D01*
X16624Y2367D02*
Y2526D01*
Y2367D02*
X16651Y2340D01*
X14850Y2155D02*
X15450D01*
X15450Y2155D01*
X16050D01*
X16050Y2155D01*
X16650D01*
X-250Y-450D02*
Y-356D01*
X-300Y-450D02*
Y-315D01*
X-100Y-450D02*
Y-423D01*
X-200Y-450D02*
Y-386D01*
X-450Y-350D02*
X-258D01*
X-450Y-300D02*
X-315D01*
X-150Y-450D02*
Y-408D01*
X-450Y-400D02*
X-171D01*
X200Y-450D02*
Y-386D01*
X250Y-450D02*
Y-356D01*
X300Y-450D02*
Y-315D01*
X350Y-450D02*
Y-258D01*
X-0Y-450D02*
Y-435D01*
X-50Y-450D02*
Y-432D01*
X50Y-450D02*
Y-432D01*
X100Y-450D02*
Y-423D01*
X150Y-450D02*
Y-408D01*
X-450Y-150D02*
X-408D01*
X-450Y-100D02*
X-423D01*
X-450Y-250D02*
X-356D01*
X-450Y-200D02*
X-386D01*
X-450Y-0D02*
X-435D01*
X-450Y50D02*
X-432D01*
X-450Y-50D02*
X-432D01*
X-450Y250D02*
X-356D01*
X-400Y-450D02*
Y-171D01*
X-450Y-450D02*
Y250D01*
X-350Y-450D02*
Y-258D01*
X400Y-450D02*
Y-171D01*
X-450Y100D02*
X-423D01*
X-450Y150D02*
X-408D01*
X-450Y200D02*
X-386D01*
X-450Y300D02*
X-315D01*
X356Y-250D02*
X1383D01*
X386Y-200D02*
X1075D01*
X258Y-350D02*
X2083D01*
X315Y-300D02*
X1432D01*
X432Y-50D02*
X1017D01*
X432Y50D02*
X914D01*
X408Y-150D02*
X1034D01*
X423Y-100D02*
X1017D01*
X950Y-450D02*
Y19D01*
X900Y-450D02*
Y67D01*
X1050Y-450D02*
Y-175D01*
X1000Y-450D02*
Y-3D01*
X1100Y-450D02*
Y-216D01*
X435Y-0D02*
X990D01*
X1200Y-450D02*
Y-233D01*
X1150Y-450D02*
Y-233D01*
X500Y-450D02*
Y621D01*
X450Y-450D02*
Y710D01*
X423Y100D02*
X881D01*
X550Y-450D02*
Y586D01*
X408Y150D02*
X867D01*
X386Y200D02*
X867D01*
X356Y250D02*
X881D01*
X315Y300D02*
X914D01*
X650Y-450D02*
Y569D01*
X600Y-450D02*
Y570D01*
X700Y-450D02*
Y581D01*
X750Y-450D02*
Y612D01*
X800Y-450D02*
Y679D01*
X950Y331D02*
Y1759D01*
X1110Y350D02*
X1120D01*
X-450D02*
X-258D01*
X-450Y400D02*
X-171D01*
X-450Y600D02*
X525D01*
X-450Y650D02*
X476D01*
X-450Y750D02*
X445D01*
X-450Y800D02*
X451D01*
X-450Y700D02*
X453D01*
X-450Y850D02*
X473D01*
X450Y795D02*
Y965D01*
X258Y350D02*
X990D01*
X-450Y950D02*
X454D01*
X-450Y1000D02*
X445D01*
X-450Y900D02*
X479D01*
X800Y826D02*
Y934D01*
X-450Y1050D02*
X450D01*
X-450Y1200D02*
X455D01*
X-450Y1100D02*
X470D01*
X-450Y1150D02*
X481D01*
X-450Y1250D02*
X445D01*
X-450Y1300D02*
X449D01*
X-450Y1700D02*
X1009D01*
X-450Y1750D02*
X959D01*
X450Y1050D02*
Y1218D01*
X1000Y353D02*
Y1709D01*
X-450Y1350D02*
X468D01*
X-450Y1400D02*
X509D01*
X800Y1081D02*
Y1187D01*
X171Y400D02*
X1118D01*
X-450Y450D02*
X1127D01*
X-450Y500D02*
X1166D01*
X-450Y550D02*
X1138D01*
X735Y600D02*
X1138D01*
X784Y650D02*
X1156D01*
X790Y1100D02*
X1384D01*
X779Y1150D02*
X1334D01*
X1118Y373D02*
Y408D01*
X1150Y482D02*
Y519D01*
X1138Y563D02*
Y598D01*
X810Y1050D02*
X1434D01*
X815Y1000D02*
X1484D01*
X751Y1400D02*
X1100D01*
X-450Y1450D02*
X1095D01*
X805Y1200D02*
X1284D01*
X792Y1350D02*
X1134D01*
X-450Y1600D02*
X1095D01*
X-450Y1650D02*
X1059D01*
X-450Y1500D02*
X1095D01*
X-450Y1550D02*
X1095D01*
X1100Y353D02*
Y1401D01*
X1050Y360D02*
Y1659D01*
X1150Y641D02*
Y1334D01*
X1126Y1358D02*
X1491Y993D01*
X1095Y1433D02*
Y1614D01*
X815Y1250D02*
X1234D01*
X811Y1300D02*
X1184D01*
X1250Y-450D02*
Y-216D01*
X1300Y-450D02*
Y-175D01*
X1400Y-450D02*
Y-268D01*
X1275Y-200D02*
X1359D01*
X1390Y-258D02*
X1447Y-315D01*
X1700Y-450D02*
Y-347D01*
X1650Y-450D02*
Y-347D01*
X1800Y-450D02*
Y-347D01*
X1750Y-450D02*
Y-347D01*
X1500Y-450D02*
Y-345D01*
X1450Y-450D02*
Y-318D01*
X1600Y-450D02*
Y-347D01*
X1550Y-450D02*
Y-347D01*
X1350Y-450D02*
Y-56D01*
X1358Y-180D02*
Y-47D01*
X1316Y-150D02*
X1358D01*
X1333Y-100D02*
X1358D01*
X1335Y-71D02*
X1348Y-58D01*
X1783Y-100D02*
X1817D01*
X1800Y-110D02*
Y-3D01*
X1578Y78D02*
Y108D01*
Y242D02*
Y279D01*
X1525Y-347D02*
X1825D01*
X1850Y-450D02*
Y-345D01*
X1863Y-90D02*
X2037D01*
X1783Y-50D02*
X2029D01*
X1900Y-450D02*
Y-318D01*
X1950Y-450D02*
Y-310D01*
X2050Y-450D02*
Y-324D01*
X2000Y-450D02*
Y-310D01*
X1908D02*
X2037D01*
X2150Y-450D02*
Y-373D01*
X2100Y-450D02*
Y-359D01*
X2200Y-450D02*
Y-373D01*
X1850Y-91D02*
Y19D01*
X1900Y-90D02*
Y67D01*
X1810Y-0D02*
X2005D01*
X1886Y50D02*
X1998D01*
X1919Y100D02*
X1967D01*
X1931Y136D02*
X1999Y68D01*
X1911Y468D02*
X2155Y224D01*
X2000Y-90D02*
Y24D01*
X1950Y-90D02*
Y118D01*
X2250Y207D02*
Y963D01*
X2050Y329D02*
Y963D01*
X2000Y379D02*
Y963D01*
X2200Y223D02*
Y963D01*
X2100Y279D02*
Y963D01*
X2150Y229D02*
Y963D01*
X1220Y680D02*
X1315D01*
X1420D02*
X1515D01*
X1798Y563D02*
Y598D01*
X1650Y680D02*
Y963D01*
X1600Y678D02*
Y963D01*
X1620Y680D02*
X1715D01*
X1700D02*
Y963D01*
X1750Y672D02*
Y963D01*
X1300Y680D02*
Y1184D01*
X1200Y678D02*
Y1284D01*
X1400Y678D02*
Y1084D01*
X1350Y672D02*
Y1134D01*
X1450Y680D02*
Y1034D01*
X1250Y680D02*
Y1234D01*
X1550Y672D02*
Y964D01*
X1500Y680D02*
Y985D01*
X1562Y1482D02*
X1721Y1323D01*
X1750D02*
Y1769D01*
X1600Y1444D02*
Y1506D01*
X1650Y1394D02*
Y1686D01*
X1700Y1344D02*
Y1736D01*
X1800Y500D02*
Y963D01*
X1769Y500D02*
X1833D01*
X1721Y1323D02*
X2079D01*
X1694Y1350D02*
X2072D01*
X1644Y1400D02*
X2070D01*
X1594Y1450D02*
X2086D01*
X1593Y1500D02*
X2124D01*
X1900Y477D02*
Y963D01*
X1950Y429D02*
Y963D01*
X1850Y499D02*
Y963D01*
X2100Y1474D02*
Y1523D01*
X2075D02*
X2113D01*
X1640Y1600D02*
X1857D01*
X1850Y1323D02*
Y1618D01*
X1631Y1550D02*
X1913D01*
X1628Y1650D02*
X1845D01*
Y1650D02*
Y1695D01*
X1663Y1700D02*
X1845D01*
X1713Y1750D02*
X1860D01*
X1950Y1323D02*
Y1543D01*
X1900Y1323D02*
Y1556D01*
X2050Y1323D02*
Y1526D01*
X2000Y1323D02*
Y1543D01*
X1953D02*
X2012D01*
X-250Y356D02*
Y1986D01*
X-450Y2000D02*
X-261D01*
X-450Y1950D02*
X-208D01*
X-450Y2050D02*
X-282D01*
X-450Y2100D02*
X-287D01*
X-450Y2150D02*
X-275D01*
X-450Y2200D02*
X-241D01*
X-150Y408D02*
Y1930D01*
X-200Y386D02*
Y1946D01*
X-100Y423D02*
Y1930D01*
X-50Y432D02*
Y1948D01*
X-33Y1928D02*
Y1959D01*
X-250Y2190D02*
Y2240D01*
X-0Y435D02*
Y1928D01*
X-46Y1950D02*
X-33D01*
X-400Y171D02*
Y6329D01*
X-450Y250D02*
Y6950D01*
Y2250D02*
X-258D01*
X-350Y258D02*
Y6242D01*
X-450Y2300D02*
X-281D01*
X-450Y2350D02*
X-287D01*
X-450Y2400D02*
X-276D01*
X-450Y2450D02*
X-245D01*
X-300Y315D02*
Y6185D01*
X-250Y2444D02*
Y2494D01*
X-0Y2439D02*
Y2499D01*
X-9Y2450D02*
X9D01*
X100Y423D02*
Y1928D01*
X50Y432D02*
Y1928D01*
X200Y386D02*
Y1928D01*
X150Y408D02*
Y1928D01*
X-450Y1900D02*
X809D01*
X-33Y1928D02*
X287D01*
X-450Y1800D02*
X909D01*
X-450Y1850D02*
X859D01*
X250Y356D02*
Y1928D01*
X550Y1427D02*
Y2159D01*
X650Y1444D02*
Y2059D01*
X600Y1443D02*
Y2109D01*
X287Y2100D02*
X609D01*
X287Y2150D02*
X559D01*
X287Y1950D02*
X759D01*
X287Y2050D02*
X659D01*
X287Y2000D02*
X709D01*
X256Y2248D02*
X287D01*
X258Y2250D02*
X459D01*
X233Y2476D02*
X1095Y1614D01*
X245Y2450D02*
X259D01*
X250Y2444D02*
Y2459D01*
X276Y2400D02*
X309D01*
X350Y258D02*
Y2359D01*
X300Y315D02*
Y2409D01*
X450Y1302D02*
Y2259D01*
X400Y171D02*
Y2309D01*
X287Y1928D02*
Y2248D01*
X287Y2350D02*
X359D01*
X287Y2200D02*
X509D01*
X281Y2300D02*
X409D01*
X500Y1392D02*
Y2209D01*
X-450Y2550D02*
X-280D01*
X-450Y2600D02*
X-287D01*
X-450Y2500D02*
X-255D01*
X-450Y2650D02*
X-278D01*
X-450Y2850D02*
X-287D01*
X-450Y2900D02*
X-279D01*
X-450Y2700D02*
X-249D01*
X-450Y2750D02*
X-252D01*
X-0Y2693D02*
Y2753D01*
X-250Y2698D02*
Y2748D01*
X-450Y2800D02*
X-279D01*
X-5Y2700D02*
X5D01*
X-450Y2950D02*
X-252D01*
X-450Y3000D02*
X-249D01*
X-450Y3100D02*
X-287D01*
X-450Y3150D02*
X-280D01*
X-450Y3050D02*
X-278D01*
X-450Y3200D02*
X-255D01*
X-250Y2952D02*
Y3002D01*
X-0Y2947D02*
Y3007D01*
Y3201D02*
Y3299D01*
X-5Y3000D02*
X5D01*
X248Y2701D02*
X262D01*
X237Y2734D02*
X271Y2701D01*
X248Y2955D02*
X269D01*
X237Y2987D02*
X269Y2955D01*
X250Y2701D02*
Y2722D01*
Y2955D02*
Y2974D01*
X661Y2850D02*
X797D01*
X571Y2950D02*
X797D01*
X621Y2900D02*
X797D01*
X350Y3171D02*
Y3477D01*
X371Y3150D02*
X797D01*
X343Y3178D02*
X639Y2882D01*
X300Y3204D02*
Y3477D01*
X311Y3200D02*
X797D01*
X600Y2921D02*
Y3477D01*
X550Y2971D02*
Y3477D01*
X521Y3000D02*
X797D01*
X650Y2869D02*
Y3477D01*
X450Y3071D02*
Y3477D01*
X400Y3121D02*
Y3477D01*
X471Y3050D02*
X797D01*
X421Y3100D02*
X797D01*
X500Y3021D02*
Y3477D01*
X800Y1333D02*
Y1909D01*
X750Y1401D02*
Y1959D01*
X900Y283D02*
Y1809D01*
X850Y-450D02*
Y1859D01*
X700Y1431D02*
Y2009D01*
X1058Y1948D02*
X1185Y1821D01*
X1064Y1950D02*
X1185D01*
Y1821D02*
Y1955D01*
X1150Y1856D02*
Y1955D01*
X1156Y1850D02*
X1185D01*
X1106Y1900D02*
X1185D01*
X1100Y1906D02*
Y1955D01*
X1074D02*
X1185D01*
X1087Y2546D02*
X1108D01*
X1028Y2605D02*
X1087Y2546D01*
X1108D01*
X1150D02*
Y2605D01*
X1100Y2546D02*
Y2605D01*
X1050Y2583D02*
Y2605D01*
X1108Y2546D02*
X1188D01*
X1083Y2550D02*
X1430D01*
X1300Y2379D02*
Y2406D01*
X1350Y2329D02*
Y2585D01*
X1400Y2279D02*
Y2590D01*
X1200Y2545D02*
Y2605D01*
X1250Y2527D02*
Y2626D01*
X1301Y2450D02*
X1430D01*
X1300Y2455D02*
Y2595D01*
X1500Y1833D02*
Y1971D01*
X1483Y1816D02*
Y1998D01*
Y1850D02*
X1516D01*
X1483Y1816D02*
X1594Y1928D01*
X1550Y1883D02*
Y1936D01*
X1483Y1950D02*
X1524D01*
X1483Y1900D02*
X1566D01*
X1800Y1323D02*
Y1771D01*
X1623Y1660D02*
X1736Y1772D01*
X1850Y1727D02*
Y1796D01*
X2067Y1988D02*
Y2004D01*
Y2000D02*
X2116D01*
X1301Y2378D02*
X1430Y2248D01*
Y2602D01*
X2094Y2031D02*
X2113D01*
X2067Y2004D02*
X2094Y2031D01*
X1298Y2400D02*
X1430D01*
X1279Y2500D02*
X1430D01*
X1379Y2300D02*
X1430D01*
X1329Y2350D02*
X1430D01*
X2100Y1982D02*
Y2031D01*
X2148Y2303D02*
Y2402D01*
X2150Y2280D02*
Y2404D01*
X2147Y2300D02*
X2211D01*
X2148Y2402D02*
X2170Y2425D01*
X2200Y2298D02*
Y2425D01*
X699Y2700D02*
X797D01*
X670Y2728D02*
Y2808D01*
X749Y2650D02*
X797D01*
X670Y2728D02*
X797Y2601D01*
X670Y2750D02*
X797D01*
X670Y2800D02*
X797D01*
X1027Y2885D02*
X1066D01*
X1027Y2900D02*
X1049D01*
X1242Y2856D02*
Y2870D01*
X1028Y2605D02*
X1243D01*
Y2632D01*
X1050Y2885D02*
Y2899D01*
X1214Y2885D02*
X1226D01*
X750Y2649D02*
Y3477D01*
X700Y2699D02*
Y3477D01*
X797Y2601D02*
Y3477D01*
X1027Y2885D02*
Y3536D01*
X1030Y2955D02*
Y3040D01*
X1027Y3100D02*
X1054D01*
X1027Y3150D02*
X1195D01*
X1027Y3200D02*
X1195D01*
X1050Y3096D02*
Y3559D01*
X1100Y3126D02*
Y3609D01*
X1150Y3128D02*
Y3615D01*
X1117Y3128D02*
X1162D01*
X1195Y3121D02*
Y3275D01*
X1033Y2600D02*
X1289D01*
X1478Y2850D02*
X1491D01*
X1496Y2856D02*
Y2949D01*
X1472Y2900D02*
X1496D01*
X1472Y2950D02*
X1496D01*
X1732Y2850D02*
X1745D01*
X1750Y2856D02*
Y2871D01*
X1750Y2856D02*
Y2871D01*
X1980Y2954D02*
X1992Y2965D01*
X1980Y2954D02*
Y2965D01*
X1992D01*
X1472Y2856D02*
Y2970D01*
X1468Y3000D02*
X1508D01*
X1465Y3050D02*
X1530D01*
X1465Y3010D02*
Y3219D01*
Y3100D02*
X1548D01*
X1465Y3200D02*
X1594D01*
X1465Y3150D02*
X1558D01*
X1500Y2978D02*
Y3254D01*
X1530Y3030D02*
Y3040D01*
X1550Y3102D02*
Y3304D01*
X1582Y3188D02*
X1647Y3253D01*
X2250Y-450D02*
Y-357D01*
X2300Y-450D02*
Y-320D01*
X2450Y-450D02*
Y-373D01*
X2350Y-450D02*
Y-357D01*
X2263Y-350D02*
X2337D01*
X2400Y-450D02*
Y-373D01*
X2500Y-450D02*
Y-359D01*
X2550Y-450D02*
Y-325D01*
X2600Y-450D02*
Y-227D01*
X2900Y-450D02*
Y-200D01*
X2950Y-450D02*
Y-220D01*
X2602Y-200D02*
X2901D01*
X3000Y-450D02*
Y-229D01*
X3050Y-450D02*
Y-227D01*
X3100Y-450D02*
Y-213D01*
X2600Y-173D02*
Y23D01*
X2595Y-150D02*
X2838D01*
X2571Y-100D02*
X2805D01*
X2300Y-80D02*
Y-70D01*
X2571Y-50D02*
X2786D01*
X2595Y-0D02*
X2780D01*
X3150Y-450D02*
Y-187D01*
X3200Y-450D02*
Y-139D01*
X3300Y-450D02*
Y474D01*
X3250Y-450D02*
Y492D01*
X2800Y-450D02*
Y-90D01*
X2602Y50D02*
X2784D01*
X2850Y-450D02*
Y-162D01*
X2517Y-350D02*
X4902D01*
X3850Y-450D02*
Y-145D01*
X-450Y-450D02*
X5015D01*
X171Y-400D02*
X4952D01*
X3128Y-200D02*
X3917D01*
X3191Y-150D02*
X3854D01*
X2571Y-300D02*
X4852D01*
X2595Y-250D02*
X4802D01*
X3950Y-450D02*
Y-215D01*
X3900Y-450D02*
Y-190D01*
X4050Y-450D02*
Y-229D01*
X4000Y-450D02*
Y-228D01*
X4100Y-450D02*
Y-219D01*
X4150Y-450D02*
Y-197D01*
X4144Y-200D02*
X4253D01*
X4200Y-450D02*
Y-160D01*
X3350Y-450D02*
Y471D01*
X3400Y-450D02*
Y485D01*
X3500Y-450D02*
Y494D01*
X3450Y-450D02*
Y518D01*
X3249Y-0D02*
X3796D01*
X3245Y50D02*
X3800D01*
X3224Y-100D02*
X3821D01*
X3243Y-50D02*
X3802D01*
X3600Y-450D02*
Y471D01*
X3550Y-450D02*
Y474D01*
X3650Y-450D02*
Y483D01*
X3700Y-450D02*
Y514D01*
X3800Y-450D02*
Y-40D01*
X3750Y-450D02*
Y496D01*
X2263Y200D02*
X2337D01*
X1837Y500D02*
X3236D01*
X1797Y600D02*
X3167D01*
X1779Y650D02*
X3162D01*
X1797Y550D02*
X3188D01*
X807Y700D02*
X3173D01*
X2595Y100D02*
X2799D01*
X2571Y150D02*
X2829D01*
X3200Y150D02*
Y533D01*
X3150Y198D02*
Y725D01*
X2517Y200D02*
X2883D01*
X3050Y238D02*
Y725D01*
X3035D02*
X3184D01*
X3100Y224D02*
Y725D01*
X2350Y207D02*
Y963D01*
X2300Y170D02*
Y963D01*
X815Y750D02*
X3035D01*
X809Y800D02*
X3035D01*
X806Y950D02*
X3035D01*
X1565Y963D02*
X2443D01*
X787Y850D02*
X3035D01*
X781Y900D02*
X3035D01*
X2400Y223D02*
Y963D01*
X2450Y223D02*
Y963D01*
X2500Y209D02*
Y980D01*
X2550Y175D02*
Y1026D01*
X2523Y1000D02*
X3035D01*
X2573Y1050D02*
X3035D01*
X3375D02*
X3390D01*
X3230Y100D02*
X3815D01*
X3200Y150D02*
X3845D01*
X3146Y200D02*
X3899D01*
X2129Y250D02*
X4562D01*
X1979Y400D02*
X4423D01*
X1929Y450D02*
X4401D01*
X2079Y300D02*
X4522D01*
X2029Y350D02*
X4472D01*
X3850Y156D02*
Y471D01*
X3800Y51D02*
Y475D01*
X3682Y500D02*
X3744D01*
X3428D02*
X3490D01*
X4162Y200D02*
X4235D01*
X3900Y201D02*
Y481D01*
X3936Y500D02*
X4400D01*
X3874Y950D02*
X4388D01*
X3528Y1050D02*
X3644D01*
X3877Y850D02*
X4388D01*
X3782Y1050D02*
X4388D01*
X3846Y1000D02*
X4388D01*
X3950Y226D02*
Y511D01*
X4000Y239D02*
Y583D01*
X3984Y550D02*
X4400D01*
X4005Y600D02*
X4400D01*
X3899Y800D02*
X4388D01*
X3883Y900D02*
X4388D01*
X4010Y650D02*
X4400D01*
X3970Y750D02*
X4388D01*
X3999Y700D02*
X4400D01*
X4300Y-450D02*
Y-220D01*
X4250Y-450D02*
Y-198D01*
X4350Y-450D02*
Y-229D01*
X4400Y-450D02*
Y-227D01*
X4450Y-450D02*
Y-214D01*
X4500Y-450D02*
Y-188D01*
X4481Y-200D02*
X4752D01*
X4543Y-150D02*
X4608D01*
X4600Y-450D02*
Y-143D01*
X4550Y-450D02*
Y-142D01*
X4700Y-450D02*
Y-173D01*
X4650Y-450D02*
Y-169D01*
X4676Y-173D02*
X4724D01*
X4850Y-450D02*
Y-298D01*
X4750Y-450D02*
Y-198D01*
X4800Y-450D02*
Y-248D01*
X4582Y100D02*
X4624D01*
X4600Y83D02*
Y157D01*
X4650Y109D02*
Y131D01*
X4550Y153D02*
Y272D01*
X4500Y199D02*
Y322D01*
X4552Y150D02*
X4608D01*
X4750Y112D02*
Y127D01*
X4800Y112D02*
Y128D01*
X4850Y100D02*
Y140D01*
X4676Y112D02*
X4799D01*
X4700D02*
Y127D01*
X4676D02*
X4799D01*
X4883Y165D02*
X4895D01*
X4950Y-450D02*
Y-398D01*
X4900Y-450D02*
Y-348D01*
X4724Y-173D02*
X4977Y-425D01*
X4851Y100D02*
X4943D01*
X4984Y108D02*
X5106D01*
X5100Y-237D02*
Y-225D01*
X5041Y-177D02*
X5101Y-238D01*
X5112D01*
X5052Y-177D02*
X5112Y-238D01*
X5041Y-177D02*
X5052D01*
X5050Y-187D02*
Y-177D01*
X5063Y-200D02*
X5074D01*
X5147Y100D02*
X5168D01*
X4950Y102D02*
Y128D01*
X4900Y71D02*
Y159D01*
X5100Y108D02*
Y123D01*
X5000Y108D02*
Y123D01*
X4867Y150D02*
X4910D01*
X4984Y123D02*
X5106D01*
X5050Y108D02*
Y123D01*
X5150Y99D02*
Y131D01*
X5180Y150D02*
X5198D01*
X5200Y153D02*
Y172D01*
X5250Y199D02*
Y291D01*
X5550Y171D02*
Y520D01*
X5550Y171D02*
Y520D01*
X4562Y241D02*
Y259D01*
X4450Y225D02*
Y372D01*
X4499Y200D02*
X4570D01*
X4431Y391D02*
X4562Y259D01*
X4669Y450D02*
X5088D01*
X4700Y419D02*
Y471D01*
X4883Y375D02*
X4904D01*
X5220Y236D02*
Y262D01*
X4851Y400D02*
X4943D01*
X4706Y412D02*
X4799D01*
X4984Y407D02*
X5069D01*
X4950Y402D02*
Y471D01*
X5069Y407D02*
X5088Y426D01*
X4643Y476D02*
X4706Y412D01*
X4400Y238D02*
Y725D01*
X4750Y412D02*
Y484D01*
X4800Y412D02*
Y516D01*
X4388Y725D02*
X4400D01*
Y465D02*
Y725D01*
X4780Y500D02*
X4843D01*
X4900Y375D02*
Y475D01*
X4850Y400D02*
Y495D01*
X5000Y407D02*
Y482D01*
X5050Y407D02*
Y512D01*
X4880Y1050D02*
X4997D01*
X5034Y500D02*
X5088D01*
Y426D02*
Y507D01*
X5214Y200D02*
X5251D01*
X5220Y262D02*
X5267Y308D01*
X5220Y250D02*
X5550D01*
X5258Y300D02*
X5550D01*
X5292Y350D02*
X5550D01*
X5298Y400D02*
X5550D01*
X5298Y383D02*
Y507D01*
X5300Y225D02*
Y509D01*
X5515Y200D02*
X5550D01*
X5500Y209D02*
Y527D01*
X5336Y550D02*
X5462D01*
X5298Y450D02*
X5550D01*
X5298Y500D02*
X5550D01*
X5538Y520D02*
X5550D01*
X5350Y238D02*
Y576D01*
X5358Y600D02*
X5412D01*
X5351Y972D02*
X5550Y773D01*
X5195Y1005D02*
X5273D01*
X5304Y1000D02*
X5550D01*
X5134Y1050D02*
X5550D01*
X5450Y231D02*
Y562D01*
X5400Y240D02*
Y612D01*
X5362Y650D02*
X5460Y552D01*
X5523Y800D02*
X5550D01*
X5473Y850D02*
X5550D01*
X5373Y950D02*
X5550D01*
X5423Y900D02*
X5550D01*
X2350Y1484D02*
Y1521D01*
X2372Y1450D02*
X2426D01*
X2400Y1423D02*
Y1533D01*
X2334Y1500D02*
X2476D01*
X2383Y1533D02*
X2478D01*
X2600Y77D02*
Y1076D01*
X2650Y-450D02*
Y1126D01*
X2700Y-450D02*
Y1176D01*
X2750Y-450D02*
Y1226D01*
X2800Y101D02*
Y1276D01*
X2450Y1473D02*
Y1533D01*
X2773Y1250D02*
X2831D01*
X2517Y993D02*
X2831Y1308D01*
Y1219D02*
Y1308D01*
X2353Y1991D02*
Y2039D01*
X2386Y1410D02*
X2517Y1540D01*
X2350Y1992D02*
Y2036D01*
X2342Y2000D02*
X2353D01*
X2500Y1523D02*
Y1535D01*
X2550Y1743D02*
Y1752D01*
X2555Y1737D02*
Y1758D01*
X2547Y1750D02*
X2555D01*
X2840Y1988D02*
Y2065D01*
X2583Y2211D02*
Y2519D01*
X2586Y2214D02*
X2796Y2425D01*
X2900Y211D02*
Y1219D01*
X2850Y173D02*
Y1219D01*
X3000Y240D02*
Y1219D01*
X2950Y231D02*
Y1219D01*
X2723Y1200D02*
X5550D01*
X2831Y1219D02*
X3151D01*
X2623Y1100D02*
X5550D01*
X2673Y1150D02*
X5550D01*
X3035Y725D02*
Y1065D01*
X3050D02*
Y1219D01*
X3035Y1065D02*
X3375D01*
X3100D02*
Y1219D01*
X3120Y1539D02*
X3151D01*
X3128Y1550D02*
X5550D01*
X3136Y1700D02*
X5450D01*
X3148Y1600D02*
X5550D01*
X2850Y1991D02*
Y2066D01*
X2840Y2050D02*
X2859D01*
X2840Y2065D02*
X2847Y2072D01*
X2840Y2000D02*
X2878D01*
X3100Y1750D02*
Y1770D01*
X3100Y1750D02*
X5400D01*
X3148Y2172D02*
X3172Y2195D01*
X3125Y1800D02*
X5350D01*
X3142Y2195D02*
X3172D01*
X3147Y1850D02*
X5300D01*
X2300Y2284D02*
Y2425D01*
X2250Y2300D02*
Y2425D01*
X2350Y2246D02*
Y2425D01*
X2148Y2400D02*
X2353D01*
X2170Y2425D02*
X2353D01*
X2247Y2300D02*
X2353D01*
X2148Y2350D02*
X2353D01*
Y2243D02*
Y2425D01*
X2600Y2228D02*
Y2502D01*
X2583Y2250D02*
X2621D01*
X2650Y2278D02*
Y2453D01*
X2583Y2450D02*
X2654D01*
X2583Y2500D02*
X2602D01*
X2583Y2300D02*
X2671D01*
X2700Y2328D02*
Y2431D01*
X2415Y2850D02*
X2510D01*
X2428Y2900D02*
X2460D01*
X2513Y2700D02*
X2535D01*
Y2678D02*
Y2824D01*
X2583Y2519D02*
X2640Y2462D01*
X2465Y2748D02*
X2535Y2678D01*
X2500Y2713D02*
Y2860D01*
X2450Y2760D02*
Y2910D01*
X2463Y2750D02*
X2535D01*
X2430Y2930D02*
X2535Y2824D01*
X2430Y2800D02*
X2535D01*
X2583Y2350D02*
X2721D01*
X2750Y2378D02*
Y2430D01*
X2583Y2400D02*
X2771D01*
X2785Y2425D02*
X2796D01*
X2718Y2430D02*
X2751D01*
X2979Y3031D02*
X3102D01*
X3057Y2513D02*
X3239D01*
X3100D02*
Y2558D01*
X3059D02*
X3110D01*
X3060Y2550D02*
X3276D01*
X2765Y3093D02*
Y3148D01*
X2800Y3058D02*
Y3615D01*
X2808Y3050D02*
X3776D01*
X2765Y3093D02*
X2823Y3036D01*
X2750Y3202D02*
Y3615D01*
X2765Y3100D02*
X3826D01*
X2751Y3200D02*
X3926D01*
X2765Y3150D02*
X3876D01*
X3000Y3031D02*
Y3598D01*
X3100Y3031D02*
Y3694D01*
X2900Y3036D02*
Y3598D01*
X2850Y3036D02*
Y3615D01*
X2823Y3036D02*
X2945D01*
X2950Y3035D02*
Y3590D01*
X3050Y3031D02*
Y3625D01*
X3150Y1065D02*
Y1219D01*
X3200Y1065D02*
Y1926D01*
X3375Y1042D02*
Y1065D01*
X3250D02*
Y1976D01*
X3151Y1219D02*
Y1539D01*
X3150D02*
Y1615D01*
X3300Y1065D02*
Y2026D01*
X3350Y1065D02*
Y2076D01*
X3600Y1021D02*
Y2326D01*
X4388Y725D02*
Y1065D01*
X3400Y1054D02*
Y2126D01*
X3450Y1064D02*
Y2176D01*
X3500Y1060D02*
Y2226D01*
X3550Y1038D02*
Y2276D01*
X3650Y1052D02*
Y2376D01*
X3900Y800D02*
Y2626D01*
X3950Y770D02*
Y2676D01*
X4000Y698D02*
Y2726D01*
X4050Y240D02*
Y2776D01*
X3700Y1064D02*
Y2426D01*
X3750Y1060D02*
Y2476D01*
X3800Y1041D02*
Y2526D01*
X3850Y995D02*
Y2576D01*
X4100Y230D02*
Y2826D01*
X4150Y208D02*
Y2876D01*
X4200Y171D02*
Y2926D01*
X4250Y209D02*
Y2976D01*
X4300Y231D02*
Y3026D01*
X4350Y240D02*
Y3076D01*
X4400Y1065D02*
Y3126D01*
X4450Y1065D02*
Y3176D01*
X4500Y1065D02*
Y3226D01*
X4728Y1042D02*
Y1065D01*
X4388D02*
X4728D01*
X3151Y1250D02*
X5550D01*
X3151Y1300D02*
X5550D01*
X3151Y1450D02*
X5550D01*
X3151Y1500D02*
X5550D01*
X3151Y1350D02*
X5550D01*
X3151Y1400D02*
X5550D01*
X5500Y823D02*
Y1650D01*
X5450Y873D02*
Y1700D01*
X5550Y773D02*
Y1600D01*
X5550Y773D02*
Y1600D01*
X4728Y1050D02*
X4743D01*
X5350Y973D02*
Y1800D01*
X5400Y923D02*
Y1750D01*
X4750Y1053D02*
Y2400D01*
X4600Y1065D02*
Y2550D01*
X4850Y1060D02*
Y2300D01*
X4800Y1064D02*
Y2350D01*
X4650Y1065D02*
Y2500D01*
X4550Y1065D02*
Y3276D01*
X4700Y1065D02*
Y2450D01*
X4550Y2600D02*
X5550Y1600D01*
X5200Y1005D02*
Y1950D01*
X4950Y1019D02*
Y2200D01*
X5300Y1001D02*
Y1850D01*
X5250Y1005D02*
Y1900D01*
X5000Y1051D02*
Y2150D01*
X4900Y1040D02*
Y2250D01*
X5150Y1042D02*
Y2000D01*
X5050Y1064D02*
Y2100D01*
X5100Y1061D02*
Y2050D01*
X3150Y1652D02*
Y1869D01*
Y2173D02*
Y2195D01*
Y2513D02*
Y2565D01*
X3200Y2513D02*
Y2576D01*
X3170Y2575D02*
X3185D01*
X3250Y2523D02*
Y2598D01*
X3252Y2600D02*
X3326D01*
X3288Y2678D02*
Y2713D01*
X3284Y2650D02*
X3376D01*
X3288Y2700D02*
X3426D01*
X3280Y2750D02*
X3476D01*
X3262Y2800D02*
X3526D01*
X3286Y2850D02*
X3576D01*
X3288Y2900D02*
X3626D01*
X3250Y2982D02*
Y3873D01*
X3288Y2868D02*
Y2903D01*
X3276Y2950D02*
X3676D01*
X3172Y3005D02*
X3185D01*
X3150Y3020D02*
Y3773D01*
X3217Y3000D02*
X3726D01*
X3200Y3004D02*
Y3823D01*
X3300Y2573D02*
Y3923D01*
X3350Y2623D02*
Y3935D01*
X3450Y2723D02*
Y3932D01*
X3400Y2673D02*
Y3935D01*
X3550Y2823D02*
Y3930D01*
X3500Y2773D02*
Y3930D01*
X3700Y2973D02*
Y3935D01*
X3600Y2873D02*
Y3935D01*
X3650Y2923D02*
Y3935D01*
X3223Y1950D02*
X5200D01*
X3273Y2000D02*
X5150D01*
X3150Y1650D02*
X5500D01*
X3173Y1900D02*
X5250D01*
X3423Y2150D02*
X5000D01*
X3473Y2200D02*
X4950D01*
X3323Y2050D02*
X5100D01*
X3373Y2100D02*
X5050D01*
X3623Y2350D02*
X4800D01*
X3673Y2400D02*
X4750D01*
X3523Y2250D02*
X4900D01*
X3573Y2300D02*
X4850D01*
X3873Y2600D02*
X4550D01*
X3923Y2650D02*
X4550D01*
X3723Y2450D02*
X4700D01*
X3773Y2500D02*
X4650D01*
X3823Y2550D02*
X4600D01*
X3973Y2700D02*
X4550D01*
X4023Y2750D02*
X4550D01*
X3151Y1877D02*
X4550Y3277D01*
X3239Y2513D02*
X4951Y4224D01*
X3750Y3023D02*
Y3935D01*
X3800Y3073D02*
Y3940D01*
X4073Y2800D02*
X4550D01*
X3850Y3123D02*
Y3947D01*
X3900Y3173D02*
Y3989D01*
X4123Y2850D02*
X4550D01*
X4173Y2900D02*
X4550D01*
X4223Y2950D02*
X4550D01*
X4550Y2600D02*
X4550Y3277D01*
X4273Y3000D02*
X4550D01*
X4323Y3050D02*
X4550D01*
X4373Y3100D02*
X4550D01*
X4423Y3150D02*
X4550D01*
X4473Y3200D02*
X4550D01*
X-250Y3206D02*
Y3291D01*
X-450Y3300D02*
X-254D01*
X-450Y3250D02*
X-216D01*
X-450Y3350D02*
X-267D01*
X-450Y3400D02*
X-261D01*
X-450Y3450D02*
X-233D01*
X-450Y3500D02*
X-241D01*
X-38Y3250D02*
X38D01*
X-0Y3417D02*
Y3477D01*
X-21Y3450D02*
X21D01*
X-41Y3477D02*
X41D01*
X-450Y3550D02*
X-274D01*
X-450Y3600D02*
X-287D01*
X-250Y3425D02*
Y3510D01*
X-450Y3650D02*
X-282D01*
X-450Y3700D02*
X-261D01*
X-450Y3750D02*
X-208D01*
X-200Y3754D02*
Y4331D01*
X-41Y3747D02*
X41D01*
X-0D02*
Y4243D01*
X-46Y3750D02*
X46D01*
X50Y3752D02*
Y4269D01*
X-100Y3770D02*
Y4243D01*
X-150Y3770D02*
Y4269D01*
X-50Y3752D02*
Y4235D01*
X100Y3770D02*
Y4331D01*
X200Y3754D02*
Y4378D01*
X250Y3209D02*
Y3291D01*
X248Y3209D02*
X269D01*
X216Y3250D02*
X797D01*
X254Y3300D02*
X797D01*
X233Y3450D02*
X797D01*
X1027Y3250D02*
X1195D01*
X1027Y3300D02*
X1197D01*
X267Y3350D02*
X797D01*
X261Y3400D02*
X797D01*
X1027Y3350D02*
X1218D01*
X1027Y3450D02*
X1314D01*
X1027Y3400D02*
X1264D01*
X250Y3425D02*
Y3477D01*
X213D02*
X797D01*
X300Y3747D02*
Y4378D01*
X250Y3747D02*
Y4378D01*
X213Y3747D02*
X856D01*
X208Y3750D02*
X859D01*
X1200Y3311D02*
Y3615D01*
X1027Y3536D02*
X1106Y3615D01*
X1027Y3500D02*
X1364D01*
X1041Y3550D02*
X1415D01*
X350Y3747D02*
Y4386D01*
X400Y3747D02*
Y4441D01*
X1091Y3600D02*
X1540D01*
X856Y3747D02*
X955Y3845D01*
X1106Y3615D02*
X1540D01*
X-450Y4350D02*
X-207D01*
X-450Y4400D02*
X-215D01*
X-450Y4250D02*
X-119D01*
X-450Y4300D02*
X-181D01*
X-450Y4450D02*
X-207D01*
X-450Y4500D02*
X-181D01*
X115Y4400D02*
X128D01*
X150Y3770D02*
Y4386D01*
X95Y4479D02*
Y4529D01*
X81Y4500D02*
X95D01*
X-450Y4550D02*
X-119D01*
X-50Y4565D02*
Y4709D01*
X-0Y4557D02*
Y4675D01*
X-450Y4700D02*
X-41D01*
X-450Y4600D02*
X128D01*
X19Y4550D02*
X97D01*
X50Y4531D02*
Y4665D01*
X50D02*
X148D01*
X100Y4559D02*
Y4665D01*
X200Y4622D02*
Y4658D01*
X150Y4614D02*
Y4664D01*
X-450Y3800D02*
X909D01*
X-450Y3850D02*
X959D01*
X-450Y3900D02*
X1540D01*
X-450Y3950D02*
X2050D01*
X-450Y4100D02*
X2050D01*
X-450Y4200D02*
X1569D01*
X-450Y4000D02*
X2050D01*
X-450Y4050D02*
X2050D01*
X1050Y3885D02*
X1540D01*
X-450Y4150D02*
X1602D01*
X19Y4250D02*
X1560D01*
X189Y4378D02*
X311D01*
X81Y4300D02*
X1569D01*
X107Y4350D02*
X1602D01*
X372Y4400D02*
X2050D01*
X189Y4622D02*
X311D01*
X300D02*
Y4658D01*
X250Y4622D02*
Y4658D01*
X-450Y4650D02*
X2067D01*
X189Y4658D02*
X311D01*
X405Y4471D02*
Y4529D01*
X403Y4450D02*
X2050D01*
X405Y4500D02*
X2050D01*
X350Y4614D02*
Y4664D01*
X400Y4559D02*
Y4700D01*
X403Y4550D02*
X2050D01*
X372Y4600D02*
X2051D01*
X400Y4700D02*
X2109D01*
X1600Y3205D02*
Y3312D01*
X1465Y3219D02*
X1558Y3312D01*
X1496Y3250D02*
X1644D01*
X1650Y3255D02*
Y3312D01*
X1235Y3370D02*
X1407Y3543D01*
X1558Y3312D02*
X1880D01*
X1750Y3285D02*
Y3312D01*
X1700Y3282D02*
Y3312D01*
X1850Y3285D02*
Y3312D01*
X1800Y3285D02*
Y3312D01*
X1900Y3285D02*
Y3314D01*
X1950Y3285D02*
Y3332D01*
X2000Y3285D02*
Y3377D01*
X1300Y3436D02*
Y3615D01*
X1250Y3386D02*
Y3615D01*
X1400Y3536D02*
Y3615D01*
X1350Y3486D02*
Y3615D01*
X1500Y3582D02*
Y3615D01*
X1450Y3572D02*
Y3615D01*
X1502Y3583D02*
X1824D01*
X1540Y3590D02*
Y3615D01*
Y3590D02*
X1832D01*
X1824Y3583D02*
X1832Y3590D01*
X1860Y3618D01*
Y3910D01*
Y3650D02*
X1892D01*
X1860Y3750D02*
X1992D01*
X1860Y3700D02*
X1942D01*
X2050Y3285D02*
Y3427D01*
X2100Y3285D02*
Y3477D01*
X1725Y3285D02*
X2172D01*
X2205Y3318D01*
X1546Y3300D02*
X2187D01*
X2150Y3285D02*
Y3527D01*
X1973Y3350D02*
X2279D01*
X2200Y3313D02*
Y3577D01*
X2623Y3318D02*
X2691Y3250D01*
X2283Y3350D02*
X2545D01*
X2500D02*
Y3598D01*
X2550Y3350D02*
Y3590D01*
X2600Y3335D02*
Y3598D01*
X2250Y3345D02*
Y3627D01*
X1975Y3352D02*
X2280Y3657D01*
X2223Y3600D02*
X2494D01*
X2300Y3350D02*
Y3682D01*
X1860Y3618D02*
X2050Y3808D01*
X2273Y3650D02*
X2425D01*
X2400Y3350D02*
Y3695D01*
X2350Y3350D02*
Y4559D01*
X2700Y3246D02*
Y3615D01*
X2650Y3291D02*
Y3615D01*
X2450Y3350D02*
Y3625D01*
X2309Y3700D02*
X2398D01*
X2606Y3600D02*
X2894D01*
X2636Y3615D02*
X2864D01*
X1540Y3885D02*
Y3910D01*
X1600D02*
Y4152D01*
X1540Y3910D02*
X1860D01*
X1650D02*
Y4119D01*
X1700Y3910D02*
Y4110D01*
X1750Y3910D02*
Y4119D01*
X1798Y4150D02*
X2050D01*
X1800Y3910D02*
Y4152D01*
X2320Y3750D02*
X2390D01*
X1860Y3800D02*
X2042D01*
X2320D02*
X2398D01*
X2400Y3805D02*
Y4195D01*
X1860Y3850D02*
X2050D01*
X1860Y3900D02*
X2050D01*
X2320Y3850D02*
X2425D01*
X1831Y4200D02*
X2050D01*
X2320Y4150D02*
X2425D01*
X1840Y4250D02*
X2050D01*
X1831Y4300D02*
X2050D01*
X1798Y4350D02*
X2050D01*
X2320Y3753D02*
Y4529D01*
X2050Y3808D02*
Y4585D01*
X2320Y4200D02*
X2398D01*
X2320Y4250D02*
X2390D01*
X2320Y4300D02*
X2398D01*
X2320Y4350D02*
X2425D01*
X2400Y4305D02*
Y4609D01*
X2320Y3900D02*
X2494D01*
X2500Y3902D02*
Y4098D01*
X2606Y3900D02*
X2894D01*
X2600Y3902D02*
Y4098D01*
X2550Y3910D02*
Y4090D01*
X2320Y4100D02*
X2494D01*
X2606D02*
X2894D01*
X2636Y4115D02*
X2745D01*
X2700Y3885D02*
Y4115D01*
X2650Y3885D02*
Y4115D01*
X2636Y3885D02*
X2864D01*
X2750D02*
Y4115D01*
X2850Y3885D02*
Y4115D01*
X2800Y3885D02*
Y4115D01*
X2745D02*
X2864D01*
X2900Y3902D02*
Y4098D01*
X2450Y3875D02*
Y4125D01*
Y4375D02*
Y4659D01*
X2320Y4400D02*
X2494D01*
X2320Y4450D02*
X2610D01*
X2320Y4500D02*
X2610D01*
X2341Y4550D02*
X2610D01*
X2391Y4600D02*
X2612D01*
X2441Y4650D02*
X2633D01*
X2880Y4394D02*
Y4519D01*
X2610Y4398D02*
Y4575D01*
X2880Y4400D02*
X2894D01*
X2900Y4402D02*
Y4520D01*
X2500Y4402D02*
Y4709D01*
X2950Y4410D02*
Y4520D01*
X2491Y4700D02*
X2679D01*
X-450Y4850D02*
X-228D01*
X-450Y4900D02*
X-235D01*
X-450Y4750D02*
X-158D01*
X-450Y4800D02*
X-206D01*
X-450Y4950D02*
X-228D01*
X-450Y5000D02*
X-206D01*
X-450Y5050D02*
X-158D01*
X-450Y5250D02*
X-119D01*
X-150Y4531D02*
Y4744D01*
X-200Y4469D02*
Y4792D01*
X-56Y4715D02*
X-45Y4705D01*
X-100Y4557D02*
Y4722D01*
Y5078D02*
Y5243D01*
X-150Y5056D02*
Y5269D01*
X-50Y5085D02*
Y5235D01*
X-0Y5078D02*
Y5243D01*
X50Y5056D02*
Y5269D01*
X-450Y5400D02*
X-215D01*
X-250Y3714D02*
Y6144D01*
X-450Y5300D02*
X-181D01*
X-450Y5350D02*
X-207D01*
X-450Y5450D02*
X-207D01*
X-200Y5469D02*
Y5792D01*
X-450Y5500D02*
X-181D01*
X-450Y5550D02*
X-119D01*
X-200Y5008D02*
Y5331D01*
X-100Y5557D02*
Y5722D01*
X-150Y5531D02*
Y5744D01*
X50Y5531D02*
Y5665D01*
X-50Y5565D02*
Y5709D01*
X-0Y5557D02*
Y5675D01*
X100Y5008D02*
Y5331D01*
X58Y5050D02*
X2459D01*
X-450Y5100D02*
X2509D01*
X-450Y5150D02*
X2559D01*
X-450Y5200D02*
X2609D01*
X19Y5250D02*
X2659D01*
X81Y5300D02*
X2724D01*
X132Y4935D02*
X148D01*
X189Y4942D02*
X311D01*
X250D02*
Y5378D01*
X300Y4942D02*
Y5378D01*
X200Y4942D02*
Y5378D01*
X128Y4950D02*
X2359D01*
X106Y5000D02*
X2409D01*
X189Y5378D02*
X311D01*
X95Y5479D02*
Y5529D01*
X81Y5500D02*
X95D01*
X19Y5550D02*
X97D01*
X100Y5559D02*
Y5665D01*
X-450Y5600D02*
X128D01*
X115Y5400D02*
X128D01*
X150Y4936D02*
Y5386D01*
Y5614D02*
Y5664D01*
X-450Y5850D02*
X-228D01*
X-450Y5900D02*
X-235D01*
X-450Y5750D02*
X-158D01*
X-450Y5800D02*
X-206D01*
X-450Y5950D02*
X-228D01*
X-450Y6000D02*
X-206D01*
X-450Y6050D02*
X-158D01*
X-450Y6100D02*
X-171D01*
X-200Y6008D02*
Y6114D01*
X-450Y6150D02*
X-258D01*
X-150Y6056D02*
Y6092D01*
X-450Y6350D02*
X-408D01*
X-450Y6400D02*
X-423D01*
X-450Y6200D02*
X-315D01*
X-450Y6300D02*
X-386D01*
X-450Y6250D02*
X-356D01*
X-450Y6500D02*
X-435D01*
X-450Y6550D02*
X-432D01*
X-450Y6450D02*
X-432D01*
X-450Y6600D02*
X-423D01*
X-450Y6650D02*
X-408D01*
X-450Y6700D02*
X-386D01*
X-450Y6750D02*
X-356D01*
X-450Y6800D02*
X-315D01*
X-350Y6758D02*
Y6950D01*
X-400Y6671D02*
Y6950D01*
X-450Y6850D02*
X-258D01*
X-300Y6815D02*
Y6950D01*
X-200Y6886D02*
Y6950D01*
X-250Y6856D02*
Y6950D01*
X-450Y6900D02*
X-171D01*
X-150Y6908D02*
Y6950D01*
X-100Y6923D02*
Y6950D01*
X-450Y5700D02*
X-41D01*
X50Y5665D02*
X148D01*
X-56Y5715D02*
X-45Y5705D01*
X50Y6056D02*
Y6068D01*
X100Y6008D02*
Y6077D01*
X250Y5622D02*
Y5658D01*
X200Y5622D02*
Y5658D01*
X189Y5622D02*
X311D01*
X300D02*
Y5658D01*
X132Y5935D02*
X148D01*
X189Y5658D02*
X311D01*
X189Y5942D02*
X311D01*
X150Y5936D02*
Y6092D01*
X171Y6100D02*
X1879D01*
X-0Y6935D02*
Y6950D01*
X-50Y6932D02*
Y6950D01*
X150Y6908D02*
Y6950D01*
X50Y6932D02*
Y6950D01*
X100Y6923D02*
Y6950D01*
X200Y5942D02*
Y6114D01*
X250Y5942D02*
Y6144D01*
X258Y6150D02*
X1792D01*
X300Y5942D02*
Y6185D01*
X250Y6856D02*
Y6950D01*
X200Y6886D02*
Y6950D01*
X258Y6850D02*
X1792D01*
X171Y6900D02*
X1879D01*
X300Y6815D02*
Y6950D01*
X450Y3747D02*
Y6950D01*
X650Y3747D02*
Y6950D01*
X500Y3747D02*
Y6950D01*
X350Y4936D02*
Y5386D01*
X400Y4900D02*
Y5441D01*
X425Y4771D02*
Y4829D01*
X750Y3747D02*
Y6950D01*
X700Y3747D02*
Y6950D01*
X850Y3747D02*
Y6950D01*
X800Y3747D02*
Y6950D01*
X1700Y4390D02*
Y6242D01*
X1650Y4381D02*
Y6329D01*
X1850Y3910D02*
Y6114D01*
X1750Y4381D02*
Y6185D01*
X1800Y4348D02*
Y6144D01*
X600Y3747D02*
Y6950D01*
X550Y3747D02*
Y6950D01*
X950Y3841D02*
Y6950D01*
X900Y3791D02*
Y6950D01*
X1050Y3885D02*
Y6950D01*
X1000Y3875D02*
Y6950D01*
X1150Y3885D02*
Y6950D01*
X1100Y3885D02*
Y6950D01*
X1250Y3885D02*
Y6950D01*
X1200Y3885D02*
Y6950D01*
X1350Y3885D02*
Y6950D01*
X1300Y3885D02*
Y6950D01*
X1450Y3885D02*
Y6950D01*
X1400Y3885D02*
Y6950D01*
X1600Y4348D02*
Y6950D01*
X1500Y3885D02*
Y6950D01*
X1550Y3910D02*
Y6950D01*
X423Y4750D02*
X2159D01*
X2550Y4410D02*
Y4759D01*
X2541Y4750D02*
X2690D01*
X2320Y4529D02*
X2690Y4899D01*
X425Y4800D02*
X2209D01*
X423Y4850D02*
X2259D01*
X2591Y4800D02*
X2690D01*
X400Y4900D02*
X2309D01*
X2600Y4402D02*
Y4809D01*
X2650Y4671D02*
Y4859D01*
X2650Y4670D02*
X2690Y4711D01*
Y4899D01*
X2641Y4850D02*
X2690D01*
Y4899D02*
X2731Y4940D01*
X2750D02*
Y4959D01*
X2800Y4940D02*
Y5009D01*
X2950Y4940D02*
Y5040D01*
X1950Y3708D02*
Y6077D01*
X1900Y3658D02*
Y6092D01*
X2050Y3808D02*
Y6065D01*
X2000Y3758D02*
Y6068D01*
X2100Y4691D02*
Y6068D01*
X2150Y4741D02*
Y6077D01*
X2090Y4680D02*
X2680Y5270D01*
X2200Y4791D02*
Y6092D01*
X2250Y4841D02*
Y6114D01*
X2300Y4891D02*
Y6144D01*
X2900Y4940D02*
Y5040D01*
X2850Y4940D02*
Y5040D01*
X2350Y4941D02*
Y6185D01*
X2400Y4991D02*
Y6242D01*
X2731Y4940D02*
X2831Y5040D01*
X2450Y5041D02*
Y6329D01*
X2500Y5091D02*
Y6950D01*
X350Y5614D02*
Y5664D01*
Y5936D02*
Y6242D01*
X315Y6200D02*
X1735D01*
X356Y6250D02*
X1694D01*
X400Y5559D02*
Y5700D01*
Y5900D02*
Y6329D01*
X405Y5471D02*
Y5529D01*
X425Y5771D02*
Y5829D01*
X432Y6450D02*
X1618D01*
X435Y6500D02*
X1615D01*
X386Y6300D02*
X1664D01*
X408Y6350D02*
X1642D01*
X423Y6400D02*
X1627D01*
X432Y6550D02*
X1618D01*
X400Y6671D02*
Y6950D01*
X423Y6600D02*
X1627D01*
X408Y6650D02*
X1642D01*
X386Y6700D02*
X1664D01*
X350Y6758D02*
Y6950D01*
X356Y6750D02*
X1694D01*
X315Y6800D02*
X1735D01*
X1700Y6758D02*
Y6950D01*
X1650Y6671D02*
Y6950D01*
X1800Y6856D02*
Y6950D01*
X1750Y6815D02*
Y6950D01*
X1900Y6908D02*
Y6950D01*
X1850Y6886D02*
Y6950D01*
X2050Y6935D02*
Y6950D01*
X1950Y6923D02*
Y6950D01*
X2000Y6932D02*
Y6950D01*
X2308Y6150D02*
X2742D01*
X2365Y6200D02*
X2715D01*
X2221Y6100D02*
X2796D01*
X2406Y6250D02*
X2705D01*
X2436Y6300D02*
X2709D01*
X2458Y6350D02*
X2727D01*
X2473Y6400D02*
X2764D01*
X2750Y5308D02*
Y6139D01*
X2850Y5310D02*
Y6077D01*
X2800Y5310D02*
Y6098D01*
X2900Y5310D02*
Y6072D01*
X2950Y5310D02*
Y6080D01*
X2400Y6758D02*
Y6950D01*
X2350Y6815D02*
Y6950D01*
X2450Y6671D02*
Y6950D01*
X2150Y6923D02*
Y6950D01*
X2100Y6932D02*
Y6950D01*
X2300Y6856D02*
Y6950D01*
X2200Y6908D02*
Y6950D01*
X2250Y6886D02*
Y6950D01*
X2600Y5191D02*
Y6950D01*
X2550Y5141D02*
Y6950D01*
X2700Y5287D02*
Y6950D01*
X2650Y5241D02*
Y6950D01*
X2800Y6427D02*
Y6950D01*
X2750Y6385D02*
Y6950D01*
X2482Y6450D02*
X2867D01*
X2850Y6447D02*
Y6950D01*
X2900Y6452D02*
Y6950D01*
X2320Y3950D02*
X2973D01*
X2950Y3927D02*
Y4090D01*
X3109Y3732D02*
X3312Y3935D01*
X2320Y4000D02*
X3023D01*
X3000Y3977D02*
Y4098D01*
X2320Y4050D02*
X3073D01*
X3006Y4100D02*
X3123D01*
X3312Y3935D02*
X3440D01*
X3473Y3930D02*
X3558D01*
X3590Y3935D02*
X3765D01*
X3800Y3940D02*
X3813D01*
X3915Y4042D02*
Y4077D01*
X3050Y4027D02*
Y4125D01*
X3100Y4077D02*
Y4194D01*
X2932Y3909D02*
X3172Y4148D01*
X3075Y4150D02*
X3173D01*
X3150Y4127D02*
Y5040D01*
X3102Y4200D02*
X3369D01*
X3200Y4170D02*
Y5040D01*
X3950Y3223D02*
Y4163D01*
X3300Y4185D02*
Y5040D01*
X3250Y4185D02*
Y5040D01*
X3260Y4185D02*
X3374D01*
X3350D02*
Y5040D01*
X2691Y3250D02*
X3976D01*
X2641Y3300D02*
X4026D01*
X2549Y3350D02*
X4076D01*
X2023Y3400D02*
X4126D01*
X2073Y3450D02*
X4176D01*
X2123Y3500D02*
X4226D01*
X2173Y3550D02*
X4276D01*
X3006Y3600D02*
X4326D01*
X3075Y3650D02*
X4376D01*
X3102Y3700D02*
X4426D01*
X3127Y3750D02*
X4476D01*
X3177Y3800D02*
X4526D01*
X3227Y3850D02*
X4576D01*
X3277Y3900D02*
X4626D01*
X3857Y3950D02*
X4676D01*
X3906Y4000D02*
X4726D01*
X3915Y4050D02*
X4776D01*
X4000Y3273D02*
Y4212D01*
X3913Y4100D02*
X4826D01*
X4050Y3323D02*
Y4262D01*
X3956Y4169D02*
X4081Y4294D01*
X3932Y4150D02*
X4876D01*
X3988Y4200D02*
X4926D01*
X4100Y3373D02*
Y4318D01*
X4150Y3423D02*
Y4469D01*
X4250Y3523D02*
Y5040D01*
X4200Y3473D02*
Y5040D01*
X4350Y3623D02*
Y5040D01*
X4300Y3573D02*
Y5040D01*
X4500Y3773D02*
Y5040D01*
X4400Y3673D02*
Y5040D01*
X4450Y3723D02*
Y5040D01*
X3110Y4250D02*
X3365D01*
X3102Y4300D02*
X3369D01*
X3075Y4350D02*
X3398D01*
X3050Y4375D02*
Y4520D01*
X3000Y4402D02*
Y4520D01*
X2880Y4500D02*
X3842D01*
X2881Y4520D02*
X3110D01*
X3365Y4227D02*
Y4272D01*
X3612Y4365D02*
X3686D01*
X3473Y4380D02*
X3558D01*
X3718Y4370D02*
X3813D01*
X3850Y4388D02*
Y4470D01*
X3100Y4306D02*
Y4520D01*
X3110D02*
Y4940D01*
Y4550D02*
X3842D01*
X3400Y4352D02*
Y5040D01*
X3050Y4940D02*
Y5040D01*
X3000Y4940D02*
Y5040D01*
X2731Y4940D02*
X3110D01*
X3100D02*
Y5040D01*
X3700Y4368D02*
Y5040D01*
X3650Y4365D02*
Y5040D01*
X3800Y4370D02*
Y5040D01*
X3750Y4370D02*
Y5040D01*
X3500Y4380D02*
Y5040D01*
X3450Y4378D02*
Y5040D01*
X3850Y4580D02*
Y5040D01*
X3550Y4380D02*
Y5040D01*
X3600Y4371D02*
Y5040D01*
X3831Y4368D02*
X3881Y4418D01*
X4038Y4250D02*
X4993D01*
X2880Y4450D02*
X3859D01*
X3110Y4600D02*
X3859D01*
X3006Y4400D02*
X3862D01*
X3110Y4650D02*
X3900D01*
X4115Y4400D02*
X7769D01*
X4115Y4375D02*
Y4414D01*
X4087Y4300D02*
X9376D01*
X4112Y4350D02*
X9426D01*
X4141Y4600D02*
X5497D01*
X4141Y4450D02*
X5638D01*
X4158Y4500D02*
X5597D01*
X4158Y4550D02*
X5547D01*
X3110Y4850D02*
X5416D01*
X3110Y4900D02*
X5416D01*
X3110Y4700D02*
X5416D01*
X3110Y4800D02*
X5416D01*
X2775Y5310D02*
X4969D01*
X107Y5350D02*
X5009D01*
X2741Y4950D02*
X5416D01*
X2791Y5000D02*
X5416D01*
X2831Y5040D02*
X5025D01*
X4150Y4581D02*
Y5040D01*
X3900Y4650D02*
Y5040D01*
X4100Y4650D02*
X5456D01*
X4000Y4685D02*
Y5040D01*
X3950Y4677D02*
Y5040D01*
X3110Y4750D02*
X5416D01*
X4050Y4677D02*
Y5040D01*
X4100Y4650D02*
Y5040D01*
X4523Y3250D02*
X4550D01*
X4950Y4223D02*
Y5040D01*
X5450Y4255D02*
Y4664D01*
X5481Y4617D02*
X5599Y4499D01*
X5600Y4255D02*
Y4497D01*
X5550Y4255D02*
Y4547D01*
X5750Y4255D02*
Y4422D01*
X5650Y4255D02*
Y4441D01*
X5500Y4255D02*
Y4597D01*
X5710Y4422D02*
X5755D01*
X5700Y4255D02*
Y4423D01*
X4600Y3873D02*
Y5040D01*
X4550Y3823D02*
Y5040D01*
X4700Y3973D02*
Y5040D01*
X4650Y3923D02*
Y5040D01*
X4800Y4073D02*
Y5040D01*
X4750Y4023D02*
Y5040D01*
X4900Y4173D02*
Y5040D01*
X4850Y4123D02*
Y5040D01*
X5000Y4252D02*
Y5040D01*
X5050Y4255D02*
Y5042D01*
X5100Y4255D02*
Y5063D01*
X5150Y4255D02*
Y5109D01*
X5200Y4255D02*
Y5159D01*
X5250Y4255D02*
Y5209D01*
X5300Y4255D02*
Y5259D01*
X5350Y4255D02*
Y5309D01*
X5400Y4255D02*
Y5359D01*
X5800Y4255D02*
Y4432D01*
X5850Y4255D02*
Y4458D01*
X5025Y4255D02*
X9332D01*
X5900D02*
Y4442D01*
X5827Y4450D02*
X5865D01*
X5900Y4442D02*
X5945D01*
X5950Y4255D02*
Y4443D01*
X6000Y4255D02*
Y4462D01*
X5980Y4450D02*
X7700D01*
X6027Y4500D02*
X7673D01*
X6033Y4600D02*
X7673D01*
X6033Y4550D02*
X7665D01*
X6033Y4530D02*
Y4615D01*
X6050Y4255D02*
Y4715D01*
X6100Y4255D02*
Y4712D01*
X6150Y4255D02*
Y4727D01*
X6025Y4650D02*
X7700D01*
X6500Y4255D02*
Y4960D01*
X6450Y4255D02*
Y4960D01*
X6600Y4255D02*
Y4960D01*
X6550Y4255D02*
Y4960D01*
X6200Y4255D02*
Y4772D01*
X6250Y4255D02*
Y4960D01*
X6400Y4255D02*
Y4960D01*
X6300Y4255D02*
Y4960D01*
X6350Y4255D02*
Y4960D01*
X5416Y4700D02*
X5442D01*
X5416Y4691D02*
Y5011D01*
Y4691D02*
X5443D01*
X5416Y5011D02*
X5441D01*
X5076Y5050D02*
X5450D01*
X5736Y4743D02*
X5757Y4722D01*
X5850Y4687D02*
Y4960D01*
X5800Y4713D02*
Y4960D01*
X5750Y4729D02*
Y4960D01*
X5736Y4743D02*
Y4960D01*
X5450Y5049D02*
Y5365D01*
X5120Y5080D02*
X5406Y5365D01*
X5481Y5096D02*
X5575Y5190D01*
X5141Y5100D02*
X5484D01*
X5500Y5116D02*
Y5365D01*
X5191Y5150D02*
X5534D01*
X5241Y5200D02*
X5585D01*
X5600Y5210D02*
Y5365D01*
X5550Y5166D02*
Y5365D01*
X5700Y5230D02*
Y5365D01*
X5650Y5228D02*
Y5365D01*
X5850Y5230D02*
Y5365D01*
X5750Y5230D02*
Y5365D01*
X5800Y5230D02*
Y5365D01*
X5821Y4700D02*
X5879D01*
X5900Y4703D02*
X5945D01*
X5950Y4702D02*
Y4811D01*
X5736Y4850D02*
X5944D01*
X5736Y4900D02*
X5953D01*
X5736Y4750D02*
X5987D01*
X5736Y4800D02*
X5954D01*
X6000Y4683D02*
Y4739D01*
X5966Y4700D02*
X6793D01*
X6181Y4750D02*
X6722D01*
X6214Y4800D02*
X6694D01*
X6215Y4900D02*
X6694D01*
X6224Y4850D02*
X6686D01*
X5736Y4950D02*
X5985D01*
X5900Y4703D02*
Y4960D01*
X5736D02*
X5996D01*
X5670Y5230D02*
X7539D01*
X5900D02*
Y5365D01*
X5291Y5250D02*
X7559D01*
X5341Y5300D02*
X7609D01*
X5391Y5350D02*
X7659D01*
X6200Y4930D02*
Y4960D01*
X5950Y4891D02*
Y4960D01*
X6183Y4950D02*
X6720D01*
X6000Y5230D02*
Y5365D01*
X5950Y5230D02*
Y5365D01*
X6172Y4960D02*
X6729D01*
X6450Y5230D02*
Y5365D01*
X6500Y5230D02*
Y5365D01*
X3500Y5310D02*
Y5816D01*
X3450Y5310D02*
Y5866D01*
X423Y5750D02*
X3615D01*
X423Y5850D02*
X3466D01*
X400Y5900D02*
X3416D01*
X425Y5800D02*
X3516D01*
X3422Y5894D02*
X3514Y5802D01*
X3800Y5310D02*
Y5747D01*
X3750Y5310D02*
Y5747D01*
X3900Y5310D02*
Y5747D01*
X3850Y5310D02*
Y5747D01*
X3600Y5310D02*
Y5753D01*
X3550Y5310D02*
Y5774D01*
X3700Y5310D02*
Y5747D01*
X3650Y5310D02*
Y5747D01*
X3000Y5310D02*
Y6104D01*
X3050Y5310D02*
Y6152D01*
X128Y5950D02*
X3383D01*
X3100Y5310D02*
Y6950D01*
X58Y6050D02*
X3367D01*
X106Y6000D02*
X3369D01*
X2994Y6100D02*
X3367D01*
X3200Y5310D02*
Y6950D01*
X3150Y5310D02*
Y6950D01*
X3300Y5310D02*
Y6950D01*
X3250Y5310D02*
Y6950D01*
X3367Y6025D02*
Y6217D01*
X3350Y5310D02*
Y6950D01*
X3400Y5310D02*
Y5920D01*
X372Y5400D02*
X5059D01*
X3950Y5310D02*
Y5747D01*
X403Y5450D02*
X5109D01*
X405Y5500D02*
X5159D01*
X403Y5550D02*
X5209D01*
X372Y5600D02*
X5259D01*
X-450Y5650D02*
X7059D01*
X400Y5700D02*
X7109D01*
X4300Y5310D02*
Y5747D01*
X4250Y5310D02*
Y5747D01*
X4500Y5310D02*
Y5747D01*
X4350Y5310D02*
Y5747D01*
X4050Y5310D02*
Y5747D01*
X4000Y5310D02*
Y5747D01*
X4200Y5310D02*
Y5747D01*
X4100Y5310D02*
Y5747D01*
X4150Y5310D02*
Y5747D01*
X4000Y6117D02*
Y6192D01*
X3645Y5747D02*
X5642D01*
X4050Y6117D02*
Y6950D01*
X4150Y6117D02*
Y6950D01*
X4100Y6117D02*
Y6950D01*
X4250Y6117D02*
Y6950D01*
X4200Y6117D02*
Y6950D01*
X4450Y5310D02*
Y5747D01*
X4400Y5310D02*
Y5747D01*
X4550Y5310D02*
Y5747D01*
X4600Y6117D02*
Y6144D01*
X4350Y6117D02*
Y6950D01*
X4300Y6117D02*
Y6950D01*
X4550Y6117D02*
Y6185D01*
X4450Y6117D02*
Y6329D01*
X4500Y6117D02*
Y6242D01*
X3048Y6150D02*
X3367D01*
X3075Y6200D02*
X3367D01*
X3085Y6250D02*
X3370D01*
X3081Y6300D02*
X3387D01*
X3063Y6350D02*
X3408D01*
Y6362D02*
X3438D01*
X3738Y6117D02*
Y6217D01*
Y6150D02*
X3772D01*
X3738Y6200D02*
X3754D01*
X3408Y6350D02*
X3423D01*
X3735Y6250D02*
X3757D01*
X3682Y6350D02*
X3697D01*
X3718Y6300D02*
X3784D01*
X3408Y6332D02*
Y6362D01*
X3400Y6322D02*
Y6950D01*
X3450Y6371D02*
Y6950D01*
X3000Y6420D02*
Y6950D01*
X2950Y6444D02*
Y6950D01*
X3026Y6400D02*
X3522D01*
X3050Y6372D02*
Y6950D01*
X3697Y6332D02*
Y6362D01*
X3750Y6117D02*
Y6950D01*
X3700Y6329D02*
Y6950D01*
X3550Y6402D02*
Y6950D01*
X3500Y6395D02*
Y6950D01*
X3667Y6362D02*
X3697D01*
X3600Y6396D02*
Y6950D01*
X3650Y6375D02*
Y6950D01*
X3738Y6117D02*
X3803D01*
X2923Y6450D02*
X4418D01*
X3697Y6350D02*
X4442D01*
X3583Y6400D02*
X4427D01*
X2485Y6500D02*
X4415D01*
X2482Y6550D02*
X4418D01*
X2473Y6600D02*
X4427D01*
X2458Y6650D02*
X4442D01*
X4001Y6200D02*
X4535D01*
X3952Y6117D02*
X4643D01*
X3983Y6150D02*
X4592D01*
X3971Y6300D02*
X4464D01*
X3998Y6250D02*
X4494D01*
X3850Y6339D02*
Y6950D01*
X3800Y6316D02*
Y6950D01*
X2436Y6700D02*
X4464D01*
X2406Y6750D02*
X4494D01*
X2365Y6800D02*
X4535D01*
X2308Y6850D02*
X4592D01*
X2221Y6900D02*
X4679D01*
X-450Y6950D02*
X17950D01*
X-450Y6950D02*
X17950D01*
X4000Y6243D02*
Y6950D01*
X3950Y6319D02*
Y6950D01*
X4400Y6117D02*
Y6950D01*
X4450Y6671D02*
Y6950D01*
X3900Y6340D02*
Y6950D01*
X4600Y6856D02*
Y6950D01*
X4500Y6758D02*
Y6950D01*
X4550Y6815D02*
Y6950D01*
X4900Y5310D02*
Y5747D01*
X4850Y5310D02*
Y5747D01*
X4969Y5310D02*
X5255Y5595D01*
X4950Y5310D02*
Y5747D01*
X4650Y5310D02*
Y5747D01*
X4600Y5310D02*
Y5747D01*
X4750Y5310D02*
Y5747D01*
X4700Y5310D02*
Y5747D01*
X5050Y5391D02*
Y5747D01*
X5000Y5341D02*
Y5747D01*
X5150Y5491D02*
Y5747D01*
X5100Y5441D02*
Y5747D01*
X5250Y5591D02*
Y5747D01*
X5200Y5541D02*
Y5747D01*
X5300Y5625D02*
Y5747D01*
X5350Y5635D02*
Y5747D01*
X4800Y5310D02*
Y5747D01*
X5450Y5635D02*
Y5747D01*
X5400Y5635D02*
Y5747D01*
X5550Y5635D02*
Y5747D01*
X5500Y5635D02*
Y5747D01*
X5600Y5635D02*
Y5747D01*
X5550Y6117D02*
Y6950D01*
X5800Y5635D02*
Y5828D01*
X5850Y5635D02*
Y5878D01*
X5900Y5635D02*
Y5928D01*
X5950Y5635D02*
Y5978D01*
X5650Y5635D02*
Y5748D01*
X5700Y5635D02*
Y5757D01*
X5750Y5635D02*
Y5782D01*
X6050Y5230D02*
Y5365D01*
X5350Y5635D02*
X7044D01*
X5406Y5365D02*
X7100D01*
X5672Y5750D02*
X7159D01*
X5772Y5800D02*
X7209D01*
X5822Y5850D02*
X7259D01*
X5872Y5900D02*
X7309D01*
X5922Y5950D02*
X7359D01*
X6400Y5230D02*
Y5365D01*
X6350Y5230D02*
Y5365D01*
X6600Y5230D02*
Y5365D01*
X6550Y5230D02*
Y5365D01*
X6150Y5230D02*
Y5365D01*
X6100Y5230D02*
Y5365D01*
X6300Y5230D02*
Y5365D01*
X6200Y5230D02*
Y5365D01*
X6250Y5230D02*
Y5365D01*
X6000Y5635D02*
Y6028D01*
X6050Y5635D02*
Y6046D01*
X6200Y5635D02*
Y6046D01*
X6100Y5635D02*
Y6046D01*
X6150Y5635D02*
Y6046D01*
X5773Y5802D02*
X6018Y6046D01*
X5972Y6000D02*
X7409D01*
X6018Y6046D02*
X6613D01*
X6300Y5635D02*
Y6046D01*
X6250Y5635D02*
Y6046D01*
X6400Y5635D02*
Y6046D01*
X6350Y5635D02*
Y6046D01*
X6500Y5635D02*
Y6046D01*
X6450Y5635D02*
Y6046D01*
X6550Y5635D02*
Y6046D01*
X6600Y5635D02*
Y6046D01*
X5100Y6117D02*
Y6144D01*
Y6856D02*
Y6950D01*
X5057Y6117D02*
X5566D01*
X4950Y6923D02*
Y6950D01*
X4900Y6932D02*
Y6950D01*
X5050Y6886D02*
Y6950D01*
X5000Y6908D02*
Y6950D01*
X5150Y6117D02*
Y6185D01*
X5200Y6117D02*
Y6242D01*
X5108Y6150D02*
X5598D01*
X5250Y6117D02*
Y6329D01*
X5165Y6200D02*
X5648D01*
X5206Y6250D02*
X5698D01*
X5236Y6300D02*
X5748D01*
X5258Y6350D02*
X5798D01*
X5800Y6352D02*
Y6950D01*
X5150Y6815D02*
Y6950D01*
X4650Y6886D02*
Y6950D01*
X5250Y6671D02*
Y6950D01*
X5200Y6758D02*
Y6950D01*
X4750Y6923D02*
Y6950D01*
X4700Y6908D02*
Y6950D01*
X4850Y6935D02*
Y6950D01*
X4800Y6932D02*
Y6950D01*
X5350Y6117D02*
Y6950D01*
X5300Y6117D02*
Y6950D01*
X5450Y6117D02*
Y6950D01*
X5400Y6117D02*
Y6950D01*
X5600Y6152D02*
Y6950D01*
X5500Y6117D02*
Y6950D01*
X5750Y6302D02*
Y6950D01*
X5650Y6202D02*
Y6950D01*
X5700Y6252D02*
Y6950D01*
X5273Y6400D02*
X5866D01*
X5258Y6650D02*
X6522D01*
X5282Y6450D02*
X10859D01*
X5273Y6600D02*
X6555D01*
X5236Y6700D02*
X6506D01*
X5206Y6750D02*
X6503D01*
X5165Y6800D02*
X6512D01*
X5108Y6850D02*
X6534D01*
X5566Y6117D02*
X5810Y6362D01*
X6600Y6416D02*
Y6562D01*
X6550Y6416D02*
Y6606D01*
X5941Y6416D02*
X6613D01*
X5282Y6550D02*
X6621D01*
X5285Y6500D02*
X10927D01*
X5900Y6411D02*
Y6950D01*
X5850Y6392D02*
Y6950D01*
X6000Y6416D02*
Y6950D01*
X5950Y6416D02*
Y6950D01*
X6100Y6416D02*
Y6950D01*
X6050Y6416D02*
Y6950D01*
X5021Y6900D02*
X6578D01*
X6150Y6416D02*
Y6950D01*
X6200Y6416D02*
Y6950D01*
X6300Y6416D02*
Y6950D01*
X6250Y6416D02*
Y6950D01*
X6400Y6416D02*
Y6950D01*
X6350Y6416D02*
Y6950D01*
X6500Y6416D02*
Y6950D01*
X6450Y6416D02*
Y6950D01*
X6550Y6872D02*
Y6950D01*
X6600Y6916D02*
Y6950D01*
X7500Y641D02*
Y735D01*
X7550Y641D02*
Y764D01*
X7450Y703D02*
Y725D01*
X7600Y641D02*
Y835D01*
X7650Y641D02*
Y1053D01*
X7582Y800D02*
X8040D01*
X7700Y641D02*
Y1173D01*
X7600Y954D02*
Y1001D01*
X7650Y1157D02*
Y1172D01*
X7655Y1083D02*
Y1128D01*
X7204Y1410D02*
X7246D01*
X7404D02*
X7428D01*
X7250Y1411D02*
Y2287D01*
X7750Y641D02*
Y1197D01*
X7800Y641D02*
Y1614D01*
X8000Y641D02*
Y1565D01*
X7850Y641D02*
Y1592D01*
X7750Y1393D02*
Y1644D01*
X7900Y641D02*
Y1577D01*
X7950Y641D02*
Y1568D01*
X7451Y700D02*
X8040D01*
X7530Y750D02*
X8040D01*
X7464Y641D02*
X8040D01*
X7463Y650D02*
X8040D01*
X7605Y850D02*
X8103D01*
X7610Y900D02*
X8151D01*
X7601Y950D02*
X8176D01*
X7596Y1000D02*
X8174D01*
X8040Y811D02*
X8082D01*
X8040Y641D02*
Y811D01*
X8150Y899D02*
Y1021D01*
X7649Y1050D02*
X8132D01*
X8114Y863D02*
X8168Y917D01*
X7655Y1100D02*
X8125D01*
X8050Y811D02*
Y1568D01*
X7652Y1150D02*
X8129D01*
X7754Y1200D02*
X8160D01*
X7789Y1250D02*
X8129D01*
X7797Y1300D02*
X8125D01*
X7785Y1350D02*
X8132D01*
X7740Y1400D02*
X8174D01*
X8125Y1088D02*
Y1123D01*
X8100Y846D02*
Y1577D01*
X8150Y1189D02*
Y1211D01*
X8125Y1278D02*
Y1313D01*
X8150Y1379D02*
Y1592D01*
X8200Y1411D02*
Y1614D01*
X7060Y1413D02*
X7060Y2216D01*
X7060Y1800D02*
X7614D01*
X7060Y1850D02*
X7592D01*
X7060Y1950D02*
X7568D01*
X7060Y2000D02*
X7565D01*
X7060Y1900D02*
X7577D01*
X7060Y2200D02*
X7614D01*
X7278Y1415D02*
X7373D01*
X7078D02*
X7173D01*
X7483Y1425D02*
X7568D01*
X7600Y1420D02*
Y1829D01*
X7072Y2223D02*
X7138D01*
X7060Y2050D02*
X7568D01*
X7060Y2150D02*
X7592D01*
X7060Y2100D02*
X7577D01*
X7100Y1415D02*
Y2223D01*
X7150Y1415D02*
Y2223D01*
X7200Y1411D02*
Y2241D01*
X7219Y2256D02*
X7281Y2319D01*
X7300Y1415D02*
Y2343D01*
X7350Y1415D02*
Y2550D01*
X7400Y1411D02*
Y2600D01*
X7450Y1420D02*
Y2650D01*
X7315Y2400D02*
Y2515D01*
X7500Y1425D02*
Y2700D01*
X7550Y1425D02*
Y2750D01*
X7315Y2515D02*
X7621Y2821D01*
X7600Y2171D02*
Y2800D01*
X7060Y1450D02*
X9273D01*
X7060Y1600D02*
X7829D01*
X7060Y1500D02*
X9323D01*
X7060Y1550D02*
X9373D01*
X7060Y1750D02*
X7644D01*
X7212Y2250D02*
X7644D01*
X7060Y1650D02*
X7742D01*
X7060Y1700D02*
X7685D01*
X8250Y1415D02*
Y1644D01*
X7700Y1417D02*
Y1685D01*
X8228Y1415D02*
X8323D01*
X8300D02*
Y1685D01*
X7650Y1418D02*
Y1742D01*
X7263Y2300D02*
X7685D01*
X8171Y1600D02*
X9423D01*
X8258Y1650D02*
X9473D01*
X8315Y1700D02*
X9523D01*
X7304Y2350D02*
X7742D01*
X7315Y2400D02*
X7829D01*
X7315Y2450D02*
X10285D01*
X7315Y2500D02*
X10266D01*
X7350Y2550D02*
X10264D01*
X7400Y2600D02*
X10279D01*
X7450Y2650D02*
X10316D01*
X7700Y2315D02*
Y2789D01*
X7650Y2258D02*
Y2804D01*
X8258Y2350D02*
X10300D01*
X7750Y2356D02*
Y2791D01*
X7600Y2800D02*
X7658D01*
X7800Y2386D02*
Y2810D01*
X8171Y2400D02*
X10307D01*
X7845Y2850D02*
X8381D01*
X7850Y2408D02*
Y2856D01*
X8750Y954D02*
Y1001D01*
X8751Y950D02*
X8773D01*
X8354Y1410D02*
X8396D01*
X8746Y1000D02*
X8823D01*
X8800Y977D02*
Y1053D01*
X8850Y1027D02*
Y1173D01*
X8799Y1050D02*
X8873D01*
X8900Y1077D02*
Y1191D01*
X8805Y1083D02*
Y1128D01*
X8800Y1157D02*
Y1178D01*
X8805Y1100D02*
X8923D01*
X8950Y1127D02*
Y1248D01*
X8350Y1411D02*
Y1742D01*
X8400Y1411D02*
Y1829D01*
X8450Y1415D02*
Y2811D01*
X8400Y2171D02*
Y2834D01*
X8428Y1415D02*
X8523D01*
X8500D02*
Y2809D01*
X8554Y1410D02*
X8578D01*
X8550Y1411D02*
Y2826D01*
X8600Y1420D02*
Y2874D01*
X8772Y1410D02*
X8781D01*
X8633Y1425D02*
X8718D01*
X8356Y1750D02*
X9573D01*
X8386Y1800D02*
X9623D01*
X8408Y1850D02*
X9673D01*
X8423Y1900D02*
X9723D01*
X8432Y1950D02*
X9773D01*
X8435Y2000D02*
X9823D01*
X8432Y2050D02*
X9873D01*
X8423Y2100D02*
X9923D01*
X8802Y1150D02*
X8973D01*
X8913Y1200D02*
X9023D01*
X8951Y1250D02*
X9073D01*
X8756Y933D02*
X9923Y2100D01*
X8960Y1300D02*
X9123D01*
X8948Y1350D02*
X9173D01*
X8907Y1400D02*
X9223D01*
X9923Y2100D02*
X10250Y2100D01*
X10307D01*
X9050Y1227D02*
Y2864D01*
X9000Y1177D02*
Y2894D01*
X9150Y1327D02*
Y2827D01*
X9100Y1277D02*
Y2842D01*
X9250Y1427D02*
Y2815D01*
X9200Y1377D02*
Y2818D01*
X8408Y2150D02*
X10300D01*
X8386Y2200D02*
X10304D01*
X9300Y1477D02*
Y2818D01*
X9350Y1527D02*
Y2827D01*
X9400Y1577D02*
Y2842D01*
X9450Y1627D02*
Y2864D01*
X10300Y2100D02*
Y2429D01*
X9500Y1677D02*
Y2894D01*
X10300Y2138D02*
Y2173D01*
X8356Y2250D02*
X10335D01*
X10596Y2300D02*
X10904D01*
X8315D02*
X10304D01*
X10300Y2327D02*
Y2362D01*
X10593Y2400D02*
X10628D01*
X10600Y2265D02*
Y2323D01*
X10650Y2265D02*
Y2394D01*
X10700Y2265D02*
Y2393D01*
X10750Y2265D02*
Y2411D01*
X10900Y2327D02*
Y2362D01*
X10600Y2327D02*
Y2362D01*
Y2350D02*
X10900D01*
X10726Y2400D02*
X10907D01*
X10600Y2367D02*
Y2414D01*
X10530Y2650D02*
X10603D01*
X8581Y2850D02*
X9079D01*
X10800Y2265D02*
Y2464D01*
X10900Y2265D02*
Y2429D01*
X10791Y2450D02*
X10885D01*
X10816Y2550D02*
X10864D01*
X10814Y2500D02*
X10866D01*
X10751Y2650D02*
X10916D01*
X10799Y2600D02*
X10879D01*
X10579Y2265D02*
X10921D01*
X11179D02*
X11521D01*
X11200D02*
Y2323D01*
X11193Y2400D02*
X11228D01*
X11196Y2300D02*
X11504D01*
X11200Y2350D02*
X11500D01*
X11300Y2265D02*
Y2393D01*
X11250Y2265D02*
Y2394D01*
X11350Y2265D02*
Y2411D01*
X11500Y2327D02*
Y2362D01*
X11200Y2327D02*
Y2362D01*
X11800Y2265D02*
Y2323D01*
X11326Y2400D02*
X11507D01*
X11200Y2367D02*
Y2414D01*
X11130Y2650D02*
X11203D01*
X11500Y2265D02*
Y2429D01*
X11400Y2265D02*
Y2464D01*
X11800Y2367D02*
Y2414D01*
X11414Y2500D02*
X11466D01*
X11416Y2550D02*
X11464D01*
X11391Y2450D02*
X11485D01*
X11351Y2650D02*
X11516D01*
X11399Y2600D02*
X11479D01*
X7872Y2900D02*
X8350D01*
X7879Y2950D02*
X8341D01*
X7850Y3040D02*
Y3050D01*
X7846Y3046D02*
X7887Y3087D01*
X7870Y3000D02*
X8351D01*
X7850Y3050D02*
X8385D01*
X8350Y2258D02*
Y2899D01*
X7900Y2423D02*
Y3089D01*
X7930Y3100D02*
X8358D01*
X8600Y3022D02*
Y3095D01*
X7950Y2432D02*
Y3113D01*
X8000Y2435D02*
Y3162D01*
X7958Y3121D02*
X8034Y3196D01*
X7988Y3150D02*
X8330D01*
X8200Y2386D02*
Y3895D01*
X8150Y2408D02*
Y3895D01*
X8300Y2315D02*
Y3895D01*
X8250Y2356D02*
Y3895D01*
X8050Y2432D02*
Y3216D01*
X8100Y2423D02*
Y3442D01*
X8350Y2997D02*
Y3110D01*
X8037Y3200D02*
X8321D01*
X8064Y3250D02*
X8328D01*
X8900Y1404D02*
Y2992D01*
X8850Y1422D02*
Y3079D01*
X8612Y2900D02*
X8992D01*
X8621Y2950D02*
X8935D01*
X8604Y3100D02*
X8842D01*
X8632Y3150D02*
X8827D01*
X8611Y3000D02*
X8894D01*
X8577Y3050D02*
X8864D01*
X9550Y1727D02*
Y2935D01*
X8950Y1347D02*
Y2935D01*
X9600Y1777D02*
Y2992D01*
X9650Y1827D02*
Y3079D01*
X9658Y3100D02*
X11405D01*
X9673Y3150D02*
X11355D01*
X9565Y2950D02*
X11569D01*
X9606Y3000D02*
X11505D01*
X9636Y3050D02*
X11455D01*
X8700Y1425D02*
Y3895D01*
X8650Y1425D02*
Y3895D01*
X8800Y1417D02*
Y3895D01*
X8750Y1420D02*
Y3895D01*
X8641Y3200D02*
X8818D01*
X9700Y1877D02*
Y4076D01*
X9750Y1927D02*
Y4126D01*
X9800Y1977D02*
Y4176D01*
X9850Y2027D02*
Y4226D01*
X9900Y2077D02*
Y4276D01*
X9950Y2100D02*
Y4326D01*
X9682Y3200D02*
X11305D01*
X10000Y2100D02*
Y4376D01*
X10050Y2100D02*
Y4426D01*
X8068Y3278D02*
Y3388D01*
Y3300D02*
X8354D01*
X8068Y3350D02*
X8420D01*
X8079Y3400D02*
X8842D01*
X8086Y3600D02*
X8992D01*
X8634Y3250D02*
X8815D01*
X8608Y3300D02*
X8818D01*
X8542Y3350D02*
X8827D01*
X8101Y3450D02*
X8864D01*
X8103Y3465D02*
Y3500D01*
X8100Y3523D02*
Y3632D01*
X8103Y3500D02*
X8894D01*
X8090Y3550D02*
X8935D01*
X8102Y3650D02*
X9079D01*
X8400Y3340D02*
Y3895D01*
X8350Y3294D02*
Y3895D01*
X8500Y3361D02*
Y3895D01*
X8450Y3359D02*
Y3895D01*
X8100Y3713D02*
Y3895D01*
X8050Y3779D02*
Y3895D01*
X8103Y3655D02*
Y3690D01*
X8600Y3309D02*
Y3895D01*
X8550Y3346D02*
Y3895D01*
X8900Y3508D02*
Y3895D01*
X8850Y3421D02*
Y3895D01*
X9000Y3606D02*
Y3895D01*
X8950Y3565D02*
Y3895D01*
X9150Y3673D02*
Y3895D01*
X9050Y3636D02*
Y3895D01*
X9100Y3658D02*
Y3895D01*
X9400Y3658D02*
Y3895D01*
X9350Y3673D02*
Y3895D01*
X9508Y3600D02*
X10075D01*
X9421Y3650D02*
X10075D01*
X8050Y3800D02*
X10075D01*
X8050Y3850D02*
X10075D01*
X8102Y3700D02*
X10075D01*
X8083Y3750D02*
X10075D01*
X9673Y3350D02*
X11155D01*
X9658Y3400D02*
X11105D01*
X9685Y3250D02*
X11255D01*
X9682Y3300D02*
X11205D01*
X10075Y3850D02*
X10115D01*
X10075Y3580D02*
Y3850D01*
X9636Y3450D02*
X11055D01*
X9565Y3550D02*
X10955D01*
X9606Y3500D02*
X11005D01*
X9300Y3682D02*
Y3895D01*
X9200Y3682D02*
Y3895D01*
X9450Y3636D02*
Y3895D01*
X9500Y3606D02*
Y3898D01*
X8050Y3895D02*
X9475D01*
X9250Y3685D02*
Y3895D01*
X9507Y3900D02*
X10096D01*
X9550Y3565D02*
Y3926D01*
X9600Y3508D02*
Y3976D01*
X9650Y3421D02*
Y4026D01*
X9549Y3926D02*
X10808Y5185D01*
X9573Y3950D02*
X10100D01*
X9623Y4000D02*
X10132D01*
X9673Y4050D02*
X11100D01*
X9723Y4100D02*
X11101D01*
X9773Y4150D02*
X11125D01*
X10150Y2100D02*
Y3580D01*
X10100Y2100D02*
Y3580D01*
X10250Y2100D02*
Y3580D01*
X10200Y2100D02*
Y3580D01*
X10075D02*
X10345D01*
X10300Y2633D02*
Y3580D01*
X11000Y2689D02*
Y3505D01*
X10950Y2673D02*
Y3555D01*
X11200Y2648D02*
Y3305D01*
X11150Y2628D02*
Y3355D01*
X11350Y2651D02*
Y3155D01*
X11250Y2668D02*
Y3255D01*
X11100Y2671D02*
Y3405D01*
X11050Y2689D02*
Y3455D01*
X11300Y2669D02*
Y3205D01*
X11280Y3550D02*
X11344D01*
X11300Y3530D02*
Y3595D01*
X10450Y2689D02*
Y3600D01*
X10350Y2673D02*
Y3600D01*
X10550Y2628D02*
Y3600D01*
X10500Y2671D02*
Y3600D01*
X10400Y2689D02*
Y3600D01*
X10345Y3580D02*
Y3600D01*
Y3600D02*
X10905D01*
X10345Y3600D02*
X10905D01*
X10800Y2598D02*
Y3600D01*
X10600Y2648D02*
Y3600D01*
X10900Y2633D02*
Y3600D01*
X10850Y2265D02*
Y3600D01*
X10700Y2669D02*
Y3600D01*
X10650Y2668D02*
Y3600D01*
X11230Y3600D02*
X11294D01*
X10750Y2651D02*
Y3600D01*
X11250Y3580D02*
Y3645D01*
X11450Y2265D02*
Y3055D01*
X11400Y2598D02*
Y3105D01*
X11500Y2633D02*
Y3005D01*
X11430Y3400D02*
X11652D01*
X11530Y3300D02*
X11752D01*
X11480Y3350D02*
X11702D01*
X11650Y2689D02*
Y2942D01*
X11550Y2673D02*
Y2959D01*
X11750Y2628D02*
Y2942D01*
X11700Y2671D02*
Y2942D01*
X11600Y2689D02*
Y2943D01*
X11650Y3180D02*
Y3402D01*
X11800Y3173D02*
Y3252D01*
X11700Y3173D02*
Y3352D01*
X11750Y3173D02*
Y3302D01*
X11380Y3450D02*
X11503D01*
X10905Y3600D02*
X11529Y2976D01*
X11034Y3796D02*
X11658Y3173D01*
X11330Y3500D02*
X11394D01*
X11350Y3480D02*
Y3545D01*
X11172Y3722D02*
X11395Y3500D01*
X11500Y3330D02*
Y3467D01*
X11450Y3380D02*
Y3470D01*
X11600Y3230D02*
Y3442D01*
X11550Y3280D02*
Y3442D01*
X11503D02*
Y3467D01*
X11400Y3430D02*
Y3495D01*
X11503Y3442D02*
X11610D01*
X11472Y3467D02*
X11503D01*
X11800Y3578D02*
Y3636D01*
X10100Y3850D02*
Y3882D01*
Y3948D02*
Y4476D01*
X10150Y4013D02*
Y4526D01*
X10200Y4030D02*
Y4576D01*
X10345Y3830D02*
X10953D01*
X10345D02*
Y3850D01*
X10250Y4023D02*
Y4626D01*
X10305Y3850D02*
X10345D01*
X10288Y4000D02*
X11112D01*
X11100Y4047D02*
Y4083D01*
X10500Y3830D02*
Y4876D01*
X10550Y3830D02*
Y4926D01*
X10600Y3830D02*
Y4976D01*
X10650Y3830D02*
Y5026D01*
X10300Y3987D02*
Y4676D01*
X10350Y3830D02*
Y4726D01*
X10400Y3830D02*
Y4776D01*
X10450Y3830D02*
Y4826D01*
X11000Y3820D02*
Y5185D01*
X10950Y3830D02*
Y5185D01*
X11100Y3730D02*
Y5185D01*
X11050Y3780D02*
Y5185D01*
X10700Y3830D02*
Y5076D01*
X10750Y3830D02*
Y5126D01*
X10800Y3830D02*
Y5176D01*
X10850Y3830D02*
Y5185D01*
X10900Y3830D02*
Y5185D01*
X11150Y3680D02*
Y3754D01*
X11130Y3700D02*
X11194D01*
X10345Y3850D02*
X11140D01*
X10324Y3900D02*
X11140D01*
X11080Y3750D02*
X11152D01*
X11030Y3800D02*
X11140D01*
X11180Y3650D02*
X11244D01*
X11200Y3630D02*
Y3695D01*
X11360Y3846D02*
X11405Y3801D01*
X11360Y3850D02*
X11405D01*
X11360Y3900D02*
X11405D01*
X11360Y3950D02*
X11405D01*
X11605Y3900D02*
X11781D01*
X10320Y3950D02*
X11140D01*
Y3800D02*
Y3966D01*
X11360Y3846D02*
Y3966D01*
X11388Y4000D02*
X11405D01*
Y3801D02*
Y4003D01*
X11400Y3806D02*
Y4007D01*
X11750Y3869D02*
Y4329D01*
X11700Y3874D02*
Y4417D01*
X11605Y3888D02*
Y4003D01*
X11650Y3892D02*
Y4060D01*
X11800Y3919D02*
Y4276D01*
X11850Y2265D02*
Y2394D01*
X11779Y2265D02*
X12121D01*
X11800Y2327D02*
Y2362D01*
X11900Y2265D02*
Y2393D01*
X11796Y2300D02*
X12104D01*
X11800Y2350D02*
X12100D01*
X12400Y2265D02*
Y2323D01*
X12400Y2327D02*
Y2362D01*
X12100Y2327D02*
Y2362D01*
X12379Y2265D02*
X12588D01*
X12450D02*
Y2394D01*
X12500Y2265D02*
Y2393D01*
X11950Y2265D02*
Y2411D01*
X12000Y2265D02*
Y2464D01*
X12100Y2265D02*
Y2429D01*
X12050Y2265D02*
Y2942D01*
X11793Y2400D02*
X11828D01*
X11926D02*
X12107D01*
X12550Y2265D02*
Y2411D01*
X12600Y2264D02*
Y2464D01*
X12700Y2198D02*
Y2408D01*
X12650Y2246D02*
Y2424D01*
X12400Y2367D02*
Y2414D01*
X12393Y2400D02*
X12428D01*
X12761Y2137D02*
X12772D01*
X12665Y2233D02*
X12761Y2137D01*
X12748Y2150D02*
X12773D01*
X12698Y2200D02*
X12773D01*
X12643Y2250D02*
X12773D01*
X12396Y2300D02*
X12773D01*
X13003Y2320D02*
X14630D01*
X12400Y2350D02*
X12773D01*
X14554Y2100D02*
X14584D01*
X15000Y2265D02*
Y2323D01*
X14979Y2265D02*
X15321D01*
X14693Y2300D02*
X14704D01*
X14996D02*
X15304D01*
X12750Y2148D02*
Y2413D01*
X12773Y2138D02*
Y2423D01*
X13003Y2320D02*
Y2517D01*
X14600Y2320D02*
Y3146D01*
X12526Y2400D02*
X12773D01*
X14550Y2320D02*
Y3193D01*
X13003Y2350D02*
X14700D01*
X13003Y2400D02*
X14707D01*
X14700Y2295D02*
Y2429D01*
X14650Y2318D02*
Y3135D01*
X15000Y2327D02*
Y2362D01*
X14700Y2327D02*
Y2362D01*
X15000Y2367D02*
Y2414D01*
X14993Y2400D02*
X15028D01*
X11951Y2650D02*
X12116D01*
X11730D02*
X11803D01*
X7500Y2700D02*
X12382D01*
X7550Y2750D02*
X12332D01*
X12014Y2500D02*
X12066D01*
X12016Y2550D02*
X12064D01*
X11991Y2450D02*
X12085D01*
X11999Y2600D02*
X12079D01*
X12350Y2628D02*
Y2732D01*
X12330Y2650D02*
X12403D01*
X12400Y2648D02*
Y2682D01*
X11850Y2668D02*
Y2942D01*
X11800Y2648D02*
Y2942D01*
X7780Y2800D02*
X12282D01*
X9421Y2850D02*
X12232D01*
X11658Y3173D02*
X11880D01*
X11630Y3200D02*
X11852D01*
X9508Y2900D02*
X12182D01*
X11610Y2942D02*
X12140D01*
X11950Y2651D02*
Y2942D01*
X11900Y2669D02*
Y2942D01*
X12100Y2633D02*
Y2942D01*
X12000Y2598D02*
Y2942D01*
X12150Y2673D02*
Y2932D01*
X11850Y3173D02*
Y3202D01*
X12300Y2671D02*
Y2782D01*
X12200Y2689D02*
Y2882D01*
X12250Y2689D02*
Y2832D01*
X12591Y2450D02*
X12619D01*
X12918Y2650D02*
X14716D01*
X12768Y2800D02*
X17950D01*
X12718Y2850D02*
X17329D01*
X12868Y2700D02*
X17950D01*
X12818Y2750D02*
X17950D01*
X13003Y2500D02*
X14666D01*
X13003Y2450D02*
X14685D01*
X12998Y2550D02*
X14664D01*
X12968Y2600D02*
X14679D01*
X14930Y2650D02*
X15003D01*
X12140Y2942D02*
X12422Y2660D01*
X12324Y3244D02*
X12969Y2598D01*
X12618Y2950D02*
X17185D01*
X12568Y3000D02*
X17144D01*
X12368Y3200D02*
X14546D01*
X12317Y3250D02*
X14535D01*
X12518Y3050D02*
X17114D01*
X12418Y3150D02*
X14593D01*
X12468Y3100D02*
X17092D01*
X14700Y2633D02*
Y3146D01*
X14750Y2673D02*
Y3193D01*
X12668Y2900D02*
X17242D01*
X14707Y3150D02*
X17077D01*
X14754Y3200D02*
X17068D01*
X14765Y3250D02*
X17065D01*
X15600Y2265D02*
Y2323D01*
X15579Y2265D02*
X15921D01*
X15000Y2350D02*
X15300D01*
Y2327D02*
Y2362D01*
X15596Y2300D02*
X15904D01*
X15600Y2327D02*
Y2362D01*
X16179Y2265D02*
X16521D01*
X15600Y2350D02*
X15900D01*
Y2327D02*
Y2362D01*
X16196Y2300D02*
X16504D01*
X16200Y2265D02*
Y2323D01*
X16200Y2350D02*
X16500D01*
X15650Y2265D02*
Y2394D01*
X15300Y2265D02*
Y2429D01*
X15700Y2265D02*
Y2393D01*
X15750Y2265D02*
Y2411D01*
X15100Y2265D02*
Y2393D01*
X15050Y2265D02*
Y2394D01*
X15150Y2265D02*
Y2411D01*
X15200Y2265D02*
Y2464D01*
X15900Y2265D02*
Y2429D01*
X15800Y2265D02*
Y2464D01*
X16300Y2265D02*
Y2393D01*
X16250Y2265D02*
Y2394D01*
X16200Y2327D02*
Y2362D01*
X16350Y2265D02*
Y2411D01*
X16500Y2327D02*
Y2362D01*
X16400Y2265D02*
Y2464D01*
X16500Y2265D02*
Y2426D01*
X16800Y2100D02*
Y2133D01*
X16793Y2100D02*
X17950D01*
X16796Y2200D02*
X17950D01*
X16765Y2250D02*
X17950D01*
X16796Y2300D02*
X17950D01*
X16900Y2100D02*
Y2388D01*
X16850Y2100D02*
Y2389D01*
X16950Y2100D02*
Y2406D01*
X17000Y2100D02*
Y2457D01*
X16800Y2137D02*
Y2172D01*
X16800Y2177D02*
Y2323D01*
X16800Y2150D02*
X17950D01*
X16800Y2327D02*
Y2362D01*
Y2350D02*
X17950D01*
X17350Y2100D02*
Y2842D01*
X17300Y2100D02*
Y2864D01*
X17450Y2100D02*
Y2818D01*
X17400Y2100D02*
Y2827D01*
X17150Y2100D02*
Y2992D01*
X17100Y2100D02*
Y3079D01*
X17250Y2100D02*
Y2894D01*
X17200Y2100D02*
Y2935D01*
X17750Y2100D02*
Y2894D01*
X17800Y2100D02*
Y2935D01*
X17850Y2100D02*
Y2992D01*
X17900Y2100D02*
Y3079D01*
X17500Y2100D02*
Y2815D01*
X17550Y2100D02*
Y2818D01*
X17600Y2100D02*
Y2827D01*
X17650Y2100D02*
Y2842D01*
X17700Y2100D02*
Y2864D01*
X15126Y2400D02*
X15307D01*
X15600Y2367D02*
Y2414D01*
X15214Y2500D02*
X15266D01*
X15593Y2400D02*
X15628D01*
X15191Y2450D02*
X15285D01*
X15726Y2400D02*
X15907D01*
X16200Y2367D02*
Y2414D01*
X16193Y2400D02*
X16228D01*
X15791Y2450D02*
X15885D01*
X15814Y2500D02*
X15866D01*
X15216Y2550D02*
X15264D01*
X15199Y2600D02*
X15279D01*
X15530Y2650D02*
X15603D01*
X15151D02*
X15316D01*
X15816Y2550D02*
X15864D01*
X15799Y2600D02*
X15879D01*
X15751Y2650D02*
X15916D01*
X16130D02*
X16203D01*
X16326Y2400D02*
X16507D01*
X16416Y2550D02*
X16466D01*
X16391Y2450D02*
X16484D01*
X16414Y2500D02*
X16467D01*
X16793Y2400D02*
X16818D01*
X16800Y2367D02*
Y2410D01*
X16938Y2400D02*
X17950D01*
X16996Y2450D02*
X17950D01*
X17016Y2500D02*
X17950D01*
X17016Y2550D02*
X17950D01*
X16399Y2600D02*
X16482D01*
X16351Y2650D02*
X16523D01*
X16997Y2600D02*
X17950D01*
X16726Y2650D02*
X16812D01*
X16944D02*
X17950D01*
X17815Y2950D02*
X17950D01*
X17856Y3000D02*
X17950D01*
X17671Y2850D02*
X17950D01*
X17758Y2900D02*
X17950D01*
X17932Y3200D02*
X17950D01*
X17935Y3250D02*
X17950D01*
X17886Y3050D02*
X17950D01*
X17908Y3100D02*
X17950D01*
X17923Y3150D02*
X17950D01*
X11580Y3250D02*
X11802D01*
X11610Y3442D02*
X11880Y3173D01*
X12100Y3278D02*
X12243D01*
X12150D02*
Y3442D01*
X11928Y3450D02*
X12128D01*
Y3442D02*
X12397D01*
X12200Y3278D02*
Y3442D01*
X12550Y3018D02*
Y3462D01*
X12500Y3068D02*
Y3462D01*
X12650Y2918D02*
Y3462D01*
X12600Y2968D02*
Y3462D01*
X12300Y3262D02*
Y3442D01*
X12250Y3277D02*
Y3442D01*
X12350Y3218D02*
Y3442D01*
X12397D02*
Y3462D01*
X11850Y3528D02*
Y3686D01*
X11900Y3478D02*
Y3736D01*
X11878Y3500D02*
X12128D01*
X11772Y3605D02*
X12100Y3278D01*
X11828Y3550D02*
X12128D01*
X11778Y3600D02*
X12128D01*
X11814Y3650D02*
X12128D01*
X11773Y3609D02*
X12151Y3988D01*
X12050Y3328D02*
Y3886D01*
X12100Y3278D02*
Y3936D01*
X12450Y3118D02*
Y3462D01*
X12400Y3168D02*
Y3462D01*
X11950Y3428D02*
Y3786D01*
X12000Y3378D02*
Y3836D01*
X12128Y3442D02*
Y3712D01*
X12397Y3692D02*
Y3712D01*
X12650Y3692D02*
Y4233D01*
X12750Y2818D02*
Y3462D01*
X12700Y2868D02*
Y3462D01*
X12850Y2718D02*
Y3462D01*
X12800Y2768D02*
Y3462D01*
X11978Y3400D02*
X14515D01*
X12397Y3450D02*
X14487D01*
X12078Y3300D02*
X14546D01*
X12028Y3350D02*
X14515D01*
X13200Y2320D02*
Y3462D01*
X13150Y2320D02*
Y3462D01*
X13300Y2320D02*
Y3462D01*
X13250Y2320D02*
Y3462D01*
X12950Y2618D02*
Y3462D01*
X12900Y2668D02*
Y3462D01*
X13100Y2320D02*
Y3462D01*
X13000Y2543D02*
Y3462D01*
X13050Y2320D02*
Y3462D01*
X13350Y2320D02*
Y3462D01*
X12397D02*
X13310D01*
X14475D01*
X13400Y2320D02*
Y3462D01*
X13150Y3692D02*
Y4684D01*
X13100Y3692D02*
Y4722D01*
X12397Y3692D02*
X13195D01*
Y4640D01*
X13500Y2320D02*
Y3462D01*
X13450Y2320D02*
Y3462D01*
X13600Y2320D02*
Y3462D01*
X13550Y2320D02*
Y3462D01*
X13425Y3692D02*
Y4688D01*
X13450Y3692D02*
Y4870D01*
X13425Y3692D02*
X14523D01*
X13500D02*
Y4870D01*
X13550Y3692D02*
Y4870D01*
X11864Y3700D02*
X12128D01*
X11914Y3750D02*
X12151D01*
X12128Y3712D02*
X12168D01*
X11964Y3800D02*
X12150D01*
X11605Y3950D02*
X11831D01*
X12014Y3850D02*
X12173D01*
X12150Y3801D02*
Y3986D01*
Y3712D02*
Y3754D01*
X12357Y3712D02*
X12397D01*
X12300Y3886D02*
Y3988D01*
X12151D02*
X12362D01*
X12350Y3852D02*
Y3988D01*
X11605Y4000D02*
X11881D01*
X11850Y3969D02*
Y4270D01*
X11729Y3848D02*
X12039Y4158D01*
X11900Y4019D02*
Y4273D01*
X11645Y4050D02*
X11931D01*
X11950Y4069D02*
Y4278D01*
X11663Y4100D02*
X11981D01*
X11663Y4150D02*
X12031D01*
X12250Y3892D02*
Y3988D01*
X12200Y3874D02*
Y3988D01*
X12400Y3692D02*
Y3995D01*
X12450Y3692D02*
Y4033D01*
X12000Y4119D02*
Y4252D01*
X12375Y3800D02*
X13195D01*
X12352Y3850D02*
X13195D01*
X12397Y3700D02*
X13195D01*
X12374Y3750D02*
X13195D01*
X12411Y4000D02*
X13195D01*
X12466Y4050D02*
X13195D01*
X12064Y3900D02*
X13195D01*
X12114Y3950D02*
X13195D01*
X13425Y3700D02*
X17950D01*
X12500Y3692D02*
Y4083D01*
X13425Y3750D02*
X17950D01*
X13425Y3800D02*
X17950D01*
X13425Y4000D02*
X17950D01*
X13425Y4050D02*
X17950D01*
X13425Y3850D02*
X17950D01*
X13425Y3950D02*
X17950D01*
X13425Y3900D02*
X17950D01*
X12550Y3692D02*
Y4133D01*
X12600Y3692D02*
Y4183D01*
X12850Y3692D02*
Y4237D01*
X12700Y3692D02*
Y4260D01*
X12750Y3692D02*
Y4260D01*
X12433Y4017D02*
X12676Y4260D01*
X12516Y4100D02*
X13195D01*
X12566Y4150D02*
X13195D01*
X12800Y3692D02*
Y4256D01*
X12950Y3692D02*
Y4264D01*
X13000Y3692D02*
Y4870D01*
X13650Y3692D02*
Y4152D01*
X13050Y3692D02*
Y4870D01*
X12900Y3692D02*
Y4239D01*
X13600Y3692D02*
Y4870D01*
X13425Y4100D02*
X17950D01*
X13425Y4150D02*
X13652D01*
X13950Y2320D02*
Y3462D01*
X13850Y2320D02*
Y3462D01*
X14050Y2320D02*
Y3462D01*
X14000Y2320D02*
Y3462D01*
X13700Y2320D02*
Y3462D01*
X13650Y2320D02*
Y3462D01*
X13800Y2320D02*
Y3462D01*
X13750Y2320D02*
Y3462D01*
X14150Y2320D02*
Y3462D01*
X14100Y2320D02*
Y3462D01*
X14250Y2320D02*
Y3462D01*
X14200Y2320D02*
Y3462D01*
X14350Y2320D02*
Y3462D01*
X14300Y2320D02*
Y3462D01*
X14400Y2320D02*
Y3462D01*
X14500Y2320D02*
Y3437D01*
X14450Y2320D02*
Y3462D01*
X13900Y2320D02*
Y3462D01*
X14950Y2628D02*
Y6222D01*
X15000Y2648D02*
Y6251D01*
X14800Y2689D02*
Y4281D01*
X14850Y2689D02*
Y4348D01*
X14900Y2671D02*
Y6213D01*
X15050Y2668D02*
Y6248D01*
X15150Y2651D02*
Y6213D01*
X15200Y2598D02*
Y6221D01*
X15250Y2265D02*
Y6248D01*
X15300Y2633D02*
Y6251D01*
X15100Y2669D02*
Y6221D01*
X15350Y2673D02*
Y6222D01*
X15400Y2689D02*
Y6213D01*
X15450Y2689D02*
Y6220D01*
X15500Y2671D02*
Y6245D01*
X15550Y2628D02*
Y6255D01*
X15800Y2598D02*
Y6259D01*
X15900Y2633D02*
Y6213D01*
X15850Y2265D02*
Y6226D01*
X15650Y2668D02*
Y6213D01*
X15600Y2648D02*
Y6224D01*
X15700Y2669D02*
Y6219D01*
X15750Y2651D02*
Y6242D01*
X16200Y2648D02*
Y6950D01*
X16150Y2628D02*
Y6950D01*
X16300Y2669D02*
Y6950D01*
X16250Y2668D02*
Y6950D01*
X15950Y2673D02*
Y6218D01*
X16000Y2689D02*
Y6239D01*
X16050Y2689D02*
Y6292D01*
X16100Y2671D02*
Y6950D01*
X16400Y2598D02*
Y6950D01*
X16350Y2651D02*
Y6950D01*
X16500Y2627D02*
Y6950D01*
X16450Y2265D02*
Y6950D01*
X16600Y2685D02*
Y6950D01*
X16550Y2668D02*
Y6950D01*
X16700Y2667D02*
Y6950D01*
X16650Y2684D02*
Y6950D01*
X17050Y2100D02*
Y6950D01*
X17000Y2596D02*
Y6950D01*
X17950Y2100D02*
Y6950D01*
X17950Y2100D02*
Y6950D01*
X16800Y2642D02*
Y6950D01*
X16750Y2626D02*
Y6950D01*
X16950Y2647D02*
Y6950D01*
X16850Y2663D02*
Y6950D01*
X16900Y2665D02*
Y6950D01*
X14515Y3315D02*
Y3422D01*
X14475Y3462D02*
X14515Y3422D01*
Y3315D02*
X14555D01*
X13750Y3692D02*
Y4110D01*
X13700Y3692D02*
Y4119D01*
X13800Y3692D02*
Y4119D01*
X13850Y3692D02*
Y4152D01*
X14750Y3307D02*
Y3315D01*
X14550Y3307D02*
Y3315D01*
X14745D02*
X14785D01*
X14600Y3663D02*
Y4187D01*
X14550Y3689D02*
Y4189D01*
X14785Y3315D02*
Y3585D01*
X14604Y3659D02*
X14678Y3585D01*
X14100Y3692D02*
Y4661D01*
X14050Y3692D02*
Y4702D01*
X14200Y3692D02*
Y4650D01*
X14150Y3692D02*
Y4650D01*
X13900Y3692D02*
Y4852D01*
X14000Y3692D02*
Y4752D01*
X13950Y3692D02*
Y4802D01*
X14650Y3613D02*
Y4205D01*
X14500Y3692D02*
Y4214D01*
X14700Y3585D02*
Y4207D01*
X14750Y3585D02*
Y4232D01*
X14300Y3692D02*
Y4642D01*
X14250Y3692D02*
Y4650D01*
X14350Y3692D02*
Y4635D01*
X14400Y3692D02*
Y4650D01*
X14450Y3692D02*
Y4700D01*
X14754Y3300D02*
X17068D01*
X14785Y3350D02*
X17077D01*
X14785Y3400D02*
X17092D01*
X14785Y3450D02*
X17114D01*
X14785Y3500D02*
X17144D01*
X14678Y3585D02*
X14785D01*
X14663Y3600D02*
X17242D01*
X14613Y3650D02*
X17329D01*
X17908Y3400D02*
X17950D01*
X17886Y3450D02*
X17950D01*
X17932Y3300D02*
X17950D01*
X17923Y3350D02*
X17950D01*
X17856Y3500D02*
X17950D01*
X14785Y3550D02*
X17185D01*
X17815D02*
X17950D01*
X17671Y3650D02*
X17950D01*
X17758Y3600D02*
X17950D01*
X17150Y3508D02*
Y6242D01*
X17100Y3421D02*
Y6329D01*
X17250Y3606D02*
Y6144D01*
X17200Y3565D02*
Y6185D01*
X17350Y3658D02*
Y6092D01*
X17300Y3636D02*
Y6114D01*
X13848Y4150D02*
X17950D01*
X17400Y3673D02*
Y6077D01*
X17450Y3682D02*
Y6068D01*
X17750Y3606D02*
Y6144D01*
X17800Y3565D02*
Y6185D01*
X17850Y3508D02*
Y6242D01*
X17900Y3421D02*
Y6329D01*
X17500Y3685D02*
Y6065D01*
X17550Y3682D02*
Y6068D01*
X17600Y3673D02*
Y6077D01*
X17650Y3658D02*
Y6092D01*
X17700Y3636D02*
Y6114D01*
X6750Y4255D02*
Y4723D01*
X6700Y4255D02*
Y4786D01*
X6850Y4255D02*
Y4691D01*
X6800Y4255D02*
Y4698D01*
X6900Y4255D02*
Y4700D01*
X6950Y4255D02*
Y4729D01*
X6899Y4700D02*
X7769D01*
X7800Y4255D02*
Y4392D01*
X7750Y4255D02*
Y4409D01*
X7850Y4255D02*
Y4392D01*
X7900Y4255D02*
Y4409D01*
X7000Y4255D02*
Y4807D01*
X7050Y4255D02*
Y4960D01*
X7700Y4255D02*
Y4450D01*
X7100Y4255D02*
Y4960D01*
X7150Y4255D02*
Y4960D01*
X7200Y4255D02*
Y4960D01*
X6650Y4255D02*
Y4960D01*
X7400Y4255D02*
Y4960D01*
X7250Y4255D02*
Y4960D01*
X7000Y4895D02*
Y4960D01*
X7350Y4255D02*
Y4960D01*
X7300Y4255D02*
Y4960D01*
X7500Y4255D02*
Y4960D01*
X7450Y4255D02*
Y4960D01*
X7550Y4255D02*
Y4960D01*
X7600Y4255D02*
Y4960D01*
X7650Y4255D02*
Y4972D01*
X7700Y4650D02*
Y5009D01*
X7750Y4691D02*
Y5059D01*
X7800Y4708D02*
Y5109D01*
X7850Y4708D02*
Y5159D01*
X7950Y4255D02*
Y4415D01*
X8050Y4255D02*
Y4415D01*
X8000Y4255D02*
Y4415D01*
X7911Y4685D02*
X8819D01*
X7881Y4700D02*
X8834D01*
X7881Y4400D02*
X9476D01*
X7911Y4415D02*
X8875D01*
X8400Y4255D02*
Y4415D01*
X8350Y4255D02*
Y4415D01*
X8500Y4255D02*
Y4415D01*
X8450Y4255D02*
Y4415D01*
X8150Y4255D02*
Y4415D01*
X8100Y4255D02*
Y4415D01*
X8300Y4255D02*
Y4415D01*
X8200Y4255D02*
Y4415D01*
X8250Y4255D02*
Y4415D01*
X7950Y4685D02*
Y5259D01*
X8000Y4685D02*
Y5309D01*
X8050Y4685D02*
Y5359D01*
X8100Y4685D02*
Y5409D01*
X6970Y4750D02*
X8884D01*
X7900Y4691D02*
Y5209D01*
X6998Y4800D02*
X8934D01*
X7006Y4850D02*
X8984D01*
X8400Y4685D02*
Y5709D01*
X8450Y4685D02*
Y5759D01*
X8500Y4685D02*
Y5809D01*
X8550Y4685D02*
Y5859D01*
X8150Y4685D02*
Y5459D01*
X8200Y4685D02*
Y5509D01*
X8250Y4685D02*
Y5559D01*
X8300Y4685D02*
Y5609D01*
X8350Y4685D02*
Y5659D01*
X6700Y4916D02*
Y4960D01*
X6650Y5230D02*
Y5365D01*
X6750Y5230D02*
Y5365D01*
X6700Y5230D02*
Y5365D01*
X6850Y5230D02*
Y5365D01*
X6800Y5230D02*
Y5365D01*
X6950Y5230D02*
Y5365D01*
X6900Y5230D02*
Y5365D01*
X6963Y4960D02*
X7595D01*
X7100Y5230D02*
Y5365D01*
X7050Y5230D02*
Y5365D01*
X7000Y5230D02*
Y5365D01*
X7150Y5230D02*
Y5375D01*
X7191Y5400D02*
X7709D01*
X7200Y5230D02*
Y5409D01*
X7250Y5230D02*
Y5459D01*
X7300Y5230D02*
Y5509D01*
X6700Y5635D02*
Y6021D01*
X6650Y5635D02*
Y6031D01*
X7195Y5405D02*
X7708Y5917D01*
X6750Y5635D02*
Y6024D01*
X7350Y5230D02*
Y5559D01*
X7400Y5230D02*
Y5609D01*
X7450Y5230D02*
Y5659D01*
X7500Y5230D02*
Y5709D01*
X7550Y5241D02*
Y5759D01*
X7600Y5291D02*
Y5809D01*
X7650Y5341D02*
Y5859D01*
X7700Y5391D02*
Y5909D01*
X6998Y4900D02*
X9034D01*
X6972Y4950D02*
X9084D01*
X7691Y5000D02*
X9134D01*
X7741Y5050D02*
X9184D01*
X7241Y5450D02*
X7759D01*
X7291Y5500D02*
X7809D01*
X7791Y5100D02*
X9234D01*
X7341Y5550D02*
X7859D01*
X7841Y5150D02*
X9284D01*
X7891Y5200D02*
X9334D01*
X7941Y5250D02*
X9384D01*
X7991Y5300D02*
X9434D01*
X8041Y5350D02*
X9484D01*
X8091Y5400D02*
X9534D01*
X8141Y5450D02*
X9584D01*
X8191Y5500D02*
X9634D01*
X8241Y5550D02*
X9684D01*
X7391Y5600D02*
X7909D01*
X7441Y5650D02*
X7959D01*
X7491Y5700D02*
X8009D01*
X7690Y5000D02*
X8608Y5917D01*
X7541Y5750D02*
X8059D01*
X7591Y5800D02*
X8109D01*
X7641Y5850D02*
X8159D01*
X7691Y5900D02*
X8209D01*
X8291Y5600D02*
X9734D01*
X8341Y5650D02*
X9784D01*
X8391Y5700D02*
X9834D01*
X8441Y5750D02*
X9884D01*
X7732Y5950D02*
X8259D01*
X8491Y5800D02*
X9934D01*
X7747Y6000D02*
X8309D01*
X8541Y5850D02*
X9984D01*
X8600Y4255D02*
Y4415D01*
X8550Y4255D02*
Y4415D01*
X8700Y4255D02*
Y4415D01*
X8650Y4255D02*
Y4415D01*
X8800Y4255D02*
Y4415D01*
X8750Y4255D02*
Y4415D01*
X8850Y4255D02*
Y4415D01*
X8900Y4255D02*
Y4417D01*
X8950Y4255D02*
Y4438D01*
X9000Y4255D02*
Y4484D01*
X9100Y4255D02*
Y4584D01*
X9050Y4255D02*
Y4534D01*
X8966Y4450D02*
X9526D01*
X9016Y4500D02*
X9576D01*
X9066Y4550D02*
X9626D01*
X9150Y4255D02*
Y4634D01*
X9200Y4255D02*
Y4684D01*
X9250Y4255D02*
Y4734D01*
X9300Y4255D02*
Y4784D01*
X9116Y4600D02*
X9676D01*
X8600Y4685D02*
Y5909D01*
X9166Y4650D02*
X9726D01*
X8970Y4455D02*
X10408Y5892D01*
X9350Y4273D02*
Y4834D01*
X9400Y4323D02*
Y4884D01*
X9450Y4373D02*
Y4934D01*
X9500Y4423D02*
Y4984D01*
X9550Y4473D02*
Y5034D01*
X9600Y4523D02*
Y5084D01*
X9650Y4573D02*
Y5134D01*
X9700Y4623D02*
Y5184D01*
X9750Y4673D02*
Y5234D01*
X9873Y4250D02*
X11100D01*
X9923Y4300D02*
X11104D01*
X9823Y4200D02*
X11107D01*
X10023Y4400D02*
X11102D01*
X10073Y4450D02*
X11100D01*
X9973Y4350D02*
X11128D01*
X10123Y4500D02*
X11105D01*
X11100Y4238D02*
Y4272D01*
X11650Y4196D02*
Y4314D01*
X11100Y4422D02*
Y4467D01*
X11682Y4400D02*
X11745D01*
X11732Y4450D02*
X11745D01*
X11745Y4358D02*
Y4442D01*
X10173Y4550D02*
X11139D01*
X9332Y4255D02*
X10571Y5494D01*
X10273Y4650D02*
X11120D01*
Y4612D02*
Y4658D01*
X10223Y4600D02*
X11121D01*
X11361Y4550D02*
X11395D01*
X11400Y4503D02*
Y4543D01*
X9216Y4700D02*
X9776D01*
X9266Y4750D02*
X9826D01*
X9316Y4800D02*
X9876D01*
X9366Y4850D02*
X9926D01*
X9416Y4900D02*
X9976D01*
X9466Y4950D02*
X10026D01*
X9516Y5000D02*
X10076D01*
X9566Y5050D02*
X10126D01*
X9800Y4723D02*
Y5284D01*
X9850Y4773D02*
Y5334D01*
X9900Y4823D02*
Y5384D01*
X9950Y4873D02*
Y5434D01*
X9616Y5100D02*
X10176D01*
X9666Y5150D02*
X10226D01*
X9716Y5200D02*
X10276D01*
X9766Y5250D02*
X10326D01*
X9816Y5300D02*
X10376D01*
X9400Y5266D02*
Y6021D01*
X9350Y5216D02*
Y6031D01*
X8591Y5900D02*
X10034D01*
X9450Y5316D02*
Y6024D01*
X8632Y5950D02*
X10084D01*
X8647Y6000D02*
X10134D01*
X10000Y4923D02*
Y5484D01*
X10050Y4973D02*
Y5534D01*
X10100Y5023D02*
Y5584D01*
X10150Y5073D02*
Y5634D01*
X10200Y5123D02*
Y5684D01*
X10250Y5173D02*
Y5734D01*
X10300Y5223D02*
Y5784D01*
X10350Y5273D02*
Y5834D01*
X10400Y5323D02*
Y5884D01*
X10323Y4700D02*
X11131D01*
X10373Y4750D02*
X11345D01*
X10423Y4800D02*
X11345D01*
X10473Y4850D02*
X11345D01*
X10623Y5000D02*
X11345D01*
X10673Y5050D02*
X11345D01*
X10523Y4900D02*
X11345D01*
X10573Y4950D02*
X11345D01*
Y4730D02*
Y5050D01*
X11300Y4745D02*
Y5185D01*
X11369Y4700D02*
X11380D01*
X11345Y4730D02*
X11401D01*
X11207Y4745D02*
X11293D01*
X11345Y5050D02*
X11509D01*
X10723Y5100D02*
X11559D01*
X10773Y5150D02*
X11609D01*
X10808Y5185D02*
X11644D01*
X9866Y5350D02*
X10426D01*
X9916Y5400D02*
X10476D01*
X11150Y4723D02*
Y5185D01*
X9966Y5450D02*
X10526D01*
X10016Y5500D02*
X10577D01*
X11250Y4745D02*
Y5185D01*
X11200Y4745D02*
Y5185D01*
X11400Y5050D02*
Y5185D01*
X11350Y5050D02*
Y5185D01*
X11500Y5050D02*
Y5185D01*
X11450Y5050D02*
Y5185D01*
X11509Y5050D02*
X11644Y5185D01*
X11550Y5090D02*
Y5185D01*
X11600Y5140D02*
Y5185D01*
X6800Y5635D02*
Y6040D01*
X6850Y5635D02*
Y6072D01*
X6819Y6050D02*
X7459D01*
X6900Y5635D02*
Y6136D01*
X6920Y6200D02*
X7405D01*
X6911Y6300D02*
X7414D01*
X6877Y6100D02*
X7448D01*
X6906Y6150D02*
X7419D01*
X7044Y5635D02*
X7478Y6068D01*
X7748Y6013D02*
Y6070D01*
X7750Y5441D02*
Y6072D01*
X7800Y5491D02*
Y6136D01*
X7450Y6041D02*
Y6098D01*
X6922Y6250D02*
X7403D01*
X7800Y6326D02*
Y6644D01*
X7000Y5635D02*
Y6950D01*
X6950Y5635D02*
Y6950D01*
X7100Y5691D02*
Y6950D01*
X7050Y5641D02*
Y6950D01*
X6900Y6326D02*
Y6644D01*
X7150Y5741D02*
Y6950D01*
X7250Y5841D02*
Y6950D01*
X7200Y5791D02*
Y6950D01*
X7900Y5591D02*
Y6950D01*
X7850Y5541D02*
Y6950D01*
X8000Y5691D02*
Y6950D01*
X7950Y5641D02*
Y6950D01*
X7350Y5941D02*
Y6950D01*
X7300Y5891D02*
Y6950D01*
X8100Y5791D02*
Y6950D01*
X7400Y5991D02*
Y6950D01*
X8050Y5741D02*
Y6950D01*
X7748Y6050D02*
X8359D01*
X8350Y6041D02*
Y6098D01*
X7539Y5230D02*
X8378Y6068D01*
X8648Y6013D02*
Y6070D01*
X7820Y6200D02*
X8305D01*
X7822Y6250D02*
X8303D01*
X7777Y6100D02*
X8348D01*
X7806Y6150D02*
X8319D01*
X8650Y4685D02*
Y6072D01*
X8700Y4685D02*
Y6136D01*
X8819Y4685D02*
X10178Y6043D01*
X8648Y6050D02*
X9306D01*
X8722Y6250D02*
X9203D01*
X8677Y6100D02*
X9248D01*
X8706Y6150D02*
X9219D01*
X8720Y6200D02*
X9205D01*
X8200Y5891D02*
Y6950D01*
X8150Y5841D02*
Y6950D01*
X8750Y4685D02*
Y6950D01*
X8250Y5941D02*
Y6950D01*
X7811Y6300D02*
X8314D01*
X8300Y5991D02*
Y6950D01*
X8711Y6300D02*
X9214D01*
X8850Y4716D02*
Y6950D01*
X8800Y4685D02*
Y6950D01*
X8950Y4816D02*
Y6950D01*
X8900Y4766D02*
Y6950D01*
X9050Y4916D02*
Y6950D01*
X9000Y4866D02*
Y6950D01*
X9200Y5066D02*
Y6950D01*
X9100Y4966D02*
Y6950D01*
X9150Y5016D02*
Y6950D01*
X6650Y6431D02*
Y6539D01*
X6800Y6422D02*
Y6548D01*
X6837Y6400D02*
X7488D01*
X6850Y6390D02*
Y6580D01*
X6700Y6441D02*
Y6529D01*
X6750Y6438D02*
Y6532D01*
X6804Y6550D02*
X7521D01*
X6870Y6600D02*
X7455D01*
X6886Y6350D02*
X7439D01*
X7450Y6364D02*
Y6606D01*
X7500Y6408D02*
Y6562D01*
X7750Y6390D02*
Y6580D01*
X7550Y6431D02*
Y6539D01*
X6903Y6650D02*
X7422D01*
X7600Y6441D02*
Y6529D01*
X7650Y6438D02*
Y6532D01*
X7700Y6422D02*
Y6548D01*
X6919Y6700D02*
X7406D01*
X6900Y6834D02*
Y6950D01*
X6913Y6800D02*
X7412D01*
X6891Y6850D02*
X7434D01*
X6800Y6930D02*
Y6950D01*
X6650Y6939D02*
Y6950D01*
X6847Y6900D02*
X7478D01*
X6850Y6898D02*
Y6950D01*
X6922Y6750D02*
X7403D01*
X7800Y6834D02*
Y6950D01*
X7822Y6750D02*
X8303D01*
X7500Y6916D02*
Y6950D01*
X7450Y6872D02*
Y6950D01*
X7750Y6898D02*
Y6950D01*
X7550Y6939D02*
Y6950D01*
X7700Y6930D02*
Y6950D01*
X7786Y6350D02*
X8339D01*
X8350Y6364D02*
Y6606D01*
X7737Y6400D02*
X8388D01*
X8400Y6408D02*
Y6562D01*
X7704Y6550D02*
X8421D01*
X7770Y6600D02*
X8355D01*
X8500Y6441D02*
Y6529D01*
X8450Y6431D02*
Y6539D01*
X8650Y6390D02*
Y6580D01*
X8700Y6326D02*
Y6644D01*
X8686Y6350D02*
X9239D01*
X8637Y6400D02*
X9288D01*
X8550Y6438D02*
Y6532D01*
X8600Y6422D02*
Y6548D01*
X8604Y6550D02*
X9321D01*
X8670Y6600D02*
X9255D01*
X8703Y6650D02*
X9222D01*
X7819Y6700D02*
X8306D01*
X7813Y6800D02*
X8312D01*
X7803Y6650D02*
X8322D01*
X7791Y6850D02*
X8334D01*
X8350Y6872D02*
Y6950D01*
X7747Y6900D02*
X8378D01*
X8400Y6916D02*
Y6950D01*
X8450Y6939D02*
Y6950D01*
X8719Y6700D02*
X9206D01*
X8722Y6750D02*
X9203D01*
X8713Y6800D02*
X9212D01*
X8650Y6898D02*
Y6950D01*
X8600Y6930D02*
Y6950D01*
X8691Y6850D02*
X9234D01*
X8647Y6900D02*
X9278D01*
X8700Y6834D02*
Y6950D01*
X9300Y5166D02*
Y6054D01*
X9250Y5116D02*
Y6098D01*
X9500Y5366D02*
Y6040D01*
X9550Y5416D02*
Y6072D01*
X9600Y5466D02*
Y6136D01*
X9606Y6150D02*
X10119D01*
X9519Y6050D02*
X10178D01*
X9577Y6100D02*
X10148D01*
X10448Y5988D02*
Y6070D01*
X10150Y6016D02*
Y6098D01*
X10450Y5373D02*
Y6072D01*
X10500Y5423D02*
Y6096D01*
X9620Y6200D02*
X10105D01*
X9622Y6250D02*
X10103D01*
X10178Y6043D02*
Y6070D01*
X9611Y6300D02*
X10114D01*
X9700Y5566D02*
Y6950D01*
X9650Y5516D02*
Y6950D01*
X9800Y5666D02*
Y6950D01*
X9750Y5616D02*
Y6950D01*
X9250Y6364D02*
Y6606D01*
X9600Y6326D02*
Y6644D01*
X9586Y6350D02*
X10139D01*
X9900Y5766D02*
Y6950D01*
X9850Y5716D02*
Y6950D01*
X10000Y5866D02*
Y6950D01*
X9950Y5816D02*
Y6950D01*
X10100Y5966D02*
Y6950D01*
X10050Y5916D02*
Y6950D01*
X10150Y6364D02*
Y6606D01*
X10500Y6366D02*
Y6644D01*
X10600Y5515D02*
Y6096D01*
X10550Y5473D02*
Y6096D01*
X10700Y5525D02*
Y6096D01*
X10650Y5525D02*
Y6096D01*
X10800Y5525D02*
Y6096D01*
X10750Y5525D02*
Y6096D01*
X10473D02*
X10831D01*
X10850Y5525D02*
Y6097D01*
X10900Y5525D02*
Y6115D01*
X10950Y5525D02*
Y6159D01*
X11000Y5525D02*
Y6209D01*
X10926Y6136D02*
X11029Y6238D01*
X11700Y5525D02*
Y6213D01*
X11500Y5525D02*
Y6238D01*
X11650Y5525D02*
Y6213D01*
X11100Y5525D02*
Y6238D01*
X11050Y5525D02*
Y6238D01*
X11029D02*
X11628D01*
X11150Y5525D02*
Y6238D01*
X10700Y6366D02*
Y6950D01*
X10650Y6366D02*
Y6950D01*
X10473Y6366D02*
X10775D01*
X10878Y6468D01*
X11250Y5525D02*
Y6238D01*
X11200Y5525D02*
Y6238D01*
X11350Y5525D02*
Y6238D01*
X11300Y5525D02*
Y6238D01*
X11450Y5525D02*
Y6238D01*
X11400Y5525D02*
Y6238D01*
X11628Y6213D02*
Y6238D01*
X11550Y5525D02*
Y6238D01*
X11600Y5525D02*
Y6238D01*
X9500Y6422D02*
Y6548D01*
X9300Y6408D02*
Y6562D01*
X9537Y6400D02*
X10188D01*
X9550Y6390D02*
Y6580D01*
X9400Y6441D02*
Y6529D01*
X9350Y6431D02*
Y6539D01*
X9450Y6438D02*
Y6532D01*
X9504Y6550D02*
X10221D01*
X10250Y6431D02*
Y6539D01*
X10200Y6408D02*
Y6562D01*
X10400Y6422D02*
Y6548D01*
X10450Y6390D02*
Y6580D01*
X9603Y6650D02*
X10122D01*
X9619Y6700D02*
X10106D01*
X10300Y6441D02*
Y6529D01*
X9570Y6600D02*
X10155D01*
X10350Y6438D02*
Y6532D01*
X9550Y6898D02*
Y6950D01*
X9250Y6872D02*
Y6950D01*
X9591Y6850D02*
X10134D01*
X9600Y6834D02*
Y6950D01*
X9350Y6939D02*
Y6950D01*
X9300Y6916D02*
Y6950D01*
X9547Y6900D02*
X10178D01*
X9500Y6930D02*
Y6950D01*
X9622Y6750D02*
X10103D01*
X9613Y6800D02*
X10112D01*
X10500Y6834D02*
Y6950D01*
X10200Y6916D02*
Y6950D01*
X10150Y6872D02*
Y6950D01*
X10450Y6898D02*
Y6950D01*
X10250Y6939D02*
Y6950D01*
X10400Y6930D02*
Y6950D01*
X10437Y6400D02*
X10809D01*
X10550Y6366D02*
Y6950D01*
X10404Y6550D02*
X11648D01*
X10470Y6600D02*
X11630D01*
X10503Y6650D02*
X11630D01*
X10519Y6700D02*
X11646D01*
X10522Y6750D02*
X11686D01*
X10950Y6506D02*
Y6950D01*
X10973Y6508D02*
X11628D01*
X11000D02*
Y6950D01*
X11628Y6508D02*
Y6533D01*
X11050Y6508D02*
Y6950D01*
X11628Y6533D02*
X11653D01*
X11650D02*
Y6546D01*
X11653Y6533D02*
Y6541D01*
X10750Y6366D02*
Y6950D01*
X10600Y6366D02*
Y6950D01*
X10850Y6441D02*
Y6950D01*
X10800Y6391D02*
Y6950D01*
X11100Y6508D02*
Y6950D01*
X10900Y6487D02*
Y6950D01*
X11250Y6508D02*
Y6950D01*
X11150Y6508D02*
Y6950D01*
X11200Y6508D02*
Y6950D01*
X11350Y6508D02*
Y6950D01*
X11300Y6508D02*
Y6950D01*
X11450Y6508D02*
Y6950D01*
X11400Y6508D02*
Y6950D01*
X11550Y6508D02*
Y6950D01*
X11500Y6508D02*
Y6950D01*
X11700Y6761D02*
Y6950D01*
X11600Y6508D02*
Y6950D01*
X11650Y6708D02*
Y6950D01*
X11642Y4300D02*
X11767D01*
X11648Y4200D02*
X12086D01*
X11609Y4250D02*
X12032D01*
X11662Y4350D02*
X11745D01*
X11665Y4382D02*
X11748Y4466D01*
X12022Y4250D02*
X12032D01*
X12050Y4167D02*
Y4232D01*
X12032Y4250D02*
X12068Y4215D01*
X11832Y4270D02*
X11878D01*
X11832Y4530D02*
X11878D01*
X11850D02*
Y4570D01*
X11808Y4550D02*
X12019D01*
X11832Y4570D02*
X11878D01*
X11900Y4527D02*
Y4573D01*
X11950Y4522D02*
Y4578D01*
X12022Y4550D02*
X12068D01*
X12022D02*
X12068D01*
X12100Y4545D02*
Y4555D01*
X12616Y4200D02*
X13195D01*
X12175Y4433D02*
X12190Y4417D01*
X12175Y4433D02*
Y4442D01*
X12175Y4450D02*
X12244D01*
X12158Y4500D02*
X12341D01*
X12666Y4250D02*
X12811D01*
X12676Y4260D02*
X12795D01*
X12929Y4250D02*
X13195D01*
X12980Y4300D02*
X13195D01*
X12988Y4400D02*
X13195D01*
X12150Y4512D02*
Y4588D01*
X12071Y4550D02*
X12391D01*
X12200Y4426D02*
Y4674D01*
X12175Y4650D02*
X12245D01*
X12158Y4600D02*
X12341D01*
X12300Y4460D02*
Y4640D01*
X12250Y4452D02*
Y4648D01*
X12301Y4460D02*
X12391Y4550D01*
X12350Y4509D02*
Y4591D01*
X12301Y4640D02*
X12391Y4550D01*
X12985Y4550D02*
X13195D01*
X12985Y4650D02*
X13185D01*
X11950Y4822D02*
Y4870D01*
X11846Y4830D02*
X11878D01*
X11846D02*
X11886Y4870D01*
X11865Y4850D02*
X12019D01*
X11886Y4870D02*
X12052D01*
X12175Y4658D02*
Y4667D01*
X12190Y4683D01*
X12464Y4803D02*
X12552Y4715D01*
X12550Y4717D02*
Y4870D01*
X12022Y4850D02*
X12032D01*
X12000Y4848D02*
Y4870D01*
X12500Y4767D02*
Y4870D01*
X12032Y4850D02*
X12052Y4870D01*
X11800Y5525D02*
Y6213D01*
X11750Y5525D02*
Y6213D01*
X11900Y4827D02*
Y4870D01*
X11850Y5525D02*
Y6213D01*
X11628D02*
X11948D01*
X11900Y5525D02*
Y6213D01*
X11950Y5525D02*
Y6242D01*
X11948Y6213D02*
Y6244D01*
X12350Y5525D02*
Y6244D01*
X12450Y5525D02*
Y6248D01*
X12550Y5525D02*
Y6213D01*
X12500Y5525D02*
Y6221D01*
X12050Y5525D02*
Y6213D01*
X12000Y5525D02*
Y6219D01*
X12100Y5525D02*
Y6224D01*
X12250Y5525D02*
Y6241D01*
X12300Y5525D02*
Y6233D01*
X12552Y4715D02*
X12821D01*
X12467Y4800D02*
X13073D01*
X12517Y4750D02*
X13083D01*
X12457Y4850D02*
X13083D01*
X12450Y4870D02*
X13094D01*
X10645Y5525D02*
X14332D01*
X10066Y5550D02*
X17950D01*
X10116Y5600D02*
X17950D01*
X12700Y4715D02*
Y4870D01*
X12650Y4715D02*
Y4870D01*
X12945Y4700D02*
X13123D01*
X12950Y4696D02*
Y4870D01*
X12750Y4715D02*
Y4870D01*
X12600Y4715D02*
Y4870D01*
X12900Y4721D02*
Y4870D01*
X12800Y4715D02*
Y4870D01*
X12850Y4723D02*
Y4870D01*
X10266Y5750D02*
X17950D01*
X10316Y5800D02*
X17950D01*
X10166Y5650D02*
X17950D01*
X10216Y5700D02*
X17950D01*
X10448Y6000D02*
X17950D01*
X10448Y6050D02*
X17950D01*
X10366Y5850D02*
X17950D01*
X10415Y5900D02*
X17950D01*
X10442Y5950D02*
X17950D01*
X12600Y5525D02*
Y6221D01*
X12650Y5525D02*
Y6248D01*
X12750Y5525D02*
Y6222D01*
X12900Y5525D02*
Y6245D01*
X12800Y5525D02*
Y6213D01*
X12850Y5525D02*
Y6220D01*
X10863Y6100D02*
X17329D01*
X10941Y6150D02*
X17242D01*
X10991Y6200D02*
X17185D01*
X13425Y4250D02*
X13610D01*
X12995Y4350D02*
X13195D01*
X13425Y4300D02*
X13619D01*
X13425Y4350D02*
X13652D01*
X12993Y4500D02*
X13195D01*
X12995Y4600D02*
X13195D01*
X13425Y4400D02*
X14459D01*
X12991Y4450D02*
X13195D01*
X13425Y4200D02*
X13619D01*
X13425Y4650D02*
X14281D01*
X14148Y4650D02*
X14281D01*
X13881Y4300D02*
X14455D01*
X13425Y4550D02*
X14455D01*
X13425Y4450D02*
X14457D01*
X13151Y4684D02*
X13195Y4640D01*
X13313Y4847D02*
X13391Y4769D01*
X13400Y4759D02*
Y4870D01*
X13407Y4750D02*
X14002D01*
X13360Y4800D02*
X13952D01*
X13700Y4381D02*
Y4870D01*
X13650Y4348D02*
Y4870D01*
X13850Y4348D02*
Y4870D01*
X13800Y4381D02*
Y4870D01*
X13424Y4700D02*
X14052D01*
X13750Y4390D02*
Y4870D01*
X13882D02*
X14070Y4682D01*
X13881Y4200D02*
X14521D01*
X14639D02*
X17950D01*
X13848Y4350D02*
X14462D01*
X14648Y4205D02*
X14680D01*
X13890Y4250D02*
X14470D01*
X14754Y4236D02*
X14824Y4306D01*
X14768Y4250D02*
X17950D01*
X14818Y4300D02*
X17950D01*
X14851Y4350D02*
X17950D01*
X14855Y4450D02*
X17950D01*
X14855Y4400D02*
X17950D01*
X13425Y4600D02*
X14465D01*
X13425Y4500D02*
X14465D01*
X14399Y4650D02*
X14475D01*
X14450Y4700D02*
X14475D01*
X14458Y4800D02*
X14475D01*
X14855Y4500D02*
X17950D01*
X14855Y4380D02*
Y5003D01*
Y4550D02*
X17950D01*
X14855Y4600D02*
X17950D01*
X14465Y4750D02*
X14475D01*
Y4618D02*
Y4945D01*
X14855Y4650D02*
X17950D01*
X14855Y4750D02*
X17950D01*
X14855Y4700D02*
X17950D01*
X13350Y4810D02*
Y4870D01*
X13312Y4850D02*
X13902D01*
X13301Y4870D02*
X13882D01*
X14188Y5150D02*
X14270D01*
X14250Y5088D02*
Y5170D01*
X14288Y5050D02*
X14370D01*
X14238Y5100D02*
X14320D01*
X14350Y4919D02*
Y4942D01*
X14450Y4820D02*
Y4970D01*
X14400Y4870D02*
Y5020D01*
X14350Y4947D02*
Y5070D01*
X14300Y5038D02*
Y5120D01*
X14334Y5000D02*
X14420D01*
X13300Y5525D02*
Y6213D01*
X13250Y5525D02*
Y6226D01*
X13350Y5525D02*
Y6218D01*
X13400Y5525D02*
Y6239D01*
X13050Y5525D02*
Y6213D01*
X13000Y5525D02*
Y6224D01*
X13100Y5525D02*
Y6219D01*
X13150Y5525D02*
Y6242D01*
X14153Y5185D02*
X14235D01*
X14200Y5138D02*
Y5185D01*
X14153D02*
X14318Y5020D01*
X14300Y5525D02*
Y6213D01*
X14250Y5525D02*
Y6213D01*
X14350Y5524D02*
Y6213D01*
X14400Y5501D02*
Y6213D01*
X14350Y4950D02*
X14470D01*
X14235Y5185D02*
X14475Y4945D01*
X14427Y4850D02*
X14475D01*
X14358Y4900D02*
X14475D01*
X14651Y5250D02*
X17950D01*
X14601Y5300D02*
X17950D01*
X14751Y5150D02*
X17950D01*
X14701Y5200D02*
X17950D01*
X14855Y4900D02*
X17950D01*
X14855Y4950D02*
X17950D01*
X14855Y4800D02*
X17950D01*
X14855Y4850D02*
X17950D01*
X14855Y5000D02*
X17950D01*
X14801Y5100D02*
X17950D01*
X14844Y5050D02*
X17950D01*
X14500Y5401D02*
Y6213D01*
X14550Y5351D02*
Y6242D01*
X14501Y5400D02*
X17950D01*
X14407Y5494D02*
X14824Y5077D01*
X14228Y6213D02*
X14548D01*
X14450Y5451D02*
Y6213D01*
X14451Y5450D02*
X17950D01*
X14401Y5500D02*
X17950D01*
X14548Y6213D02*
Y6244D01*
X14650Y5251D02*
Y6213D01*
X14700Y5201D02*
Y6224D01*
X14850Y5035D02*
Y6220D01*
X14800Y5101D02*
Y6245D01*
X14551Y5350D02*
X17950D01*
X14600Y5301D02*
Y6219D01*
X17671Y6100D02*
X17950D01*
X17758Y6150D02*
X17950D01*
X17815Y6200D02*
X17950D01*
X12150Y5525D02*
Y6255D01*
X12200Y5525D02*
Y6271D01*
X12144Y6250D02*
X12229D01*
X12363D02*
X12448D01*
X12355Y6500D02*
X12453D01*
X12400Y5525D02*
Y6279D01*
X12700Y5525D02*
Y6251D01*
X12950Y5525D02*
Y6255D01*
X12652Y6250D02*
X12702D01*
X12647Y6500D02*
X12707D01*
X12906Y6250D02*
X12956D01*
X12901Y6500D02*
X12961D01*
X12400Y6467D02*
Y6533D01*
X12150Y6491D02*
Y6509D01*
X12200Y6475D02*
Y6525D01*
X12139Y6500D02*
X12237D01*
X12700Y6495D02*
Y6505D01*
X12950Y6491D02*
Y6509D01*
X13200Y5525D02*
Y6259D01*
X13160Y6250D02*
X13210D01*
X13200Y6487D02*
Y6513D01*
X13155Y6500D02*
X13215D01*
X13450Y5525D02*
Y6292D01*
X14228Y6213D02*
Y6533D01*
X13414Y6250D02*
X14228D01*
X13454Y6300D02*
X14228D01*
X13470Y6350D02*
X14228D01*
X13470Y6400D02*
X14228D01*
X13409Y6500D02*
X14228D01*
X13452Y6450D02*
X14228D01*
X13650Y5525D02*
Y6950D01*
X13600Y5525D02*
Y6950D01*
X13750Y5525D02*
Y6950D01*
X13700Y5525D02*
Y6950D01*
X13450Y6454D02*
Y6546D01*
X13550Y5525D02*
Y6950D01*
X13500Y5525D02*
Y6950D01*
X14100Y5525D02*
Y6950D01*
X14050Y5525D02*
Y6950D01*
X14200Y5525D02*
Y6950D01*
X14150Y5525D02*
Y6950D01*
X13850Y5525D02*
Y6950D01*
X13800Y5525D02*
Y6950D01*
X14000Y5525D02*
Y6950D01*
X13900Y5525D02*
Y6950D01*
X13950Y5525D02*
Y6950D01*
X11890Y6750D02*
X11940D01*
X11800Y6787D02*
Y6950D01*
X11750Y6782D02*
Y6950D01*
X12100Y6776D02*
Y6950D01*
X12050Y6787D02*
Y6950D01*
X12144Y6750D02*
X12229D01*
X12363D02*
X12448D01*
X12652D02*
X12702D01*
X11950Y6758D02*
Y6950D01*
X11900Y6741D02*
Y6950D01*
X12200Y6729D02*
Y6950D01*
X12150Y6745D02*
Y6950D01*
X12000Y6781D02*
Y6950D01*
X11850Y6775D02*
Y6950D01*
X12300Y6767D02*
Y6950D01*
X12250Y6759D02*
Y6950D01*
X12450Y6752D02*
Y6950D01*
X12400Y6721D02*
Y6950D01*
X12700Y6749D02*
Y6950D01*
X12650Y6752D02*
Y6950D01*
X12500Y6779D02*
Y6950D01*
X12350Y6756D02*
Y6950D01*
X12750Y6778D02*
Y6950D01*
X12550Y6787D02*
Y6950D01*
X12600Y6779D02*
Y6950D01*
X12906Y6750D02*
X12956D01*
X13160D02*
X13210D01*
X14250Y6533D02*
Y6546D01*
X13452Y6550D02*
X14248D01*
X14228Y6533D02*
X14259D01*
X13470Y6650D02*
X14230D01*
X13470Y6600D02*
X14230D01*
X13414Y6750D02*
X14286D01*
X13454Y6700D02*
X14246D01*
X12900Y6755D02*
Y6950D01*
X12850Y6780D02*
Y6950D01*
X13000Y6776D02*
Y6950D01*
X12950Y6745D02*
Y6950D01*
X13050Y6787D02*
Y6950D01*
X12800Y6787D02*
Y6950D01*
X10513Y6800D02*
X17185D01*
X10447Y6900D02*
X17329D01*
X10491Y6850D02*
X17242D01*
X13200Y6741D02*
Y6950D01*
X13150Y6758D02*
Y6950D01*
X14250Y6708D02*
Y6950D01*
X13450Y6708D02*
Y6950D01*
X13250Y6774D02*
Y6950D01*
X13100Y6781D02*
Y6950D01*
X13400Y6761D02*
Y6950D01*
X13300Y6787D02*
Y6950D01*
X13350Y6782D02*
Y6950D01*
X14750Y5151D02*
Y6255D01*
X14744Y6250D02*
X14794D01*
X14739Y6500D02*
X14799D01*
X14993D02*
X15053D01*
X14998Y6250D02*
X15048D01*
X15252D02*
X15302D01*
X15247Y6500D02*
X15307D01*
X15506Y6250D02*
X15556D01*
X15501Y6500D02*
X15561D01*
X14750Y6491D02*
Y6509D01*
X15000Y6495D02*
Y6505D01*
X15550Y6491D02*
Y6509D01*
X15300Y6495D02*
Y6505D01*
X15760Y6250D02*
X15810D01*
X16014D02*
X17144D01*
X15755Y6500D02*
X15815D01*
X16052Y6450D02*
X17068D01*
X16009Y6500D02*
X17065D01*
X16054Y6300D02*
X17114D01*
X16070Y6350D02*
X17092D01*
X17856Y6250D02*
X17950D01*
X17886Y6300D02*
X17950D01*
X17908Y6350D02*
X17950D01*
X16070Y6400D02*
X17077D01*
X17923D02*
X17950D01*
X17932Y6450D02*
X17950D01*
X17935Y6500D02*
X17950D01*
X15800Y6487D02*
Y6513D01*
X16050Y6454D02*
Y6546D01*
X16052Y6550D02*
X17068D01*
X16070Y6600D02*
X17077D01*
X17932Y6550D02*
X17950D01*
X16070Y6650D02*
X17092D01*
X17100Y6671D02*
Y6950D01*
X17923Y6600D02*
X17950D01*
X17900Y6671D02*
Y6950D01*
X17908Y6650D02*
X17950D01*
X14450Y6775D02*
Y6950D01*
X14300Y6761D02*
Y6950D01*
X14490Y6750D02*
X14540D01*
X14400Y6787D02*
Y6950D01*
X14350Y6782D02*
Y6950D01*
X14650Y6787D02*
Y6950D01*
X14600Y6781D02*
Y6950D01*
X14750Y6745D02*
Y6950D01*
X14744Y6750D02*
X14794D01*
X14700Y6776D02*
Y6950D01*
X15252Y6750D02*
X15302D01*
X14800Y6755D02*
Y6950D01*
X14998Y6750D02*
X15048D01*
X14550Y6758D02*
Y6950D01*
X14500Y6741D02*
Y6950D01*
X15050Y6752D02*
Y6950D01*
X15000Y6749D02*
Y6950D01*
X14900Y6787D02*
Y6950D01*
X14850Y6780D02*
Y6950D01*
X15100Y6779D02*
Y6950D01*
X14950Y6778D02*
Y6950D01*
X15300Y6749D02*
Y6950D01*
X15250Y6752D02*
Y6950D01*
X15550Y6745D02*
Y6950D01*
X15500Y6755D02*
Y6950D01*
X15200Y6779D02*
Y6950D01*
X15150Y6787D02*
Y6950D01*
X15450Y6780D02*
Y6950D01*
X15350Y6778D02*
Y6950D01*
X15400Y6787D02*
Y6950D01*
X15506Y6750D02*
X15556D01*
X15600Y6776D02*
Y6950D01*
X15760Y6750D02*
X15810D01*
X15700Y6781D02*
Y6950D01*
X15650Y6787D02*
Y6950D01*
X15950Y6782D02*
Y6950D01*
X15900Y6787D02*
Y6950D01*
X16054Y6700D02*
X17114D01*
X16050Y6708D02*
Y6950D01*
X17886Y6700D02*
X17950D01*
X16014Y6750D02*
X17144D01*
X17856D02*
X17950D01*
X16000Y6761D02*
Y6950D01*
X17815Y6800D02*
X17950D01*
X17671Y6900D02*
X17950D01*
X17758Y6850D02*
X17950D01*
X15800Y6741D02*
Y6950D01*
X15750Y6758D02*
Y6950D01*
X17150Y6758D02*
Y6950D01*
X15850Y6774D02*
Y6950D01*
X17250Y6856D02*
Y6950D01*
X17200Y6815D02*
Y6950D01*
X17400Y6923D02*
Y6950D01*
X17300Y6886D02*
Y6950D01*
X17350Y6908D02*
Y6950D01*
X17750Y6856D02*
Y6950D01*
X17700Y6886D02*
Y6950D01*
X17850Y6758D02*
Y6950D01*
X17800Y6815D02*
Y6950D01*
X17500Y6935D02*
Y6950D01*
X17450Y6932D02*
Y6950D01*
X17650Y6908D02*
Y6950D01*
X17550Y6932D02*
Y6950D01*
X17600Y6923D02*
Y6950D01*
D11*
X11250Y4255D02*
D03*
Y4065D02*
D03*
X1668Y580D02*
D03*
Y390D02*
D03*
X1268Y580D02*
D03*
Y390D02*
D03*
X1468Y580D02*
D03*
Y390D02*
D03*
X3138Y2885D02*
D03*
Y2695D02*
D03*
X2430Y1653D02*
D03*
Y1843D02*
D03*
X16550Y1305D02*
D03*
Y1495D02*
D03*
X16650Y2345D02*
D03*
Y2155D02*
D03*
X15950Y1305D02*
D03*
X15950Y1495D02*
D03*
X16050Y2345D02*
D03*
X16050Y2155D02*
D03*
X15350Y1305D02*
D03*
Y1495D02*
D03*
X15450Y2345D02*
D03*
Y2155D02*
D03*
X14750Y1305D02*
D03*
X14750Y1495D02*
D03*
X14850Y2345D02*
D03*
Y2155D02*
D03*
X12150Y1305D02*
D03*
Y1495D02*
D03*
X12250Y2345D02*
D03*
Y2155D02*
D03*
X8475Y1105D02*
D03*
Y1295D02*
D03*
X7325Y1105D02*
D03*
Y1295D02*
D03*
X11550Y1305D02*
D03*
Y1495D02*
D03*
X8275Y1105D02*
D03*
X8275Y1295D02*
D03*
X7125Y1105D02*
D03*
Y1295D02*
D03*
X11650Y2345D02*
D03*
Y2155D02*
D03*
X10950Y1305D02*
D03*
X10950Y1495D02*
D03*
X11050Y2345D02*
D03*
Y2155D02*
D03*
X10350Y1305D02*
D03*
Y1495D02*
D03*
X10450Y2345D02*
D03*
X10450Y2155D02*
D03*
X6590Y3375D02*
D03*
Y3185D02*
D03*
X6390Y3375D02*
D03*
X6390Y3185D02*
D03*
X7747Y3675D02*
D03*
X7747Y3485D02*
D03*
X7953Y3483D02*
D03*
X7953Y3672D02*
D03*
X3765Y4060D02*
D03*
X3765Y4250D02*
D03*
D12*
X7085Y3635D02*
D03*
X7211D02*
D03*
X7339D02*
D03*
X7465D02*
D03*
X7085Y3015D02*
D03*
X7211Y3015D02*
D03*
X7339D02*
D03*
D13*
X7465Y3015D02*
D03*
D14*
X1108Y2050D02*
D03*
Y2177D02*
D03*
Y2304D02*
D03*
Y2431D02*
D03*
X1738Y2050D02*
D03*
Y2177D02*
D03*
Y2304D02*
D03*
X2865Y2921D02*
D03*
Y2794D02*
D03*
Y2667D02*
D03*
Y2540D02*
D03*
X2235Y2921D02*
D03*
Y2794D02*
D03*
Y2667D02*
D03*
D15*
X1738Y2431D02*
D03*
X2235Y2540D02*
D03*
D25*
X11250Y4635D02*
D03*
Y4445D02*
D03*
X1995Y1863D02*
D03*
Y1673D02*
D03*
X8675Y1105D02*
D03*
Y1295D02*
D03*
X7525Y1105D02*
D03*
Y1295D02*
D03*
X6975Y2338D02*
D03*
X6975Y2527D02*
D03*
X6828Y3375D02*
D03*
Y3185D02*
D03*
X3515Y4250D02*
D03*
Y4060D02*
D03*
D26*
X5733Y4572D02*
D03*
X5922D02*
D03*
X5680Y3185D02*
D03*
X5870D02*
D03*
X2445Y3105D02*
D03*
X2635D02*
D03*
X16945Y1450D02*
D03*
X16755D02*
D03*
X16345D02*
D03*
X16155D02*
D03*
X15745D02*
D03*
X15555D02*
D03*
X15145D02*
D03*
X14955D02*
D03*
X12045Y4400D02*
D03*
X11855D02*
D03*
X12045Y4700D02*
D03*
X11855D02*
D03*
X12545Y1450D02*
D03*
X12355D02*
D03*
X11945Y1450D02*
D03*
X11755D02*
D03*
X11345D02*
D03*
X11155D02*
D03*
X10745D02*
D03*
X10555D02*
D03*
X1140Y2998D02*
D03*
X1330D02*
D03*
X1660D02*
D03*
X1850D02*
D03*
D27*
X6233Y1388D02*
D03*
X5933D02*
D03*
D33*
X11543Y3680D02*
X11703D01*
X12110Y4088D01*
X12362D01*
X12635Y4360D01*
X12870D01*
X11250Y4255D02*
Y4445D01*
Y4255D02*
X11378D01*
X11505Y4128D01*
Y3717D02*
Y4128D01*
Y3717D02*
X11543Y3680D01*
D34*
X11504Y4635D02*
X11505Y4636D01*
X11250Y4635D02*
X11504D01*
X12188Y3058D02*
X12712Y2533D01*
X11610Y3058D02*
X12188D01*
X10953Y3715D02*
X11610Y3058D01*
X12888Y2027D02*
Y2517D01*
X12243Y3162D02*
X12888Y2517D01*
X12053Y3162D02*
X12243D01*
X11638Y3578D02*
X12053Y3162D01*
X10210Y3715D02*
X10953D01*
X12257Y3772D02*
X12262Y3778D01*
X12143Y3772D02*
X12257D01*
X12110Y3740D02*
X12143Y3772D01*
X12110Y3488D02*
Y3740D01*
Y3488D02*
X12147Y3450D01*
X14348D01*
X14548Y3250D01*
X14650D01*
X13198Y4800D02*
X13310Y4688D01*
Y3578D02*
Y4688D01*
Y3578D02*
X14523D01*
X12262D02*
X13310D01*
X14523D02*
X14650Y3450D01*
X11638Y3778D02*
X11855Y3995D01*
Y4400D01*
X14650Y3250D02*
X15077Y2823D01*
Y2531D02*
Y2823D01*
X7672Y1295D02*
X7672Y1295D01*
X7525Y1295D02*
X7672D01*
X8833D02*
X8835Y1298D01*
X8675Y1295D02*
X8833D01*
X12795Y-283D02*
X15123D01*
X10615D02*
X12795D01*
X12795Y-282D02*
X12795Y-283D01*
X12795Y-282D02*
Y450D01*
X12863Y518D02*
Y641D01*
X12795Y450D02*
X12863Y518D01*
X12425Y450D02*
X12795D01*
X14013Y501D02*
Y641D01*
X13962Y450D02*
X14013Y501D01*
X13575Y450D02*
X13962D01*
X10745Y1168D02*
Y1450D01*
Y1168D02*
X11084Y828D01*
Y641D02*
Y828D01*
X17275Y-425D02*
X17700Y0D01*
X6785Y-425D02*
X17275D01*
X6557Y-198D02*
X6785Y-425D01*
X6557Y-198D02*
Y1475D01*
X6350Y1683D02*
X6557Y1475D01*
X6700Y460D02*
Y2283D01*
Y460D02*
X6928Y233D01*
X8553D01*
X8697Y378D01*
X9200D01*
X12149Y4804D02*
X12300D01*
X12045Y4700D02*
X12149Y4804D01*
Y4296D02*
X12300D01*
X12045Y4400D02*
X12149Y4296D01*
X12484Y4480D02*
X12870D01*
X12300Y4296D02*
X12484Y4480D01*
X12504Y4600D02*
X12870D01*
X12300Y4804D02*
X12504Y4600D01*
X11855Y4400D02*
Y4700D01*
X1850Y2998D02*
X1865Y2982D01*
Y2745D02*
Y2982D01*
X1611Y2745D02*
Y2949D01*
X1660Y2998D01*
X1357Y2745D02*
Y2970D01*
X1330Y2998D02*
X1357Y2970D01*
X1103Y2745D02*
Y2961D01*
X1140Y2998D01*
X3515Y4250D02*
X3515Y4250D01*
X3765D01*
X3875D01*
X4000Y4375D01*
Y4525D01*
X2384Y2667D02*
X2468Y2583D01*
X2235Y2667D02*
X2384D01*
X2235D02*
Y2794D01*
X2430Y1843D02*
X2468Y1880D01*
Y2583D01*
X2229Y1633D02*
X2326D01*
X2345Y1653D01*
X2430D01*
X2229Y1887D02*
X2303D01*
X2348Y1843D01*
X2430D01*
X1027Y2050D02*
X1108D01*
X1025Y2048D02*
X1027Y2050D01*
X6425Y2283D02*
X6700D01*
X6150D02*
X6425D01*
X5875D02*
X6150D01*
X6700D02*
X6882D01*
X6938Y2338D01*
X6975D01*
X6700Y2583D02*
X6920D01*
X6975Y2527D01*
X5875Y2583D02*
X6150D01*
X6425D01*
X6700D01*
Y2775D01*
X6744Y2819D01*
X6846D01*
X7085Y2909D02*
Y3015D01*
X6994Y2819D02*
X7085Y2909D01*
X6846Y2819D02*
X6994D01*
X6590Y3375D02*
X6828D01*
X6590Y3375D02*
X6590Y3375D01*
X6390Y3375D02*
X6590D01*
X6390Y3375D02*
X6390Y3375D01*
X6828Y3375D02*
X7211D01*
Y3015D02*
Y3375D01*
X7638D01*
X7747Y3485D01*
X7750Y3672D02*
X7953D01*
X7747Y3675D02*
X7750Y3672D01*
X7625Y3675D02*
X7747D01*
X7575Y3625D02*
X7625Y3675D01*
X7475Y3625D02*
X7575D01*
X7465Y3635D02*
X7475Y3625D01*
X7719Y3202D02*
X7877D01*
X7953Y3278D01*
Y3483D01*
X7465Y2948D02*
Y3015D01*
Y2948D02*
X7719D01*
X7465Y3635D02*
Y3760D01*
X7400Y3825D02*
X7465Y3760D01*
X7025Y3825D02*
X7400D01*
X6750Y3550D02*
X7025Y3825D01*
X5680Y3185D02*
Y3330D01*
X5900Y3550D01*
X6750D01*
X11714Y489D02*
Y641D01*
X11675Y450D02*
X11714Y489D01*
X11275Y450D02*
X11675D01*
X11084Y641D02*
X11275Y450D01*
X10564Y641D02*
X11084D01*
X12234D02*
X12425Y450D01*
X11714Y641D02*
X12234D01*
X13384D02*
X13575Y450D01*
X12863Y641D02*
X13384D01*
X6975Y2338D02*
X7138D01*
X7200Y2400D01*
Y2700D01*
X7339Y2839D01*
Y3015D01*
X15950Y1305D02*
X16038D01*
X16455Y1305D02*
X16550D01*
X16038Y1305D02*
X16100Y1243D01*
X16393D01*
X16455Y1305D01*
X15793Y1243D02*
X15855Y1305D01*
X15500Y1243D02*
X15793D01*
X15438Y1305D02*
X15500Y1243D01*
X15855Y1305D02*
X15950D01*
X15350Y1305D02*
X15438D01*
X15193Y1243D02*
X15255Y1305D01*
X14900Y1243D02*
X15193D01*
X14838Y1305D02*
X14900Y1243D01*
X15255Y1305D02*
X15350D01*
X14551Y1305D02*
X14838D01*
X14140Y894D02*
X14551Y1305D01*
X16943Y-283D02*
X17225Y0D01*
X16525Y-280D02*
Y0D01*
Y-280D02*
X16527Y-283D01*
X16943D01*
X15825Y-283D02*
Y0D01*
Y-283D02*
X15825Y-283D01*
X16527D01*
X15125Y-280D02*
Y0D01*
X15123Y-283D02*
X15125Y-280D01*
X15123Y-283D02*
X15825D01*
X7125Y1105D02*
X7187Y1044D01*
Y895D02*
Y1044D01*
X8275Y1105D02*
X8337Y1044D01*
Y895D02*
Y1044D01*
X7125Y1295D02*
X7325D01*
X7525D01*
X8275D02*
X8475D01*
X8675D01*
X16550Y1305D02*
X16608D01*
X16670Y1243D01*
X17220D01*
X17700Y762D01*
X10238Y378D02*
X10485Y130D01*
X9200Y378D02*
X10238D01*
X10485Y-152D02*
Y130D01*
Y-152D02*
X10615Y-283D01*
X912Y2558D02*
Y3612D01*
Y2558D02*
X1040Y2431D01*
X1108D01*
X4814Y2686D02*
X5818Y1683D01*
X6350D01*
X4814Y2686D02*
Y3064D01*
X4935Y3185D01*
X5680D01*
D35*
X6042Y4578D02*
X6084Y4619D01*
X5940Y4578D02*
X6042D01*
X5938Y4580D02*
X5940Y4578D01*
X6084Y4619D02*
Y4851D01*
X5576Y4712D02*
X5694Y4594D01*
X11788Y6373D02*
Y6627D01*
X9200Y378D02*
Y762D01*
Y254D02*
Y378D01*
X6233Y1107D02*
Y1388D01*
X6210Y1085D02*
X6233Y1107D01*
X5933Y1107D02*
Y1388D01*
Y1107D02*
X5955Y1085D01*
X1468Y580D02*
X1668D01*
X1268D02*
X1468D01*
X1135D02*
X1268D01*
X1132Y578D02*
X1135Y580D01*
X1005Y705D02*
X1132Y578D01*
X1005Y705D02*
Y1300D01*
X735Y1570D02*
X1005Y1300D01*
X1502Y3447D02*
X1880D01*
X1330Y3275D02*
X1502Y3447D01*
X1330Y2998D02*
Y3275D01*
X1880Y3447D02*
X2185Y3753D01*
X1700Y4250D02*
Y5067D01*
X2745Y4575D02*
X2900Y4730D01*
X2745Y4250D02*
X2950D01*
X2550D02*
X2745D01*
Y4575D01*
X2550Y4250D02*
X2550Y4250D01*
X2550Y3750D02*
X2550Y3750D01*
X2950D01*
X1245Y4250D02*
X1700D01*
X50Y4800D02*
X250D01*
X-50Y4900D02*
X50Y4800D01*
X-127Y3612D02*
X912D01*
X1050Y3750D01*
X1700D01*
X-127Y3358D02*
X127D01*
X5576Y4712D02*
Y4851D01*
X2185Y3753D02*
Y4585D01*
X2775Y5175D01*
X5576Y4851D02*
Y5001D01*
X7060Y641D02*
Y768D01*
X7187Y895D01*
X8210Y641D02*
Y768D01*
X8337Y895D01*
X9200Y0D02*
Y254D01*
X17700Y0D02*
Y254D01*
Y508D01*
Y762D01*
X5576Y5001D02*
X5670Y5095D01*
X10313Y6231D02*
X10831D01*
X10973Y6373D01*
X11788D01*
X2775Y5175D02*
X5025D01*
X5350Y5500D01*
X5670Y5095D02*
X7595D01*
X8513Y6013D01*
Y6231D01*
X7825Y4550D02*
X8875D01*
X10313Y5988D01*
Y6231D01*
X5350Y5500D02*
X7100D01*
X7613Y6013D01*
Y6231D01*
X-367Y1840D02*
X-97Y1570D01*
X735D01*
X-367Y1840D02*
Y3358D01*
X-127D01*
X-367D02*
Y4380D01*
X-345Y4403D01*
X-50Y5400D02*
X50D01*
X150Y5500D01*
X250D01*
X-50Y5900D02*
X50Y5800D01*
X250D01*
X-50Y4400D02*
X150D01*
X250Y4500D01*
D36*
X3553Y6025D02*
X3645Y5933D01*
X3553Y6025D02*
Y6217D01*
X1700Y5067D02*
X2895Y6262D01*
X-345Y4403D02*
Y5308D01*
X1040Y4045D02*
X1245Y4250D01*
X-345Y5308D02*
X-253Y5400D01*
X3645Y5933D02*
X5642D01*
X5941Y6231D01*
X6713D01*
X-345Y4403D02*
X273D01*
X630Y4045D01*
X1040D01*
X-253Y5400D02*
X-50D01*
D38*
X2950Y3750D02*
X3260Y4060D01*
X3515D01*
X3765D01*
D39*
X14332Y5420D02*
X14750Y5003D01*
Y4380D02*
Y5003D01*
X14680Y4310D02*
X14750Y4380D01*
X14306Y5355D02*
X14680Y4981D01*
Y4460D02*
Y4981D01*
X14650Y4430D02*
X14680Y4460D01*
X14580Y4430D02*
X14650D01*
X14580Y4310D02*
X14680D01*
X14279Y5290D02*
X14580Y4989D01*
Y4550D02*
Y4989D01*
X2096Y2921D02*
X2235D01*
X2025Y2850D02*
X2096Y2921D01*
X2025Y2630D02*
Y2850D01*
X1948Y2552D02*
X2025Y2630D01*
X946Y2304D02*
X1108D01*
X881Y2177D02*
X1108D01*
X4700Y270D02*
X5080D01*
X4505Y465D02*
X4700Y270D01*
X4505Y465D02*
Y842D01*
X5193Y383D02*
Y641D01*
X5080Y270D02*
X5193Y383D01*
X1515Y1598D02*
Y1700D01*
X1708Y1893D01*
X1770D01*
X1886Y2304D02*
X1948Y2365D01*
X1738Y2304D02*
X1886D01*
X1738Y2177D02*
X1917D01*
X2043Y2303D01*
Y2445D01*
X2137Y2540D01*
X2235D01*
X1948Y2365D02*
Y2552D01*
X1108Y2177D02*
X1219D01*
X1290Y2105D01*
Y1473D02*
Y2105D01*
X1108Y2304D02*
X1227D01*
X1290Y1473D02*
X1620Y1143D01*
X2660Y2140D02*
X2928Y2408D01*
X2735Y2109D02*
X2926Y2300D01*
X1378Y1518D02*
X1678Y1218D01*
X1378Y1518D02*
Y2153D01*
X1227Y2304D02*
X1378Y2153D01*
X2810Y1830D02*
X2867Y1887D01*
X2991D01*
X4685Y641D02*
X4784Y740D01*
X4923Y795D02*
X4966D01*
X5066Y895D01*
X4784Y740D02*
X4834D01*
X4900Y773D02*
X4923Y795D01*
X4866Y773D02*
X4900D01*
X4834Y740D02*
X4866Y773D01*
X4505Y842D02*
X4558Y895D01*
X425Y2633D02*
X881Y2177D01*
X1200Y1433D02*
X1565Y1068D01*
X1200Y1433D02*
Y1658D01*
X1678Y1218D02*
X2343D01*
X2660Y1535D01*
Y2140D01*
X1620Y1143D02*
X2393D01*
X2735Y1485D01*
Y2109D01*
X1565Y1068D02*
X2443D01*
X2810Y1435D01*
Y1830D01*
X2991Y1887D02*
X3012D01*
X2926Y2300D02*
X3300D01*
X2928Y2408D02*
X3283D01*
X3012Y1887D02*
X5125Y4000D01*
X3300Y2300D02*
X5075Y4075D01*
X3283Y2408D02*
X5025Y4150D01*
X10705Y5355D02*
X14306D01*
X5075Y4075D02*
X9425D01*
X10705Y5355D01*
X5125Y4000D02*
X9475D01*
X10765Y5290D01*
X14279D01*
X5025Y4150D02*
X9375D01*
X10645Y5420D01*
X14332D01*
X262Y2596D02*
X1200Y1658D01*
X127Y2596D02*
X262D01*
X127Y3104D02*
X269D01*
X127Y2850D02*
X270D01*
X425Y2695D01*
Y2633D02*
Y2695D01*
X565Y2685D02*
X946Y2304D01*
X565Y2685D02*
Y2808D01*
X269Y3104D02*
X565Y2808D01*
X1163Y580D02*
X1268D01*
X1468D02*
Y655D01*
X1268Y580D02*
Y655D01*
X1668Y580D02*
X1773D01*
X1668D02*
Y655D01*
X1108Y1980D02*
Y2050D01*
X1103Y2630D02*
Y2745D01*
X1055Y2998D02*
X1140D01*
Y3103D01*
X-242Y3358D02*
X-127D01*
X127D02*
X242D01*
X-50Y4400D02*
X90D01*
X-190D02*
X-50D01*
Y4260D02*
Y4400D01*
Y4540D01*
X250Y4403D02*
Y4500D01*
Y4597D01*
X120Y4500D02*
X250D01*
X380D01*
X1700Y4135D02*
Y4250D01*
Y4365D01*
Y4250D02*
X1815D01*
X1585D02*
X1700D01*
X-50Y5260D02*
Y5400D01*
X-190D02*
X-50D01*
Y5540D01*
Y5400D02*
X90D01*
X120Y5500D02*
X250D01*
Y5403D02*
Y5500D01*
Y5597D01*
Y5500D02*
X380D01*
X2730Y6262D02*
X2895D01*
Y6427D01*
Y6097D02*
Y6262D01*
X5922Y4572D02*
X6008D01*
X5922Y4467D02*
Y4572D01*
Y4678D01*
X6084Y4736D02*
Y4851D01*
X6199D01*
X5969D02*
X6084D01*
X2895Y6262D02*
X3060D01*
X3778Y6217D02*
X3877D01*
Y6317D01*
Y6217D02*
X3977D01*
X7314Y641D02*
X7439D01*
X7525Y1105D02*
X7630D01*
X8675D02*
X8780D01*
X10677Y2531D02*
X10792D01*
X10677Y2416D02*
Y2531D01*
Y2646D01*
X11277Y2416D02*
Y2531D01*
X11392D01*
X11277D02*
Y2646D01*
X8481Y2833D02*
Y2948D01*
X8366D02*
X8481D01*
X8596D01*
X10120Y3915D02*
X10210D01*
X10300D01*
X10210D02*
Y4005D01*
X11638Y3778D02*
Y3867D01*
X11877Y2416D02*
Y2531D01*
Y2646D01*
Y2531D02*
X11992D01*
X12477Y2416D02*
Y2531D01*
X14560Y3250D02*
X14650D01*
Y3160D02*
Y3250D01*
X14740D01*
X15077Y2531D02*
X15192D01*
X15677Y2531D02*
X15792D01*
X15677Y2416D02*
Y2531D01*
X15077Y2416D02*
Y2531D01*
Y2646D01*
X15677Y2531D02*
Y2646D01*
X16277Y2416D02*
Y2531D01*
Y2646D01*
Y2531D02*
X16392D01*
X16878Y2526D02*
X16993D01*
X16878Y2411D02*
Y2526D01*
Y2641D01*
X12262Y3778D02*
Y3867D01*
X12172Y3778D02*
X12262D01*
X12353D01*
X13750Y4135D02*
Y4250D01*
X11145Y4635D02*
X11250D01*
Y4720D01*
X11770Y4400D02*
X11855D01*
Y4295D02*
Y4400D01*
Y4505D01*
Y4595D02*
Y4700D01*
Y4805D01*
X13635Y4250D02*
X13750D01*
X13865D01*
X13750D02*
Y4365D01*
X12296Y6258D02*
Y6373D01*
Y6627D02*
Y6742D01*
D42*
X8000Y2000D02*
D03*
X0Y6500D02*
D03*
Y0D02*
D03*
X17500Y3250D02*
D03*
Y6500D02*
D03*
X2050D02*
D03*
X4850D02*
D03*
X9250Y3250D02*
D03*
D43*
X12300Y4804D02*
D03*
Y4296D02*
D03*
D44*
X630Y753D02*
D03*
Y1007D02*
D03*
Y1260D02*
D03*
X6210Y1085D02*
D03*
X5955D02*
D03*
D45*
X2900Y4730D02*
D03*
D46*
X2895Y6262D02*
D03*
X10313Y6739D02*
D03*
Y6231D02*
D03*
X8513Y6739D02*
D03*
Y6231D02*
D03*
X7613Y6739D02*
D03*
Y6231D02*
D03*
X9413Y6739D02*
D03*
Y6231D02*
D03*
X6713Y6739D02*
D03*
Y6231D02*
D03*
D47*
X2229Y2141D02*
D03*
X2229Y1887D02*
D03*
Y1633D02*
D03*
X2229Y1379D02*
D03*
X2991Y2141D02*
D03*
Y1887D02*
D03*
Y1633D02*
D03*
X16878Y2526D02*
D03*
X16624Y2526D02*
D03*
X16878Y1764D02*
D03*
X16277Y2531D02*
D03*
X16023D02*
D03*
X16277Y1769D02*
D03*
X15677Y2531D02*
D03*
X15423D02*
D03*
X15677Y1769D02*
D03*
X15077Y2531D02*
D03*
X14823D02*
D03*
X15077Y1769D02*
D03*
X12477Y2531D02*
D03*
X12223D02*
D03*
X12477Y1769D02*
D03*
X11877Y2531D02*
D03*
X11623D02*
D03*
X11877Y1769D02*
D03*
X11277Y2531D02*
D03*
X11023D02*
D03*
X11277Y1769D02*
D03*
X10677Y2531D02*
D03*
X10423D02*
D03*
X10677Y1769D02*
D03*
X8481Y2948D02*
D03*
Y3202D02*
D03*
X7719Y2948D02*
D03*
D48*
X2991Y1379D02*
D03*
X7719Y3202D02*
D03*
D49*
X16624Y1764D02*
D03*
X16023Y1769D02*
D03*
X15423D02*
D03*
X14823D02*
D03*
X12223Y1769D02*
D03*
X11623Y1769D02*
D03*
X11023Y1769D02*
D03*
X10423Y1769D02*
D03*
D50*
X4814Y2819D02*
D03*
X6846Y2819D02*
D03*
X6846Y4851D02*
D03*
X6084D02*
D03*
X1357Y2745D02*
D03*
X1611Y2745D02*
D03*
X1865D02*
D03*
X1625Y-75D02*
D03*
X1175D02*
D03*
X2950Y4250D02*
D03*
X2550Y4250D02*
D03*
X2550Y3750D02*
D03*
X2950Y3750D02*
D03*
X1700Y4250D02*
D03*
X13312Y6373D02*
D03*
Y6627D02*
D03*
X13058Y6373D02*
D03*
Y6627D02*
D03*
X12804D02*
D03*
Y6373D02*
D03*
X12550Y6627D02*
D03*
Y6373D02*
D03*
X12296Y6627D02*
D03*
Y6373D02*
D03*
X12042Y6627D02*
D03*
Y6373D02*
D03*
X11788Y6627D02*
D03*
X15912Y6373D02*
D03*
Y6627D02*
D03*
X15658Y6373D02*
D03*
Y6627D02*
D03*
X15404D02*
D03*
Y6373D02*
D03*
X15150Y6627D02*
D03*
Y6373D02*
D03*
X14896Y6627D02*
D03*
Y6373D02*
D03*
X14642Y6627D02*
D03*
Y6373D02*
D03*
X14388Y6627D02*
D03*
X127Y3612D02*
D03*
X-127D02*
D03*
X127Y3358D02*
D03*
X-127D02*
D03*
Y3104D02*
D03*
X127D02*
D03*
X-127Y2850D02*
D03*
X127D02*
D03*
X-127Y2596D02*
D03*
X127D02*
D03*
X-127Y2342D02*
D03*
X127D02*
D03*
X-127Y2088D02*
D03*
X12888Y2027D02*
D03*
X13142D02*
D03*
X13396D02*
D03*
X13650D02*
D03*
X13904D02*
D03*
X14158D02*
D03*
X14412D02*
D03*
Y1773D02*
D03*
X13904D02*
D03*
X13396D02*
D03*
X13142D02*
D03*
X13650D02*
D03*
X14158D02*
D03*
X17700Y762D02*
D03*
Y508D02*
D03*
Y254D02*
D03*
X11505Y4128D02*
D03*
Y4382D02*
D03*
Y4636D02*
D03*
X9200Y762D02*
D03*
Y508D02*
D03*
Y254D02*
D03*
X4000Y4525D02*
D03*
X7825Y4550D02*
D03*
X13750Y4250D02*
D03*
D51*
X5576Y4851D02*
D03*
X1700Y3750D02*
D03*
X127Y2088D02*
D03*
X17700Y0D02*
D03*
X11505Y4890D02*
D03*
X9200Y0D02*
D03*
D52*
X1103Y2745D02*
D03*
X11788Y6373D02*
D03*
X14388D02*
D03*
X12888Y1773D02*
D03*
D53*
X1050Y175D02*
D03*
X1750D02*
D03*
X5868Y-356D02*
D03*
X6122D02*
D03*
X5868Y406D02*
D03*
X-50Y4400D02*
D03*
Y4900D02*
D03*
Y5400D02*
D03*
Y5900D02*
D03*
D54*
X6122Y406D02*
D03*
D55*
X2427Y50D02*
D03*
X2173D02*
D03*
X2427Y-200D02*
D03*
X2173D02*
D03*
X9747Y-203D02*
D03*
X9493D02*
D03*
D56*
X12262Y3778D02*
D03*
X11638D02*
D03*
X10210Y3915D02*
D03*
X14650Y3250D02*
D03*
D57*
X12262Y3578D02*
D03*
X11638D02*
D03*
X10210Y3715D02*
D03*
X14650Y3450D02*
D03*
D58*
X3553Y6217D02*
D03*
D59*
X3877D02*
D03*
D60*
X17225Y0D02*
D03*
X16875D02*
D03*
X16525D02*
D03*
X16175D02*
D03*
X15825D02*
D03*
X15475D02*
D03*
X15125D02*
D03*
X14775D02*
D03*
D61*
X14140Y894D02*
D03*
X14013Y641D02*
D03*
X13887Y894D02*
D03*
X12736D02*
D03*
X12863Y641D02*
D03*
X12990Y894D02*
D03*
X11840D02*
D03*
X11714Y641D02*
D03*
X11586Y894D02*
D03*
X10436D02*
D03*
X10564Y641D02*
D03*
X10690Y894D02*
D03*
X7441Y895D02*
D03*
X7314Y641D02*
D03*
X7187Y895D02*
D03*
X8337D02*
D03*
X8464Y641D02*
D03*
X8591Y895D02*
D03*
X5193Y641D02*
D03*
X5066Y895D02*
D03*
X4685Y641D02*
D03*
X4939D02*
D03*
X4812Y895D02*
D03*
X3840Y641D02*
D03*
X3713Y895D02*
D03*
X3332Y641D02*
D03*
X3586D02*
D03*
X3459Y895D02*
D03*
D62*
X13567Y5D02*
D03*
X14333D02*
D03*
X13183D02*
D03*
X12417D02*
D03*
X11267D02*
D03*
X12033D02*
D03*
X10883D02*
D03*
X10117D02*
D03*
X6867Y6D02*
D03*
X7633D02*
D03*
X8783D02*
D03*
X8017D02*
D03*
X4367D02*
D03*
X5383D02*
D03*
X3015D02*
D03*
X4031D02*
D03*
D63*
X13760Y641D02*
D03*
X12610D02*
D03*
X11460D02*
D03*
X10310D02*
D03*
X7060Y641D02*
D03*
X8210D02*
D03*
X4558Y895D02*
D03*
X3205D02*
D03*
D64*
X14580Y4310D02*
D03*
Y4430D02*
D03*
Y4550D02*
D03*
X12712Y2533D02*
D03*
X13198Y4800D02*
D03*
X8835Y1298D02*
D03*
X7672Y1295D02*
D03*
X14240Y4860D02*
D03*
X14340Y4760D02*
D03*
X12870Y4360D02*
D03*
Y4600D02*
D03*
Y4480D02*
D03*
X1770Y1893D02*
D03*
X1515Y1598D02*
D03*
X1595Y2053D02*
D03*
X1025Y2048D02*
D03*
X2765Y2795D02*
D03*
X2945Y2668D02*
D03*
D65*
X5045Y-35D02*
D03*
Y265D02*
D03*
X4738Y-30D02*
D03*
Y270D02*
D03*
X6150Y2283D02*
D03*
Y2583D02*
D03*
X5875Y2283D02*
D03*
Y2583D02*
D03*
X6700Y2283D02*
D03*
Y2583D02*
D03*
X6425Y2283D02*
D03*
Y2583D02*
D03*
X250Y5500D02*
D03*
Y5800D02*
D03*
Y4500D02*
D03*
Y4800D02*
D03*
M02*
