G04 Layer_Physical_Order=2*
G04 Layer_Color=16750848*
%FSLAX42Y42*%
%MOMM*%
G71*
G01*
G75*
%ADD10C,0.50*%
%ADD13C,0.60*%
%ADD15C,3.00*%
%ADD16C,3.00*%
%ADD17C,2.00*%
%ADD18C,1.50*%
%ADD19R,1.50X1.50*%
%ADD20O,2.00X3.00*%
%ADD21C,7.00*%
%ADD22C,1.00*%
%ADD23C,0.40*%
D10*
X435Y0D02*
G03*
X435Y0I-435J0D01*
G01*
X2467Y-54D02*
G03*
X2699Y-4I94J129D01*
G01*
X2927Y-397D02*
G03*
X2710Y-450I-115J0D01*
G01*
X2915D02*
G03*
X2927Y-397I-102J52D01*
G01*
X2699Y-4D02*
G03*
X2930Y-4I115J80D01*
G01*
D02*
G03*
X3196Y-22I139J80D01*
G01*
X2434Y232D02*
G03*
X2463Y202I127J97D01*
G01*
X2699Y155D02*
G03*
X2658Y202I-139J-80D01*
G01*
X2192Y441D02*
G03*
X2177Y235I115J-111D01*
G01*
X2434Y427D02*
G03*
X2422Y441I-127J-97D01*
G01*
X2658Y202D02*
G03*
X2699Y250I-97J127D01*
G01*
Y409D02*
G03*
X2434Y427I-139J-80D01*
G01*
X2756Y202D02*
G03*
X2699Y155I59J-127D01*
G01*
X2930D02*
G03*
X2874Y202I-115J-80D01*
G01*
X2971D02*
G03*
X2930Y155I97J-127D01*
G01*
X3196Y173D02*
G03*
X3166Y202I-127J-97D01*
G01*
X2699Y250D02*
G03*
X2756Y202I115J80D01*
G01*
X2874D02*
G03*
X2930Y250I-59J127D01*
G01*
Y409D02*
G03*
X2699Y409I-115J-80D01*
G01*
X2930Y250D02*
G03*
X2971Y202I139J80D01*
G01*
X3166D02*
G03*
X3196Y232I-97J127D01*
G01*
Y427D02*
G03*
X2930Y409I-127J-97D01*
G01*
X-3576Y626D02*
G03*
X-3495Y593I81J81D01*
G01*
X-3576Y626D02*
G03*
X-3495Y593I81J81D01*
G01*
X3196Y-22D02*
G03*
X3450Y-22I127J97D01*
G01*
X3225Y202D02*
G03*
X3196Y173I97J-127D01*
G01*
X3450D02*
G03*
X3420Y202I-127J-97D01*
G01*
X3450Y-22D02*
G03*
X3704Y-22I127J97D01*
G01*
X3479Y202D02*
G03*
X3450Y173I97J-127D01*
G01*
X3704Y-22D02*
G03*
X3991Y75I127J97D01*
G01*
X3704Y173D02*
G03*
X3674Y202I-127J-97D01*
G01*
X3733D02*
G03*
X3704Y173I97J-127D01*
G01*
X3991Y75D02*
G03*
X3928Y202I-160J0D01*
G01*
X3196Y232D02*
G03*
X3225Y202I127J97D01*
G01*
X3420D02*
G03*
X3450Y232I-97J127D01*
G01*
D02*
G03*
X3479Y202I127J97D01*
G01*
X3450Y427D02*
G03*
X3196Y427I-127J-97D01*
G01*
X3674Y202D02*
G03*
X3704Y232I-97J127D01*
G01*
Y427D02*
G03*
X3450Y427I-127J-97D01*
G01*
X3704Y232D02*
G03*
X3733Y202I127J97D01*
G01*
X3928D02*
G03*
X3991Y329I-97J127D01*
G01*
D02*
G03*
X3704Y427I-160J0D01*
G01*
X5635Y571D02*
G03*
X5885Y500I115J-71D01*
G01*
D02*
G03*
X5865Y571I-135J0D01*
G01*
X6734Y232D02*
G03*
X6763Y202I127J97D01*
G01*
X6734Y427D02*
G03*
X6477Y235I-127J-97D01*
G01*
X6988Y427D02*
G03*
X6734Y427I-127J-97D01*
G01*
X3015Y1037D02*
G03*
X3354Y1140I154J103D01*
G01*
D02*
G03*
X3015Y1244I-185J0D01*
G01*
X4042Y1140D02*
G03*
X4042Y1140I-185J0D01*
G01*
X4731Y1140D02*
G03*
X4731Y1140I-185J0D01*
G01*
X5419D02*
G03*
X5419Y1140I-185J0D01*
G01*
X6107D02*
G03*
X6107Y1140I-185J0D01*
G01*
X6796D02*
G03*
X6796Y1140I-185J0D01*
G01*
X3015Y1545D02*
G03*
X3354Y1648I154J103D01*
G01*
X3147Y1973D02*
G03*
X3314Y2041I21J184D01*
G01*
X3354Y1648D02*
G03*
X3015Y1752I-185J0D01*
G01*
X3314Y2271D02*
G03*
X2985Y2135I-145J-115D01*
G01*
X4042Y1648D02*
G03*
X4042Y1648I-185J0D01*
G01*
X3354Y2664D02*
G03*
X3354Y2664I-185J0D01*
G01*
X4042D02*
G03*
X4042Y2664I-185J0D01*
G01*
X4731Y1648D02*
G03*
X4731Y1648I-185J0D01*
G01*
X4002Y2271D02*
G03*
X3712Y2271I-145J-115D01*
G01*
Y2041D02*
G03*
X4002Y2041I145J115D01*
G01*
X4690Y2271D02*
G03*
X4401Y2271I-145J-115D01*
G01*
Y2041D02*
G03*
X4690Y2041I145J115D01*
G01*
X4731Y2664D02*
G03*
X4731Y2664I-185J0D01*
G01*
X2466Y3172D02*
G03*
X2488Y3215I-153J103D01*
G01*
Y3435D02*
G03*
X2312Y3560I-175J-60D01*
G01*
X2838Y3435D02*
G03*
X2488Y3435I-175J-60D01*
G01*
Y3215D02*
G03*
X2838Y3215I175J60D01*
G01*
X3188Y3435D02*
G03*
X2838Y3435I-175J-60D01*
G01*
Y3215D02*
G03*
X3188Y3215I175J60D01*
G01*
X3188D02*
G03*
X3547Y3275I175J60D01*
G01*
Y3375D02*
G03*
X3188Y3435I-185J0D01*
G01*
X3647Y3275D02*
G03*
X4008Y3215I185J0D01*
G01*
D02*
G03*
X4358Y3215I175J60D01*
G01*
X4358D02*
G03*
X4708Y3215I175J60D01*
G01*
X4008Y3435D02*
G03*
X3647Y3375I-175J-60D01*
G01*
X4358Y3435D02*
G03*
X4008Y3435I-175J-60D01*
G01*
X4708Y3435D02*
G03*
X4358Y3435I-175J-60D01*
G01*
X5419Y1648D02*
G03*
X5419Y1648I-185J0D01*
G01*
X5379Y2271D02*
G03*
X5089Y2271I-145J-115D01*
G01*
Y2041D02*
G03*
X5379Y2041I145J115D01*
G01*
X6107Y1648D02*
G03*
X6107Y1648I-185J0D01*
G01*
X6796Y1648D02*
G03*
X6796Y1648I-185J0D01*
G01*
X6067Y2271D02*
G03*
X5778Y2271I-145J-115D01*
G01*
Y2041D02*
G03*
X6067Y2041I145J115D01*
G01*
X6466D02*
G03*
X6756Y2041I145J115D01*
G01*
Y2271D02*
G03*
X6466Y2271I-145J-115D01*
G01*
X4708Y3215D02*
G03*
X5058Y3215I175J60D01*
G01*
X5419Y2664D02*
G03*
X5419Y2664I-185J0D01*
G01*
X5058Y3215D02*
G03*
X5408Y3215I175J60D01*
G01*
X5408D02*
G03*
X5758Y3215I175J60D01*
G01*
X5058Y3435D02*
G03*
X4708Y3435I-175J-60D01*
G01*
X5408Y3435D02*
G03*
X5058Y3435I-175J-60D01*
G01*
X5758Y3435D02*
G03*
X5408Y3435I-175J-60D01*
G01*
X6107Y2664D02*
G03*
X6107Y2664I-185J0D01*
G01*
X5758Y3215D02*
G03*
X6108Y3215I175J60D01*
G01*
X6796Y2664D02*
G03*
X6796Y2664I-185J0D01*
G01*
X6108Y3215D02*
G03*
X6468Y3275I175J60D01*
G01*
X6568Y3275D02*
G03*
X6928Y3215I185J0D01*
G01*
X6108Y3435D02*
G03*
X5758Y3435I-175J-60D01*
G01*
X6468Y3375D02*
G03*
X6108Y3435I-185J0D01*
G01*
X6928Y3435D02*
G03*
X6568Y3375I-175J-60D01*
G01*
X6767Y-54D02*
G03*
X6988Y-22I94J129D01*
G01*
Y173D02*
G03*
X6958Y202I-127J-97D01*
G01*
X6988Y-22D02*
G03*
X7242Y-22I127J97D01*
G01*
Y173D02*
G03*
X7212Y202I-127J-97D01*
G01*
X7017D02*
G03*
X6988Y173I97J-127D01*
G01*
X7242Y-22D02*
G03*
X7496Y-22I127J97D01*
G01*
X7271Y202D02*
G03*
X7242Y173I97J-127D01*
G01*
X7496Y-22D02*
G03*
X7750Y-22I127J97D01*
G01*
X7496Y173D02*
G03*
X7466Y202I-127J-97D01*
G01*
X7525D02*
G03*
X7496Y173I97J-127D01*
G01*
X6958Y202D02*
G03*
X6988Y232I-97J127D01*
G01*
D02*
G03*
X7017Y202I127J97D01*
G01*
X7212D02*
G03*
X7242Y232I-97J127D01*
G01*
Y427D02*
G03*
X6988Y427I-127J-97D01*
G01*
X7242Y232D02*
G03*
X7271Y202I127J97D01*
G01*
X7496Y427D02*
G03*
X7242Y427I-127J-97D01*
G01*
X7466Y202D02*
G03*
X7496Y232I-97J127D01*
G01*
D02*
G03*
X7525Y202I127J97D01*
G01*
X7750Y427D02*
G03*
X7496Y427I-127J-97D01*
G01*
X7750Y-22D02*
G03*
X8004Y-22I127J97D01*
G01*
D02*
G03*
X8291Y75I127J97D01*
G01*
X7750Y173D02*
G03*
X7720Y202I-127J-97D01*
G01*
D02*
G03*
X7750Y232I-97J127D01*
G01*
X7779Y202D02*
G03*
X7750Y173I97J-127D01*
G01*
Y232D02*
G03*
X7779Y202I127J97D01*
G01*
X7974D02*
G03*
X8004Y232I-97J127D01*
G01*
Y173D02*
G03*
X7974Y202I-127J-97D01*
G01*
X8033D02*
G03*
X8004Y173I97J-127D01*
G01*
X8291Y75D02*
G03*
X8228Y202I-160J0D01*
G01*
X8004Y232D02*
G03*
X8033Y202I127J97D01*
G01*
X8228D02*
G03*
X8291Y329I-97J127D01*
G01*
X8004Y427D02*
G03*
X7750Y427I-127J-97D01*
G01*
X8291Y329D02*
G03*
X8004Y427I-160J0D01*
G01*
X7484Y1140D02*
G03*
X7484Y1140I-185J0D01*
G01*
X8173D02*
G03*
X8173Y1140I-185J0D01*
G01*
X7484Y1648D02*
G03*
X7484Y1648I-185J0D01*
G01*
X8173D02*
G03*
X8173Y1648I-185J0D01*
G01*
X8861Y1140D02*
G03*
X8861Y1140I-185J0D01*
G01*
Y1648D02*
G03*
X8861Y1648I-185J0D01*
G01*
X10268Y476D02*
G03*
X10518Y405I115J-71D01*
G01*
X10498Y560D02*
G03*
X10464Y641I-115J0D01*
G01*
X10498Y560D02*
G03*
X10464Y641I-115J0D01*
G01*
X10518Y405D02*
G03*
X10498Y476I-135J0D01*
G01*
X10316Y789D02*
G03*
X10235Y823I-81J-81D01*
G01*
X10316Y789D02*
G03*
X10235Y823I-81J-81D01*
G01*
X11435Y0D02*
G03*
X11435Y0I-435J0D01*
G01*
X9550Y1140D02*
G03*
X9550Y1140I-185J0D01*
G01*
X10238D02*
G03*
X10238Y1140I-185J0D01*
G01*
X10927D02*
G03*
X10927Y1140I-185J0D01*
G01*
X9550Y1648D02*
G03*
X9550Y1648I-185J0D01*
G01*
X10238D02*
G03*
X10238Y1648I-185J0D01*
G01*
X10927D02*
G03*
X10927Y1648I-185J0D01*
G01*
X11615Y1140D02*
G03*
X11615Y1140I-185J0D01*
G01*
X12304D02*
G03*
X12304Y1140I-185J0D01*
G01*
X11615Y1648D02*
G03*
X11615Y1648I-185J0D01*
G01*
X12304D02*
G03*
X12304Y1648I-185J0D01*
G01*
X7154Y2041D02*
G03*
X7444Y2041I145J115D01*
G01*
Y2271D02*
G03*
X7154Y2271I-145J-115D01*
G01*
X7843Y2041D02*
G03*
X8133Y2041I145J115D01*
G01*
Y2271D02*
G03*
X7843Y2271I-145J-115D01*
G01*
X7484Y2664D02*
G03*
X7484Y2664I-185J0D01*
G01*
X8173D02*
G03*
X8173Y2664I-185J0D01*
G01*
X8531Y2041D02*
G03*
X8821Y2041I145J115D01*
G01*
Y2271D02*
G03*
X8531Y2271I-145J-115D01*
G01*
X9220Y2041D02*
G03*
X9510Y2041I145J115D01*
G01*
Y2271D02*
G03*
X9220Y2271I-145J-115D01*
G01*
X8861Y2664D02*
G03*
X8861Y2664I-185J0D01*
G01*
X9550Y2664D02*
G03*
X9550Y2664I-185J0D01*
G01*
X7278Y3435D02*
G03*
X6928Y3435I-175J-60D01*
G01*
Y3215D02*
G03*
X7278Y3215I175J60D01*
G01*
X7628Y3435D02*
G03*
X7278Y3435I-175J-60D01*
G01*
Y3215D02*
G03*
X7628Y3215I175J60D01*
G01*
X7628D02*
G03*
X7978Y3215I175J60D01*
G01*
Y3435D02*
G03*
X7628Y3435I-175J-60D01*
G01*
X8328Y3435D02*
G03*
X7978Y3435I-175J-60D01*
G01*
Y3215D02*
G03*
X8328Y3215I175J60D01*
G01*
D02*
G03*
X8678Y3215I175J60D01*
G01*
Y3435D02*
G03*
X8328Y3435I-175J-60D01*
G01*
X8678Y3215D02*
G03*
X9028Y3215I175J60D01*
G01*
Y3435D02*
G03*
X8678Y3435I-175J-60D01*
G01*
X9028Y3215D02*
G03*
X9388Y3275I175J60D01*
G01*
Y3375D02*
G03*
X9028Y3435I-185J0D01*
G01*
X9908Y2041D02*
G03*
X10198Y2041I145J115D01*
G01*
Y2271D02*
G03*
X9908Y2271I-145J-115D01*
G01*
X10597Y2041D02*
G03*
X10887Y2041I145J115D01*
G01*
Y2271D02*
G03*
X10597Y2271I-145J-115D01*
G01*
X10238Y2664D02*
G03*
X10238Y2664I-185J0D01*
G01*
X10927Y2664D02*
G03*
X10927Y2664I-185J0D01*
G01*
X11285Y2041D02*
G03*
X11575Y2041I145J115D01*
G01*
X11575Y2271D02*
G03*
X11285Y2271I-145J-115D01*
G01*
X12304Y2156D02*
G03*
X11974Y2271I-185J0D01*
G01*
X11974Y2041D02*
G03*
X12304Y2156I145J115D01*
G01*
X11615Y2664D02*
G03*
X11615Y2664I-185J0D01*
G01*
X12304Y2664D02*
G03*
X12304Y2664I-185J0D01*
G01*
X9493Y3275D02*
G03*
X9853Y3215I185J0D01*
G01*
Y3435D02*
G03*
X9493Y3375I-175J-60D01*
G01*
X9853Y3215D02*
G03*
X10203Y3215I175J60D01*
G01*
Y3435D02*
G03*
X9853Y3435I-175J-60D01*
G01*
X10203Y3215D02*
G03*
X10553Y3215I175J60D01*
G01*
Y3435D02*
G03*
X10203Y3435I-175J-60D01*
G01*
X10553Y3215D02*
G03*
X10903Y3215I175J60D01*
G01*
Y3435D02*
G03*
X10553Y3435I-175J-60D01*
G01*
X10903Y3215D02*
G03*
X11253Y3215I175J60D01*
G01*
Y3435D02*
G03*
X10903Y3435I-175J-60D01*
G01*
X11253Y3215D02*
G03*
X11603Y3215I175J60D01*
G01*
Y3435D02*
G03*
X11253Y3435I-175J-60D01*
G01*
X11603Y3215D02*
G03*
X11953Y3215I175J60D01*
G01*
X11953D02*
G03*
X12313Y3275I175J60D01*
G01*
X11953Y3435D02*
G03*
X11603Y3435I-175J-60D01*
G01*
X12313Y3375D02*
G03*
X11953Y3435I-185J0D01*
G01*
X-2750Y-450D02*
Y593D01*
X-2700Y-450D02*
Y593D01*
X-3000Y-450D02*
Y593D01*
X-2950Y-450D02*
Y593D01*
X-2550Y-450D02*
Y593D01*
X-2500Y-450D02*
Y593D01*
X-2650Y-450D02*
Y593D01*
X-2600Y-450D02*
Y593D01*
X-3350Y-450D02*
Y593D01*
X-3300Y-450D02*
Y593D01*
X-3450Y-450D02*
Y593D01*
X-3400Y-450D02*
Y593D01*
X-3100Y-450D02*
Y593D01*
X-3050Y-450D02*
Y593D01*
X-3250Y-450D02*
Y593D01*
X-3150Y-450D02*
Y593D01*
X-3200Y-450D02*
Y593D01*
X-100Y-450D02*
Y-423D01*
X-50Y-450D02*
Y-432D01*
X-150Y-450D02*
Y-408D01*
X-3950Y-450D02*
X2710D01*
X150D02*
Y-408D01*
X200Y-450D02*
Y-386D01*
X-0Y-450D02*
Y-435D01*
X50Y-450D02*
Y-432D01*
X100Y-450D02*
Y-423D01*
X-2350Y-450D02*
Y593D01*
X-500Y-450D02*
Y593D01*
X-2450Y-450D02*
Y593D01*
X-2400Y-450D02*
Y593D01*
X250Y-450D02*
Y-356D01*
X300Y-450D02*
Y-315D01*
X-450Y-450D02*
Y593D01*
X-300Y-450D02*
Y-315D01*
X-400Y-450D02*
Y-171D01*
X-3950Y-250D02*
X-356D01*
X-3950Y-300D02*
X-315D01*
X-3950Y-150D02*
X-408D01*
X-3950Y-200D02*
X-386D01*
X-3950Y-100D02*
X-423D01*
X-350Y-450D02*
Y-258D01*
X-3950Y-0D02*
X-435D01*
X-3950Y-50D02*
X-432D01*
X-3950Y50D02*
X-432D01*
X-3950Y100D02*
X-423D01*
X-3950Y150D02*
X-408D01*
X-3950Y200D02*
X-386D01*
X-3950Y250D02*
X-356D01*
X-400Y171D02*
Y593D01*
X-350Y258D02*
Y593D01*
X-2035D02*
X-330D01*
X-3950Y300D02*
X-315D01*
X-300Y315D02*
Y593D01*
X-250Y-450D02*
Y-356D01*
X-200Y-450D02*
Y-386D01*
X-3950Y-350D02*
X-258D01*
X-3950Y-400D02*
X-171D01*
X350Y-450D02*
Y-258D01*
X171Y-400D02*
X2698D01*
X356Y250D02*
X2168D01*
X258Y-350D02*
X2708D01*
X315Y-300D02*
X2751D01*
X-3950Y350D02*
X-258D01*
X-3950Y400D02*
X-171D01*
X-3950Y550D02*
X2192D01*
X-3950Y450D02*
X2192D01*
X315Y300D02*
X2149D01*
X258Y350D02*
X2148D01*
X171Y400D02*
X2163D01*
X-3950Y500D02*
X2192D01*
X2200Y-450D02*
Y-85D01*
X2250Y-450D02*
Y-85D01*
X400Y-450D02*
Y-171D01*
X2150Y-450D02*
Y-85D01*
X2400Y-450D02*
Y-85D01*
X2450Y-450D02*
Y-85D01*
X2300Y-450D02*
Y-85D01*
X2350Y-450D02*
Y-85D01*
X2467D02*
Y-54D01*
X2147Y-85D02*
Y235D01*
Y-85D02*
X2467D01*
X2500Y-450D02*
Y-73D01*
X2550Y-450D02*
Y-84D01*
X2600Y-450D02*
Y-80D01*
X2650Y-450D02*
Y-57D01*
X2700Y-374D02*
Y-5D01*
Y-450D02*
Y-421D01*
X3050Y-450D02*
Y-84D01*
X3100Y-450D02*
Y-81D01*
X3000Y-450D02*
Y-69D01*
X2750Y-301D02*
Y-49D01*
X2850Y-289D02*
Y-60D01*
X2800Y-283D02*
Y-64D01*
X2950Y-450D02*
Y-32D01*
X3150Y-450D02*
Y-62D01*
X2900Y-323D02*
Y-36D01*
X3200Y-450D02*
Y-27D01*
X423Y100D02*
X2147D01*
X432Y-50D02*
X2147D01*
X386Y200D02*
X2147D01*
X408Y150D02*
X2147D01*
X432Y50D02*
X2147D01*
X435Y-0D02*
X2147D01*
X2661Y200D02*
X2751D01*
X2147Y235D02*
X2177D01*
X2150D02*
Y297D01*
X2700Y156D02*
Y249D01*
X2422Y450D02*
X2455D01*
X2666D02*
X2743D01*
X2660Y-50D02*
X2752D01*
X2877D02*
X2969D01*
X2900Y186D02*
Y218D01*
X2878Y200D02*
X2968D01*
X2950Y183D02*
Y222D01*
X2886Y450D02*
X2963D01*
X-2850Y-450D02*
Y593D01*
X-2800Y-450D02*
Y593D01*
X-3500Y-450D02*
Y593D01*
X-2900Y-450D02*
Y593D01*
X-2200Y-450D02*
Y593D01*
X-2150Y-450D02*
Y593D01*
X-2300Y-450D02*
Y593D01*
X-2250Y-450D02*
Y593D01*
X-3850Y-450D02*
Y800D01*
X-3800Y-450D02*
Y800D01*
X-3950Y-450D02*
Y800D01*
X-3900Y-450D02*
Y800D01*
X-3600Y-450D02*
Y650D01*
X-3550Y-450D02*
Y607D01*
X-3750Y-450D02*
Y800D01*
X-3650Y-450D02*
Y700D01*
X-3700Y-450D02*
Y750D01*
X-1550Y-450D02*
Y593D01*
X-1500Y-450D02*
Y593D01*
X-1650Y-450D02*
Y593D01*
X-1600Y-450D02*
Y593D01*
X-850Y-450D02*
Y593D01*
X-800Y-450D02*
Y593D01*
X-1450Y-450D02*
Y593D01*
X-900Y-450D02*
Y593D01*
X-950Y-450D02*
Y593D01*
X-2000Y-450D02*
Y593D01*
X-1950Y-450D02*
Y593D01*
X-2100Y-450D02*
Y593D01*
X-2050Y-450D02*
Y593D01*
X-1750Y-450D02*
Y593D01*
X-1700Y-450D02*
Y593D01*
X-1900Y-450D02*
Y593D01*
X-1800Y-450D02*
Y593D01*
X-1850Y-450D02*
Y593D01*
X-1350Y-450D02*
Y593D01*
X-1300Y-450D02*
Y593D01*
X-3495D02*
X-2035D01*
X-1400Y-450D02*
Y593D01*
X-1100Y-450D02*
Y593D01*
X-1050Y-450D02*
Y593D01*
X-1250Y-450D02*
Y593D01*
X-1150Y-450D02*
Y593D01*
X-1200Y-450D02*
Y593D01*
X-3950Y650D02*
X-3600D01*
X-3950Y600D02*
X-3536D01*
X-3950Y750D02*
X-3700D01*
X-3950Y700D02*
X-3650D01*
X-3950Y800D02*
X-3750D01*
X-3950Y800D02*
X-3750D01*
X-3750Y800D02*
X-3576Y626D01*
X-100Y423D02*
Y593D01*
X-50Y432D02*
Y593D01*
X-0Y435D02*
Y593D01*
X-330D02*
X1365D01*
X200Y386D02*
Y593D01*
X250Y356D02*
Y593D01*
X50Y432D02*
Y593D01*
X150Y408D02*
Y593D01*
X100Y423D02*
Y593D01*
X-700Y-450D02*
Y593D01*
X-650Y-450D02*
Y593D01*
X-1000Y-450D02*
Y593D01*
X-750Y-450D02*
Y593D01*
X-600Y-450D02*
Y593D01*
X-550Y-450D02*
Y593D01*
X-250Y356D02*
Y593D01*
X-150Y408D02*
Y593D01*
X-200Y386D02*
Y593D01*
X950Y-450D02*
Y593D01*
X1000Y-450D02*
Y593D01*
X850Y-450D02*
Y593D01*
X900Y-450D02*
Y593D01*
X1150Y-450D02*
Y593D01*
X1200Y-450D02*
Y593D01*
X1050Y-450D02*
Y593D01*
X1100Y-450D02*
Y593D01*
X500Y-450D02*
Y593D01*
X550Y-450D02*
Y593D01*
X400Y171D02*
Y593D01*
X450Y-450D02*
Y593D01*
X750Y-450D02*
Y593D01*
X800Y-450D02*
Y593D01*
X600Y-450D02*
Y593D01*
X700Y-450D02*
Y593D01*
X650Y-450D02*
Y593D01*
X1800Y-450D02*
Y593D01*
X1850Y-450D02*
Y593D01*
X1700Y-450D02*
Y593D01*
X1750Y-450D02*
Y593D01*
X2050Y-450D02*
Y593D01*
X2100Y-450D02*
Y593D01*
X1900Y-450D02*
Y593D01*
X2000Y-450D02*
Y593D01*
X1950Y-450D02*
Y593D01*
X1350Y-450D02*
Y593D01*
X1400Y-450D02*
Y593D01*
X1250Y-450D02*
Y593D01*
X1300Y-450D02*
Y593D01*
X1600Y-450D02*
Y593D01*
X1650Y-450D02*
Y593D01*
X1450Y-450D02*
Y593D01*
X1550Y-450D02*
Y593D01*
X1500Y-450D02*
Y593D01*
X300Y315D02*
Y593D01*
X350Y258D02*
Y593D01*
X2150Y362D02*
Y593D01*
X1365D02*
X2192D01*
Y441D02*
Y593D01*
X2422Y441D02*
Y593D01*
X2450Y445D02*
Y593D01*
X2550Y489D02*
Y593D01*
X2500Y477D02*
Y593D01*
X2600Y484D02*
Y593D01*
X2650Y462D02*
Y593D01*
X2673Y823D02*
X2785D01*
X2673D02*
X2785Y935D01*
X2700Y410D02*
Y593D01*
X2750Y454D02*
Y593D01*
X2700Y823D02*
Y850D01*
X2750Y823D02*
Y900D01*
X2785Y823D02*
Y935D01*
X2850Y465D02*
Y593D01*
X2900Y440D02*
Y593D01*
X2800Y469D02*
Y593D01*
X2422D02*
X2900D01*
X2950Y437D02*
Y593D01*
X3150Y467D02*
Y593D01*
X3000Y474D02*
Y593D01*
X3100Y486D02*
Y593D01*
X3050Y488D02*
Y593D01*
X2750Y900D02*
X2785D01*
X2700Y850D02*
X2785D01*
X3015Y1244D02*
Y1545D01*
Y1000D02*
X3048D01*
X3150Y823D02*
Y956D01*
X3200Y823D02*
Y958D01*
X3015Y823D02*
Y1037D01*
X3100Y823D02*
Y969D01*
X3050Y823D02*
Y998D01*
X3350Y-450D02*
Y-82D01*
X3400Y-450D02*
Y-65D01*
X3250Y-450D02*
Y-67D01*
X3300Y-450D02*
Y-83D01*
X3600Y-450D02*
Y-83D01*
X3650Y-450D02*
Y-67D01*
X3500Y-450D02*
Y-65D01*
X3550Y-450D02*
Y-82D01*
X3168Y-50D02*
X3223D01*
X3450Y-450D02*
Y-22D01*
X3700Y-450D02*
Y-26D01*
X3422Y-50D02*
X3477D01*
X386Y-200D02*
X10614D01*
X356Y-250D02*
X10644D01*
X423Y-100D02*
X10577D01*
X408Y-150D02*
X10592D01*
X3850Y-450D02*
Y-83D01*
X2915Y-450D02*
X12450D01*
X2874Y-300D02*
X10685D01*
X2927Y-400D02*
X10829D01*
X2917Y-350D02*
X10742D01*
X3676Y-50D02*
X3731D01*
X3750Y-450D02*
Y-63D01*
X3800Y-450D02*
Y-82D01*
X3900Y-450D02*
Y-69D01*
X3930Y-50D02*
X6447D01*
X3200Y178D02*
Y227D01*
X3169Y200D02*
X3222D01*
X3174Y450D02*
X3217D01*
X3450Y173D02*
Y232D01*
X3423Y200D02*
X3476D01*
X3428Y450D02*
X3471D01*
X3250Y472D02*
Y593D01*
X3300Y488D02*
Y593D01*
X3350Y487D02*
Y593D01*
X3400Y469D02*
Y593D01*
X3500Y470D02*
Y593D01*
X3550Y487D02*
Y593D01*
X3650Y472D02*
Y593D01*
X3600Y488D02*
Y593D01*
X3677Y200D02*
X3730D01*
X3682Y450D02*
X3725D01*
X3700Y177D02*
Y228D01*
X3931Y200D02*
X6447D01*
X3936Y450D02*
X5625D01*
X3700Y431D02*
Y593D01*
X2422Y500D02*
X5615D01*
X2422Y550D02*
X5625D01*
X2900Y593D02*
X5635D01*
X3750Y468D02*
Y593D01*
X3800Y486D02*
Y593D01*
X3900Y474D02*
Y593D01*
X3850Y488D02*
Y593D01*
X4050Y-450D02*
Y593D01*
X4100Y-450D02*
Y593D01*
X3950Y-450D02*
Y-31D01*
X4000Y-450D02*
Y593D01*
X4250Y-450D02*
Y593D01*
X4300Y-450D02*
Y593D01*
X4150Y-450D02*
Y593D01*
X4200Y-450D02*
Y593D01*
X4450Y-450D02*
Y593D01*
X4500Y-450D02*
Y593D01*
X4350Y-450D02*
Y593D01*
X4400Y-450D02*
Y593D01*
X4700Y-450D02*
Y593D01*
X4750Y-450D02*
Y593D01*
X4550Y-450D02*
Y593D01*
X4650Y-450D02*
Y593D01*
X4600Y-450D02*
Y593D01*
X4950Y-450D02*
Y593D01*
X5000Y-450D02*
Y593D01*
X4800Y-450D02*
Y593D01*
X4850Y-450D02*
Y593D01*
X5700Y-450D02*
Y375D01*
X6450Y-450D02*
Y-85D01*
X5050Y-450D02*
Y593D01*
X5650Y-450D02*
Y409D01*
X5100Y-450D02*
Y593D01*
X5200Y-450D02*
Y593D01*
X5250Y-450D02*
Y593D01*
X4900Y-450D02*
Y593D01*
X5150Y-450D02*
Y593D01*
X6300Y-450D02*
Y593D01*
X6350Y-450D02*
Y593D01*
X5300Y-450D02*
Y593D01*
X6200Y-450D02*
Y593D01*
X6100Y-450D02*
Y593D01*
X3972Y150D02*
X6447D01*
X3972Y-0D02*
X6447D01*
X3950Y182D02*
Y223D01*
X3988Y300D02*
X6449D01*
X3989Y50D02*
X6447D01*
Y-85D02*
Y235D01*
X3989Y100D02*
X6447D01*
X6450Y235D02*
Y297D01*
X3989Y350D02*
X6448D01*
X5750Y-450D02*
Y365D01*
X3950Y436D02*
Y593D01*
X3974Y400D02*
X5659D01*
X5800Y-450D02*
Y375D01*
X5850Y-450D02*
Y409D01*
X5841Y400D02*
X6463D01*
X5950Y-450D02*
Y593D01*
X6500Y-450D02*
Y-85D01*
X6550Y-450D02*
Y-85D01*
X6447Y235D02*
X6477D01*
X6447Y-85D02*
X6767D01*
X6600Y-450D02*
Y-85D01*
X6650Y-450D02*
Y-85D01*
X6700Y-450D02*
Y-85D01*
X6750Y-450D02*
Y-85D01*
X3970Y250D02*
X6468D01*
X5875Y450D02*
X6501D01*
X5865Y593D02*
X10187D01*
X5875Y550D02*
X10230D01*
X6600Y489D02*
Y593D01*
X6712Y450D02*
X6755D01*
X5885Y500D02*
X10268D01*
X3200Y432D02*
Y593D01*
X3450Y427D02*
Y593D01*
X3300Y823D02*
Y1010D01*
X3750Y823D02*
Y990D01*
X3900Y823D02*
Y960D01*
X3950Y823D02*
Y980D01*
X3800Y823D02*
Y964D01*
X3850Y823D02*
Y956D01*
X3450Y823D02*
Y2041D01*
X3500Y823D02*
Y2041D01*
X3350Y823D02*
Y1104D01*
X3400Y823D02*
Y2041D01*
X3700Y823D02*
Y1043D01*
X4000Y823D02*
Y1023D01*
X3550Y823D02*
Y2041D01*
X3650Y823D02*
Y2041D01*
X3600Y823D02*
Y2041D01*
X4100Y823D02*
Y2041D01*
X4250Y823D02*
Y2041D01*
X4050Y823D02*
Y2041D01*
X3015Y823D02*
X5750D01*
X5050D02*
Y1121D01*
X5100Y823D02*
Y1013D01*
X4300Y823D02*
Y2041D01*
X4550Y823D02*
Y955D01*
X4700Y823D02*
Y1039D01*
X4350Y823D02*
Y2041D01*
X4750Y823D02*
Y2041D01*
X4150Y823D02*
Y2041D01*
X4200Y823D02*
Y2041D01*
X4950Y823D02*
Y2041D01*
X5000Y823D02*
Y2041D01*
X4800Y823D02*
Y2041D01*
X4900Y823D02*
Y2041D01*
X4850Y823D02*
Y2041D01*
X3250Y823D02*
Y974D01*
X3330Y1050D02*
X3696D01*
X3289Y1000D02*
X3737D01*
X4018Y1050D02*
X4384D01*
X4400Y823D02*
Y1026D01*
X3353Y1150D02*
X3672D01*
X4038Y1100D02*
X4365D01*
X3349D02*
X3677D01*
X3350Y1177D02*
Y1612D01*
X3344Y1200D02*
X3682D01*
X3318Y1250D02*
X3708D01*
X4042Y1150D02*
X4361D01*
X3700Y1238D02*
Y1551D01*
X4032Y1200D02*
X4370D01*
X4006Y1250D02*
X4396D01*
X3015Y900D02*
X12450D01*
X3015Y850D02*
X12450D01*
X3978Y1000D02*
X4425D01*
X3015Y950D02*
X12450D01*
X4450Y823D02*
Y982D01*
X4500Y823D02*
Y961D01*
X4600Y823D02*
Y964D01*
X4650Y823D02*
Y988D01*
X4666Y1000D02*
X5114D01*
X4707Y1050D02*
X5073D01*
X4700Y1242D02*
Y1547D01*
X4695Y1250D02*
X5085D01*
X4726Y1100D02*
X5053D01*
X4730Y1150D02*
X5049D01*
X4721Y1200D02*
X5059D01*
X5050Y1160D02*
Y1629D01*
X5350Y-450D02*
Y593D01*
X5400Y-450D02*
Y593D01*
X5200Y823D02*
Y959D01*
X5250Y823D02*
Y956D01*
X5450Y-450D02*
Y593D01*
X5500Y-450D02*
Y593D01*
X5550Y-450D02*
Y593D01*
X5635Y571D02*
Y593D01*
X5600Y-450D02*
Y593D01*
X5350Y823D02*
Y996D01*
X5400Y823D02*
Y1059D01*
X5150Y823D02*
Y976D01*
X5300Y823D02*
Y968D01*
X5650Y823D02*
Y2041D01*
X5700Y823D02*
Y2041D01*
X5500Y823D02*
Y2041D01*
X5600Y823D02*
Y2041D01*
X5550Y823D02*
Y2041D01*
X6000Y-450D02*
Y593D01*
X6050Y-450D02*
Y593D01*
X5865Y571D02*
Y593D01*
X5900Y-450D02*
Y593D01*
X6150Y-450D02*
Y593D01*
X6250Y-450D02*
Y593D01*
X6400Y-450D02*
Y593D01*
X6700Y459D02*
Y593D01*
X6650Y483D02*
Y593D01*
X5800Y823D02*
Y1002D01*
X5850Y823D02*
Y970D01*
X5750Y823D02*
Y1073D01*
X5750Y823D02*
X10235D01*
X6450Y362D02*
Y593D01*
X6750Y445D02*
Y593D01*
X5900Y823D02*
Y957D01*
X6550Y479D02*
Y593D01*
X6500Y449D02*
Y593D01*
X5395Y1050D02*
X5761D01*
X5354Y1000D02*
X5802D01*
X5415Y1100D02*
X5742D01*
X5409Y1200D02*
X5747D01*
X6050Y823D02*
Y1006D01*
X6100Y823D02*
Y1088D01*
X5419Y1150D02*
X5738D01*
X5950Y823D02*
Y957D01*
X6000Y823D02*
Y972D01*
X5450Y823D02*
Y2041D01*
X5400Y1222D02*
Y1567D01*
X5383Y1250D02*
X5773D01*
X6200Y823D02*
Y2041D01*
X6250Y823D02*
Y2041D01*
X5750Y1207D02*
Y1581D01*
X6100Y1192D02*
Y1596D01*
X6150Y823D02*
Y2041D01*
X6500Y823D02*
Y992D01*
X6550Y823D02*
Y966D01*
X6450Y823D02*
Y1049D01*
X6043Y1000D02*
X6490D01*
X6600Y823D02*
Y956D01*
X6650Y823D02*
Y960D01*
X6700Y823D02*
Y978D01*
X6731Y1000D02*
X7179D01*
X6750Y823D02*
Y1018D01*
X6103Y1100D02*
X6430D01*
X6084Y1050D02*
X6450D01*
X6107Y1150D02*
X6426D01*
X6098Y1200D02*
X6436D01*
X6300Y823D02*
Y2041D01*
X6350Y823D02*
Y2041D01*
X6400Y823D02*
Y2041D01*
X6450Y1232D02*
Y1557D01*
X3050Y1282D02*
Y1506D01*
X3015Y1300D02*
X3075D01*
X3015Y1500D02*
X3058D01*
X3015Y1800D02*
X3063D01*
X3100Y1312D02*
Y1477D01*
X3250Y1307D02*
Y1482D01*
X3150Y1324D02*
Y1464D01*
X3200Y1323D02*
Y1466D01*
X3015Y1752D02*
Y1840D01*
X3147Y1973D01*
X2950Y2100D02*
Y2150D01*
Y2100D02*
X2985Y2135D01*
X3050Y1790D02*
Y1875D01*
X3250Y1815D02*
Y1990D01*
X3100Y1820D02*
Y1925D01*
X3150Y1832D02*
Y1972D01*
X3200Y1831D02*
Y1974D01*
X3300Y1271D02*
Y1518D01*
X3262Y1300D02*
X3763D01*
X3279Y1500D02*
X3747D01*
X3347Y1600D02*
X3679D01*
X3325Y1550D02*
X3700D01*
X3354Y1650D02*
X3672D01*
X3346Y1700D02*
X3679D01*
X3323Y1750D02*
X3702D01*
X3267Y2000D02*
X3758D01*
X3350Y1685D02*
Y2041D01*
X3300Y1779D02*
Y2026D01*
X3275Y1800D02*
X3751D01*
X3314Y2041D02*
X3712D01*
X2950Y2150D02*
X2984D01*
X2950Y2200D02*
X2989D01*
X2950Y2250D02*
X3009D01*
X2950Y2300D02*
X3052D01*
X3000Y2233D02*
Y2588D01*
X3050Y2298D02*
Y2522D01*
X2950Y2550D02*
X3023D01*
X3100Y2328D02*
Y2493D01*
X2950Y2500D02*
X3084D01*
X2938Y2700D02*
X2987D01*
X2888Y2750D02*
X3005D01*
X2650Y2988D02*
Y3090D01*
X2838Y2800D02*
X3043D01*
X2950Y2150D02*
X2950Y2688D01*
Y2600D02*
X2995D01*
X2950Y2650D02*
X2984D01*
X3000Y2741D02*
Y3090D01*
X3050Y2806D02*
Y3094D01*
X3200Y2339D02*
Y2482D01*
X3250Y2323D02*
Y2498D01*
X3150Y2340D02*
Y2480D01*
X3253Y2500D02*
X3772D01*
X3300Y2287D02*
Y2534D01*
X3314Y2271D02*
X3712D01*
X3342Y2600D02*
X3684D01*
X3285Y2300D02*
X3740D01*
X3314Y2550D02*
X3712D01*
X3350Y2701D02*
Y3090D01*
X3333Y2750D02*
X3693D01*
X3294Y2800D02*
X3731D01*
X3350Y2271D02*
Y2628D01*
X3400Y2271D02*
Y3094D01*
X3353Y2650D02*
X3673D01*
X3350Y2700D02*
X3676D01*
X3750Y1291D02*
Y1498D01*
X3800Y1316D02*
Y1472D01*
X3850Y1325D02*
Y1464D01*
X3900Y1320D02*
Y1468D01*
X3950Y1300D02*
Y1488D01*
X4000Y1258D02*
Y1531D01*
X4036Y1600D02*
X4367D01*
X4014Y1550D02*
X4389D01*
X3700Y1746D02*
Y2041D01*
X3750Y1799D02*
Y2006D01*
X3800Y1824D02*
Y1980D01*
X3850Y1833D02*
Y1972D01*
X4042Y1650D02*
X4361D01*
X4035Y1700D02*
X4368D01*
X3900Y1828D02*
Y1976D01*
X3950Y1808D02*
Y1996D01*
X4000Y1766D02*
Y2039D01*
X4400Y1255D02*
Y1534D01*
X3951Y1300D02*
X4452D01*
X4012Y1750D02*
X4391D01*
X3968Y1500D02*
X4435D01*
X4450Y1299D02*
Y1490D01*
X4650Y1293D02*
Y1496D01*
X4500Y1320D02*
Y1469D01*
X4550Y1325D02*
Y1463D01*
X4600Y1317D02*
Y1472D01*
X4400Y1763D02*
Y2041D01*
X3963Y1800D02*
X4439D01*
X4450Y1807D02*
Y1998D01*
X4650Y1801D02*
Y2004D01*
X4700Y1750D02*
Y2041D01*
X4500Y1828D02*
Y1977D01*
X4550Y1833D02*
Y1971D01*
X4600Y1825D02*
Y1980D01*
X3750Y2307D02*
Y2514D01*
X3800Y2332D02*
Y2488D01*
X4000Y2274D02*
Y2547D01*
X4400Y2271D02*
Y2550D01*
X3850Y2341D02*
Y2480D01*
X3900Y2336D02*
Y2484D01*
X3950Y2316D02*
Y2504D01*
X3700Y2271D02*
Y2567D01*
X4021Y2750D02*
X4382D01*
X3800Y2840D02*
Y3093D01*
X3850Y2849D02*
Y3091D01*
X4150Y2271D02*
Y3093D01*
X4200Y2271D02*
Y3091D01*
X4042Y2650D02*
X4361D01*
X4030Y2600D02*
X4372D01*
X4039Y2700D02*
X4364D01*
X4002Y2041D02*
X4401D01*
X3956Y2000D02*
X4447D01*
X4002Y2271D02*
X4401D01*
X3974Y2300D02*
X4429D01*
X4500Y2336D02*
Y2485D01*
X4550Y2341D02*
Y2479D01*
X4600Y2333D02*
Y2488D01*
X3942Y2500D02*
X4461D01*
X4002Y2550D02*
X4400D01*
X3983Y2800D02*
X4420D01*
X4650Y2309D02*
Y2512D01*
X4700Y2271D02*
Y2563D01*
X4450Y2315D02*
Y2506D01*
X4550Y2849D02*
Y3091D01*
X4500Y2844D02*
Y3093D01*
X2550Y3088D02*
Y3128D01*
X2600Y3038D02*
Y3101D01*
X2488Y3150D02*
X2526D01*
X2538Y3100D02*
X2603D01*
X2750Y2888D02*
Y3112D01*
X2900Y2738D02*
Y3128D01*
X2700Y2938D02*
Y3094D01*
X2799Y3150D02*
X2876D01*
X2482Y3200D02*
X2493D01*
X2800Y2838D02*
Y3151D01*
X2850Y2788D02*
Y3187D01*
X2500Y3138D02*
Y3187D01*
X2832Y3200D02*
X2843D01*
X2950Y2688D02*
Y3101D01*
X3100Y2836D02*
Y3112D01*
X2722Y3100D02*
X2953D01*
X3072D02*
X3303D01*
X3300Y2795D02*
Y3101D01*
X3450Y2271D02*
Y3112D01*
X3149Y3150D02*
X3226D01*
X3422Y3100D02*
X3773D01*
X3250Y2831D02*
Y3128D01*
X2466Y3172D02*
X2950Y2688D01*
X3150Y2848D02*
Y3151D01*
X3200Y2847D02*
Y3187D01*
X3182Y3200D02*
X3193D01*
X3499Y3150D02*
X3696D01*
X2450Y3499D02*
Y3700D01*
X2449Y3500D02*
X2526D01*
X2312Y3560D02*
Y3700D01*
X2373Y3550D02*
X2602D01*
X2482Y3450D02*
X2493D01*
X2832D02*
X2843D01*
X2500Y3463D02*
Y3700D01*
X2799Y3500D02*
X2876D01*
X2900Y3522D02*
Y3700D01*
X2400Y3538D02*
Y3700D01*
X2550Y3522D02*
Y3700D01*
X2350Y3556D02*
Y3700D01*
X2600Y3549D02*
Y3700D01*
X2800Y3499D02*
Y3700D01*
X2850Y3463D02*
Y3700D01*
X2650Y3560D02*
Y3700D01*
X2750Y3538D02*
Y3700D01*
X2700Y3556D02*
Y3700D01*
X2950Y3549D02*
Y3700D01*
X3100Y3538D02*
Y3700D01*
X2723Y3550D02*
X2952D01*
X3073D02*
X3302D01*
X3150Y3499D02*
Y3700D01*
X3182Y3450D02*
X3193D01*
X3149Y3500D02*
X3226D01*
X3499D02*
X3696D01*
X3423Y3550D02*
X3772D01*
X3200Y3463D02*
Y3700D01*
X3250Y3522D02*
Y3700D01*
X3000Y3560D02*
Y3700D01*
X3050Y3556D02*
Y3700D01*
X3450Y3538D02*
Y3700D01*
X3500Y3499D02*
Y3700D01*
X3300Y3549D02*
Y3700D01*
X3400Y3556D02*
Y3700D01*
X3350Y3560D02*
Y3700D01*
X3500Y2271D02*
Y3151D01*
X3700Y2762D02*
Y3146D01*
X3532Y3200D02*
X3663D01*
X3750Y2815D02*
Y3109D01*
X3950Y2824D02*
Y3132D01*
X4000Y2782D02*
Y3196D01*
X3900Y2844D02*
Y3103D01*
X3969Y3150D02*
X4046D01*
X4002Y3200D02*
X4013D01*
X3547Y3275D02*
Y3375D01*
X3546Y3250D02*
X3649D01*
X3547Y3350D02*
X3647D01*
X3547Y3300D02*
X3647D01*
X3550Y2271D02*
Y3700D01*
X3600Y2271D02*
Y3700D01*
X3647Y3275D02*
Y3375D01*
X3650Y2271D02*
Y3245D01*
X4050Y2271D02*
Y3146D01*
X4100Y2271D02*
Y3109D01*
X3892Y3100D02*
X4123D01*
X4242D02*
X4473D01*
X4250Y2271D02*
Y3103D01*
X4300Y2271D02*
Y3132D01*
X4450Y2823D02*
Y3109D01*
X4600Y2841D02*
Y3103D01*
X4650Y2817D02*
Y3132D01*
X4350Y2271D02*
Y3196D01*
X4352Y3200D02*
X4363D01*
X4319Y3150D02*
X4396D01*
X4400Y2779D02*
Y3146D01*
X4700Y2766D02*
Y3196D01*
X4669Y3150D02*
X4746D01*
X4702Y3200D02*
X4713D01*
X3546Y3400D02*
X3649D01*
X3532Y3450D02*
X3663D01*
X3750Y3541D02*
Y3700D01*
X4002Y3450D02*
X4013D01*
X3969Y3500D02*
X4046D01*
X3800Y3557D02*
Y3700D01*
X3893Y3550D02*
X4122D01*
X3850Y3559D02*
Y3700D01*
X3650Y3405D02*
Y3700D01*
X3700Y3504D02*
Y3700D01*
X3900Y3547D02*
Y3700D01*
X3950Y3518D02*
Y3700D01*
X4000Y3454D02*
Y3700D01*
X4050Y3504D02*
Y3700D01*
X4100Y3541D02*
Y3700D01*
X4200Y3559D02*
Y3700D01*
X4150Y3557D02*
Y3700D01*
X4319Y3500D02*
X4396D01*
X4250Y3547D02*
Y3700D01*
X4243Y3550D02*
X4472D01*
X4352Y3450D02*
X4363D01*
X4400Y3504D02*
Y3700D01*
X4702Y3450D02*
X4713D01*
X4669Y3500D02*
X4746D01*
X4300Y3518D02*
Y3700D01*
X4350Y3454D02*
Y3700D01*
X4450Y3541D02*
Y3700D01*
X4500Y3557D02*
Y3700D01*
X4700Y3454D02*
Y3700D01*
X4750Y3504D02*
Y3700D01*
X4550Y3559D02*
Y3700D01*
X4650Y3518D02*
Y3700D01*
X4600Y3547D02*
Y3700D01*
X4656Y1500D02*
X5124D01*
X4639Y1300D02*
X5140D01*
X4724Y1600D02*
X5055D01*
X4702Y1550D02*
X5077D01*
X5100Y1268D02*
Y1521D01*
X5150Y1305D02*
Y1484D01*
X5200Y1322D02*
Y1467D01*
X5250Y1325D02*
Y1464D01*
X4731Y1650D02*
X5049D01*
X4723Y1700D02*
X5056D01*
X4700Y1750D02*
X5079D01*
X4652Y1800D02*
X5128D01*
X5050Y1668D02*
Y2041D01*
X5100Y1776D02*
Y2029D01*
X5150Y1813D02*
Y1992D01*
X5250Y1833D02*
Y1972D01*
X5200Y1830D02*
Y1975D01*
X5300Y1313D02*
Y1476D01*
X3015Y1350D02*
X12450D01*
X3015Y1450D02*
X12450D01*
X3015Y1400D02*
X12450D01*
X5350Y1285D02*
Y1504D01*
X5328Y1300D02*
X5829D01*
X5413Y1600D02*
X5744D01*
X5344Y1500D02*
X5812D01*
X5391Y1550D02*
X5766D01*
X5340Y1800D02*
X5816D01*
X5300Y1821D02*
Y1984D01*
X3025Y1850D02*
X12450D01*
X5419Y1650D02*
X5737D01*
X5412Y1700D02*
X5745D01*
X5350Y1793D02*
Y2012D01*
X5389Y1750D02*
X5768D01*
X5400Y1730D02*
Y2041D01*
X4690D02*
X5089D01*
X4644Y2000D02*
X5135D01*
X4690Y2271D02*
X5089D01*
X4662Y2300D02*
X5117D01*
X5150Y2321D02*
Y2500D01*
X5200Y2338D02*
Y2483D01*
X5250Y2341D02*
Y2480D01*
X5300Y2329D02*
Y2492D01*
X4691Y2550D02*
X5089D01*
X4630Y2500D02*
X5149D01*
X4719Y2600D02*
X5061D01*
X4710Y2750D02*
X5070D01*
X5050Y2271D02*
Y2645D01*
X5100Y2284D02*
Y2537D01*
X4730Y2650D02*
X5050D01*
X5350Y2301D02*
Y2520D01*
X4727Y2700D02*
X5052D01*
X3125Y1950D02*
X12450D01*
X3075Y1900D02*
X12450D01*
X2950Y2400D02*
X12450D01*
X2950Y2350D02*
X12450D01*
X5333Y2000D02*
X5824D01*
X5379Y2041D02*
X5778D01*
X5379Y2271D02*
X5778D01*
X5351Y2300D02*
X5806D01*
X5319Y2500D02*
X5838D01*
X2950Y2450D02*
X12450D01*
X5379Y2550D02*
X5777D01*
X5360Y2800D02*
X5797D01*
X5400Y2271D02*
Y2583D01*
X5407Y2600D02*
X5749D01*
X5418Y2650D02*
X5738D01*
X5416Y2700D02*
X5741D01*
X5398Y2750D02*
X5758D01*
X5800Y1279D02*
Y1510D01*
X5850Y1311D02*
Y1478D01*
X5900Y1324D02*
Y1465D01*
X5950Y1323D02*
Y1465D01*
X6000Y1308D02*
Y1480D01*
X6050Y1274D02*
Y1514D01*
X6107Y1650D02*
X6426D01*
X6101Y1600D02*
X6432D01*
X5750Y1715D02*
Y2041D01*
X5800Y1787D02*
Y2018D01*
X5850Y1819D02*
Y1986D01*
X6100Y1700D02*
Y2041D01*
X6100Y1700D02*
X6433D01*
X6000Y1816D02*
Y1988D01*
X6050Y1782D02*
Y2022D01*
X6450Y1740D02*
Y2041D01*
X6072Y1250D02*
X6462D01*
X6016Y1300D02*
X6517D01*
X6033Y1500D02*
X6500D01*
X6550Y1315D02*
Y1474D01*
X6700Y1303D02*
Y1486D01*
X6704Y1300D02*
X7206D01*
X6600Y1325D02*
Y1464D01*
X6650Y1321D02*
Y1468D01*
X6721Y1500D02*
X7189D01*
X6079Y1550D02*
X6454D01*
X6077Y1750D02*
X6456D01*
X6029Y1800D02*
X6505D01*
X6500Y1796D02*
Y2008D01*
Y1288D02*
Y1500D01*
X6550Y1823D02*
Y1982D01*
X6717Y1800D02*
X7193D01*
X6700Y1811D02*
Y1994D01*
X5800Y2295D02*
Y2526D01*
X5850Y2327D02*
Y2494D01*
X5900Y1832D02*
Y1973D01*
X5950Y1831D02*
Y1973D01*
X5900Y2340D02*
Y2481D01*
X5950Y2339D02*
Y2481D01*
X6000Y2324D02*
Y2496D01*
X5750Y2271D02*
Y2597D01*
X6050Y2290D02*
Y2530D01*
X6086Y2750D02*
X6447D01*
X6068Y2550D02*
X6466D01*
X6100Y2271D02*
Y2612D01*
X6450Y2271D02*
Y2573D01*
X6107Y2650D02*
X6426D01*
X6096Y2600D02*
X6437D01*
X6104Y2700D02*
X6429D01*
X6067Y2041D02*
X6466D01*
X6021Y2000D02*
X6512D01*
X6067Y2271D02*
X6466D01*
X6039Y2300D02*
X6494D01*
X6600Y1833D02*
Y1972D01*
X6650Y1829D02*
Y1976D01*
X6710Y2000D02*
X7201D01*
X6728Y2300D02*
X7183D01*
X6500Y2304D02*
Y2516D01*
X6007Y2500D02*
X6526D01*
X6550Y2331D02*
Y2490D01*
X6700Y2319D02*
Y2502D01*
X6750Y2278D02*
Y2542D01*
X6600Y2341D02*
Y2480D01*
X6650Y2337D02*
Y2484D01*
X6696Y2500D02*
X7215D01*
X4850Y2271D02*
Y3093D01*
X4900Y2271D02*
Y3091D01*
X4592Y3100D02*
X4823D01*
X4671Y2800D02*
X5108D01*
X5200Y2846D02*
Y3093D01*
X5300Y2837D02*
Y3103D01*
X4942Y3100D02*
X5173D01*
X5250Y2849D02*
Y3091D01*
X4800Y2271D02*
Y3109D01*
X4950Y2271D02*
Y3103D01*
X4750Y2271D02*
Y3146D01*
X5000Y2271D02*
Y3132D01*
X5050Y2684D02*
Y3196D01*
X5019Y3150D02*
X5096D01*
X5150Y2829D02*
Y3109D01*
X5100Y2792D02*
Y3146D01*
X2688Y2950D02*
X12450D01*
X2738Y2900D02*
X12450D01*
X2588Y3050D02*
X12450D01*
X2638Y3000D02*
X12450D01*
X5550Y2271D02*
Y3093D01*
X5600Y2271D02*
Y3091D01*
X2788Y2850D02*
X12450D01*
X5292Y3100D02*
X5523D01*
X5350Y2809D02*
Y3132D01*
X5400Y2746D02*
Y3196D01*
X5369Y3150D02*
X5446D01*
X5450Y2271D02*
Y3146D01*
X5500Y2271D02*
Y3109D01*
X5650Y2271D02*
Y3103D01*
X5642Y3100D02*
X5873D01*
X4800Y3541D02*
Y3700D01*
X4593Y3550D02*
X4822D01*
X4943D02*
X5172D01*
X5052Y3450D02*
X5063D01*
X5052Y3200D02*
X5063D01*
X4950Y3547D02*
Y3700D01*
X5019Y3500D02*
X5096D01*
X5000Y3518D02*
Y3700D01*
X5050Y3454D02*
Y3700D01*
X5100Y3504D02*
Y3700D01*
X4850Y3557D02*
Y3700D01*
X4900Y3559D02*
Y3700D01*
X5150Y3541D02*
Y3700D01*
X5350Y3518D02*
Y3700D01*
X5200Y3557D02*
Y3700D01*
X5300Y3547D02*
Y3700D01*
X5250Y3559D02*
Y3700D01*
X5293Y3550D02*
X5522D01*
X2312Y3650D02*
X12450D01*
X2312Y3600D02*
X12450D01*
X5402Y3200D02*
X5413D01*
X5402Y3450D02*
X5413D01*
X5369Y3500D02*
X5446D01*
X5643Y3550D02*
X5872D01*
X5400Y3454D02*
Y3700D01*
X5450Y3504D02*
Y3700D01*
X2312D02*
X12450D01*
X2312Y3700D02*
X12450D01*
X5500Y3541D02*
Y3700D01*
X5700Y3518D02*
Y3700D01*
X5550Y3557D02*
Y3700D01*
X5650Y3547D02*
Y3700D01*
X5600Y3559D02*
Y3700D01*
X5700Y2271D02*
Y3132D01*
X5850Y2835D02*
Y3109D01*
X5900Y2848D02*
Y3093D01*
X6050Y2798D02*
Y3132D01*
X6200Y2271D02*
Y3109D01*
X5950Y2847D02*
Y3091D01*
X5992Y3100D02*
X6223D01*
X6000Y2832D02*
Y3103D01*
X5750Y2731D02*
Y3196D01*
X5752Y3200D02*
X5763D01*
X5719Y3150D02*
X5796D01*
X6100Y2716D02*
Y3196D01*
X6150Y2271D02*
Y3146D01*
X5800Y2803D02*
Y3146D01*
X6069Y3150D02*
X6146D01*
X6102Y3200D02*
X6113D01*
X6250Y2271D02*
Y3093D01*
X6300Y2271D02*
Y3091D01*
X6048Y2800D02*
X6485D01*
X6342Y3100D02*
X6693D01*
X6350Y2271D02*
Y3103D01*
X6650Y2845D02*
Y3121D01*
X6737Y2800D02*
X7174D01*
X6700Y2827D02*
Y3098D01*
X6400Y2271D02*
Y3132D01*
X6450Y2756D02*
Y3196D01*
X6419Y3150D02*
X6616D01*
X6500Y2812D02*
Y3700D01*
X6550Y2839D02*
Y3700D01*
X6452Y3200D02*
X6583D01*
X6600Y2849D02*
Y3170D01*
X5752Y3450D02*
X5763D01*
X5719Y3500D02*
X5796D01*
X5850Y3541D02*
Y3700D01*
X6102Y3450D02*
X6113D01*
X6069Y3500D02*
X6146D01*
X5900Y3557D02*
Y3700D01*
X5993Y3550D02*
X6222D01*
X5950Y3559D02*
Y3700D01*
X5750Y3454D02*
Y3700D01*
X5800Y3504D02*
Y3700D01*
X6000Y3547D02*
Y3700D01*
X6050Y3518D02*
Y3700D01*
X6100Y3454D02*
Y3700D01*
X6150Y3504D02*
Y3700D01*
X6200Y3541D02*
Y3700D01*
X6300Y3559D02*
Y3700D01*
X6250Y3557D02*
Y3700D01*
X6466Y3250D02*
X6569D01*
X6452Y3450D02*
X6583D01*
X6419Y3500D02*
X6616D01*
X6343Y3550D02*
X6692D01*
X6468Y3275D02*
Y3375D01*
X6568Y3275D02*
Y3375D01*
X6468Y3300D02*
X6568D01*
X6468Y3350D02*
X6568D01*
X6466Y3400D02*
X6569D01*
X6450Y3454D02*
Y3700D01*
X6350Y3547D02*
Y3700D01*
X6400Y3518D02*
Y3700D01*
X6600Y3480D02*
Y3700D01*
X6650Y3529D02*
Y3700D01*
X6750Y3560D02*
Y3700D01*
X6700Y3552D02*
Y3700D01*
X6900Y-450D02*
Y-80D01*
X6950Y-450D02*
Y-57D01*
X6800Y-450D02*
Y-73D01*
X6850Y-450D02*
Y-84D01*
X7150Y-450D02*
Y-81D01*
X7200Y-450D02*
Y-60D01*
X7050Y-450D02*
Y-71D01*
X7100Y-450D02*
Y-84D01*
X6767Y-85D02*
Y-54D01*
X6960Y-50D02*
X7015D01*
X7000Y-450D02*
Y-36D01*
Y187D02*
Y218D01*
X7350Y-450D02*
Y-84D01*
X7400Y-450D02*
Y-81D01*
X7214Y-50D02*
X7269D01*
X7300Y-450D02*
Y-69D01*
X7450Y-450D02*
Y-62D01*
X7550Y-450D02*
Y-67D01*
X7468Y-50D02*
X7523D01*
X7600Y-450D02*
Y-83D01*
X7650Y-450D02*
Y-82D01*
X7250Y-450D02*
Y-32D01*
Y183D02*
Y222D01*
X7500Y-450D02*
Y-27D01*
Y178D02*
Y227D01*
X6961Y200D02*
X7014D01*
X6850Y489D02*
Y593D01*
X6966Y450D02*
X7009D01*
X7000Y441D02*
Y593D01*
X7220Y450D02*
X7263D01*
X6950Y462D02*
Y593D01*
X7050Y476D02*
Y593D01*
X6800Y477D02*
Y593D01*
X6900Y484D02*
Y593D01*
X7200Y465D02*
Y593D01*
X7250Y437D02*
Y593D01*
X7100Y489D02*
Y593D01*
X7150Y485D02*
Y593D01*
X7250Y823D02*
Y962D01*
X7215Y200D02*
X7268D01*
X7400Y486D02*
Y593D01*
X7469Y200D02*
X7522D01*
X7474Y450D02*
X7517D01*
X7300Y474D02*
Y593D01*
X7450Y467D02*
Y593D01*
X7300Y823D02*
Y955D01*
X7350Y488D02*
Y593D01*
X7500Y432D02*
Y593D01*
X7700Y469D02*
Y593D01*
X7550Y472D02*
Y593D01*
X7650Y487D02*
Y593D01*
X7600Y488D02*
Y593D01*
X7850Y-450D02*
Y-82D01*
X7900Y-450D02*
Y-83D01*
X7700Y-450D02*
Y-65D01*
X7800Y-450D02*
Y-65D01*
X8150Y-450D02*
Y-83D01*
X8200Y-450D02*
Y-69D01*
X7950Y-450D02*
Y-67D01*
X8100Y-450D02*
Y-82D01*
X7750Y-450D02*
Y-22D01*
X8000Y-450D02*
Y-26D01*
X8350Y-450D02*
Y593D01*
X8400Y-450D02*
Y593D01*
X8050Y-450D02*
Y-63D01*
X8250Y-450D02*
Y-31D01*
X8300Y-450D02*
Y593D01*
X9000Y-450D02*
Y593D01*
X9050Y-450D02*
Y593D01*
X8900Y-450D02*
Y593D01*
X8950Y-450D02*
Y593D01*
X9250Y-450D02*
Y593D01*
X9300Y-450D02*
Y593D01*
X9100Y-450D02*
Y593D01*
X9200Y-450D02*
Y593D01*
X9150Y-450D02*
Y593D01*
X8550Y-450D02*
Y593D01*
X8600Y-450D02*
Y593D01*
X8450Y-450D02*
Y593D01*
X8500Y-450D02*
Y593D01*
X8800Y-450D02*
Y593D01*
X8850Y-450D02*
Y593D01*
X8650Y-450D02*
Y593D01*
X8750Y-450D02*
Y593D01*
X8700Y-450D02*
Y593D01*
X7722Y-50D02*
X7777D01*
X7723Y200D02*
X7776D01*
X7750Y173D02*
Y232D01*
X8000Y177D02*
Y228D01*
X7750Y427D02*
Y593D01*
X7728Y450D02*
X7771D01*
X7800Y470D02*
Y593D01*
X7850Y487D02*
Y593D01*
X7950Y472D02*
Y593D01*
X8000Y431D02*
Y593D01*
X7900Y488D02*
Y593D01*
X8000Y823D02*
Y956D01*
X7950Y823D02*
Y959D01*
X7976Y-50D02*
X8031D01*
X7982Y450D02*
X8025D01*
X7977Y200D02*
X8030D01*
X8250Y182D02*
Y223D01*
X8050Y468D02*
Y593D01*
X8100Y486D02*
Y593D01*
X8200Y474D02*
Y593D01*
X8250Y436D02*
Y593D01*
X8150Y488D02*
Y593D01*
X8700Y823D02*
Y957D01*
X8650Y823D02*
Y957D01*
X6772Y1050D02*
X7138D01*
X7150Y823D02*
Y1031D01*
X6796Y1150D02*
X7115D01*
X6791Y1100D02*
X7119D01*
X7400Y823D02*
Y985D01*
X7450Y823D02*
Y1033D01*
X7200Y823D02*
Y984D01*
X7350Y823D02*
Y962D01*
X6850Y823D02*
Y2041D01*
X6900Y823D02*
Y2041D01*
X6800Y823D02*
Y2041D01*
X6786Y1200D02*
X7124D01*
X6950Y823D02*
Y2041D01*
X7000Y823D02*
Y2041D01*
X7050Y823D02*
Y2041D01*
X7150Y1250D02*
Y1539D01*
X7100Y823D02*
Y2041D01*
X7420Y1000D02*
X7867D01*
X7475Y1200D02*
X7813D01*
X7461Y1050D02*
X7826D01*
X7850Y823D02*
Y1017D01*
X7900Y823D02*
Y978D01*
X7484Y1150D02*
X7803D01*
X8050Y823D02*
Y966D01*
X7480Y1100D02*
X7807D01*
X7550Y823D02*
Y2041D01*
X7600Y823D02*
Y2041D01*
X7450Y1248D02*
Y1541D01*
X7500Y823D02*
Y2041D01*
X7650Y823D02*
Y2041D01*
X7700Y823D02*
Y2041D01*
X7750Y823D02*
Y2041D01*
X7800Y823D02*
Y2041D01*
X6750Y1262D02*
Y1526D01*
X6760Y1250D02*
X7150D01*
X6789Y1600D02*
X7121D01*
X6768Y1550D02*
X7143D01*
X7200Y1296D02*
Y1492D01*
X7400Y1296D02*
Y1493D01*
X7250Y1319D02*
Y1470D01*
X7300Y1325D02*
Y1463D01*
X7350Y1318D02*
Y1470D01*
X6796Y1650D02*
X7114D01*
X6789Y1700D02*
X7122D01*
X6750Y1770D02*
Y2034D01*
X6766Y1750D02*
X7145D01*
X7450Y1756D02*
Y2041D01*
X7150Y1758D02*
Y2041D01*
X7200Y1804D02*
Y2000D01*
X7400Y1804D02*
Y2001D01*
X7448Y1250D02*
X7839D01*
X7850Y1264D02*
Y1525D01*
X7410Y1500D02*
X7877D01*
X7393Y1300D02*
X7894D01*
X7900Y1303D02*
Y1486D01*
X8081Y1300D02*
X8583D01*
X7950Y1321D02*
Y1467D01*
X8000Y1325D02*
Y1464D01*
X8050Y1315D02*
Y1474D01*
X7477Y1700D02*
X7810D01*
X7456Y1550D02*
X7831D01*
X7454Y1750D02*
X7833D01*
X7405Y1800D02*
X7882D01*
X7478Y1600D02*
X7809D01*
X7484Y1650D02*
X7803D01*
X8094Y1800D02*
X8570D01*
X7850Y1772D02*
Y2033D01*
X8100Y823D02*
Y993D01*
X8150Y823D02*
Y1051D01*
X8149Y1050D02*
X8515D01*
X8108Y1000D02*
X8556D01*
X8600Y823D02*
Y972D01*
X8750Y823D02*
Y971D01*
X8168Y1100D02*
X8496D01*
X8550Y823D02*
Y1005D01*
X8500Y823D02*
Y1084D01*
X8200Y823D02*
Y2041D01*
X8250Y823D02*
Y2041D01*
X8173Y1150D02*
X8492D01*
X8163Y1200D02*
X8501D01*
X8300Y823D02*
Y2041D01*
X8350Y823D02*
Y2041D01*
X8400Y823D02*
Y2041D01*
X8500Y1196D02*
Y1592D01*
X8450Y823D02*
Y2041D01*
X8800Y823D02*
Y1003D01*
X8850Y823D02*
Y1077D01*
X8838Y1050D02*
X9203D01*
X8797Y1000D02*
X9244D01*
X9200Y823D02*
Y1056D01*
X9250Y823D02*
Y995D01*
X8861Y1150D02*
X9180D01*
X9300Y823D02*
Y967D01*
X8857Y1100D02*
X9184D01*
X8900Y823D02*
Y2041D01*
X8850Y1204D02*
Y1585D01*
X8851Y1200D02*
X9190D01*
X9100Y823D02*
Y2041D01*
X9150Y823D02*
Y2041D01*
X8950Y823D02*
Y2041D01*
X9050Y823D02*
Y2041D01*
X9000Y823D02*
Y2041D01*
X8100Y1288D02*
Y1501D01*
X8137Y1250D02*
X8527D01*
X8144Y1550D02*
X8520D01*
X8098Y1500D02*
X8566D01*
X8550Y1276D02*
Y1513D01*
X8600Y1309D02*
Y1480D01*
X8650Y1324D02*
Y1465D01*
X8700Y1324D02*
Y1465D01*
X8750Y1310D02*
Y1479D01*
X8150Y1737D02*
Y2041D01*
Y1229D02*
Y1559D01*
X8100Y1796D02*
Y2009D01*
X8142Y1750D02*
X8522D01*
X8173Y1650D02*
X8491D01*
X8166Y1600D02*
X8498D01*
X8165Y1700D02*
X8499D01*
X8550Y1784D02*
Y2021D01*
X8500Y1704D02*
Y2041D01*
X8800Y1278D02*
Y1511D01*
X8825Y1250D02*
X9216D01*
X8787Y1500D02*
X9254D01*
X8770Y1300D02*
X9271D01*
X9200Y1224D02*
Y1564D01*
X9250Y1285D02*
Y1503D01*
X8855Y1600D02*
X9186D01*
X9300Y1314D02*
Y1475D01*
X8833Y1550D02*
X9208D01*
X8831Y1750D02*
X9210D01*
X8800Y1786D02*
Y2019D01*
X8782Y1800D02*
X9259D01*
X8861Y1650D02*
X9180D01*
X8854Y1700D02*
X9187D01*
X8850Y1712D02*
Y2041D01*
X9250Y1793D02*
Y2011D01*
X9200Y1732D02*
Y2041D01*
X9900Y-450D02*
Y593D01*
X9950Y-450D02*
Y593D01*
X9800Y-450D02*
Y593D01*
X9850Y-450D02*
Y593D01*
X10100Y-450D02*
Y593D01*
X10150Y-450D02*
Y593D01*
X10000Y-450D02*
Y593D01*
X10050Y-450D02*
Y593D01*
X9450Y-450D02*
Y593D01*
X9500Y-450D02*
Y593D01*
X9350Y-450D02*
Y593D01*
X9400Y-450D02*
Y593D01*
X9700Y-450D02*
Y593D01*
X9750Y-450D02*
Y593D01*
X9550Y-450D02*
Y593D01*
X9650Y-450D02*
Y593D01*
X9600Y-450D02*
Y593D01*
X8272Y-0D02*
X10565D01*
X8230Y-50D02*
X10568D01*
X8231Y200D02*
X10614D01*
X8270Y250D02*
X10644D01*
X10350Y-450D02*
Y274D01*
X10400Y-450D02*
Y271D01*
X8289Y50D02*
X10568D01*
X8289Y100D02*
X10577D01*
X8272Y150D02*
X10592D01*
X10200Y-450D02*
Y580D01*
X8289Y350D02*
X10259D01*
X8288Y300D02*
X10298D01*
X10250Y-450D02*
Y379D01*
X10300Y-450D02*
Y298D01*
X10450Y-450D02*
Y288D01*
X10467Y300D02*
X10685D01*
X10500Y-450D02*
Y338D01*
X8274Y400D02*
X10248D01*
X8236Y450D02*
X10255D01*
X9350Y823D02*
Y956D01*
X9400Y823D02*
Y959D01*
X10250Y431D02*
Y530D01*
X10187Y593D02*
X10268Y512D01*
X10000Y823D02*
Y963D01*
X10050Y823D02*
Y955D01*
X10100Y823D02*
Y961D01*
X9450Y823D02*
Y976D01*
X9500Y823D02*
Y1014D01*
X9526Y1050D02*
X9892D01*
X9485Y1000D02*
X9933D01*
X10150Y823D02*
Y983D01*
X10200Y823D02*
Y1028D01*
X9545Y1100D02*
X9873D01*
X9950Y823D02*
Y987D01*
X9900Y823D02*
Y1037D01*
X10268Y476D02*
Y512D01*
X10455Y650D02*
X12450D01*
X10498Y476D02*
Y560D01*
X10490Y600D02*
X12450D01*
X10498Y500D02*
X12450D01*
X10498Y550D02*
X12450D01*
X10174Y1000D02*
X10621D01*
X10234Y1100D02*
X10561D01*
X10215Y1050D02*
X10580D01*
X10316Y789D02*
X10464Y641D01*
X10405Y700D02*
X12450D01*
X10355Y750D02*
X12450D01*
X10303Y800D02*
X12450D01*
X10950Y-450D02*
Y-432D01*
X11000Y-450D02*
Y-435D01*
X10850Y-450D02*
Y-408D01*
X10900Y-450D02*
Y-423D01*
X11150Y-450D02*
Y-408D01*
X11200Y-450D02*
Y-386D01*
X11050Y-450D02*
Y-432D01*
X11100Y-450D02*
Y-423D01*
X10700Y-450D02*
Y-315D01*
X10750Y-450D02*
Y-356D01*
X10600Y-450D02*
Y-171D01*
X10650Y-450D02*
Y-258D01*
X11350Y-450D02*
Y-258D01*
X11400Y-450D02*
Y-171D01*
X10800Y-450D02*
Y-386D01*
X11250Y-450D02*
Y-356D01*
X11300Y-450D02*
Y-315D01*
X11171Y-400D02*
X12450D01*
X11315Y-300D02*
X12450D01*
X11258Y-350D02*
X12450D01*
X11450Y-450D02*
Y956D01*
X12100Y-450D02*
Y956D01*
X12150Y-450D02*
Y958D01*
X11356Y-250D02*
X12450D01*
X11386Y-200D02*
X12450D01*
X11600Y-450D02*
Y1067D01*
X11950Y-450D02*
Y1064D01*
X11500Y-450D02*
Y969D01*
X11550Y-450D02*
Y999D01*
X12250Y-450D02*
Y1010D01*
X12300Y-450D02*
Y1104D01*
X12000Y-450D02*
Y998D01*
X12050Y-450D02*
Y969D01*
X12200Y-450D02*
Y974D01*
X10650Y258D02*
Y980D01*
X10700Y315D02*
Y960D01*
X10506Y350D02*
X10742D01*
X10517Y400D02*
X10829D01*
X11350Y258D02*
Y974D01*
X11400Y171D02*
Y958D01*
X10750Y356D02*
Y956D01*
X10800Y386D02*
Y965D01*
X10850Y408D02*
Y990D01*
X10600Y171D02*
Y1021D01*
X10900Y423D02*
Y1045D01*
X10903Y1050D02*
X11269D01*
X10862Y1000D02*
X11310D01*
X11250Y356D02*
Y1098D01*
X11300Y315D02*
Y1009D01*
X10926Y1150D02*
X11245D01*
X11611Y1100D02*
X11938D01*
X10922D02*
X11250D01*
X11408Y150D02*
X12450D01*
X11408Y-150D02*
X12450D01*
X11356Y250D02*
X12450D01*
X11386Y200D02*
X12450D01*
X11432Y-50D02*
X12450D01*
X11423Y-100D02*
X12450D01*
X11423Y100D02*
X12450D01*
X11435Y-0D02*
X12450D01*
X11432Y50D02*
X12450D01*
X11258Y350D02*
X12450D01*
X11315Y300D02*
X12450D01*
X10510Y450D02*
X12450D01*
X11171Y400D02*
X12450D01*
X11551Y1000D02*
X11998D01*
X12239D02*
X12450D01*
X11592Y1050D02*
X11957D01*
X12280D02*
X12450D01*
X12299Y1100D02*
X12450D01*
X9514Y1250D02*
X9904D01*
X9500Y1267D02*
Y1522D01*
X9458Y1300D02*
X9960D01*
X9550Y1150D02*
X9868D01*
X9540Y1200D02*
X9878D01*
X9950Y1294D02*
Y1495D01*
X10150Y1298D02*
Y1491D01*
X9650Y823D02*
Y2041D01*
X9700Y823D02*
Y2041D01*
X9550Y823D02*
Y2041D01*
X9600Y823D02*
Y2041D01*
X9750Y823D02*
Y2041D01*
X9800Y823D02*
Y2041D01*
X9850Y823D02*
Y2041D01*
X10200Y1253D02*
Y1536D01*
X9900Y1244D02*
Y1545D01*
X10228Y1200D02*
X10567D01*
X10202Y1250D02*
X10593D01*
X10147Y1300D02*
X10648D01*
X10238Y1150D02*
X10557D01*
X10650Y1301D02*
Y1488D01*
X10891Y1250D02*
X11281D01*
X10835Y1300D02*
X11337D01*
X10350Y755D02*
Y2041D01*
X10400Y705D02*
Y2041D01*
X10250Y822D02*
Y2041D01*
X10300Y802D02*
Y2041D01*
X10500Y472D02*
Y2041D01*
X10550Y-450D02*
Y2041D01*
X10450Y655D02*
Y2041D01*
X10850Y1290D02*
Y1498D01*
X10600Y1259D02*
Y1529D01*
X9400Y1322D02*
Y1467D01*
X9450Y1305D02*
Y1484D01*
X9350Y1325D02*
Y1464D01*
X9475Y1500D02*
X9943D01*
X10000Y1318D02*
Y1471D01*
X10100Y1319D02*
Y1469D01*
X9543Y1600D02*
X9875D01*
X10050Y1325D02*
Y1463D01*
X9521Y1550D02*
X9897D01*
X9519Y1750D02*
X9899D01*
X9500Y1775D02*
Y2030D01*
X9471Y1800D02*
X9947D01*
X9550Y1650D02*
X9868D01*
X9542Y1700D02*
X9876D01*
X9900Y1752D02*
Y2041D01*
X9950Y1802D02*
Y2003D01*
X10200Y1761D02*
Y2041D01*
X10210Y1550D02*
X10585D01*
X10164Y1500D02*
X10631D01*
X10238Y1650D02*
X10557D01*
X10232Y1600D02*
X10563D01*
X10700Y1321D02*
Y1468D01*
X10800Y1316D02*
Y1473D01*
X10750Y1325D02*
Y1464D01*
X10852Y1500D02*
X11320D01*
X10898Y1550D02*
X11273D01*
X10231Y1700D02*
X10564D01*
X10208Y1750D02*
X10587D01*
X10159Y1800D02*
X10636D01*
X10896Y1750D02*
X11276D01*
X10600Y1767D02*
Y2037D01*
X10848Y1800D02*
X11324D01*
X10850Y1798D02*
Y2006D01*
X11050Y432D02*
Y2041D01*
X11100Y423D02*
Y2041D01*
X10900Y1236D02*
Y1553D01*
X10917Y1200D02*
X11255D01*
X11250Y1182D02*
Y1606D01*
X11300Y1272D02*
Y1517D01*
X11550Y1281D02*
Y1507D01*
X11600Y1214D02*
Y1575D01*
X11150Y408D02*
Y2041D01*
X11200Y386D02*
Y2041D01*
X10950Y432D02*
Y2041D01*
X11000Y435D02*
Y2041D01*
X11800Y-450D02*
Y2041D01*
X11850Y-450D02*
Y2041D01*
X11650Y-450D02*
Y2041D01*
X11750Y-450D02*
Y2041D01*
X11700Y-450D02*
Y2041D01*
X11615Y1150D02*
X11934D01*
X11605Y1200D02*
X11943D01*
X11579Y1250D02*
X11970D01*
X11524Y1300D02*
X12025D01*
X12303Y1150D02*
X12450D01*
X12212Y1300D02*
X12450D01*
X12294Y1200D02*
X12450D01*
X12268Y1250D02*
X12450D01*
X11900Y-450D02*
Y2041D01*
X11950Y1216D02*
Y1572D01*
X12000Y1282D02*
Y1506D01*
X12250Y1271D02*
Y1518D01*
X12450Y-450D02*
Y3700D01*
X12450Y-450D02*
Y3700D01*
X12300Y1177D02*
Y1612D01*
X12400Y-450D02*
Y3700D01*
X12350Y-450D02*
Y3700D01*
X11350Y1307D02*
Y1482D01*
X11400Y1323D02*
Y1466D01*
X10927Y1650D02*
X11245D01*
X10920Y1600D02*
X11252D01*
X11450Y1324D02*
Y1464D01*
X11500Y1312D02*
Y1477D01*
X11615Y1650D02*
X11934D01*
X11587Y1550D02*
X11962D01*
X11609Y1600D02*
X11940D01*
X11250Y1690D02*
Y2041D01*
X10900Y1744D02*
Y2041D01*
X10919Y1700D02*
X11252D01*
X11600Y1722D02*
Y2041D01*
X11608Y1700D02*
X11941D01*
X11300Y1780D02*
Y2025D01*
X11550Y1789D02*
Y2015D01*
X11950Y1724D02*
Y2041D01*
X12050Y1312D02*
Y1477D01*
X12150Y1323D02*
Y1466D01*
X11541Y1500D02*
X12008D01*
X12100Y1324D02*
Y1464D01*
X12200Y1307D02*
Y1482D01*
X12229Y1500D02*
X12450D01*
X12304Y1650D02*
X12450D01*
X12275Y1550D02*
X12450D01*
X12297Y1600D02*
X12450D01*
X11585Y1750D02*
X11964D01*
X12000Y1790D02*
Y2014D01*
X11536Y1800D02*
X12013D01*
X12300Y1685D02*
Y2120D01*
X12296Y1700D02*
X12450D01*
X12250Y1779D02*
Y2026D01*
X12273Y1750D02*
X12450D01*
X12225Y1800D02*
X12450D01*
X6756Y2041D02*
X7154D01*
X6756Y2271D02*
X7154D01*
X7250Y1827D02*
Y1978D01*
X7350Y1826D02*
Y1978D01*
X7200Y2312D02*
Y2508D01*
X7300Y1833D02*
Y1971D01*
X7000Y2271D02*
Y3121D01*
X7050Y2271D02*
Y3098D01*
X6800Y2271D02*
Y3096D01*
X6850Y2271D02*
Y3118D01*
X7100Y2271D02*
Y3090D01*
X7150Y2271D02*
Y2555D01*
X7400Y2312D02*
Y2509D01*
X7450Y2271D02*
Y2557D01*
X7500Y2271D02*
Y3096D01*
X7398Y2000D02*
X7889D01*
X7444Y2271D02*
X7843D01*
X7444Y2041D02*
X7843D01*
X7900Y1811D02*
Y1994D01*
X8050Y1823D02*
Y1982D01*
X7950Y1829D02*
Y1975D01*
X8000Y1833D02*
Y1972D01*
X8087Y2000D02*
X8578D01*
X7700Y2271D02*
Y3121D01*
X7750Y2271D02*
Y3098D01*
X7550Y2271D02*
Y3118D01*
X7416Y2300D02*
X7871D01*
X7800Y2271D02*
Y3090D01*
X7850Y2280D02*
Y2541D01*
X8104Y2300D02*
X8560D01*
X8100Y2304D02*
Y2517D01*
X6784Y2600D02*
X7126D01*
X6756Y2550D02*
X7154D01*
X6792Y2700D02*
X7118D01*
X6775Y2750D02*
X7135D01*
X7250Y2335D02*
Y2486D01*
X7350Y2334D02*
Y2486D01*
X6795Y2650D02*
X7115D01*
X7300Y2341D02*
Y2479D01*
X6750Y2786D02*
Y3090D01*
X7150Y2774D02*
Y3096D01*
X6812Y3100D02*
X7043D01*
X7162D02*
X7393D01*
X7400Y2820D02*
Y3098D01*
X7450Y2772D02*
Y3090D01*
X7200Y2820D02*
Y3118D01*
X7512Y3100D02*
X7743D01*
X7350Y2842D02*
Y3121D01*
X7445Y2550D02*
X7842D01*
X7384Y2500D02*
X7903D01*
X7484Y2650D02*
X7803D01*
X7473Y2600D02*
X7814D01*
X7900Y2319D02*
Y2502D01*
X8050Y2331D02*
Y2490D01*
X7950Y2337D02*
Y2483D01*
X8000Y2341D02*
Y2480D01*
X8073Y2500D02*
X8591D01*
X7481Y2700D02*
X7806D01*
X7463Y2750D02*
X7824D01*
X7425Y2800D02*
X7862D01*
X7850Y2788D02*
Y3096D01*
X8114Y2800D02*
X8550D01*
X7900Y2827D02*
Y3118D01*
X8100Y2812D02*
Y3098D01*
X7862Y3100D02*
X8093D01*
X8133Y2041D02*
X8531D01*
X8133Y2271D02*
X8531D01*
X8600Y1817D02*
Y1988D01*
X8750Y1818D02*
Y1987D01*
X8650Y1832D02*
Y1973D01*
X8700Y1832D02*
Y1973D01*
X8250Y2271D02*
Y3118D01*
X8450Y2271D02*
Y3098D01*
X8150Y2271D02*
Y2575D01*
X8200Y2271D02*
Y3096D01*
X8500Y2271D02*
Y2608D01*
X8850Y2271D02*
Y2601D01*
X8550Y2292D02*
Y2529D01*
X8800Y2294D02*
Y2527D01*
X8900Y2271D02*
Y3096D01*
X8821Y2041D02*
X9220D01*
X8775Y2000D02*
X9266D01*
X8821Y2271D02*
X9220D01*
X8793Y2300D02*
X9248D01*
X9300Y1822D02*
Y1983D01*
X9450Y1813D02*
Y1992D01*
X9350Y1833D02*
Y1972D01*
X9400Y1830D02*
Y1975D01*
X9200Y2271D02*
Y2580D01*
X8950Y2271D02*
Y3118D01*
X9150Y2271D02*
Y3098D01*
X9700Y2271D02*
Y3091D01*
X9750Y2271D02*
Y3105D01*
X9500Y2283D02*
Y2538D01*
X9650Y2271D02*
Y3092D01*
X9600Y2271D02*
Y3107D01*
X8161Y2600D02*
X8503D01*
X8133Y2550D02*
X8531D01*
X8169Y2700D02*
X8495D01*
X8152Y2750D02*
X8512D01*
X8600Y2325D02*
Y2496D01*
X8750Y2326D02*
Y2495D01*
X8172Y2650D02*
X8492D01*
X8700Y2340D02*
Y2481D01*
X8650Y2340D02*
Y2481D01*
X8500Y2720D02*
Y3090D01*
X8150Y2753D02*
Y3090D01*
X8212Y3100D02*
X8443D01*
X8550Y2800D02*
Y3096D01*
X8850Y2728D02*
Y3090D01*
X8600Y2833D02*
Y3118D01*
X8800Y2802D02*
Y3098D01*
X8562Y3100D02*
X8793D01*
X8822Y2550D02*
X9219D01*
X8761Y2500D02*
X9280D01*
X8861Y2650D02*
X9180D01*
X8850Y2600D02*
X9191D01*
X9250Y2301D02*
Y2519D01*
X9450Y2321D02*
Y2500D01*
X9300Y2330D02*
Y2491D01*
X9350Y2341D02*
Y2480D01*
X9400Y2338D02*
Y2483D01*
X8858Y2700D02*
X9183D01*
X8840Y2750D02*
X9201D01*
X8912Y3100D02*
X9143D01*
X8802Y2800D02*
X9239D01*
X9200Y2748D02*
Y3090D01*
X9250Y2809D02*
Y3096D01*
X9262Y3100D02*
X9618D01*
X9300Y2838D02*
Y3118D01*
X6900Y2271D02*
Y3163D01*
X6950Y2271D02*
Y3170D01*
X6922Y3200D02*
X6933D01*
X6889Y3150D02*
X6966D01*
X7250Y2843D02*
Y3163D01*
X7600Y2271D02*
Y3163D01*
X7300Y2849D02*
Y3170D01*
X7239Y3150D02*
X7316D01*
X6900Y3487D02*
Y3700D01*
X6922Y3450D02*
X6933D01*
X7272Y3200D02*
X7283D01*
X6950Y3480D02*
Y3700D01*
X7272Y3450D02*
X7283D01*
X7300Y3480D02*
Y3700D01*
X7650Y2271D02*
Y3170D01*
X7589Y3150D02*
X7666D01*
X7622Y3200D02*
X7633D01*
X7939Y3150D02*
X8016D01*
X7950Y2845D02*
Y3163D01*
X8050Y2839D02*
Y3121D01*
X7972Y3200D02*
X7983D01*
X8289Y3150D02*
X8366D01*
X8000Y2849D02*
Y3170D01*
X7622Y3450D02*
X7633D01*
X7650Y3480D02*
Y3700D01*
X7972Y3450D02*
X7983D01*
X8000Y3480D02*
Y3700D01*
X6850Y3532D02*
Y3700D01*
X6889Y3500D02*
X6966D01*
X6800Y3554D02*
Y3700D01*
X6813Y3550D02*
X7042D01*
X7000Y3529D02*
Y3700D01*
X7239Y3500D02*
X7316D01*
X7100Y3560D02*
Y3700D01*
X7163Y3550D02*
X7392D01*
X7150Y3554D02*
Y3700D01*
X7250Y3487D02*
Y3700D01*
X7350Y3529D02*
Y3700D01*
X7050Y3552D02*
Y3700D01*
X7200Y3532D02*
Y3700D01*
X7550Y3532D02*
Y3700D01*
X7600Y3487D02*
Y3700D01*
X7400Y3552D02*
Y3700D01*
X7500Y3554D02*
Y3700D01*
X7450Y3560D02*
Y3700D01*
X7589Y3500D02*
X7666D01*
X7700Y3529D02*
Y3700D01*
X7513Y3550D02*
X7742D01*
X7850Y3554D02*
Y3700D01*
X7939Y3500D02*
X8016D01*
X8289D02*
X8366D01*
X7900Y3532D02*
Y3700D01*
X8213Y3550D02*
X8442D01*
X7863D02*
X8092D01*
X7950Y3487D02*
Y3700D01*
X8050Y3529D02*
Y3700D01*
X7750Y3552D02*
Y3700D01*
X7800Y3560D02*
Y3700D01*
X8250Y3532D02*
Y3700D01*
X8300Y3487D02*
Y3700D01*
X8100Y3552D02*
Y3700D01*
X8200Y3554D02*
Y3700D01*
X8150Y3560D02*
Y3700D01*
X8300Y2271D02*
Y3163D01*
X8350Y2271D02*
Y3170D01*
X8400Y2271D02*
Y3121D01*
X8639Y3150D02*
X8716D01*
X8750Y2834D02*
Y3121D01*
X9000Y2271D02*
Y3163D01*
X8650Y2848D02*
Y3163D01*
X8989Y3150D02*
X9066D01*
X8700Y2848D02*
Y3170D01*
X8322Y3200D02*
X8333D01*
X8322Y3450D02*
X8333D01*
X9050Y2271D02*
Y3170D01*
X8672Y3200D02*
X8683D01*
X9022D02*
X9033D01*
X9100Y2271D02*
Y3121D01*
X9350Y2849D02*
Y3163D01*
X9339Y3150D02*
X9541D01*
X9550Y2271D02*
Y3141D01*
X9800Y2271D02*
Y3136D01*
X9386Y3250D02*
X9494D01*
X9372Y3200D02*
X9508D01*
X9500Y2791D02*
Y3223D01*
X9388Y3275D02*
Y3375D01*
Y3350D02*
X9493D01*
X9386Y3400D02*
X9494D01*
X9400Y2846D02*
Y3700D01*
X9450Y2829D02*
Y3700D01*
X9493Y3275D02*
Y3375D01*
X9388Y3300D02*
X9493D01*
X9500Y3427D02*
Y3700D01*
X8400Y3529D02*
Y3700D01*
X8563Y3550D02*
X8792D01*
X8500Y3560D02*
Y3700D01*
X8550Y3554D02*
Y3700D01*
X8672Y3450D02*
X8683D01*
X9022D02*
X9033D01*
X8600Y3532D02*
Y3700D01*
X8639Y3500D02*
X8716D01*
X8650Y3487D02*
Y3700D01*
X8350Y3480D02*
Y3700D01*
X8700Y3480D02*
Y3700D01*
X8450Y3552D02*
Y3700D01*
X8750Y3529D02*
Y3700D01*
X8950Y3532D02*
Y3700D01*
X9000Y3487D02*
Y3700D01*
X8800Y3552D02*
Y3700D01*
X8900Y3554D02*
Y3700D01*
X8850Y3560D02*
Y3700D01*
X9050Y3480D02*
Y3700D01*
X8989Y3500D02*
X9066D01*
X9100Y3529D02*
Y3700D01*
X8913Y3550D02*
X9142D01*
X9372Y3450D02*
X9508D01*
X9339Y3500D02*
X9541D01*
X9200Y3560D02*
Y3700D01*
X9263Y3550D02*
X9617D01*
X9250Y3554D02*
Y3700D01*
X9350Y3487D02*
Y3700D01*
X9550Y3509D02*
Y3700D01*
X9150Y3552D02*
Y3700D01*
X9300Y3532D02*
Y3700D01*
X9600Y3543D02*
Y3700D01*
X9800Y3514D02*
Y3700D01*
X9650Y3558D02*
Y3700D01*
X9750Y3545D02*
Y3700D01*
X9700Y3559D02*
Y3700D01*
X10000Y1826D02*
Y1979D01*
X9510Y2041D02*
X9908D01*
X9464Y2000D02*
X9954D01*
X10100Y1827D02*
Y1977D01*
X10150Y1806D02*
Y1999D01*
X10050Y1833D02*
Y1971D01*
X10198Y2041D02*
X10597D01*
X9900Y2271D02*
Y2561D01*
X9510Y2271D02*
X9908D01*
X9481Y2300D02*
X9937D01*
X10200Y2271D02*
Y2552D01*
X10350Y2271D02*
Y3092D01*
X9950Y2310D02*
Y2511D01*
X10150Y2314D02*
Y2507D01*
X10400Y2271D02*
Y3091D01*
X10650Y1809D02*
Y1996D01*
X10700Y1829D02*
Y1976D01*
X10152Y2000D02*
X10643D01*
X10750Y1833D02*
Y1972D01*
X10800Y1824D02*
Y1981D01*
X10887Y2041D02*
X11285D01*
X10840Y2000D02*
X11331D01*
X10887Y2271D02*
X11285D01*
X10198D02*
X10597D01*
X10600Y2275D02*
Y2545D01*
X10170Y2300D02*
X10625D01*
X10900Y2271D02*
Y2569D01*
X10858Y2300D02*
X11313D01*
X10650Y2317D02*
Y2504D01*
X10800Y2332D02*
Y2489D01*
X10850Y2306D02*
Y2514D01*
X9510Y2550D02*
X9908D01*
X9450Y2500D02*
X9968D01*
X9549Y2650D02*
X9869D01*
X9538Y2600D02*
X9880D01*
X10000Y2334D02*
Y2487D01*
X10100Y2335D02*
Y2485D01*
X10050Y2341D02*
Y2479D01*
X10227Y2600D02*
X10568D01*
X10238Y2650D02*
X10557D01*
X9546Y2700D02*
X9872D01*
X9529Y2750D02*
X9889D01*
X9491Y2800D02*
X9927D01*
X9737Y3100D02*
X9968D01*
X10235Y2700D02*
X10560D01*
X10000Y2842D02*
Y3092D01*
X10050Y2849D02*
Y3091D01*
X10087Y3100D02*
X10318D01*
X10700Y2337D02*
Y2484D01*
X10750Y2341D02*
Y2480D01*
X10199Y2550D02*
X10596D01*
X10138Y2500D02*
X10657D01*
X10887Y2550D02*
X11285D01*
X10826Y2500D02*
X11345D01*
X10926Y2650D02*
X11246D01*
X10915Y2600D02*
X11257D01*
X10923Y2700D02*
X11249D01*
X10217Y2750D02*
X10578D01*
X10179Y2800D02*
X10616D01*
X10437Y3100D02*
X10668D01*
X10906Y2750D02*
X11266D01*
X10868Y2800D02*
X11304D01*
X10700Y2845D02*
Y3092D01*
X10750Y2849D02*
Y3091D01*
X10787Y3100D02*
X11018D01*
X11350Y1815D02*
Y1990D01*
X11300Y2288D02*
Y2533D01*
X11400Y1831D02*
Y1974D01*
X11500Y1820D02*
Y1985D01*
X11450Y1832D02*
Y1972D01*
X11550Y2297D02*
Y2523D01*
X11150Y2271D02*
Y3105D01*
X11250Y2271D02*
Y2622D01*
X11050Y2271D02*
Y3092D01*
X11100Y2271D02*
Y3091D01*
X11850Y2271D02*
Y3105D01*
X11950Y2271D02*
Y2588D01*
X11600Y2271D02*
Y2591D01*
X11800Y2271D02*
Y3091D01*
X11750Y2271D02*
Y3092D01*
X12050Y1820D02*
Y1985D01*
X12100Y1832D02*
Y1972D01*
X11575Y2041D02*
X11974D01*
X11529Y2000D02*
X12020D01*
X12150Y1831D02*
Y1974D01*
X12200Y1815D02*
Y1990D01*
X12295Y2100D02*
X12450D01*
X12217Y2000D02*
X12450D01*
X12270Y2050D02*
X12450D01*
X11575Y2271D02*
X11974D01*
X12000Y2298D02*
Y2522D01*
X12300Y2193D02*
Y2628D01*
X12303Y2150D02*
X12450D01*
X12250Y2287D02*
Y2534D01*
X12298Y2200D02*
X12450D01*
X12278Y2250D02*
X12450D01*
X11350Y2323D02*
Y2498D01*
X11500Y2328D02*
Y2493D01*
X11400Y2339D02*
Y2482D01*
X11450Y2340D02*
Y2480D01*
X11547Y2300D02*
X12002D01*
X11515Y2500D02*
X12034D01*
X11615Y2650D02*
X11934D01*
X11576Y2550D02*
X11973D01*
X11604Y2600D02*
X11945D01*
X11400Y2847D02*
Y3092D01*
X11137Y3100D02*
X11368D01*
X11450Y2848D02*
Y3091D01*
X11612Y2700D02*
X11937D01*
X11594Y2750D02*
X11955D01*
X11500Y2836D02*
Y3105D01*
X11556Y2800D02*
X11993D01*
X11487Y3100D02*
X11718D01*
X12050Y2328D02*
Y2493D01*
X12200Y2323D02*
Y2498D01*
X12100Y2340D02*
Y2480D01*
X12150Y2339D02*
Y2482D01*
X12203Y2500D02*
X12450D01*
X12235Y2300D02*
X12450D01*
X12303Y2650D02*
X12450D01*
X12264Y2550D02*
X12450D01*
X12292Y2600D02*
X12450D01*
X12150Y2847D02*
Y3091D01*
X11837Y3100D02*
X12068D01*
X12100Y2848D02*
Y3092D01*
X12283Y2750D02*
X12450D01*
X12300Y2700D02*
X12450D01*
X12200Y2831D02*
Y3105D01*
X12244Y2800D02*
X12450D01*
X12187Y3100D02*
X12450D01*
X9900Y2768D02*
Y3141D01*
X9950Y2818D02*
Y3107D01*
X10100Y2843D02*
Y3105D01*
X10150Y2822D02*
Y3136D01*
X10300Y2271D02*
Y3107D01*
X10450Y2271D02*
Y3105D01*
X10164Y3150D02*
X10241D01*
X10250Y2271D02*
Y3141D01*
X9814Y3150D02*
X9891D01*
X9847Y3200D02*
X9858D01*
X9850Y2271D02*
Y3208D01*
X10200Y2777D02*
Y3208D01*
X10197Y3200D02*
X10208D01*
X10500Y2271D02*
Y3136D01*
X10600Y2783D02*
Y3141D01*
X10514Y3150D02*
X10591D01*
X10650Y2825D02*
Y3107D01*
X10850Y2814D02*
Y3136D01*
X10950Y2271D02*
Y3141D01*
X10800Y2840D02*
Y3105D01*
X10864Y3150D02*
X10941D01*
X10897Y3200D02*
X10908D01*
X10550Y2271D02*
Y3208D01*
X10547Y3200D02*
X10558D01*
X10900Y2760D02*
Y3208D01*
X9850Y3442D02*
Y3700D01*
X9847Y3450D02*
X9858D01*
X9814Y3500D02*
X9891D01*
X9738Y3550D02*
X9967D01*
X10197Y3450D02*
X10208D01*
X10164Y3500D02*
X10241D01*
X9950Y3543D02*
Y3700D01*
X10088Y3550D02*
X10317D01*
X10000Y3558D02*
Y3700D01*
X9900Y3509D02*
Y3700D01*
X10150Y3514D02*
Y3700D01*
X10050Y3559D02*
Y3700D01*
X10100Y3545D02*
Y3700D01*
X10200Y3442D02*
Y3700D01*
X10250Y3509D02*
Y3700D01*
X10300Y3543D02*
Y3700D01*
X10400Y3559D02*
Y3700D01*
X10350Y3558D02*
Y3700D01*
X10547Y3450D02*
X10558D01*
X10514Y3500D02*
X10591D01*
X10450Y3545D02*
Y3700D01*
X10438Y3550D02*
X10667D01*
X10897Y3450D02*
X10908D01*
X10864Y3500D02*
X10941D01*
X10600Y3509D02*
Y3700D01*
X10788Y3550D02*
X11017D01*
X10650Y3543D02*
Y3700D01*
X10500Y3514D02*
Y3700D01*
X10550Y3442D02*
Y3700D01*
X10700Y3558D02*
Y3700D01*
X10750Y3559D02*
Y3700D01*
X10900Y3442D02*
Y3700D01*
X10950Y3509D02*
Y3700D01*
X10800Y3545D02*
Y3700D01*
X11000Y3543D02*
Y3700D01*
X10850Y3514D02*
Y3700D01*
X11000Y2271D02*
Y3107D01*
X11200Y2271D02*
Y3136D01*
X11300Y2796D02*
Y3141D01*
X11350Y2831D02*
Y3107D01*
X11650Y2271D02*
Y3141D01*
X11700Y2271D02*
Y3107D01*
X11550Y2805D02*
Y3136D01*
X11900Y2271D02*
Y3136D01*
X11564Y3150D02*
X11641D01*
X11250Y2706D02*
Y3208D01*
X11214Y3150D02*
X11291D01*
X11250Y3442D02*
Y3700D01*
X11247Y3200D02*
X11258D01*
X11600Y2738D02*
Y3208D01*
Y3442D02*
Y3700D01*
X11597Y3200D02*
X11608D01*
X11950Y2740D02*
Y3208D01*
X12000Y2806D02*
Y3141D01*
X11947Y3200D02*
X11958D01*
X11914Y3150D02*
X11991D01*
X12250Y2795D02*
Y3136D01*
X12300Y2701D02*
Y3208D01*
X12050Y2836D02*
Y3107D01*
X12264Y3150D02*
X12450D01*
X12297Y3200D02*
X12450D01*
X12313Y3275D02*
Y3375D01*
X12311Y3250D02*
X12450D01*
X12311Y3400D02*
X12450D01*
X12313Y3300D02*
X12450D01*
X12313Y3350D02*
X12450D01*
X11214Y3500D02*
X11291D01*
X11138Y3550D02*
X11367D01*
X11050Y3558D02*
Y3700D01*
X11100Y3559D02*
Y3700D01*
X11247Y3450D02*
X11258D01*
X11597D02*
X11608D01*
X11300Y3509D02*
Y3700D01*
X11564Y3500D02*
X11641D01*
X11488Y3550D02*
X11717D01*
X11200Y3514D02*
Y3700D01*
X11350Y3543D02*
Y3700D01*
X11150Y3545D02*
Y3700D01*
X11400Y3558D02*
Y3700D01*
X11550Y3514D02*
Y3700D01*
X11650Y3509D02*
Y3700D01*
X11450Y3559D02*
Y3700D01*
X11700Y3543D02*
Y3700D01*
X11500Y3545D02*
Y3700D01*
X11900Y3514D02*
Y3700D01*
X11914Y3500D02*
X11991D01*
X11750Y3558D02*
Y3700D01*
X11838Y3550D02*
X12067D01*
X11950Y3442D02*
Y3700D01*
X11947Y3450D02*
X11958D01*
X12188Y3550D02*
X12450D01*
X12297Y3450D02*
X12450D01*
X12264Y3500D02*
X12450D01*
X12000Y3509D02*
Y3700D01*
X12050Y3543D02*
Y3700D01*
X11800Y3559D02*
Y3700D01*
X11850Y3545D02*
Y3700D01*
X12250Y3514D02*
Y3700D01*
X12300Y3442D02*
Y3700D01*
X12100Y3558D02*
Y3700D01*
X12200Y3545D02*
Y3700D01*
X12150Y3559D02*
Y3700D01*
D13*
X-3731Y944D02*
Y1292D01*
Y944D02*
X-3495Y708D01*
X1365Y1289D02*
X1369Y1292D01*
X-2031Y711D02*
Y1292D01*
X-2035Y708D02*
X-2031Y711D01*
X-3495Y708D02*
X-2035D01*
X-331Y709D02*
Y1292D01*
Y709D02*
X-330Y708D01*
X-2035D02*
X-330D01*
X1365D01*
Y1289D01*
X12119Y2156D02*
X12119Y2156D01*
X8019Y2156D02*
X8619D01*
X8719D02*
X12119D01*
X2307Y329D02*
Y707D01*
X2308Y708D01*
X1365D02*
X2308D01*
X2900D01*
Y1888D01*
X2815Y75D02*
Y329D01*
Y-397D02*
Y75D01*
X2900Y708D02*
X5750D01*
Y500D02*
Y708D01*
X10235D01*
X10383Y560D01*
Y405D02*
Y560D01*
X2900Y1888D02*
X3169Y2156D01*
X3857D01*
X4546D01*
X5234D01*
X5922D01*
X6611D01*
X7299D01*
X7988D01*
D15*
X-3731Y2512D02*
X-3250Y2994D01*
Y3425D01*
X-2750Y2731D02*
X-2531Y2512D01*
X-2750Y2731D02*
Y3425D01*
X-2031Y2512D02*
X-1750Y2794D01*
Y3425D01*
X-1250Y2931D02*
X-831Y2512D01*
X-1250Y2931D02*
Y3425D01*
X-331Y2512D02*
X-250Y2594D01*
Y3425D01*
X250Y3131D02*
X869Y2512D01*
X250Y3131D02*
Y3425D01*
X1369Y2512D02*
Y2816D01*
X1250Y2935D02*
X1369Y2816D01*
X1250Y2935D02*
Y3425D01*
X2323Y2512D02*
X2569D01*
X1750Y3085D02*
X2323Y2512D01*
X1750Y3085D02*
Y3425D01*
D16*
D03*
X750D02*
D03*
X1250D02*
D03*
X250D02*
D03*
X-750D02*
D03*
X-250D02*
D03*
X-1250D02*
D03*
X-2250D02*
D03*
X-1750D02*
D03*
X-2750D02*
D03*
X-3750D02*
D03*
X-3250D02*
D03*
X2569Y2512D02*
D03*
X1369D02*
D03*
X1969Y1092D02*
D03*
X2569Y1292D02*
D03*
X1369D02*
D03*
X869Y2512D02*
D03*
X-331D02*
D03*
X269Y1092D02*
D03*
X869Y1292D02*
D03*
X-331D02*
D03*
X-831Y2512D02*
D03*
X-2031D02*
D03*
X-1431Y1092D02*
D03*
X-831Y1292D02*
D03*
X-2031D02*
D03*
X-2531Y2512D02*
D03*
X-3731D02*
D03*
X-3131Y1092D02*
D03*
X-2531Y1292D02*
D03*
X-3731D02*
D03*
D17*
X3169Y1648D02*
D03*
X3169Y2156D02*
D03*
X3169Y2664D02*
D03*
X3169Y1140D02*
D03*
X3857Y1648D02*
D03*
X3857Y2156D02*
D03*
X3857Y2664D02*
D03*
Y1140D02*
D03*
X4546Y1648D02*
D03*
X4546Y2156D02*
D03*
Y2664D02*
D03*
Y1140D02*
D03*
X5234Y1648D02*
D03*
X5234Y2156D02*
D03*
X5234Y2664D02*
D03*
X5234Y1140D02*
D03*
X5922Y1648D02*
D03*
Y2156D02*
D03*
Y2664D02*
D03*
Y1140D02*
D03*
X6611Y1648D02*
D03*
Y2156D02*
D03*
Y2664D02*
D03*
Y1140D02*
D03*
X7299Y1648D02*
D03*
Y2156D02*
D03*
Y2664D02*
D03*
Y1140D02*
D03*
X7988Y1648D02*
D03*
X7988Y2156D02*
D03*
X7988Y2664D02*
D03*
X7988Y1140D02*
D03*
X9365Y1648D02*
D03*
X9365Y2156D02*
D03*
Y2664D02*
D03*
Y1140D02*
D03*
X10053Y1648D02*
D03*
Y2156D02*
D03*
X10053Y2664D02*
D03*
X10053Y1140D02*
D03*
X10742Y1648D02*
D03*
X10742Y2156D02*
D03*
Y2664D02*
D03*
Y1140D02*
D03*
X11430Y1648D02*
D03*
Y2156D02*
D03*
X11430Y2664D02*
D03*
X11430Y1140D02*
D03*
X12119Y1648D02*
D03*
X12119Y2156D02*
D03*
X12119Y2664D02*
D03*
Y1140D02*
D03*
X8676Y1648D02*
D03*
Y2156D02*
D03*
Y2664D02*
D03*
Y1140D02*
D03*
D18*
X3831Y75D02*
D03*
Y329D02*
D03*
X3577Y75D02*
D03*
Y329D02*
D03*
X3323D02*
D03*
Y75D02*
D03*
X3069Y329D02*
D03*
Y75D02*
D03*
X2815Y329D02*
D03*
Y75D02*
D03*
X2561Y329D02*
D03*
Y75D02*
D03*
X2307Y329D02*
D03*
X8131Y75D02*
D03*
Y329D02*
D03*
X7877Y75D02*
D03*
Y329D02*
D03*
X7623D02*
D03*
Y75D02*
D03*
X7369Y329D02*
D03*
Y75D02*
D03*
X7115Y329D02*
D03*
Y75D02*
D03*
X6861Y329D02*
D03*
Y75D02*
D03*
X6607Y329D02*
D03*
D19*
X2307Y75D02*
D03*
X6607D02*
D03*
D20*
X2312Y3325D02*
D03*
X2662D02*
D03*
X3012D02*
D03*
X3362D02*
D03*
X3833D02*
D03*
X4183D02*
D03*
X4533D02*
D03*
X4883D02*
D03*
X5233D02*
D03*
X5583D02*
D03*
X5933D02*
D03*
X6283D02*
D03*
X6753Y3325D02*
D03*
X7103D02*
D03*
X7453D02*
D03*
X7803D02*
D03*
X8153D02*
D03*
X8503D02*
D03*
X8853D02*
D03*
X9203D02*
D03*
X9678D02*
D03*
X10028D02*
D03*
X10378D02*
D03*
X10728D02*
D03*
X11078D02*
D03*
X11428D02*
D03*
X11778D02*
D03*
X12128D02*
D03*
D21*
X0Y0D02*
D03*
X11000D02*
D03*
D22*
X5750Y500D02*
D03*
X10383Y405D02*
D03*
X2812Y-397D02*
D03*
D23*
X2723D02*
X2812D01*
X2902D01*
X2812D02*
Y-308D01*
X2815Y-40D02*
Y75D01*
Y329D02*
Y444D01*
M02*
