%FSTAX42Y42*%
%MOMM*%
%SFA1B1*%

%IPPOS*%
%AMD12*
4,1,8,0.650240,-0.180340,0.650240,0.180340,0.480060,0.350520,-0.480060,0.350520,-0.650240,0.180340,-0.650240,-0.180340,-0.480060,-0.350520,0.480060,-0.350520,0.650240,-0.180340,0.0*
1,1,0.340000,0.480060,-0.180340*
1,1,0.340000,0.480060,0.180340*
1,1,0.340000,-0.480060,0.180340*
1,1,0.340000,-0.480060,-0.180340*
%
%AMD31*
4,1,8,0.650240,-0.220980,0.650240,0.220980,0.419100,0.449580,-0.419100,0.449580,-0.650240,0.220980,-0.650240,-0.220980,-0.419100,-0.449580,0.419100,-0.449580,0.650240,-0.220980,0.0*
1,1,0.460000,0.419100,-0.220980*
1,1,0.460000,0.419100,0.220980*
1,1,0.460000,-0.419100,0.220980*
1,1,0.460000,-0.419100,-0.220980*
%
%AMD32*
4,1,8,-0.381000,0.190500,-0.381000,-0.190500,-0.190500,-0.381000,0.190500,-0.381000,0.381000,-0.190500,0.381000,0.190500,0.190500,0.381000,-0.190500,0.381000,-0.381000,0.190500,0.0*
1,1,0.380000,-0.190500,0.190500*
1,1,0.380000,-0.190500,-0.190500*
1,1,0.380000,0.190500,-0.190500*
1,1,0.380000,0.190500,0.190500*
%
%ADD10C,0.299999*%
G04~CAMADD=12~8~0.0~0.0~275.6~511.8~66.9~0.0~15~0.0~0.0~0.0~0.0~0~0.0~0.0~0.0~0.0~0~0.0~0.0~0.0~270.0~512.0~276.0*
%ADD12D12*%
%ADD15C,0.499999*%
%ADD16C,0.799998*%
%ADD18C,0.399999*%
%ADD20C,5.999988*%
%ADD21C,1.499997*%
%ADD22R,1.499997X1.499997*%
%ADD23C,1.499997*%
%ADD24R,1.499997X1.499997*%
%ADD25R,1.499997X1.499997*%
%ADD26C,1.699997*%
%ADD27C,2.999994*%
%ADD28R,1.699997X1.699997*%
%ADD29O,1.999996X2.999994*%
%ADD30C,0.999998*%
G04~CAMADD=31~8~0.0~0.0~354.3~511.8~90.6~0.0~15~0.0~0.0~0.0~0.0~0~0.0~0.0~0.0~0.0~0~0.0~0.0~0.0~270.0~512.0~354.0*
%ADD31D31*%
G04~CAMADD=32~8~0.0~0.0~299.2~299.2~74.8~0.0~15~0.0~0.0~0.0~0.0~0~0.0~0.0~0.0~0.0~0~0.0~0.0~0.0~90.0~300.0~300.0*
%ADD32D32*%
%LNpcb_monitoring_top_front-1*%
%LPD*%
G54D10*
X-007702Y-001991D02*
D01*
X-007703Y-001976*
X-007705Y-00196*
X-007707Y-001945*
X-007711Y-001929*
X-007716Y-001915*
X-007722Y-0019*
X-007729Y-001886*
X-007737Y-001872*
X-007745Y-001859*
X-007755Y-001847*
X-007766Y-001835*
X-007777Y-001824*
X-007789Y-001814*
X-007802Y-001805*
X-007815Y-001797*
X-007829Y-001789*
X-007843Y-001783*
X-007858Y-001778*
X-007873Y-001773*
X-007888Y-00177*
X-007904Y-001768*
X-00792Y-001767*
X-007935*
X-007951Y-001768*
X-007967Y-00177*
X-007982Y-001773*
X-007997Y-001778*
X-008012Y-001783*
X-008026Y-001789*
X-00804Y-001797*
X-008053Y-001805*
X-008066Y-001814*
X-008078Y-001824*
X-008089Y-001835*
X-0081Y-001847*
X-00811Y-001859*
X-008118Y-001872*
X-008126Y-001886*
X-008133Y-0019*
X-008139Y-001915*
X-008144Y-001929*
X-008148Y-001945*
X-00815Y-00196*
X-008152Y-001976*
X-008152Y-001991*
X-008152Y-002007*
X-00815Y-002023*
X-008148Y-002038*
X-008144Y-002054*
X-008139Y-002068*
X-008133Y-002083*
X-008126Y-002097*
X-008118Y-002111*
X-00811Y-002124*
X-0081Y-002136*
X-008089Y-002148*
X-008078Y-002159*
X-008066Y-002169*
X-008053Y-002178*
X-00804Y-002186*
X-008026Y-002194*
X-008012Y-0022*
X-007997Y-002205*
X-007982Y-00221*
X-007967Y-002213*
X-007951Y-002215*
X-007935Y-002216*
X-00792*
X-007904Y-002215*
X-007888Y-002213*
X-007873Y-00221*
X-007858Y-002205*
X-007843Y-0022*
X-007829Y-002194*
X-007815Y-002186*
X-007802Y-002178*
X-007789Y-002169*
X-007777Y-002159*
X-007766Y-002148*
X-007755Y-002136*
X-007745Y-002124*
X-007737Y-002111*
X-007729Y-002097*
X-007722Y-002083*
X-007716Y-002068*
X-007711Y-002054*
X-007707Y-002038*
X-007705Y-002023*
X-007703Y-002007*
X-007702Y-001991*
D01*
X-007703Y-001976*
X-007705Y-00196*
X-007707Y-001945*
X-007711Y-001929*
X-007716Y-001915*
X-007722Y-0019*
X-007729Y-001886*
X-007737Y-001872*
X-007745Y-001859*
X-007755Y-001847*
X-007766Y-001835*
X-007777Y-001824*
X-007789Y-001814*
X-007802Y-001805*
X-007815Y-001797*
X-007829Y-001789*
X-007843Y-001783*
X-007858Y-001778*
X-007873Y-001773*
X-007888Y-00177*
X-007904Y-001768*
X-00792Y-001767*
X-007935*
X-007951Y-001768*
X-007967Y-00177*
X-007982Y-001773*
X-007997Y-001778*
X-008012Y-001783*
X-008026Y-001789*
X-00804Y-001797*
X-008053Y-001805*
X-008066Y-001814*
X-008078Y-001824*
X-008089Y-001835*
X-0081Y-001847*
X-00811Y-001859*
X-008118Y-001872*
X-008126Y-001886*
X-008133Y-0019*
X-008139Y-001915*
X-008144Y-001929*
X-008148Y-001945*
X-00815Y-00196*
X-008152Y-001976*
X-008152Y-001991*
X-008152Y-002007*
X-00815Y-002023*
X-008148Y-002038*
X-008144Y-002054*
X-008139Y-002068*
X-008133Y-002083*
X-008126Y-002097*
X-008118Y-002111*
X-00811Y-002124*
X-0081Y-002136*
X-008089Y-002148*
X-008078Y-002159*
X-008066Y-002169*
X-008053Y-002178*
X-00804Y-002186*
X-008026Y-002194*
X-008012Y-0022*
X-007997Y-002205*
X-007982Y-00221*
X-007967Y-002213*
X-007951Y-002215*
X-007935Y-002216*
X-00792*
X-007904Y-002215*
X-007888Y-002213*
X-007873Y-00221*
X-007858Y-002205*
X-007843Y-0022*
X-007829Y-002194*
X-007815Y-002186*
X-007802Y-002178*
X-007789Y-002169*
X-007777Y-002159*
X-007766Y-002148*
X-007755Y-002136*
X-007745Y-002124*
X-007737Y-002111*
X-007729Y-002097*
X-007722Y-002083*
X-007716Y-002068*
X-007711Y-002054*
X-007707Y-002038*
X-007705Y-002023*
X-007703Y-002007*
X-007702Y-001991*
X-007693Y-001835D02*
D01*
X-007688Y-001841*
X-007681Y-001846*
X-007675Y-001851*
X-007668Y-001855*
X-007661Y-001858*
X-007654Y-001861*
X-007646Y-001864*
X-007638Y-001866*
X-00763Y-001868*
X-007622Y-001869*
X-007614Y-001869*
X-007611Y-001869*
X-007693Y-001835D02*
D01*
X-007688Y-001841*
X-007681Y-001846*
X-007675Y-001851*
X-007668Y-001855*
X-007661Y-001858*
X-007654Y-001861*
X-007646Y-001864*
X-007638Y-001866*
X-00763Y-001868*
X-007622Y-001869*
X-007614Y-001869*
X-007611Y-001869*
X-00735D02*
D01*
X-007359Y-001883*
X-007366Y-001897*
X-007372Y-001911*
X-007377Y-001926*
X-007381Y-001941*
X-007384Y-001957*
X-007386Y-001973*
X-007386Y-001988*
X-007386Y-002004*
X-007385Y-00202*
X-007382Y-002035*
X-007379Y-00205*
X-007374Y-002065*
X-007368Y-00208*
X-007362Y-002094*
X-007354Y-002108*
X-007345Y-002121*
X-007336Y-002134*
X-007326Y-002145*
X-007314Y-002156*
X-007303Y-002167*
X-00729Y-002176*
X-007277Y-002185*
X-007263Y-002192*
X-007249Y-002199*
X-007234Y-002204*
X-007219Y-002209*
X-007204Y-002212*
X-007188Y-002215*
X-007173Y-002216*
X-007157Y-002216*
X-007141Y-002216*
X-007126Y-002214*
X-00711Y-002211*
X-007095Y-002206*
X-00708Y-002201*
X-007066Y-002195*
X-007052Y-002188*
X-007038Y-00218*
X-007026Y-002171*
X-007013Y-002161*
X-007002Y-00215*
X-006991Y-002139*
X-006981Y-002126*
X-006974Y-002116*
X-00735Y-001869D02*
D01*
X-007359Y-001883*
X-007366Y-001897*
X-007372Y-001911*
X-007377Y-001926*
X-007381Y-001941*
X-007384Y-001957*
X-007386Y-001973*
X-007386Y-001988*
X-007386Y-002004*
X-007385Y-00202*
X-007382Y-002035*
X-007379Y-00205*
X-007374Y-002065*
X-007368Y-00208*
X-007362Y-002094*
X-007354Y-002108*
X-007345Y-002121*
X-007336Y-002134*
X-007326Y-002145*
X-007314Y-002156*
X-007303Y-002167*
X-00729Y-002176*
X-007277Y-002185*
X-007263Y-002192*
X-007249Y-002199*
X-007234Y-002204*
X-007219Y-002209*
X-007204Y-002212*
X-007188Y-002215*
X-007173Y-002216*
X-007157Y-002216*
X-007141Y-002216*
X-007126Y-002214*
X-00711Y-002211*
X-007095Y-002206*
X-00708Y-002201*
X-007066Y-002195*
X-007052Y-002188*
X-007038Y-00218*
X-007026Y-002171*
X-007013Y-002161*
X-007002Y-00215*
X-006991Y-002139*
X-006981Y-002126*
X-006974Y-002116*
D01*
X-006965Y-002129*
X-006955Y-002141*
X-006944Y-002153*
X-006933Y-002163*
X-00692Y-002173*
X-006907Y-002182*
X-006894Y-00219*
X-00688Y-002197*
X-006865Y-002203*
X-00685Y-002207*
X-006835Y-002211*
X-00682Y-002214*
X-006804Y-002216*
X-006788Y-002216*
X-006773Y-002216*
X-006757Y-002214*
X-006742Y-002212*
X-006726Y-002208*
X-006711Y-002203*
X-006697Y-002197*
X-006683Y-002191*
X-006669Y-002183*
X-006656Y-002174*
X-006644Y-002164*
X-006632Y-002154*
X-006621Y-002143*
X-006611Y-002131*
X-006602Y-002118*
X-006593Y-002105*
X-006586Y-002091*
X-006579Y-002077*
X-006574Y-002062*
X-006569Y-002047*
X-006566Y-002031*
X-006564Y-002016*
X-006563Y-002*
X-006561Y-001991*
X-006974Y-002116D02*
D01*
X-006965Y-002129*
X-006955Y-002141*
X-006944Y-002153*
X-006933Y-002163*
X-00692Y-002173*
X-006907Y-002182*
X-006894Y-00219*
X-00688Y-002197*
X-006865Y-002203*
X-00685Y-002207*
X-006835Y-002211*
X-00682Y-002214*
X-006804Y-002216*
X-006788Y-002216*
X-006773Y-002216*
X-006757Y-002214*
X-006742Y-002212*
X-006726Y-002208*
X-006711Y-002203*
X-006697Y-002197*
X-006683Y-002191*
X-006669Y-002183*
X-006656Y-002174*
X-006644Y-002164*
X-006632Y-002154*
X-006621Y-002143*
X-006611Y-002131*
X-006602Y-002118*
X-006593Y-002105*
X-006586Y-002091*
X-006579Y-002077*
X-006574Y-002062*
X-006569Y-002047*
X-006566Y-002031*
X-006564Y-002016*
X-006563Y-002*
X-006561Y-001991*
D01*
X-006562Y-001976*
X-006564Y-00196*
X-006566Y-001945*
X-00657Y-001929*
X-006575Y-001915*
X-006581Y-0019*
X-006588Y-001886*
X-006596Y-001872*
X-006597Y-001869*
X-006561Y-001991D02*
D01*
X-006562Y-001976*
X-006564Y-00196*
X-006566Y-001945*
X-00657Y-001929*
X-006575Y-001915*
X-006581Y-0019*
X-006588Y-001886*
X-006596Y-001872*
X-006597Y-001869*
X-008101Y-001548D02*
D01*
X-008101Y-001555*
X-008101Y-001561*
X-008099Y-001568*
X-008098Y-001574*
X-008096Y-00158*
X-008093Y-001586*
X-008091Y-001592*
X-008087Y-001598*
X-008086Y-001598*
D01*
X-008086Y-001607*
X-008086Y-001616*
X-008084Y-001625*
X-008082Y-001633*
X-00808Y-001641*
X-008077Y-00165*
X-008073Y-001658*
X-008069Y-001665*
X-008064Y-001673*
X-008059Y-00168*
X-008053Y-001686*
X-008047Y-001692*
X-008041Y-001698*
X-008034Y-001703*
X-008027Y-001708*
X-008019Y-001713*
X-008011Y-001716*
X-008003Y-001719*
X-007995Y-001722*
X-007986Y-001724*
X-007978Y-001726*
X-007969Y-001726*
X-00796Y-001727*
X-007951Y-001726*
X-007943Y-001725*
X-007934Y-001724*
X-007926Y-001721*
X-007917Y-001719*
X-007909Y-001715*
X-007902Y-001711*
X-007894Y-001707*
X-007887Y-001702*
X-00788Y-001696*
X-007874Y-00169*
X-007868Y-001684*
X-007862Y-001677*
X-007857Y-00167*
X-007853Y-001663*
X-007849Y-001655*
X-007847Y-001652*
X-008009Y-001421D02*
D01*
X-008016Y-001422*
X-008022Y-001422*
X-008029Y-001424*
X-008035Y-001425*
X-008041Y-001427*
X-008047Y-00143*
X-008053Y-001432*
X-008059Y-001436*
X-008064Y-001439*
X-008069Y-001443*
X-008074Y-001448*
X-008079Y-001452*
X-008083Y-001457*
X-008087Y-001462*
X-00809Y-001468*
X-008093Y-001474*
X-008096Y-00148*
X-008098Y-001486*
X-0081Y-001492*
X-008101Y-001498*
X-008102Y-001505*
X-008102Y-001511*
X-008101Y-001514*
X-007847Y-001652D02*
D01*
X-007846Y-00166*
X-007843Y-001668*
X-007841Y-001676*
X-007837Y-001683*
X-007834Y-00169*
X-007829Y-001697*
X-007824Y-001703*
X-007819Y-001709*
X-007815Y-001713*
X-007847Y-001652D02*
D01*
X-007846Y-00166*
X-007843Y-001668*
X-007841Y-001676*
X-007837Y-001683*
X-007834Y-00169*
X-007829Y-001697*
X-007824Y-001703*
X-007819Y-001709*
X-007815Y-001713*
X-008058Y-001216D02*
D01*
X-008064Y-00122*
X-008069Y-001224*
X-008074Y-001229*
X-008078Y-001233*
X-008082Y-001238*
X-008086Y-001244*
X-008089Y-001249*
X-008092Y-001255*
X-008095Y-001261*
X-008097Y-001267*
X-008099Y-001273*
X-0081Y-001279*
X-008101Y-001286*
X-008101Y-001292*
X-008101Y-001293*
X-008032Y-001168D02*
D01*
X-008037Y-001174*
X-008042Y-001179*
X-008046Y-001185*
X-008049Y-001191*
X-008053Y-001197*
X-008055Y-001204*
X-008058Y-00121*
X-008058Y-001216*
X-007894Y-001423D02*
D01*
X-007901Y-001422*
X-007907Y-001422*
X-007913Y-001421*
X-007574Y-001459D02*
D01*
X-007567Y-001466*
X-007559Y-001472*
X-007551Y-001477*
X-007542Y-001481*
X-007533Y-001485*
X-007524Y-001489*
X-007515Y-001491*
X-007505Y-001494*
X-007495Y-001495*
X-007486Y-001496*
X-007476Y-001496*
X-007466Y-001495*
X-007456Y-001494*
X-007447Y-001492*
X-007437Y-001489*
X-007428Y-001486*
X-007419Y-001482*
X-007411Y-001477*
X-007402Y-001472*
X-007394Y-001466*
X-007387Y-00146*
X-00738Y-001453*
X-007373Y-001446*
X-007367Y-001438*
X-007362Y-00143*
X-007357Y-001422*
X-007353Y-001413*
X-007349Y-001404*
X-007346Y-001394*
X-007343Y-001385*
X-007342Y-001375*
X-007341Y-001366*
X-00734Y-001356*
X-00734Y-001355*
X-007913Y-001421D02*
D01*
X-007907Y-001421*
X-007901Y-001421*
X-007894Y-001419*
X-008101Y-001329D02*
D01*
X-008101Y-001336*
X-008101Y-001342*
X-008099Y-001349*
X-008098Y-001355*
X-008096Y-001361*
X-008093Y-001367*
X-008091Y-001373*
X-008087Y-001379*
X-008084Y-001384*
X-00808Y-001389*
X-008075Y-001394*
X-008071Y-001399*
X-008066Y-001403*
X-008061Y-001407*
X-008055Y-00141*
X-008049Y-001413*
X-008043Y-001416*
X-008037Y-001418*
X-008031Y-00142*
X-008025Y-001421*
X-008018Y-001422*
X-008012Y-001422*
X-008009Y-001421*
X-007464Y-001216D02*
D01*
X-007474Y-001216*
X-007484Y-001216*
X-007494Y-001216*
X-007496Y-001216*
X-008032Y-001168D02*
D01*
X-008037Y-001174*
X-008042Y-001179*
X-008046Y-001185*
X-008049Y-001191*
X-008053Y-001197*
X-008055Y-001204*
X-008058Y-00121*
X-008058Y-001216*
X-007496D02*
D01*
X-007489Y-001208*
X-007482Y-0012*
X-00748Y-001199*
D01*
X-007473Y-001208*
X-007466Y-001216*
X-007464Y-001216*
X-006961Y-001554D02*
D01*
X-006961Y-001561*
X-006961Y-001567*
X-006959Y-001574*
X-006958Y-00158*
X-006956Y-001586*
X-006953Y-001592*
X-006951Y-001598*
X-006947Y-001604*
X-006944Y-001609*
X-006941Y-00161*
D01*
X-006941Y-001619*
X-00694Y-001628*
X-006938Y-001636*
X-006937Y-001639*
X-006869Y-001426D02*
D01*
X-006876Y-001427*
X-006882Y-001427*
X-006889Y-001429*
X-006895Y-00143*
X-006901Y-001432*
X-006907Y-001435*
X-006913Y-001437*
X-006919Y-001441*
X-006924Y-001444*
X-006929Y-001448*
X-006934Y-001453*
X-006939Y-001457*
X-006943Y-001462*
X-006947Y-001467*
X-00695Y-001473*
X-006953Y-001479*
X-006956Y-001485*
X-006958Y-001491*
X-00696Y-001497*
X-006961Y-001503*
X-006962Y-00151*
X-006962Y-001516*
X-006961Y-001518*
X-00734Y-001355D02*
D01*
X-007341Y-001346*
X-007342Y-001336*
X-007344Y-001326*
X-007346Y-001317*
X-007349Y-001308*
X-007353Y-001299*
X-007357Y-00129*
X-007362Y-001281*
X-007367Y-001273*
X-007373Y-001266*
X-007378Y-00126*
D01*
X-007367Y-001262*
X-007356Y-001262*
X-007345Y-001262*
X-007334Y-001261*
X-007323Y-00126*
X-007312Y-001257*
X-007301Y-001254*
X-007291Y-00125*
X-007281Y-001245*
X-007271Y-00124*
X-007262Y-001234*
X-007253Y-001227*
X-007244Y-001219*
X-007236Y-001212*
X-007229Y-001203*
X-007222Y-001194*
X-007216Y-001185*
X-007211Y-001175*
X-007206Y-001165*
X-007202Y-001155*
X-007199Y-001144*
X-007196Y-001133*
X-007195Y-001122*
X-007194Y-001111*
X-007193Y-001101*
X-00692Y-001222D02*
D01*
X-006926Y-001226*
X-006931Y-00123*
X-006935Y-001235*
X-00694Y-00124*
X-006944Y-001245*
X-006947Y-00125*
X-006951Y-001256*
X-006953Y-001262*
X-006956Y-001268*
X-006958Y-001274*
X-006959Y-00128*
X-006961Y-001287*
X-006961Y-001293*
X-006961Y-001298*
Y-001334D02*
D01*
X-006961Y-001341*
X-006961Y-001347*
X-006959Y-001354*
X-006958Y-00136*
X-006956Y-001366*
X-006953Y-001372*
X-006951Y-001378*
X-006947Y-001384*
X-006944Y-001389*
X-00694Y-001394*
X-006935Y-001399*
X-006931Y-001404*
X-006926Y-001408*
X-006921Y-001412*
X-006915Y-001415*
X-006909Y-001418*
X-006903Y-001421*
X-006897Y-001423*
X-006891Y-001425*
X-006885Y-001426*
X-006878Y-001427*
X-006872Y-001427*
X-006869Y-001426*
X-006754Y-001428D02*
D01*
X-006761Y-001427*
X-006767Y-001427*
X-006773Y-001426*
D01*
X-006767Y-001426*
X-006761Y-001426*
X-006754Y-001424*
X-006892Y-001163D02*
D01*
X-006897Y-001169*
X-006902Y-001174*
X-006906Y-00118*
X-006909Y-001186*
X-006913Y-001192*
X-006915Y-001199*
X-006918Y-001205*
X-006919Y-001212*
X-006921Y-001219*
X-00692Y-001222*
X-006892Y-001163D02*
D01*
X-006897Y-001169*
X-006902Y-001174*
X-006906Y-00118*
X-006909Y-001186*
X-006913Y-001192*
X-006915Y-001199*
X-006918Y-001205*
X-006919Y-001212*
X-006921Y-001219*
X-00692Y-001222*
X-006356Y-001216D02*
D01*
X-006349Y-001208*
X-006342Y-0012*
X-00634Y-001199*
X-006324Y-001216D02*
D01*
X-006334Y-001216*
X-006344Y-001216*
X-006354Y-001216*
X-006356Y-001216*
X-00634Y-001199D02*
D01*
X-006333Y-001208*
X-006326Y-001216*
X-006324Y-001216*
X-005835Y-002117D02*
D01*
X-005826Y-00213*
X-005816Y-002142*
X-005805Y-002153*
X-005793Y-002164*
X-005781Y-002173*
X-005768Y-002182*
X-005754Y-00219*
X-00574Y-002197*
X-005725Y-002203*
X-00571Y-002207*
X-005695Y-002211*
X-00568Y-002214*
X-005664Y-002215*
X-005648Y-002216*
X-005633Y-002215*
X-005617Y-002213*
X-005601Y-002211*
X-005586Y-002207*
X-005571Y-002202*
X-005557Y-002196*
X-005543Y-002189*
X-005529Y-002181*
X-005516Y-002172*
X-005504Y-002162*
X-005492Y-002152*
X-005481Y-00214*
X-005471Y-002128*
X-005462Y-002115*
X-005454Y-002102*
X-005447Y-002088*
X-00544Y-002074*
X-005435Y-002059*
X-005431Y-002044*
X-005427Y-002028*
X-005425Y-002013*
X-005424Y-001997*
X-005424Y-001991*
X-00621Y-001869D02*
D01*
X-006219Y-001883*
X-006226Y-001897*
X-006232Y-001911*
X-006237Y-001926*
X-006241Y-001941*
X-006244Y-001957*
X-006246Y-001973*
X-006246Y-001988*
X-006246Y-002004*
X-006245Y-00202*
X-006242Y-002035*
X-006239Y-00205*
X-006234Y-002065*
X-006228Y-00208*
X-006222Y-002094*
X-006214Y-002108*
X-006205Y-002121*
X-006196Y-002134*
X-006186Y-002145*
X-006174Y-002156*
X-006163Y-002167*
X-00615Y-002176*
X-006137Y-002185*
X-006123Y-002192*
X-006109Y-002199*
X-006094Y-002204*
X-006079Y-002209*
X-006064Y-002212*
X-006048Y-002215*
X-006033Y-002216*
X-006017Y-002216*
X-006001Y-002216*
X-005986Y-002214*
X-00597Y-002211*
X-005955Y-002206*
X-00594Y-002201*
X-005926Y-002195*
X-005912Y-002188*
X-005898Y-00218*
X-005886Y-002171*
X-005873Y-002161*
X-005862Y-00215*
X-005851Y-002139*
X-005841Y-002126*
X-005835Y-002117*
X-00621Y-001869D02*
D01*
X-006219Y-001883*
X-006226Y-001897*
X-006232Y-001911*
X-006237Y-001926*
X-006241Y-001941*
X-006244Y-001957*
X-006246Y-001973*
X-006246Y-001988*
X-006246Y-002004*
X-006245Y-00202*
X-006242Y-002035*
X-006239Y-00205*
X-006234Y-002065*
X-006228Y-00208*
X-006222Y-002094*
X-006214Y-002108*
X-006205Y-002121*
X-006196Y-002134*
X-006186Y-002145*
X-006174Y-002156*
X-006163Y-002167*
X-00615Y-002176*
X-006137Y-002185*
X-006123Y-002192*
X-006109Y-002199*
X-006094Y-002204*
X-006079Y-002209*
X-006064Y-002212*
X-006048Y-002215*
X-006033Y-002216*
X-006017Y-002216*
X-006001Y-002216*
X-005986Y-002214*
X-00597Y-002211*
X-005955Y-002206*
X-00594Y-002201*
X-005926Y-002195*
X-005912Y-002188*
X-005898Y-00218*
X-005886Y-002171*
X-005873Y-002161*
X-005862Y-00215*
X-005851Y-002139*
X-005841Y-002126*
X-005835Y-002117*
D01*
X-005826Y-00213*
X-005816Y-002142*
X-005805Y-002153*
X-005793Y-002164*
X-005781Y-002173*
X-005768Y-002182*
X-005754Y-00219*
X-00574Y-002197*
X-005725Y-002203*
X-00571Y-002207*
X-005695Y-002211*
X-00568Y-002214*
X-005664Y-002215*
X-005648Y-002216*
X-005633Y-002215*
X-005617Y-002213*
X-005601Y-002211*
X-005586Y-002207*
X-005571Y-002202*
X-005557Y-002196*
X-005543Y-002189*
X-005529Y-002181*
X-005516Y-002172*
X-005504Y-002162*
X-005492Y-002152*
X-005481Y-00214*
X-005471Y-002128*
X-005462Y-002115*
X-005454Y-002102*
X-005447Y-002088*
X-00544Y-002074*
X-005435Y-002059*
X-005431Y-002044*
X-005427Y-002028*
X-005425Y-002013*
X-005424Y-001997*
X-005424Y-001991*
D01*
X-005425Y-001976*
X-005427Y-00196*
X-005429Y-001945*
X-005433Y-001929*
X-005438Y-001915*
X-005444Y-0019*
X-005451Y-001886*
X-005459Y-001872*
X-005461Y-001869*
X-005424Y-001991D02*
D01*
X-005425Y-001976*
X-005427Y-00196*
X-005429Y-001945*
X-005433Y-001929*
X-005438Y-001915*
X-005444Y-0019*
X-005451Y-001886*
X-005459Y-001872*
X-005461Y-001869*
X-004699Y-002119D02*
D01*
X-004689Y-002132*
X-004679Y-002144*
X-004668Y-002155*
X-004656Y-002165*
X-004643Y-002175*
X-00463Y-002184*
X-004616Y-002191*
X-004602Y-002198*
X-004587Y-002204*
X-004572Y-002208*
X-004557Y-002212*
X-004541Y-002214*
X-004526Y-002216*
X-00451Y-002216*
X-004494Y-002215*
X-004479Y-002213*
X-004463Y-00221*
X-004448Y-002206*
X-004433Y-002201*
X-004419Y-002195*
X-004405Y-002188*
X-004391Y-00218*
X-004378Y-002171*
X-004366Y-002161*
X-004354Y-00215*
X-004344Y-002139*
X-004334Y-002127*
X-004325Y-002114*
X-004316Y-0021*
X-004309Y-002086*
X-004303Y-002072*
X-004298Y-002057*
X-004294Y-002042*
X-004291Y-002026*
X-004289Y-002011*
X-004288Y-001995*
X-004289Y-001991*
X-005072Y-001869D02*
D01*
X-005081Y-001883*
X-005088Y-001897*
X-005094Y-001911*
X-005099Y-001926*
X-005103Y-001941*
X-005106Y-001957*
X-005108Y-001973*
X-005108Y-001988*
X-005108Y-002004*
X-005107Y-00202*
X-005104Y-002035*
X-005101Y-00205*
X-005096Y-002065*
X-00509Y-00208*
X-005084Y-002094*
X-005076Y-002108*
X-005067Y-002121*
X-005058Y-002134*
X-005048Y-002145*
X-005036Y-002156*
X-005025Y-002167*
X-005012Y-002176*
X-004999Y-002185*
X-004985Y-002192*
X-004971Y-002199*
X-004956Y-002204*
X-004941Y-002209*
X-004926Y-002212*
X-00491Y-002215*
X-004895Y-002216*
X-004879Y-002216*
X-004863Y-002216*
X-004848Y-002214*
X-004832Y-002211*
X-004817Y-002206*
X-004802Y-002201*
X-004788Y-002195*
X-004774Y-002188*
X-00476Y-00218*
X-004748Y-002171*
X-004735Y-002161*
X-004724Y-00215*
X-004713Y-002139*
X-004703Y-002126*
X-004699Y-002119*
X-005072Y-001869D02*
D01*
X-005081Y-001883*
X-005088Y-001897*
X-005094Y-001911*
X-005099Y-001926*
X-005103Y-001941*
X-005106Y-001957*
X-005108Y-001973*
X-005108Y-001988*
X-005108Y-002004*
X-005107Y-00202*
X-005104Y-002035*
X-005101Y-00205*
X-005096Y-002065*
X-00509Y-00208*
X-005084Y-002094*
X-005076Y-002108*
X-005067Y-002121*
X-005058Y-002134*
X-005048Y-002145*
X-005036Y-002156*
X-005025Y-002167*
X-005012Y-002176*
X-004999Y-002185*
X-004985Y-002192*
X-004971Y-002199*
X-004956Y-002204*
X-004941Y-002209*
X-004926Y-002212*
X-00491Y-002215*
X-004895Y-002216*
X-004879Y-002216*
X-004863Y-002216*
X-004848Y-002214*
X-004832Y-002211*
X-004817Y-002206*
X-004802Y-002201*
X-004788Y-002195*
X-004774Y-002188*
X-00476Y-00218*
X-004748Y-002171*
X-004735Y-002161*
X-004724Y-00215*
X-004713Y-002139*
X-004703Y-002126*
X-004699Y-002119*
D01*
X-004689Y-002132*
X-004679Y-002144*
X-004668Y-002155*
X-004656Y-002165*
X-004643Y-002175*
X-00463Y-002184*
X-004616Y-002191*
X-004602Y-002198*
X-004587Y-002204*
X-004572Y-002208*
X-004557Y-002212*
X-004541Y-002214*
X-004526Y-002216*
X-00451Y-002216*
X-004494Y-002215*
X-004479Y-002213*
X-004463Y-00221*
X-004448Y-002206*
X-004433Y-002201*
X-004419Y-002195*
X-004405Y-002188*
X-004391Y-00218*
X-004378Y-002171*
X-004366Y-002161*
X-004354Y-00215*
X-004344Y-002139*
X-004334Y-002127*
X-004325Y-002114*
X-004316Y-0021*
X-004309Y-002086*
X-004303Y-002072*
X-004298Y-002057*
X-004294Y-002042*
X-004291Y-002026*
X-004289Y-002011*
X-004288Y-001995*
X-004289Y-001991*
D01*
X-00429Y-001976*
X-004292Y-00196*
X-004294Y-001945*
X-004294Y-001944*
X-004289Y-001991D02*
D01*
X-00429Y-001976*
X-004292Y-00196*
X-004294Y-001945*
X-004294Y-001944*
X-004259Y-002176D02*
D01*
X-004259Y-002185*
X-004258Y-002193*
X-004257Y-0022*
X-004255Y-002208*
X-004253Y-002216*
X-00425Y-002223*
X-004246Y-00223*
X-004242Y-002237*
X-004238Y-002244*
X-004233Y-00225*
X-004227Y-002256*
X-004225Y-002258*
X-004259Y-002176D02*
D01*
X-004259Y-002185*
X-004258Y-002193*
X-004257Y-0022*
X-004255Y-002208*
X-004253Y-002216*
X-00425Y-002223*
X-004246Y-00223*
X-004242Y-002237*
X-004238Y-002244*
X-004233Y-00225*
X-004227Y-002256*
X-004225Y-002258*
X-006434Y-001459D02*
D01*
X-006427Y-001466*
X-006419Y-001472*
X-006411Y-001477*
X-006402Y-001481*
X-006393Y-001485*
X-006384Y-001489*
X-006375Y-001491*
X-006365Y-001494*
X-006355Y-001495*
X-006346Y-001496*
X-006336Y-001496*
X-006326Y-001495*
X-006316Y-001494*
X-006307Y-001492*
X-006297Y-001489*
X-006288Y-001486*
X-006279Y-001482*
X-006271Y-001477*
X-006262Y-001472*
X-006254Y-001466*
X-006247Y-00146*
X-00624Y-001453*
X-006233Y-001446*
X-006227Y-001438*
X-006222Y-00143*
X-006217Y-001422*
X-006213Y-001413*
X-006209Y-001404*
X-006206Y-001394*
X-006203Y-001385*
X-006202Y-001375*
X-006201Y-001366*
X-0062Y-001356*
X-0062Y-001355*
X-005809Y-001607D02*
D01*
X-005809Y-001616*
X-005808Y-001625*
X-005806Y-001633*
X-005804Y-001639*
X-005826Y-001554D02*
D01*
X-005826Y-001561*
X-005826Y-001567*
X-005824Y-001574*
X-005823Y-00158*
X-005821Y-001586*
X-005818Y-001592*
X-005816Y-001598*
X-005812Y-001604*
X-005809Y-001607*
X-005734Y-001426D02*
D01*
X-005741Y-001427*
X-005747Y-001427*
X-005754Y-001429*
X-00576Y-00143*
X-005766Y-001432*
X-005772Y-001435*
X-005778Y-001437*
X-005784Y-001441*
X-005789Y-001444*
X-005794Y-001448*
X-005799Y-001453*
X-005804Y-001457*
X-005808Y-001462*
X-005812Y-001467*
X-005815Y-001473*
X-005818Y-001479*
X-005821Y-001485*
X-005823Y-001491*
X-005825Y-001497*
X-005826Y-001503*
X-005827Y-00151*
X-005827Y-001516*
X-005826Y-001518*
X-0062Y-001355D02*
D01*
X-006201Y-001346*
X-006202Y-001336*
X-006204Y-001326*
X-006206Y-001317*
X-006209Y-001308*
X-006213Y-001299*
X-006217Y-00129*
X-006222Y-001281*
X-006227Y-001273*
X-006233Y-001266*
X-006238Y-00126*
D01*
X-006227Y-001262*
X-006216Y-001262*
X-006205Y-001262*
X-006194Y-001261*
X-006183Y-00126*
X-006172Y-001257*
X-006161Y-001254*
X-006151Y-00125*
X-006141Y-001245*
X-006131Y-00124*
X-006122Y-001234*
X-006113Y-001227*
X-006104Y-001219*
X-006096Y-001212*
X-006089Y-001203*
X-006082Y-001194*
X-006076Y-001185*
X-006071Y-001175*
X-006066Y-001165*
X-006062Y-001155*
X-006059Y-001144*
X-006056Y-001133*
X-006055Y-001122*
X-006054Y-001111*
X-006053Y-001101*
X-005785Y-001222D02*
D01*
X-005791Y-001226*
X-005796Y-00123*
X-0058Y-001235*
X-005805Y-00124*
X-005809Y-001245*
X-005812Y-00125*
X-005816Y-001256*
X-005818Y-001262*
X-005821Y-001268*
X-005823Y-001274*
X-005824Y-00128*
X-005826Y-001287*
X-005826Y-001293*
X-005826Y-001298*
X-005296Y-001459D02*
D01*
X-005289Y-001466*
X-005281Y-001472*
X-005273Y-001477*
X-005264Y-001481*
X-005255Y-001485*
X-005246Y-001489*
X-005237Y-001491*
X-005227Y-001494*
X-005217Y-001495*
X-005208Y-001496*
X-005198Y-001496*
X-005188Y-001495*
X-005178Y-001494*
X-005169Y-001492*
X-005159Y-001489*
X-00515Y-001486*
X-005141Y-001482*
X-005133Y-001477*
X-005124Y-001472*
X-005116Y-001466*
X-005109Y-00146*
X-005102Y-001453*
X-005095Y-001446*
X-005089Y-001438*
X-005084Y-00143*
X-005079Y-001422*
X-005075Y-001413*
X-005071Y-001404*
X-005068Y-001394*
X-005065Y-001385*
X-005064Y-001375*
X-005063Y-001366*
X-005062Y-001356*
X-005062Y-001355*
X-005638Y-001426D02*
D01*
X-005632Y-001426*
X-005626Y-001426*
X-005619Y-001424*
X-005616Y-001423*
Y-001429D02*
D01*
X-005623Y-001428*
X-005629Y-001427*
X-005636Y-001427*
X-005638Y-001426*
X-005757Y-001163D02*
D01*
X-005762Y-001169*
X-005767Y-001174*
X-005771Y-00118*
X-005774Y-001186*
X-005777Y-001192*
X-00578Y-001199*
X-005783Y-001205*
X-005784Y-001212*
X-005786Y-001219*
X-005785Y-001222*
X-005826Y-001334D02*
D01*
X-005826Y-001341*
X-005826Y-001347*
X-005824Y-001354*
X-005823Y-00136*
X-005821Y-001366*
X-005818Y-001372*
X-005816Y-001378*
X-005812Y-001384*
X-005809Y-001389*
X-005805Y-001394*
X-0058Y-001399*
X-005796Y-001404*
X-005791Y-001408*
X-005786Y-001412*
X-00578Y-001415*
X-005774Y-001418*
X-005768Y-001421*
X-005762Y-001423*
X-005756Y-001425*
X-00575Y-001426*
X-005743Y-001427*
X-005737Y-001427*
X-005734Y-001426*
X-005757Y-001163D02*
D01*
X-005762Y-001169*
X-005767Y-001174*
X-005771Y-00118*
X-005774Y-001186*
X-005777Y-001192*
X-00578Y-001199*
X-005783Y-001205*
X-005784Y-001212*
X-005786Y-001219*
X-005785Y-001222*
X-005187Y-001216D02*
D01*
X-005197Y-001216*
X-005207Y-001216*
X-005217Y-001216*
X-005218Y-001216*
D01*
X-005211Y-001208*
X-005204Y-0012*
X-005202Y-001199*
X-00444Y-001639D02*
D01*
X-004438Y-001631*
X-004437Y-001626*
X-004701Y-001554D02*
D01*
X-004701Y-001561*
X-004701Y-001567*
X-004699Y-001574*
X-004698Y-00158*
X-004696Y-001586*
X-004693Y-001592*
X-004691Y-001598*
X-004687Y-001604*
X-004684Y-001607*
D01*
X-004684Y-001616*
X-004682Y-001625*
X-004681Y-001633*
X-004678Y-001639*
X-004609Y-001426D02*
D01*
X-004616Y-001427*
X-004622Y-001427*
X-004629Y-001429*
X-004635Y-00143*
X-004641Y-001432*
X-004647Y-001435*
X-004653Y-001437*
X-004659Y-001441*
X-004664Y-001444*
X-004669Y-001448*
X-004674Y-001453*
X-004679Y-001457*
X-004683Y-001462*
X-004687Y-001467*
X-00469Y-001473*
X-004693Y-001479*
X-004696Y-001485*
X-004698Y-001491*
X-0047Y-001497*
X-004701Y-001503*
X-004702Y-00151*
X-004702Y-001516*
X-004701Y-001518*
X-005062Y-001355D02*
D01*
X-005063Y-001346*
X-005064Y-001336*
X-005066Y-001326*
X-005068Y-001317*
X-005071Y-001308*
X-005075Y-001299*
X-005079Y-00129*
X-005084Y-001281*
X-005089Y-001273*
X-005095Y-001266*
X-005101Y-00126*
X-005202Y-001199D02*
D01*
X-005195Y-001208*
X-005188Y-001216*
X-005187Y-001216*
X-005101Y-00126D02*
D01*
X-00509Y-001262*
X-005079Y-001262*
X-005068Y-001262*
X-005057Y-001261*
X-005046Y-00126*
X-005035Y-001257*
X-005024Y-001254*
X-005014Y-00125*
X-005004Y-001245*
X-004994Y-00124*
X-004985Y-001234*
X-004976Y-001227*
X-004967Y-001219*
X-004959Y-001212*
X-004952Y-001203*
X-004945Y-001194*
X-004939Y-001185*
X-004934Y-001175*
X-004929Y-001165*
X-004925Y-001155*
X-004922Y-001144*
X-004919Y-001133*
X-004918Y-001122*
X-004917Y-001111*
X-004916Y-001101*
X-004514Y-001426D02*
D01*
X-004508Y-001426*
X-004502Y-001426*
X-004495Y-001424*
X-004489Y-001423*
X-004483Y-001421*
X-004482Y-00142*
Y-001432D02*
D01*
X-004489Y-00143*
X-004495Y-001429*
X-004501Y-001428*
X-004508Y-001427*
X-004514Y-001427*
X-004514Y-001426*
X-00466Y-001222D02*
D01*
X-004666Y-001226*
X-004671Y-00123*
X-004675Y-001235*
X-00468Y-00124*
X-004684Y-001245*
X-004687Y-00125*
X-004691Y-001255*
X-004694Y-001261*
X-004696Y-001267*
X-004698Y-001273*
X-0047Y-00128*
X-004701Y-001286*
X-004702Y-001292*
X-004701Y-001298*
Y-001334D02*
D01*
X-004701Y-001341*
X-004701Y-001347*
X-004699Y-001354*
X-004698Y-00136*
X-004696Y-001366*
X-004693Y-001372*
X-004691Y-001378*
X-004687Y-001384*
X-004684Y-001389*
X-00468Y-001394*
X-004675Y-001399*
X-004671Y-001404*
X-004666Y-001408*
X-004661Y-001412*
X-004655Y-001415*
X-004649Y-001418*
X-004643Y-001421*
X-004637Y-001423*
X-004631Y-001425*
X-004625Y-001426*
X-004618Y-001427*
X-004612Y-001427*
X-004609Y-001426*
X-004161Y-001459D02*
D01*
X-004154Y-001466*
X-004146Y-001472*
X-004138Y-001477*
X-004129Y-001481*
X-00412Y-001485*
X-004111Y-001489*
X-004102Y-001491*
X-004092Y-001494*
X-004082Y-001495*
X-004073Y-001496*
X-004063Y-001496*
X-004053Y-001495*
X-004043Y-001494*
X-004034Y-001492*
X-004024Y-001489*
X-004015Y-001486*
X-004006Y-001482*
X-003998Y-001477*
X-003989Y-001472*
X-003981Y-001466*
X-003974Y-00146*
X-003967Y-001453*
X-00396Y-001446*
X-003954Y-001438*
X-003949Y-00143*
X-003944Y-001422*
X-00394Y-001413*
X-003936Y-001404*
X-003933Y-001394*
X-00393Y-001385*
X-003929Y-001375*
X-003928Y-001366*
X-003927Y-001356*
X-003927Y-001355*
X-004632Y-001165D02*
D01*
X-004637Y-001171*
X-004642Y-001176*
X-004646Y-001182*
X-004649Y-001188*
X-004653Y-001194*
X-004655Y-001201*
X-004658Y-001207*
X-004659Y-001214*
X-004661Y-001221*
X-00466Y-001222*
X-004632Y-001165D02*
D01*
X-004637Y-001171*
X-004642Y-001176*
X-004646Y-001182*
X-004649Y-001188*
X-004653Y-001194*
X-004655Y-001201*
X-004658Y-001207*
X-004659Y-001214*
X-004661Y-001221*
X-00466Y-001222*
X-010149Y-000713D02*
D01*
X-010141Y-000718*
X-010133Y-000721*
X-010124Y-000724*
X-010116Y-000726*
X-010107Y-000728*
X-010098Y-000729*
X-010089Y-00073*
X-01008Y-00073*
X-01007Y-000729*
X-010061Y-000727*
X-010053Y-000725*
X-010044Y-000723*
X-010035Y-000719*
X-010027Y-000715*
X-010019Y-000711*
X-010012Y-000706*
X-010004Y-000701*
X-009998Y-000695*
X-009991Y-000688*
X-009985Y-000681*
X-00998Y-000674*
X-009975Y-000666*
X-00997Y-000658*
X-009967Y-00065*
X-009963Y-000642*
X-009961Y-000633*
X-009959Y-000627*
D01*
X-009957Y-000636*
X-009954Y-000645*
X-009951Y-000653*
X-009947Y-000661*
X-009942Y-000669*
X-009937Y-000677*
X-009931Y-000684*
X-009925Y-000691*
X-009919Y-000697*
X-009912Y-000703*
X-009904Y-000708*
X-009897Y-000713*
X-009889Y-000717*
X-00988Y-00072*
X-009872Y-000723*
X-009863Y-000726*
X-009854Y-000728*
X-009845Y-000729*
X-009836Y-00073*
X-009827Y-000729*
X-009818Y-000729*
X-009809Y-000727*
X-0098Y-000725*
X-009791Y-000723*
X-009783Y-00072*
X-009775Y-000716*
X-009767Y-000712*
X-009759Y-000707*
X-009752Y-000701*
X-009745Y-000695*
X-009738Y-000689*
X-009732Y-000682*
X-009727Y-000675*
X-009722Y-000668*
X-009717Y-00066*
X-009713Y-000651*
X-00971Y-000643*
X-009707Y-000634*
X-009705Y-000627*
D01*
X-009703Y-000636*
X-0097Y-000645*
X-009697Y-000653*
X-009693Y-000661*
X-009688Y-000669*
X-009683Y-000677*
X-009677Y-000684*
X-009671Y-000691*
X-009665Y-000697*
X-009658Y-000703*
X-00965Y-000708*
X-009643Y-000713*
X-009635Y-000717*
X-009626Y-00072*
X-009618Y-000723*
X-009609Y-000726*
X-0096Y-000728*
X-009591Y-000729*
X-009582Y-00073*
X-009573Y-000729*
X-009564Y-000729*
X-009555Y-000727*
X-009546Y-000725*
X-009537Y-000723*
X-009529Y-00072*
X-009521Y-000716*
X-009513Y-000712*
X-009505Y-000707*
X-009498Y-000701*
X-009491Y-000695*
X-009484Y-000689*
X-009478Y-000682*
X-009473Y-000675*
X-009468Y-000668*
X-009463Y-00066*
X-009459Y-000651*
X-009456Y-000643*
X-009454Y-000638*
X-007824Y-001001D02*
D01*
X-007831Y-001002*
X-007838Y-001002*
X-007845Y-001004*
X-007852Y-001005*
X-007859Y-001008*
X-007865Y-00101*
X-007871Y-001013*
X-007877Y-001017*
X-007883Y-001021*
X-007889Y-001025*
X-007894Y-00103*
X-007895Y-001031*
X-007824Y-001001D02*
D01*
X-007831Y-001002*
X-007838Y-001002*
X-007845Y-001004*
X-007852Y-001005*
X-007859Y-001008*
X-007865Y-00101*
X-007871Y-001013*
X-007877Y-001017*
X-007883Y-001021*
X-007889Y-001025*
X-007894Y-00103*
X-007895Y-001031*
X-00748Y-001004D02*
D01*
X-007488Y-000996*
X-007495Y-000988*
X-007503Y-00098*
X-007512Y-000973*
X-007521Y-000967*
X-007531Y-000961*
X-007541Y-000956*
X-007551Y-000952*
X-007562Y-000948*
X-007573Y-000946*
X-007584Y-000944*
X-007595Y-000942*
X-007606Y-000942*
X-007617Y-000942*
X-007628Y-000943*
X-007639Y-000945*
X-00765Y-000947*
X-007661Y-000951*
X-007671Y-000955*
X-007681Y-00096*
X-007691Y-000965*
X-0077Y-000971*
X-007709Y-000978*
X-007717Y-000985*
X-007725Y-000993*
X-007732Y-001001*
X-008719Y-000499D02*
D01*
X-008726Y-0005*
X-008732Y-0005*
X-008738Y-000501*
X-008744Y-000503*
X-00875Y-000505*
X-008756Y-000507*
X-008762Y-00051*
X-008767Y-000513*
X-008772Y-000517*
X-008777Y-000521*
X-008782Y-000525*
X-008783Y-000525*
X-008719Y-000499D02*
D01*
X-008726Y-0005*
X-008732Y-0005*
X-008738Y-000501*
X-008744Y-000503*
X-00875Y-000505*
X-008756Y-000507*
X-008762Y-00051*
X-008767Y-000513*
X-008772Y-000517*
X-008777Y-000521*
X-008782Y-000525*
X-008783Y-000525*
X-008163Y-000485D02*
D01*
X-008158Y-000493*
X-008152Y-000499*
X-008151Y-000499*
X-009959Y-000571D02*
D01*
X-009962Y-000563*
X-009965Y-000554*
X-009968Y-000546*
X-009972Y-000538*
X-009977Y-00053*
X-009982Y-000522*
X-009988Y-000515*
X-009994Y-000508*
X-01Y-000502*
X-010007Y-000496*
X-010015Y-000491*
X-010022Y-000486*
X-01003Y-000482*
X-010039Y-000479*
X-010047Y-000476*
X-010056Y-000473*
X-010065Y-000471*
X-010074Y-00047*
X-010083Y-000469*
X-010092Y-00047*
X-010101Y-00047*
X-01011Y-000472*
X-010119Y-000474*
X-010128Y-000476*
X-010136Y-000479*
X-010144Y-000483*
X-010149Y-000485*
X-009705Y-000571D02*
D01*
X-009708Y-000563*
X-009711Y-000554*
X-009714Y-000546*
X-009718Y-000538*
X-009723Y-00053*
X-009728Y-000522*
X-009734Y-000515*
X-00974Y-000508*
X-009746Y-000502*
X-009753Y-000496*
X-009761Y-000491*
X-009768Y-000486*
X-009776Y-000482*
X-009785Y-000479*
X-009793Y-000476*
X-009802Y-000473*
X-009811Y-000471*
X-00982Y-00047*
X-009829Y-000469*
X-009838Y-00047*
X-009847Y-00047*
X-009856Y-000472*
X-009865Y-000474*
X-009874Y-000476*
X-009882Y-000479*
X-00989Y-000483*
X-009898Y-000487*
X-009906Y-000492*
X-009913Y-000498*
X-00992Y-000504*
X-009927Y-00051*
X-009933Y-000517*
X-009938Y-000524*
X-009943Y-000531*
X-009948Y-000539*
X-009952Y-000548*
X-009955Y-000556*
X-009958Y-000565*
X-009959Y-000571*
X-009454Y-00056D02*
D01*
X-009458Y-000552*
X-009461Y-000544*
X-009465Y-000536*
X-00947Y-000528*
X-009475Y-00052*
X-009481Y-000513*
X-009487Y-000507*
X-009494Y-000501*
X-009501Y-000495*
X-009509Y-00049*
X-009516Y-000485*
X-009525Y-000481*
X-009533Y-000478*
X-009541Y-000475*
X-00955Y-000473*
X-009559Y-000471*
X-009568Y-00047*
X-009577Y-00047*
X-009586Y-00047*
X-009595Y-000471*
X-009604Y-000472*
X-009613Y-000474*
X-009622Y-000477*
X-00963Y-00048*
X-009638Y-000484*
X-009646Y-000489*
X-009654Y-000494*
X-009661Y-000499*
X-009668Y-000505*
X-009674Y-000512*
X-00968Y-000519*
X-009686Y-000526*
X-00969Y-000533*
X-009695Y-000541*
X-009699Y-00055*
X-009702Y-000558*
X-009704Y-000567*
X-009705Y-000571*
X-009843Y-000149D02*
D01*
X-009832Y-000173*
X-009819Y-000196*
X-009805Y-000218*
X-009789Y-000239*
X-009771Y-000258*
X-009753Y-000276*
X-009733Y-000293*
X-009712Y-000309*
X-00969Y-000323*
X-009667Y-000336*
X-009643Y-000346*
X-009618Y-000356*
X-009593Y-000363*
X-009568Y-000369*
X-009542Y-000372*
X-009515Y-000374*
X-009489Y-000375*
X-009463Y-000373*
X-009437Y-00037*
X-009412Y-000364*
X-009386Y-000357*
X-009362Y-000349*
X-009338Y-000338*
X-009314Y-000326*
X-009292Y-000312*
X-009271Y-000297*
X-009251Y-00028*
X-009232Y-000262*
X-009214Y-000243*
X-009198Y-000222*
X-009183Y-000201*
X-00917Y-000178*
X-009158Y-000155*
X-009155Y-000149*
X-007967Y-000499D02*
D01*
X-007961Y-000493*
X-007956Y-000486*
X-00795Y-000478*
X-007946Y-000471*
X-007942Y-000462*
X-007938Y-000454*
X-007935Y-000446*
X-007933Y-000437*
X-007931Y-000428*
X-00793Y-000419*
X-007929Y-00041*
X-007929Y-000407*
D01*
X-00793Y-000398*
X-007931Y-000389*
X-007932Y-00038*
X-007935Y-000372*
X-007937Y-000363*
X-007941Y-000355*
X-007945Y-000346*
X-007949Y-000339*
X-007954Y-000331*
X-00796Y-000324*
X-007966Y-000317*
X-007973Y-000311*
X-007979Y-000305*
X-007987Y-0003*
X-007994Y-000295*
X-008003Y-000291*
X-008011Y-000287*
X-008019Y-000284*
X-008028Y-000281*
X-008037Y-000279*
X-008046Y-000278*
X-008055Y-000278*
X-008064*
X-008073Y-000278*
X-008082Y-000279*
X-008091Y-000281*
X-0081Y-000284*
X-008108Y-000287*
X-008116Y-000291*
X-008124Y-000295*
X-008132Y-0003*
X-00814Y-000305*
X-008146Y-000311*
X-008153Y-000317*
X-008159Y-000324*
X-008163Y-000329*
X-007193Y-001101D02*
D01*
X-007194Y-00109*
X-007195Y-001079*
X-007197Y-001068*
X-0072Y-001057*
X-007203Y-001047*
X-007207Y-001036*
X-007212Y-001026*
X-007218Y-001017*
X-007224Y-001007*
X-007231Y-000999*
X-007238Y-00099*
X-007246Y-000983*
X-007255Y-000975*
X-007264Y-000969*
X-007273Y-000963*
X-007283Y-000958*
X-007294Y-000953*
X-007304Y-000949*
X-007315Y-000946*
X-007326Y-000944*
X-007337Y-000942*
X-007348Y-000942*
X-007359*
X-00737Y-000942*
X-007381Y-000944*
X-007392Y-000946*
X-007403Y-000949*
X-007413Y-000953*
X-007424Y-000958*
X-007433Y-000963*
X-007443Y-000969*
X-007452Y-000975*
X-007461Y-000983*
X-007469Y-00099*
X-007476Y-000999*
X-00748Y-001004*
X-006689Y-001001D02*
D01*
X-006696Y-001002*
X-006703Y-001002*
X-00671Y-001004*
X-006717Y-001005*
X-006724Y-001008*
X-00673Y-00101*
X-006736Y-001013*
X-006742Y-001017*
X-006748Y-001021*
X-006754Y-001025*
X-006759Y-00103*
X-00676Y-001031*
X-006689Y-001001D02*
D01*
X-006696Y-001002*
X-006703Y-001002*
X-00671Y-001004*
X-006717Y-001005*
X-006724Y-001008*
X-00673Y-00101*
X-006736Y-001013*
X-006742Y-001017*
X-006748Y-001021*
X-006754Y-001025*
X-006759Y-00103*
X-00676Y-001031*
X-006053Y-001101D02*
D01*
X-006054Y-00109*
X-006055Y-001079*
X-006057Y-001068*
X-00606Y-001057*
X-006063Y-001047*
X-006067Y-001036*
X-006072Y-001026*
X-006078Y-001017*
X-006084Y-001007*
X-006091Y-000999*
X-006098Y-00099*
X-006106Y-000983*
X-006115Y-000975*
X-006124Y-000969*
X-006133Y-000963*
X-006143Y-000958*
X-006154Y-000953*
X-006164Y-000949*
X-006175Y-000946*
X-006186Y-000944*
X-006197Y-000942*
X-006208Y-000942*
X-006219*
X-00623Y-000942*
X-006241Y-000944*
X-006252Y-000946*
X-006263Y-000949*
X-006273Y-000953*
X-006284Y-000958*
X-006293Y-000963*
X-006303Y-000969*
X-006312Y-000975*
X-006321Y-000983*
X-006329Y-00099*
X-006336Y-000999*
X-00634Y-001004*
D01*
X-006348Y-000996*
X-006355Y-000988*
X-006363Y-00098*
X-006372Y-000973*
X-006381Y-000967*
X-006391Y-000961*
X-006401Y-000956*
X-006411Y-000952*
X-006422Y-000948*
X-006433Y-000946*
X-006444Y-000944*
X-006455Y-000942*
X-006466Y-000942*
X-006477Y-000942*
X-006488Y-000943*
X-006499Y-000945*
X-00651Y-000947*
X-006521Y-000951*
X-006531Y-000955*
X-006541Y-00096*
X-006551Y-000965*
X-00656Y-000971*
X-006569Y-000978*
X-006577Y-000985*
X-006585Y-000993*
X-006592Y-001001*
X-005554D02*
D01*
X-005561Y-001002*
X-005568Y-001002*
X-005575Y-001004*
X-005582Y-001005*
X-005589Y-001008*
X-005595Y-00101*
X-005601Y-001013*
X-005607Y-001017*
X-005613Y-001021*
X-005619Y-001025*
X-005624Y-00103*
X-005625Y-001031*
X-005554Y-001001D02*
D01*
X-005561Y-001002*
X-005568Y-001002*
X-005575Y-001004*
X-005582Y-001005*
X-005589Y-001008*
X-005595Y-00101*
X-005601Y-001013*
X-005607Y-001017*
X-005613Y-001021*
X-005619Y-001025*
X-005624Y-00103*
X-005625Y-001031*
X-004916Y-001101D02*
D01*
X-004917Y-00109*
X-004918Y-001079*
X-00492Y-001068*
X-004923Y-001057*
X-004926Y-001047*
X-00493Y-001036*
X-004935Y-001026*
X-004941Y-001017*
X-004947Y-001007*
X-004954Y-000999*
X-004961Y-00099*
X-004969Y-000983*
X-004978Y-000975*
X-004987Y-000969*
X-004996Y-000963*
X-005006Y-000958*
X-005017Y-000953*
X-005027Y-000949*
X-005038Y-000946*
X-005049Y-000944*
X-00506Y-000942*
X-005071Y-000942*
X-005082*
X-005093Y-000942*
X-005104Y-000944*
X-005115Y-000946*
X-005126Y-000949*
X-005136Y-000953*
X-005147Y-000958*
X-005156Y-000963*
X-005166Y-000969*
X-005175Y-000975*
X-005184Y-000983*
X-005192Y-00099*
X-005199Y-000999*
X-005202Y-001004*
D01*
X-00521Y-000996*
X-005217Y-000988*
X-005225Y-00098*
X-005234Y-000973*
X-005243Y-000967*
X-005253Y-000961*
X-005263Y-000956*
X-005273Y-000952*
X-005284Y-000948*
X-005295Y-000946*
X-005306Y-000944*
X-005317Y-000942*
X-005328Y-000942*
X-005339Y-000942*
X-00535Y-000943*
X-005361Y-000945*
X-005372Y-000947*
X-005383Y-000951*
X-005393Y-000955*
X-005403Y-00096*
X-005413Y-000965*
X-005422Y-000971*
X-005431Y-000978*
X-005439Y-000985*
X-005447Y-000993*
X-005454Y-001001*
X-004427D02*
D01*
X-004434Y-001002*
X-004441Y-001002*
X-004448Y-001004*
X-004455Y-001005*
X-004462Y-001008*
X-004468Y-00101*
X-004474Y-001013*
X-00448Y-001017*
X-004486Y-001021*
X-004492Y-001025*
X-004497Y-00103*
X-004497Y-001031*
X-004427Y-001001D02*
D01*
X-004434Y-001002*
X-004441Y-001002*
X-004448Y-001004*
X-004455Y-001005*
X-004462Y-001008*
X-004468Y-00101*
X-004474Y-001013*
X-00448Y-001017*
X-004486Y-001021*
X-004492Y-001025*
X-004497Y-00103*
X-004497Y-001031*
X-004068Y-001004D02*
D01*
X-004076Y-000996*
X-004083Y-000988*
X-004091Y-00098*
X-0041Y-000973*
X-004109Y-000967*
X-004119Y-000961*
X-004129Y-000956*
X-004139Y-000952*
X-00415Y-000948*
X-004161Y-000946*
X-004172Y-000944*
X-004183Y-000942*
X-004194Y-000942*
X-004205Y-000942*
X-004216Y-000943*
X-004227Y-000945*
X-004238Y-000947*
X-004249Y-000951*
X-004259Y-000955*
X-004269Y-00096*
X-004279Y-000965*
X-004288Y-000971*
X-004297Y-000978*
X-004305Y-000985*
X-004313Y-000993*
X-004319Y-001001*
X-004777Y-000752D02*
D01*
X-004771Y-000752*
X-004765Y-000752*
X-004759Y-000751*
X-004753Y-000749*
X-004747Y-000747*
X-004741Y-000745*
X-004735Y-000742*
X-00473Y-000739*
X-004725Y-000735*
X-00472Y-000731*
X-004715Y-000727*
X-004713Y-000725*
X-004777Y-000752D02*
D01*
X-004771Y-000752*
X-004765Y-000752*
X-004759Y-000751*
X-004753Y-000749*
X-004747Y-000747*
X-004741Y-000745*
X-004735Y-000742*
X-00473Y-000739*
X-004725Y-000735*
X-00472Y-000731*
X-004715Y-000727*
X-004713Y-000725*
X-007363Y-000485D02*
D01*
X-007358Y-000493*
X-007352Y-000499*
X-007351Y-000499*
X-007129Y-000407D02*
D01*
X-00713Y-000398*
X-007131Y-000389*
X-007132Y-00038*
X-007135Y-000372*
X-007137Y-000363*
X-007141Y-000355*
X-007145Y-000346*
X-007149Y-000339*
X-007154Y-000331*
X-00716Y-000324*
X-007166Y-000317*
X-007173Y-000311*
X-007179Y-000305*
X-007187Y-0003*
X-007194Y-000295*
X-007203Y-000291*
X-007211Y-000287*
X-007219Y-000284*
X-007228Y-000281*
X-007237Y-000279*
X-007246Y-000278*
X-007255Y-000278*
X-007264*
X-007273Y-000278*
X-007282Y-000279*
X-007291Y-000281*
X-0073Y-000284*
X-007308Y-000287*
X-007316Y-000291*
X-007324Y-000295*
X-007332Y-0003*
X-00734Y-000305*
X-007346Y-000311*
X-007353Y-000317*
X-007359Y-000324*
X-007363Y-000329*
X-007167Y-000499D02*
D01*
X-007161Y-000493*
X-007156Y-000486*
X-00715Y-000478*
X-007146Y-000471*
X-007142Y-000462*
X-007138Y-000454*
X-007135Y-000446*
X-007133Y-000437*
X-007131Y-000428*
X-00713Y-000419*
X-007129Y-00041*
X-007129Y-000407*
X-006563Y-000485D02*
D01*
X-006558Y-000493*
X-006552Y-000499*
X-006551Y-000499*
X-006329Y-000407D02*
D01*
X-00633Y-000398*
X-006331Y-000389*
X-006332Y-00038*
X-006335Y-000372*
X-006337Y-000363*
X-006341Y-000355*
X-006345Y-000346*
X-006349Y-000339*
X-006354Y-000331*
X-00636Y-000324*
X-006366Y-000317*
X-006373Y-000311*
X-006379Y-000305*
X-006387Y-0003*
X-006394Y-000295*
X-006403Y-000291*
X-006411Y-000287*
X-006419Y-000284*
X-006428Y-000281*
X-006437Y-000279*
X-006446Y-000278*
X-006455Y-000278*
X-006464*
X-006473Y-000278*
X-006482Y-000279*
X-006491Y-000281*
X-0065Y-000284*
X-006508Y-000287*
X-006516Y-000291*
X-006524Y-000295*
X-006532Y-0003*
X-00654Y-000305*
X-006546Y-000311*
X-006553Y-000317*
X-006559Y-000324*
X-006563Y-000329*
X-006367Y-000499D02*
D01*
X-006361Y-000493*
X-006356Y-000486*
X-00635Y-000478*
X-006346Y-000471*
X-006342Y-000462*
X-006338Y-000454*
X-006335Y-000446*
X-006333Y-000437*
X-006331Y-000428*
X-00633Y-000419*
X-006329Y-00041*
X-006329Y-000407*
X-005763Y-000485D02*
D01*
X-005758Y-000493*
X-005752Y-000499*
X-005751Y-000499*
X-005567D02*
D01*
X-005561Y-000493*
X-005556Y-000486*
X-00555Y-000478*
X-005546Y-000471*
X-005542Y-000462*
X-005538Y-000454*
X-005535Y-000446*
X-005533Y-000437*
X-005531Y-000428*
X-00553Y-000419*
X-00553Y-000418*
X-00567Y-000278D02*
D01*
X-005679Y-00028*
X-005688Y-000281*
X-005697Y-000284*
X-005706Y-000287*
X-005714Y-00029*
X-005722Y-000294*
X-00573Y-000299*
X-005737Y-000304*
X-005744Y-00031*
X-005751Y-000316*
X-005757Y-000322*
X-005763Y-000329*
X-005763Y-000329*
X-004098Y-002385D02*
D01*
X-004093Y-002391*
X-004086Y-002396*
X-00408Y-002401*
X-004073Y-002405*
X-004066Y-002408*
X-004059Y-002411*
X-004051Y-002414*
X-004043Y-002416*
X-004035Y-002418*
X-004027Y-002419*
X-004019Y-002419*
X-004016Y-002419*
X-004098Y-002385D02*
D01*
X-004093Y-002391*
X-004086Y-002396*
X-00408Y-002401*
X-004073Y-002405*
X-004066Y-002408*
X-004059Y-002411*
X-004051Y-002414*
X-004043Y-002416*
X-004035Y-002418*
X-004027Y-002419*
X-004019Y-002419*
X-004016Y-002419*
X-003104Y-002051D02*
D01*
X-003104Y-002062*
X-003103Y-002073*
X-003101Y-002084*
X-003098Y-002094*
X-003095Y-002105*
X-003091Y-002115*
X-003086Y-002124*
X-003081Y-002134*
X-003075Y-002143*
X-003068Y-002151*
X-003061Y-002159*
X-003053Y-002167*
X-003045Y-002174*
X-003036Y-00218*
X-003027Y-002186*
X-003019Y-002189*
X-003642D02*
D01*
X-003629Y-002182*
X-003616Y-002173*
X-003603Y-002163*
X-003592Y-002153*
X-003581Y-002141*
X-003571Y-002129*
X-003561Y-002116*
X-003553Y-002103*
X-003546Y-002089*
X-003539Y-002075*
X-003534Y-00206*
X-00353Y-002045*
X-003526Y-002029*
X-003524Y-002014*
X-003523Y-001998*
X-003523Y-001991*
X-003642Y-002189D02*
D01*
X-003629Y-002182*
X-003616Y-002173*
X-003603Y-002163*
X-003592Y-002153*
X-003581Y-002141*
X-003571Y-002129*
X-003561Y-002116*
X-003553Y-002103*
X-003546Y-002089*
X-003539Y-002075*
X-003534Y-00206*
X-00353Y-002045*
X-003526Y-002029*
X-003524Y-002014*
X-003523Y-001998*
X-003523Y-001991*
X-004029Y-001932D02*
D01*
X-00403Y-001924*
X-004031Y-001916*
X-004032Y-001909*
X-004034Y-001901*
X-004036Y-001893*
X-004039Y-001886*
X-004043Y-001879*
X-004047Y-001872*
X-004051Y-001865*
X-004056Y-001859*
X-004062Y-001853*
X-004064Y-00185*
X-004029Y-001932D02*
D01*
X-00403Y-001924*
X-004031Y-001916*
X-004032Y-001909*
X-004034Y-001901*
X-004036Y-001893*
X-004039Y-001886*
X-004043Y-001879*
X-004047Y-001872*
X-004051Y-001865*
X-004056Y-001859*
X-004062Y-001853*
X-004064Y-00185*
X-003523Y-001991D02*
D01*
X-003524Y-001976*
X-003526Y-00196*
X-003528Y-001945*
X-003532Y-001929*
X-003537Y-001915*
X-003543Y-0019*
X-00355Y-001886*
X-003558Y-001872*
X-003566Y-001859*
X-003576Y-001847*
X-003587Y-001835*
X-003598Y-001824*
X-00361Y-001814*
X-003623Y-001805*
X-003636Y-001797*
X-00365Y-001789*
X-003664Y-001783*
X-003679Y-001778*
X-003694Y-001773*
X-003709Y-00177*
X-003725Y-001768*
X-003741Y-001767*
X-003756*
X-003772Y-001768*
X-003788Y-00177*
X-003803Y-001773*
X-003818Y-001778*
X-003833Y-001783*
X-003847Y-001789*
X-003861Y-001797*
X-003874Y-001805*
X-003887Y-001814*
X-003899Y-001824*
X-00391Y-001835*
X-003921Y-001847*
X-003931Y-001859*
X-003939Y-001872*
X-003947Y-001886*
X-003954Y-0019*
X-00396Y-001915*
X-003965Y-001929*
X-003969Y-001945*
X-003971Y-00196*
X-003973Y-001976*
X-003973Y-001991*
X-003973Y-002007*
X-003971Y-002023*
X-003969Y-002038*
X-003965Y-002054*
X-00396Y-002068*
X-003954Y-002083*
X-003947Y-002097*
X-003939Y-002111*
X-003931Y-002124*
X-003921Y-002136*
X-00391Y-002148*
X-003899Y-002159*
X-003887Y-002169*
X-003874Y-002178*
X-003861Y-002186*
X-003854Y-002189*
X-003523Y-001991D02*
D01*
X-003524Y-001976*
X-003526Y-00196*
X-003528Y-001945*
X-003532Y-001929*
X-003537Y-001915*
X-003543Y-0019*
X-00355Y-001886*
X-003558Y-001872*
X-003566Y-001859*
X-003576Y-001847*
X-003587Y-001835*
X-003598Y-001824*
X-00361Y-001814*
X-003623Y-001805*
X-003636Y-001797*
X-00365Y-001789*
X-003664Y-001783*
X-003679Y-001778*
X-003694Y-001773*
X-003709Y-00177*
X-003725Y-001768*
X-003741Y-001767*
X-003756*
X-003772Y-001768*
X-003788Y-00177*
X-003803Y-001773*
X-003818Y-001778*
X-003833Y-001783*
X-003847Y-001789*
X-003861Y-001797*
X-003874Y-001805*
X-003887Y-001814*
X-003899Y-001824*
X-00391Y-001835*
X-003921Y-001847*
X-003931Y-001859*
X-003939Y-001872*
X-003947Y-001886*
X-003954Y-0019*
X-00396Y-001915*
X-003965Y-001929*
X-003969Y-001945*
X-003971Y-00196*
X-003973Y-001976*
X-003973Y-001991*
X-003973Y-002007*
X-003971Y-002023*
X-003969Y-002038*
X-003965Y-002054*
X-00396Y-002068*
X-003954Y-002083*
X-003947Y-002097*
X-003939Y-002111*
X-003931Y-002124*
X-003921Y-002136*
X-00391Y-002148*
X-003899Y-002159*
X-003887Y-002169*
X-003874Y-002178*
X-003861Y-002186*
X-003854Y-002189*
X-003473Y-002051D02*
D01*
X-003473Y-002064*
X-003472Y-002076*
X-00347Y-002088*
X-003467Y-0021*
X-003463Y-002111*
X-003458Y-002123*
X-003453Y-002134*
X-003447Y-002144*
X-00344Y-002154*
X-003433Y-002164*
X-003424Y-002173*
X-003416Y-002182*
X-003406Y-002189*
X-003191D02*
D01*
X-003182Y-002182*
X-003173Y-002173*
X-003165Y-002164*
X-003158Y-002154*
X-003151Y-002144*
X-003145Y-002134*
X-003139Y-002123*
X-003135Y-002111*
X-003131Y-0021*
X-003128Y-002088*
X-003126Y-002076*
X-003125Y-002064*
X-003124Y-002051*
X-003398Y-001807D02*
D01*
X-003408Y-001815*
X-003418Y-001823*
X-003426Y-001831*
X-003434Y-001841*
X-003442Y-00185*
X-003448Y-001861*
X-003454Y-001871*
X-00346Y-001882*
X-003464Y-001894*
X-003468Y-001905*
X-00347Y-001917*
X-003472Y-001929*
X-003474Y-001942*
X-003473Y-001951*
X-003124D02*
D01*
X-003125Y-001939*
X-003126Y-001927*
X-003128Y-001915*
X-003131Y-001903*
X-003135Y-001892*
X-00314Y-00188*
X-003145Y-001869*
X-003151Y-001859*
X-003158Y-001849*
X-003165Y-001839*
X-003174Y-00183*
X-003182Y-001821*
X-003192Y-001814*
X-003199Y-001807*
X-002794Y-001951D02*
D01*
X-002794Y-001941*
X-002795Y-00193*
X-002797Y-001919*
X-0028Y-001909*
X-002803Y-001898*
X-002807Y-001888*
X-002812Y-001879*
X-002817Y-001869*
X-002823Y-00186*
X-00283Y-001852*
X-002837Y-001844*
X-002845Y-001836*
X-002853Y-001829*
X-002862Y-001823*
X-002871Y-001817*
X-002881Y-001812*
X-00289Y-001808*
X-002901Y-001804*
X-002911Y-001801*
X-002922Y-001799*
X-002932Y-001797*
X-002943Y-001797*
X-002954*
X-002965Y-001797*
X-002975Y-001799*
X-002986Y-001801*
X-002996Y-001804*
X-003007Y-001808*
X-003016Y-001812*
X-003026Y-001817*
X-003035Y-001823*
X-003044Y-001829*
X-003052Y-001836*
X-00306Y-001844*
X-003067Y-001852*
X-003074Y-00186*
X-00308Y-001869*
X-003085Y-001879*
X-00309Y-001888*
X-003094Y-001898*
X-003097Y-001909*
X-0031Y-001919*
X-003102Y-00193*
X-003103Y-001941*
X-003104Y-001951*
X-002878Y-002189D02*
D01*
X-002869Y-002184*
X-00286Y-002178*
X-002851Y-002172*
X-002843Y-002165*
X-002836Y-002157*
X-002829Y-002149*
X-002822Y-00214*
X-002816Y-002131*
X-002811Y-002121*
X-002806Y-002112*
X-002803Y-002101*
X-002799Y-002091*
X-002797Y-002081*
X-002795Y-00207*
X-002794Y-002059*
X-002794Y-002051*
X-002774D02*
D01*
X-002774Y-002064*
X-002773Y-002076*
X-002771Y-002088*
X-002768Y-0021*
X-002764Y-002111*
X-002759Y-002123*
X-002754Y-002134*
X-002748Y-002144*
X-002741Y-002154*
X-002734Y-002164*
X-002725Y-002173*
X-002717Y-002182*
X-002707Y-002189*
X-002706Y-002189*
X-002491D02*
D01*
X-002482Y-002182*
X-002473Y-002173*
X-002465Y-002164*
X-002458Y-002154*
X-002451Y-002144*
X-002445Y-002134*
X-002439Y-002123*
X-002435Y-002111*
X-002431Y-0021*
X-002428Y-002088*
X-002426Y-002076*
X-002425Y-002064*
X-002424Y-002051*
X-002699Y-001807D02*
D01*
X-002709Y-001815*
X-002719Y-001823*
X-002727Y-001831*
X-002735Y-001841*
X-002743Y-00185*
X-002749Y-001861*
X-002755Y-001871*
X-002761Y-001882*
X-002765Y-001894*
X-002769Y-001905*
X-002771Y-001917*
X-002773Y-001929*
X-002775Y-001942*
X-002774Y-001951*
X-002424D02*
D01*
X-002425Y-001939*
X-002426Y-001927*
X-002428Y-001915*
X-002431Y-001903*
X-002435Y-001892*
X-00244Y-00188*
X-002445Y-001869*
X-002451Y-001859*
X-002458Y-001849*
X-002465Y-001839*
X-002474Y-00183*
X-002482Y-001821*
X-002492Y-001814*
X-002499Y-001807*
X-002404Y-002051D02*
D01*
X-002404Y-002062*
X-002403Y-002073*
X-002401Y-002084*
X-002398Y-002094*
X-002395Y-002105*
X-002391Y-002115*
X-002386Y-002124*
X-002381Y-002134*
X-002375Y-002143*
X-002368Y-002151*
X-002361Y-002159*
X-002353Y-002167*
X-002345Y-002174*
X-002336Y-00218*
X-002327Y-002186*
X-002319Y-002189*
X-002178D02*
D01*
X-002169Y-002184*
X-00216Y-002178*
X-002151Y-002172*
X-002143Y-002165*
X-002136Y-002157*
X-002129Y-002149*
X-002122Y-00214*
X-002116Y-002131*
X-002111Y-002121*
X-002106Y-002112*
X-002103Y-002101*
X-002099Y-002091*
X-002097Y-002081*
X-002095Y-00207*
X-002094Y-002059*
X-002093Y-002051*
X-002074D02*
D01*
X-002074Y-002064*
X-002073Y-002076*
X-002071Y-002088*
X-002068Y-0021*
X-002064Y-002111*
X-002059Y-002123*
X-002054Y-002134*
X-002048Y-002144*
X-002041Y-002154*
X-002034Y-002164*
X-002025Y-002173*
X-002017Y-002182*
X-002007Y-002189*
X-002006Y-002189*
X-002093Y-001951D02*
D01*
X-002094Y-001941*
X-002095Y-00193*
X-002097Y-001919*
X-0021Y-001909*
X-002103Y-001898*
X-002107Y-001888*
X-002112Y-001879*
X-002117Y-001869*
X-002123Y-00186*
X-00213Y-001852*
X-002137Y-001844*
X-002145Y-001836*
X-002153Y-001829*
X-002162Y-001823*
X-002171Y-001817*
X-002181Y-001812*
X-00219Y-001808*
X-002201Y-001804*
X-002211Y-001801*
X-002222Y-001799*
X-002232Y-001797*
X-002243Y-001797*
X-002254*
X-002265Y-001797*
X-002275Y-001799*
X-002286Y-001801*
X-002296Y-001804*
X-002307Y-001808*
X-002316Y-001812*
X-002326Y-001817*
X-002335Y-001823*
X-002344Y-001829*
X-002352Y-001836*
X-00236Y-001844*
X-002367Y-001852*
X-002374Y-00186*
X-00238Y-001869*
X-002385Y-001879*
X-00239Y-001888*
X-002394Y-001898*
X-002397Y-001909*
X-0024Y-001919*
X-002402Y-00193*
X-002403Y-001941*
X-002404Y-001951*
X-001478Y-002189D02*
D01*
X-001469Y-002184*
X-00146Y-002178*
X-001451Y-002172*
X-001443Y-002165*
X-001436Y-002157*
X-001429Y-002149*
X-001422Y-00214*
X-001416Y-002131*
X-001411Y-002121*
X-001406Y-002112*
X-001403Y-002101*
X-001399Y-002091*
X-001397Y-002081*
X-001395Y-00207*
X-001394Y-002059*
X-001393Y-002051*
X-001091Y-002189D02*
D01*
X-001082Y-002182*
X-001073Y-002173*
X-001065Y-002164*
X-001058Y-002154*
X-001051Y-002144*
X-001045Y-002134*
X-001039Y-002123*
X-001035Y-002111*
X-001031Y-0021*
X-001028Y-002088*
X-001026Y-002076*
X-001025Y-002064*
X-001023Y-002051*
X-001373D02*
D01*
X-001373Y-002064*
X-001372Y-002076*
X-00137Y-002088*
X-001367Y-0021*
X-001363Y-002111*
X-001358Y-002123*
X-001353Y-002134*
X-001347Y-002144*
X-00134Y-002154*
X-001333Y-002164*
X-001324Y-002173*
X-001316Y-002182*
X-001306Y-002189*
X-000104Y-002419D02*
D01*
X-000096Y-002419*
X-000088Y-002418*
X-000081Y-002417*
X-000073Y-002415*
X-000065Y-002413*
X-000058Y-00241*
X-000051Y-002406*
X-000044Y-002402*
X-000037Y-002398*
X-000031Y-002393*
X-000025Y-002387*
X-000023Y-002385*
X-000104Y-002419D02*
D01*
X-000096Y-002419*
X-000088Y-002418*
X-000081Y-002417*
X-000073Y-002415*
X-000065Y-002413*
X-000058Y-00241*
X-000051Y-002406*
X-000044Y-002402*
X-000037Y-002398*
X-000031Y-002393*
X-000025Y-002387*
X-000023Y-002385*
X-001791Y-002189D02*
D01*
X-001782Y-002182*
X-001773Y-002173*
X-001765Y-002164*
X-001758Y-002154*
X-001751Y-002144*
X-001745Y-002134*
X-001739Y-002123*
X-001735Y-002111*
X-001731Y-0021*
X-001728Y-002088*
X-001726Y-002076*
X-001725Y-002064*
X-001724Y-002051*
X-001704D02*
D01*
X-001704Y-002062*
X-001703Y-002073*
X-001701Y-002084*
X-001698Y-002094*
X-001695Y-002105*
X-001691Y-002115*
X-001686Y-002124*
X-001681Y-002134*
X-001675Y-002143*
X-001668Y-002151*
X-001661Y-002159*
X-001653Y-002167*
X-001645Y-002174*
X-001636Y-00218*
X-001627Y-002186*
X-001619Y-002189*
X-001724Y-001951D02*
D01*
X-001725Y-001939*
X-001726Y-001927*
X-001728Y-001915*
X-001731Y-001903*
X-001735Y-001892*
X-00174Y-00188*
X-001745Y-001869*
X-001751Y-001859*
X-001758Y-001849*
X-001765Y-001839*
X-001774Y-00183*
X-001782Y-001821*
X-001792Y-001814*
X-001799Y-001807*
X-001999D02*
D01*
X-002009Y-001815*
X-002019Y-001823*
X-002027Y-001831*
X-002035Y-001841*
X-002043Y-00185*
X-002049Y-001861*
X-002055Y-001871*
X-002061Y-001882*
X-002065Y-001894*
X-002069Y-001905*
X-002071Y-001917*
X-002073Y-001929*
X-002075Y-001942*
X-002074Y-001951*
X-001393D02*
D01*
X-001394Y-001941*
X-001395Y-00193*
X-001397Y-001919*
X-0014Y-001909*
X-001403Y-001898*
X-001407Y-001888*
X-001412Y-001879*
X-001417Y-001869*
X-001423Y-00186*
X-00143Y-001852*
X-001437Y-001844*
X-001445Y-001836*
X-001453Y-001829*
X-001462Y-001823*
X-001471Y-001817*
X-001481Y-001812*
X-00149Y-001808*
X-001501Y-001804*
X-001511Y-001801*
X-001522Y-001799*
X-001532Y-001797*
X-001543Y-001797*
X-001554*
X-001565Y-001797*
X-001575Y-001799*
X-001586Y-001801*
X-001596Y-001804*
X-001607Y-001808*
X-001616Y-001812*
X-001626Y-001817*
X-001635Y-001823*
X-001644Y-001829*
X-001652Y-001836*
X-00166Y-001844*
X-001667Y-001852*
X-001674Y-00186*
X-00168Y-001869*
X-001685Y-001879*
X-00169Y-001888*
X-001694Y-001898*
X-001697Y-001909*
X-0017Y-001919*
X-001702Y-00193*
X-001703Y-001941*
X-001704Y-001951*
X-001004Y-002051D02*
D01*
X-001004Y-002062*
X-001003Y-002073*
X-001001Y-002084*
X-000998Y-002094*
X-000995Y-002105*
X-000991Y-002115*
X-000986Y-002124*
X-000981Y-002134*
X-000975Y-002143*
X-000968Y-002151*
X-000961Y-002159*
X-000953Y-002167*
X-000945Y-002174*
X-000936Y-00218*
X-000927Y-002186*
X-000919Y-002189*
X-001298Y-001807D02*
D01*
X-001308Y-001815*
X-001318Y-001823*
X-001326Y-001831*
X-001334Y-001841*
X-001342Y-00185*
X-001348Y-001861*
X-001354Y-001871*
X-00136Y-001882*
X-001364Y-001894*
X-001368Y-001905*
X-00137Y-001917*
X-001372Y-001929*
X-001374Y-001942*
X-001373Y-001951*
X-001023D02*
D01*
X-001024Y-001939*
X-001025Y-001927*
X-001027Y-001915*
X-00103Y-001903*
X-001034Y-001892*
X-001039Y-00188*
X-001044Y-001869*
X-00105Y-001859*
X-001057Y-001849*
X-001064Y-001839*
X-001073Y-00183*
X-001081Y-001821*
X-001091Y-001814*
X-001098Y-001807*
X-000694Y-001951D02*
D01*
X-000695Y-001941*
X-000696Y-00193*
X-000698Y-001919*
X-000701Y-001909*
X-000704Y-001898*
X-000708Y-001888*
X-000713Y-001879*
X-000718Y-001869*
X-000724Y-00186*
X-000731Y-001852*
X-000738Y-001844*
X-000746Y-001836*
X-000754Y-001829*
X-000763Y-001823*
X-000772Y-001817*
X-000782Y-001812*
X-000791Y-001808*
X-000802Y-001804*
X-000812Y-001801*
X-000823Y-001799*
X-000833Y-001797*
X-000844Y-001797*
X-000855*
X-000866Y-001797*
X-000876Y-001799*
X-000887Y-001801*
X-000897Y-001804*
X-000908Y-001808*
X-000917Y-001812*
X-000927Y-001817*
X-000936Y-001823*
X-000945Y-001829*
X-000953Y-001836*
X-000961Y-001844*
X-000968Y-001852*
X-000975Y-00186*
X-000981Y-001869*
X-000986Y-001879*
X-000991Y-001888*
X-000995Y-001898*
X-000998Y-001909*
X-001001Y-001919*
X-001003Y-00193*
X-001004Y-001941*
X-001004Y-001951*
X-000778Y-002189D02*
D01*
X-000769Y-002184*
X-00076Y-002178*
X-000751Y-002172*
X-000743Y-002165*
X-000736Y-002157*
X-000729Y-002149*
X-000722Y-00214*
X-000716Y-002131*
X-000711Y-002121*
X-000706Y-002112*
X-000703Y-002101*
X-000699Y-002091*
X-000697Y-002081*
X-000695Y-00207*
X-000694Y-002059*
X-000694Y-002051*
X000084Y-001649D02*
D01*
X000078Y-001658*
X000072Y-001666*
X000067Y-001676*
X000062Y-001685*
X000059Y-001695*
X000055Y-001705*
X000053Y-001715*
X000051Y-001725*
X00005Y-001735*
X00005Y-001746*
X00005Y-001756*
X000051Y-001767*
X000053Y-001777*
X000056Y-001787*
X000059Y-001797*
X000063Y-001807*
X000067Y-001816*
X000073Y-001825*
X000079Y-001834*
X000084Y-001841*
X000314D02*
D01*
X000321Y-001833*
X000327Y-001825*
X000332Y-001815*
X000337Y-001806*
X00034Y-001796*
X000344Y-001786*
X000346Y-001776*
X000348Y-001766*
X000349Y-001756*
X000349Y-001745*
X-003927Y-001355D02*
D01*
X-003928Y-001346*
X-003929Y-001336*
X-003931Y-001326*
X-003933Y-001317*
X-003936Y-001308*
X-00394Y-001299*
X-003944Y-00129*
X-003949Y-001281*
X-003954Y-001273*
X-00396Y-001266*
X-003966Y-00126*
X-004083Y-001216D02*
D01*
X-004076Y-001208*
X-004069Y-0012*
X-004068Y-001199*
X-004052Y-001216D02*
D01*
X-004062Y-001216*
X-004072Y-001216*
X-004082Y-001216*
X-004083Y-001216*
X-004068Y-001199D02*
D01*
X-004061Y-001208*
X-004054Y-001216*
X-004052Y-001216*
X-00378Y-001101D02*
D01*
X-003781Y-00109*
X-003782Y-001079*
X-003784Y-001068*
X-003787Y-001057*
X-00379Y-001047*
X-003794Y-001036*
X-003799Y-001026*
X-003805Y-001017*
X-003811Y-001007*
X-003818Y-000999*
X-003825Y-00099*
X-003833Y-000983*
X-003842Y-000975*
X-003851Y-000969*
X-00386Y-000963*
X-00387Y-000958*
X-003881Y-000953*
X-003891Y-000949*
X-003902Y-000946*
X-003913Y-000944*
X-003924Y-000942*
X-003935Y-000942*
X-003946*
X-003957Y-000942*
X-003968Y-000944*
X-003979Y-000946*
X-00399Y-000949*
X-004Y-000953*
X-004011Y-000958*
X-00402Y-000963*
X-00403Y-000969*
X-004039Y-000975*
X-004048Y-000983*
X-004056Y-00099*
X-004063Y-000999*
X-004068Y-001004*
X-003369Y-001128D02*
D01*
X-003374Y-001134*
X-003379Y-001139*
X-003383Y-001145*
X-003386Y-001151*
X-00339Y-001157*
X-003392Y-001164*
X-003395Y-00117*
X-003396Y-001177*
X-003398Y-001184*
X-003399Y-001191*
X-003399Y-001198*
X-003398Y-001198*
X-003369Y-001128D02*
D01*
X-003374Y-001134*
X-003379Y-001139*
X-003383Y-001145*
X-003386Y-001151*
X-00339Y-001157*
X-003392Y-001164*
X-003395Y-00117*
X-003396Y-001177*
X-003398Y-001184*
X-003399Y-001191*
X-003399Y-001198*
X-003398Y-001198*
X-003966Y-00126D02*
D01*
X-003955Y-001262*
X-003944Y-001262*
X-003933Y-001262*
X-003922Y-001261*
X-003911Y-00126*
X-0039Y-001257*
X-003889Y-001254*
X-003879Y-00125*
X-003869Y-001245*
X-003859Y-00124*
X-00385Y-001234*
X-003841Y-001227*
X-003832Y-001219*
X-003824Y-001212*
X-003817Y-001203*
X-00381Y-001194*
X-003804Y-001185*
X-003799Y-001175*
X-003794Y-001165*
X-00379Y-001155*
X-003787Y-001144*
X-003784Y-001133*
X-003783Y-001122*
X-003782Y-001111*
X-00378Y-001101*
X-002669Y-001128D02*
D01*
X-002674Y-001134*
X-002679Y-001139*
X-002683Y-001145*
X-002686Y-001151*
X-002689Y-001157*
X-002692Y-001164*
X-002695Y-00117*
X-002696Y-001177*
X-002698Y-001184*
X-002699Y-001191*
X-002699Y-001198*
X-002699Y-001198*
X-002669Y-001128D02*
D01*
X-002674Y-001134*
X-002679Y-001139*
X-002683Y-001145*
X-002686Y-001151*
X-002689Y-001157*
X-002692Y-001164*
X-002695Y-00117*
X-002696Y-001177*
X-002698Y-001184*
X-002699Y-001191*
X-002699Y-001198*
X-002699Y-001198*
X-001969Y-001128D02*
D01*
X-001974Y-001134*
X-001979Y-001139*
X-001983Y-001145*
X-001986Y-001151*
X-00199Y-001157*
X-001992Y-001164*
X-001995Y-00117*
X-001996Y-001177*
X-001998Y-001184*
X-001999Y-001191*
X-001999Y-001198*
X-001999Y-001198*
X-001969Y-001128D02*
D01*
X-001974Y-001134*
X-001979Y-001139*
X-001983Y-001145*
X-001986Y-001151*
X-00199Y-001157*
X-001992Y-001164*
X-001995Y-00117*
X-001996Y-001177*
X-001998Y-001184*
X-001999Y-001191*
X-001999Y-001198*
X-001999Y-001198*
X-002901Y-000943D02*
D01*
X-002897Y-000938*
X-002892Y-000933*
X-002888Y-000927*
X-002885Y-000921*
X-002881Y-000915*
X-002879Y-000908*
X-002876Y-000902*
X-002875Y-000895*
X-002873Y-000888*
X-002872Y-000881*
X-002872Y-000874*
X-002872Y-000872*
X-002901Y-000943D02*
D01*
X-002897Y-000938*
X-002892Y-000933*
X-002888Y-000927*
X-002885Y-000921*
X-002881Y-000915*
X-002879Y-000908*
X-002876Y-000902*
X-002875Y-000895*
X-002873Y-000888*
X-002872Y-000881*
X-002872Y-000874*
X-002872Y-000872*
X-002101Y-000843D02*
D01*
X-002097Y-000838*
X-002092Y-000833*
X-002088Y-000827*
X-002085Y-000821*
X-002081Y-000815*
X-002079Y-000808*
X-002076Y-000802*
X-002075Y-000795*
X-002073Y-000788*
X-002072Y-000781*
X-002072Y-000774*
X-002072Y-000772*
X-002101Y-000843D02*
D01*
X-002097Y-000838*
X-002092Y-000833*
X-002088Y-000827*
X-002085Y-000821*
X-002081Y-000815*
X-002079Y-000808*
X-002076Y-000802*
X-002075Y-000795*
X-002073Y-000788*
X-002072Y-000781*
X-002072Y-000774*
X-002072Y-000772*
X-002872Y-000492D02*
D01*
X-002865Y-000485*
X-002858Y-000477*
X-002851Y-000469*
X-002846Y-000461*
X-00284Y-000452*
X-002836Y-000442*
X-002832Y-000432*
X-002828Y-000422*
X-002826Y-000412*
X-002824Y-000402*
X-002823Y-000392*
X-002822Y-000381*
X-002822Y-000381*
D01*
X-002823Y-00037*
X-002824Y-00036*
X-002826Y-000349*
X-002828Y-000339*
X-002832Y-000329*
X-002835Y-000319*
X-00284Y-00031*
X-002845Y-000301*
X-002851Y-000292*
X-002858Y-000284*
X-002865Y-000276*
X-002872Y-000269*
X-00288Y-000262*
X-002889Y-000256*
X-002897Y-000251*
X-002907Y-000246*
X-002916Y-000241*
X-002926Y-000238*
X-002936Y-000235*
X-002946Y-000233*
X-002957Y-000231*
X-002967Y-000231*
X-002978*
X-002988Y-000231*
X-002999Y-000233*
X-003009Y-000235*
X-003019Y-000238*
X-003029Y-000241*
X-003038Y-000246*
X-003048Y-000251*
X-003056Y-000256*
X-003065Y-000262*
X-003073Y-000269*
X-003076Y-000272*
X-002072Y-000492D02*
D01*
X-002065Y-000485*
X-002058Y-000477*
X-002051Y-000469*
X-002046Y-000461*
X-00204Y-000452*
X-002036Y-000442*
X-002032Y-000432*
X-002028Y-000422*
X-002026Y-000412*
X-002024Y-000402*
X-002023Y-000392*
X-002022Y-000381*
X-002022Y-000381*
D01*
X-002023Y-00037*
X-002024Y-00036*
X-002026Y-000349*
X-002028Y-000339*
X-002032Y-000329*
X-002035Y-000319*
X-00204Y-00031*
X-002045Y-000301*
X-002051Y-000292*
X-002058Y-000284*
X-002065Y-000276*
X-002072Y-000269*
X-00208Y-000262*
X-002089Y-000256*
X-002097Y-000251*
X-002107Y-000246*
X-002116Y-000241*
X-002126Y-000238*
X-002136Y-000235*
X-002146Y-000233*
X-002157Y-000231*
X-002167Y-000231*
X-002178*
X-002188Y-000231*
X-002199Y-000233*
X-002209Y-000235*
X-002219Y-000238*
X-002229Y-000241*
X-002238Y-000246*
X-002247Y-000251*
X-002256Y-000256*
X-002265Y-000262*
X-002273Y-000269*
X-002276Y-000272*
X-00127Y-001128D02*
D01*
X-001274Y-001134*
X-001279Y-001139*
X-001283Y-001145*
X-001286Y-001151*
X-001289Y-001157*
X-001292Y-001164*
X-001295Y-00117*
X-001296Y-001177*
X-001298Y-001184*
X-001299Y-001191*
X-001299Y-001198*
X-001298Y-001198*
X-00127Y-001128D02*
D01*
X-001274Y-001134*
X-001279Y-001139*
X-001283Y-001145*
X-001286Y-001151*
X-001289Y-001157*
X-001292Y-001164*
X-001295Y-00117*
X-001296Y-001177*
X-001298Y-001184*
X-001299Y-001191*
X-001299Y-001198*
X-001298Y-001198*
X-001301Y-000743D02*
D01*
X-001297Y-000738*
X-001292Y-000733*
X-001288Y-000727*
X-001285Y-000721*
X-001281Y-000715*
X-001279Y-000708*
X-001276Y-000702*
X-001275Y-000695*
X-001273Y-000688*
X-001272Y-000681*
X-001272Y-000674*
X-001272Y-000672*
X-001301Y-000743D02*
D01*
X-001297Y-000738*
X-001292Y-000733*
X-001288Y-000727*
X-001285Y-000721*
X-001281Y-000715*
X-001279Y-000708*
X-001276Y-000702*
X-001275Y-000695*
X-001273Y-000688*
X-001272Y-000681*
X-001272Y-000674*
X-001272Y-000672*
X000349Y-001745D02*
D01*
X000349Y-001735*
X000348Y-001725*
X000346Y-001714*
X000344Y-001704*
X00034Y-001694*
X000337Y-001684*
X000332Y-001675*
X000327Y-001666*
X000321Y-001657*
X000314Y-001649*
X000084Y-001395D02*
D01*
X000078Y-001404*
X000072Y-001412*
X000067Y-001422*
X000062Y-001431*
X000059Y-001441*
X000055Y-001451*
X000053Y-001461*
X000051Y-001471*
X00005Y-001481*
X00005Y-001492*
X00005Y-001502*
X000051Y-001513*
X000053Y-001523*
X000056Y-001533*
X000059Y-001543*
X000063Y-001553*
X000067Y-001562*
X000073Y-001571*
X000079Y-00158*
X000084Y-001587*
X000349Y-001491D02*
D01*
X000349Y-001481*
X000348Y-001471*
X000346Y-00146*
X000344Y-00145*
X00034Y-00144*
X000337Y-00143*
X000332Y-001421*
X000327Y-001412*
X000321Y-001403*
X000314Y-001395*
Y-001587D02*
D01*
X000321Y-001579*
X000327Y-001571*
X000332Y-001561*
X000337Y-001552*
X00034Y-001542*
X000344Y-001532*
X000346Y-001522*
X000348Y-001512*
X000349Y-001502*
X000349Y-001491*
X000314Y-001333D02*
D01*
X000321Y-001325*
X000327Y-001317*
X000332Y-001307*
X000337Y-001298*
X00034Y-001288*
X000344Y-001278*
X000346Y-001268*
X000348Y-001258*
X000349Y-001248*
X000349Y-001237*
D01*
X000349Y-001227*
X000348Y-001217*
X000346Y-001206*
X000344Y-001196*
X00034Y-001186*
X000337Y-001176*
X000332Y-001167*
X000327Y-001158*
X000321Y-001149*
X000314Y-001141*
X000307Y-001133*
X0003Y-001126*
X000292Y-001119*
X000283Y-001113*
X000274Y-001108*
X000265Y-001103*
X000256Y-001098*
X000246Y-001095*
X000236Y-001092*
X000226Y-00109*
X000215Y-001088*
X000205Y-001088*
X000194*
X000184Y-001088*
X000173Y-00109*
X000163Y-001092*
X000153Y-001095*
X000143Y-001098*
X000134Y-001103*
X000124Y-001108*
X000116Y-001113*
X000107Y-001119*
X000099Y-001126*
X000092Y-001133*
X000085Y-001141*
X000078Y-001149*
X000072Y-001158*
X000067Y-001167*
X000062Y-001176*
X000059Y-001186*
X000055Y-001196*
X000053Y-001206*
X000051Y-001217*
X00005Y-001227*
X000049Y-001237*
X00005Y-001248*
X000051Y-001258*
X000053Y-001269*
X000055Y-001279*
X000059Y-001289*
X000062Y-001299*
X000067Y-001308*
X000072Y-001317*
X000078Y-001326*
X000084Y-001333*
X-001272Y-000492D02*
D01*
X-001265Y-000485*
X-001258Y-000477*
X-001251Y-000469*
X-001246Y-000461*
X-00124Y-000452*
X-001236Y-000442*
X-001232Y-000432*
X-001228Y-000422*
X-001226Y-000412*
X-001224Y-000402*
X-001223Y-000392*
X-001222Y-000381*
X-001222Y-000381*
D01*
X-001223Y-00037*
X-001224Y-00036*
X-001226Y-000349*
X-001228Y-000339*
X-001232Y-000329*
X-001235Y-000319*
X-00124Y-00031*
X-001245Y-000301*
X-001251Y-000292*
X-001258Y-000284*
X-001265Y-000276*
X-001272Y-000269*
X-00128Y-000262*
X-001289Y-000256*
X-001297Y-000251*
X-001307Y-000246*
X-001316Y-000241*
X-001326Y-000238*
X-001336Y-000235*
X-001346Y-000233*
X-001357Y-000231*
X-001367Y-000231*
X-001378*
X-001388Y-000231*
X-001399Y-000233*
X-001409Y-000235*
X-001419Y-000238*
X-001429Y-000241*
X-001438Y-000246*
X-001447Y-000251*
X-001456Y-000256*
X-001465Y-000262*
X-001473Y-000269*
X-001476Y-000272*
X-000501Y-000643D02*
D01*
X-000497Y-000638*
X-000492Y-000633*
X-000488Y-000627*
X-000485Y-000621*
X-000481Y-000615*
X-000479Y-000608*
X-000476Y-000602*
X-000475Y-000595*
X-000473Y-000588*
X-000472Y-000581*
X-000472Y-000574*
X-000472Y-000572*
X-000501Y-000643D02*
D01*
X-000497Y-000638*
X-000492Y-000633*
X-000488Y-000627*
X-000485Y-000621*
X-000481Y-000615*
X-000479Y-000608*
X-000476Y-000602*
X-000475Y-000595*
X-000473Y-000588*
X-000472Y-000581*
X-000472Y-000574*
X-000472Y-000572*
X-000422Y-000381D02*
D01*
X-000423Y-00037*
X-000424Y-00036*
X-000426Y-000349*
X-000428Y-000339*
X-000432Y-000329*
X-000435Y-000319*
X-00044Y-00031*
X-000445Y-000301*
X-000451Y-000292*
X-000458Y-000284*
X-000465Y-000276*
X-000472Y-000269*
X-00048Y-000262*
X-000489Y-000256*
X-000497Y-000251*
X-000507Y-000246*
X-000516Y-000241*
X-000526Y-000238*
X-000536Y-000235*
X-000546Y-000233*
X-000557Y-000231*
X-000567Y-000231*
X-000578*
X-000588Y-000231*
X-000599Y-000233*
X-000609Y-000235*
X-000619Y-000238*
X-000629Y-000241*
X-000638Y-000246*
X-000647Y-000251*
X-000656Y-000256*
X-000665Y-000262*
X-000673Y-000269*
X-000676Y-000272*
X-000472Y-000492D02*
D01*
X-000465Y-000485*
X-000458Y-000477*
X-000451Y-000469*
X-000446Y-000461*
X-00044Y-000452*
X-000436Y-000442*
X-000432Y-000432*
X-000428Y-000422*
X-000426Y-000412*
X-000424Y-000402*
X-000423Y-000392*
X-000422Y-000381*
X-000422Y-000381*
X-000358Y-000108D02*
D01*
X-00035Y-000133*
X-00034Y-000157*
X-000328Y-000181*
X-000315Y-000203*
X-0003Y-000225*
X-000283Y-000245*
X-000265Y-000264*
X-000246Y-000282*
X-000226Y-000299*
X-000204Y-000314*
X-000182Y-000327*
X-000159Y-000339*
X-000135Y-00035*
X-00011Y-000358*
X-000085Y-000365*
X-000059Y-00037*
X-000033Y-000373*
X-000007Y-000375*
X000018Y-000374*
X000045Y-000372*
X00007Y-000368*
X000096Y-000362*
X000121Y-000354*
X000145Y-000345*
X000169Y-000334*
X000192Y-000321*
X000214Y-000307*
X000235Y-000292*
X000255Y-000274*
X000273Y-000256*
X000291Y-000236*
X000306Y-000215*
X000321Y-000193*
X000333Y-00017*
X000345Y-000147*
X000354Y-000122*
X000362Y-000097*
X000368Y-000072*
X000372Y-000046*
X000374Y-00002*
X000374Y0*
X-004419Y-000096D02*
X-004295Y000026D01*
X-004777Y-000661D02*
X-004419Y-000304D01*
Y-000096*
X-004912Y-000589D02*
X-004549Y-000226D01*
X-01026Y-001104D02*
X-010074Y-000919D01*
X-009122Y-001104D02*
X-00868Y-000661D01*
X-004777*
X-010074Y-000919D02*
X-009049D01*
X-008719Y-000589*
X-004912*
X-008012Y-002449D02*
Y-002199D01*
X-007982Y-002449D02*
Y-002209D01*
X-008042Y-002449D02*
Y-002184D01*
X-008217Y-002202D02*
X-008004D01*
X-007892Y-002449D02*
Y-002213D01*
X-007862Y-002449D02*
Y-002206D01*
X-007952Y-002449D02*
Y-002214D01*
X-007922Y-002449D02*
Y-002215D01*
X-008217Y-002142D02*
X-008093D01*
X-008217Y-002172D02*
X-00806D01*
X-008217Y-002022D02*
X-008149D01*
X-008217Y-002112D02*
X-008116D01*
X-008102Y-002449D02*
Y-002131D01*
X-008072Y-002449D02*
Y-002162D01*
X-008217Y-002052D02*
X-008143D01*
X-008132Y-002449D02*
Y-002082D01*
X-008217D02*
X-008132D01*
X-007832Y-002449D02*
Y-002195D01*
X-007802Y-002449D02*
Y-002178D01*
X-007793Y-002172D02*
X-007294D01*
X-007849Y-002202D02*
X-007239D01*
X-007772Y-002449D02*
Y-002154D01*
X-007742Y-002449D02*
Y-002119D01*
X-007737Y-002112D02*
X-00735D01*
X-00776Y-002142D02*
X-007327D01*
X-007712Y-002449D02*
Y-002058D01*
X-007721Y-002082D02*
X-007366D01*
X-007682Y-002449D02*
Y-001845D01*
X-007652Y-002449D02*
Y-001862D01*
X-007622Y-002449D02*
Y-001869D01*
X-00771Y-002052D02*
X-007377D01*
X-007704Y-002022D02*
X-007383D01*
X-008217Y-001872D02*
X-008118D01*
X-008217Y-001842D02*
X-008095D01*
X-008217Y-001812D02*
X-008063D01*
X-008217Y-001782D02*
X-00801D01*
X-008217Y-001992D02*
X-008151D01*
X-008217Y-001962D02*
X-00815D01*
X-008217Y-001932D02*
X-008144D01*
X-008217Y-001902D02*
X-008133D01*
X-008042Y-001797D02*
Y-001697D01*
X-008012Y-001782D02*
Y-001716D01*
X-008217Y-001692D02*
X-008048D01*
X-008217Y-001722D02*
X-007996D01*
X-007982Y-001772D02*
Y-001725D01*
X-007832Y-001786D02*
Y-001692D01*
X-007952Y-001767D02*
Y-001726D01*
X-007922Y-001766D02*
Y-00172D01*
X-007892Y-001768D02*
Y-001705D01*
X-007709Y-001932D02*
X-007378D01*
X-00772Y-001902D02*
X-007367D01*
X-007758Y-001842D02*
X-007686D01*
X-007735Y-001872D02*
X-007352D01*
X-007702Y-001992D02*
X-007385D01*
X-007703Y-001962D02*
X-007384D01*
X-007843Y-001782D02*
X-007747D01*
X-007815Y-001713D02*
X-007693Y-001835D01*
X-007927Y-001722D02*
X-007807D01*
X-008217Y-001752D02*
X-007777D01*
X-007742Y-001862D02*
Y-001786D01*
X-007712Y-001923D02*
Y-001816D01*
X-007802Y-001803D02*
Y-001726D01*
X-00779Y-001812D02*
X-007717D01*
X-007772Y-001827D02*
Y-001756D01*
X-007262Y-002449D02*
Y-002191D01*
X-007232Y-002449D02*
Y-002204D01*
X-007322Y-002449D02*
Y-002147D01*
X-007292Y-002449D02*
Y-002173D01*
X-007142Y-002449D02*
Y-002215D01*
X-007112Y-002449D02*
Y-00221D01*
X-007202Y-002449D02*
Y-002212D01*
X-007172Y-002449D02*
Y-002215D01*
X-007532Y-002449D02*
Y-001869D01*
X-007502Y-002449D02*
Y-001869D01*
X-007592Y-002449D02*
Y-001869D01*
X-007562Y-002449D02*
Y-001869D01*
X-007382Y-002449D02*
Y-00203D01*
X-007352Y-002449D02*
Y-002109D01*
X-007472Y-002449D02*
Y-001869D01*
X-007412Y-002449D02*
Y-001869D01*
X-007442Y-002449D02*
Y-001869D01*
X-006872Y-002449D02*
Y-002199D01*
X-006842Y-002449D02*
Y-002209D01*
X-007082Y-002449D02*
Y-002201D01*
X-007052Y-002449D02*
Y-002188D01*
X-006752Y-002449D02*
Y-002213D01*
X-006722Y-002449D02*
Y-002206D01*
X-006812Y-002449D02*
Y-002214D01*
X-006782Y-002449D02*
Y-002215D01*
X-006962Y-002449D02*
Y-002131D01*
X-006932Y-002449D02*
Y-002162D01*
X-007022Y-002449D02*
Y-002168D01*
X-006992Y-002449D02*
Y-00214D01*
X-006332Y-002449D02*
Y-001869D01*
X-006302Y-002449D02*
Y-001869D01*
X-006902Y-002449D02*
Y-002184D01*
X-006362Y-002449D02*
Y-001869D01*
X-006392Y-002449D02*
Y-001869D01*
X-007083Y-002202D02*
X-006864D01*
X-006692Y-002449D02*
Y-002195D01*
X-006994Y-002142D02*
X-006953D01*
X-007027Y-002172D02*
X-00692D01*
X-006602Y-002449D02*
Y-002119D01*
X-006572Y-002449D02*
Y-002058D01*
X-006662Y-002449D02*
Y-002178D01*
X-006632Y-002449D02*
Y-002154D01*
X-007382Y-001951D02*
Y-001869D01*
X-007611D02*
X-00735D01*
X-006572Y-001923D02*
Y-001869D01*
X-00657Y-002052D02*
X-006237D01*
X-006581Y-002082D02*
X-006226D01*
X-006564Y-002022D02*
X-006243D01*
X-006569Y-001932D02*
X-006238D01*
X-006242Y-002449D02*
Y-00203D01*
X-006212Y-002449D02*
Y-002109D01*
X-006562Y-001992D02*
X-006245D01*
X-006563Y-001962D02*
X-006244D01*
X-006542Y-002449D02*
Y-001869D01*
X-006512Y-002449D02*
Y-001869D01*
X-00658Y-001902D02*
X-006227D01*
X-006595Y-001872D02*
X-006212D01*
X-006482Y-002449D02*
Y-001869D01*
X-006452Y-002449D02*
Y-001869D01*
X-006422Y-002449D02*
Y-001869D01*
X-006242Y-001951D02*
Y-001869D01*
X-006272Y-002449D02*
Y-001869D01*
X-008217Y-001632D02*
X-008083D01*
X-008217Y-001662D02*
X-008071D01*
X-008217Y-001572D02*
X-008098D01*
X-008217Y-001602D02*
X-008087D01*
X-008072Y-001819D02*
Y-00166D01*
X-007862Y-001775D02*
Y-001677D01*
X-008217Y-002449D02*
Y-001167D01*
X-008192Y-002449D02*
Y-000752D01*
X-008217Y-001542D02*
X-008101D01*
X-008217Y-001512D02*
X-008101D01*
X-008162Y-002449D02*
Y-000752D01*
X-008132Y-001899D02*
Y-000752D01*
X-008102Y-00185D02*
Y-000752D01*
X-008101Y-001548D02*
Y-001514D01*
X-007875Y-001692D02*
X-007832D01*
X-00762Y-001572D02*
X-006959D01*
X-00762Y-001584D02*
X-007564Y-001639D01*
X-006937*
X-007601Y-001602D02*
X-006947D01*
X-007571Y-001632D02*
X-006939D01*
X-00762Y-001584D02*
Y-001515D01*
X-007592Y-001611D02*
Y-001515D01*
X-00762D02*
X-007574D01*
X-00762Y-001542D02*
X-006961D01*
X-007532Y-001639D02*
Y-001485D01*
X-007502Y-001639D02*
Y-001494D01*
X-007574Y-001515D02*
Y-001459D01*
Y-001512D02*
X-006961D01*
X-007562Y-001639D02*
Y-001469D01*
X-008217Y-001482D02*
X-008095D01*
X-008217Y-001452D02*
X-008077D01*
X-008217Y-001302D02*
X-008101D01*
X-008217Y-001392D02*
X-008076D01*
X-008072Y-001446D02*
Y-001397D01*
X-008042Y-001427D02*
Y-001415D01*
X-008217Y-001332D02*
X-008101D01*
X-008217Y-001362D02*
X-008095D01*
X-008217Y-001272D02*
X-008098D01*
X-008217Y-001242D02*
X-008085D01*
X-008217Y-001212D02*
X-008057D01*
X-008217Y-001182D02*
X-008043D01*
X-008101Y-001329D02*
Y-001293D01*
X-008072Y-001226D02*
Y-000752D01*
X-008042Y-00118D02*
Y-000752D01*
X-008217Y-001422D02*
X-008019D01*
X-008009Y-001421D02*
X-007913D01*
X-008009D02*
X-007913D01*
X-007574Y-001482D02*
X-007541D01*
X-007903Y-001422D02*
X-007894D01*
X-007491Y-001212D02*
X-007469D01*
X-007412Y-001639D02*
Y-001478D01*
X-007382Y-001639D02*
Y-001455D01*
X-007472Y-001639D02*
Y-001495D01*
X-007442Y-001639D02*
Y-00149D01*
X-007292Y-001639D02*
Y-001249D01*
X-007262Y-001639D02*
Y-001233D01*
X-007352Y-001639D02*
Y-001412D01*
X-007322Y-001639D02*
Y-001258D01*
X-007172Y-001639D02*
Y-000752D01*
X-007142Y-001639D02*
Y-000752D01*
X-007232Y-001639D02*
Y-001206D01*
X-007202Y-001639D02*
Y-001154D01*
X-007022Y-001639D02*
Y-000752D01*
X-006992Y-001639D02*
Y-000752D01*
X-007112Y-001639D02*
Y-000752D01*
X-007052Y-001639D02*
Y-000752D01*
X-007082Y-001639D02*
Y-000752D01*
X-006961Y-001554D02*
Y-001518D01*
X-006479Y-001515D02*
X-006434D01*
X-006362Y-001639D02*
Y-001494D01*
X-006332Y-001639D02*
Y-001495D01*
X-006479Y-001639D02*
Y-001515D01*
X-006452Y-001639D02*
Y-001515D01*
X-006962Y-001639D02*
Y-000752D01*
X-006422Y-001639D02*
Y-001469D01*
X-006434Y-001515D02*
Y-001459D01*
X-006242Y-001639D02*
Y-001456D01*
X-006212Y-001639D02*
Y-001412D01*
X-006392Y-001639D02*
Y-001485D01*
X-006302Y-001639D02*
Y-00149D01*
X-006272Y-001639D02*
Y-001478D01*
X-007419Y-001482D02*
X-006953D01*
X-007378Y-001452D02*
X-006932D01*
X-007351Y-001302D02*
X-006961D01*
X-007345Y-001392D02*
X-00694D01*
X-00734Y-001362D02*
X-006957D01*
X-006932Y-001451D02*
Y-001401D01*
X-007342Y-001332D02*
X-006961D01*
Y-001334D02*
Y-001298D01*
X-007352Y-001299D02*
Y-001261D01*
X-007368Y-001272D02*
X-006957D01*
X-007276Y-001242D02*
X-006941D01*
X-006932Y-001231D02*
Y-000752D01*
X-007237Y-001212D02*
X-006919D01*
X-007215Y-001182D02*
X-006906D01*
X-006902Y-001432D02*
Y-00142D01*
X-007357Y-001422D02*
X-006897D01*
X-006868Y-001426D02*
X-006774D01*
X-006434Y-001482D02*
X-006401D01*
X-006868Y-001426D02*
X-006774D01*
X-006902Y-001175D02*
Y-000752D01*
X-006212Y-001299D02*
Y-001261D01*
X-006351Y-001212D02*
X-006329D01*
X-006032Y-002449D02*
Y-002215D01*
X-006002Y-002449D02*
Y-002215D01*
X-006092Y-002449D02*
Y-002204D01*
X-006062Y-002449D02*
Y-002212D01*
X-005732Y-002449D02*
Y-0022D01*
X-005702Y-002449D02*
Y-002209D01*
X-005972Y-002449D02*
Y-00221D01*
X-005942Y-002449D02*
Y-002201D01*
X-006122Y-002449D02*
Y-002191D01*
X-005912Y-002449D02*
Y-002188D01*
X-006182Y-002449D02*
Y-002147D01*
X-006152Y-002449D02*
Y-002173D01*
X-005792Y-002449D02*
Y-002164D01*
X-005762Y-002449D02*
Y-002185D01*
X-005882Y-002449D02*
Y-002168D01*
X-005852Y-002449D02*
Y-00214D01*
X-005822Y-002449D02*
Y-002134D01*
X-008217Y-002442D02*
X000449D01*
X-008217Y-002449D02*
X000449D01*
X-008217Y-002382D02*
X-004102D01*
X-008217Y-002413D02*
X-004057D01*
X-005642Y-002449D02*
Y-002215D01*
X-005612Y-002449D02*
Y-002212D01*
X-005672Y-002449D02*
Y-002214D01*
X-008217Y-002352D02*
X-004132D01*
X-005522Y-002449D02*
Y-002176D01*
X-005492Y-002449D02*
Y-002152D01*
X-005582Y-002449D02*
Y-002205D01*
X-005552Y-002449D02*
Y-002194D01*
X-005372Y-002449D02*
Y-001869D01*
X-005342Y-002449D02*
Y-001869D01*
X-005462Y-002449D02*
Y-002116D01*
X-005432Y-002449D02*
Y-00205D01*
X-005402Y-002449D02*
Y-001869D01*
X-006653Y-002172D02*
X-006154D01*
X-006709Y-002202D02*
X-006098D01*
X-006597Y-002112D02*
X-00621D01*
X-00662Y-002142D02*
X-006187D01*
X-005943Y-002202D02*
X-005727D01*
X-005854Y-002142D02*
X-005816D01*
X-005887Y-002172D02*
X-005782D01*
X-006594Y-001869D02*
X-00621D01*
X-006479Y-001632D02*
X-005806D01*
X-006479Y-001639D02*
X-005804D01*
X-005432Y-001931D02*
Y-001869D01*
X-008217Y-002292D02*
X-004192D01*
X-008217Y-002322D02*
X-004162D01*
X-008217Y-002232D02*
X-004245D01*
X-008217Y-002262D02*
X-004222D01*
X-005516Y-002172D02*
X-005016D01*
X-005571Y-002202D02*
X-004961D01*
X-005459Y-002112D02*
X-005073D01*
X-005482Y-002142D02*
X-00505D01*
X-005442Y-001902D02*
X-00509D01*
X-005443Y-002082D02*
X-005089D01*
X-005458Y-001872D02*
X-005074D01*
X-005461Y-001869D02*
X-005072D01*
X-005426Y-002022D02*
X-005106D01*
X-005432Y-002052D02*
X-0051D01*
X-005424Y-001992D02*
X-005108D01*
X-005426Y-001962D02*
X-005106D01*
X-005432Y-001932D02*
X-0051D01*
X-004982Y-002449D02*
Y-002193D01*
X-004953Y-002449D02*
Y-002205D01*
X-005042Y-002449D02*
Y-00215D01*
X-005012Y-002449D02*
Y-002175D01*
X-004862Y-002449D02*
Y-002215D01*
X-004832Y-002449D02*
Y-00221D01*
X-004922Y-002449D02*
Y-002212D01*
X-004892Y-002449D02*
Y-002215D01*
X-005252Y-002449D02*
Y-001869D01*
X-005222Y-002449D02*
Y-001869D01*
X-005312Y-002449D02*
Y-001869D01*
X-005282Y-002449D02*
Y-001869D01*
X-005102Y-002449D02*
Y-002042D01*
X-005072Y-002449D02*
Y-002113D01*
X-005192Y-002449D02*
Y-001869D01*
X-005132Y-002449D02*
Y-001869D01*
X-005162Y-002449D02*
Y-001869D01*
X-004532Y-002449D02*
Y-002215D01*
X-004502Y-002449D02*
Y-002215D01*
X-004592Y-002449D02*
Y-002202D01*
X-004562Y-002449D02*
Y-00221D01*
X-004232Y-002449D02*
Y-002251D01*
X-004202Y-002449D02*
Y-002281D01*
X-004472Y-002449D02*
Y-002212D01*
X-004442Y-002449D02*
Y-002204D01*
X-004742Y-002449D02*
Y-002166D01*
X-004712Y-002449D02*
Y-002137D01*
X-004802Y-002449D02*
Y-0022D01*
X-004772Y-002449D02*
Y-002186D01*
X-004322Y-002449D02*
Y-002108D01*
X-004292Y-002449D02*
Y-002027D01*
X-004682Y-002449D02*
Y-00214D01*
X-004622Y-002449D02*
Y-002188D01*
X-004652Y-002449D02*
Y-002168D01*
X-004805Y-002202D02*
X-004592D01*
X-004716Y-002142D02*
X-004681D01*
X-00475Y-002172D02*
X-004647D01*
X-004412Y-002449D02*
Y-002191D01*
X-004382Y-002449D02*
Y-002173D01*
X-004352Y-002449D02*
Y-002147D01*
X-004381Y-002172D02*
X-004259D01*
X-005102Y-001939D02*
Y-001869D01*
X-005341Y-001639D02*
X-004678D01*
X-004262Y-002449D02*
Y-001976D01*
X-004291Y-001962D02*
X-004277D01*
X-004347Y-002142D02*
X-004259D01*
X-004436Y-002202D02*
X-004256D01*
X-004308Y-002082D02*
X-004259D01*
X-004324Y-002112D02*
X-004259D01*
X-004172Y-002449D02*
Y-002311D01*
X-004225Y-002258D02*
X-004098Y-002385D01*
X-004297Y-002052D02*
X-004259D01*
X-004291Y-002022D02*
X-004259D01*
Y-002176D02*
Y-001979D01*
X-004294Y-001944D02*
X-004259Y-001979D01*
X-004289Y-001992D02*
X-004259D01*
X-004207Y-001706D02*
X-004064Y-00185D01*
X-004161Y-001752D02*
X-003398D01*
X-004207Y-001662D02*
X-003398D01*
X-004191Y-001722D02*
X-003398D01*
X-004207Y-001692D02*
X-003398D01*
X-006479Y-001542D02*
X-005826D01*
X-006479Y-001572D02*
X-005824D01*
X-006434Y-001512D02*
X-005826D01*
X-006182Y-001639D02*
Y-001258D01*
X-006152Y-001639D02*
Y-001249D01*
X-006122Y-001639D02*
Y-001233D01*
X-005826Y-001554D02*
Y-001518D01*
X-006032Y-001639D02*
Y-000752D01*
X-006002Y-001639D02*
Y-000752D01*
X-006092Y-001639D02*
Y-001206D01*
X-006062Y-001639D02*
Y-001154D01*
X-005882Y-001639D02*
Y-000752D01*
X-005852Y-001639D02*
Y-000752D01*
X-005972Y-001639D02*
Y-000752D01*
X-005912Y-001639D02*
Y-000752D01*
X-005942Y-001639D02*
Y-000752D01*
X-005822Y-001639D02*
Y-00158D01*
X-006479Y-001602D02*
X-005812D01*
X-005341D02*
X-004687D01*
X-005341Y-001632D02*
X-00468D01*
X-005341Y-001542D02*
X-004701D01*
X-005341Y-001572D02*
X-004699D01*
X-005341Y-001639D02*
Y-001515D01*
X-005312Y-001639D02*
Y-001515D01*
X-005341D02*
X-005296D01*
X-005282Y-001639D02*
Y-001471D01*
X-005252Y-001639D02*
Y-001486D01*
X-005296Y-001515D02*
Y-001459D01*
Y-001512D02*
X-004701D01*
X-005222Y-001639D02*
Y-001494D01*
X-006279Y-001482D02*
X-005818D01*
X-006238Y-001452D02*
X-005797D01*
X-006205Y-001392D02*
X-005805D01*
X-005822Y-001492D02*
Y-00136D01*
X-005792Y-001447D02*
Y-001405D01*
X-006202Y-001332D02*
X-005826D01*
X-0062Y-001362D02*
X-005822D01*
X-006211Y-001302D02*
X-005826D01*
X-006228Y-001272D02*
X-005822D01*
X-005826Y-001334D02*
Y-001298D01*
X-005822Y-001272D02*
Y-000752D01*
X-006136Y-001242D02*
X-005806D01*
X-005792Y-001227D02*
Y-000752D01*
X-005762Y-001431D02*
Y-001421D01*
X-005734Y-001426D02*
X-005639D01*
X-006217Y-001422D02*
X-005762D01*
X-005734Y-001426D02*
X-005639D01*
X-005296Y-001482D02*
X-005263D01*
X-006097Y-001212D02*
X-005784D01*
X-006075Y-001182D02*
X-005771D01*
X-005762Y-001169D02*
Y-000752D01*
X-005213Y-001212D02*
X-005192D01*
X-005132Y-001639D02*
Y-001476D01*
X-005102Y-001639D02*
Y-001453D01*
X-005192Y-001639D02*
Y-001495D01*
X-005162Y-001639D02*
Y-00149D01*
X-005012Y-001639D02*
Y-001248D01*
X-004982Y-001639D02*
Y-001231D01*
X-005072Y-001639D02*
Y-001406D01*
X-005042Y-001639D02*
Y-001258D01*
X-004892Y-001639D02*
Y-000752D01*
X-004862Y-001639D02*
Y-000752D01*
X-004953Y-001639D02*
Y-001203D01*
X-004922Y-001639D02*
Y-001147D01*
X-004742Y-001639D02*
Y-000745D01*
X-004712Y-001639D02*
Y-000724D01*
X-004832Y-001639D02*
Y-000752D01*
X-004802Y-001639D02*
Y-000752D01*
X-004772Y-001639D02*
Y-000751D01*
X-004682Y-001639D02*
Y-001624D01*
X-004437Y-001639D02*
Y-001626D01*
X-004207Y-001632D02*
X-003398D01*
X-004207Y-001572D02*
X-003398D01*
X-004207Y-001602D02*
X-003398D01*
X-004701Y-001554D02*
Y-001518D01*
X-004207Y-001542D02*
X-003398D01*
X-004207Y-001515D02*
X-004161D01*
X-004172Y-001741D02*
Y-001515D01*
X-004142Y-001771D02*
Y-001474D01*
X-004207Y-001706D02*
Y-001515D01*
X-004202Y-001711D02*
Y-001515D01*
X-004161D02*
Y-001459D01*
X-005142Y-001482D02*
X-004693D01*
X-005073Y-001302D02*
X-004701D01*
X-004682Y-001462D02*
Y-00139D01*
X-005067Y-001392D02*
X-00468D01*
X-005065Y-001332D02*
X-004701D01*
X-005063Y-001362D02*
X-004697D01*
X-005072Y-001305D02*
Y-001261D01*
X-004701Y-001334D02*
Y-001298D01*
X-00509Y-001272D02*
X-004697D01*
X-004998Y-001242D02*
X-004681D01*
X-004682D02*
Y-000694D01*
X-005101Y-001452D02*
X-004672D01*
X-004609Y-001426D02*
X-004514D01*
X-00508Y-001422D02*
X-004637D01*
X-004609Y-001426D02*
X-004514D01*
X-004161Y-001482D02*
X-004128D01*
X-004161Y-001512D02*
X-003398D01*
X-004482Y-001432D02*
Y-00142D01*
X-004959Y-001212D02*
X-004658D01*
X-004937Y-001182D02*
X-004645D01*
X-004652Y-001437D02*
Y-001415D01*
Y-001195D02*
Y-000664D01*
X-010082Y-000749D02*
Y-000729D01*
X-010052Y-000749D02*
Y-000724D01*
X-010142Y-000749D02*
Y-000716D01*
X-010112Y-000749D02*
Y-000726D01*
X-009812Y-000749D02*
Y-000727D01*
X-009782Y-000749D02*
Y-000719D01*
X-009872Y-000749D02*
Y-000723D01*
X-009842Y-000749D02*
Y-000729D01*
X-009992Y-000749D02*
Y-000689D01*
X-009962Y-000749D02*
Y-000638D01*
X-010149Y-000749D02*
Y-000713D01*
X-010022Y-000749D02*
Y-000712D01*
X-009722Y-000749D02*
Y-000668D01*
X-009692Y-000749D02*
Y-000661D01*
X-009932Y-000749D02*
Y-000682D01*
X-009902Y-000749D02*
Y-000709D01*
X-009752Y-000749D02*
Y-000701D01*
X-009452Y-000749D02*
Y-000729D01*
X-009499Y-000749D02*
X-009299D01*
X-010149D02*
X-009499D01*
X-010149Y-000732D02*
X-009282D01*
X-009302Y-000749D02*
Y-000729D01*
X-009299Y-000749D02*
X-009279Y-000729D01*
X-009422Y-000749D02*
Y-000729D01*
X-009392Y-000749D02*
Y-000729D01*
X-009602Y-000749D02*
Y-000727D01*
X-009572Y-000749D02*
Y-000729D01*
X-009662Y-000749D02*
Y-000698D01*
X-009632Y-000749D02*
Y-000717D01*
X-009362Y-000749D02*
Y-000729D01*
X-009332Y-000749D02*
Y-000729D01*
X-009542Y-000749D02*
Y-000724D01*
X-009512Y-000749D02*
Y-000711D01*
X-009482Y-000749D02*
Y-000687D01*
X-010006Y-000702D02*
X-009912D01*
X-009978Y-000672D02*
X-00994D01*
X-009724D02*
X-009686D01*
X-009963Y-000642D02*
X-009955D01*
X-009709D02*
X-009701D01*
X-009965Y-000552D02*
X-009953D01*
X-009982Y-000522D02*
X-009936D01*
X-010013Y-000492D02*
X-009906D01*
X-009711Y-000552D02*
X-009699D01*
X-009752Y-000702D02*
X-009658D01*
X-009498D02*
X-009454D01*
Y-000729D02*
Y-000638D01*
Y-000729D02*
X-009279D01*
X-00947Y-000672D02*
X-009454D01*
X-009728Y-000522D02*
X-009682D01*
X-009759Y-000492D02*
X-009652D01*
X-009474Y-000522D02*
X-009454D01*
X-009194Y-000492D02*
X-008463D01*
X-009505D02*
X-009454D01*
X-008312Y-001071D02*
Y-000752D01*
X-008291Y-001092D02*
X-007956D01*
X-008321Y-001062D02*
X-007926D01*
X-008351Y-001032D02*
X-007896D01*
X-008252Y-001131D02*
Y-000752D01*
X-008231Y-001152D02*
X-008016D01*
X-008282Y-001101D02*
Y-000752D01*
X-008261Y-001122D02*
X-007986D01*
X-008342Y-001041D02*
Y-000752D01*
X-008631D02*
X-008217Y-001167D01*
X-008402Y-000981D02*
Y-000752D01*
X-008372Y-001011D02*
Y-000752D01*
X-008222Y-001161D02*
Y-000752D01*
X-008012Y-001148D02*
Y-000752D01*
X-007982Y-001118D02*
Y-000752D01*
X-007922Y-001058D02*
Y-000752D01*
X-007952Y-001088D02*
Y-000752D01*
X-008032Y-001168D02*
X-007895Y-001031D01*
X-008382Y-001002D02*
X-007829D01*
X-008411Y-000972D02*
X-0077D01*
X-007824Y-001001D02*
X-007732D01*
X-007514Y-000972D02*
X-007446D01*
X-007892Y-001028D02*
Y-000752D01*
X-007862Y-001009D02*
Y-000752D01*
X-007832Y-001002D02*
Y-000752D01*
X-007802Y-001001D02*
Y-000752D01*
X-007772Y-001001D02*
Y-000752D01*
X-007742Y-001001D02*
Y-000752D01*
X-007712Y-000981D02*
Y-000752D01*
X-007472Y-000995D02*
Y-000752D01*
X-007502Y-000981D02*
Y-000752D01*
X-008612Y-000771D02*
Y-000752D01*
X-008582Y-000801D02*
Y-000752D01*
X-009194Y-000612D02*
X-009162D01*
X-008999Y-000599D02*
X-008856D01*
X-008492Y-000891D02*
Y-000752D01*
X-008462Y-000921D02*
Y-000752D01*
X-008552Y-000831D02*
Y-000752D01*
X-008522Y-000861D02*
Y-000752D01*
X-009194Y-000644D02*
X-009149Y-000599D01*
X-009194Y-000582D02*
X-008839D01*
X-009194Y-000552D02*
X-008809D01*
X-009194Y-000522D02*
X-008779D01*
X-009149Y-000599D02*
X-008999D01*
X-008856D02*
X-008783Y-000525D01*
X-008719Y-000499D02*
X-008463D01*
X-008432Y-000951D02*
Y-000752D01*
X-007682Y-00096D02*
Y-000752D01*
X-007652Y-000948D02*
Y-000752D01*
X-008441Y-000942D02*
X-007613D01*
X-007442Y-000969D02*
Y-000752D01*
X-007412Y-000953D02*
Y-000752D01*
X-007622Y-000942D02*
Y-000752D01*
X-007382Y-000944D02*
Y-000752D01*
X-007592Y-000942D02*
Y-000752D01*
X-008162Y-000499D02*
Y-000486D01*
X-008163Y-000499D02*
X-008151D01*
X-008163D02*
Y-000485D01*
X-007562Y-000948D02*
Y-000752D01*
X-007532Y-00096D02*
Y-000752D01*
X-007952Y-000499D02*
Y-000481D01*
X-007967Y-000499D02*
X-007663D01*
X-00796Y-000492D02*
X-007663D01*
X-010149Y-000485D02*
Y-000349D01*
X-010142Y-000482D02*
Y-000342D01*
X-010112Y-000472D02*
Y-000312D01*
X-009722Y-00053D02*
Y-0003D01*
X-009692Y-000537D02*
Y-000321D01*
X-009992Y-000509D02*
Y-000192D01*
X-009962Y-00056D02*
Y-000162D01*
X-010052Y-000474D02*
Y-000252D01*
X-010022Y-000486D02*
Y-000222D01*
X-009932Y-000516D02*
Y-000149D01*
X-009752Y-000497D02*
Y-000276D01*
X-009902Y-000489D02*
Y-000149D01*
X-009782Y-000479D02*
Y-000245D01*
X-009872Y-000475D02*
Y-000149D01*
X-009632Y-000481D02*
Y-00035D01*
X-009602Y-000471D02*
Y-00036D01*
X-009542Y-000474D02*
Y-000372D01*
X-009454Y-00056D02*
Y-000469D01*
X-009194Y-000644D02*
Y-000469D01*
X-009512Y-000487D02*
Y-000374D01*
X-009482Y-000511D02*
Y-000374D01*
X-009182Y-000632D02*
Y-000199D01*
X-009152Y-000602D02*
Y-000149D01*
X-009662Y-0005D02*
Y-000337D01*
X-009122Y-000599D02*
Y-000149D01*
X-009002Y-000599D02*
Y-000149D01*
X-008972Y-000599D02*
Y-000149D01*
X-009092Y-000599D02*
Y-000149D01*
X-009032Y-000599D02*
Y-000149D01*
X-009062Y-000599D02*
Y-000149D01*
X-010149Y-000349D02*
X-010099Y-000299D01*
X-010149Y-000372D02*
X-009541D01*
X-010112Y-000312D02*
X-009706D01*
X-010142Y-000342D02*
X-009652D01*
X-010082Y-000469D02*
Y-000282D01*
X-009572Y-000469D02*
Y-000367D01*
X-009452Y-000469D02*
Y-000371D01*
X-009422Y-000469D02*
Y-000366D01*
X-010099Y-000299D02*
X-009949Y-000149D01*
X-010082Y-000282D02*
X-009745D01*
X-010022Y-000222D02*
X-009801D01*
X-010052Y-000252D02*
X-009776D01*
X-009842Y-000469D02*
Y-000151D01*
X-009812Y-000471D02*
Y-000206D01*
X-009949Y-000149D02*
X-009843D01*
X-009992Y-000192D02*
X-009821D01*
X-009962Y-000162D02*
X-009837D01*
X-010149Y-000432D02*
X-008463D01*
X-010149Y-000462D02*
X-008463D01*
X-009457Y-000372D02*
X-008463D01*
X-010149Y-000402D02*
X-008463D01*
X-009392Y-000469D02*
Y-000358D01*
X-009454Y-000469D02*
X-009194D01*
X-009362D02*
Y-000348D01*
X-009347Y-000342D02*
X-008463D01*
X-009332Y-000469D02*
Y-000335D01*
X-009302Y-000469D02*
Y-000318D01*
X-009292Y-000312D02*
X-008463D01*
X-009272Y-000469D02*
Y-000298D01*
X-009242Y-000469D02*
Y-000272D01*
X-009212Y-000469D02*
Y-00024D01*
X-009253Y-000282D02*
X-008463D01*
X-009155Y-000149D02*
X-008749D01*
X-008612Y-000499D02*
Y-000149D01*
X-008582Y-000499D02*
Y-000149D01*
X-008672Y-000499D02*
Y-000149D01*
X-008642Y-000499D02*
Y-000149D01*
X-008492Y-000499D02*
Y-000149D01*
X-008463Y-000499D02*
Y-000257D01*
X-008552Y-000499D02*
Y-000149D01*
X-008522Y-000499D02*
Y-000149D01*
X-008942Y-000599D02*
Y-000149D01*
X-008912Y-000599D02*
Y-000149D01*
X-008882Y-000599D02*
Y-000149D01*
X-008852Y-000595D02*
Y-000149D01*
X-008822Y-000565D02*
Y-000149D01*
X-008792Y-000535D02*
Y-000149D01*
X-008763Y-00051D02*
Y-000149D01*
X-008702Y-000499D02*
Y-000149D01*
X-008732Y-0005D02*
Y-000149D01*
X-007941Y-000462D02*
X-007663D01*
Y-000499D02*
Y-000257D01*
X-007929Y-000402D02*
X-007663D01*
X-007931Y-000432D02*
X-007663D01*
X-007862Y-000499D02*
Y-000149D01*
X-007832Y-000499D02*
Y-000149D01*
X-007922Y-000499D02*
Y-000149D01*
X-007892Y-000499D02*
Y-000149D01*
X-007712Y-000499D02*
Y-000149D01*
X-007682Y-000499D02*
Y-000149D01*
X-007802Y-000499D02*
Y-000149D01*
X-007742Y-000499D02*
Y-000149D01*
X-007772Y-000499D02*
Y-000149D01*
X-008372Y-000257D02*
Y-000149D01*
X-008342Y-000257D02*
Y-000149D01*
X-008462Y-000257D02*
Y-000149D01*
X-008463Y-000257D02*
X-008163D01*
Y-000329D02*
Y-000257D01*
Y-000312D02*
X-008147D01*
X-008312Y-000257D02*
Y-000149D01*
X-008163Y-000282D02*
X-008093D01*
X-008282Y-000257D02*
Y-000149D01*
X-008252Y-000257D02*
Y-000149D01*
X-008432Y-000257D02*
Y-000149D01*
X-008402Y-000257D02*
Y-000149D01*
X-008162Y-000328D02*
Y-000149D01*
X-008132Y-000299D02*
Y-000149D01*
X-008222Y-000257D02*
Y-000149D01*
X-008102Y-000284D02*
Y-000149D01*
X-008192Y-000257D02*
Y-000149D01*
X-008012Y-000286D02*
Y-000149D01*
X-008025Y-000282D02*
X-007663D01*
X-008072Y-000278D02*
Y-000149D01*
X-008042Y-000278D02*
Y-000149D01*
X-007947Y-000342D02*
X-007663D01*
X-007934Y-000372D02*
X-007663D01*
X-007982Y-000302D02*
Y-000149D01*
X-007971Y-000312D02*
X-007663D01*
X-007952Y-000333D02*
Y-000149D01*
X-007592Y-000257D02*
Y-000149D01*
X-007562Y-000257D02*
Y-000149D01*
X-007652Y-000257D02*
Y-000149D01*
X-007622Y-000257D02*
Y-000149D01*
X-007442Y-000257D02*
Y-000149D01*
X-007412Y-000257D02*
Y-000149D01*
X-007532Y-000257D02*
Y-000149D01*
X-007472Y-000257D02*
Y-000149D01*
X-007502Y-000257D02*
Y-000149D01*
X-007201Y-001152D02*
X-006881D01*
X-007209Y-001032D02*
X-006761D01*
X-007228Y-001002D02*
X-006694D01*
X-007194Y-001122D02*
X-006851D01*
X-006892Y-001163D02*
X-00676Y-001031D01*
X-007193Y-001092D02*
X-006821D01*
X-007198Y-001062D02*
X-006791D01*
X-006872Y-001143D02*
Y-000752D01*
X-006842Y-001113D02*
Y-000752D01*
X-007232Y-000997D02*
Y-000752D01*
X-007202Y-001049D02*
Y-000752D01*
X-006812Y-001083D02*
Y-000752D01*
X-006782Y-001053D02*
Y-000752D01*
X-006752Y-001024D02*
Y-000752D01*
X-006692Y-001002D02*
Y-000752D01*
X-006722Y-001007D02*
Y-000752D01*
X-006061Y-001152D02*
X-005746D01*
X-006069Y-001032D02*
X-005626D01*
X-006088Y-001002D02*
X-005559D01*
X-006054Y-001122D02*
X-005716D01*
X-005757Y-001163D02*
X-005625Y-001031D01*
X-006053Y-001092D02*
X-005686D01*
X-006058Y-001062D02*
X-005656D01*
X-006689Y-001001D02*
X-006592D01*
X-006662D02*
Y-000752D01*
X-006632Y-001001D02*
Y-000752D01*
X-006062Y-001049D02*
Y-000752D01*
X-006602Y-001001D02*
Y-000752D01*
X-006092Y-000997D02*
Y-000752D01*
X-007601Y-000942D02*
X-007359D01*
X-007322Y-000945D02*
Y-000752D01*
X-007352Y-000942D02*
Y-000752D01*
X-007347Y-000942D02*
X-006473D01*
X-006572Y-000981D02*
Y-000752D01*
X-00726Y-000972D02*
X-00656D01*
X-007262Y-00097D02*
Y-000752D01*
X-006374Y-000972D02*
X-006306D01*
X-007292Y-000954D02*
Y-000752D01*
X-006542Y-00096D02*
Y-000752D01*
X-006512Y-000948D02*
Y-000752D01*
X-006482Y-000942D02*
Y-000752D01*
X-006362Y-000981D02*
Y-000752D01*
X-006332Y-000995D02*
Y-000752D01*
X-006452Y-000942D02*
Y-000752D01*
X-006392Y-00096D02*
Y-000752D01*
X-006422Y-000948D02*
Y-000752D01*
X-008501Y-000882D02*
X-003123D01*
X-008531Y-000852D02*
X-003093D01*
X-008591Y-000792D02*
X-003072D01*
X-008561Y-000822D02*
X-003072D01*
X-00612Y-000972D02*
X-005423D01*
X-006207Y-000942D02*
X-005336D01*
X-006461D02*
X-006219D01*
X-008471Y-000912D02*
X-003153D01*
X-006302Y-000969D02*
Y-000752D01*
X-006272Y-000953D02*
Y-000752D01*
X-008631D02*
X-004777D01*
X-008621Y-000762D02*
X-003072D01*
X-006152Y-000954D02*
Y-000752D01*
X-006122Y-00097D02*
Y-000752D01*
X-006242Y-000944D02*
Y-000752D01*
X-006182Y-000945D02*
Y-000752D01*
X-006212Y-000942D02*
Y-000752D01*
X-005732Y-001138D02*
Y-000752D01*
X-005612Y-00102D02*
Y-000752D01*
X-004924Y-001152D02*
X-004618D01*
X-005554Y-001001D02*
X-005454D01*
X-005702Y-001108D02*
Y-000752D01*
X-005672Y-001078D02*
Y-000752D01*
X-005642Y-001048D02*
Y-000752D01*
X-005582Y-001006D02*
Y-000752D01*
X-004922Y-001056D02*
Y-000752D01*
X-004622Y-001156D02*
Y-000635D01*
X-005552Y-001001D02*
Y-000752D01*
X-005462Y-001001D02*
Y-000752D01*
X-005522Y-001001D02*
Y-000752D01*
X-004917Y-001122D02*
X-004588D01*
X-004921Y-001062D02*
X-004528D01*
X-004932Y-001032D02*
X-004498D01*
X-004951Y-001002D02*
X-004431D01*
X-004916Y-001092D02*
X-004558D01*
X-004632Y-001165D02*
X-004497Y-001031D01*
X-004427Y-001001D02*
X-004319D01*
X-004592Y-001126D02*
Y-000604D01*
X-004562Y-001096D02*
Y-000574D01*
X-004472Y-001012D02*
Y-000549D01*
X-004442Y-001003D02*
Y-000549D01*
X-004382Y-001001D02*
Y-000549D01*
X-004322Y-001001D02*
Y-000549D01*
X-004352Y-001001D02*
Y-000549D01*
X-005492Y-001001D02*
Y-000752D01*
X-005432Y-000979D02*
Y-000752D01*
X-005372Y-000947D02*
Y-000752D01*
X-005342Y-000942D02*
Y-000752D01*
X-005282Y-000949D02*
Y-000752D01*
X-005236Y-000972D02*
X-005169D01*
X-005312Y-000942D02*
Y-000752D01*
X-005323Y-000942D02*
X-005082D01*
X-005222Y-000983D02*
Y-000752D01*
X-005192Y-000992D02*
Y-000752D01*
X-005402Y-000959D02*
Y-000752D01*
X-005252Y-000962D02*
Y-000752D01*
X-005162Y-000967D02*
Y-000752D01*
X-005132Y-000952D02*
Y-000752D01*
X-005102Y-000944D02*
Y-000752D01*
X-005042Y-000945D02*
Y-000752D01*
X-005072Y-000942D02*
Y-000752D01*
X-004982Y-000972D02*
Y-000752D01*
Y-000972D02*
X-004288D01*
X-005012Y-000955D02*
Y-000752D01*
X-005069Y-000942D02*
X-004201D01*
X-004953Y-001D02*
Y-000752D01*
X-004188Y-000942D02*
X-003947D01*
X-00472Y-000732D02*
X-003072D01*
X-004659Y-000672D02*
X-003072D01*
X-004689Y-000702D02*
X-003072D01*
X-004599Y-000612D02*
X-003072D01*
X-004629Y-000642D02*
X-003072D01*
X-004292Y-000975D02*
Y-000549D01*
X-004262Y-000956D02*
Y-000549D01*
X-004537D02*
X-004249D01*
X-004569Y-000582D02*
X-003072D01*
X-004539Y-000552D02*
X-003072D01*
X-007363Y-000499D02*
Y-000485D01*
Y-000499D02*
X-007351D01*
X-007142D02*
Y-000464D01*
X-007112Y-000499D02*
Y-000149D01*
X-007082Y-000499D02*
Y-000149D01*
X-007363Y-000329D02*
Y-000257D01*
X-007142Y-00035D02*
Y-000149D01*
X-006962Y-000499D02*
Y-000149D01*
X-006932Y-000499D02*
Y-000149D01*
X-007052Y-000499D02*
Y-000149D01*
X-006992Y-000499D02*
Y-000149D01*
X-007022Y-000499D02*
Y-000149D01*
X-00716Y-000492D02*
X-006863D01*
X-007167Y-000499D02*
X-006863D01*
X-007131Y-000432D02*
X-006863D01*
X-007141Y-000462D02*
X-006863D01*
X-006563Y-000499D02*
X-006551D01*
X-006563D02*
Y-000485D01*
X-006902Y-000499D02*
Y-000149D01*
X-007129Y-000402D02*
X-006863D01*
X-007147Y-000342D02*
X-006863D01*
X-007134Y-000372D02*
X-006863D01*
X-006872Y-000499D02*
Y-000149D01*
X-006863Y-000499D02*
Y-000257D01*
X-006563Y-000329D02*
Y-000257D01*
X-007363Y-000312D02*
X-007347D01*
X-007363Y-000282D02*
X-007293D01*
X-007382Y-000257D02*
Y-000149D01*
X-007663Y-000257D02*
X-007363D01*
X-007352Y-000316D02*
Y-000149D01*
X-007171Y-000312D02*
X-006863D01*
X-007292Y-000281D02*
Y-000149D01*
X-007225Y-000282D02*
X-006863D01*
X-007322Y-000293D02*
Y-000149D01*
X-007202Y-00029D02*
Y-000149D01*
X-007262Y-000277D02*
Y-000149D01*
X-007232Y-00028D02*
Y-000149D01*
X-007172Y-00031D02*
Y-000149D01*
X-006842Y-000257D02*
Y-000149D01*
X-006812Y-000257D02*
Y-000149D01*
X-006752Y-000257D02*
Y-000149D01*
X-006782Y-000257D02*
Y-000149D01*
X-009197Y-000222D02*
X-005726D01*
X-009222Y-000252D02*
X-005696D01*
X-009161Y-000162D02*
X-005786D01*
X-009177Y-000192D02*
X-005756D01*
X-006563Y-000312D02*
X-006547D01*
X-006563Y-000282D02*
X-006493D01*
X-006602Y-000257D02*
Y-000149D01*
X-006863Y-000257D02*
X-006563D01*
X-006692D02*
Y-000149D01*
X-006662Y-000257D02*
Y-000149D01*
X-006722Y-000257D02*
Y-000149D01*
X-008749D02*
X-005799D01*
X-006542Y-000307D02*
Y-000149D01*
X-006512Y-000288D02*
Y-000149D01*
X-006632Y-000257D02*
Y-000149D01*
X-006482Y-000279D02*
Y-000149D01*
X-006572Y-000257D02*
Y-000149D01*
X-006367Y-000499D02*
X-006063D01*
X-006332D02*
Y-000435D01*
X-00636Y-000492D02*
X-006063D01*
X-005762Y-000499D02*
Y-000486D01*
X-005763Y-000499D02*
Y-000485D01*
Y-000499D02*
X-005751D01*
X-006242D02*
Y-000149D01*
X-006212Y-000499D02*
Y-000149D01*
X-006302Y-000499D02*
Y-000149D01*
X-006272Y-000499D02*
Y-000149D01*
X-006092Y-000499D02*
Y-000149D01*
X-006063Y-000499D02*
Y-000257D01*
X-006182Y-000499D02*
Y-000149D01*
X-006122Y-000499D02*
Y-000149D01*
X-006152Y-000499D02*
Y-000149D01*
X-004532Y-001066D02*
Y-000549D01*
X-004502Y-001036D02*
Y-000549D01*
X-004713Y-000725D02*
X-004537Y-000549D01*
X-004412Y-001001D02*
Y-000549D01*
X-004232Y-000946D02*
Y-000549D01*
X-004172Y-000943D02*
Y-000549D01*
X-004202Y-000942D02*
Y-000549D01*
X-004249D02*
X-003699D01*
X-005567Y-000499D02*
X-005449D01*
X-005552D02*
Y-000481D01*
X-00556Y-000492D02*
X-005456D01*
X-005492Y-000499D02*
Y-000456D01*
X-005462Y-000499D02*
Y-000486D01*
X-005522Y-000499D02*
Y-000426D01*
X-005541Y-000462D02*
X-005486D01*
X-00553Y-000418D02*
X-005449Y-000499D01*
X-006362Y-00032D02*
Y-000149D01*
X-006347Y-000342D02*
X-006063D01*
X-006425Y-000282D02*
X-006063D01*
X-006371Y-000312D02*
X-006063D01*
X-006331Y-000432D02*
X-006063D01*
X-006341Y-000462D02*
X-006063D01*
X-006334Y-000372D02*
X-006063D01*
X-006329Y-000402D02*
X-006063D01*
X-006392Y-000296D02*
Y-000149D01*
X-006332Y-000379D02*
Y-000149D01*
X-006452Y-000277D02*
Y-000149D01*
X-006422Y-000282D02*
Y-000149D01*
X-005972Y-000257D02*
Y-000149D01*
X-005942Y-000257D02*
Y-000149D01*
X-006062Y-000257D02*
Y-000149D01*
X-006002Y-000257D02*
Y-000149D01*
X-006032Y-000257D02*
Y-000149D01*
X-005763Y-000312D02*
X-005747D01*
X-006063Y-000257D02*
X-005763D01*
Y-000282D02*
X-005693D01*
X-005531Y-000432D02*
X-005516D01*
X-005763Y-000329D02*
Y-000257D01*
X-005699Y-000249D02*
X-00567Y-000278D01*
X-005852Y-000257D02*
Y-000149D01*
X-005822Y-000257D02*
Y-000149D01*
X-005912Y-000257D02*
Y-000149D01*
X-005882Y-000257D02*
Y-000149D01*
X-005762Y-000328D02*
Y-000186D01*
X-005732Y-000299D02*
Y-000216D01*
X-005792Y-000257D02*
Y-000156D01*
X-005702Y-000284D02*
Y-000246D01*
X-005799Y-000149D02*
X-005699Y-000249D01*
X-003812Y-002449D02*
Y-002419D01*
X-003782Y-002449D02*
Y-002419D01*
X-003872Y-002449D02*
Y-002419D01*
X-003842Y-002449D02*
Y-002419D01*
X-003692Y-002449D02*
Y-002419D01*
X-003662Y-002449D02*
Y-002419D01*
X-003752Y-002449D02*
Y-002419D01*
X-003722Y-002449D02*
Y-002419D01*
X-004082Y-002449D02*
Y-002399D01*
X-004052Y-002449D02*
Y-002413D01*
X-004142Y-002449D02*
Y-002341D01*
X-004112Y-002449D02*
Y-002371D01*
X-003932Y-002449D02*
Y-002419D01*
X-003902Y-002449D02*
Y-002419D01*
X-004022Y-002449D02*
Y-002419D01*
X-003962Y-002449D02*
Y-002419D01*
X-003992Y-002449D02*
Y-002419D01*
X-003302Y-002449D02*
Y-002419D01*
X-003272Y-002449D02*
Y-002419D01*
X-003362Y-002449D02*
Y-002419D01*
X-003332Y-002449D02*
Y-002419D01*
X-003152Y-002449D02*
Y-002419D01*
X-003122Y-002449D02*
Y-002419D01*
X-003242Y-002449D02*
Y-002419D01*
X-003212Y-002449D02*
Y-002419D01*
X-003572Y-002449D02*
Y-002419D01*
X-003542Y-002449D02*
Y-002419D01*
X-003632Y-002449D02*
Y-002419D01*
X-003602Y-002449D02*
Y-002419D01*
X-003422Y-002449D02*
Y-002419D01*
X-003392Y-002449D02*
Y-002419D01*
X-003512Y-002449D02*
Y-002419D01*
X-003452Y-002449D02*
Y-002419D01*
X-003482Y-002449D02*
Y-002419D01*
X-004016Y-002142D02*
X-003915D01*
X-003986Y-002172D02*
X-003881D01*
X-003872Y-002189D02*
Y-002178D01*
X-003602Y-002189D02*
Y-002162D01*
X-003902Y-002189D02*
Y-002155D01*
X-003969Y-002189D02*
X-003854D01*
X-004029Y-002129D02*
X-003969Y-002189D01*
X-004029Y-002112D02*
X-003938D01*
X-004029Y-002052D02*
X-003965D01*
X-004029Y-002082D02*
X-003954D01*
X-003962Y-002189D02*
Y-00206D01*
X-003932Y-002189D02*
Y-00212D01*
X-003572Y-002189D02*
Y-002131D01*
X-003542Y-002189D02*
Y-002081D01*
X-003531Y-002052D02*
X-003473D01*
X-003422Y-002189D02*
Y-002175D01*
X-003642Y-002189D02*
X-003406D01*
X-003615Y-002172D02*
X-003425D01*
X-003191Y-002189D02*
X-003019D01*
X-003182Y-002449D02*
Y-002419D01*
X-003152Y-002189D02*
Y-002147D01*
X-003149Y-002142D02*
X-003074D01*
X-003172Y-002172D02*
X-003046D01*
X-003452Y-002189D02*
Y-002135D01*
X-003581Y-002142D02*
X-003448D01*
X-003542Y-002082D02*
X-003471D01*
X-003558Y-002112D02*
X-003463D01*
X-003092Y-002189D02*
Y-00211D01*
X-003124Y-002052D02*
X-003103D01*
X-003134Y-002112D02*
X-003091D01*
X-003126Y-002082D02*
X-0031D01*
X-002762Y-002449D02*
Y-002419D01*
X-002732Y-002449D02*
Y-002419D01*
X-002822Y-002449D02*
Y-002419D01*
X-002792Y-002449D02*
Y-002419D01*
X-002642Y-002449D02*
Y-002419D01*
X-002612Y-002449D02*
Y-002419D01*
X-002702Y-002449D02*
Y-002419D01*
X-002672Y-002449D02*
Y-002419D01*
X-003032Y-002449D02*
Y-002419D01*
X-003002Y-002449D02*
Y-002419D01*
X-003092Y-002449D02*
Y-002419D01*
X-003062Y-002449D02*
Y-002419D01*
X-002882Y-002449D02*
Y-002419D01*
X-002852Y-002449D02*
Y-002419D01*
X-002972Y-002449D02*
Y-002419D01*
X-002912Y-002449D02*
Y-002419D01*
X-002942Y-002449D02*
Y-002419D01*
X-002192Y-002449D02*
Y-002419D01*
X-002162Y-002449D02*
Y-002419D01*
X-002252Y-002449D02*
Y-002419D01*
X-002222Y-002449D02*
Y-002419D01*
X-002042Y-002449D02*
Y-002419D01*
X-002012Y-002449D02*
Y-002419D01*
X-002132Y-002449D02*
Y-002419D01*
X-002072Y-002449D02*
Y-002419D01*
X-002522Y-002449D02*
Y-002419D01*
X-002492Y-002449D02*
Y-002419D01*
X-002582Y-002449D02*
Y-002419D01*
X-002552Y-002449D02*
Y-002419D01*
X-002312Y-002449D02*
Y-002419D01*
X-002282Y-002449D02*
Y-002419D01*
X-002462Y-002449D02*
Y-002419D01*
X-002402Y-002449D02*
Y-002419D01*
X-002432Y-002449D02*
Y-002419D01*
X-003062Y-002189D02*
Y-002157D01*
X-002878Y-002189D02*
X-002706D01*
X-002852D02*
Y-002172D01*
X-002851D02*
X-002725D01*
X-002732Y-002189D02*
Y-002164D01*
X-002462Y-002189D02*
Y-002161D01*
X-002822Y-002189D02*
Y-002141D01*
X-002823Y-002142D02*
X-002748D01*
X-002806Y-002112D02*
X-002763D01*
X-002762Y-002189D02*
Y-002113D01*
X-002794Y-002052D02*
X-002773D01*
X-002797Y-002082D02*
X-002771D01*
X-002432Y-002189D02*
Y-002105D01*
X-002402Y-002189D02*
Y-002072D01*
X-002424Y-002052D02*
X-002403D01*
X-002434Y-002112D02*
X-002391D01*
X-002426Y-002082D02*
X-0024D01*
X-002372Y-002449D02*
Y-002419D01*
X-002342Y-002449D02*
Y-002419D01*
X-002472Y-002172D02*
X-002346D01*
X-002491Y-002189D02*
X-002319D01*
X-002162D02*
Y-00218D01*
X-002102Y-002449D02*
Y-002419D01*
X-002342Y-002189D02*
Y-002175D01*
X-002151Y-002172D02*
X-002025D01*
X-002132Y-002189D02*
Y-002153D01*
X-002449Y-002142D02*
X-002374D01*
X-002372Y-002189D02*
Y-002145D01*
X-002106Y-002112D02*
X-002063D01*
X-002123Y-002142D02*
X-002048D01*
X-002102Y-002189D02*
Y-002102D01*
X-002072Y-002189D02*
Y-002074D01*
X-002094Y-002052D02*
X-002073D01*
X-002042Y-002189D02*
Y-002151D01*
X-002097Y-002082D02*
X-002071D01*
X-004029Y-001992D02*
X-003973D01*
X-004029Y-002022D02*
X-003971D01*
X-004029Y-001962D02*
X-003971D01*
X-004029Y-001932D02*
X-003965D01*
X-003525Y-002022D02*
X-003473D01*
Y-002051D02*
Y-001951D01*
X-004029Y-002129D02*
Y-001932D01*
X-004022Y-002136D02*
Y-001488D01*
X-003512Y-002189D02*
Y-000362D01*
X-003482Y-002189D02*
Y-000332D01*
X-003992Y-002166D02*
Y-001473D01*
X-003525Y-001962D02*
X-003473D01*
X-003523Y-001992D02*
X-003473D01*
X-003124Y-002022D02*
X-003104D01*
X-003124Y-001962D02*
X-003104D01*
X-003124Y-001992D02*
X-003104D01*
X-003531Y-001932D02*
X-003472D01*
X-003125D02*
X-003102D01*
X-003124Y-002051D02*
Y-001951D01*
X-003122Y-002189D02*
Y-001163D01*
X-003104Y-002051D02*
Y-001951D01*
X-004052Y-001862D02*
Y-001495D01*
X-004071Y-001842D02*
X-003917D01*
X-004082Y-001831D02*
Y-001495D01*
X-004101Y-001812D02*
X-003884D01*
X-004033Y-001902D02*
X-003955D01*
X-003541D02*
X-003466D01*
X-004046Y-001872D02*
X-003939D01*
X-003557D02*
X-003454D01*
X-003962Y-001921D02*
Y-001448D01*
X-003932Y-001861D02*
Y-001391D01*
X-004112Y-001801D02*
Y-001488D01*
X-003902Y-001826D02*
Y-001257D01*
X-003572Y-00185D02*
Y-000422D01*
X-003542Y-0019D02*
Y-000392D01*
X-003872Y-001803D02*
Y-001246D01*
X-003632Y-001798D02*
Y-000482D01*
X-003602Y-001819D02*
Y-000452D01*
X-003579Y-001842D02*
X-003435D01*
X-003612Y-001812D02*
X-003404D01*
X-003199Y-001807D02*
Y-00124D01*
X-003193Y-001812D02*
X-003016D01*
X-003131Y-001902D02*
X-003095D01*
X-003143Y-001872D02*
X-003082D01*
X-003182Y-00182D02*
Y-001223D01*
X-003162Y-001842D02*
X-003058D01*
X-003452Y-001867D02*
Y-000302D01*
X-003152Y-001855D02*
Y-001193D01*
X-003422Y-001827D02*
Y-000272D01*
X-003398Y-001807D02*
Y-001198D01*
X-003092Y-001892D02*
Y-001133D01*
X-003062Y-001845D02*
Y-001103D01*
X-003032Y-00182D02*
Y-001073D01*
X-003002Y-001806D02*
Y-001043D01*
X-002972Y-001798D02*
Y-001013D01*
X-002794Y-002022D02*
X-002774D01*
X-002794Y-001992D02*
X-002774D01*
X-002424D02*
X-002404D01*
X-002424Y-002022D02*
X-002404D01*
X-002794Y-002051D02*
Y-001951D01*
X-002792Y-002189D02*
Y-000149D01*
X-002794Y-001962D02*
X-002774D01*
X-002795Y-001932D02*
X-002772D01*
X-002774Y-002051D02*
Y-001951D01*
X-002424Y-002051D02*
Y-001951D01*
X-002404Y-002051D02*
Y-001951D01*
X-002424Y-001962D02*
X-002404D01*
X-002093Y-001992D02*
X-002074D01*
X-002093Y-002022D02*
X-002074D01*
X-002425Y-001932D02*
X-002402D01*
Y-00193D02*
Y-001143D01*
X-002093Y-002051D02*
Y-001951D01*
X-002074Y-002051D02*
Y-001951D01*
X-002093Y-001962D02*
X-002074D01*
X-002095Y-001932D02*
X-002072D01*
Y-001928D02*
Y-000774D01*
X-002802Y-001902D02*
X-002766D01*
X-002815Y-001872D02*
X-002754D01*
X-002839Y-001842D02*
X-002735D01*
X-002881Y-001812D02*
X-002704D01*
X-002492D02*
Y-001233D01*
X-002462Y-001841D02*
Y-001203D01*
X-002699Y-001807D02*
Y-001198D01*
X-002499Y-001807D02*
Y-00124D01*
X-002882Y-001811D02*
Y-000916D01*
X-002852Y-00183D02*
Y-00047D01*
X-002942Y-001796D02*
Y-000983D01*
X-002912Y-0018D02*
Y-000953D01*
X-002762Y-001889D02*
Y-000149D01*
X-002432Y-001897D02*
Y-001173D01*
X-002822Y-001861D02*
Y-000383D01*
X-002702Y-00181D02*
Y-000149D01*
X-002732Y-001838D02*
Y-000149D01*
X-002431Y-001902D02*
X-002395D01*
X-002443Y-001872D02*
X-002382D01*
X-002462Y-001842D02*
X-002358D01*
X-002493Y-001812D02*
X-002316D01*
X-002102Y-001902D02*
X-002066D01*
X-002115Y-001872D02*
X-002054D01*
X-002372Y-001857D02*
Y-001113D01*
X-002139Y-001842D02*
X-002035D01*
X-002342Y-001827D02*
Y-001083D01*
X-002312Y-00181D02*
Y-001053D01*
X-002192Y-001807D02*
Y-000933D01*
X-002282Y-0018D02*
Y-001023D01*
X-002222Y-001798D02*
Y-000963D01*
X-002102Y-0019D02*
Y-000843D01*
X-002042Y-001851D02*
Y-000455D01*
X-002162Y-001822D02*
Y-000903D01*
X-002132Y-001849D02*
Y-000873D01*
X-002012Y-001818D02*
Y-000149D01*
X-001652Y-002449D02*
Y-002419D01*
X-001622Y-002449D02*
Y-002419D01*
X-001712Y-002449D02*
Y-002419D01*
X-001682Y-002449D02*
Y-002419D01*
X-001532Y-002449D02*
Y-002419D01*
X-001502Y-002449D02*
Y-002419D01*
X-001592Y-002449D02*
Y-002419D01*
X-001562Y-002449D02*
Y-002419D01*
X-001922Y-002449D02*
Y-002419D01*
X-001892Y-002449D02*
Y-002419D01*
X-001982Y-002449D02*
Y-002419D01*
X-001952Y-002449D02*
Y-002419D01*
X-001772Y-002449D02*
Y-002419D01*
X-001742Y-002449D02*
Y-002419D01*
X-001862Y-002449D02*
Y-002419D01*
X-001802Y-002449D02*
Y-002419D01*
X-001832Y-002449D02*
Y-002419D01*
X-001143Y-002449D02*
Y-002419D01*
X-001112Y-002449D02*
Y-002419D01*
X-001202Y-002449D02*
Y-002419D01*
X-001172Y-002449D02*
Y-002419D01*
X-001022Y-002449D02*
Y-002419D01*
X-000962Y-002449D02*
Y-002419D01*
X-001082Y-002449D02*
Y-002419D01*
X-001052Y-002449D02*
Y-002419D01*
X-001412Y-002449D02*
Y-002419D01*
X-001382Y-002449D02*
Y-002419D01*
X-001472Y-002449D02*
Y-002419D01*
X-001442Y-002449D02*
Y-002419D01*
X-001262Y-002449D02*
Y-002419D01*
X-001232Y-002449D02*
Y-002419D01*
X-001352Y-002449D02*
Y-002419D01*
X-001292Y-002449D02*
Y-002419D01*
X-001322Y-002449D02*
Y-002419D01*
X-002178Y-002189D02*
X-002006D01*
X-001791D02*
X-001619D01*
X-001772D02*
Y-002172D01*
X-001646D01*
X-001652Y-002189D02*
Y-002166D01*
X-001442Y-002189D02*
Y-002164D01*
X-001682Y-002189D02*
Y-00213D01*
X-001749Y-002142D02*
X-001674D01*
X-001742Y-002189D02*
Y-002129D01*
X-001734Y-002112D02*
X-001691D01*
X-001724Y-002052D02*
X-001703D01*
X-001726Y-002082D02*
X-0017D01*
X-001412Y-002189D02*
Y-002124D01*
X-001394Y-002052D02*
X-001373D01*
X-001406Y-002112D02*
X-001363D01*
X-001397Y-002082D02*
X-001371D01*
X-001478Y-002189D02*
X-001306D01*
X-004016Y-002419D02*
X-000104D01*
X-001451Y-002172D02*
X-001325D01*
X-001322Y-002189D02*
Y-002175D01*
X-000992Y-002449D02*
Y-002419D01*
X-001091Y-002189D02*
X-000919D01*
X-001052D02*
Y-002147D01*
X-001072Y-002172D02*
X-000946D01*
X-001352Y-002189D02*
Y-002135D01*
X-001423Y-002142D02*
X-001348D01*
X-000992Y-002189D02*
Y-00211D01*
X-001049Y-002142D02*
X-000974D01*
X-001024Y-002052D02*
X-001003D01*
X-001034Y-002112D02*
X-000991D01*
X-001026Y-002082D02*
X-001D01*
X-000602Y-002449D02*
Y-002419D01*
X-000572Y-002449D02*
Y-002419D01*
X-000662Y-002449D02*
Y-002419D01*
X-000632Y-002449D02*
Y-002419D01*
X-000482Y-002449D02*
Y-002419D01*
X-000452Y-002449D02*
Y-002419D01*
X-000542Y-002449D02*
Y-002419D01*
X-000512Y-002449D02*
Y-002419D01*
X-000872Y-002449D02*
Y-002419D01*
X-000842Y-002449D02*
Y-002419D01*
X-000932Y-002449D02*
Y-002419D01*
X-000902Y-002449D02*
Y-002419D01*
X-000722Y-002449D02*
Y-002419D01*
X-000692Y-002449D02*
Y-002419D01*
X-000812Y-002449D02*
Y-002419D01*
X-000752Y-002449D02*
Y-002419D01*
X-000782Y-002449D02*
Y-002419D01*
X-000362Y-002449D02*
Y-002419D01*
X-000332Y-002449D02*
Y-002419D01*
X-000422Y-002449D02*
Y-002419D01*
X-000392Y-002449D02*
Y-002419D01*
X-000242Y-002449D02*
Y-002419D01*
X-000212Y-002449D02*
Y-002419D01*
X-000302Y-002449D02*
Y-002419D01*
X-000272Y-002449D02*
Y-002419D01*
X-000122Y-002449D02*
Y-002419D01*
X-000092Y-002449D02*
Y-002418D01*
X-000182Y-002449D02*
Y-002419D01*
X-000152Y-002449D02*
Y-002419D01*
X000146Y-002449D02*
Y-002215D01*
X000176Y-002449D02*
Y-002185D01*
X000056Y-002449D02*
Y-002305D01*
X000086Y-002449D02*
Y-002275D01*
X000116Y-002449D02*
Y-002245D01*
X-000752Y-002189D02*
Y-002172D01*
X-000778Y-002189D02*
X-000152D01*
X-000002Y-002449D02*
Y-002365D01*
X000026Y-002449D02*
Y-002335D01*
X-000062Y-002449D02*
Y-002411D01*
X-000032Y-002449D02*
Y-002394D01*
X-000962Y-002189D02*
Y-002157D01*
X-000722Y-002189D02*
Y-002141D01*
X-000751Y-002172D02*
X-000134D01*
X-000723Y-002142D02*
X-000104D01*
X000206Y-002449D02*
Y-002155D01*
X-000023Y-002385D02*
X000212Y-002149D01*
X-000706Y-002112D02*
X-000074D01*
X-000697Y-002082D02*
X-000044D01*
X-000694Y-002052D02*
X-000014D01*
X-000019Y-002382D02*
X000449D01*
X-000063Y-002413D02*
X000449D01*
X000039Y-002322D02*
X000449D01*
X000009Y-002352D02*
X000449D01*
X000099Y-002262D02*
X000449D01*
X000069Y-002292D02*
X000449D01*
X000189Y-002172D02*
X000449D01*
X000129Y-002232D02*
X000449D01*
X000159Y-002202D02*
X000449D01*
X000266Y-002449D02*
Y-002149D01*
X000296Y-002449D02*
Y-002149D01*
X000236Y-002449D02*
Y-002149D01*
X000212D02*
X000349D01*
X000326Y-002449D02*
Y-002149D01*
X000349Y-002142D02*
X000449D01*
X000349Y-002052D02*
X000449D01*
X000349Y-002112D02*
X000449D01*
X000349Y-002082D02*
X000449D01*
X-001724Y-002051D02*
Y-001951D01*
Y-001962D02*
X-001704D01*
X-001724Y-002022D02*
X-001704D01*
X-001724Y-001992D02*
X-001704D01*
X-001712Y-002189D02*
Y-001153D01*
X-001725Y-001932D02*
X-001702D01*
X-001704Y-002051D02*
Y-001951D01*
X-001382Y-002189D02*
Y-000823D01*
X-001393Y-002051D02*
Y-001951D01*
Y-002022D02*
X-001373D01*
X-001023D02*
X-001004D01*
X-001393Y-001962D02*
X-001373D01*
X-001393Y-001992D02*
X-001373D01*
X-001023Y-001962D02*
X-001004D01*
X-001023Y-001992D02*
X-001004D01*
X-001373Y-002051D02*
Y-001951D01*
X-001395Y-001932D02*
X-001372D01*
X-001023Y-002051D02*
Y-001951D01*
X-001022Y-002189D02*
Y-001163D01*
X-001004Y-002051D02*
Y-001951D01*
X-001025Y-001932D02*
X-001002D01*
X-002181Y-001812D02*
X-002004D01*
X-001793D02*
X-001616D01*
X-001999Y-001807D02*
Y-001198D01*
X-001799Y-001807D02*
Y-00124D01*
X-001731Y-001902D02*
X-001695D01*
X-001743Y-001872D02*
X-001682D01*
X-001772Y-00183D02*
Y-001213D01*
X-001762Y-001842D02*
X-001658D01*
X-001742Y-001873D02*
Y-001183D01*
X-001682Y-001872D02*
Y-001123D01*
X-001652Y-001836D02*
Y-001093D01*
X-001622Y-001815D02*
Y-001063D01*
X-001502Y-001803D02*
Y-000943D01*
X-001472Y-001816D02*
Y-000913D01*
X-001592Y-001802D02*
Y-001033D01*
X-001562Y-001797D02*
Y-001003D01*
X-001532Y-001797D02*
Y-000973D01*
X-001402Y-001902D02*
X-001366D01*
X-001415Y-001872D02*
X-001354D01*
X-001439Y-001842D02*
X-001335D01*
X-001481Y-001812D02*
X-001304D01*
X-001031Y-001902D02*
X-000995D01*
X-001043Y-001872D02*
X-000982D01*
X-001062Y-001842D02*
X-000958D01*
X-001093Y-001812D02*
X-000916D01*
X-001412Y-001878D02*
Y-000853D01*
X-001352Y-001867D02*
Y-000793D01*
X-001442Y-001838D02*
Y-000883D01*
X-001322Y-001827D02*
Y-000763D01*
X-001052Y-001855D02*
Y-001193D01*
X-000992Y-001892D02*
Y-001133D01*
X-001298Y-001807D02*
Y-001198D01*
X-001098Y-001807D02*
Y-00124D01*
X-001082Y-00182D02*
Y-001223D01*
X-000692Y-002189D02*
Y-000833D01*
X-000694Y-002051D02*
Y-001951D01*
X-000662Y-002189D02*
Y-000803D01*
X-000572Y-002189D02*
Y-000713D01*
X-000542Y-002189D02*
Y-000683D01*
X-000632Y-002189D02*
Y-000773D01*
X-000602Y-002189D02*
Y-000743D01*
X-000452Y-002189D02*
Y-00047D01*
X-000422Y-002189D02*
Y-000383D01*
X-000512Y-002189D02*
Y-000653D01*
X-000482Y-002189D02*
Y-000616D01*
X-000302Y-002189D02*
Y-00022D01*
X-000272Y-002189D02*
Y-000256D01*
X-000392Y-002189D02*
Y-000142D01*
X-000332Y-002189D02*
Y-000171D01*
X-000362Y-002189D02*
Y-000112D01*
X-000122Y-002159D02*
Y-000353D01*
X-000152Y-002189D02*
X000049Y-001986D01*
X-000092Y-002129D02*
Y-000362D01*
X-000062Y-002099D02*
Y-000369D01*
X-000032Y-002069D02*
Y-000373D01*
X000349Y-002149D02*
Y-001849D01*
X-000002Y-002039D02*
Y-000374D01*
X000349Y-002022D02*
X000449D01*
X-000182Y-002189D02*
Y-000326D01*
X-000152Y-002189D02*
Y-000341D01*
X-000242Y-002189D02*
Y-000285D01*
X-000212Y-002189D02*
Y-000308D01*
X000446Y-002449D02*
Y0D01*
X000449Y-002449D02*
Y0D01*
X000356Y-002449D02*
Y-000114D01*
X000416Y-002449D02*
Y0D01*
X000386Y-002449D02*
Y0D01*
X-000715Y-001872D02*
X000049D01*
X-000695Y-001932D02*
X000049D01*
X-000694Y-002022D02*
X000014D01*
X-000694Y-001992D02*
X000044D01*
X-000694Y-001962D02*
X000049D01*
Y-001986D02*
Y-001849D01*
X-000962Y-001845D02*
Y-001103D01*
X-000932Y-00182D02*
Y-001073D01*
X-000902Y-001806D02*
Y-001043D01*
X-000872Y-001798D02*
Y-001013D01*
X-000722Y-001861D02*
Y-000863D01*
X000026Y-002009D02*
Y-000373D01*
X-000812Y-0018D02*
Y-000953D01*
X-000782Y-001811D02*
Y-000923D01*
X-000752Y-00183D02*
Y-000893D01*
X-000702Y-001902D02*
X000049D01*
Y-001849D02*
X000084D01*
X-000739Y-001842D02*
X000084D01*
X000314Y-001849D02*
X000349D01*
Y-001962D02*
X000449D01*
X000349Y-001992D02*
X000449D01*
X000349Y-001872D02*
X000449D01*
X000349Y-001932D02*
X000449D01*
X000349Y-001902D02*
X000449D01*
X000056Y-001849D02*
Y-00179D01*
X000084Y-001849D02*
Y-001841D01*
X-000781Y-001812D02*
X000065D01*
X000314Y-001849D02*
Y-001841D01*
X000326Y-001849D02*
Y-001825D01*
X000314Y-001842D02*
X000449D01*
X000333Y-001812D02*
X000449D01*
X-004131Y-001782D02*
X-003832D01*
X-004007Y-001482D02*
X-003398D01*
X-003966Y-001452D02*
X-003398D01*
X-003664Y-001782D02*
X-003398D01*
X-003928Y-001362D02*
X-003398D01*
X-003944Y-001422D02*
X-003398D01*
X-003955Y-001272D02*
X-003398D01*
X-003938Y-001302D02*
X-003398D01*
X-003842Y-001786D02*
Y-001228D01*
X-003812Y-001775D02*
Y-001197D01*
X-003932Y-00132D02*
Y-001261D01*
X-00393Y-001332D02*
X-003398D01*
X-003782Y-001768D02*
Y-001124D01*
X-003199Y-001572D02*
X-002699D01*
X-003199Y-001602D02*
X-002699D01*
X-003199Y-001512D02*
X-002699D01*
X-003199Y-001542D02*
X-002699D01*
X-003199Y-001722D02*
X-002699D01*
X-003199Y-001752D02*
X-002699D01*
X-003199Y-001632D02*
X-002699D01*
X-003199Y-001662D02*
X-002699D01*
X-003199Y-001452D02*
X-002699D01*
X-003199Y-001482D02*
X-002699D01*
X-003932Y-001392D02*
X-003398D01*
X-003199Y-001422D02*
X-002699D01*
X-003199Y-001362D02*
X-002699D01*
X-003199Y-001392D02*
X-002699D01*
X-003199Y-001272D02*
X-002699D01*
X-003199Y-001332D02*
X-002699D01*
X-003199Y-001302D02*
X-002699D01*
X-004078Y-001212D02*
X-004057D01*
X-004101Y-000972D02*
X-004034D01*
X-004052Y-000987D02*
Y-000549D01*
X-003842Y-000975D02*
Y-000549D01*
X-004112Y-000964D02*
Y-000549D01*
X-004082Y-000988D02*
Y-000549D01*
X-004142Y-00095D02*
Y-000549D01*
X-004022Y-000964D02*
Y-000549D01*
X-003992Y-00095D02*
Y-000549D01*
X-003872Y-000957D02*
Y-000549D01*
X-003962Y-000943D02*
Y-000549D01*
X-003902Y-000946D02*
Y-000549D01*
X-003932Y-000942D02*
Y-000549D01*
X-003824Y-001212D02*
X-003398D01*
X-003863Y-001242D02*
X-003398D01*
X-003802Y-001182D02*
X-003397D01*
X-003789Y-001152D02*
X-003387D01*
X-003199Y-001242D02*
X-002699D01*
X-003782Y-001122D02*
X-003363D01*
X-003816Y-001002D02*
X-003243D01*
X-003847Y-000972D02*
X-003213D01*
X-003934Y-000942D02*
X-003183D01*
X-003369Y-001128D02*
X-003072Y-000831D01*
X-003199Y-00124D02*
X-002901Y-000943D01*
X-003781Y-001092D02*
X-003333D01*
X-003786Y-001062D02*
X-003303D01*
X-003797Y-001032D02*
X-003273D01*
X-003199Y-001782D02*
X-002699D01*
X-002499D02*
X-001999D01*
X-003199Y-001692D02*
X-002699D01*
X-002499Y-001752D02*
X-001999D01*
X-002499Y-001602D02*
X-001999D01*
X-002499Y-001632D02*
X-001999D01*
X-002499Y-001542D02*
X-001999D01*
X-002499Y-001572D02*
X-001999D01*
X-00317Y-001212D02*
X-002699D01*
X-00314Y-001182D02*
X-002697D01*
X-00311Y-001152D02*
X-002687D01*
X-002252Y-001796D02*
Y-000993D01*
X-002499Y-001512D02*
X-001999D01*
X-002499Y-00124D02*
X-002101Y-000843D01*
X-002669Y-001128D02*
X-002272Y-000731D01*
X-002499Y-001422D02*
X-001999D01*
X-002499Y-001452D02*
X-001999D01*
X-002499Y-001362D02*
X-001999D01*
X-002499Y-001392D02*
X-001999D01*
X-002499Y-001692D02*
X-001999D01*
X-002499Y-001722D02*
X-001999D01*
X-002499Y-001482D02*
X-001999D01*
X-002499Y-001662D02*
X-001999D01*
X-002499Y-001302D02*
X-001999D01*
X-002499Y-001332D02*
X-001999D01*
X-002499Y-001242D02*
X-001999D01*
X-002499Y-001272D02*
X-001999D01*
X-00247Y-001212D02*
X-001999D01*
X-00244Y-001182D02*
X-001997D01*
X-00241Y-001152D02*
X-001987D01*
X-00308Y-001122D02*
X-002663D01*
X-00305Y-001092D02*
X-002633D01*
X-00302Y-001062D02*
X-002603D01*
X-00299Y-001032D02*
X-002573D01*
X-00296Y-001002D02*
X-002543D01*
X-00293Y-000972D02*
X-002513D01*
X-0029Y-000942D02*
X-002483D01*
X-00288Y-000912D02*
X-002453D01*
X-002872Y-000882D02*
X-002423D01*
X-002872Y-000852D02*
X-002393D01*
X-002872Y-000822D02*
X-002363D01*
X-002872Y-000792D02*
X-002333D01*
X-002872Y-000762D02*
X-002303D01*
X-002872Y-000732D02*
X-002273D01*
X-002872Y-000672D02*
X-002272D01*
X-00238Y-001122D02*
X-001963D01*
X-00235Y-001092D02*
X-001933D01*
X-00232Y-001062D02*
X-001903D01*
X-00229Y-001032D02*
X-001873D01*
X-00226Y-001002D02*
X-001843D01*
X-00223Y-000972D02*
X-001813D01*
X-0022Y-000942D02*
X-001783D01*
X-00217Y-000912D02*
X-001753D01*
X-00214Y-000882D02*
X-001723D01*
X-002872Y-000642D02*
X-002272D01*
X-002872Y-000702D02*
X-002272D01*
X-002872Y-000552D02*
X-002272D01*
X-002872Y-000612D02*
X-002272D01*
X-00211Y-000852D02*
X-001693D01*
X-002872Y-000582D02*
X-002272D01*
X-002085Y-000822D02*
X-001663D01*
X-003752Y-001766D02*
Y-000549D01*
X-003722Y-001767D02*
Y-000549D01*
X-003812Y-001006D02*
Y-000549D01*
X-003782Y-001079D02*
Y-000549D01*
X-003692Y-001773D02*
Y-000542D01*
X-003362Y-001121D02*
Y-00053D01*
X-003332Y-001091D02*
Y-00053D01*
X-003302Y-001061D02*
Y-00053D01*
X-003662Y-001783D02*
Y-000512D01*
X-003699Y-000549D02*
X-003549Y-000399D01*
X-003642Y-000492D02*
X-003376D01*
X-003672Y-000522D02*
X-003376D01*
X-003392Y-001163D02*
Y-000242D01*
X-003376Y-00053D02*
Y-00023D01*
X-003552Y-000402D02*
X-003376D01*
X-003612Y-000462D02*
X-003376D01*
X-003582Y-000432D02*
X-003376D01*
X-003272Y-001031D02*
Y-00053D01*
X-003242Y-001001D02*
Y-00053D01*
X-003212Y-000971D02*
Y-00053D01*
X-003376D02*
X-003076D01*
X-003182Y-000941D02*
Y-00053D01*
X-003152Y-000911D02*
Y-00053D01*
X-003122Y-000881D02*
Y-00053D01*
X-003092Y-000851D02*
Y-00053D01*
X-003072Y-000831D02*
Y-000492D01*
X-002872Y-000872D02*
Y-000492D01*
X-003076Y-00053D02*
Y-000488D01*
X-002872Y-000522D02*
X-002576D01*
X-002872Y-000492D02*
X-002576D01*
X-002824Y-000402D02*
X-002576D01*
X-002846Y-000462D02*
X-002576D01*
X-002831Y-000432D02*
X-002576D01*
X-003492Y-000342D02*
X-003376D01*
X-003522Y-000372D02*
X-003376D01*
X-003432Y-000282D02*
X-003376D01*
X-003462Y-000312D02*
X-003376D01*
X-003402Y-000252D02*
X-003376D01*
X-003076Y-000272D02*
Y-00023D01*
X-003362D02*
Y-000212D01*
X-003332Y-00023D02*
Y-000182D01*
X-003302Y-00023D02*
Y-000152D01*
X-003549Y-000399D02*
X-003299Y-000149D01*
X-003272Y-00023D02*
Y-000149D01*
X-003242Y-00023D02*
Y-000149D01*
X-003122Y-00023D02*
Y-000149D01*
X-003092Y-00023D02*
Y-000149D01*
X-003212Y-00023D02*
Y-000149D01*
X-003152Y-00023D02*
Y-000149D01*
X-003182Y-00023D02*
Y-000149D01*
X-003076Y-000252D02*
X-00305D01*
X-003376Y-00023D02*
X-003076D01*
X-002894Y-000252D02*
X-002576D01*
X-002827Y-000342D02*
X-002576D01*
X-002822Y-000372D02*
X-002576D01*
X-002859Y-000282D02*
X-002576D01*
X-002838Y-000312D02*
X-002576D01*
X-003062Y-00026D02*
Y-000149D01*
X-003032Y-000243D02*
Y-000149D01*
X-003002Y-000233D02*
Y-000149D01*
X-003299D02*
X-002099D01*
X-002882Y-00026D02*
Y-000149D01*
X-002852Y-00029D02*
Y-000149D01*
X-002972Y-00023D02*
Y-000149D01*
X-002912Y-000243D02*
Y-000149D01*
X-002942Y-000233D02*
Y-000149D01*
X-002552Y-001011D02*
Y-00053D01*
X-002522Y-000981D02*
Y-00053D01*
X-002492Y-000951D02*
Y-00053D01*
X-002576D02*
X-002276D01*
X-002462Y-000921D02*
Y-00053D01*
X-002432Y-000891D02*
Y-00053D01*
X-002402Y-000861D02*
Y-00053D01*
X-002282Y-000741D02*
Y-00053D01*
X-002672Y-001131D02*
Y-000149D01*
X-002642Y-001101D02*
Y-000149D01*
X-002612Y-001071D02*
Y-000149D01*
X-002582Y-001041D02*
Y-000149D01*
X-002372Y-000831D02*
Y-00053D01*
X-002342Y-000801D02*
Y-00053D01*
X-002576D02*
Y-00023D01*
X-002312Y-000771D02*
Y-00053D01*
X-002276D02*
Y-000488D01*
X-002272Y-000731D02*
Y-000492D01*
X-002072Y-000772D02*
Y-000492D01*
X-001776D01*
X-002072Y-000522D02*
X-001776D01*
X-001772Y-000931D02*
Y-00053D01*
X-001742Y-000901D02*
Y-00053D01*
X-001712Y-000871D02*
Y-00053D01*
X-001682Y-000841D02*
Y-00053D01*
X-001982Y-001144D02*
Y-000149D01*
X-001952Y-001111D02*
Y-000149D01*
X-001922Y-001081D02*
Y-000149D01*
X-001892Y-001051D02*
Y-000149D01*
X-001862Y-001021D02*
Y-000149D01*
X-001832Y-000991D02*
Y-000149D01*
X-001776Y-00053D02*
Y-00023D01*
X-001802Y-000961D02*
Y-000149D01*
X-002492Y-00023D02*
Y-000149D01*
X-002462Y-00023D02*
Y-000149D01*
X-002522Y-00023D02*
Y-000149D01*
X-002576Y-00023D02*
X-002276D01*
Y-000272D02*
Y-00023D01*
Y-000252D02*
X-00225D01*
X-002432Y-00023D02*
Y-000149D01*
X-002402Y-00023D02*
Y-000149D01*
X-002822Y-000377D02*
Y-000149D01*
X-002552Y-00023D02*
Y-000149D01*
X-002372Y-00023D02*
Y-000149D01*
X-002342Y-00023D02*
Y-000149D01*
X-002252Y-000254D02*
Y-000149D01*
X-002222Y-000239D02*
Y-000149D01*
X-002312Y-00023D02*
Y-000149D01*
X-002192Y-000231D02*
Y-000149D01*
X-002282Y-00023D02*
Y-000149D01*
X-002046Y-000462D02*
X-001776D01*
X-002094Y-000252D02*
X-001776D01*
X-002059Y-000282D02*
X-001776D01*
X-002024Y-000402D02*
X-001776D01*
X-002032Y-000432D02*
X-001776D01*
X-002038Y-000312D02*
X-001776D01*
X-002022Y-000372D02*
X-001776D01*
X-002027Y-000342D02*
X-001776D01*
X-002102Y-000247D02*
Y-000149D01*
X-002072Y-000268D02*
Y-000149D01*
X-002162Y-00023D02*
Y-000149D01*
X-002132Y-000235D02*
Y-000149D01*
X-002042Y-000305D02*
Y-000149D01*
X-001772Y-00023D02*
Y-000149D01*
X-001742Y-00023D02*
Y-000149D01*
X-001682Y-00023D02*
Y-000149D01*
X-001712Y-00023D02*
Y-000149D01*
X-001799Y-001632D02*
X-001298D01*
X-001799Y-001662D02*
X-001298D01*
X-001799Y-001572D02*
X-001298D01*
X-001799Y-001602D02*
X-001298D01*
X-001799Y-001752D02*
X-001298D01*
X-001799Y-001782D02*
X-001298D01*
X-001799Y-001692D02*
X-001298D01*
X-001799Y-001722D02*
X-001298D01*
X-001799Y-001332D02*
X-001298D01*
X-001799Y-001362D02*
X-001298D01*
X-001799Y-00124D02*
X-001301Y-000743D01*
X-001799Y-001302D02*
X-001298D01*
X-001799Y-001512D02*
X-001298D01*
X-001799Y-001542D02*
X-001298D01*
X-001799Y-001422D02*
X-001298D01*
X-001799Y-001482D02*
X-001298D01*
X-001799Y-001452D02*
X-001298D01*
X-001098Y-001512D02*
X00005D01*
X-001098Y-001542D02*
X000058D01*
X-001799Y-001392D02*
X-001298D01*
X-001098Y-001482D02*
X000049D01*
X-001098Y-001692D02*
X000059D01*
X-001098Y-001662D02*
X000074D01*
X-001098Y-001572D02*
X000073D01*
X-001098Y-001602D02*
X000084D01*
X-001799Y-001242D02*
X-001298D01*
X-001799Y-001272D02*
X-001298D01*
X-00177Y-001212D02*
X-001298D01*
X-001098Y-001362D02*
X000084D01*
X-001098Y-001392D02*
X000084D01*
X-001098Y-00124D02*
X-000501Y-000643D01*
X-001098Y-001332D02*
X000083D01*
X-001098Y-001302D02*
X000064D01*
X-00174Y-001182D02*
X-001297D01*
X-00171Y-001152D02*
X-001287D01*
X-002074Y-000792D02*
X-001633D01*
X-002072Y-000762D02*
X-001603D01*
X-001292Y-001163D02*
Y-000732D01*
X-00168Y-001122D02*
X-001263D01*
X-001651Y-001092D02*
X-001233D01*
X-002072Y-000732D02*
X-001573D01*
X-002072Y-000702D02*
X-001543D01*
X-002072Y-000672D02*
X-001513D01*
X-002072Y-000642D02*
X-001483D01*
X-001969Y-001128D02*
X-001472Y-000631D01*
X-002072Y-000582D02*
X-001472D01*
X-002072Y-000612D02*
X-001472D01*
X-00162Y-001062D02*
X-001203D01*
X-00159Y-001032D02*
X-001173D01*
X-00156Y-001002D02*
X-001143D01*
X-00153Y-000972D02*
X-001113D01*
X-0015Y-000942D02*
X-001083D01*
X-00147Y-000912D02*
X-001053D01*
X-00144Y-000882D02*
X-001023D01*
X-00141Y-000852D02*
X-000993D01*
X-00138Y-000822D02*
X-000963D01*
X-00135Y-000792D02*
X-000933D01*
X-00132Y-000762D02*
X-000903D01*
X-001292Y-000732D02*
X-000873D01*
X-001276Y-000702D02*
X-000843D01*
X-001272Y-000672D02*
X-000813D01*
X-001272Y-000642D02*
X-000783D01*
X-001272Y-000612D02*
X-000753D01*
X-001272Y-000582D02*
X-000723D01*
X-001098Y-001752D02*
X000049D01*
X-001098Y-001782D02*
X000054D01*
X-001098Y-001722D02*
X000051D01*
X-001098Y-001632D02*
X000084D01*
X000326Y-001665D02*
Y-001571D01*
X000084Y-001649D02*
Y-001587D01*
X000314Y-001649D02*
Y-001587D01*
X-000842Y-001796D02*
Y-000983D01*
X-001098Y-001452D02*
X000054D01*
X-001098Y-001422D02*
X000066D01*
X000056Y-001446D02*
Y-001282D01*
Y-0017D02*
Y-001536D01*
X000084Y-001395D02*
Y-001333D01*
X000314Y-001395D02*
Y-001333D01*
X000326Y-001411D02*
Y-001317D01*
X000314Y-001632D02*
X000449D01*
X000324Y-001662D02*
X000449D01*
X000325Y-001572D02*
X000449D01*
X000314Y-001602D02*
X000449D01*
X000349Y-001752D02*
X000449D01*
X000344Y-001782D02*
X000449D01*
X000339Y-001692D02*
X000449D01*
X000347Y-001722D02*
X000449D01*
X000314Y-001362D02*
X000449D01*
X000314Y-001392D02*
X000449D01*
X000348Y-001512D02*
X000449D01*
X00034Y-001542D02*
X000449D01*
X000332Y-001422D02*
X000449D01*
X000349Y-001482D02*
X000449D01*
X000344Y-001452D02*
X000449D01*
X000315Y-001332D02*
X000449D01*
X-001098Y-001242D02*
X000049D01*
X-001098Y-001272D02*
X000053D01*
X000345D02*
X000449D01*
X000334Y-001302D02*
X000449D01*
X000347Y-001212D02*
X000449D01*
X000349Y-001242D02*
X000449D01*
X-00107Y-001212D02*
X000051D01*
X-00104Y-001182D02*
X00006D01*
X-00101Y-001152D02*
X000076D01*
X-00098Y-001122D02*
X000103D01*
X000338Y-001182D02*
X000449D01*
X-00095Y-001092D02*
X000162D01*
X000322Y-001152D02*
X000449D01*
X000295Y-001122D02*
X000449D01*
X-00089Y-001032D02*
X000449D01*
X-00092Y-001062D02*
X000449D01*
X-00083Y-000972D02*
X000449D01*
X-00086Y-001002D02*
X000449D01*
X-0008Y-000942D02*
X000449D01*
X000236Y-001092D02*
X000449D01*
X-00071Y-000852D02*
X000449D01*
X-00077Y-000912D02*
X000449D01*
X-00074Y-000882D02*
X000449D01*
X-00065Y-000792D02*
X000449D01*
X-00068Y-000822D02*
X000449D01*
X-00059Y-000732D02*
X000449D01*
X-00062Y-000762D02*
X000449D01*
X-00053Y-000672D02*
X000449D01*
X-00056Y-000702D02*
X000449D01*
X-000472Y-000582D02*
X000449D01*
X-0005Y-000642D02*
X000449D01*
X-00048Y-000612D02*
X000449D01*
X-001652Y-000811D02*
Y-00053D01*
X-001622Y-000781D02*
Y-00053D01*
X-001776D02*
X-001476D01*
X-002072Y-000552D02*
X-001472D01*
X-001592Y-000751D02*
Y-00053D01*
X-001562Y-000721D02*
Y-00053D01*
X-001532Y-000691D02*
Y-00053D01*
X-001502Y-000661D02*
Y-00053D01*
X-001472Y-000631D02*
Y-000492D01*
X-001272Y-000672D02*
Y-000492D01*
X-001476Y-00053D02*
Y-000488D01*
X-001472Y-000631D02*
Y-000492D01*
X-001262Y-001121D02*
Y-000482D01*
X-001232Y-001091D02*
Y-000434D01*
X-001172Y-001031D02*
Y-000149D01*
X-001202Y-001061D02*
Y-000149D01*
X-001272Y-000552D02*
X-000693D01*
X-00127Y-001128D02*
X-000672Y-000531D01*
X-001272Y-000522D02*
X-000976D01*
Y-00053D02*
X-000676D01*
X-000962Y-000821D02*
Y-00053D01*
X-000932Y-000791D02*
Y-00053D01*
X-000902Y-000762D02*
Y-00053D01*
X-000872Y-000731D02*
Y-00053D01*
X-001143Y-001001D02*
Y-000149D01*
X-001112Y-000971D02*
Y-000149D01*
X-001246Y-000462D02*
X-000976D01*
X-001272Y-000492D02*
X-000976D01*
X-001082Y-000941D02*
Y-000149D01*
X-001052Y-000911D02*
Y-000149D01*
X-001022Y-000881D02*
Y-000149D01*
X-000976Y-00053D02*
Y-00023D01*
X-000992Y-000851D02*
Y-000149D01*
X-001622Y-00023D02*
Y-000149D01*
X-001562Y-00023D02*
Y-000149D01*
X-001652Y-00023D02*
Y-000149D01*
X-001776Y-00023D02*
X-001476D01*
Y-000272D02*
Y-00023D01*
Y-000252D02*
X-00145D01*
X-001532Y-00023D02*
Y-000149D01*
X-001502Y-00023D02*
Y-000149D01*
X-001472Y-000268D02*
Y-000149D01*
X-001442Y-000247D02*
Y-000149D01*
X-001592Y-00023D02*
Y-000149D01*
X-001412Y-000235D02*
Y-000149D01*
X-001292Y-000254D02*
Y-000149D01*
X-001262Y-000278D02*
Y-000149D01*
X-001382Y-00023D02*
Y-000149D01*
X-001322Y-000239D02*
Y-000149D01*
X-001352Y-000231D02*
Y-000149D01*
X-001238Y-000312D02*
X-000976D01*
X-001294Y-000252D02*
X-000976D01*
X-001259Y-000282D02*
X-000976D01*
X-001224Y-000402D02*
X-000976D01*
X-001231Y-000432D02*
X-000976D01*
X-001227Y-000342D02*
X-000976D01*
X-001222Y-000372D02*
X-000976D01*
X-003342Y-000192D02*
X-000321D01*
X-003372Y-000222D02*
X-000301D01*
X-002099Y-000149D02*
X-000399D01*
X-003312Y-000162D02*
X-000337D01*
X-001232Y-000326D02*
Y-000149D01*
X-000976Y-00023D02*
X-000676D01*
X-000962D02*
Y-000149D01*
X-000902Y-00023D02*
Y-000149D01*
X-000932Y-00023D02*
Y-000149D01*
X-000842Y-000701D02*
Y-00053D01*
X-000812Y-000671D02*
Y-00053D01*
X-000782Y-000641D02*
Y-00053D01*
X-000752Y-000611D02*
Y-00053D01*
X-000722Y-000581D02*
Y-00053D01*
X-000692Y-000551D02*
Y-00053D01*
X-000676D02*
Y-000488D01*
X-000672Y-000531D02*
Y-000492D01*
X000056Y-001192D02*
Y-00037D01*
X000086Y-001138D02*
Y-000364D01*
X-000472Y-000572D02*
Y-000492D01*
X-000422Y-000372D02*
X-000041D01*
X-000422Y-000377D02*
Y-000149D01*
X-000472Y-000522D02*
X000449D01*
X-000472Y-000552D02*
X000449D01*
X-000446Y-000462D02*
X000449D01*
X-000472Y-000492D02*
X000449D01*
X000116Y-001112D02*
Y-000355D01*
X-000431Y-000432D02*
X000449D01*
X000041Y-000372D02*
X000449D01*
X-000424Y-000402D02*
X000449D01*
X000146Y-001097D02*
Y-000344D01*
X000176Y-001089D02*
Y-00033D01*
X000151Y-000342D02*
X000449D01*
X000296Y-001123D02*
Y-000228D01*
X000326Y-001157D02*
Y-000183D01*
X000206Y-001087D02*
Y-000312D01*
X000236Y-001092D02*
Y-00029D01*
X000266Y-001103D02*
Y-000262D01*
X-000782Y-00023D02*
Y-000149D01*
X-000752Y-00023D02*
Y-000149D01*
X-000872Y-00023D02*
Y-000149D01*
X-000842Y-00023D02*
Y-000149D01*
X-000676Y-000272D02*
Y-00023D01*
Y-000252D02*
X-00065D01*
X-000722Y-00023D02*
Y-000149D01*
X-000692Y-00023D02*
Y-000149D01*
X-000662Y-00026D02*
Y-000149D01*
X-000632Y-000243D02*
Y-000149D01*
X-000812Y-00023D02*
Y-000149D01*
X-000602Y-000233D02*
Y-000149D01*
X-000482Y-00026D02*
Y-000149D01*
X-000452Y-00029D02*
Y-000149D01*
X-000572Y-00023D02*
Y-000149D01*
X-000512Y-000243D02*
Y-000149D01*
X-000542Y-000233D02*
Y-000149D01*
X-000438Y-000312D02*
X-000206D01*
X-000427Y-000342D02*
X-000151D01*
X-000494Y-000252D02*
X-000276D01*
X-000459Y-000282D02*
X-000245D01*
X000245D02*
X000449D01*
X000206Y-000312D02*
X000449D01*
X000321Y-000192D02*
X000449D01*
X000276Y-000252D02*
X000449D01*
X000301Y-000222D02*
X000449D01*
X-000399Y-000149D02*
X-000358Y-000108D01*
X000337Y-000162D02*
X000449D01*
X-000382Y-000132D02*
X-00035D01*
X00035D02*
X000449D01*
X000367Y-000072D02*
X000449D01*
X00036Y-000102D02*
X000449D01*
X000374Y0D02*
X000449D01*
X000372Y-000042D02*
X000449D01*
X000374Y-000012D02*
X000449D01*
G54D12*
X-006821Y-001316D03*
Y-001536D03*
X-007961Y-001311D03*
Y-001531D03*
X-005686Y-001316D03*
Y-001536D03*
X-004561Y-001316D03*
Y-001536D03*
G54D15*
X-007259Y000353D02*
Y000506D01*
X-010027Y-001556D02*
Y-001464D01*
X-010132Y-001358D02*
X-010027Y-001464D01*
X-009918D02*
X-009799Y-001344D01*
X-010027Y-001464D02*
X-009918D01*
X-010006Y-001104D02*
X-009879D01*
X-009829Y-001154*
X-009799*
X-010027Y-001747D02*
X-009896D01*
X-009799Y-001154D02*
X-009752D01*
X-010421Y-001651D02*
X-010256D01*
X-010559Y-001514D02*
X-010421Y-001651D01*
X-010559Y-001514D02*
Y-001189D01*
X-010474Y-001104*
X-01026*
X-008892Y-001562D02*
Y-001461D01*
X-008995Y-001358D02*
X-008892Y-001461D01*
X-008766D02*
X-008649Y-001344D01*
X-008892Y-001461D02*
X-008766D01*
X-008868Y-001104D02*
X-008731D01*
X-008681Y-001154*
X-008649*
X-008892Y-001751D02*
X-008774D01*
X-008511Y-001489*
X-008649Y-001154D02*
X-008602D01*
X-008511Y-001244*
Y-001489D02*
Y-001244D01*
X-009896Y-001747D02*
X-009656Y-001506D01*
Y-001249*
X-009752Y-001154D02*
X-009656Y-001249D01*
X-009424Y-001534D02*
X-009302Y-001657D01*
X-009121*
X-009424Y-001534D02*
Y-001197D01*
X-009331Y-001104*
X-009122*
X-010142Y-002069D02*
X-009961Y-002249D01*
X-009237*
X-009004Y-002016*
X-010142Y-001641D02*
X-010056Y-001556D01*
X-010027*
X-009004Y-002016D02*
Y-001641D01*
X-008924Y-001562*
X-008892*
X-008059Y000353D02*
Y000509D01*
X-006459*
X-009719D02*
X-008059D01*
X-010692Y-000461D02*
X-009719Y000509D01*
X-010692Y-001569D02*
Y-000461D01*
Y-001569D02*
X-010467Y-001794D01*
X-010152*
X-010142Y-002069D02*
Y-001641D01*
X-007961Y-001601D02*
Y-001531D01*
X-006817Y-001607D02*
Y-00154D01*
X-006821Y-001536D02*
X-006817Y-00154D01*
X-005684Y-001604D02*
Y-001538D01*
X-005686Y-001536D02*
X-005684Y-001538D01*
X-004559Y-001601D02*
Y-001538D01*
X-004561Y-001536D02*
X-004559Y-001538D01*
X-006689Y-001101D02*
X-006467D01*
X-006821Y-001234D02*
X-006689Y-001101D01*
X-006821Y-001316D02*
Y-001234D01*
X-005686Y-001316D02*
Y-001234D01*
X-005554Y-001101*
X-00533*
X-007961Y-001311D02*
Y-001239D01*
X-007824Y-001101*
X-007607*
X-004561Y-001316D02*
Y-001236D01*
X-004427Y-001101*
X-004195*
X-005059Y000028D02*
Y000411D01*
X-006459Y000353D02*
Y000567D01*
X-006389Y000637*
X-002599Y-002001D02*
Y-001198D01*
X-002172Y-000772*
Y-000381*
X-003298Y-002001D02*
Y-001198D01*
X-002972Y-000872*
Y-000381*
X-001899Y-002001D02*
Y-001198D01*
X-001372Y-000672*
Y-000381*
X-001198Y-002001D02*
Y-001198D01*
X-000572Y-000572*
Y-000381*
X-000829Y000637D02*
X-000572Y000381D01*
X-001372D02*
Y000635D01*
X-002172Y000381D02*
Y000635D01*
X-002972Y000381D02*
Y000635D01*
X-006389Y000637D02*
X-000829D01*
X-005311Y000026D02*
Y000415D01*
X-005207Y000519*
X-003774*
X-005426Y000026D02*
X-005311D01*
X-005422Y-000226D02*
X-005311D01*
X-006307Y000511D02*
X-005994Y000199D01*
X-005599*
X-005426Y000026*
X-006459Y000353D02*
X-006205Y000099D01*
X-005749*
X-005422Y-000226*
G54D16*
X000199Y-001999D02*
Y-001745D01*
Y-001491*
Y-001237*
X-007734Y-001632D02*
Y-001355D01*
Y-001632D02*
X-007611Y-001754D01*
X-006594D02*
Y-001355D01*
X-007611Y-001754D02*
X-006594D01*
X-005457Y-001749D02*
Y-001355D01*
X-006594Y-001754D02*
X-004321D01*
Y-001355*
Y-001754D02*
X-004144Y-001932D01*
Y-002176D02*
Y-001932D01*
Y-002176D02*
X-004016Y-002304D01*
X-000104*
X000199Y-001999*
X-005659Y000353D02*
Y000619D01*
G54D18*
X-00748Y-00148D02*
Y-001355D01*
X-007355*
X-00748D02*
Y-00123D01*
X-00634Y-00148D02*
Y-001355D01*
Y-00123*
Y-001355D02*
X-006215D01*
X-005202Y-00148D02*
Y-001355D01*
X-005077*
X-005202D02*
Y-00123D01*
X-010086Y-000599D02*
X-009971D01*
X-010086Y-000714D02*
Y-000599D01*
X-009832Y-000714D02*
Y-000599D01*
X-009717*
X-009947D02*
X-009832D01*
Y-000484*
X-009578Y-000714D02*
Y-000599D01*
X-009324Y-000714D02*
Y-000599D01*
X-009693D02*
X-009578D01*
Y-000484*
X-009324Y-000599D02*
Y-000484D01*
Y-000599D02*
X-009209D01*
X-010086D02*
Y-000484D01*
X-008059Y-000407D02*
Y-000292D01*
Y-000407D02*
X-007944D01*
X-007259D02*
Y-000292D01*
Y-000407D02*
X-007144D01*
X-006459D02*
X-006344D01*
X-006459D02*
Y-000292D01*
X-005659Y-000407D02*
X-005544D01*
X-005659D02*
Y-000292D01*
X-003089Y-002001D02*
X-002949D01*
Y-001811*
Y-002001D02*
X-002808D01*
X-002389D02*
X-002249D01*
X-002108*
X-002249D02*
Y-001811D01*
X-001689Y-002001D02*
X-001548D01*
X-001409*
X-001548D02*
Y-001811D01*
X-000989Y-002001D02*
X-000848D01*
Y-001811*
Y-002001D02*
X-000708D01*
X-004068Y-00148D02*
Y-001355D01*
X-003943*
X-004068D02*
Y-00123D01*
G54D20*
X-009499Y0D03*
X0D03*
G54D21*
X-000572Y000381D03*
X-000826D03*
X-000572Y-000381D03*
X-001372Y000381D03*
X-001626D03*
X-001372Y-000381D03*
X-002172Y000381D03*
X-002426D03*
X-002172Y-000381D03*
X-002972Y000381D03*
X-003226D03*
X-002972Y-000381D03*
X-008059Y000353D03*
X-008313D03*
X-008059Y-000407D03*
X-007259Y000353D03*
X-007513D03*
X-007259Y-000407D03*
X-005659Y000353D03*
X-005913D03*
X-005659Y-000407D03*
X-006459Y000353D03*
X-006713D03*
X-006459Y-000407D03*
G54D22*
X-000826Y-000381D03*
X-001626D03*
X-002426D03*
X-003226D03*
X-008313Y-000407D03*
X-007513D03*
X-005913D03*
X-006713D03*
G54D23*
X-010086Y-000599D03*
X-009832D03*
X-009578D03*
X000199Y-001237D03*
Y-001491D03*
Y-001745D03*
X-005311Y000026D03*
X-005057D03*
X-004803D03*
X-004549D03*
X-004295D03*
X-004041D03*
X-003787D03*
Y-000226D03*
X-004295D03*
X-004803D03*
X-005057D03*
X-004549D03*
X-004041D03*
G54D24*
X-009324Y-000599D03*
X-005311Y-000226D03*
G54D25*
X000199Y-001999D03*
G54D26*
X-007353Y-001101D03*
X-00748Y-001355D03*
X-007607Y-001101D03*
X-006467D03*
X-00634Y-001355D03*
X-006213Y-001101D03*
X-005075D03*
X-005202Y-001355D03*
X-00533Y-001101D03*
X-004195D03*
X-004068Y-001355D03*
X-003941Y-001101D03*
X-008868Y-001104D03*
X-008995Y-001358D03*
X-009122Y-001104D03*
X-01026D03*
X-010132Y-001358D03*
X-010006Y-001104D03*
G54D27*
X-007927Y-001991D03*
X-00716D03*
X-006021D03*
X-006787D03*
X-005649D03*
X-004883D03*
X-003748D03*
X-004514D03*
X-009442Y-001993D03*
X-008675D03*
X-009813D03*
X-010579D03*
G54D28*
X-007734Y-001355D03*
X-006594D03*
X-005457D03*
X-004321D03*
X-009249Y-001358D03*
X-010387D03*
G54D29*
X-000848Y-002001D03*
X-001198D03*
X-001548D03*
X-001899D03*
X-002249D03*
X-002599D03*
X-002949D03*
X-003298D03*
G54D30*
X-007961Y-001601D03*
X-006817Y-001607D03*
X-005684Y-001604D03*
X-004559Y-001601D03*
X-005059Y000411D03*
X-006307Y000511D03*
X-003774Y000521D03*
G54D31*
X-009799Y-001344D03*
Y-001154D03*
X-008649Y-001344D03*
Y-001154D03*
G54D32*
X-009121Y-001657D03*
X-008892Y-001751D03*
Y-001562D03*
X-010256Y-001651D03*
X-010027Y-001747D03*
Y-001556D03*
M02*