%FSTAX42Y42*%
%MOMM*%
%SFA1B1*%

%IPPOS*%
%AMD34*
4,1,8,0.749300,-0.170180,0.749300,0.170180,0.469900,0.449580,-0.469900,0.449580,-0.749300,0.170180,-0.749300,-0.170180,-0.469900,-0.449580,0.469900,-0.449580,0.749300,-0.170180,0.0*
1,1,0.560000,0.469900,-0.170180*
1,1,0.560000,0.469900,0.170180*
1,1,0.560000,-0.469900,0.170180*
1,1,0.560000,-0.469900,-0.170180*
%
%AMD46*
4,1,8,0.749300,-0.220980,0.749300,0.220980,0.419100,0.551180,-0.419100,0.551180,-0.749300,0.220980,-0.749300,-0.220980,-0.419100,-0.551180,0.419100,-0.551180,0.749300,-0.220980,0.0*
1,1,0.660000,0.419100,-0.220980*
1,1,0.660000,0.419100,0.220980*
1,1,0.660000,-0.419100,0.220980*
1,1,0.660000,-0.419100,-0.220980*
%
%AMD47*
4,1,8,-0.480060,0.190500,-0.480060,-0.190500,-0.190500,-0.480060,0.190500,-0.480060,0.480060,-0.190500,0.480060,0.190500,0.190500,0.480060,-0.190500,0.480060,-0.480060,0.190500,0.0*
1,1,0.580000,-0.190500,0.190500*
1,1,0.580000,-0.190500,-0.190500*
1,1,0.580000,0.190500,-0.190500*
1,1,0.580000,0.190500,0.190500*
%
%ADD26C,1.699997*%
%ADD28R,1.699997X1.699997*%
G04~CAMADD=34~8~0.0~0.0~354.3~590.6~110.2~0.0~15~0.0~0.0~0.0~0.0~0~0.0~0.0~0.0~0.0~0~0.0~0.0~0.0~270.0~590.0~354.0*
%ADD34D34*%
%ADD37C,6.199988*%
%ADD38C,1.699997*%
%ADD39R,1.699997X1.699997*%
%ADD40R,1.699997X1.699997*%
%ADD41C,1.899996*%
%ADD42C,3.199994*%
%ADD43R,1.899996X1.899996*%
%ADD44O,2.199996X3.199994*%
%ADD45C,1.199998*%
G04~CAMADD=46~8~0.0~0.0~433.1~590.6~129.9~0.0~15~0.0~0.0~0.0~0.0~0~0.0~0.0~0.0~0.0~0~0.0~0.0~0.0~270.0~592.0~433.0*
%ADD46D46*%
G04~CAMADD=47~8~0.0~0.0~378.0~378.0~114.2~0.0~15~0.0~0.0~0.0~0.0~0~0.0~0.0~0.0~0.0~0~0.0~0.0~0.0~90.0~378.0~378.0*
%ADD47D47*%
%LNpcb_monitoring_top_front-1*%
%LPD*%
G54D26*
X-010086Y-000599D03*
X-009832D03*
X-009578D03*
X000199Y-001237D03*
Y-001491D03*
Y-001745D03*
X-005311Y000026D03*
X-005057D03*
X-004803D03*
X-004549D03*
X-004295D03*
X-004041D03*
X-003787D03*
Y-000226D03*
X-004295D03*
X-004803D03*
X-005057D03*
X-004549D03*
X-004041D03*
G54D28*
X-009324Y-000599D03*
X-005311Y-000226D03*
G54D34*
X-006821Y-001316D03*
Y-001536D03*
X-007961Y-001311D03*
Y-001531D03*
X-005686Y-001316D03*
Y-001536D03*
X-004561Y-001316D03*
Y-001536D03*
G54D37*
X-009499Y0D03*
X0D03*
G54D38*
X-000572Y000381D03*
X-000826D03*
X-000572Y-000381D03*
X-001372Y000381D03*
X-001626D03*
X-001372Y-000381D03*
X-002172Y000381D03*
X-002426D03*
X-002172Y-000381D03*
X-002972Y000381D03*
X-003226D03*
X-002972Y-000381D03*
X-008059Y000353D03*
X-008313D03*
X-008059Y-000407D03*
X-007259Y000353D03*
X-007513D03*
X-007259Y-000407D03*
X-005659Y000353D03*
X-005913D03*
X-005659Y-000407D03*
X-006459Y000353D03*
X-006713D03*
X-006459Y-000407D03*
G54D39*
X-000826Y-000381D03*
X-001626D03*
X-002426D03*
X-003226D03*
X-008313Y-000407D03*
X-007513D03*
X-005913D03*
X-006713D03*
G54D40*
X000199Y-001999D03*
G54D41*
X-007353Y-001101D03*
X-00748Y-001355D03*
X-007607Y-001101D03*
X-006467D03*
X-00634Y-001355D03*
X-006213Y-001101D03*
X-005075D03*
X-005202Y-001355D03*
X-00533Y-001101D03*
X-004195D03*
X-004068Y-001355D03*
X-003941Y-001101D03*
X-008868Y-001104D03*
X-008995Y-001358D03*
X-009122Y-001104D03*
X-01026D03*
X-010132Y-001358D03*
X-010006Y-001104D03*
G54D42*
X-007927Y-001991D03*
X-00716D03*
X-006021D03*
X-006787D03*
X-005649D03*
X-004883D03*
X-003748D03*
X-004514D03*
X-009442Y-001993D03*
X-008675D03*
X-009813D03*
X-010579D03*
G54D43*
X-007734Y-001355D03*
X-006594D03*
X-005457D03*
X-004321D03*
X-009249Y-001358D03*
X-010387D03*
G54D44*
X-000848Y-002001D03*
X-001198D03*
X-001548D03*
X-001899D03*
X-002249D03*
X-002599D03*
X-002949D03*
X-003298D03*
G54D45*
X-007961Y-001601D03*
X-006817Y-001607D03*
X-005684Y-001604D03*
X-004559Y-001601D03*
X-005059Y000411D03*
X-006307Y000511D03*
X-003774Y000521D03*
G54D46*
X-009799Y-001344D03*
Y-001154D03*
X-008649Y-001344D03*
Y-001154D03*
G54D47*
X-009121Y-001657D03*
X-008892Y-001751D03*
Y-001562D03*
X-010256Y-001651D03*
X-010027Y-001747D03*
Y-001556D03*
M02*