%FSTAX42Y42*%
%MOMM*%
%SFA1B1*%

%IPPOS*%
%AMD12*
4,1,8,0.650240,-0.180340,0.650240,0.180340,0.480060,0.350520,-0.480060,0.350520,-0.650240,0.180340,-0.650240,-0.180340,-0.480060,-0.350520,0.480060,-0.350520,0.650240,-0.180340,0.0*
1,1,0.340000,0.480060,-0.180340*
1,1,0.340000,0.480060,0.180340*
1,1,0.340000,-0.480060,0.180340*
1,1,0.340000,-0.480060,-0.180340*
%
%AMD13*
4,1,8,0.220980,0.650240,-0.220980,0.650240,-0.449580,0.419100,-0.449580,-0.419100,-0.220980,-0.650240,0.220980,-0.650240,0.449580,-0.419100,0.449580,0.419100,0.220980,0.650240,0.0*
1,1,0.460000,0.220980,0.419100*
1,1,0.460000,-0.220980,0.419100*
1,1,0.460000,-0.220980,-0.419100*
1,1,0.460000,0.220980,-0.419100*
%
%AMD14*
4,1,8,0.180340,0.650240,-0.180340,0.650240,-0.350520,0.480060,-0.350520,-0.480060,-0.180340,-0.650240,0.180340,-0.650240,0.350520,-0.480060,0.350520,0.480060,0.180340,0.650240,0.0*
1,1,0.340000,0.180340,0.480060*
1,1,0.340000,-0.180340,0.480060*
1,1,0.340000,-0.180340,-0.480060*
1,1,0.340000,0.180340,-0.480060*
%
%ADD10C,0.299999*%
%ADD11R,0.999998X0.999998*%
G04~CAMADD=12~8~0.0~0.0~275.6~511.8~66.9~0.0~15~0.0~0.0~0.0~0.0~0~0.0~0.0~0.0~0.0~0~0.0~0.0~0.0~270.0~512.0~276.0*
%ADD12D12*%
G04~CAMADD=13~8~0.0~0.0~354.3~511.8~90.6~0.0~15~0.0~0.0~0.0~0.0~0~0.0~0.0~0.0~0.0~0~0.0~0.0~0.0~0.0~354.3~511.8*
%ADD13D13*%
G04~CAMADD=14~8~0.0~0.0~275.6~511.8~66.9~0.0~15~0.0~0.0~0.0~0.0~0~0.0~0.0~0.0~0.0~0~0.0~0.0~0.0~0.0~275.6~511.8*
%ADD14D14*%
%ADD15C,0.499999*%
%ADD16C,0.799998*%
%ADD17C,0.599999*%
%ADD18C,0.399999*%
%ADD19C,0.250000*%
%ADD20C,5.999988*%
%ADD21C,1.499997*%
%ADD22R,1.499997X1.499997*%
%ADD23C,1.499997*%
%ADD24R,1.499997X1.499997*%
%ADD25R,1.499997X1.499997*%
%ADD26C,1.699997*%
%ADD27C,2.999994*%
%ADD28R,1.699997X1.699997*%
%ADD29O,1.999996X2.999994*%
%ADD30C,0.999998*%
%LNpcb_monitoring_top_front-1*%
%LPD*%
G54D10*
X-007961Y-001758D02*
D01*
X-007978Y-001761*
X-007994Y-001765*
X-008009Y-001771*
X-008024Y-001777*
X-008039Y-001784*
X-008053Y-001792*
X-008067Y-001802*
X-00808Y-001812*
X-008092Y-001823*
X-008103Y-001835*
X-008114Y-001848*
X-008123Y-001861*
X-008132Y-001875*
X-00814Y-001889*
X-008146Y-001904*
X-008152Y-00192*
X-008156Y-001936*
X-00816Y-001952*
X-008162Y-001968*
X-008163Y-001985*
X-008163Y-002001*
X-008162Y-002017*
X-008159Y-002034*
X-008156Y-00205*
X-008151Y-002065*
X-008145Y-002081*
X-008139Y-002096*
X-008131Y-00211*
X-008122Y-002124*
X-008112Y-002137*
X-008102Y-00215*
X-00809Y-002162*
X-008078Y-002173*
X-008065Y-002183*
X-008051Y-002192*
X-008037Y-0022*
X-008022Y-002207*
X-008007Y-002213*
X-007991Y-002218*
X-007975Y-002222*
X-007959Y-002225*
X-007943Y-002226*
X-007926Y-002227*
X-00791Y-002226*
X-007893Y-002224*
X-007877Y-002222*
X-007861Y-002217*
X-007846Y-002212*
X-007831Y-002206*
X-007816Y-002199*
X-007802Y-002191*
X-007788Y-002181*
X-007775Y-002171*
X-007763Y-00216*
X-007752Y-002148*
X-007742Y-002136*
X-007961Y-001758D02*
D01*
X-007978Y-001761*
X-007994Y-001765*
X-008009Y-001771*
X-008024Y-001777*
X-008039Y-001784*
X-008053Y-001792*
X-008067Y-001802*
X-00808Y-001812*
X-008092Y-001823*
X-008103Y-001835*
X-008114Y-001848*
X-008123Y-001861*
X-008132Y-001875*
X-00814Y-001889*
X-008146Y-001904*
X-008152Y-00192*
X-008156Y-001936*
X-00816Y-001952*
X-008162Y-001968*
X-008163Y-001985*
X-008163Y-002001*
X-008162Y-002017*
X-008159Y-002034*
X-008156Y-00205*
X-008151Y-002065*
X-008145Y-002081*
X-008139Y-002096*
X-008131Y-00211*
X-008122Y-002124*
X-008112Y-002137*
X-008102Y-00215*
X-00809Y-002162*
X-008078Y-002173*
X-008065Y-002183*
X-008051Y-002192*
X-008037Y-0022*
X-008022Y-002207*
X-008007Y-002213*
X-007991Y-002218*
X-007975Y-002222*
X-007959Y-002225*
X-007943Y-002226*
X-007926Y-002227*
X-00791Y-002226*
X-007893Y-002224*
X-007877Y-002222*
X-007861Y-002217*
X-007846Y-002212*
X-007831Y-002206*
X-007816Y-002199*
X-007802Y-002191*
X-007788Y-002181*
X-007775Y-002171*
X-007763Y-00216*
X-007752Y-002148*
X-007742Y-002136*
X-007828Y-001579D02*
D01*
X-00783Y-00157*
X-007833Y-001561*
X-007836Y-001552*
X-00784Y-001544*
X-007844Y-001535*
X-007849Y-001527*
X-00785Y-001526*
X-007366Y-002106D02*
D01*
X-007357Y-002121*
X-007347Y-002134*
X-007337Y-002147*
X-007326Y-002159*
X-007314Y-00217*
X-007301Y-00218*
X-007288Y-002189*
X-007273Y-002198*
X-007259Y-002205*
X-007244Y-002211*
X-007228Y-002217*
X-007212Y-002221*
X-007196Y-002224*
X-00718Y-002226*
X-007163Y-002227*
X-007147Y-002226*
X-007131Y-002225*
X-007114Y-002222*
X-007099Y-002218*
X-007083Y-002213*
X-007068Y-002207*
X-007053Y-0022*
X-007038Y-002192*
X-007025Y-002183*
X-007012Y-002173*
X-006999Y-002163*
X-006988Y-002151*
X-006977Y-002138*
X-006974Y-002133*
X-007546Y-001866D02*
D01*
X-007551Y-00186*
X-007555Y-001854*
X-00756Y-001848*
X-007563Y-001844*
X-007546Y-001866D02*
D01*
X-007551Y-00186*
X-007555Y-001854*
X-00756Y-001848*
X-007563Y-001844*
X-007366Y-002106D02*
D01*
X-007357Y-002121*
X-007347Y-002134*
X-007337Y-002147*
X-007326Y-002159*
X-007314Y-00217*
X-007301Y-00218*
X-007288Y-002189*
X-007273Y-002198*
X-007259Y-002205*
X-007244Y-002211*
X-007228Y-002217*
X-007212Y-002221*
X-007196Y-002224*
X-00718Y-002226*
X-007163Y-002227*
X-007147Y-002226*
X-007131Y-002225*
X-007114Y-002222*
X-007099Y-002218*
X-007083Y-002213*
X-007068Y-002207*
X-007053Y-0022*
X-007038Y-002192*
X-007025Y-002183*
X-007012Y-002173*
X-006999Y-002163*
X-006988Y-002151*
X-006977Y-002138*
X-006974Y-002133*
X-006821Y-001758D02*
D01*
X-006838Y-001761*
X-006854Y-001765*
X-006869Y-001771*
X-006884Y-001777*
X-006899Y-001784*
X-006913Y-001792*
X-006927Y-001802*
X-00694Y-001812*
X-006952Y-001823*
X-006963Y-001835*
X-006974Y-001848*
X-006974Y-001848*
D01*
X-006985Y-001836*
X-006996Y-001824*
X-007008Y-001813*
X-007021Y-001802*
X-007034Y-001793*
X-007048Y-001785*
X-007063Y-001777*
X-007078Y-001771*
X-007094Y-001766*
X-00711Y-001762*
X-007126Y-001758*
X-007142Y-001757*
X-007158Y-001756*
X-007175Y-001756*
X-007191Y-001758*
X-007207Y-00176*
X-007223Y-001764*
X-007239Y-001769*
X-007254Y-001775*
X-007269Y-001782*
X-007283Y-00179*
X-007297Y-001799*
X-00731Y-001809*
X-007322Y-001819*
X-007334Y-001831*
X-007345Y-001843*
X-007354Y-001857*
X-007363Y-00187*
X-007371Y-001885*
X-007376Y-001896*
X-006974Y-001848D02*
D01*
X-006985Y-001836*
X-006996Y-001824*
X-007008Y-001813*
X-007021Y-001802*
X-007034Y-001793*
X-007048Y-001785*
X-007063Y-001777*
X-007078Y-001771*
X-007094Y-001766*
X-00711Y-001762*
X-007126Y-001758*
X-007142Y-001757*
X-007158Y-001756*
X-007175Y-001756*
X-007191Y-001758*
X-007207Y-00176*
X-007223Y-001764*
X-007239Y-001769*
X-007254Y-001775*
X-007269Y-001782*
X-007283Y-00179*
X-007297Y-001799*
X-00731Y-001809*
X-007322Y-001819*
X-007334Y-001831*
X-007345Y-001843*
X-007354Y-001857*
X-007363Y-00187*
X-007371Y-001885*
X-007376Y-001896*
X-006821Y-001758D02*
D01*
X-006838Y-001761*
X-006854Y-001765*
X-006869Y-001771*
X-006884Y-001777*
X-006899Y-001784*
X-006913Y-001792*
X-006927Y-001802*
X-00694Y-001812*
X-006952Y-001823*
X-006963Y-001835*
X-006974Y-001848*
X-006974Y-001848*
X-007904Y-001479D02*
D01*
X-007913Y-001476*
X-007922Y-001473*
X-007931Y-00147*
X-00794Y-001469*
X-00795Y-001467*
X-007959Y-001467*
X-007968Y-001467*
X-007978Y-001468*
X-007987Y-001469*
X-007996Y-001471*
X-008005Y-001474*
X-008014Y-001478*
X-008023Y-001481*
X-008031Y-001486*
X-008039Y-001491*
X-008046Y-001497*
X-008053Y-001503*
X-00806Y-00151*
X-008066Y-001517*
X-008072Y-001524*
X-008077Y-001532*
X-008081Y-00154*
X-008085Y-001549*
X-008089Y-001558*
X-008092Y-001567*
X-008094Y-001576*
X-008095Y-001585*
X-008096Y-001594*
X-008096Y-001604*
X-008096Y-001613*
X-008095Y-001622*
X-008093Y-001632*
X-00809Y-001641*
X-008087Y-00165*
X-008084Y-001658*
X-008079Y-001667*
X-008074Y-001675*
X-008069Y-001682*
X-008063Y-00169*
X-008057Y-001697*
X-00805Y-001703*
X-008043Y-001709*
X-008035Y-001714*
X-008027Y-001719*
X-008018Y-001723*
X-00801Y-001727*
X-008001Y-00173*
X-007992Y-001733*
X-007984Y-001735*
X-007564Y-001468D02*
D01*
X-007556Y-001474*
X-007548Y-001479*
X-007539Y-001484*
X-00753Y-001487*
X-007521Y-00149*
X-007512Y-001493*
X-007502Y-001495*
X-007492Y-001496*
X-007483Y-001496*
X-007473Y-001496*
X-007463Y-001495*
X-007453Y-001494*
X-007444Y-001492*
X-007435Y-001489*
X-007426Y-001485*
X-007417Y-001481*
X-007408Y-001476*
X-0074Y-001471*
X-007392Y-001465*
X-007385Y-001459*
X-007378Y-001452*
X-007371Y-001444*
X-007366Y-001437*
X-00736Y-001428*
X-007356Y-00142*
X-007352Y-001411*
X-007348Y-001402*
X-007345Y-001392*
X-007343Y-001383*
X-007342Y-001373*
X-007341Y-001364*
X-00734Y-001355*
X-007904Y-001211D02*
D01*
X-007897Y-001212*
X-007894Y-001211*
X-007904D02*
D01*
X-007897Y-001212*
X-007894Y-001211*
X-007972Y-001179D02*
D01*
X-007967Y-001185*
X-007961Y-00119*
X-007955Y-001194*
X-007948Y-001198*
X-007941Y-001201*
X-007934Y-001204*
X-007927Y-001207*
X-007919Y-001209*
X-007912Y-00121*
X-007904Y-001211*
X-007972Y-001179D02*
D01*
X-007967Y-001185*
X-007961Y-00119*
X-007955Y-001194*
X-007948Y-001198*
X-007941Y-001201*
X-007934Y-001204*
X-007927Y-001207*
X-007919Y-001209*
X-007912Y-00121*
X-007904Y-001211*
X-00748Y-000988D02*
D01*
X-007489Y-00098*
X-007497Y-000972*
X-007507Y-000965*
X-007517Y-000958*
X-007521Y-000955*
X-007677Y-000946D02*
D01*
X-007688Y-000952*
X-007698Y-000958*
X-007708Y-000964*
X-007718Y-000972*
X-007726Y-00098*
X-007734Y-000988*
X-007737Y-000992*
X-006764Y-001482D02*
D01*
X-006773Y-001479*
X-006782Y-001476*
X-006791Y-001474*
X-006801Y-001473*
X-00681Y-001472*
X-006819Y-001472*
X-006829Y-001473*
X-006838Y-001474*
X-006847Y-001476*
X-006856Y-001478*
X-006865Y-001481*
X-006874Y-001485*
X-006882Y-001489*
X-00689Y-001494*
X-006898Y-001499*
X-006905Y-001505*
X-006912Y-001512*
X-006918Y-001519*
X-006924Y-001526*
X-00693Y-001534*
X-006934Y-001542*
X-006939Y-00155*
X-006942Y-001559*
X-006945Y-001568*
X-006948Y-001577*
X-006949Y-001586*
X-00695Y-001595*
X-006951Y-001605*
X-006951Y-001614*
X-00695Y-001623*
X-006948Y-001633*
X-006946Y-001642*
X-006943Y-001651*
X-00694Y-00166*
X-006936Y-001668*
X-006931Y-001676*
X-006926Y-001684*
X-006921Y-001692*
X-006914Y-001699*
X-006908Y-001705*
X-006901Y-001711*
X-006893Y-001717*
X-006885Y-001722*
X-006877Y-001727*
X-006868Y-00173*
X-00686Y-001734*
X-006851Y-001737*
X-006842Y-001739*
X-006839Y-00174*
X-00734Y-001355D02*
D01*
X-007341Y-001346*
X-007342Y-001336*
X-007344Y-001326*
X-007346Y-001317*
X-007349Y-001308*
X-007353Y-001299*
X-007357Y-00129*
X-007362Y-001281*
X-007367Y-001273*
X-007369Y-001271*
D01*
X-007358Y-001272*
X-007346Y-001272*
X-007334Y-001271*
X-007322Y-001269*
X-007311Y-001267*
X-007299Y-001263*
X-007288Y-001259*
X-007278Y-001254*
X-007267Y-001249*
X-007257Y-001242*
X-007248Y-001235*
X-007239Y-001227*
X-00723Y-001219*
X-007222Y-00121*
X-007215Y-001201*
X-007209Y-001191*
X-007203Y-001181*
X-007198Y-00117*
X-007193Y-001159*
X-00719Y-001148*
X-007187Y-001136*
X-007185Y-001124*
X-007184Y-001113*
X-007183Y-001101*
X-007422Y-000946D02*
D01*
X-007433Y-000952*
X-007443Y-000958*
X-007453Y-000964*
X-007463Y-000972*
X-007471Y-000979*
X-00748Y-000988*
X-00748Y-000988*
X-007183Y-001101D02*
D01*
X-007184Y-00109*
X-007185Y-001078*
X-007187Y-001066*
X-00719Y-001055*
X-007194Y-001043*
X-007198Y-001032*
X-007203Y-001022*
X-007209Y-001011*
X-007216Y-001002*
X-007223Y-000992*
X-007231Y-000983*
X-00724Y-000975*
X-007249Y-000968*
X-007258Y-000961*
X-007268Y-000954*
X-007279Y-000949*
X-007284Y-000946*
X-006974Y-001179D02*
D01*
X-006969Y-001185*
X-006963Y-00119*
X-006957Y-001194*
X-00695Y-001198*
X-006943Y-001201*
X-006936Y-001204*
X-006929Y-001207*
X-006921Y-001209*
X-006914Y-00121*
X-006906Y-001211*
X-006898Y-001212*
X-006896Y-001211*
X-006974Y-001179D02*
D01*
X-006969Y-001185*
X-006963Y-00119*
X-006957Y-001194*
X-00695Y-001198*
X-006943Y-001201*
X-006936Y-001204*
X-006929Y-001207*
X-006921Y-001209*
X-006914Y-00121*
X-006906Y-001211*
X-006898Y-001212*
X-006896Y-001211*
X-006867Y-000975D02*
D01*
X-006861Y-000978*
X-006854Y-000979*
X-006847Y-00098*
X-006839Y-000981*
X-006834Y-000981*
X-006738D02*
D01*
X-006731Y-000981*
X-006724Y-000981*
X-006717Y-000979*
X-00671Y-000978*
X-006704Y-000975*
X-006697Y-000973*
X-006694Y-000971*
X-006974Y-002133D02*
D01*
X-006964Y-002146*
X-006953Y-002158*
X-006941Y-002169*
X-006928Y-00218*
X-006915Y-002189*
X-006901Y-002197*
X-006886Y-002205*
X-006871Y-002211*
X-006855Y-002216*
X-006839Y-00222*
X-006823Y-002224*
X-006807Y-002225*
X-006791Y-002226*
X-006774Y-002226*
X-006758Y-002224*
X-006742Y-002222*
X-006726Y-002218*
X-00671Y-002213*
X-006695Y-002207*
X-00668Y-0022*
X-006666Y-002192*
X-006652Y-002183*
X-006639Y-002173*
X-006627Y-002163*
X-006615Y-002151*
X-006604Y-002139*
X-006602Y-002136*
X-006974Y-002133D02*
D01*
X-006964Y-002146*
X-006953Y-002158*
X-006941Y-002169*
X-006928Y-00218*
X-006915Y-002189*
X-006901Y-002197*
X-006886Y-002205*
X-006871Y-002211*
X-006855Y-002216*
X-006839Y-00222*
X-006823Y-002224*
X-006807Y-002225*
X-006791Y-002226*
X-006774Y-002226*
X-006758Y-002224*
X-006742Y-002222*
X-006726Y-002218*
X-00671Y-002213*
X-006695Y-002207*
X-00668Y-0022*
X-006666Y-002192*
X-006652Y-002183*
X-006639Y-002173*
X-006627Y-002163*
X-006615Y-002151*
X-006604Y-002139*
X-006602Y-002136*
X-006414Y-001866D02*
D01*
X-006418Y-001859*
X-006421Y-001853*
X-006425Y-001846*
X-00643Y-00184*
X-006435Y-001834*
X-006438Y-001829*
X-006414Y-001866D02*
D01*
X-006418Y-001859*
X-006421Y-001853*
X-006425Y-001846*
X-00643Y-00184*
X-006435Y-001834*
X-006438Y-001829*
X-006225Y-002106D02*
D01*
X-006217Y-002121*
X-006207Y-002134*
X-006197Y-002147*
X-006186Y-002159*
X-006174Y-00217*
X-006161Y-00218*
X-006148Y-002189*
X-006133Y-002198*
X-006119Y-002205*
X-006104Y-002211*
X-006088Y-002217*
X-006072Y-002221*
X-006056Y-002224*
X-00604Y-002226*
X-006023Y-002227*
X-006007Y-002226*
X-005991Y-002225*
X-005974Y-002222*
X-005959Y-002218*
X-005943Y-002213*
X-005928Y-002207*
X-005913Y-0022*
X-005898Y-002192*
X-005885Y-002183*
X-005872Y-002173*
X-005859Y-002163*
X-005848Y-002151*
X-005837Y-002138*
X-005835Y-002134*
X-006225Y-002106D02*
D01*
X-006217Y-002121*
X-006207Y-002134*
X-006197Y-002147*
X-006186Y-002159*
X-006174Y-00217*
X-006161Y-00218*
X-006148Y-002189*
X-006133Y-002198*
X-006119Y-002205*
X-006104Y-002211*
X-006088Y-002217*
X-006072Y-002221*
X-006056Y-002224*
X-00604Y-002226*
X-006023Y-002227*
X-006007Y-002226*
X-005991Y-002225*
X-005974Y-002222*
X-005959Y-002218*
X-005943Y-002213*
X-005928Y-002207*
X-005913Y-0022*
X-005898Y-002192*
X-005885Y-002183*
X-005872Y-002173*
X-005859Y-002163*
X-005848Y-002151*
X-005837Y-002138*
X-005835Y-002134*
Y-001847D02*
D01*
X-005846Y-001835*
X-005857Y-001823*
X-00587Y-001812*
X-005882Y-001802*
X-005896Y-001793*
X-00591Y-001784*
X-005925Y-001777*
X-00594Y-001771*
X-005956Y-001766*
X-005972Y-001762*
X-005988Y-001759*
X-006004Y-001757*
X-00602Y-001756*
X-006037Y-001757*
X-006053Y-001758*
X-006069Y-001761*
X-006085Y-001765*
X-006101Y-00177*
X-006116Y-001776*
X-006131Y-001783*
X-006145Y-001791*
X-006159Y-001801*
X-006172Y-001811*
X-006184Y-001822*
X-006196Y-001833*
X-006206Y-001846*
X-006216Y-001859*
X-006225Y-001873*
X-006232Y-001887*
X-006236Y-001896*
X-005835Y-001847D02*
D01*
X-005846Y-001835*
X-005857Y-001823*
X-00587Y-001812*
X-005882Y-001802*
X-005896Y-001793*
X-00591Y-001784*
X-005925Y-001777*
X-00594Y-001771*
X-005956Y-001766*
X-005972Y-001762*
X-005988Y-001759*
X-006004Y-001757*
X-00602Y-001756*
X-006037Y-001757*
X-006053Y-001758*
X-006069Y-001761*
X-006085Y-001765*
X-006101Y-00177*
X-006116Y-001776*
X-006131Y-001783*
X-006145Y-001791*
X-006159Y-001801*
X-006172Y-001811*
X-006184Y-001822*
X-006196Y-001833*
X-006206Y-001846*
X-006216Y-001859*
X-006225Y-001873*
X-006232Y-001887*
X-006236Y-001896*
X-005835Y-002134D02*
D01*
X-005825Y-002147*
X-005814Y-002159*
X-005801Y-00217*
X-005789Y-00218*
X-005775Y-002189*
X-005761Y-002198*
X-005746Y-002205*
X-005731Y-002211*
X-005715Y-002216*
X-005699Y-00222*
X-005683Y-002223*
X-005667Y-002225*
X-005651Y-002226*
X-005634Y-002225*
X-005618Y-002224*
X-005602Y-002221*
X-005586Y-002217*
X-00557Y-002212*
X-005555Y-002206*
X-00554Y-002199*
X-005526Y-002191*
X-005512Y-002181*
X-005499Y-002171*
X-005487Y-00216*
X-005475Y-002149*
X-005464Y-002136*
X-005835Y-002134D02*
D01*
X-005825Y-002147*
X-005814Y-002159*
X-005801Y-00217*
X-005789Y-00218*
X-005775Y-002189*
X-005761Y-002198*
X-005746Y-002205*
X-005731Y-002211*
X-005715Y-002216*
X-005699Y-00222*
X-005683Y-002223*
X-005667Y-002225*
X-005651Y-002226*
X-005634Y-002225*
X-005618Y-002224*
X-005602Y-002221*
X-005586Y-002217*
X-00557Y-002212*
X-005555Y-002206*
X-00554Y-002199*
X-005526Y-002191*
X-005512Y-002181*
X-005499Y-002171*
X-005487Y-00216*
X-005475Y-002149*
X-005464Y-002136*
X-005088Y-002106D02*
D01*
X-00508Y-002121*
X-00507Y-002134*
X-00506Y-002147*
X-005049Y-002159*
X-005037Y-00217*
X-005024Y-00218*
X-005011Y-002189*
X-004996Y-002198*
X-004982Y-002205*
X-004967Y-002211*
X-004951Y-002217*
X-004935Y-002221*
X-004919Y-002224*
X-004903Y-002226*
X-004886Y-002227*
X-00487Y-002226*
X-004854Y-002225*
X-004837Y-002222*
X-004822Y-002218*
X-004806Y-002213*
X-004791Y-002207*
X-004776Y-0022*
X-004761Y-002192*
X-004748Y-002183*
X-004735Y-002173*
X-004722Y-002163*
X-004711Y-002151*
X-0047Y-002138*
X-004699Y-002136*
X-005088Y-002106D02*
D01*
X-00508Y-002121*
X-00507Y-002134*
X-00506Y-002147*
X-005049Y-002159*
X-005037Y-00217*
X-005024Y-00218*
X-005011Y-002189*
X-004996Y-002198*
X-004982Y-002205*
X-004967Y-002211*
X-004951Y-002217*
X-004935Y-002221*
X-004919Y-002224*
X-004903Y-002226*
X-004886Y-002227*
X-00487Y-002226*
X-004854Y-002225*
X-004837Y-002222*
X-004822Y-002218*
X-004806Y-002213*
X-004791Y-002207*
X-004776Y-0022*
X-004761Y-002192*
X-004748Y-002183*
X-004735Y-002173*
X-004722Y-002163*
X-004711Y-002151*
X-0047Y-002138*
X-004699Y-002136*
X-005271Y-001866D02*
D01*
X-005276Y-00186*
X-00528Y-001854*
X-005285Y-001848*
X-005288Y-001844*
X-005271Y-001866D02*
D01*
X-005276Y-00186*
X-00528Y-001854*
X-005285Y-001848*
X-005288Y-001844*
X-005685Y-001758D02*
D01*
X-005702Y-001762*
X-005717Y-001766*
X-005733Y-001771*
X-005748Y-001777*
X-005763Y-001785*
X-005777Y-001793*
X-00579Y-001803*
X-005803Y-001813*
X-005815Y-001824*
X-005826Y-001836*
X-005835Y-001847*
X-005685Y-001758D02*
D01*
X-005702Y-001762*
X-005717Y-001766*
X-005733Y-001771*
X-005748Y-001777*
X-005763Y-001785*
X-005777Y-001793*
X-00579Y-001803*
X-005803Y-001813*
X-005815Y-001824*
X-005826Y-001836*
X-005835Y-001847*
X-004699Y-001845D02*
D01*
X-004709Y-001833*
X-004721Y-001821*
X-004733Y-00181*
X-004746Y-0018*
X-00476Y-001791*
X-004774Y-001783*
X-004789Y-001776*
X-004804Y-00177*
X-00482Y-001765*
X-004836Y-001761*
X-004852Y-001758*
X-004868Y-001756*
X-004885Y-001756*
X-004901Y-001756*
X-004917Y-001758*
X-004934Y-001761*
X-00495Y-001765*
X-004965Y-00177*
X-00498Y-001777*
X-004995Y-001784*
X-005009Y-001792*
X-005023Y-001802*
X-005036Y-001812*
X-005048Y-001823*
X-005059Y-001835*
X-00507Y-001847*
X-00508Y-001861*
X-005088Y-001875*
X-005096Y-001889*
X-005098Y-001896*
X-004699Y-001845D02*
D01*
X-004709Y-001833*
X-004721Y-001821*
X-004733Y-00181*
X-004746Y-0018*
X-00476Y-001791*
X-004774Y-001783*
X-004789Y-001776*
X-004804Y-00177*
X-00482Y-001765*
X-004836Y-001761*
X-004852Y-001758*
X-004868Y-001756*
X-004885Y-001756*
X-004901Y-001756*
X-004917Y-001758*
X-004934Y-001761*
X-00495Y-001765*
X-004965Y-00177*
X-00498Y-001777*
X-004995Y-001784*
X-005009Y-001792*
X-005023Y-001802*
X-005036Y-001812*
X-005048Y-001823*
X-005059Y-001835*
X-00507Y-001847*
X-00508Y-001861*
X-005088Y-001875*
X-005096Y-001889*
X-005098Y-001896*
X-006683Y-001584D02*
D01*
X-006685Y-001575*
X-006688Y-001566*
X-006691Y-001557*
X-006695Y-001549*
X-006699Y-00154*
X-006704Y-001532*
X-006709Y-001526*
X-006424Y-001468D02*
D01*
X-006416Y-001474*
X-006408Y-001479*
X-006399Y-001484*
X-00639Y-001487*
X-006381Y-00149*
X-006372Y-001493*
X-006362Y-001495*
X-006352Y-001496*
X-006343Y-001496*
X-006333Y-001496*
X-006323Y-001495*
X-006313Y-001494*
X-006304Y-001492*
X-006295Y-001489*
X-006286Y-001485*
X-006277Y-001481*
X-006268Y-001476*
X-00626Y-001471*
X-006252Y-001465*
X-006245Y-001459*
X-006238Y-001452*
X-006231Y-001444*
X-006226Y-001437*
X-00622Y-001428*
X-006216Y-00142*
X-006212Y-001411*
X-006208Y-001402*
X-006205Y-001392*
X-006203Y-001383*
X-006202Y-001373*
X-006201Y-001364*
X-0062Y-001355*
D01*
X-006201Y-001346*
X-006202Y-001336*
X-006204Y-001326*
X-006206Y-001317*
X-006209Y-001308*
X-006213Y-001299*
X-006217Y-00129*
X-006222Y-001281*
X-006227Y-001273*
X-006229Y-001271*
D01*
X-006218Y-001272*
X-006206Y-001272*
X-006194Y-001271*
X-006182Y-001269*
X-006171Y-001267*
X-006159Y-001263*
X-006148Y-001259*
X-006138Y-001254*
X-006127Y-001249*
X-006117Y-001242*
X-006108Y-001235*
X-006099Y-001227*
X-00609Y-001219*
X-006082Y-00121*
X-006075Y-001201*
X-006069Y-001191*
X-006063Y-001181*
X-006058Y-00117*
X-006057Y-001169*
X-006576Y-000971D02*
D01*
X-006585Y-000979*
X-006594Y-000988*
X-006597Y-000992*
X-00634Y-000988D02*
D01*
X-006349Y-00098*
X-006357Y-000972*
X-006358Y-000971*
X-006322D02*
D01*
X-006331Y-000979*
X-00634Y-000988*
X-00634Y-000988*
X-006047Y-001179D02*
D01*
X-006042Y-001185*
X-006036Y-00119*
X-00603Y-001194*
X-006023Y-001198*
X-006016Y-001201*
X-006009Y-001204*
X-006002Y-001207*
X-005994Y-001209*
X-005987Y-00121*
X-005979Y-001211*
X-005971Y-001212*
X-005969Y-001211*
X-006047Y-001179D02*
D01*
X-006042Y-001185*
X-006036Y-00119*
X-00603Y-001194*
X-006023Y-001198*
X-006016Y-001201*
X-006009Y-001204*
X-006002Y-001207*
X-005994Y-001209*
X-005987Y-00121*
X-005979Y-001211*
X-005971Y-001212*
X-005969Y-001211*
X-005936Y-000979D02*
D01*
X-005929Y-000979*
X-005922Y-000978*
X-005915Y-000977*
X-005909Y-000975*
X-005902Y-000972*
X-005895Y-000969*
X-005551Y-001582D02*
D01*
X-005553Y-001573*
X-005556Y-001564*
X-005559Y-001555*
X-005563Y-001547*
X-005567Y-001538*
X-005572Y-00153*
X-005574Y-001526*
X-005627Y-001482D02*
D01*
X-005636Y-001479*
X-005645Y-001476*
X-005654Y-001473*
X-005663Y-001472*
X-005673Y-00147*
X-005682Y-00147*
X-005691Y-00147*
X-005701Y-001471*
X-00571Y-001472*
X-005719Y-001474*
X-005728Y-001477*
X-005737Y-001481*
X-005746Y-001484*
X-005754Y-001489*
X-005762Y-001494*
X-005769Y-0015*
X-005776Y-001506*
X-005783Y-001513*
X-005789Y-00152*
X-005795Y-001527*
X-0058Y-001535*
X-005804Y-001543*
X-005808Y-001552*
X-005812Y-001561*
X-005815Y-00157*
X-005817Y-001579*
X-005818Y-001588*
X-005819Y-001597*
X-005819Y-001607*
X-005819Y-001616*
X-005818Y-001625*
X-005816Y-001635*
X-005813Y-001644*
X-00581Y-001653*
X-005807Y-001661*
X-005802Y-00167*
X-005797Y-001678*
X-005792Y-001685*
X-005786Y-001693*
X-00578Y-0017*
X-005773Y-001706*
X-005766Y-001712*
X-005758Y-001717*
X-00575Y-001722*
X-005741Y-001726*
X-005733Y-00173*
X-005724Y-001733*
X-005715Y-001736*
X-005706Y-001737*
X-005287Y-001468D02*
D01*
X-005279Y-001474*
X-005271Y-001479*
X-005262Y-001484*
X-005253Y-001487*
X-005244Y-00149*
X-005235Y-001493*
X-005225Y-001495*
X-005215Y-001496*
X-005206Y-001496*
X-005196Y-001496*
X-005186Y-001495*
X-005176Y-001494*
X-005167Y-001492*
X-005158Y-001489*
X-005149Y-001485*
X-00514Y-001481*
X-005131Y-001476*
X-005123Y-001471*
X-005115Y-001465*
X-005108Y-001459*
X-005101Y-001452*
X-005094Y-001444*
X-005089Y-001437*
X-005083Y-001428*
X-005079Y-00142*
X-005075Y-001411*
X-005071Y-001402*
X-005068Y-001392*
X-005066Y-001383*
X-005065Y-001373*
X-005064Y-001364*
X-005062Y-001355*
D01*
X-005063Y-001346*
X-005064Y-001336*
X-005066Y-001326*
X-005068Y-001317*
X-005071Y-001308*
X-005075Y-001299*
X-005079Y-00129*
X-005084Y-001281*
X-005089Y-001273*
X-005091Y-001271*
X-005436Y-000969D02*
D01*
X-005446Y-000977*
X-005454Y-000986*
X-005459Y-000992*
X-005091Y-001271D02*
D01*
X-00508Y-001272*
X-005068Y-001272*
X-005056Y-001271*
X-005044Y-001269*
X-005033Y-001267*
X-005021Y-001263*
X-00501Y-001259*
X-005Y-001254*
X-004989Y-001249*
X-004979Y-001242*
X-00497Y-001235*
X-004961Y-001227*
X-004952Y-001219*
X-004944Y-00121*
X-004937Y-001201*
X-004931Y-001191*
X-004925Y-001181*
X-00492Y-00117*
X-004915Y-001159*
X-004912Y-001148*
X-004909Y-001136*
X-004907Y-001124*
X-004906Y-001113*
X-004905Y-001101*
X-005202Y-000988D02*
D01*
X-005211Y-00098*
X-005219Y-000972*
X-005223Y-000969*
X-005182D02*
D01*
X-005192Y-000977*
X-0052Y-000986*
X-005202Y-000988*
X-010149Y-000713D02*
D01*
X-010141Y-000718*
X-010133Y-000721*
X-010124Y-000724*
X-010116Y-000726*
X-010107Y-000728*
X-010098Y-000729*
X-010089Y-00073*
X-01008Y-00073*
X-01007Y-000729*
X-010061Y-000727*
X-010053Y-000725*
X-010044Y-000723*
X-010035Y-000719*
X-010027Y-000715*
X-010019Y-000711*
X-010012Y-000706*
X-010004Y-000701*
X-009998Y-000695*
X-009991Y-000688*
X-009985Y-000681*
X-00998Y-000674*
X-009975Y-000666*
X-00997Y-000658*
X-009967Y-00065*
X-009963Y-000642*
X-009961Y-000633*
X-009959Y-000627*
D01*
X-009957Y-000636*
X-009954Y-000645*
X-009951Y-000653*
X-009947Y-000661*
X-009942Y-000669*
X-009937Y-000677*
X-009931Y-000684*
X-009925Y-000691*
X-009919Y-000697*
X-009912Y-000703*
X-009904Y-000708*
X-009897Y-000713*
X-009889Y-000717*
X-00988Y-00072*
X-009872Y-000723*
X-009863Y-000726*
X-009854Y-000728*
X-009845Y-000729*
X-009836Y-00073*
X-009827Y-000729*
X-009818Y-000729*
X-009809Y-000727*
X-0098Y-000725*
X-009791Y-000723*
X-009783Y-00072*
X-009775Y-000716*
X-009767Y-000712*
X-009759Y-000707*
X-009752Y-000701*
X-009745Y-000695*
X-009738Y-000689*
X-009732Y-000682*
X-009727Y-000675*
X-009722Y-000668*
X-009717Y-00066*
X-009713Y-000651*
X-00971Y-000643*
X-009707Y-000634*
X-009705Y-000627*
D01*
X-009703Y-000636*
X-0097Y-000645*
X-009697Y-000653*
X-009693Y-000661*
X-009688Y-000669*
X-009683Y-000677*
X-009677Y-000684*
X-009671Y-000691*
X-009665Y-000697*
X-009658Y-000703*
X-00965Y-000708*
X-009643Y-000713*
X-009635Y-000717*
X-009626Y-00072*
X-009618Y-000723*
X-009609Y-000726*
X-0096Y-000728*
X-009591Y-000729*
X-009582Y-00073*
X-009573Y-000729*
X-009564Y-000729*
X-009555Y-000727*
X-009546Y-000725*
X-009537Y-000723*
X-009529Y-00072*
X-009521Y-000716*
X-009513Y-000712*
X-009505Y-000707*
X-009498Y-000701*
X-009491Y-000695*
X-009484Y-000689*
X-009478Y-000682*
X-009473Y-000675*
X-009468Y-000668*
X-009463Y-00066*
X-009459Y-000651*
X-009456Y-000643*
X-009454Y-000638*
X-008536Y-000854D02*
D01*
X-008536Y-000862*
X-008536Y-000869*
X-008534Y-000876*
X-008533Y-000883*
X-00853Y-000889*
X-008528Y-000896*
X-008525Y-000902*
X-008521Y-000909*
X-008517Y-000914*
X-008513Y-00092*
X-008508Y-000925*
X-008503Y-00093*
X-008497Y-000935*
X-008492Y-000939*
X-008485Y-000943*
X-008479Y-000946*
X-008473Y-000949*
X-008466Y-000952*
X-008459Y-000953*
X-008452Y-000955*
X-008445Y-000956*
X-008438Y-000956*
X-008434Y-000956*
X-008338D02*
D01*
X-008331Y-000956*
X-008324Y-000956*
X-008317Y-000954*
X-00831Y-000953*
X-008304Y-00095*
X-008297Y-000948*
X-008294Y-000946*
X-008478Y-000726D02*
D01*
X-008485Y-00073*
X-008491Y-000734*
X-008497Y-000738*
X-008502Y-000742*
X-008508Y-000747*
X-008513Y-000752*
X-008517Y-000758*
X-008521Y-000764*
X-008525Y-00077*
X-008528Y-000777*
X-008531Y-000783*
X-008533Y-00079*
X-008535Y-000797*
X-008536Y-000804*
X-008537Y-000811*
X-008537Y-000818*
X-008536Y-000818*
X-008067Y-00075D02*
D01*
X-008063Y-000754*
X-008059Y-000757*
X-008055Y-00076*
X-00805Y-000763*
X-008045Y-000765*
X-00804Y-000767*
X-008035Y-000769*
X-00803Y-00077*
X-008024Y-000771*
X-008019Y-000771*
X-008014Y-000772*
X-008013Y-000771*
X-007678Y-000726D02*
D01*
X-007685Y-00073*
X-007691Y-000734*
X-007697Y-000738*
X-007702Y-000742*
X-007708Y-000747*
X-007713Y-000752*
X-007717Y-000758*
X-007721Y-000764*
X-007725Y-00077*
X-007728Y-000777*
X-007731Y-000783*
X-007733Y-00079*
X-007735Y-000797*
X-007736Y-000804*
X-007737Y-000811*
X-007737Y-000818*
X-007736Y-000818*
X-007968Y-000771D02*
D01*
X-007963Y-000771*
X-007958Y-000771*
X-007952Y-00077*
X-007947Y-000769*
X-007942Y-000767*
X-007937Y-000765*
X-007932Y-000762*
X-007928Y-00076*
X-007923Y-000757*
X-007919Y-000753*
X-007915Y-00075*
X-007911Y-000746*
X-007908Y-000742*
X-007905Y-000738*
X-007902Y-000733*
X-007899Y-000728*
X-007897Y-000723*
X-007895Y-000718*
X-007894Y-000713*
X-007893Y-000708*
X-007892Y-000703*
X-007892Y-000697*
X-007891Y-000694*
X-008077Y-000763D02*
D01*
X-008073Y-000758*
X-008069Y-000751*
X-008067Y-00075*
X-008536Y-000633D02*
D01*
X-008536Y-000641*
X-008536Y-000648*
X-008534Y-000655*
X-008533Y-000662*
X-00853Y-000668*
X-008528Y-000675*
X-008525Y-000681*
X-008521Y-000688*
X-008517Y-000693*
X-008513Y-000699*
X-008508Y-000704*
X-008503Y-000709*
X-008497Y-000714*
X-008492Y-000718*
X-008485Y-000722*
X-008479Y-000725*
X-008478Y-000726*
X-008067Y-000552D02*
D01*
X-008072Y-000546*
X-008076Y-00054*
X-00808Y-000535*
X-00804Y-000536D02*
D01*
X-008046Y-000538*
X-00805Y-000541*
X-008055Y-000543*
X-00806Y-000546*
X-008064Y-00055*
X-008067Y-000552*
X-00808Y-000535D02*
D01*
X-008072Y-000537*
X-008062Y-000537*
X-008053Y-000537*
X-008044Y-000536*
X-00804Y-000536*
X-008013Y-000531D02*
D01*
X-008019Y-000532*
X-008021Y-000531*
X-007891Y-000608D02*
D01*
X-007892Y-000603*
X-007892Y-000598*
X-007893Y-000592*
X-007894Y-000587*
X-007896Y-000582*
X-007898Y-000577*
X-007901Y-000572*
X-007903Y-000568*
X-007906Y-000563*
X-00791Y-000559*
X-007913Y-000555*
X-007917Y-000551*
X-007921Y-000548*
X-007925Y-000545*
X-00793Y-000542*
X-007935Y-000539*
X-00794Y-000537*
X-007945Y-000535*
X-00795Y-000534*
X-007955Y-000533*
X-00796Y-000532*
X-007966Y-000532*
X-007968Y-000531*
X-007736Y-000633D02*
D01*
X-007736Y-000641*
X-007736Y-000648*
X-007734Y-000655*
X-007733Y-000662*
X-00773Y-000668*
X-007728Y-000675*
X-007725Y-000681*
X-007721Y-000688*
X-007717Y-000693*
X-007713Y-000699*
X-007708Y-000704*
X-007703Y-000709*
X-007697Y-000714*
X-007692Y-000718*
X-007685Y-000722*
X-007679Y-000725*
X-007678Y-000726*
X-009959Y-000571D02*
D01*
X-009962Y-000563*
X-009965Y-000554*
X-009968Y-000546*
X-009972Y-000538*
X-009977Y-00053*
X-009982Y-000522*
X-009988Y-000515*
X-009994Y-000508*
X-01Y-000502*
X-010007Y-000496*
X-010015Y-000491*
X-010022Y-000486*
X-01003Y-000482*
X-010039Y-000479*
X-010047Y-000476*
X-010056Y-000473*
X-010065Y-000471*
X-010074Y-00047*
X-010083Y-000469*
X-010092Y-00047*
X-010101Y-00047*
X-01011Y-000472*
X-010119Y-000474*
X-010128Y-000476*
X-010136Y-000479*
X-010144Y-000483*
X-010149Y-000485*
X-009705Y-000571D02*
D01*
X-009708Y-000563*
X-009711Y-000554*
X-009714Y-000546*
X-009718Y-000538*
X-009723Y-00053*
X-009728Y-000522*
X-009734Y-000515*
X-00974Y-000508*
X-009746Y-000502*
X-009753Y-000496*
X-009761Y-000491*
X-009768Y-000486*
X-009776Y-000482*
X-009785Y-000479*
X-009793Y-000476*
X-009802Y-000473*
X-009811Y-000471*
X-00982Y-00047*
X-009829Y-000469*
X-009838Y-00047*
X-009847Y-00047*
X-009856Y-000472*
X-009865Y-000474*
X-009874Y-000476*
X-009882Y-000479*
X-00989Y-000483*
X-009898Y-000487*
X-009906Y-000492*
X-009913Y-000498*
X-00992Y-000504*
X-009927Y-00051*
X-009933Y-000517*
X-009938Y-000524*
X-009943Y-000531*
X-009948Y-000539*
X-009952Y-000548*
X-009955Y-000556*
X-009958Y-000565*
X-009959Y-000571*
X-009454Y-00056D02*
D01*
X-009458Y-000552*
X-009461Y-000544*
X-009465Y-000536*
X-00947Y-000528*
X-009475Y-00052*
X-009481Y-000513*
X-009487Y-000507*
X-009494Y-000501*
X-009501Y-000495*
X-009509Y-00049*
X-009516Y-000485*
X-009525Y-000481*
X-009533Y-000478*
X-009541Y-000475*
X-00955Y-000473*
X-009559Y-000471*
X-009568Y-00047*
X-009577Y-00047*
X-009586Y-00047*
X-009595Y-000471*
X-009604Y-000472*
X-009613Y-000474*
X-009622Y-000477*
X-00963Y-00048*
X-009638Y-000484*
X-009646Y-000489*
X-009654Y-000494*
X-009661Y-000499*
X-009668Y-000505*
X-009674Y-000512*
X-00968Y-000519*
X-009686Y-000526*
X-00969Y-000533*
X-009695Y-000541*
X-009699Y-00055*
X-009702Y-000558*
X-009704Y-000567*
X-009705Y-000571*
X-009854Y-000149D02*
D01*
X-009843Y-000174*
X-00983Y-000197*
X-009816Y-00022*
X-009799Y-000242*
X-009782Y-000262*
X-009763Y-000281*
X-009743Y-000299*
X-009721Y-000315*
X-009699Y-00033*
X-009675Y-000343*
X-009651Y-000354*
X-009626Y-000364*
X-0096Y-000372*
X-009574Y-000378*
X-009547Y-000382*
X-00952Y-000384*
X-009493Y-000385*
X-009467Y-000383*
X-00944Y-00038*
X-009413Y-000375*
X-009387Y-000368*
X-009362Y-00036*
X-009337Y-000349*
X-009313Y-000337*
X-00929Y-000323*
X-009268Y-000308*
X-009247Y-000291*
X-009227Y-000272*
X-009209Y-000253*
X-009192Y-000232*
X-009177Y-00021*
X-009163Y-000187*
X-00915Y-000163*
X-009144Y-000149*
X-008496Y-000517D02*
D01*
X-008502Y-000522*
X-008507Y-000527*
X-008512Y-000532*
X-008516Y-000538*
X-00852Y-000544*
X-008524Y-00055*
X-008527Y-000556*
X-00853Y-000563*
X-008532Y-000569*
X-008534Y-000576*
X-008535Y-000583*
X-008536Y-00059*
X-008536Y-000597*
Y-000598*
X-007696Y-000517D02*
D01*
X-007702Y-000522*
X-007707Y-000527*
X-007712Y-000532*
X-007716Y-000538*
X-00772Y-000544*
X-007724Y-00055*
X-007727Y-000556*
X-00773Y-000563*
X-007732Y-000569*
X-007734Y-000576*
X-007735Y-000583*
X-007736Y-00059*
X-007736Y-000597*
Y-000598*
X-008021Y-000531D02*
D01*
X-008013Y-000529*
X-008005Y-000525*
X-007997Y-000521*
X-007989Y-000516*
X-007981Y-000511*
X-007974Y-000505*
X-007968Y-000499*
X-007962Y-000493*
X-007956Y-000485*
X-007951Y-000478*
X-007946Y-00047*
X-007942Y-000462*
X-007938Y-000454*
X-007935Y-000445*
X-007933Y-000437*
X-007931Y-000428*
X-00793Y-000419*
X-00793Y-00041*
X-007929Y-000407*
X-008473Y-000413D02*
D01*
X-008478Y-00042*
X-008482Y-000426*
X-008486Y-000433*
X-008489Y-00044*
X-008491Y-000447*
X-008493Y-000455*
X-008495Y-000462*
X-008496Y-00047*
X-008496Y-000477*
X-008496Y-00048*
X-008473Y-000413D02*
D01*
X-008478Y-00042*
X-008482Y-000426*
X-008486Y-000433*
X-008489Y-00044*
X-008491Y-000447*
X-008493Y-000455*
X-008495Y-000462*
X-008496Y-00047*
X-008496Y-000477*
X-008496Y-00048*
X-007929Y-000407D02*
D01*
X-00793Y-000398*
X-007931Y-000389*
X-007932Y-00038*
X-007935Y-000372*
X-007937Y-000363*
X-007941Y-000355*
X-007945Y-000346*
X-007949Y-000339*
X-007954Y-000331*
X-00796Y-000324*
X-007966Y-000317*
X-007973Y-000311*
X-007979Y-000305*
X-007987Y-0003*
X-007994Y-000295*
X-008003Y-000291*
X-008011Y-000287*
X-008019Y-000284*
X-008028Y-000281*
X-008037Y-000279*
X-008046Y-000278*
X-008055Y-000278*
X-008064*
X-008073Y-000278*
X-008082Y-000279*
X-008091Y-000281*
X-0081Y-000284*
X-008108Y-000287*
X-008116Y-000291*
X-008124Y-000295*
X-008132Y-0003*
X-00814Y-000305*
X-008146Y-000311*
X-008153Y-000317*
X-008153Y-000317*
X-007521Y-000955D02*
D01*
X-007514Y-000954*
X-007508Y-000952*
X-007501Y-00095*
X-007494Y-000947*
X-007494Y-000946*
X-007736Y-000854D02*
D01*
X-007736Y-000862*
X-007736Y-000869*
X-007734Y-000876*
X-007733Y-000883*
X-00773Y-000889*
X-007728Y-000896*
X-007725Y-000902*
X-007721Y-000909*
X-007717Y-000914*
X-007713Y-00092*
X-007708Y-000925*
X-007703Y-00093*
X-007697Y-000935*
X-007692Y-000939*
X-007685Y-000943*
X-007679Y-000946*
X-007677Y-000946*
X-007084Y-000758D02*
D01*
X-00709Y-000753*
X-007096Y-000748*
X-007102Y-000744*
X-007107Y-000741*
D01*
X-007104Y-000737*
X-007102Y-000733*
X-007099Y-000728*
X-007097Y-000723*
X-007095Y-000718*
X-007094Y-000713*
X-007093Y-000707*
X-007092Y-000702*
X-007092Y-000697*
X-007091Y-000694*
X-007084Y-000758D02*
D01*
X-00709Y-000753*
X-007096Y-000748*
X-007102Y-000744*
X-007107Y-000741*
X-006936Y-000879D02*
D01*
X-006936Y-000887*
X-006936Y-000894*
X-006934Y-000901*
X-006933Y-000908*
X-00693Y-000912*
X-006936Y-000658D02*
D01*
X-006936Y-000666*
X-006936Y-000673*
X-006934Y-00068*
X-006933Y-000687*
X-00693Y-000693*
X-006928Y-0007*
X-006925Y-000706*
X-006921Y-000713*
X-006917Y-000718*
X-006913Y-000724*
X-006908Y-000729*
X-006903Y-000734*
X-006897Y-000739*
X-006892Y-000743*
X-006885Y-000747*
X-006879Y-00075*
X-006878Y-000751*
D01*
X-006885Y-000755*
X-006891Y-000759*
X-006897Y-000763*
X-006902Y-000767*
X-006908Y-000772*
X-006913Y-000777*
X-006917Y-000783*
X-006921Y-000789*
X-006925Y-000795*
X-006928Y-000802*
X-006931Y-000808*
X-006933Y-000815*
X-006935Y-000822*
X-006936Y-000829*
X-006937Y-000836*
X-006937Y-000843*
X-006936Y-000843*
X-006896Y-000542D02*
D01*
X-006902Y-000547*
X-006907Y-000552*
X-006912Y-000557*
X-006916Y-000563*
X-00692Y-000569*
X-006924Y-000575*
X-006927Y-000581*
X-00693Y-000588*
X-006932Y-000594*
X-006934Y-000601*
X-006935Y-000608*
X-006936Y-000615*
X-006936Y-000622*
Y-000623*
X-007267Y-000552D02*
D01*
X-007272Y-000546*
X-007276Y-00054*
X-00728Y-000535*
X-00724Y-000536D02*
D01*
X-007246Y-000538*
X-00725Y-000541*
X-007255Y-000543*
X-00726Y-000546*
X-007264Y-00055*
X-007267Y-000552*
X-00728Y-000535D02*
D01*
X-007272Y-000537*
X-007262Y-000537*
X-007253Y-000537*
X-007244Y-000536*
X-00724Y-000536*
X-007213Y-000531D02*
D01*
X-007219Y-000532*
X-007221Y-000531*
X-007091Y-000608D02*
D01*
X-007092Y-000603*
X-007092Y-000598*
X-007093Y-000592*
X-007094Y-000587*
X-007096Y-000582*
X-007098Y-000577*
X-007101Y-000572*
X-007103Y-000568*
X-007106Y-000563*
X-00711Y-000559*
X-007113Y-000555*
X-007117Y-000551*
X-007121Y-000548*
X-007125Y-000545*
X-00713Y-000542*
X-007135Y-000539*
X-00714Y-000537*
X-007145Y-000535*
X-00715Y-000534*
X-007155Y-000533*
X-00716Y-000532*
X-007166Y-000532*
X-007168Y-000531*
X-006467Y-000577D02*
D01*
X-006472Y-000571*
X-006476Y-000565*
X-006481Y-00056*
X-006486Y-000554*
X-006492Y-000549*
X-006498Y-000545*
X-006505Y-000541*
X-006511Y-000537*
X-006518Y-000534*
X-006525Y-000531*
X-006532Y-000529*
X-00654Y-000528*
X-006547Y-000527*
X-006553Y-000526*
X-006413Y-000556D02*
D01*
X-006419Y-000557*
X-006424Y-000557*
X-00643Y-000558*
X-006435Y-000559*
X-00644Y-000561*
X-006445Y-000563*
X-00645Y-000566*
X-006454Y-000568*
X-006459Y-000571*
X-006463Y-000575*
X-006467Y-000577*
X-006291Y-000633D02*
D01*
X-006292Y-000628*
X-006292Y-000623*
X-006293Y-000617*
X-006294Y-000612*
X-006296Y-000607*
X-006298Y-000602*
X-006301Y-000597*
X-006303Y-000593*
X-006306Y-000588*
X-00631Y-000584*
X-006313Y-00058*
X-006317Y-000576*
X-006321Y-000573*
X-006325Y-00057*
X-00633Y-000567*
X-006335Y-000564*
X-00634Y-000562*
X-006345Y-00056*
X-00635Y-000559*
X-006355Y-000558*
X-00636Y-000557*
X-006366Y-000557*
X-006368Y-000556*
X-006132Y-000783D02*
D01*
X-006138Y-000778*
X-006144Y-000773*
X-00615Y-000769*
X-006157Y-000765*
X-006164Y-000762*
X-006171Y-000759*
X-006178Y-000756*
X-006186Y-000754*
X-006193Y-000753*
X-006201Y-000752*
X-006209Y-000751*
X-006209Y-000751*
X-006132Y-000783D02*
D01*
X-006138Y-000778*
X-006144Y-000773*
X-00615Y-000769*
X-006157Y-000765*
X-006164Y-000762*
X-006171Y-000759*
X-006178Y-000756*
X-006186Y-000754*
X-006193Y-000753*
X-006201Y-000752*
X-006209Y-000751*
X-006209Y-000751*
X-006298D02*
D01*
X-006296Y-000747*
X-006295Y-000741*
X-006293Y-000736*
X-006292Y-000731*
X-006292Y-000726*
X-006292Y-00072*
X-006291Y-000719*
X-006078Y-000749D02*
D01*
X-006085Y-000753*
X-006091Y-000757*
X-006097Y-000761*
X-006102Y-000765*
X-006108Y-00077*
X-006113Y-000775*
X-006117Y-000781*
X-006121Y-000787*
X-006123Y-000791*
X-006137Y-000656D02*
D01*
X-006137Y-000664*
X-006137Y-000671*
X-006135Y-000678*
X-006134Y-000685*
X-006131Y-000691*
X-006129Y-000698*
X-006126Y-000704*
X-006122Y-000711*
X-006118Y-000716*
X-006114Y-000722*
X-006109Y-000727*
X-006104Y-000732*
X-006098Y-000737*
X-006093Y-000741*
X-006086Y-000745*
X-00608Y-000748*
X-006078Y-000749*
X-005497D02*
D01*
X-005496Y-000744*
X-005494Y-000739*
X-005493Y-000734*
X-005492Y-000729*
X-005491Y-000723*
X-005491Y-000719*
X-005614Y-000556D02*
D01*
X-00562Y-000557*
X-005625Y-000557*
X-005631Y-000558*
X-005636Y-000559*
X-005641Y-000561*
X-005646Y-000563*
X-005651Y-000566*
X-005655Y-000568*
X-00566Y-000571*
X-005664Y-000575*
X-005667Y-000577*
X-006096Y-00054D02*
D01*
X-006102Y-000545*
X-006107Y-00055*
X-006112Y-000555*
X-006116Y-000561*
X-00612Y-000567*
X-006124Y-000573*
X-006127Y-000579*
X-00613Y-000586*
X-006132Y-000592*
X-006134Y-000599*
X-006135Y-000606*
X-006136Y-000613*
X-006136Y-00062*
X-006137Y-000621*
X-005667Y-000577D02*
D01*
X-005672Y-000571*
X-005676Y-000565*
X-005681Y-00056*
X-005686Y-000554*
X-005692Y-000549*
X-005698Y-000545*
X-005705Y-000541*
X-005711Y-000537*
X-005718Y-000534*
X-005725Y-000531*
X-005732Y-000529*
X-00574Y-000528*
X-005747Y-000527*
X-005753Y-000526*
X-005491Y-000633D02*
D01*
X-005492Y-000628*
X-005492Y-000623*
X-005493Y-000617*
X-005494Y-000612*
X-005496Y-000607*
X-005498Y-000602*
X-005501Y-000597*
X-005503Y-000593*
X-005506Y-000588*
X-00551Y-000584*
X-005513Y-00058*
X-005517Y-000576*
X-005521Y-000573*
X-005525Y-00057*
X-00553Y-000567*
X-005535Y-000564*
X-00554Y-000562*
X-005545Y-00056*
X-00555Y-000559*
X-005555Y-000558*
X-00556Y-000557*
X-005566Y-000557*
X-005568Y-000556*
X-007673Y-000413D02*
D01*
X-007678Y-00042*
X-007682Y-000426*
X-007686Y-000433*
X-007689Y-00044*
X-007691Y-000447*
X-007693Y-000455*
X-007695Y-000462*
X-007696Y-00047*
X-007696Y-000477*
X-007696Y-00048*
X-007673Y-000413D02*
D01*
X-007678Y-00042*
X-007682Y-000426*
X-007686Y-000433*
X-007689Y-00044*
X-007691Y-000447*
X-007693Y-000455*
X-007695Y-000462*
X-007696Y-00047*
X-007696Y-000477*
X-007696Y-00048*
X-007221Y-000531D02*
D01*
X-007213Y-000529*
X-007205Y-000525*
X-007197Y-000521*
X-007189Y-000516*
X-007181Y-000511*
X-007174Y-000505*
X-007168Y-000499*
X-007162Y-000493*
X-007156Y-000485*
X-007151Y-000478*
X-007146Y-00047*
X-007142Y-000462*
X-007138Y-000454*
X-007135Y-000445*
X-007133Y-000437*
X-007131Y-000428*
X-00713Y-000419*
X-00713Y-00041*
X-007129Y-000407*
D01*
X-00713Y-000398*
X-007131Y-000389*
X-007132Y-00038*
X-007135Y-000372*
X-007137Y-000363*
X-007141Y-000355*
X-007145Y-000346*
X-007149Y-000339*
X-007154Y-000331*
X-00716Y-000324*
X-007166Y-000317*
X-007173Y-000311*
X-007179Y-000305*
X-007187Y-0003*
X-007194Y-000295*
X-007203Y-000291*
X-007211Y-000287*
X-007219Y-000284*
X-007228Y-000281*
X-007237Y-000279*
X-007246Y-000278*
X-007255Y-000278*
X-007264*
X-007273Y-000278*
X-007282Y-000279*
X-007291Y-000281*
X-0073Y-000284*
X-007308Y-000287*
X-007316Y-000291*
X-007324Y-000295*
X-007332Y-0003*
X-00734Y-000305*
X-007346Y-000311*
X-007353Y-000317*
X-007353Y-000317*
X-006873Y-000413D02*
D01*
X-006878Y-00042*
X-006882Y-000426*
X-006886Y-000433*
X-006889Y-00044*
X-006891Y-000447*
X-006893Y-000455*
X-006895Y-000462*
X-006896Y-00047*
X-006896Y-000477*
X-006896Y-00048*
X-006873Y-000413D02*
D01*
X-006878Y-00042*
X-006882Y-000426*
X-006886Y-000433*
X-006889Y-00044*
X-006891Y-000447*
X-006893Y-000455*
X-006895Y-000462*
X-006896Y-00047*
X-006896Y-000477*
X-006896Y-00048*
X-006553Y-000497D02*
D01*
X-006547Y-000504*
X-00654Y-00051*
X-006533Y-000515*
X-006525Y-00052*
X-006517Y-000524*
X-006509Y-000528*
X-0065Y-000531*
X-006492Y-000534*
X-006483Y-000536*
X-006474Y-000537*
X-006465Y-000538*
X-006456Y-000538*
X-006446Y-000537*
X-006437Y-000536*
X-006429Y-000534*
X-00642Y-000531*
X-006411Y-000528*
X-006403Y-000525*
X-006395Y-00052*
X-006387Y-000516*
X-00638Y-00051*
X-006373Y-000505*
X-006366Y-000498*
X-00636Y-000492*
X-006355Y-000484*
X-006349Y-000477*
X-006345Y-000469*
X-006341Y-000461*
X-006337Y-000453*
X-006335Y-000444*
X-006332Y-000435*
X-006331Y-000426*
X-00633Y-000417*
X-006329Y-000408*
X-006329Y-000407*
D01*
X-00633Y-000398*
X-006331Y-000389*
X-006332Y-00038*
X-006335Y-000372*
X-006337Y-000363*
X-006341Y-000355*
X-006345Y-000346*
X-006349Y-000339*
X-006354Y-000331*
X-00636Y-000324*
X-006366Y-000317*
X-006373Y-000311*
X-006379Y-000305*
X-006387Y-0003*
X-006394Y-000295*
X-006403Y-000291*
X-006411Y-000287*
X-006419Y-000284*
X-006428Y-000281*
X-006437Y-000279*
X-006446Y-000278*
X-006455Y-000278*
X-006464*
X-006473Y-000278*
X-006482Y-000279*
X-006491Y-000281*
X-0065Y-000284*
X-006508Y-000287*
X-006516Y-000291*
X-006524Y-000295*
X-006532Y-0003*
X-00654Y-000305*
X-006546Y-000311*
X-006553Y-000317*
X-006553Y-000317*
X-006073Y-000413D02*
D01*
X-006078Y-00042*
X-006082Y-000426*
X-006086Y-000433*
X-006089Y-00044*
X-006092Y-000447*
X-006094Y-000455*
X-006095Y-000462*
X-006096Y-00047*
X-006097Y-000478*
X-006096Y-000481*
X-005753Y-000497D02*
D01*
X-005747Y-000504*
X-00574Y-00051*
X-005733Y-000515*
X-005725Y-00052*
X-005717Y-000524*
X-005709Y-000528*
X-0057Y-000531*
X-005692Y-000534*
X-005683Y-000536*
X-005674Y-000537*
X-005665Y-000538*
X-005656Y-000538*
X-005646Y-000537*
X-005637Y-000536*
X-005629Y-000534*
X-00562Y-000531*
X-005611Y-000528*
X-005603Y-000525*
X-005595Y-00052*
X-005587Y-000516*
X-00558Y-00051*
X-005573Y-000505*
X-005566Y-000498*
X-00556Y-000492*
X-005555Y-000484*
X-005549Y-000477*
X-005545Y-000469*
X-005541Y-000461*
X-005537Y-000453*
X-005535Y-000444*
X-005532Y-000435*
X-005531Y-000426*
X-00553Y-000418*
X-006073Y-000413D02*
D01*
X-006078Y-00042*
X-006082Y-000426*
X-006086Y-000433*
X-006089Y-00044*
X-006092Y-000447*
X-006094Y-000455*
X-006095Y-000462*
X-006096Y-00047*
X-006097Y-000478*
X-006096Y-000481*
X-00567Y-000278D02*
D01*
X-005679Y-00028*
X-005688Y-000281*
X-005697Y-000284*
X-005706Y-000287*
X-005714Y-00029*
X-005722Y-000294*
X-00573Y-000299*
X-005737Y-000304*
X-005744Y-00031*
X-005751Y-000316*
X-005753Y-000317*
X-004699Y-002136D02*
D01*
X-004688Y-002149*
X-004676Y-002161*
X-004664Y-002172*
X-004651Y-002182*
X-004637Y-002191*
X-004623Y-002199*
X-004608Y-002206*
X-004593Y-002212*
X-004577Y-002217*
X-004561Y-002221*
X-004545Y-002224*
X-004529Y-002226*
X-004512Y-002226*
X-004496Y-002226*
X-00448Y-002224*
X-004463Y-002221*
X-004447Y-002217*
X-004432Y-002212*
X-004417Y-002205*
X-004402Y-002198*
X-004388Y-00219*
X-004374Y-00218*
X-004361Y-00217*
X-004349Y-002159*
X-004338Y-002147*
X-004329Y-002136*
X-004699D02*
D01*
X-004688Y-002149*
X-004676Y-002161*
X-004664Y-002172*
X-004651Y-002182*
X-004637Y-002191*
X-004623Y-002199*
X-004608Y-002206*
X-004593Y-002212*
X-004577Y-002217*
X-004561Y-002221*
X-004545Y-002224*
X-004529Y-002226*
X-004512Y-002226*
X-004496Y-002226*
X-00448Y-002224*
X-004463Y-002221*
X-004447Y-002217*
X-004432Y-002212*
X-004417Y-002205*
X-004402Y-002198*
X-004388Y-00219*
X-004374Y-00218*
X-004361Y-00217*
X-004349Y-002159*
X-004338Y-002147*
X-004329Y-002136*
X-003484Y-002051D02*
D01*
X-003484Y-002064*
X-003483Y-002077*
X-00348Y-00209*
X-003477Y-002102*
X-003473Y-002115*
X-003469Y-002127*
X-003463Y-002138*
X-003456Y-00215*
X-003449Y-00216*
X-003441Y-00217*
X-003433Y-00218*
X-003423Y-002189*
X-003413Y-002197*
X-003403Y-002205*
X-003392Y-002212*
X-003381Y-002218*
X-003369Y-002223*
X-003357Y-002227*
X-003344Y-002231*
X-003332Y-002234*
X-003319Y-002235*
X-003306Y-002236*
X-003293*
X-00328Y-002235*
X-003267Y-002234*
X-003255Y-002231*
X-003242Y-002227*
X-00323Y-002223*
X-003218Y-002218*
X-003207Y-002212*
X-003196Y-002205*
X-003186Y-002197*
X-003176Y-002189*
X-003166Y-00218*
X-003158Y-00217*
X-00315Y-00216*
X-003143Y-00215*
X-003136Y-002138*
X-00313Y-002127*
X-003126Y-002115*
X-003122Y-002102*
X-003119Y-00209*
X-003116Y-002077*
X-003115Y-002064*
X-003114Y-002051*
X-003104D02*
D01*
X-003104Y-002062*
X-003103Y-002073*
X-003101Y-002084*
X-003098Y-002094*
X-003095Y-002105*
X-003091Y-002115*
X-003086Y-002124*
X-003081Y-002134*
X-003075Y-002143*
X-003068Y-002151*
X-003061Y-002159*
X-003053Y-002167*
X-003045Y-002174*
X-003036Y-00218*
X-003027Y-002186*
X-003017Y-002191*
X-003008Y-002195*
X-002997Y-002199*
X-002987Y-002202*
X-002976Y-002204*
X-002966Y-002206*
X-002955Y-002206*
X-002944*
X-002933Y-002206*
X-002923Y-002204*
X-002912Y-002202*
X-002902Y-002199*
X-002891Y-002195*
X-002882Y-002191*
X-002872Y-002186*
X-002863Y-00218*
X-002854Y-002174*
X-002846Y-002167*
X-002838Y-002159*
X-002831Y-002151*
X-002824Y-002143*
X-002818Y-002134*
X-002813Y-002124*
X-002808Y-002115*
X-002804Y-002105*
X-002801Y-002094*
X-002798Y-002084*
X-002796Y-002073*
X-002795Y-002062*
X-002794Y-002051*
X-002783D02*
D01*
X-002783Y-002064*
X-002782Y-002077*
X-002779Y-00209*
X-002776Y-002102*
X-002772Y-002115*
X-002768Y-002127*
X-002762Y-002138*
X-002755Y-00215*
X-002748Y-00216*
X-00274Y-00217*
X-002732Y-00218*
X-002722Y-002189*
X-002712Y-002197*
X-002702Y-002205*
X-002691Y-002212*
X-00268Y-002218*
X-002668Y-002223*
X-002656Y-002227*
X-002643Y-002231*
X-002631Y-002234*
X-002618Y-002235*
X-002605Y-002236*
X-002592*
X-002579Y-002235*
X-002566Y-002234*
X-002554Y-002231*
X-002541Y-002227*
X-002529Y-002223*
X-002517Y-002218*
X-002506Y-002212*
X-002495Y-002205*
X-002485Y-002197*
X-002475Y-002189*
X-002465Y-00218*
X-002457Y-00217*
X-002449Y-00216*
X-002442Y-00215*
X-002435Y-002138*
X-002429Y-002127*
X-002425Y-002115*
X-002421Y-002102*
X-002418Y-00209*
X-002415Y-002077*
X-002414Y-002064*
X-002414Y-002051*
X-004143Y-001866D02*
D01*
X-004148Y-00186*
X-004153Y-001854*
X-004158Y-001848*
X-004158Y-001847*
X-004143Y-001866D02*
D01*
X-004148Y-00186*
X-004153Y-001854*
X-004158Y-001848*
X-004158Y-001847*
X-003953Y-002106D02*
D01*
X-003945Y-002121*
X-003935Y-002134*
X-003925Y-002147*
X-003914Y-002159*
X-003902Y-00217*
X-003889Y-00218*
X-003876Y-002189*
X-003861Y-002198*
X-003847Y-002205*
X-003832Y-002211*
X-003816Y-002217*
X-0038Y-002221*
X-003784Y-002224*
X-003768Y-002226*
X-003751Y-002227*
X-003735Y-002226*
X-003719Y-002225*
X-003702Y-002222*
X-003687Y-002218*
X-003671Y-002213*
X-003656Y-002207*
X-003641Y-0022*
X-003626Y-002192*
X-003613Y-002183*
X-0036Y-002173*
X-003587Y-002163*
X-003576Y-002151*
X-003565Y-002138*
X-003555Y-002125*
X-003546Y-002112*
X-003539Y-002097*
X-003532Y-002082*
X-003526Y-002067*
X-003521Y-002051*
X-003518Y-002035*
X-003515Y-002019*
X-003514Y-002003*
X-003513Y-001991*
X-003953Y-002106D02*
D01*
X-003945Y-002121*
X-003935Y-002134*
X-003925Y-002147*
X-003914Y-002159*
X-003902Y-00217*
X-003889Y-00218*
X-003876Y-002189*
X-003861Y-002198*
X-003847Y-002205*
X-003832Y-002211*
X-003816Y-002217*
X-0038Y-002221*
X-003784Y-002224*
X-003768Y-002226*
X-003751Y-002227*
X-003735Y-002226*
X-003719Y-002225*
X-003702Y-002222*
X-003687Y-002218*
X-003671Y-002213*
X-003656Y-002207*
X-003641Y-0022*
X-003626Y-002192*
X-003613Y-002183*
X-0036Y-002173*
X-003587Y-002163*
X-003576Y-002151*
X-003565Y-002138*
X-003555Y-002125*
X-003546Y-002112*
X-003539Y-002097*
X-003532Y-002082*
X-003526Y-002067*
X-003521Y-002051*
X-003518Y-002035*
X-003515Y-002019*
X-003514Y-002003*
X-003513Y-001991*
D01*
X-003514Y-001975*
X-003516Y-001959*
X-003519Y-001943*
X-003523Y-001927*
X-003528Y-001911*
X-003534Y-001896*
X-003541Y-001881*
X-003549Y-001867*
X-003558Y-001853*
X-003568Y-00184*
X-003579Y-001828*
X-003591Y-001817*
X-003604Y-001806*
X-003617Y-001797*
X-003631Y-001788*
X-003645Y-00178*
X-00366Y-001774*
X-003676Y-001768*
X-003692Y-001763*
X-003708Y-00176*
X-003724Y-001758*
X-00374Y-001757*
X-003757*
X-003773Y-001758*
X-003789Y-00176*
X-003805Y-001763*
X-003821Y-001768*
X-003837Y-001774*
X-003852Y-00178*
X-003866Y-001788*
X-00388Y-001797*
X-003893Y-001806*
X-003906Y-001817*
X-003918Y-001828*
X-003929Y-00184*
X-003939Y-001853*
X-003948Y-001867*
X-003956Y-001881*
X-003963Y-001896*
X-003963Y-001896*
X-003513Y-001991D02*
D01*
X-003514Y-001975*
X-003516Y-001959*
X-003519Y-001943*
X-003523Y-001927*
X-003528Y-001911*
X-003534Y-001896*
X-003541Y-001881*
X-003549Y-001867*
X-003558Y-001853*
X-003568Y-00184*
X-003579Y-001828*
X-003591Y-001817*
X-003604Y-001806*
X-003617Y-001797*
X-003631Y-001788*
X-003645Y-00178*
X-00366Y-001774*
X-003676Y-001768*
X-003692Y-001763*
X-003708Y-00176*
X-003724Y-001758*
X-00374Y-001757*
X-003757*
X-003773Y-001758*
X-003789Y-00176*
X-003805Y-001763*
X-003821Y-001768*
X-003837Y-001774*
X-003852Y-00178*
X-003866Y-001788*
X-00388Y-001797*
X-003893Y-001806*
X-003906Y-001817*
X-003918Y-001828*
X-003929Y-00184*
X-003939Y-001853*
X-003948Y-001867*
X-003956Y-001881*
X-003963Y-001896*
X-003963Y-001896*
X-003114Y-001951D02*
D01*
X-003115Y-001939*
X-003116Y-001926*
X-003119Y-001913*
X-003122Y-001901*
X-003126Y-001888*
X-00313Y-001876*
X-003136Y-001865*
X-003143Y-001853*
X-00315Y-001843*
X-003158Y-001833*
X-003166Y-001823*
X-003176Y-001814*
X-003186Y-001806*
X-003196Y-001798*
X-003207Y-001791*
X-003218Y-001785*
X-00323Y-00178*
X-003242Y-001776*
X-003255Y-001772*
X-003267Y-001769*
X-00328Y-001768*
X-003293Y-001767*
X-003306*
X-003319Y-001768*
X-003332Y-001769*
X-003344Y-001772*
X-003357Y-001776*
X-003369Y-00178*
X-003381Y-001785*
X-003392Y-001791*
X-003403Y-001798*
X-003413Y-001806*
X-003423Y-001814*
X-003433Y-001823*
X-003441Y-001833*
X-003449Y-001843*
X-003456Y-001853*
X-003463Y-001865*
X-003469Y-001876*
X-003473Y-001888*
X-003477Y-001901*
X-00348Y-001913*
X-003483Y-001926*
X-003484Y-001939*
X-003484Y-001951*
X-004557Y-001759D02*
D01*
X-004574Y-001763*
X-004589Y-001768*
X-004605Y-001773*
X-00462Y-00178*
X-004634Y-001788*
X-004648Y-001797*
X-004661Y-001807*
X-004673Y-001817*
X-004685Y-001829*
X-004696Y-001841*
X-004699Y-001845*
X-004557Y-001759D02*
D01*
X-004574Y-001763*
X-004589Y-001768*
X-004605Y-001773*
X-00462Y-00178*
X-004634Y-001788*
X-004648Y-001797*
X-004661Y-001807*
X-004673Y-001817*
X-004685Y-001829*
X-004696Y-001841*
X-004699Y-001845*
X-002794Y-001951D02*
D01*
X-002794Y-001941*
X-002795Y-00193*
X-002797Y-001919*
X-0028Y-001909*
X-002803Y-001898*
X-002807Y-001888*
X-002812Y-001879*
X-002817Y-001869*
X-002823Y-00186*
X-00283Y-001852*
X-002837Y-001844*
X-002845Y-001836*
X-002853Y-001829*
X-002862Y-001823*
X-002871Y-001817*
X-002881Y-001812*
X-00289Y-001808*
X-002901Y-001804*
X-002911Y-001801*
X-002922Y-001799*
X-002932Y-001797*
X-002943Y-001797*
X-002954*
X-002965Y-001797*
X-002975Y-001799*
X-002986Y-001801*
X-002996Y-001804*
X-003007Y-001808*
X-003016Y-001812*
X-003026Y-001817*
X-003035Y-001823*
X-003044Y-001829*
X-003052Y-001836*
X-00306Y-001844*
X-003067Y-001852*
X-003074Y-00186*
X-00308Y-001869*
X-003085Y-001879*
X-00309Y-001888*
X-003094Y-001898*
X-003097Y-001909*
X-0031Y-001919*
X-003102Y-00193*
X-003103Y-001941*
X-003104Y-001951*
X-002414D02*
D01*
X-002415Y-001939*
X-002416Y-001926*
X-002419Y-001913*
X-002422Y-001901*
X-002426Y-001888*
X-00243Y-001876*
X-002436Y-001865*
X-002443Y-001853*
X-00245Y-001843*
X-002458Y-001833*
X-002466Y-001823*
X-002476Y-001814*
X-002486Y-001806*
X-002496Y-001798*
X-002507Y-001791*
X-002518Y-001785*
X-00253Y-00178*
X-002542Y-001776*
X-002555Y-001772*
X-002567Y-001769*
X-00258Y-001768*
X-002593Y-001767*
X-002606*
X-002619Y-001768*
X-002632Y-001769*
X-002644Y-001772*
X-002657Y-001776*
X-002669Y-00178*
X-002681Y-001785*
X-002692Y-001791*
X-002703Y-001798*
X-002713Y-001806*
X-002723Y-001814*
X-002733Y-001823*
X-002741Y-001833*
X-002749Y-001843*
X-002756Y-001853*
X-002763Y-001865*
X-002769Y-001876*
X-002773Y-001888*
X-002777Y-001901*
X-00278Y-001913*
X-002783Y-001926*
X-002784Y-001939*
X-002783Y-001951*
X-002404Y-002051D02*
D01*
X-002404Y-002062*
X-002403Y-002073*
X-002401Y-002084*
X-002398Y-002094*
X-002395Y-002105*
X-002391Y-002115*
X-002386Y-002124*
X-002381Y-002134*
X-002375Y-002143*
X-002368Y-002151*
X-002361Y-002159*
X-002353Y-002167*
X-002345Y-002174*
X-002336Y-00218*
X-002327Y-002186*
X-002317Y-002191*
X-002308Y-002195*
X-002297Y-002199*
X-002287Y-002202*
X-002276Y-002204*
X-002266Y-002206*
X-002255Y-002206*
X-002244*
X-002233Y-002206*
X-002223Y-002204*
X-002212Y-002202*
X-002202Y-002199*
X-002191Y-002195*
X-002182Y-002191*
X-002172Y-002186*
X-002163Y-00218*
X-002154Y-002174*
X-002146Y-002167*
X-002138Y-002159*
X-002131Y-002151*
X-002124Y-002143*
X-002118Y-002134*
X-002113Y-002124*
X-002108Y-002115*
X-002104Y-002105*
X-002101Y-002094*
X-002098Y-002084*
X-002096Y-002073*
X-002095Y-002062*
X-002093Y-002051*
X-002083D02*
D01*
X-002083Y-002064*
X-002082Y-002077*
X-002079Y-00209*
X-002076Y-002102*
X-002072Y-002115*
X-002068Y-002127*
X-002062Y-002138*
X-002055Y-00215*
X-002048Y-00216*
X-00204Y-00217*
X-002032Y-00218*
X-002022Y-002189*
X-002012Y-002197*
X-002002Y-002205*
X-001991Y-002212*
X-00198Y-002218*
X-001968Y-002223*
X-001956Y-002227*
X-001943Y-002231*
X-001931Y-002234*
X-001918Y-002235*
X-001905Y-002236*
X-001892*
X-001879Y-002235*
X-001866Y-002234*
X-001854Y-002231*
X-001841Y-002227*
X-001829Y-002223*
X-001817Y-002218*
X-001806Y-002212*
X-001795Y-002205*
X-001785Y-002197*
X-001775Y-002189*
X-001765Y-00218*
X-001757Y-00217*
X-001749Y-00216*
X-001742Y-00215*
X-001735Y-002138*
X-001729Y-002127*
X-001725Y-002115*
X-001721Y-002102*
X-001718Y-00209*
X-001715Y-002077*
X-001714Y-002064*
X-001714Y-002051*
X-001704D02*
D01*
X-001704Y-002062*
X-001703Y-002073*
X-001701Y-002084*
X-001698Y-002094*
X-001695Y-002105*
X-001691Y-002115*
X-001686Y-002124*
X-001681Y-002134*
X-001675Y-002143*
X-001668Y-002151*
X-001661Y-002159*
X-001653Y-002167*
X-001645Y-002174*
X-001636Y-00218*
X-001627Y-002186*
X-001617Y-002191*
X-001608Y-002195*
X-001597Y-002199*
X-001587Y-002202*
X-001576Y-002204*
X-001566Y-002206*
X-001555Y-002206*
X-001544*
X-001533Y-002206*
X-001523Y-002204*
X-001512Y-002202*
X-001502Y-002199*
X-001491Y-002195*
X-001482Y-002191*
X-001472Y-002186*
X-001463Y-00218*
X-001454Y-002174*
X-001446Y-002167*
X-001438Y-002159*
X-001431Y-002151*
X-001424Y-002143*
X-001418Y-002134*
X-001413Y-002124*
X-001408Y-002115*
X-001404Y-002105*
X-001401Y-002094*
X-001398Y-002084*
X-001396Y-002073*
X-001395Y-002062*
X-001393Y-002051*
X-001004D02*
D01*
X-001004Y-002062*
X-001003Y-002073*
X-001001Y-002084*
X-000998Y-002094*
X-000995Y-002105*
X-000991Y-002115*
X-000986Y-002124*
X-000981Y-002134*
X-000975Y-002143*
X-000968Y-002151*
X-000961Y-002159*
X-000953Y-002167*
X-000945Y-002174*
X-000936Y-00218*
X-000927Y-002186*
X-000917Y-002191*
X-000908Y-002195*
X-000897Y-002199*
X-000887Y-002202*
X-000876Y-002204*
X-000866Y-002206*
X-000855Y-002206*
X-000844*
X-000833Y-002206*
X-000823Y-002204*
X-000812Y-002202*
X-000802Y-002199*
X-000791Y-002195*
X-000782Y-002191*
X-000772Y-002186*
X-000763Y-00218*
X-000754Y-002174*
X-000746Y-002167*
X-000738Y-002159*
X-000731Y-002151*
X-000724Y-002143*
X-000718Y-002134*
X-000713Y-002124*
X-000708Y-002115*
X-000704Y-002105*
X-000701Y-002094*
X-000698Y-002084*
X-000696Y-002073*
X-000695Y-002062*
X-000694Y-002051*
X-001384D02*
D01*
X-001384Y-002064*
X-001383Y-002077*
X-00138Y-00209*
X-001377Y-002102*
X-001373Y-002115*
X-001369Y-002127*
X-001363Y-002138*
X-001356Y-00215*
X-001349Y-00216*
X-001341Y-00217*
X-001333Y-00218*
X-001323Y-002189*
X-001313Y-002197*
X-001303Y-002205*
X-001292Y-002212*
X-001281Y-002218*
X-001269Y-002223*
X-001257Y-002227*
X-001244Y-002231*
X-001232Y-002234*
X-001219Y-002235*
X-001206Y-002236*
X-001193*
X-00118Y-002235*
X-001167Y-002234*
X-001155Y-002231*
X-001142Y-002227*
X-00113Y-002223*
X-001118Y-002218*
X-001107Y-002212*
X-001096Y-002205*
X-001086Y-002197*
X-001076Y-002189*
X-001066Y-00218*
X-001058Y-00217*
X-00105Y-00216*
X-001043Y-00215*
X-001036Y-002138*
X-00103Y-002127*
X-001026Y-002115*
X-001022Y-002102*
X-001019Y-00209*
X-001016Y-002077*
X-001015Y-002064*
X-001014Y-002051*
X-002093Y-001951D02*
D01*
X-002094Y-001941*
X-002095Y-00193*
X-002097Y-001919*
X-0021Y-001909*
X-002103Y-001898*
X-002107Y-001888*
X-002112Y-001879*
X-002117Y-001869*
X-002123Y-00186*
X-00213Y-001852*
X-002137Y-001844*
X-002145Y-001836*
X-002153Y-001829*
X-002162Y-001823*
X-002171Y-001817*
X-002181Y-001812*
X-00219Y-001808*
X-002201Y-001804*
X-002211Y-001801*
X-002222Y-001799*
X-002232Y-001797*
X-002243Y-001797*
X-002254*
X-002265Y-001797*
X-002275Y-001799*
X-002286Y-001801*
X-002296Y-001804*
X-002307Y-001808*
X-002316Y-001812*
X-002326Y-001817*
X-002335Y-001823*
X-002344Y-001829*
X-002352Y-001836*
X-00236Y-001844*
X-002367Y-001852*
X-002374Y-00186*
X-00238Y-001869*
X-002385Y-001879*
X-00239Y-001888*
X-002394Y-001898*
X-002397Y-001909*
X-0024Y-001919*
X-002402Y-00193*
X-002403Y-001941*
X-002404Y-001951*
X-001714D02*
D01*
X-001715Y-001939*
X-001716Y-001926*
X-001719Y-001913*
X-001722Y-001901*
X-001726Y-001888*
X-00173Y-001876*
X-001736Y-001865*
X-001743Y-001853*
X-00175Y-001843*
X-001758Y-001833*
X-001766Y-001823*
X-001776Y-001814*
X-001786Y-001806*
X-001796Y-001798*
X-001807Y-001791*
X-001818Y-001785*
X-00183Y-00178*
X-001842Y-001776*
X-001855Y-001772*
X-001867Y-001769*
X-00188Y-001768*
X-001893Y-001767*
X-001906*
X-001919Y-001768*
X-001932Y-001769*
X-001944Y-001772*
X-001957Y-001776*
X-001969Y-00178*
X-001981Y-001785*
X-001992Y-001791*
X-002003Y-001798*
X-002013Y-001806*
X-002023Y-001814*
X-002033Y-001823*
X-002041Y-001833*
X-002049Y-001843*
X-002056Y-001853*
X-002063Y-001865*
X-002069Y-001876*
X-002073Y-001888*
X-002077Y-001901*
X-00208Y-001913*
X-002083Y-001926*
X-002084Y-001939*
X-002083Y-001951*
X-001393D02*
D01*
X-001394Y-001941*
X-001395Y-00193*
X-001397Y-001919*
X-0014Y-001909*
X-001403Y-001898*
X-001407Y-001888*
X-001412Y-001879*
X-001417Y-001869*
X-001423Y-00186*
X-00143Y-001852*
X-001437Y-001844*
X-001445Y-001836*
X-001453Y-001829*
X-001462Y-001823*
X-001471Y-001817*
X-001481Y-001812*
X-00149Y-001808*
X-001501Y-001804*
X-001511Y-001801*
X-001522Y-001799*
X-001532Y-001797*
X-001543Y-001797*
X-001554*
X-001565Y-001797*
X-001575Y-001799*
X-001586Y-001801*
X-001596Y-001804*
X-001607Y-001808*
X-001616Y-001812*
X-001626Y-001817*
X-001635Y-001823*
X-001644Y-001829*
X-001652Y-001836*
X-00166Y-001844*
X-001667Y-001852*
X-001674Y-00186*
X-00168Y-001869*
X-001685Y-001879*
X-00169Y-001888*
X-001694Y-001898*
X-001697Y-001909*
X-0017Y-001919*
X-001702Y-00193*
X-001703Y-001941*
X-001704Y-001951*
X-001014D02*
D01*
X-001015Y-001939*
X-001016Y-001926*
X-001019Y-001913*
X-001022Y-001901*
X-001026Y-001888*
X-00103Y-001876*
X-001036Y-001865*
X-001043Y-001853*
X-00105Y-001843*
X-001058Y-001833*
X-001066Y-001823*
X-001076Y-001814*
X-001086Y-001806*
X-001096Y-001798*
X-001107Y-001791*
X-001118Y-001785*
X-00113Y-00178*
X-001142Y-001776*
X-001155Y-001772*
X-001167Y-001769*
X-00118Y-001768*
X-001193Y-001767*
X-001206*
X-001219Y-001768*
X-001232Y-001769*
X-001244Y-001772*
X-001257Y-001776*
X-001269Y-00178*
X-001281Y-001785*
X-001292Y-001791*
X-001303Y-001798*
X-001313Y-001806*
X-001323Y-001814*
X-001333Y-001823*
X-001341Y-001833*
X-001349Y-001843*
X-001356Y-001853*
X-001363Y-001865*
X-001369Y-001876*
X-001373Y-001888*
X-001377Y-001901*
X-00138Y-001913*
X-001383Y-001926*
X-001384Y-001939*
X-001384Y-001951*
X-000694D02*
D01*
X-000695Y-001941*
X-000696Y-00193*
X-000698Y-001919*
X-000701Y-001909*
X-000704Y-001898*
X-000708Y-001888*
X-000713Y-001879*
X-000718Y-001869*
X-000724Y-00186*
X-000731Y-001852*
X-000738Y-001844*
X-000746Y-001836*
X-000754Y-001829*
X-000763Y-001823*
X-000772Y-001817*
X-000782Y-001812*
X-000791Y-001808*
X-000802Y-001804*
X-000812Y-001801*
X-000823Y-001799*
X-000833Y-001797*
X-000844Y-001797*
X-000855*
X-000866Y-001797*
X-000876Y-001799*
X-000887Y-001801*
X-000897Y-001804*
X-000908Y-001808*
X-000917Y-001812*
X-000927Y-001817*
X-000936Y-001823*
X-000945Y-001829*
X-000953Y-001836*
X-000961Y-001844*
X-000968Y-001852*
X-000975Y-00186*
X-000981Y-001869*
X-000986Y-001879*
X-000991Y-001888*
X-000995Y-001898*
X-000998Y-001909*
X-001001Y-001919*
X-001003Y-00193*
X-001004Y-001941*
X-001004Y-001951*
X000074Y-001645D02*
D01*
X000068Y-001654*
X000062Y-001664*
X000056Y-001674*
X000052Y-001684*
X000048Y-001694*
X000045Y-001705*
X000042Y-001716*
X000041Y-001727*
X00004Y-001738*
X000039Y-001749*
X00004Y-00176*
X000042Y-001771*
X000044Y-001782*
X000047Y-001793*
X00005Y-001804*
X000055Y-001814*
X00006Y-001824*
X000066Y-001833*
X00007Y-001839*
X000328D02*
D01*
X000335Y-00183*
X00034Y-001821*
X000345Y-001811*
X000349Y-0018*
X000353Y-00179*
X000356Y-001779*
X000358Y-001768*
X000359Y-001757*
X000359Y-001746*
X000359Y-001745*
X-004794Y-001179D02*
D01*
X-004789Y-001185*
X-004783Y-00119*
X-004777Y-001194*
X-00477Y-001198*
X-004763Y-001201*
X-004756Y-001204*
X-004749Y-001207*
X-004741Y-001209*
X-004734Y-00121*
X-004726Y-001211*
X-004718Y-001212*
X-004716Y-001211*
X-004794Y-001179D02*
D01*
X-004789Y-001185*
X-004783Y-00119*
X-004777Y-001194*
X-00477Y-001198*
X-004763Y-001201*
X-004756Y-001204*
X-004749Y-001207*
X-004741Y-001209*
X-004734Y-00121*
X-004726Y-001211*
X-004718Y-001212*
X-004716Y-001211*
X-004426Y-001579D02*
D01*
X-004428Y-00157*
X-004431Y-001561*
X-004434Y-001552*
X-004438Y-001544*
X-004442Y-001535*
X-004447Y-001527*
X-004447Y-001526*
X-004491Y-001485D02*
D01*
X-0045Y-001481*
X-004508Y-001477*
X-004517Y-001474*
X-004526Y-001471*
X-004536Y-001469*
X-004545Y-001468*
X-004554Y-001467*
X-004564Y-001467*
X-004573Y-001468*
X-004583Y-001469*
X-004592Y-001471*
X-004601Y-001474*
X-00461Y-001477*
X-004618Y-001481*
X-004627Y-001485*
X-004635Y-00149*
X-004643Y-001496*
X-00465Y-001502*
X-004657Y-001508*
X-004663Y-001515*
X-004669Y-001523*
X-004674Y-00153*
X-004679Y-001539*
X-004683Y-001547*
X-004687Y-001556*
X-004689Y-001565*
X-004692Y-001574*
X-004693Y-001583*
X-004694Y-001593*
X-004695Y-001602*
X-004695Y-001612*
X-004694Y-001621*
X-004692Y-00163*
X-00469Y-001639*
X-004687Y-001648*
X-004683Y-001657*
X-004679Y-001666*
X-004674Y-001674*
X-004669Y-001682*
X-004663Y-001689*
X-004657Y-001696*
X-00465Y-001703*
X-004643Y-001709*
X-004635Y-001714*
X-004627Y-001719*
X-004619Y-001724*
X-004611Y-001728*
X-004602Y-001731*
X-004593Y-001734*
X-004583Y-001736*
X-004581Y-001735*
X-004447Y-001526D02*
D01*
X-004453Y-001519*
X-004459Y-001512*
X-004466Y-001505*
X-004473Y-001499*
X-00448Y-001493*
X-004488Y-001488*
X-004491Y-001485*
X-004905Y-001101D02*
D01*
X-004906Y-00109*
X-004907Y-001078*
X-004909Y-001066*
X-00491Y-001064*
X-004881Y-000781D02*
D01*
X-004887Y-000776*
X-004893Y-000771*
X-004899Y-000767*
X-004906Y-000763*
X-004913Y-00076*
X-00492Y-000757*
X-004927Y-000754*
X-004935Y-000752*
X-004942Y-000751*
X-00495Y-00075*
X-004958Y-000749*
X-004959Y-000749*
X-004881Y-000781D02*
D01*
X-004887Y-000776*
X-004893Y-000771*
X-004899Y-000767*
X-004906Y-000763*
X-004913Y-00076*
X-00492Y-000757*
X-004927Y-000754*
X-004935Y-000752*
X-004942Y-000751*
X-00495Y-00075*
X-004958Y-000749*
X-004959Y-000749*
X-004068Y-000988D02*
D01*
X-004077Y-00098*
X-004085Y-000972*
X-004095Y-000965*
X-004105Y-000958*
X-004115Y-000952*
X-004125Y-000947*
X-004136Y-000942*
X-004148Y-000938*
X-004159Y-000935*
X-004171Y-000933*
X-004183Y-000932*
X-004194Y-000932*
X-004206Y-000932*
X-004218Y-000933*
X-00423Y-000935*
X-004241Y-000938*
X-004253Y-000941*
X-004264Y-000946*
X-004274Y-000951*
X-004285Y-000957*
X-004295Y-000963*
X-004304Y-000971*
X-004313Y-000979*
X-004321Y-000987*
X-004324Y-000992*
X-003927Y-001355D02*
D01*
X-003928Y-001346*
X-003929Y-001336*
X-003931Y-001326*
X-003933Y-001317*
X-003936Y-001308*
X-00394Y-001299*
X-003944Y-00129*
X-003949Y-001281*
X-003954Y-001273*
X-003956Y-001271*
X-004152Y-001468D02*
D01*
X-004144Y-001474*
X-004136Y-001479*
X-004127Y-001484*
X-004118Y-001487*
X-004109Y-00149*
X-0041Y-001493*
X-00409Y-001495*
X-00408Y-001496*
X-004071Y-001496*
X-004061Y-001496*
X-004051Y-001495*
X-004041Y-001494*
X-004032Y-001492*
X-004023Y-001489*
X-004014Y-001485*
X-004005Y-001481*
X-003996Y-001476*
X-003988Y-001471*
X-00398Y-001465*
X-003973Y-001459*
X-003966Y-001452*
X-003959Y-001444*
X-003954Y-001437*
X-003948Y-001428*
X-003944Y-00142*
X-00394Y-001411*
X-003936Y-001402*
X-003933Y-001392*
X-003931Y-001383*
X-00393Y-001373*
X-003929Y-001364*
X-003927Y-001355*
X-003771Y-001101D02*
D01*
X-003772Y-00109*
X-003773Y-001078*
X-003775Y-001066*
X-003778Y-001055*
X-003782Y-001043*
X-003786Y-001032*
X-003791Y-001022*
X-003797Y-001011*
X-003804Y-001002*
X-003811Y-000992*
X-003819Y-000983*
X-003828Y-000975*
X-003837Y-000968*
X-003846Y-000961*
X-003856Y-000954*
X-003867Y-000949*
X-003878Y-000944*
X-003889Y-00094*
X-0039Y-000937*
X-003912Y-000934*
X-003924Y-000932*
X-003936Y-000932*
X-003947*
X-003959Y-000932*
X-003971Y-000934*
X-003983Y-000937*
X-003994Y-00094*
X-004005Y-000944*
X-004016Y-000949*
X-004026Y-000954*
X-004037Y-000961*
X-004046Y-000968*
X-004055Y-000975*
X-004064Y-000983*
X-004068Y-000988*
X-003956Y-001271D02*
D01*
X-003945Y-001272*
X-003933Y-001272*
X-003921Y-001271*
X-003909Y-001269*
X-003898Y-001267*
X-003886Y-001263*
X-003875Y-001259*
X-003865Y-001254*
X-003854Y-001249*
X-003844Y-001242*
X-003835Y-001235*
X-003826Y-001227*
X-003817Y-001219*
X-003809Y-00121*
X-003802Y-001201*
X-003796Y-001191*
X-00379Y-001181*
X-003785Y-00117*
X-00378Y-001159*
X-003777Y-001148*
X-003774Y-001136*
X-003772Y-001124*
X-003771Y-001113*
X-003771Y-001101*
X-003449Y-000826D02*
D01*
X-003449Y-000834*
X-003449Y-000841*
X-003447Y-000848*
X-003446Y-000855*
X-003443Y-000861*
X-003441Y-000868*
X-003438Y-000874*
X-003434Y-000881*
X-00343Y-000886*
X-003426Y-000892*
X-003421Y-000897*
X-003416Y-000902*
X-00341Y-000907*
X-003405Y-000911*
X-003398Y-000915*
X-003392Y-000918*
X-003386Y-000921*
X-003379Y-000924*
X-003372Y-000925*
X-003365Y-000927*
X-003358Y-000928*
X-003351Y-000928*
X-003346Y-000929*
X-003391Y-000699D02*
D01*
X-003398Y-000703*
X-003404Y-000707*
X-00341Y-000711*
X-003415Y-000715*
X-003421Y-00072*
X-003426Y-000725*
X-00343Y-000731*
X-003434Y-000737*
X-003438Y-000743*
X-003441Y-00075*
X-003444Y-000756*
X-003446Y-000763*
X-003448Y-00077*
X-003449Y-000777*
X-00345Y-000784*
X-00345Y-000791*
X-003449Y-000792*
X-003252Y-000929D02*
D01*
X-003245Y-000929*
X-003238Y-000929*
X-003231Y-000927*
X-003224Y-000926*
X-00322Y-000924*
X-003449Y-000606D02*
D01*
X-003449Y-000614*
X-003449Y-000621*
X-003447Y-000628*
X-003446Y-000635*
X-003443Y-000641*
X-003441Y-000648*
X-003438Y-000654*
X-003434Y-000661*
X-00343Y-000666*
X-003426Y-000672*
X-003421Y-000677*
X-003416Y-000682*
X-00341Y-000687*
X-003405Y-000691*
X-003398Y-000695*
X-003392Y-000698*
X-003391Y-000699*
X-002578Y-000924D02*
D01*
X-002572Y-000926*
X-002565Y-000928*
X-002557Y-000929*
X-00255Y-00093*
X-002547Y-000929*
X-002451D02*
D01*
X-002444Y-000929*
X-002437Y-000929*
X-00243Y-000927*
X-002423Y-000926*
X-00242Y-000924*
X-002649Y-000606D02*
D01*
X-002649Y-000614*
X-002649Y-000621*
X-002647Y-000628*
X-002646Y-000635*
X-002643Y-000641*
X-002641Y-000648*
X-002638Y-000654*
X-002634Y-000661*
X-00263Y-000666*
X-002626Y-000672*
X-002621Y-000677*
X-002616Y-000682*
X-00261Y-000687*
X-002605Y-000691*
X-0026Y-000694*
X-001849Y-000606D02*
D01*
X-001849Y-000614*
X-001849Y-000621*
X-001847Y-000628*
X-001846Y-000635*
X-001843Y-000641*
X-001841Y-000648*
X-001838Y-000654*
X-001834Y-000661*
X-00183Y-000666*
X-001826Y-000672*
X-001821Y-000677*
X-001816Y-000682*
X-00181Y-000687*
X-001805Y-000691*
X-0018Y-000694*
X-003386Y-000477D02*
D01*
X-003393Y-000481*
X-003399Y-000484*
X-003405Y-000488*
X-003411Y-000492*
X-003417Y-000497*
X-003422Y-000502*
X-003426Y-000507*
X-003431Y-000513*
X-003435Y-000519*
X-003438Y-000525*
X-003441Y-000532*
X-003444Y-000539*
X-003446Y-000546*
X-003448Y-000553*
X-003449Y-00056*
X-003449Y-000567*
X-003449Y-000571*
X-002812Y-000381D02*
D01*
X-002813Y-000369*
X-002814Y-000358*
X-002816Y-000347*
X-002819Y-000336*
X-002822Y-000326*
X-002826Y-000315*
X-002831Y-000305*
X-002837Y-000296*
X-002843Y-000286*
X-00285Y-000278*
X-002857Y-000269*
X-002865Y-000262*
X-002874Y-000254*
X-002883Y-000248*
X-002892Y-000242*
X-002902Y-000237*
X-002913Y-000232*
X-002923Y-000228*
X-002934Y-000225*
X-002945Y-000223*
X-002956Y-000221*
X-002967Y-000221*
X-002978*
X-002989Y-000221*
X-003Y-000223*
X-003011Y-000225*
X-003022Y-000228*
X-003032Y-000232*
X-003043Y-000237*
X-003052Y-000242*
X-003062Y-000248*
X-003066Y-000251*
X-002744Y-000498D02*
D01*
X-002745Y-000491*
X-002746Y-000483*
X-002747Y-000476*
X-002749Y-000468*
X-002751Y-000461*
X-002754Y-000454*
X-002757Y-000447*
X-002761Y-00044*
X-002766Y-000434*
X-00277Y-000428*
X-002775Y-000422*
X-002776Y-00042*
X-002724Y-000606D02*
D01*
X-002725Y-000599*
X-002726Y-000591*
X-002727Y-000584*
X-002729Y-000577*
X-002731Y-00057*
X-002734Y-000563*
X-002737Y-000556*
X-002741Y-000549*
X-002744Y-000544*
X-002586Y-000477D02*
D01*
X-002593Y-000481*
X-002599Y-000484*
X-002605Y-000488*
X-002611Y-000492*
X-002617Y-000497*
X-002622Y-000502*
X-002626Y-000507*
X-002631Y-000513*
X-002635Y-000519*
X-002638Y-000525*
X-002641Y-000532*
X-002644Y-000539*
X-002646Y-000546*
X-002648Y-000553*
X-002649Y-00056*
X-002649Y-000567*
X-002649Y-000571*
X-002744Y-000498D02*
D01*
X-002745Y-000491*
X-002746Y-000483*
X-002747Y-000476*
X-002749Y-000468*
X-002751Y-000461*
X-002754Y-000454*
X-002757Y-000447*
X-002761Y-00044*
X-002766Y-000434*
X-00277Y-000428*
X-002775Y-000422*
X-002776Y-00042*
X-001944Y-000498D02*
D01*
X-001945Y-000491*
X-001946Y-000483*
X-001947Y-000476*
X-001949Y-000468*
X-001951Y-000461*
X-001954Y-000454*
X-001957Y-000447*
X-001961Y-00044*
X-001966Y-000434*
X-00197Y-000428*
X-001975Y-000422*
X-001976Y-00042*
X-001924Y-000606D02*
D01*
X-001925Y-000599*
X-001926Y-000591*
X-001927Y-000584*
X-001929Y-000577*
X-001931Y-00057*
X-001934Y-000563*
X-001937Y-000556*
X-001941Y-000549*
X-001944Y-000544*
X-001786Y-000477D02*
D01*
X-001793Y-000481*
X-001799Y-000484*
X-001805Y-000488*
X-001811Y-000492*
X-001817Y-000497*
X-001822Y-000502*
X-001826Y-000507*
X-001831Y-000513*
X-001835Y-000519*
X-001838Y-000525*
X-001841Y-000532*
X-001844Y-000539*
X-001846Y-000546*
X-001848Y-000553*
X-001849Y-00056*
X-001849Y-000567*
X-001849Y-000571*
X-001944Y-000498D02*
D01*
X-001945Y-000491*
X-001946Y-000483*
X-001947Y-000476*
X-001949Y-000468*
X-001951Y-000461*
X-001954Y-000454*
X-001957Y-000447*
X-001961Y-00044*
X-001966Y-000434*
X-00197Y-000428*
X-001975Y-000422*
X-001976Y-00042*
X-002012Y-000381D02*
D01*
X-002013Y-000369*
X-002014Y-000358*
X-002016Y-000347*
X-002019Y-000336*
X-002022Y-000326*
X-002026Y-000315*
X-002031Y-000305*
X-002037Y-000296*
X-002043Y-000286*
X-00205Y-000278*
X-002057Y-000269*
X-002065Y-000262*
X-002074Y-000254*
X-002083Y-000248*
X-002092Y-000242*
X-002102Y-000237*
X-002113Y-000232*
X-002123Y-000228*
X-002134Y-000225*
X-002145Y-000223*
X-002156Y-000221*
X-002167Y-000221*
X-002178*
X-002189Y-000221*
X-0022Y-000223*
X-002211Y-000225*
X-002222Y-000228*
X-002232Y-000232*
X-002243Y-000237*
X-002252Y-000242*
X-002262Y-000248*
X-002266Y-000251*
X-000552Y-001318D02*
D01*
X-000547Y-001324*
X-00054Y-001329*
X-000534Y-001334*
X-000527Y-001338*
X-00052Y-001341*
X-000513Y-001344*
X-000505Y-001347*
X-000497Y-001349*
X-000489Y-001351*
X-000481Y-001352*
X-000473Y-001352*
X-000471Y-001352*
X-001778Y-000924D02*
D01*
X-001772Y-000926*
X-001765Y-000928*
X-001757Y-000929*
X-00175Y-00093*
X-001747Y-000929*
X-001651D02*
D01*
X-001644Y-000929*
X-001637Y-000929*
X-00163Y-000927*
X-001623Y-000926*
X-00162Y-000924*
X-000978D02*
D01*
X-000972Y-000926*
X-000965Y-000928*
X-000957Y-000929*
X-00095Y-00093*
X-000947Y-000929*
X-001049Y-000606D02*
D01*
X-001049Y-000614*
X-001049Y-000621*
X-001047Y-000628*
X-001046Y-000635*
X-001043Y-000641*
X-001041Y-000648*
X-001038Y-000654*
X-001034Y-000661*
X-00103Y-000666*
X-001026Y-000672*
X-001021Y-000677*
X-001016Y-000682*
X-00101Y-000687*
X-001005Y-000691*
X-001Y-000694*
X-00075Y-000759D02*
D01*
X-000746Y-000765*
X-00074Y-000771*
X-000735Y-000775*
X-000729Y-00078*
X-000723Y-000784*
X-000716Y-000788*
X-000709Y-000791*
X-000702Y-000794*
X-000695Y-000796*
X-000688Y-000798*
X-00068Y-000799*
X-000673Y-0008*
X-000667Y-000799*
X-000749Y-000792D02*
D01*
X-00075Y-000785*
X-00075Y-000778*
X-000752Y-000771*
X-000753Y-000764*
X-000754Y-000759*
X-000621Y-000799D02*
D01*
X-000614Y-000799*
X-000606Y-000798*
X-000599Y-000797*
X-000592Y-000795*
X-000585Y-000793*
X-000578Y-00079*
X-000571Y-000787*
X-000564Y-000783*
X-000558Y-000779*
X-000552Y-000774*
X-000549Y-000771*
X000074Y-001391D02*
D01*
X000068Y-0014*
X000062Y-00141*
X000056Y-00142*
X000052Y-00143*
X000048Y-00144*
X000045Y-001451*
X000042Y-001462*
X000041Y-001473*
X00004Y-001484*
X000039Y-001495*
X00004Y-001506*
X000042Y-001517*
X000044Y-001528*
X000047Y-001539*
X00005Y-00155*
X000055Y-00156*
X00006Y-00157*
X000066Y-001579*
X000072Y-001589*
X000074Y-001591*
X000359Y-001745D02*
D01*
X000359Y-001734*
X000358Y-001723*
X000356Y-001712*
X000353Y-001701*
X00035Y-001691*
X000346Y-00168*
X000341Y-00167*
X000335Y-001661*
X000329Y-001651*
X000324Y-001645*
Y-001591D02*
D01*
X000331Y-001583*
X000337Y-001573*
X000343Y-001563*
X000347Y-001553*
X000351Y-001543*
X000354Y-001532*
X000357Y-001521*
X000358Y-00151*
X000359Y-001499*
X000359Y-001491*
X-000552Y-001318D02*
D01*
X-000547Y-001324*
X-00054Y-001329*
X-000534Y-001334*
X-000527Y-001338*
X-00052Y-001341*
X-000513Y-001344*
X-000505Y-001347*
X-000497Y-001349*
X-000489Y-001351*
X-000481Y-001352*
X-000473Y-001352*
X-000471Y-001352*
X000359Y-001491D02*
D01*
X000359Y-00148*
X000358Y-001469*
X000356Y-001458*
X000353Y-001447*
X00035Y-001437*
X000346Y-001426*
X000341Y-001416*
X000335Y-001407*
X000329Y-001397*
X000324Y-001391*
Y-001337D02*
D01*
X000331Y-001329*
X000337Y-001319*
X000343Y-001309*
X000347Y-001299*
X000351Y-001289*
X000354Y-001278*
X000357Y-001267*
X000358Y-001256*
X000359Y-001245*
X000359Y-001237*
D01*
X000359Y-001226*
X000358Y-001215*
X000356Y-001204*
X000353Y-001193*
X00035Y-001183*
X000346Y-001172*
X000341Y-001162*
X000335Y-001153*
X000329Y-001143*
X000322Y-001135*
X000315Y-001126*
X000307Y-001119*
X000298Y-001111*
X000289Y-001105*
X000279Y-001099*
X00027Y-001094*
X000259Y-001089*
X000249Y-001085*
X000238Y-001082*
X000227Y-00108*
X000216Y-001078*
X000205Y-001078*
X000194*
X000183Y-001078*
X000172Y-00108*
X000161Y-001082*
X00015Y-001085*
X00014Y-001089*
X000129Y-001094*
X000119Y-001099*
X00011Y-001105*
X000101Y-001111*
X000092Y-001119*
X000088Y-001122*
X-000549Y-000771D02*
D01*
X-000544Y-000776*
X-000538Y-000781*
X-000531Y-000785*
X-000525Y-000789*
X-000518Y-000792*
X-000511Y-000794*
X-000504Y-000797*
X-000497Y-000798*
X-000489Y-000799*
X-000482Y-0008*
X-000477Y-000799*
X-000431D02*
D01*
X-000424Y-000799*
X-000416Y-000798*
X-000409Y-000797*
X-000402Y-000795*
X-000395Y-000793*
X-000388Y-00079*
X-000381Y-000787*
X-000374Y-000783*
X-000368Y-000779*
X-000362Y-000774*
X-000356Y-000769*
X-000351Y-000764*
X-000346Y-000758*
X-000342Y-000752*
X-000338Y-000745*
X-000334Y-000739*
X-000331Y-000732*
X-000329Y-000725*
X-000327Y-000718*
X-000325Y-00071*
X-000324Y-000703*
X-000324Y-000695*
X-000324Y-000692*
X-001212Y-000381D02*
D01*
X-001213Y-000369*
X-001214Y-000358*
X-001216Y-000347*
X-001219Y-000336*
X-001222Y-000326*
X-001226Y-000315*
X-001231Y-000305*
X-001237Y-000296*
X-001243Y-000286*
X-00125Y-000278*
X-001257Y-000269*
X-001265Y-000262*
X-001274Y-000254*
X-001283Y-000248*
X-001292Y-000242*
X-001302Y-000237*
X-001313Y-000232*
X-001323Y-000228*
X-001334Y-000225*
X-001345Y-000223*
X-001356Y-000221*
X-001367Y-000221*
X-001378*
X-001389Y-000221*
X-0014Y-000223*
X-001411Y-000225*
X-001422Y-000228*
X-001432Y-000232*
X-001443Y-000237*
X-001452Y-000242*
X-001462Y-000248*
X-001466Y-000251*
X-001124Y-000606D02*
D01*
X-001125Y-000599*
X-001126Y-000591*
X-001127Y-000584*
X-001129Y-000577*
X-001131Y-00057*
X-001134Y-000563*
X-001137Y-000556*
X-001141Y-000549*
X-001144Y-000544*
Y-000498D02*
D01*
X-001145Y-000491*
X-001146Y-000483*
X-001147Y-000476*
X-001149Y-000468*
X-001151Y-000461*
X-001154Y-000454*
X-001157Y-000447*
X-001161Y-00044*
X-001166Y-000434*
X-00117Y-000428*
X-001175Y-000422*
X-001176Y-00042*
X-001144Y-000498D02*
D01*
X-001145Y-000491*
X-001146Y-000483*
X-001147Y-000476*
X-001149Y-000468*
X-001151Y-000461*
X-001154Y-000454*
X-001157Y-000447*
X-001161Y-00044*
X-001166Y-000434*
X-00117Y-000428*
X-001175Y-000422*
X-001176Y-00042*
X-000986Y-000477D02*
D01*
X-000993Y-000481*
X-000999Y-000484*
X-001005Y-000488*
X-001011Y-000492*
X-001017Y-000497*
X-001022Y-000502*
X-001026Y-000507*
X-001031Y-000513*
X-001035Y-000519*
X-001038Y-000525*
X-001041Y-000532*
X-001044Y-000539*
X-001046Y-000546*
X-001048Y-000553*
X-001049Y-00056*
X-001049Y-000567*
X-001049Y-000571*
X-000412Y-000381D02*
D01*
X-000413Y-000369*
X-000414Y-000358*
X-000416Y-000347*
X-000419Y-000336*
X-000422Y-000326*
X-000426Y-000315*
X-000431Y-000305*
X-000437Y-000296*
X-000443Y-000286*
X-00045Y-000278*
X-000457Y-000269*
X-000465Y-000262*
X-000474Y-000254*
X-000483Y-000248*
X-000492Y-000242*
X-000502Y-000237*
X-000513Y-000232*
X-000523Y-000228*
X-000534Y-000225*
X-000545Y-000223*
X-000556Y-000221*
X-000567Y-000221*
X-000578*
X-000589Y-000221*
X-0006Y-000223*
X-000611Y-000225*
X-000622Y-000228*
X-000632Y-000232*
X-000643Y-000237*
X-000652Y-000242*
X-000662Y-000248*
X-000666Y-000251*
X-000344Y-000498D02*
D01*
X-000345Y-000491*
X-000346Y-000483*
X-000347Y-000476*
X-000349Y-000468*
X-000351Y-000461*
X-000354Y-000454*
X-000357Y-000447*
X-000361Y-00044*
X-000366Y-000434*
X-00037Y-000428*
X-000375Y-000422*
X-000376Y-00042*
X-000344Y-000498D02*
D01*
X-000345Y-000491*
X-000346Y-000483*
X-000347Y-000476*
X-000349Y-000468*
X-000351Y-000461*
X-000354Y-000454*
X-000357Y-000447*
X-000361Y-00044*
X-000366Y-000434*
X-00037Y-000428*
X-000375Y-000422*
X-000376Y-00042*
X-000324Y-000606D02*
D01*
X-000325Y-000599*
X-000326Y-000591*
X-000327Y-000584*
X-000329Y-000577*
X-000331Y-00057*
X-000334Y-000563*
X-000337Y-000556*
X-000341Y-000549*
X-000344Y-000544*
X-000366Y-000116D02*
D01*
X-000357Y-000142*
X-000347Y-000166*
X-000334Y-00019*
X-00032Y-000213*
X-000304Y-000235*
X-000287Y-000256*
X-000269Y-000275*
X-000249Y-000293*
X-000228Y-00031*
X-000205Y-000325*
X-000182Y-000339*
X-000158Y-000351*
X-000133Y-000361*
X-000108Y-000369*
X-000082Y-000376*
X-000055Y-000381*
X-000028Y-000384*
X-000002Y-000385*
X000024Y-000384*
X000051Y-000381*
X000077Y-000377*
X000104Y-00037*
X000129Y-000362*
X000154Y-000352*
X000178Y-000341*
X000202Y-000327*
X000224Y-000312*
X000245Y-000296*
X000266Y-000278*
X000284Y-000259*
X000302Y-000238*
X000318Y-000217*
X000332Y-000194*
X000345Y-00017*
X000356Y-000146*
X000365Y-000121*
X000373Y-000095*
X000378Y-000068*
X000382Y-000042*
X000384Y-000015*
X000384Y0*
X-005182Y-000101D02*
Y000081D01*
Y-000101D02*
X-005057Y-000226D01*
X-004674Y-000097D02*
Y000099D01*
X-004803Y-000226D02*
X-004674Y-000097D01*
X-005404Y000149D02*
X-005249D01*
X-005182Y000081*
X-005429Y000204D02*
X-004981D01*
X-004803Y000026*
X-005452Y000259D02*
X-004834D01*
X-004674Y000099*
X-005477Y000314D02*
X-004732D01*
X-004549Y000132*
Y000026D02*
Y000132D01*
X-005782Y000221D02*
X-005569D01*
X-005477Y000314*
X-006521Y000161D02*
X-005549D01*
X-005452Y000259*
X-007259Y000099D02*
X-005534D01*
X-005429Y000204*
X-007996Y000037D02*
X-005516D01*
X-005404Y000149*
X-005913Y000353D02*
X-005782Y000221D01*
X-006713Y000353D02*
X-006521Y000161D01*
X-007513Y000353D02*
X-007259Y000099D01*
X-008313Y000353D02*
X-007996Y000037D01*
X-004041Y000026D02*
Y000147D01*
Y-000226D02*
X-003911Y-000097D01*
Y000116*
X-003799Y000229*
X-002839*
X-002729Y000339*
X-002699*
X-003787Y000026D02*
X-003654Y000159D01*
X-002109*
X-001929Y000339*
X-001899*
X-003787Y-000226D02*
X-00347Y000089D01*
X-001379*
X-001129Y000339*
X-001099*
X-004041Y000147D02*
X-003869Y000319D01*
X-003519*
X-003499Y000339*
X-008399Y-002172D02*
X-008076D01*
X-008399Y-002202D02*
X-00803D01*
X-008399Y-002112D02*
X-008128D01*
X-008399Y-002142D02*
X-008106D01*
X-008042Y-002449D02*
Y-002195D01*
X-008012Y-002449D02*
Y-002209D01*
X-008102Y-002449D02*
Y-002147D01*
X-008072Y-002449D02*
Y-002175D01*
X-008399Y-001992D02*
X-008161D01*
X-008399Y-001962D02*
X-00816D01*
X-008399Y-001932D02*
X-008154D01*
X-008399Y-001902D02*
X-008144D01*
X-008399Y-002082D02*
X-008143D01*
X-008132Y-002449D02*
Y-002104D01*
X-008399Y-002022D02*
X-008159D01*
X-008399Y-002052D02*
X-008153D01*
X-007922Y-002449D02*
Y-002225D01*
X-007892Y-002449D02*
Y-002223D01*
X-007982Y-002449D02*
Y-002219D01*
X-007952Y-002449D02*
Y-002224D01*
X-007862Y-002449D02*
Y-002216D01*
X-007832Y-002449D02*
Y-002206D01*
X-007802Y-002449D02*
Y-00219D01*
X-007823Y-002202D02*
X-007264D01*
X-007772Y-002449D02*
Y-002168D01*
X-007777Y-002172D02*
X-00731D01*
X-007742Y-002449D02*
Y-002136D01*
X-007712Y-002449D02*
Y-002136D01*
X-007682Y-002449D02*
Y-002136D01*
X-007747Y-002142D02*
X-00734D01*
X-007742Y-002136D02*
X-007506D01*
X-008399Y-001872D02*
X-008129D01*
X-008399Y-001842D02*
X-008108D01*
X-008399Y-001812D02*
X-008079D01*
X-008399Y-001782D02*
X-008034D01*
X-008012Y-001772D02*
Y-001727D01*
X-007982Y-001762D02*
Y-001737D01*
X-008399Y-001752D02*
X-007967D01*
X-007984Y-001735D02*
X-007961Y-001758D01*
X-008399Y-001692D02*
X-008062D01*
X-008399Y-001722D02*
X-008023D01*
X-008399Y-001632D02*
X-008093D01*
X-008399Y-001662D02*
X-008082D01*
X-008072Y-001806D02*
Y-001679D01*
X-008042Y-001786D02*
Y-00171D01*
X-008399Y-001602D02*
X-008096D01*
X-008399Y-001572D02*
X-008093D01*
X-008399Y-001542D02*
X-008082D01*
X-007828Y-001579D02*
X-007563Y-001844D01*
X-007776Y-001632D02*
X-006949D01*
X-007806Y-001602D02*
X-006951D01*
X-00783Y-001572D02*
X-006947D01*
X-007686Y-001722D02*
X-006887D01*
X-007656Y-001752D02*
X-006827D01*
X-007747Y-001662D02*
X-00694D01*
X-007716Y-001692D02*
X-006921D01*
X-007832Y-001563D02*
Y-001526D01*
X-00785D02*
X-007564D01*
X-007841Y-001542D02*
X-006935D01*
X-007712Y-001695D02*
Y-001526D01*
X-007682Y-001725D02*
Y-001526D01*
X-007802Y-001605D02*
Y-001526D01*
X-007742Y-001665D02*
Y-001526D01*
X-007772Y-001635D02*
Y-001526D01*
X-007562Y-002449D02*
Y-002136D01*
X-007322Y-002449D02*
Y-002161D01*
X-007622Y-002449D02*
Y-002136D01*
X-007592Y-002449D02*
Y-002136D01*
X-007232Y-002449D02*
Y-002214D01*
X-007202Y-002449D02*
Y-002222D01*
X-007292Y-002449D02*
Y-002185D01*
X-007262Y-002449D02*
Y-002202D01*
X-007502Y-002449D02*
Y-002106D01*
X-007472Y-002449D02*
Y-002106D01*
X-007652Y-002449D02*
Y-002136D01*
X-007532Y-002449D02*
Y-002136D01*
X-007382Y-002449D02*
Y-002106D01*
X-007352Y-002449D02*
Y-002127D01*
X-007442Y-002449D02*
Y-002106D01*
X-007412Y-002449D02*
Y-002106D01*
X-007112Y-002449D02*
Y-00222D01*
X-006842Y-002449D02*
Y-002219D01*
X-007172Y-002449D02*
Y-002225D01*
X-007142Y-002449D02*
Y-002225D01*
X-006752Y-002449D02*
Y-002223D01*
X-006722Y-002449D02*
Y-002216D01*
X-006812Y-002449D02*
Y-002224D01*
X-006782Y-002449D02*
Y-002225D01*
X-007052Y-002449D02*
Y-002199D01*
X-007022Y-002449D02*
Y-00218D01*
X-007082Y-002449D02*
Y-002212D01*
X-006902Y-002449D02*
Y-002195D01*
X-006872Y-002449D02*
Y-002209D01*
X-006992Y-002449D02*
Y-002154D01*
X-006932Y-002449D02*
Y-002175D01*
X-006962Y-002449D02*
Y-002147D01*
X-007506Y-002136D02*
Y-002106D01*
Y-002112D02*
X-007362D01*
X-007506Y-001896D02*
Y-001866D01*
Y-002106D02*
X-007366D01*
X-007506Y-001896D02*
X-007376D01*
X-007506Y-001872D02*
X-007363D01*
X-007622Y-001785D02*
Y-001526D01*
X-007596Y-001812D02*
X-007313D01*
X-007652Y-001755D02*
Y-001526D01*
X-007626Y-001782D02*
X-007268D01*
X-007546Y-001866D02*
X-007506D01*
X-007592Y-001815D02*
Y-001526D01*
X-007566Y-001842D02*
X-007342D01*
X-007057Y-002202D02*
X-00689D01*
X-007011Y-002172D02*
X-006936D01*
X-007053Y-001782D02*
X-006894D01*
X-006981Y-002142D02*
X-006966D01*
X-006979Y-001842D02*
X-006968D01*
X-007008Y-001812D02*
X-006939D01*
X-006932Y-001806D02*
Y-001676D01*
X-006902Y-001786D02*
Y-001711D01*
X-006872Y-001772D02*
Y-00173D01*
X-006842Y-001762D02*
Y-001739D01*
X-006839Y-00174D02*
X-006821Y-001758D01*
X-006692Y-001554D02*
Y-001526D01*
X-008399Y-002449D02*
Y-001209D01*
X-008132Y-001877D02*
Y-001019D01*
X-008399Y-001512D02*
X-008062D01*
X-008399Y-001482D02*
X-008024D01*
X-008102Y-001834D02*
Y-001049D01*
X-008072Y-001524D02*
Y-001079D01*
X-008042Y-001493D02*
Y-001109D01*
X-008012Y-001476D02*
Y-001139D01*
X-008312Y-002449D02*
Y-000953D01*
X-008282Y-002449D02*
Y-000946D01*
X-008372Y-002449D02*
Y-000956D01*
X-008342Y-002449D02*
Y-000956D01*
X-008192Y-002449D02*
Y-000959D01*
X-008162Y-002449D02*
Y-000989D01*
X-008252Y-002449D02*
Y-000946D01*
X-008222Y-002449D02*
Y-000946D01*
X-007564Y-001482D02*
X-007541D01*
X-008399Y-001422D02*
X-007904D01*
X-008399Y-001452D02*
X-007904D01*
X-007562Y-001845D02*
Y-001469D01*
X-007532Y-001866D02*
Y-001485D01*
X-007564Y-001526D02*
Y-001468D01*
Y-001512D02*
X-006913D01*
X-008399Y-001362D02*
X-007904D01*
X-008399Y-001392D02*
X-007904D01*
X-008399Y-001302D02*
X-007904D01*
X-008399Y-001332D02*
X-007904D01*
Y-001479D02*
Y-001211D01*
X-007982Y-001468D02*
Y-001169D01*
X-007922Y-001472D02*
Y-001208D01*
X-007952Y-001467D02*
Y-001195D01*
X-008526Y-001062D02*
X-008089D01*
X-008496Y-001092D02*
X-008059D01*
X-008586Y-001002D02*
X-008149D01*
X-008556Y-001032D02*
X-008119D01*
X-008402Y-001186D02*
Y-000956D01*
X-008399Y-001209D02*
X-008389Y-001199D01*
X-008466Y-001122D02*
X-008029D01*
X-008436Y-001152D02*
X-007999D01*
X-008552Y-001036D02*
Y-000149D01*
X-008649Y-000939D02*
X-008389Y-001199D01*
X-008612Y-000976D02*
Y-000149D01*
X-008582Y-001006D02*
Y-000149D01*
X-008432Y-001156D02*
Y-000956D01*
X-008205Y-000946D02*
X-007972Y-001179D01*
X-008522Y-001066D02*
Y-000905D01*
X-008462Y-001126D02*
Y-000952D01*
X-008492Y-001096D02*
Y-000938D01*
X-008399Y-001242D02*
X-007904D01*
X-008399Y-001272D02*
X-007904D01*
X-008406Y-001182D02*
X-007969D01*
X-008399Y-001212D02*
X-007904D01*
X-008077Y-000763D02*
X-007848Y-000992D01*
X-007737*
X-007862Y-000978D02*
Y-000149D01*
X-007832Y-000992D02*
Y-000149D01*
X-007802Y-000992D02*
Y-000149D01*
X-007772Y-000992D02*
Y-000149D01*
X-007742Y-000992D02*
Y-000149D01*
X-007502Y-001896D02*
Y-001494D01*
X-007472Y-001896D02*
Y-001495D01*
X-007442Y-001896D02*
Y-00149D01*
X-007412Y-001896D02*
Y-001478D01*
X-007382Y-001896D02*
Y-001455D01*
X-007352Y-001854D02*
Y-001412D01*
X-007322Y-00182D02*
Y-00127D01*
X-007292Y-001796D02*
Y-00126D01*
X-007262Y-001779D02*
Y-001245D01*
X-007232Y-001767D02*
Y-001221D01*
X-007112Y-001761D02*
Y-001042D01*
X-007082Y-001769D02*
Y-001072D01*
X-007202Y-001759D02*
Y-00118D01*
X-007142Y-001756D02*
Y-001012D01*
X-007172Y-001756D02*
Y-000982D01*
X-007419Y-001482D02*
X-006868D01*
X-007378Y-001452D02*
X-006764D01*
X-007345Y-001392D02*
X-006764D01*
X-007357Y-001422D02*
X-006764D01*
X-006872Y-001483D02*
Y-001211D01*
X-006842Y-001474D02*
Y-001211D01*
X-00734Y-001362D02*
X-006764D01*
X-006992Y-001827D02*
Y-001162D01*
X-006962Y-001834D02*
Y-00119D01*
X-007052Y-001782D02*
Y-001102D01*
X-007022Y-001801D02*
Y-001132D01*
X-006932Y-001537D02*
Y-001206D01*
X-006902Y-001502D02*
Y-001211D01*
X-006812Y-001472D02*
Y-001211D01*
X-006764Y-001482D02*
Y-001211D01*
X-006782Y-001476D02*
Y-001211D01*
X-007352Y-001299D02*
Y-001271D01*
X-007191Y-001152D02*
X-007002D01*
X-007203Y-001182D02*
X-006972D01*
X-007183Y-001092D02*
X-007062D01*
X-007184Y-001122D02*
X-007032D01*
X-007472Y-00098D02*
Y-000946D01*
X-007232Y-000982D02*
Y-000946D01*
X-007188Y-001062D02*
X-007092D01*
X-007208Y-000946D02*
X-006974Y-001179D01*
X-007202Y-001023D02*
Y-000952D01*
X-007198Y-001032D02*
X-007122D01*
X-007215Y-001002D02*
X-007152D01*
X-007351Y-001302D02*
X-006764D01*
X-007342Y-001332D02*
X-006764D01*
X-007257Y-001242D02*
X-006764D01*
X-007368Y-001272D02*
X-006764D01*
X-007223Y-001212D02*
X-006764D01*
X-006896Y-001211D02*
X-006764D01*
X-006867Y-000975D02*
X-006851Y-000992D01*
X-006842D02*
Y-000981D01*
X-006834D02*
X-006738D01*
X-006812Y-000992D02*
Y-000981D01*
X-006782Y-000992D02*
Y-000981D01*
X-006752Y-000992D02*
Y-000981D01*
X-006722Y-000992D02*
Y-00098D01*
X-006632Y-002449D02*
Y-002168D01*
X-006602Y-002449D02*
Y-002136D01*
X-006692Y-002449D02*
Y-002206D01*
X-006662Y-002449D02*
Y-00219D01*
X-006512Y-002449D02*
Y-002136D01*
X-006482Y-002449D02*
Y-002136D01*
X-006572Y-002449D02*
Y-002136D01*
X-006542Y-002449D02*
Y-002136D01*
X-006392Y-002449D02*
Y-002136D01*
X-006362Y-002449D02*
Y-002106D01*
X-006452Y-002449D02*
Y-002136D01*
X-006422Y-002449D02*
Y-002136D01*
X-006272Y-002449D02*
Y-002106D01*
X-006242Y-002449D02*
Y-002106D01*
X-006332Y-002449D02*
Y-002106D01*
X-006302Y-002449D02*
Y-002106D01*
X-008399Y-002442D02*
X000449D01*
X-008399Y-002449D02*
X000449D01*
X-008399Y-002382D02*
X000449D01*
X-008399Y-002413D02*
X000449D01*
X-006032Y-002449D02*
Y-002225D01*
X-008399Y-002352D02*
X000449D01*
X-008399Y-002292D02*
X000449D01*
X-008399Y-002322D02*
X000449D01*
X-006152Y-002449D02*
Y-002185D01*
X-006122Y-002449D02*
Y-002202D01*
X-006212Y-002449D02*
Y-002127D01*
X-006182Y-002449D02*
Y-002161D01*
X-005972Y-002449D02*
Y-00222D01*
X-005942Y-002449D02*
Y-002212D01*
X-006092Y-002449D02*
Y-002214D01*
X-006002Y-002449D02*
Y-002225D01*
X-006062Y-002449D02*
Y-002222D01*
X-006602Y-002136D02*
X-006381D01*
X-006607Y-002142D02*
X-0062D01*
X-006381Y-002136D02*
Y-002106D01*
Y-002112D02*
X-006223D01*
X-006381Y-002106D02*
X-006225D01*
X-006428Y-001842D02*
X-006202D01*
X-006456Y-001812D02*
X-006173D01*
X-006381Y-001896D02*
Y-001866D01*
X-006414D02*
X-006381D01*
Y-001896D02*
X-006236D01*
X-006381Y-001872D02*
X-006223D01*
X-008399Y-002232D02*
X-003339D01*
X-008399Y-002262D02*
X000449D01*
X-006637Y-002172D02*
X-00617D01*
X-006683Y-002202D02*
X-006124D01*
X-006486Y-001782D02*
X-006128D01*
X-005917Y-002202D02*
X-005752D01*
X-006606Y-001662D02*
X-005806D01*
X-006576Y-001692D02*
X-005787D01*
X-006666Y-001602D02*
X-005819D01*
X-006636Y-001632D02*
X-005816D01*
X-005913Y-001782D02*
X-005757D01*
X-006516Y-001752D02*
X-005692D01*
X-006546Y-001722D02*
X-00575D01*
X-005702Y-002449D02*
Y-002219D01*
X-005672Y-002449D02*
Y-002224D01*
X-005912Y-002449D02*
Y-002199D01*
X-005732Y-002449D02*
Y-00221D01*
X-005582Y-002449D02*
Y-002216D01*
X-005552Y-002449D02*
Y-002205D01*
X-005642Y-002449D02*
Y-002225D01*
X-005612Y-002449D02*
Y-002223D01*
X-005882Y-002449D02*
Y-00218D01*
X-005852Y-002449D02*
Y-002154D01*
X-005522Y-002449D02*
Y-002188D01*
X-005492Y-002449D02*
Y-002165D01*
X-005822Y-002449D02*
Y-00215D01*
X-005762Y-002449D02*
Y-002197D01*
X-005792Y-002449D02*
Y-002177D01*
X-005462Y-002449D02*
Y-002136D01*
X-005432Y-002449D02*
Y-002136D01*
X-005499Y-002172D02*
X-005033D01*
X-005546Y-002202D02*
X-004986D01*
X-005282Y-002449D02*
Y-002136D01*
X-005252Y-002449D02*
Y-002136D01*
X-005342Y-002449D02*
Y-002136D01*
X-005312Y-002449D02*
Y-002136D01*
X-005222Y-002449D02*
Y-002106D01*
X-005192Y-002449D02*
Y-002106D01*
X-005402Y-002449D02*
Y-002136D01*
X-005372Y-002449D02*
Y-002136D01*
X-005162Y-002449D02*
Y-002106D01*
X-005132Y-002449D02*
Y-002106D01*
X-005102Y-002449D02*
Y-002106D01*
X-005842Y-002142D02*
X-005829D01*
X-005871Y-002172D02*
X-005799D01*
X-005464Y-002136D02*
X-005231D01*
Y-001896D02*
Y-001866D01*
Y-002136D02*
Y-002106D01*
X-005271Y-001866D02*
X-005231D01*
X-005839Y-001842D02*
X-005831D01*
X-005868Y-001812D02*
X-005801D01*
X-005792Y-001804D02*
Y-001685D01*
X-005762Y-001784D02*
Y-001714D01*
X-005732Y-001771D02*
Y-00173D01*
X-005702Y-001762D02*
Y-001742D01*
X-005706Y-001737D02*
X-005685Y-001758D01*
X-005231Y-002112D02*
X-005084D01*
X-005469Y-002142D02*
X-005063D01*
X-005231Y-002106D02*
X-005088D01*
X-005291Y-001842D02*
X-005065D01*
X-005231Y-001896D02*
X-005098D01*
X-005231Y-001872D02*
X-005086D01*
X-005441Y-001692D02*
X-00466D01*
X-005411Y-001722D02*
X-004621D01*
X-005501Y-001632D02*
X-004691D01*
X-005471Y-001662D02*
X-00468D01*
X-005321Y-001812D02*
X-005035D01*
X-005351Y-001782D02*
X-004991D01*
X-005381Y-001752D02*
X-004564D01*
X-006632Y-001635D02*
Y-001526D01*
X-006683Y-001584D02*
X-006438Y-001829D01*
X-006662Y-001605D02*
Y-001526D01*
X-006542Y-001725D02*
Y-001526D01*
X-006512Y-001755D02*
Y-001526D01*
X-006602Y-001665D02*
Y-001526D01*
X-006572Y-001695D02*
Y-001526D01*
X-006482Y-001785D02*
Y-001526D01*
X-006452Y-001815D02*
Y-001526D01*
X-006424D02*
Y-001468D01*
X-006709Y-001526D02*
X-006424D01*
X-006362Y-001896D02*
Y-001494D01*
X-006332Y-001896D02*
Y-001495D01*
X-006422Y-00185D02*
Y-001469D01*
X-006392Y-001866D02*
Y-001485D01*
X-006686Y-001572D02*
X-005815D01*
X-006698Y-001542D02*
X-005804D01*
X-006424Y-001512D02*
X-005782D01*
X-006302Y-001896D02*
Y-00149D01*
X-006272Y-001896D02*
Y-001478D01*
X-006242Y-001896D02*
Y-001456D01*
X-006212Y-001854D02*
Y-001412D01*
X-006182Y-00182D02*
Y-00127D01*
X-006152Y-001796D02*
Y-00126D01*
X-006122Y-001779D02*
Y-001245D01*
X-006092Y-001767D02*
Y-001221D01*
X-005972Y-001761D02*
Y-001211D01*
X-005942Y-001769D02*
Y-001211D01*
X-006062Y-001759D02*
Y-00118D01*
X-006002Y-001756D02*
Y-001206D01*
X-006032Y-001756D02*
Y-001192D01*
X-006424Y-001482D02*
X-006401D01*
X-006212Y-001299D02*
Y-001271D01*
X-006057Y-001169D02*
X-006047Y-001179D01*
X-006662Y-000992D02*
Y-000971D01*
X-006632Y-000992D02*
Y-000971D01*
X-006692Y-000992D02*
Y-000971D01*
X-006851Y-000992D02*
X-006597D01*
X-006602D02*
Y-000971D01*
X-006332Y-00098D02*
Y-000971D01*
X-006279Y-001482D02*
X-005741D01*
X-006238Y-001452D02*
X-005627D01*
X-006228Y-001272D02*
X-005627D01*
X-006217Y-001422D02*
X-005627D01*
X-0062Y-001362D02*
X-005627D01*
X-006205Y-001392D02*
X-005627D01*
X-006211Y-001302D02*
X-005627D01*
X-006202Y-001332D02*
X-005627D01*
X-006083Y-001212D02*
X-005627D01*
X-006117Y-001242D02*
X-005627D01*
X-006063Y-001182D02*
X-006044D01*
X-005969Y-001211D02*
X-005627D01*
X-005936Y-000979D02*
X-005923Y-000992D01*
X-005459*
X-005522Y-00161D02*
Y-001526D01*
X-005492Y-00164D02*
Y-001526D01*
X-005552Y-001576D02*
Y-001526D01*
X-005372Y-00176D02*
Y-001526D01*
X-005342Y-00179D02*
Y-001526D01*
X-005462Y-00167D02*
Y-001526D01*
X-005432Y-0017D02*
Y-001526D01*
X-005852Y-001827D02*
Y-001211D01*
X-005822Y-001831D02*
Y-001211D01*
X-005912Y-001782D02*
Y-001211D01*
X-005882Y-001801D02*
Y-001211D01*
X-005402Y-00173D02*
Y-001526D01*
X-005792Y-001524D02*
Y-001211D01*
X-005627Y-001482D02*
Y-001211D01*
X-005762Y-001494D02*
Y-001211D01*
X-005551Y-001582D02*
X-005288Y-001844D01*
X-005553Y-001572D02*
X-004691D01*
X-005574Y-001526D02*
X-005287D01*
X-005564Y-001542D02*
X-00468D01*
X-005312Y-00182D02*
Y-001526D01*
X-005192Y-001896D02*
Y-001495D01*
X-005531Y-001602D02*
X-004694D01*
X-005287Y-001512D02*
X-00466D01*
X-005282Y-001851D02*
Y-001471D01*
X-005252Y-001866D02*
Y-001486D01*
X-005287Y-001526D02*
Y-001468D01*
X-005222Y-001896D02*
Y-001494D01*
X-005162Y-001896D02*
Y-00149D01*
X-005132Y-001896D02*
Y-001476D01*
X-005102Y-001896D02*
Y-001453D01*
X-005792Y-000992D02*
Y-000969D01*
X-005762Y-000992D02*
Y-000969D01*
X-005912Y-000992D02*
Y-000975D01*
X-005822Y-000992D02*
Y-000969D01*
X-005732Y-001478D02*
Y-001211D01*
X-005642Y-001476D02*
Y-001211D01*
X-005702Y-00147D02*
Y-001211D01*
X-005672Y-00147D02*
Y-001211D01*
X-005732Y-000992D02*
Y-000969D01*
X-005702Y-000992D02*
Y-000969D01*
X-005882Y-000992D02*
Y-000969D01*
X-005852Y-000992D02*
Y-000969D01*
X-005582Y-000992D02*
Y-000969D01*
X-005552Y-000992D02*
Y-000969D01*
X-005672Y-000992D02*
Y-000969D01*
X-005612Y-000992D02*
Y-000969D01*
X-005642Y-000992D02*
Y-000969D01*
X-005287Y-001482D02*
X-005263D01*
X-005142D02*
X-004621D01*
X-005101Y-001452D02*
X-004491D01*
X-00508Y-001422D02*
X-004491D01*
X-00509Y-001272D02*
X-004491D01*
X-005073Y-001302D02*
X-004491D01*
X-005462Y-000992D02*
Y-000969D01*
X-005522Y-000992D02*
Y-000969D01*
X-005492Y-000992D02*
Y-000969D01*
X-005192Y-000978D02*
Y-000969D01*
X-010082Y-000749D02*
Y-000729D01*
X-010052Y-000749D02*
Y-000724D01*
X-010142Y-000749D02*
Y-000716D01*
X-010112Y-000749D02*
Y-000726D01*
X-009812Y-000749D02*
Y-000727D01*
X-009782Y-000749D02*
Y-000719D01*
X-009872Y-000749D02*
Y-000723D01*
X-009842Y-000749D02*
Y-000729D01*
X-009992Y-000749D02*
Y-000689D01*
X-009962Y-000749D02*
Y-000638D01*
X-010149Y-000749D02*
Y-000713D01*
X-010022Y-000749D02*
Y-000712D01*
X-009752Y-000749D02*
Y-000701D01*
X-009722Y-000749D02*
Y-000668D01*
X-009932Y-000749D02*
Y-000682D01*
X-009902Y-000749D02*
Y-000709D01*
X-009452Y-000749D02*
Y-000729D01*
X-009422Y-000749D02*
Y-000729D01*
X-010149Y-000749D02*
X-009499D01*
X-009299*
X-009302D02*
Y-000729D01*
X-009299Y-000749D02*
X-009279Y-000729D01*
X-009392Y-000749D02*
Y-000729D01*
X-009362Y-000749D02*
Y-000729D01*
X-009632Y-000749D02*
Y-000717D01*
X-009602Y-000749D02*
Y-000727D01*
X-009692Y-000749D02*
Y-000661D01*
X-009662Y-000749D02*
Y-000698D01*
X-009482Y-000749D02*
Y-000687D01*
X-009332Y-000749D02*
Y-000729D01*
X-009572Y-000749D02*
Y-000729D01*
X-009542Y-000749D02*
Y-000724D01*
X-009512Y-000749D02*
Y-000711D01*
X-010006Y-000702D02*
X-009912D01*
X-009963Y-000642D02*
X-009955D01*
X-009978Y-000672D02*
X-00994D01*
X-009752Y-000702D02*
X-009658D01*
X-009709Y-000642D02*
X-009701D01*
X-009724Y-000672D02*
X-009686D01*
X-009965Y-000552D02*
X-009953D01*
X-009982Y-000522D02*
X-009936D01*
X-009711Y-000552D02*
X-009699D01*
X-010149Y-000732D02*
X-009282D01*
X-00947Y-000672D02*
X-009454D01*
X-009498Y-000702D02*
X-009454D01*
Y-000729D02*
Y-000638D01*
Y-000729D02*
X-009279D01*
X-009194Y-000612D02*
X-009162D01*
X-008771D02*
X-008536D01*
X-009194Y-000644D02*
X-009149Y-000599D01*
X-008999D02*
X-008784D01*
X-008684Y-000699*
X-009149Y-000599D02*
X-008999D01*
X-009194Y-000582D02*
X-008535D01*
X-009194Y-000552D02*
X-008525D01*
X-008646Y-000942D02*
X-008486D01*
X-008616Y-000972D02*
X-008179D01*
X-008649Y-000882D02*
X-008532D01*
X-008649Y-000912D02*
X-008518D01*
X-008434Y-000956D02*
X-008338D01*
X-008294Y-000946D02*
X-008205D01*
X-008649Y-000939D02*
Y-000734D01*
Y-000852D02*
X-008536D01*
X-008649Y-000822D02*
X-008536D01*
X-008649Y-000792D02*
X-008532D01*
X-008536Y-000854D02*
Y-000818D01*
X-008072Y-000768D02*
Y-000757D01*
X-008042Y-000798D02*
Y-000766D01*
X-007958Y-000882D02*
X-007732D01*
X-007928Y-000912D02*
X-007718D01*
X-008018Y-000822D02*
X-007736D01*
X-007988Y-000852D02*
X-007736D01*
X-007868Y-000972D02*
X-007717D01*
X-007712Y-000968D02*
Y-000919D01*
X-007736Y-000854D02*
Y-000818D01*
X-007898Y-000942D02*
X-007686D01*
X-008012Y-000828D02*
Y-000771D01*
X-007982Y-000858D02*
Y-000771D01*
X-008013D02*
X-007968D01*
X-008048Y-000792D02*
X-007732D01*
X-007922Y-000918D02*
Y-000756D01*
X-007892Y-000948D02*
Y-000706D01*
X-007952Y-000889D02*
Y-000769D01*
X-008684Y-000699D02*
X-008649Y-000734D01*
Y-000762D02*
X-008519D01*
X-008681Y-000702D02*
X-00851D01*
X-008651Y-000732D02*
X-008488D01*
X-008522Y-000767D02*
Y-000685D01*
X-008492Y-000734D02*
Y-000718D01*
X-008075Y-000762D02*
X-00805D01*
X-008711Y-000672D02*
X-008529D01*
X-008536Y-000633D02*
Y-000598D01*
X-008741Y-000642D02*
X-008536D01*
X-008072Y-000545D02*
Y-000536D01*
X-007932Y-000762D02*
X-007719D01*
X-007901Y-000732D02*
X-007688D01*
X-007712Y-000753D02*
Y-000699D01*
X-007891Y-000702D02*
X-00771D01*
X-007891Y-000642D02*
X-007736D01*
X-007891Y-000672D02*
X-007729D01*
X-008013Y-000531D02*
X-007968D01*
X-007916Y-000552D02*
X-007725D01*
X-007891Y-000694D02*
Y-000608D01*
X-007736Y-000633D02*
Y-000598D01*
X-007891Y-000612D02*
X-007736D01*
X-007896Y-000582D02*
X-007735D01*
X-010149Y-000485D02*
Y-000349D01*
X-010142Y-000482D02*
Y-000342D01*
X-010112Y-000472D02*
Y-000312D01*
X-010013Y-000492D02*
X-009906D01*
X-009752Y-000497D02*
Y-000289D01*
X-009992Y-000509D02*
Y-000192D01*
X-009962Y-00056D02*
Y-000162D01*
X-010052Y-000474D02*
Y-000252D01*
X-010022Y-000486D02*
Y-000222D01*
X-009932Y-000516D02*
Y-000149D01*
X-009902Y-000489D02*
Y-000149D01*
X-009872Y-000475D02*
Y-000149D01*
X-009782Y-000479D02*
Y-00026D01*
X-009728Y-000522D02*
X-009682D01*
X-009759Y-000492D02*
X-009652D01*
X-009505D02*
X-009454D01*
X-009474Y-000522D02*
X-009454D01*
X-009722Y-00053D02*
Y-000313D01*
X-009692Y-000537D02*
Y-000332D01*
X-009662Y-0005D02*
Y-000348D01*
X-009632Y-000481D02*
Y-00036D01*
X-009482Y-000511D02*
Y-000384D01*
X-009454Y-00056D02*
Y-000469D01*
X-009602Y-000471D02*
Y-00037D01*
X-009512Y-000487D02*
Y-000384D01*
X-009542Y-000474D02*
Y-000382D01*
X-010149Y-000349D02*
X-010099Y-000299D01*
X-010149Y-000372D02*
X-009596D01*
X-010112Y-000312D02*
X-009724D01*
X-010142Y-000342D02*
X-009675D01*
X-010082Y-000469D02*
Y-000282D01*
X-009572Y-000469D02*
Y-000377D01*
X-009452Y-000469D02*
Y-000381D01*
X-009422Y-000469D02*
Y-000376D01*
X-010099Y-000299D02*
X-009949Y-000149D01*
X-010082Y-000282D02*
X-00976D01*
X-010022Y-000222D02*
X-009813D01*
X-010052Y-000252D02*
X-00979D01*
X-009842Y-000469D02*
Y-000174D01*
X-009812Y-000471D02*
Y-000223D01*
X-009949Y-000149D02*
X-009854D01*
X-009992Y-000192D02*
X-009832D01*
X-009962Y-000162D02*
X-009848D01*
X-009454Y-000469D02*
X-009194D01*
X-010149Y-000462D02*
X-008494D01*
X-010149Y-000432D02*
X-008485D01*
X-010149Y-000402D02*
X-008473D01*
X-009362Y-000469D02*
Y-000359D01*
X-009332Y-000469D02*
Y-000346D01*
X-009392Y-000469D02*
Y-000369D01*
X-009402Y-000372D02*
X-008473D01*
X-009302Y-000469D02*
Y-00033D01*
X-009274Y-000312D02*
X-008473D01*
X-009323Y-000342D02*
X-008473D01*
X-009242Y-000469D02*
Y-000286D01*
X-009212Y-000469D02*
Y-000256D01*
X-009272Y-000469D02*
Y-00031D01*
X-009238Y-000282D02*
X-008473D01*
X-009208Y-000252D02*
X-008473D01*
X-009194Y-000644D02*
Y-000469D01*
X-009182Y-000632D02*
Y-000218D01*
X-009152Y-000602D02*
Y-000166D01*
X-009122Y-000599D02*
Y-000149D01*
X-009032Y-000599D02*
Y-000149D01*
X-009002Y-000599D02*
Y-000149D01*
X-009092Y-000599D02*
Y-000149D01*
X-009062Y-000599D02*
Y-000149D01*
X-008912Y-000599D02*
Y-000149D01*
X-008882Y-000599D02*
Y-000149D01*
X-008972Y-000599D02*
Y-000149D01*
X-008942Y-000599D02*
Y-000149D01*
X-008763Y-000621D02*
Y-000149D01*
X-008732Y-000651D02*
Y-000149D01*
X-008852Y-000599D02*
Y-000149D01*
X-008792Y-000599D02*
Y-000149D01*
X-008822Y-000599D02*
Y-000149D01*
X-009194Y-000522D02*
X-008501D01*
X-008496Y-000517D02*
Y-00048D01*
X-007998Y-000522D02*
X-007701D01*
X-007952Y-000533D02*
Y-000481D01*
X-007982Y-000531D02*
Y-000512D01*
X-007696Y-000517D02*
Y-00048D01*
X-008672Y-000711D02*
Y-000149D01*
X-008642Y-000946D02*
Y-000149D01*
X-008702Y-000681D02*
Y-000149D01*
X-008522Y-000547D02*
Y-000149D01*
X-007922Y-000546D02*
Y-000149D01*
X-007892Y-000596D02*
Y-000149D01*
X-007712Y-000533D02*
Y-000149D01*
X-009194Y-000492D02*
X-008496D01*
X-009144Y-000149D02*
X-008749D01*
X-008492Y-000451D02*
Y-000149D01*
X-008473Y-000413D02*
Y-000247D01*
X-008462D02*
Y-000149D01*
X-008432Y-000247D02*
Y-000149D01*
X-008342Y-000247D02*
Y-000149D01*
X-008312Y-000247D02*
Y-000149D01*
X-008402Y-000247D02*
Y-000149D01*
X-008372Y-000247D02*
Y-000149D01*
X-008192Y-000247D02*
Y-000149D01*
X-008162Y-000247D02*
Y-000149D01*
X-008282Y-000247D02*
Y-000149D01*
X-008222Y-000247D02*
Y-000149D01*
X-008252Y-000247D02*
Y-000149D01*
X-008153Y-000317D02*
Y-000247D01*
Y-000282D02*
X-008093D01*
X-00796Y-000492D02*
X-007696D01*
X-007941Y-000462D02*
X-007694D01*
X-007931Y-000432D02*
X-007685D01*
X-008132Y-000299D02*
Y-000149D01*
X-008102Y-000284D02*
Y-000149D01*
X-008473Y-000247D02*
X-008153D01*
X-008072Y-000278D02*
Y-000149D01*
X-007952Y-000333D02*
Y-000149D01*
X-007682Y-000426D02*
Y-000149D01*
X-008042Y-000278D02*
Y-000149D01*
X-007982Y-000302D02*
Y-000149D01*
X-008012Y-000286D02*
Y-000149D01*
X-007502Y-000968D02*
Y-000949D01*
X-007497Y-000972D02*
X-007463D01*
X-007494Y-000946D02*
X-007422D01*
X-007262Y-000958D02*
Y-000946D01*
X-007243Y-000972D02*
X-007182D01*
X-007442Y-000957D02*
Y-000946D01*
X-007284D02*
X-007208D01*
X-006991Y-000852D02*
X-006936D01*
Y-000879D02*
Y-000843D01*
X-007091Y-000694D02*
Y-000608D01*
X-006936Y-000658D02*
Y-000623D01*
X-007021Y-000822D02*
X-006934D01*
X-007084Y-000758D02*
X-00693Y-000912D01*
X-007051Y-000792D02*
X-006922D01*
X-007081Y-000762D02*
X-006895D01*
X-006696Y-000972D02*
X-006577D01*
X-006694Y-000971D02*
X-006576D01*
X-006961Y-000882D02*
X-006936D01*
X-007101Y-000732D02*
X-006905D01*
X-007091Y-000672D02*
X-006935D01*
X-007091Y-000702D02*
X-006926D01*
X-006932Y-000815D02*
Y-000687D01*
X-006902Y-000767D02*
Y-000735D01*
X-007262Y-000548D02*
Y-000537D01*
X-007116Y-000552D02*
X-006907D01*
X-007091Y-000642D02*
X-006936D01*
X-007091Y-000612D02*
X-006935D01*
X-007096Y-000582D02*
X-006927D01*
X-007213Y-000531D02*
X-007168D01*
X-007172D02*
Y-000504D01*
X-007198Y-000522D02*
X-006896D01*
X-00716Y-000492D02*
X-006896D01*
X-006482Y-000558D02*
Y-000535D01*
X-006489Y-000552D02*
X-006109D01*
X-006452Y-000566D02*
Y-000537D01*
X-006422Y-000556D02*
Y-000532D01*
X-006413Y-000556D02*
X-006368D01*
X-006896Y-000542D02*
Y-00048D01*
X-006542Y-000527D02*
Y-000508D01*
X-006553Y-000526D02*
Y-000497D01*
Y-000522D02*
X-00652D01*
X-006392Y-000556D02*
Y-000518D01*
X-006362Y-000556D02*
Y-000494D01*
X-006512Y-000537D02*
Y-000526D01*
X-006398Y-000522D02*
X-006096D01*
X-00636Y-000492D02*
X-006096D01*
X-006357Y-000972D02*
X-006323D01*
X-006358Y-000971D02*
X-006322D01*
X-006298Y-000751D02*
X-006209D01*
X-006132Y-000783D02*
X-006123Y-000791D01*
X-005901Y-000972D02*
X-005439D01*
X-006162Y-000762D02*
X-006098D01*
X-006292Y-000732D02*
X-006104D01*
X-006122Y-000789D02*
Y-000709D01*
X-006092Y-000757D02*
Y-000741D01*
X-005492Y-000749D02*
Y-000731D01*
X-005462Y-000749D02*
Y-000486D01*
X-005895Y-000969D02*
X-005436D01*
X-005497Y-000749D02*
X-004959D01*
X-005372D02*
Y-000549D01*
X-005492Y-000732D02*
X-00343D01*
X-00522Y-000972D02*
X-005185D01*
X-005223Y-000969D02*
X-005182D01*
X-005312Y-000749D02*
Y-000549D01*
X-005282Y-000749D02*
Y-000549D01*
X-005342Y-000749D02*
Y-000549D01*
X-005252Y-000749D02*
Y-000549D01*
X-005432Y-000749D02*
Y-000516D01*
X-005402Y-000749D02*
Y-000546D01*
X-005132Y-000749D02*
Y-000549D01*
X-005102Y-000749D02*
Y-000549D01*
X-005222Y-000749D02*
Y-000549D01*
X-005162Y-000749D02*
Y-000549D01*
X-005192Y-000749D02*
Y-000549D01*
X-006291Y-000719D02*
Y-000633D01*
Y-000642D02*
X-006137D01*
X-006294Y-000612D02*
X-006136D01*
X-006311Y-000582D02*
X-006128D01*
X-006291Y-000672D02*
X-006135D01*
X-006291Y-000702D02*
X-006126D01*
X-006137Y-000656D02*
Y-000621D01*
X-006096Y-00054D02*
Y-000481D01*
X-005753Y-000522D02*
X-00572D01*
X-005672Y-00057D02*
Y-000536D01*
X-005642Y-000561D02*
Y-000536D01*
X-005753Y-000526D02*
Y-000497D01*
X-005702Y-000542D02*
Y-00053D01*
X-005732Y-000529D02*
Y-000515D01*
X-005511Y-000582D02*
X-003449D01*
X-005494Y-000612D02*
X-003449D01*
X-005491Y-000719D02*
Y-000633D01*
Y-000702D02*
X-003396D01*
X-005491Y-000642D02*
X-003443D01*
X-005491Y-000672D02*
X-003426D01*
X-005612Y-000556D02*
Y-000528D01*
X-005614Y-000556D02*
X-005568D01*
X-005598Y-000522D02*
X-005426D01*
X-005689Y-000552D02*
X-003447D01*
X-005552Y-000558D02*
Y-000481D01*
X-005582Y-000556D02*
Y-000512D01*
X-005399Y-000549D02*
X-004249D01*
X-00556Y-000492D02*
X-005456D01*
X-007934Y-000372D02*
X-007673D01*
X-007929Y-000402D02*
X-007673D01*
X-007142Y-000536D02*
Y-000464D01*
X-007673Y-000413D02*
Y-000247D01*
X-007971Y-000312D02*
X-007673D01*
X-007947Y-000342D02*
X-007673D01*
X-007142Y-00035D02*
Y-000149D01*
X-007353Y-000317D02*
Y-000247D01*
X-007352Y-000316D02*
Y-000149D01*
X-007141Y-000462D02*
X-006894D01*
X-007134Y-000372D02*
X-006873D01*
X-007171Y-000312D02*
X-006873D01*
X-007147Y-000342D02*
X-006873D01*
X-007131Y-000432D02*
X-006885D01*
X-007129Y-000402D02*
X-006873D01*
X-007052Y-00079D02*
Y-000149D01*
X-007022Y-00082D02*
Y-000149D01*
X-007112Y-000555D02*
Y-000149D01*
X-007082Y-00076D02*
Y-000149D01*
X-006992Y-00085D02*
Y-000149D01*
X-006962Y-00088D02*
Y-000149D01*
X-006932Y-000595D02*
Y-000149D01*
X-006873Y-000413D02*
Y-000247D01*
X-006902Y-000547D02*
Y-000149D01*
X-008153Y-000252D02*
X-007673D01*
X-008025Y-000282D02*
X-007673D01*
X-007652Y-000247D02*
Y-000149D01*
X-007673Y-000247D02*
X-007353D01*
X-007532D02*
Y-000149D01*
X-007353Y-000282D02*
X-007293D01*
X-007592Y-000247D02*
Y-000149D01*
X-007562Y-000247D02*
Y-000149D01*
X-007472Y-000247D02*
Y-000149D01*
X-007442Y-000247D02*
Y-000149D01*
X-007622Y-000247D02*
Y-000149D01*
X-007502Y-000247D02*
Y-000149D01*
X-007322Y-000293D02*
Y-000149D01*
X-007292Y-000281D02*
Y-000149D01*
X-007412Y-000247D02*
Y-000149D01*
X-007262Y-000277D02*
Y-000149D01*
X-007382Y-000247D02*
Y-000149D01*
X-007353Y-000252D02*
X-006873D01*
X-009185Y-000222D02*
X-005726D01*
X-00915Y-000162D02*
X-005786D01*
X-009166Y-000192D02*
X-005756D01*
X-007232Y-00028D02*
Y-000149D01*
X-007225Y-000282D02*
X-006873D01*
X-006872Y-000247D02*
Y-000149D01*
X-006873Y-000247D02*
X-006553D01*
X-007202Y-00029D02*
Y-000149D01*
X-007172Y-00031D02*
Y-000149D01*
X-006842Y-000247D02*
Y-000149D01*
X-008749D02*
X-005799D01*
X-006722Y-000247D02*
Y-000149D01*
X-006692Y-000247D02*
Y-000149D01*
X-006812Y-000247D02*
Y-000149D01*
X-006752Y-000247D02*
Y-000149D01*
X-006782Y-000247D02*
Y-000149D01*
X-006332Y-000565D02*
Y-000435D01*
X-006341Y-000462D02*
X-006096D01*
X-006362Y-00032D02*
Y-000149D01*
X-006272Y-000751D02*
Y-000149D01*
X-006242Y-000751D02*
Y-000149D01*
X-006332Y-000379D02*
Y-000149D01*
X-006302Y-000594D02*
Y-000149D01*
X-006182Y-000754D02*
Y-000149D01*
X-006152Y-000767D02*
Y-000149D01*
X-006212Y-000751D02*
Y-000149D01*
X-006092Y-000449D02*
Y-000149D01*
X-006122Y-000569D02*
Y-000149D01*
X-006331Y-000432D02*
X-006085D01*
X-005541Y-000462D02*
X-005486D01*
X-005522Y-000571D02*
Y-000426D01*
X-005492Y-000621D02*
Y-000456D01*
X-005531Y-000432D02*
X-005516D01*
X-00553Y-000418D02*
X-005399Y-000549D01*
X-006329Y-000402D02*
X-006073D01*
X-006347Y-000342D02*
X-006073D01*
X-006334Y-000372D02*
X-006073D01*
Y-000413D02*
Y-000247D01*
X-005753Y-000317D02*
Y-000247D01*
X-006553Y-000282D02*
X-006493D01*
X-006553Y-000252D02*
X-006073D01*
X-006662Y-000247D02*
Y-000149D01*
X-006632Y-000247D02*
Y-000149D01*
X-006553Y-000317D02*
Y-000247D01*
X-006371Y-000312D02*
X-006073D01*
X-006542Y-000307D02*
Y-000149D01*
X-006425Y-000282D02*
X-006073D01*
X-006512Y-000288D02*
Y-000149D01*
X-006482Y-000279D02*
Y-000149D01*
X-006602Y-000247D02*
Y-000149D01*
X-006572Y-000247D02*
Y-000149D01*
X-006422Y-000282D02*
Y-000149D01*
X-006392Y-000296D02*
Y-000149D01*
X-006452Y-000277D02*
Y-000149D01*
X-006032Y-000247D02*
Y-000149D01*
X-006062Y-000247D02*
Y-000149D01*
X-005753Y-000252D02*
X-005696D01*
X-005762Y-000247D02*
Y-000186D01*
X-006073Y-000247D02*
X-005753D01*
X-005732Y-000299D02*
Y-000216D01*
X-005702Y-000284D02*
Y-000246D01*
X-005753Y-000282D02*
X-005693D01*
X-005699Y-000249D02*
X-00567Y-000278D01*
X-005942Y-000247D02*
Y-000149D01*
X-005912Y-000247D02*
Y-000149D01*
X-006002Y-000247D02*
Y-000149D01*
X-005972Y-000247D02*
Y-000149D01*
X-005852Y-000247D02*
Y-000149D01*
X-005799D02*
X-005699Y-000249D01*
X-005882Y-000247D02*
Y-000149D01*
X-005792Y-000247D02*
Y-000156D01*
X-005822Y-000247D02*
Y-000149D01*
X-004892Y-002449D02*
Y-002225D01*
X-004862Y-002449D02*
Y-002225D01*
X-004953Y-002449D02*
Y-002215D01*
X-004922Y-002449D02*
Y-002222D01*
X-004532Y-002449D02*
Y-002225D01*
X-004502Y-002449D02*
Y-002225D01*
X-004832Y-002449D02*
Y-00222D01*
X-004562Y-002449D02*
Y-002221D01*
X-004742Y-002449D02*
Y-002179D01*
X-004712Y-002449D02*
Y-002152D01*
X-004802Y-002449D02*
Y-002211D01*
X-004772Y-002449D02*
Y-002198D01*
X-004622Y-002449D02*
Y-002199D01*
X-004592Y-002449D02*
Y-002212D01*
X-004682Y-002449D02*
Y-002155D01*
X-004652Y-002449D02*
Y-002181D01*
X-004412Y-002449D02*
Y-002202D01*
X-003872Y-002449D02*
Y-00219D01*
X-004472Y-002449D02*
Y-002222D01*
X-004442Y-002449D02*
Y-002214D01*
X-003782Y-002449D02*
Y-002223D01*
X-003752Y-002449D02*
Y-002225D01*
X-003842Y-002449D02*
Y-002206D01*
X-003812Y-002449D02*
Y-002217D01*
X-004322Y-002449D02*
Y-002136D01*
X-004292Y-002449D02*
Y-002136D01*
X-004382Y-002449D02*
Y-002185D01*
X-004352Y-002449D02*
Y-002161D01*
X-004172Y-002449D02*
Y-002136D01*
X-003902Y-002449D02*
Y-002168D01*
X-004262Y-002449D02*
Y-002136D01*
X-004202Y-002449D02*
Y-002136D01*
X-004232Y-002449D02*
Y-002136D01*
X-005042Y-002449D02*
Y-002164D01*
X-005012Y-002449D02*
Y-002187D01*
X-004982Y-002449D02*
Y-002204D01*
X-00478Y-002202D02*
X-004617D01*
X-004703Y-002142D02*
X-004694D01*
X-004733Y-002172D02*
X-004664D01*
X-005072Y-002449D02*
Y-00213D01*
X-004142Y-002449D02*
Y-002136D01*
X-004112Y-002449D02*
Y-002136D01*
X-004329D02*
X-004101D01*
X-004022Y-002449D02*
Y-002106D01*
X-003992Y-002449D02*
Y-002106D01*
X-004101Y-002136D02*
Y-002106D01*
X-004052Y-002449D02*
Y-002106D01*
X-004082Y-002449D02*
Y-002106D01*
X-003692Y-002449D02*
Y-002219D01*
X-003662Y-002449D02*
Y-002209D01*
X-004411Y-002202D02*
X-003851D01*
X-003722Y-002449D02*
Y-002224D01*
X-003632Y-002449D02*
Y-002195D01*
X-003602Y-002449D02*
Y-002175D01*
X-003598Y-002172D02*
X-003439D01*
X-003645Y-002202D02*
X-003406D01*
X-004334Y-002142D02*
X-003928D01*
X-004364Y-002172D02*
X-003898D01*
X-004101Y-002106D02*
X-003953D01*
X-004101Y-002112D02*
X-003949D01*
X-003962Y-002449D02*
Y-002106D01*
X-003932Y-002449D02*
Y-002137D01*
X-003572Y-002449D02*
Y-002146D01*
X-003568Y-002142D02*
X-00346D01*
X-003547Y-002112D02*
X-003473D01*
X-003332Y-002449D02*
Y-002233D01*
X-003302Y-002449D02*
Y-002236D01*
X-003392Y-002449D02*
Y-002211D01*
X-003362Y-002449D02*
Y-002225D01*
X-003212Y-002449D02*
Y-002215D01*
X-003182Y-002449D02*
Y-002195D01*
X-003272Y-002449D02*
Y-002234D01*
X-003242Y-002449D02*
Y-002227D01*
X-003452Y-002449D02*
Y-002154D01*
X-003422Y-002449D02*
Y-002189D01*
X-003542Y-002449D02*
Y-002104D01*
X-003482Y-002449D02*
Y-002074D01*
X-003092Y-002449D02*
Y-00211D01*
X-003062Y-002449D02*
Y-002157D01*
X-003152Y-002449D02*
Y-002164D01*
X-003122Y-002449D02*
Y-002107D01*
X-002672Y-002449D02*
Y-002221D01*
X-002642Y-002449D02*
Y-002231D01*
X-002972Y-002449D02*
Y-002204D01*
X-002942Y-002449D02*
Y-002206D01*
X-002552Y-002449D02*
Y-00223D01*
X-002522Y-002449D02*
Y-002219D01*
X-002612Y-002449D02*
Y-002236D01*
X-002582Y-002449D02*
Y-002235D01*
X-002912Y-002449D02*
Y-002202D01*
X-002882Y-002449D02*
Y-002191D01*
X-003032Y-002449D02*
Y-002182D01*
X-003002Y-002449D02*
Y-002196D01*
X-002462Y-002449D02*
Y-002176D01*
X-002432Y-002449D02*
Y-002132D01*
X-002852Y-002449D02*
Y-002172D01*
X-002492Y-002449D02*
Y-002202D01*
X-002822Y-002449D02*
Y-002141D01*
X-003158Y-002172D02*
X-003046D01*
X-003191Y-002202D02*
X-002985D01*
X-003124Y-002112D02*
X-003091D01*
X-003137Y-002142D02*
X-003074D01*
X-002762Y-002449D02*
Y-002138D01*
X-002851Y-002172D02*
X-002739D01*
X-002806Y-002112D02*
X-002773D01*
X-002823Y-002142D02*
X-00276D01*
X-003531Y-002082D02*
X-003481D01*
X-003521Y-002052D02*
X-003483D01*
X-003116Y-002082D02*
X-0031D01*
X-002797D02*
X-002781D01*
X-003114Y-002052D02*
X-003103D01*
X-002794D02*
X-002783D01*
X-002794Y-002022D02*
X-002783D01*
X-002732Y-002449D02*
Y-002179D01*
X-002702Y-002449D02*
Y-002204D01*
X-002912Y-002202D02*
X-002706D01*
X-003258Y-002232D02*
X-002639D01*
X-002312Y-002449D02*
Y-002192D01*
X-002282Y-002449D02*
Y-002202D01*
X-002342Y-002449D02*
Y-002175D01*
X-002491Y-002202D02*
X-002286D01*
X-002458Y-002172D02*
X-002346D01*
X-002424Y-002112D02*
X-002391D01*
X-002437Y-002142D02*
X-002374D01*
X-002402Y-002449D02*
Y-002072D01*
X-002372Y-002449D02*
Y-002145D01*
X-002414Y-002022D02*
X-002404D01*
X-002416Y-002082D02*
X-0024D01*
X-002414Y-002052D02*
X-002403D01*
X-004143Y-001866D02*
X-004101D01*
X-004426Y-001579D02*
X-004158Y-001847D01*
X-004101Y-001896D02*
Y-001866D01*
Y-001896D02*
X-003963D01*
X-004112Y-001866D02*
Y-001488D01*
X-004082Y-001896D02*
Y-001495D01*
X-005072Y-001851D02*
Y-001406D01*
X-004142Y-001866D02*
Y-001474D01*
X-004052Y-001896D02*
Y-001495D01*
X-004022Y-001896D02*
Y-001488D01*
X-003992Y-001896D02*
Y-001473D01*
X-003962Y-001893D02*
Y-001448D01*
X-00352Y-001932D02*
X-003482D01*
X-00353Y-001902D02*
X-003477D01*
X-003515Y-002022D02*
X-003484D01*
Y-002051D02*
Y-001951D01*
X-003515Y-001962D02*
X-003484D01*
X-003513Y-001992D02*
X-003484D01*
X-004101Y-001872D02*
X-003951D01*
X-003545D02*
X-003466D01*
X-003512Y-002449D02*
Y-000362D01*
X-003542Y-001877D02*
Y-000392D01*
X-003482Y-001928D02*
Y-000332D01*
X-003452Y-001848D02*
Y-000302D01*
X-004731Y-001812D02*
X-004666D01*
X-004775Y-001782D02*
X-004622D01*
X-004682Y-001826D02*
Y-001657D01*
X-004652Y-0018D02*
Y-001699D01*
X-004622Y-001782D02*
Y-001721D01*
X-004592Y-001769D02*
Y-001732D01*
X-005042Y-001817D02*
Y-001268D01*
X-005012Y-001794D02*
Y-001259D01*
X-004982Y-001778D02*
Y-001243D01*
X-004802Y-00177D02*
Y-001172D01*
X-004712Y-001829D02*
Y-001211D01*
X-004202Y-001803D02*
Y-001526D01*
X-004772Y-001783D02*
Y-001196D01*
X-004232Y-001773D02*
Y-001526D01*
X-004742Y-001802D02*
Y-001208D01*
X-004172Y-001833D02*
Y-001526D01*
X-004163Y-001842D02*
X-00393D01*
X-004193Y-001812D02*
X-0039D01*
X-004223Y-001782D02*
X-003856D01*
X-003932Y-001844D02*
Y-001391D01*
X-003566Y-001842D02*
X-003448D01*
X-003596Y-001812D02*
X-00342D01*
X-00364Y-001782D02*
X-003373D01*
X-003902Y-001813D02*
Y-001267D01*
X-003872Y-001791D02*
Y-001257D01*
X-003842Y-001775D02*
Y-00124D01*
X-003662Y-001772D02*
Y-000512D01*
X-003572Y-001835D02*
Y-000422D01*
X-003422Y-001813D02*
Y-000896D01*
X-003632Y-001786D02*
Y-000482D01*
X-003392Y-001791D02*
Y-000918D01*
X-003602Y-001806D02*
Y-000452D01*
X-003114Y-002051D02*
Y-001951D01*
Y-002022D02*
X-003104D01*
X-003114Y-001962D02*
X-003104D01*
X-003114Y-001992D02*
X-003104D01*
Y-002051D02*
Y-001951D01*
X-003115Y-001932D02*
X-003102D01*
X-00312Y-001902D02*
X-003095D01*
X-003122Y-001895D02*
Y-000924D01*
X-003131Y-001872D02*
X-003082D01*
X-002794Y-002051D02*
Y-001951D01*
X-002792Y-002449D02*
Y-000924D01*
X-003092Y-001892D02*
Y-000924D01*
X-002794Y-001992D02*
X-002783D01*
Y-002051D02*
Y-001951D01*
X-002794Y-001962D02*
X-002783D01*
X-002795Y-001932D02*
X-002782D01*
X-002414Y-002051D02*
Y-001951D01*
X-002404Y-002051D02*
Y-001951D01*
X-002414Y-001962D02*
X-002404D01*
X-002414Y-001992D02*
X-002404D01*
X-002802Y-001902D02*
X-002777D01*
X-002815Y-001872D02*
X-002766D01*
X-002762Y-001864D02*
Y-000924D01*
X-002415Y-001932D02*
X-002402D01*
Y-00193D02*
Y-000924D01*
X-002432Y-00187D02*
Y-000927D01*
X-00242Y-001902D02*
X-002395D01*
X-002431Y-001872D02*
X-002382D01*
X-003362Y-001778D02*
Y-000928D01*
X-003212Y-001787D02*
Y-000924D01*
X-003332Y-001769D02*
Y-000929D01*
X-003242Y-001775D02*
Y-000929D01*
X-003062Y-001845D02*
Y-000924D01*
X-003149Y-001842D02*
X-003058D01*
X-003182Y-001807D02*
Y-000924D01*
X-003177Y-001812D02*
X-003016D01*
X-003152Y-001838D02*
Y-000924D01*
X-003032Y-00182D02*
Y-000924D01*
X-003002Y-001806D02*
Y-000924D01*
X-002972Y-001798D02*
Y-000924D01*
X-002852Y-00183D02*
Y-000924D01*
X-002822Y-001861D02*
Y-000924D01*
X-002942Y-001796D02*
Y-000924D01*
X-002882Y-001811D02*
Y-000924D01*
X-002912Y-0018D02*
Y-000924D01*
X-002839Y-001842D02*
X-002748D01*
X-002881Y-001812D02*
X-00272D01*
X-003224Y-001782D02*
X-002673D01*
X-002522Y-001783D02*
Y-000929D01*
X-002462Y-001826D02*
Y-000929D01*
X-002449Y-001842D02*
X-002358D01*
X-002492Y-0018D02*
Y-000929D01*
X-002477Y-001812D02*
X-002316D01*
X-002732Y-001823D02*
Y-000924D01*
X-002702Y-001798D02*
Y-000924D01*
X-002672Y-001781D02*
Y-000924D01*
X-002642Y-001771D02*
Y-000924D01*
X-002372Y-001857D02*
Y-000924D01*
X-002342Y-001827D02*
Y-000924D01*
X-002552Y-001772D02*
Y-000929D01*
X-002282Y-0018D02*
Y-000924D01*
X-002312Y-00181D02*
Y-000924D01*
X-002222Y-002449D02*
Y-002204D01*
X-001982Y-002449D02*
Y-002216D01*
X-002252Y-002449D02*
Y-002206D01*
X-002558Y-002232D02*
X-001939D01*
X-001892Y-002449D02*
Y-002236D01*
X-001862Y-002449D02*
Y-002232D01*
X-001952Y-002449D02*
Y-002228D01*
X-001922Y-002449D02*
Y-002234D01*
X-002162Y-002449D02*
Y-00218D01*
X-002132Y-002449D02*
Y-002153D01*
X-002192Y-002449D02*
Y-002195D01*
X-002042Y-002449D02*
Y-002168D01*
X-002012Y-002449D02*
Y-002197D01*
X-002102Y-002449D02*
Y-002102D01*
X-002072Y-002449D02*
Y-002115D01*
X-001802Y-002449D02*
Y-002209D01*
X-001622Y-002449D02*
Y-002187D01*
X-001832Y-002449D02*
Y-002224D01*
X-001858Y-002232D02*
X-001239D01*
X-001532Y-002449D02*
Y-002205D01*
X-001502Y-002449D02*
Y-002199D01*
X-001592Y-002449D02*
Y-0022D01*
X-001562Y-002449D02*
Y-002205D01*
X-001772Y-002449D02*
Y-002186D01*
X-001742Y-002449D02*
Y-00215D01*
X-001442Y-002449D02*
Y-002164D01*
X-001412Y-002449D02*
Y-002124D01*
X-001682Y-002449D02*
Y-00213D01*
X-001472Y-002449D02*
Y-002186D01*
X-001652Y-002449D02*
Y-002166D01*
X-002151Y-002172D02*
X-002039D01*
X-002212Y-002202D02*
X-002006D01*
X-002106Y-002112D02*
X-002073D01*
X-002123Y-002142D02*
X-00206D01*
X-002094Y-002052D02*
X-002083D01*
X-002097Y-002082D02*
X-002081D01*
X-002093Y-002022D02*
X-002083D01*
X-001714D02*
X-001704D01*
X-002093Y-001992D02*
X-002083D01*
X-001714Y-002051D02*
Y-001951D01*
X-001704Y-002051D02*
Y-001951D01*
X-002093Y-001962D02*
X-002083D01*
X-001714Y-001992D02*
X-001704D01*
X-001714Y-001962D02*
X-001704D01*
X-001758Y-002172D02*
X-001646D01*
X-001791Y-002202D02*
X-001585D01*
X-001724Y-002112D02*
X-001691D01*
X-001737Y-002142D02*
X-001674D01*
X-001451Y-002172D02*
X-001339D01*
X-001512Y-002202D02*
X-001306D01*
X-001406Y-002112D02*
X-001373D01*
X-001423Y-002142D02*
X-00136D01*
X-001714Y-002052D02*
X-001703D01*
X-001716Y-002082D02*
X-0017D01*
X-001397D02*
X-001381D01*
X-001393Y-001962D02*
X-001384D01*
X-001394Y-002052D02*
X-001383D01*
X-001393Y-002022D02*
X-001384D01*
X-001232Y-002449D02*
Y-002233D01*
X-001202Y-002449D02*
Y-002236D01*
X-001292Y-002449D02*
Y-002211D01*
X-001262Y-002449D02*
Y-002225D01*
X-001112Y-002449D02*
Y-002215D01*
X-000902Y-002449D02*
Y-002196D01*
X-001172Y-002449D02*
Y-002234D01*
X-001143Y-002449D02*
Y-002227D01*
X-001322Y-002449D02*
Y-002189D01*
X-001082Y-002449D02*
Y-002195D01*
X-001382Y-002449D02*
Y-002074D01*
X-001352Y-002449D02*
Y-002154D01*
X-000962Y-002449D02*
Y-002157D01*
X-000932Y-002449D02*
Y-002182D01*
X-001052Y-002449D02*
Y-002164D01*
X-000992Y-002449D02*
Y-00211D01*
X-001022Y-002449D02*
Y-002107D01*
X-000812Y-002449D02*
Y-002202D01*
X-000782Y-002449D02*
Y-002191D01*
X-000872Y-002449D02*
Y-002204D01*
X-000842Y-002449D02*
Y-002206D01*
X000086Y-002449D02*
Y-002159D01*
X000116Y-002449D02*
Y-002159D01*
X-000752Y-002449D02*
Y-002172D01*
X000056Y-002449D02*
Y-002159D01*
X000176Y-002449D02*
Y-002159D01*
X000206Y-002449D02*
Y-002159D01*
X-000722Y-002449D02*
Y-002141D01*
X000146Y-002449D02*
Y-002159D01*
X000326Y-002449D02*
Y-002159D01*
X000356Y-002449D02*
Y-002159D01*
X000236Y-002449D02*
Y-002159D01*
X000296Y-002449D02*
Y-002159D01*
X000266Y-002449D02*
Y-002159D01*
X-001058Y-002172D02*
X-000946D01*
X-001091Y-002202D02*
X-000885D01*
X-001024Y-002112D02*
X-000991D01*
X-001037Y-002142D02*
X-000974D01*
X-000706Y-002112D02*
X000039D01*
X-001014Y-002052D02*
X-001003D01*
X-001016Y-002082D02*
X-001D01*
X-001014Y-002022D02*
X-001004D01*
X-001393Y-001992D02*
X-001384D01*
X-001014D02*
X-001004D01*
X-000694Y-002051D02*
Y-001951D01*
X-001014Y-001962D02*
X-001004D01*
X-000812Y-002202D02*
X000449D01*
X-001158Y-002232D02*
X000449D01*
X-000723Y-002142D02*
X000039D01*
X-000751Y-002172D02*
X000449D01*
X000039Y-002159D02*
X000359D01*
Y-002142D02*
X000449D01*
X000359Y-002082D02*
X000449D01*
X000359Y-002112D02*
X000449D01*
X-000694Y-002052D02*
X000039D01*
X-000697Y-002082D02*
X000039D01*
X-000694Y-001962D02*
X000039D01*
X-000694Y-002022D02*
X000039D01*
X000359D02*
X000449D01*
X000359Y-002052D02*
X000449D01*
X-000694Y-001992D02*
X000039D01*
X000359D02*
X000449D01*
X000359Y-001962D02*
X000449D01*
X-002095Y-001932D02*
X-002082D01*
X-002102Y-001902D02*
X-002077D01*
X-002115Y-001872D02*
X-002066D01*
X-002139Y-001842D02*
X-002048D01*
X-002093Y-002051D02*
Y-001951D01*
X-002083Y-002051D02*
Y-001951D01*
X-001715Y-001932D02*
X-001702D01*
X-00172Y-001902D02*
X-001695D01*
X-002132Y-001849D02*
Y-000924D01*
X-002102Y-0019D02*
Y-000924D01*
X-001712Y-002449D02*
Y-000929D01*
X-002072Y-001887D02*
Y-000924D01*
X-001742Y-001852D02*
Y-000929D01*
X-001402Y-001902D02*
X-001377D01*
X-001415Y-001872D02*
X-001366D01*
X-001731D02*
X-001682D01*
X-001749Y-001842D02*
X-001658D01*
X-001393Y-002051D02*
Y-001951D01*
X-001384Y-002051D02*
Y-001951D01*
X-001395Y-001932D02*
X-001382D01*
X-001049Y-001842D02*
X-000958D01*
X-001682Y-001872D02*
Y-000929D01*
X-001442Y-001838D02*
Y-000924D01*
X-001382Y-001928D02*
Y-000924D01*
X-001412Y-001878D02*
Y-000924D01*
X-001439Y-001842D02*
X-001348D01*
X-001352Y-001848D02*
Y-000924D01*
X-002162Y-001822D02*
Y-000924D01*
X-002042Y-001834D02*
Y-000924D01*
X-002181Y-001812D02*
X-00202D01*
X-002524Y-001782D02*
X-001973D01*
X-001772Y-001816D02*
Y-000926D01*
X-001652Y-001836D02*
Y-000929D01*
X-001622Y-001815D02*
Y-000925D01*
X-001778Y-001812D02*
X-001616D01*
X-002192Y-001807D02*
Y-000924D01*
X-002012Y-001805D02*
Y-000924D01*
X-002252Y-001796D02*
Y-000924D01*
X-002222Y-001798D02*
Y-000924D01*
X-001982Y-001786D02*
Y-000924D01*
X-001802Y-001793D02*
Y-000924D01*
X-001952Y-001774D02*
Y-000924D01*
X-001832Y-001778D02*
Y-000924D01*
X-001862Y-00177D02*
Y-000924D01*
X-001502Y-001803D02*
Y-000924D01*
X-001481Y-001812D02*
X-00132D01*
X-001592Y-001802D02*
Y-000924D01*
X-001824Y-001782D02*
X-001273D01*
X-001472Y-001816D02*
Y-000924D01*
X-001322Y-001813D02*
Y-000924D01*
X-001077Y-001812D02*
X-000916D01*
X-001124Y-001782D02*
X000043D01*
X-001562Y-001797D02*
Y-000924D01*
X-001532Y-001797D02*
Y-000924D01*
X-001292Y-001791D02*
Y-000924D01*
X-001262Y-001778D02*
Y-000924D01*
X-001082Y-001807D02*
Y-000924D01*
X-001052Y-001838D02*
Y-000924D01*
X-001232Y-001769D02*
Y-000924D01*
X-001112Y-001787D02*
Y-000924D01*
X-001143Y-001775D02*
Y-000924D01*
X-001004Y-002051D02*
Y-001951D01*
X-000452Y-002449D02*
Y-001352D01*
X-001014Y-002051D02*
Y-001951D01*
X-000332Y-002449D02*
Y-001352D01*
X-000302Y-002449D02*
Y-001352D01*
X-000422Y-002449D02*
Y-001352D01*
X-000362Y-002449D02*
Y-001352D01*
X-000632Y-002449D02*
Y-001239D01*
X-000602Y-002449D02*
Y-00127D01*
X-000692Y-002449D02*
Y-001179D01*
X-000662Y-002449D02*
Y-001209D01*
X-000482Y-002449D02*
Y-001351D01*
X-000392Y-002449D02*
Y-001352D01*
X-000572Y-002449D02*
Y-001299D01*
X-000512Y-002449D02*
Y-001344D01*
X-000542Y-002449D02*
Y-001327D01*
X-000182Y-002449D02*
Y-001352D01*
X-000152Y-002449D02*
Y-001352D01*
X-000272Y-002449D02*
Y-001352D01*
X-000212Y-002449D02*
Y-001352D01*
X-000122Y-002449D02*
Y-001352D01*
X-000092Y-002449D02*
Y-001352D01*
X000039Y-002159D02*
Y-001839D01*
X000359Y-002159D02*
Y-001839D01*
X-000032Y-002449D02*
Y-001352D01*
X-000002Y-002449D02*
Y-001352D01*
X-000242Y-002449D02*
Y-001352D01*
X-000062Y-002449D02*
Y-001352D01*
X000446Y-002449D02*
Y0D01*
X000449Y-002449D02*
Y0D01*
X000026Y-002449D02*
Y-001352D01*
X000416Y-002449D02*
Y0D01*
X000386Y-002449D02*
Y0D01*
X-001016Y-001932D02*
X-001002D01*
X-00102Y-001902D02*
X-000995D01*
X-001031Y-001872D02*
X-000982D01*
X-000715D02*
X000039D01*
X-000702Y-001902D02*
X000039D01*
X-000752Y-00183D02*
Y-001119D01*
X-000722Y-001861D02*
Y-001149D01*
X-001022Y-001895D02*
Y-000924D01*
X-000992Y-001892D02*
Y-000924D01*
X-000962Y-001845D02*
Y-000928D01*
X-000932Y-00182D02*
Y-000939D01*
X-000902Y-001806D02*
Y-000969D01*
X-000782Y-001811D02*
Y-001089D01*
X-000872Y-001798D02*
Y-000999D01*
X-000812Y-0018D02*
Y-001059D01*
X-000842Y-001796D02*
Y-001029D01*
X-000739Y-001842D02*
X000039D01*
X-000695Y-001932D02*
X000039D01*
Y-001842D02*
X000071D01*
X000327D02*
X000359D01*
Y-001902D02*
X000449D01*
X000359Y-001932D02*
X000449D01*
X000359Y-001842D02*
X000449D01*
X000359Y-001872D02*
X000449D01*
X000056Y-001839D02*
Y-001817D01*
X-000781Y-001812D02*
X000054D01*
X000039Y-001839D02*
X00007D01*
X000328D02*
X000359D01*
X000356D02*
Y-001776D01*
X000344Y-001812D02*
X000449D01*
X000355Y-001782D02*
X000449D01*
X-004953Y-001766D02*
Y-001218D01*
X-004682Y-001546D02*
Y-001211D01*
X-005072Y-001305D02*
Y-001271D01*
X-004652Y-001504D02*
Y-001211D01*
X-004622Y-001482D02*
Y-001211D01*
X-004581Y-001735D02*
X-004557Y-001759D01*
X-004532Y-001469D02*
Y-001211D01*
X-004502Y-001479D02*
Y-001211D01*
X-004922Y-001759D02*
Y-001175D01*
X-004832Y-001761D02*
Y-001143D01*
X-004892Y-001756D02*
Y-001082D01*
X-004862Y-001756D02*
Y-001112D01*
X-004592Y-001471D02*
Y-001211D01*
X-004562Y-001467D02*
Y-001211D01*
X-004412Y-001593D02*
Y-001526D01*
X-004442Y-001534D02*
Y-001526D01*
X-004447D02*
X-004152D01*
X-004322Y-001683D02*
Y-001526D01*
X-004262Y-001743D02*
Y-001526D01*
X-004382Y-001623D02*
Y-001526D01*
X-004352Y-001653D02*
Y-001526D01*
X-005063Y-001362D02*
X-004491D01*
X-005067Y-001392D02*
X-004491D01*
X-004979Y-001242D02*
X-004491D01*
X-005065Y-001332D02*
X-004491D01*
X-004292Y-001713D02*
Y-001526D01*
X-004946Y-001212D02*
X-004491D01*
Y-001485D02*
Y-001211D01*
X-004913Y-001152D02*
X-004822D01*
X-004926Y-001182D02*
X-004792D01*
X-004907Y-001122D02*
X-004852D01*
X-00491Y-001064D02*
X-004794Y-001179D01*
X-004906Y-001092D02*
X-004882D01*
X-004881Y-000781D02*
X-004671Y-000992D01*
X-005012Y-000749D02*
Y-000549D01*
X-004982Y-000749D02*
Y-000549D01*
X-005072Y-000749D02*
Y-000549D01*
X-005042Y-000749D02*
Y-000549D01*
X-004862Y-0008D02*
Y-000549D01*
X-004953Y-000749D02*
Y-000549D01*
X-004892Y-000772D02*
Y-000549D01*
X-004922Y-000755D02*
Y-000549D01*
X-004721Y-000942D02*
X-004252D01*
X-004751Y-000912D02*
X-003404D01*
X-004811Y-000852D02*
X-003446D01*
X-004781Y-000882D02*
X-003433D01*
X-004716Y-001211D02*
X-004491D01*
X-004671Y-000992D02*
X-004324D01*
X-004691Y-000972D02*
X-004304D01*
X-004622Y-000992D02*
Y-000549D01*
X-004841Y-000822D02*
X-003449D01*
X-004871Y-000792D02*
X-003449D01*
X-004908Y-000762D02*
X-003445D01*
X-004592Y-000992D02*
Y-000549D01*
X-004322Y-000989D02*
Y-000549D01*
X-004292Y-000962D02*
Y-000549D01*
X-004249D02*
X-003699D01*
X-004262Y-000945D02*
Y-000549D01*
X-004152Y-001526D02*
Y-001468D01*
Y-001482D02*
X-004128D01*
X-004085Y-000972D02*
X-00405D01*
X-003932Y-00132D02*
Y-001271D01*
X-004112Y-000953D02*
Y-000549D01*
X-004137Y-000942D02*
X-003998D01*
X-004232Y-000936D02*
Y-000549D01*
X-004172Y-000933D02*
Y-000549D01*
X-004082Y-000974D02*
Y-000549D01*
X-004022Y-000952D02*
Y-000549D01*
X-003992Y-000939D02*
Y-000549D01*
X-003932Y-000932D02*
Y-000549D01*
X-003962Y-000933D02*
Y-000549D01*
X-003812Y-001764D02*
Y-001213D01*
X-003272Y-001768D02*
Y-000929D01*
X-002582Y-001767D02*
Y-000924D01*
X-003782Y-001758D02*
Y-001163D01*
X-003302Y-001766D02*
Y-000929D01*
X-003812Y-00099D02*
Y-000549D01*
X-003782Y-00104D02*
Y-000549D01*
X-003902Y-000936D02*
Y-000549D01*
X-003842Y-000963D02*
Y-000549D01*
X-002612Y-001766D02*
Y-000924D01*
X-001922Y-001768D02*
Y-000924D01*
X-003752Y-001756D02*
Y-000549D01*
X-001892Y-001766D02*
Y-000924D01*
X-003722Y-001757D02*
Y-000549D01*
X-003449Y-000826D02*
Y-000792D01*
X-003422Y-000722D02*
Y-000676D01*
X-003346Y-000929D02*
X-003252D01*
X-002642Y-000694D02*
Y-000644D01*
X-002724Y-000672D02*
X-002626D01*
X-004202Y-000932D02*
Y-000549D01*
X-003449Y-000606D02*
Y-000571D01*
X-002739Y-000552D02*
X-002647D01*
X-002724Y-000692D02*
Y-000606D01*
Y-000642D02*
X-002643D01*
X-002727Y-000582D02*
X-002649D01*
X-002724Y-000612D02*
X-002649D01*
Y-000606D02*
Y-000571D01*
X-00322Y-000924D02*
X-002578D01*
X-002612Y-000694D02*
Y-000685D01*
X-002724Y-000694D02*
X-0026D01*
X-002547Y-000929D02*
X-002451D01*
X-001924Y-000672D02*
X-001826D01*
X-001924Y-000694D02*
X-0018D01*
X-001924Y-000612D02*
X-001849D01*
X-001927Y-000582D02*
X-001849D01*
X-001939Y-000552D02*
X-001847D01*
X-001832Y-000694D02*
Y-000663D01*
X-001924Y-000692D02*
Y-000606D01*
Y-000642D02*
X-001843D01*
X-001849Y-000606D02*
Y-000571D01*
X-004472Y-000992D02*
Y-000549D01*
X-004442Y-000992D02*
Y-000549D01*
X-004532Y-000992D02*
Y-000549D01*
X-004502Y-000992D02*
Y-000549D01*
X-004412Y-000992D02*
Y-000549D01*
X-004382Y-000992D02*
Y-000549D01*
X-004352Y-000992D02*
Y-000549D01*
X-004142Y-00094D02*
Y-000549D01*
X-004772Y-00089D02*
Y-000549D01*
X-004742Y-00092D02*
Y-000549D01*
X-004832Y-00083D02*
Y-000549D01*
X-004802Y-00086D02*
Y-000549D01*
X-004652Y-000992D02*
Y-000549D01*
X-004562Y-000992D02*
Y-000549D01*
X-004712Y-00095D02*
Y-000549D01*
X-004682Y-00098D02*
Y-000549D01*
X-004052Y-000973D02*
Y-000549D01*
X-003692Y-001762D02*
Y-000542D01*
X-003872Y-000946D02*
Y-000549D01*
X-003672Y-000522D02*
X-003436D01*
X-003642Y-000492D02*
X-003411D01*
X-003582Y-000432D02*
X-003386D01*
X-003612Y-000462D02*
X-003386D01*
X-003699Y-000549D02*
X-003549Y-000399D01*
X-003552Y-000402D02*
X-003386D01*
X-003522Y-000372D02*
X-003386D01*
X-003549Y-000399D02*
X-003386Y-000236D01*
X-003422Y-000502D02*
Y-000272D01*
X-003392Y-00048D02*
Y-000242D01*
X-003386Y-000477D02*
Y-000236D01*
X-002812Y-000372D02*
X-002586D01*
X-003462Y-000312D02*
X-003386D01*
X-003492Y-000342D02*
X-003386D01*
X-003402Y-000252D02*
X-003386D01*
X-003432Y-000282D02*
X-003386D01*
Y-000236D02*
X-00337Y-00022D01*
X-003066*
X-003362D02*
Y-000212D01*
X-003332Y-00022D02*
Y-000182D01*
X-003272Y-00022D02*
Y-000149D01*
X-003242Y-00022D02*
Y-000149D01*
X-003302Y-00022D02*
Y-000152D01*
X-00337Y-00022D02*
X-003299Y-000149D01*
X-003122Y-00022D02*
Y-000149D01*
X-003092Y-00022D02*
Y-000149D01*
X-003212Y-00022D02*
Y-000149D01*
X-003152Y-00022D02*
Y-000149D01*
X-003182Y-00022D02*
Y-000149D01*
X-003066Y-000251D02*
Y-00022D01*
Y-000222D02*
X-002995D01*
X-002972Y-00022D02*
Y-000149D01*
X-002949Y-000222D02*
X-002586D01*
X-002827Y-000312D02*
X-002586D01*
X-002817Y-000342D02*
X-002586D01*
X-002877Y-000252D02*
X-002586D01*
X-002846Y-000282D02*
X-002586D01*
X-003062Y-000248D02*
Y-000149D01*
X-003032Y-000232D02*
Y-000149D01*
X-003002Y-000223D02*
Y-000149D01*
X-003299D02*
X-002099D01*
X-002852Y-000274D02*
Y-000149D01*
X-002822Y-000324D02*
Y-000149D01*
X-002942Y-000223D02*
Y-000149D01*
X-002882Y-000248D02*
Y-000149D01*
X-002912Y-000232D02*
Y-000149D01*
X-002744Y-000492D02*
X-002611D01*
X-002766Y-000432D02*
X-002586D01*
X-00275Y-000462D02*
X-002586D01*
X-002744Y-000544D02*
Y-000498D01*
Y-000522D02*
X-002636D01*
X-002732Y-000566D02*
Y-000149D01*
X-002812Y-000384D02*
X-002776Y-00042D01*
X-002762Y-000438D02*
Y-000149D01*
X-002702Y-000694D02*
Y-000149D01*
X-002672Y-000694D02*
Y-000149D01*
X-002642Y-000534D02*
Y-000149D01*
X-002586Y-000477D02*
Y-00022D01*
X-002612Y-000493D02*
Y-000149D01*
X-001944Y-000492D02*
X-001811D01*
X-001966Y-000432D02*
X-001786D01*
X-00195Y-000462D02*
X-001786D01*
X-001944Y-000544D02*
Y-000498D01*
Y-000522D02*
X-001836D01*
X-001922Y-000694D02*
Y-000149D01*
X-002012Y-000384D02*
X-001976Y-00042D01*
X-001952Y-000457D02*
Y-000149D01*
X-001892Y-000694D02*
Y-000149D01*
X-001862Y-000694D02*
Y-000149D01*
X-001832Y-000515D02*
Y-000149D01*
X-001786Y-000477D02*
Y-00022D01*
X-001802Y-000485D02*
Y-000149D01*
X-002792Y-000404D02*
Y-000149D01*
X-002795Y-000402D02*
X-002586D01*
X-002582Y-00022D02*
Y-000149D01*
X-002586Y-00022D02*
X-002266D01*
X-002462D02*
Y-000149D01*
X-002266Y-000251D02*
Y-00022D01*
X-002522D02*
Y-000149D01*
X-002492Y-00022D02*
Y-000149D01*
X-002402Y-00022D02*
Y-000149D01*
X-002372Y-00022D02*
Y-000149D01*
X-002552Y-00022D02*
Y-000149D01*
X-002432Y-00022D02*
Y-000149D01*
X-002252Y-000241D02*
Y-000149D01*
X-002222Y-000228D02*
Y-000149D01*
X-002342Y-00022D02*
Y-000149D01*
X-002282Y-00022D02*
Y-000149D01*
X-002312Y-00022D02*
Y-000149D01*
X-002077Y-000252D02*
X-001786D01*
X-002046Y-000282D02*
X-001786D01*
X-002266Y-000222D02*
X-002195D01*
X-002149D02*
X-001786D01*
X-002012Y-000372D02*
X-001786D01*
X-001995Y-000402D02*
X-001786D01*
X-002027Y-000312D02*
X-001786D01*
X-002017Y-000342D02*
X-001786D01*
X-002132Y-000225D02*
Y-000149D01*
X-002192Y-000221D02*
Y-000149D01*
X-002162Y-00022D02*
Y-000149D01*
X-002012Y-000377D02*
Y-000149D01*
X-001982Y-000414D02*
Y-000149D01*
X-002102Y-000236D02*
Y-000149D01*
X-002042Y-000287D02*
Y-000149D01*
X-002072Y-000255D02*
Y-000149D01*
X-003938Y-001302D02*
X-000569D01*
X-00393Y-001332D02*
X-000536D01*
X-003844Y-001242D02*
X-000629D01*
X-003955Y-001272D02*
X-000599D01*
X-003791Y-001182D02*
X-000689D01*
X-003811Y-001212D02*
X-000659D01*
X-003772Y-001122D02*
X-000749D01*
X-003778Y-001152D02*
X-000719D01*
X-003775Y-001062D02*
X-000809D01*
X-003771Y-001092D02*
X-000779D01*
X-003803Y-001002D02*
X-000869D01*
X-003786Y-001032D02*
X-000839D01*
X-001202Y-001766D02*
Y-000924D01*
X-001172Y-001768D02*
Y-000924D01*
X-000572Y-000973D02*
Y-000787D01*
X-000942Y-000929D02*
X-000552Y-001318D01*
X-004403Y-001602D02*
X000074D01*
X-004373Y-001632D02*
X000074D01*
X-004438Y-001542D02*
X000047D01*
X-004427Y-001572D02*
X000061D01*
X-004253Y-001752D02*
X000039D01*
X-004283Y-001722D02*
X000041D01*
X-004313Y-001692D02*
X000048D01*
X-004343Y-001662D02*
X000062D01*
X-004007Y-001482D02*
X000039D01*
X-004152Y-001512D02*
X00004D01*
X-003966Y-001452D02*
X000044D01*
X-003944Y-001422D02*
X000055D01*
X-003932Y-001392D02*
X000074D01*
X-003928Y-001362D02*
X000074D01*
X-000574Y-000972D02*
X000449D01*
X-000749Y-000796D02*
X-000423Y-001122D01*
X-003883Y-000942D02*
X-000929D01*
X-003831Y-000972D02*
X-000899D01*
X-00242Y-000924D02*
X-001778D01*
X-001747Y-000929D02*
X-001651D01*
X-00162Y-000924D02*
X-000978D01*
X-001124Y-000672D02*
X-001026D01*
X-001124Y-000694D02*
X-001D01*
X-001127Y-000582D02*
X-001049D01*
X-001124Y-000642D02*
X-001043D01*
X-001022Y-000694D02*
Y-000676D01*
X-001124Y-000692D02*
Y-000606D01*
Y-000612D02*
X-001049D01*
Y-000606D02*
Y-000571D01*
X-000694Y-000852D02*
X000449D01*
X-000664Y-000882D02*
X000449D01*
X-000667Y-000799D02*
X-000621D01*
X-000724Y-000822D02*
X000449D01*
X-000632Y-000913D02*
Y-000799D01*
X-000604Y-000942D02*
X000449D01*
X-000662Y-000883D02*
Y-000799D01*
X-000635Y-000912D02*
X000449D01*
X-000749Y-000792D02*
X-000706D01*
X-000752Y-000767D02*
Y-000759D01*
X-000692Y-000853D02*
Y-000796D01*
X-000602Y-000943D02*
Y-000797D01*
X-000722Y-000823D02*
Y-000784D01*
X-000582Y-000792D02*
X-000516D01*
X000056Y-001673D02*
Y-001563D01*
X000074Y-001645D02*
Y-001591D01*
X000324Y-001645D02*
Y-001591D01*
X000356Y-001714D02*
Y-001522D01*
X000326Y-001648D02*
Y-001588D01*
X000056Y-001419D02*
Y-001352D01*
X000074Y-001391D02*
Y-001352D01*
X-000471D02*
X000074D01*
X000356Y-00146D02*
Y-001268D01*
X000324Y-001391D02*
Y-001337D01*
X000326Y-001394D02*
Y-001334D01*
X000324Y-001632D02*
X000449D01*
X000336Y-001662D02*
X000449D01*
X000337Y-001572D02*
X000449D01*
X000324Y-001602D02*
X000449D01*
X000357Y-001722D02*
X000449D01*
X000359Y-001752D02*
X000449D01*
X000351Y-001542D02*
X000449D01*
X00035Y-001692D02*
X000449D01*
X000324Y-001392D02*
X000449D01*
X000343Y-001422D02*
X000449D01*
X000328Y-001332D02*
X000449D01*
X000324Y-001362D02*
X000449D01*
X000359Y-001482D02*
X000449D01*
X000358Y-001512D02*
X000449D01*
X000355Y-001272D02*
X000449D01*
X000354Y-001452D02*
X000449D01*
X000345Y-001302D02*
X000449D01*
X-000452Y-001093D02*
Y-000799D01*
X-000454Y-001092D02*
X000132D01*
X-000482Y-001063D02*
Y-000799D01*
X-000477D02*
X-000431D01*
X000359Y-001242D02*
X000449D01*
X-000423Y-001122D02*
X000088D01*
X-000424D02*
X000088D01*
X-000542Y-001003D02*
Y-000777D01*
X-000512Y-001033D02*
Y-000793D01*
X-000422Y-001122D02*
Y-000799D01*
X-000392Y-001122D02*
Y-000791D01*
X-000362Y-001122D02*
Y-000774D01*
X-000332Y-001122D02*
Y-000732D01*
X-000324Y-000692D02*
Y-000606D01*
X-000484Y-001062D02*
X000449D01*
X000266Y-001092D02*
X000449D01*
X-000544Y-001002D02*
X000449D01*
X-000514Y-001032D02*
X000449D01*
X000349Y-001182D02*
X000449D01*
X000357Y-001212D02*
X000449D01*
X00031Y-001122D02*
X000449D01*
X000334Y-001152D02*
X000449D01*
X-00035Y-000762D02*
X000449D01*
X-000392Y-000792D02*
X000449D01*
X-000339Y-000552D02*
X000449D01*
X-000332Y-000732D02*
X000449D01*
X-000324Y-000672D02*
X000449D01*
X-000324Y-000702D02*
X000449D01*
X-000327Y-000582D02*
X000449D01*
X-000324Y-000642D02*
X000449D01*
X-000324Y-000612D02*
X000449D01*
X-001212Y-000384D02*
X-001176Y-00042D01*
X-001466Y-000251D02*
Y-00022D01*
X-001232Y-000302D02*
Y-000149D01*
X-001144Y-000544D02*
Y-000498D01*
X-001202Y-000394D02*
Y-000149D01*
X-001172Y-000425D02*
Y-000149D01*
X-001292Y-000241D02*
Y-000149D01*
X-001262Y-000264D02*
Y-000149D01*
X-001082Y-000694D02*
Y-000149D01*
X-001052Y-000694D02*
Y-000149D01*
X-001143Y-000547D02*
Y-000149D01*
X-001112Y-000694D02*
Y-000149D01*
X-001166Y-000432D02*
X-000986D01*
X-00115Y-000462D02*
X-000986D01*
X-001212Y-000372D02*
X-000986D01*
X-001195Y-000402D02*
X-000986D01*
X-001139Y-000552D02*
X-001047D01*
X-001144Y-000522D02*
X-001036D01*
X-001144Y-000492D02*
X-001011D01*
X-001227Y-000312D02*
X-000986D01*
X-001217Y-000342D02*
X-000986D01*
X-001277Y-000252D02*
X-000986D01*
X-001246Y-000282D02*
X-000986D01*
X-001022Y-000502D02*
Y-000149D01*
X-000992Y-00048D02*
Y-000149D01*
X-000986Y-000477D02*
Y-00022D01*
X-000666Y-000251D02*
Y-00022D01*
X-001742D02*
Y-000149D01*
X-001682Y-00022D02*
Y-000149D01*
X-001772Y-00022D02*
Y-000149D01*
X-001786Y-00022D02*
X-001466D01*
X-001592D02*
Y-000149D01*
X-001466Y-000222D02*
X-001395D01*
X-001652Y-00022D02*
Y-000149D01*
X-001622Y-00022D02*
Y-000149D01*
X-001532Y-00022D02*
Y-000149D01*
X-001502Y-00022D02*
Y-000149D01*
X-001712Y-00022D02*
Y-000149D01*
X-001562Y-00022D02*
Y-000149D01*
X-001442Y-000236D02*
Y-000149D01*
X-001412Y-000225D02*
Y-000149D01*
X-001472Y-00022D02*
Y-000149D01*
X-001352Y-000221D02*
Y-000149D01*
X-001382Y-00022D02*
Y-000149D01*
X-001349Y-000222D02*
X-000986D01*
Y-00022D02*
X-000666D01*
X-003312Y-000162D02*
X-000348D01*
X-003342Y-000192D02*
X-000332D01*
X-000872Y-00022D02*
Y-000149D01*
X-000666Y-000222D02*
X-000595D01*
X-000932Y-00022D02*
Y-000149D01*
X-000902Y-00022D02*
Y-000149D01*
X-001322Y-000228D02*
Y-000149D01*
X-000962Y-00022D02*
Y-000149D01*
X-000842Y-00022D02*
Y-000149D01*
X-002099D02*
X-000399D01*
X-000722Y-00022D02*
Y-000149D01*
X-000692Y-00022D02*
Y-000149D01*
X-000812Y-00022D02*
Y-000149D01*
X-000752Y-00022D02*
Y-000149D01*
X-000782Y-00022D02*
Y-000149D01*
X-000344Y-000544D02*
Y-000498D01*
X-000412Y-000384D02*
X-000376Y-00042D01*
X-000062Y-001122D02*
Y-000379D01*
X-000032Y-001122D02*
Y-000383D01*
X-000092Y-001122D02*
Y-000373D01*
X-000302Y-001122D02*
Y-000236D01*
X-000272Y-001122D02*
Y-00027D01*
X-000362Y-000438D02*
Y-000127D01*
X-000332Y-000566D02*
Y-000192D01*
X-000152Y-001122D02*
Y-000352D01*
X-000122Y-001122D02*
Y-000364D01*
X-000242Y-001122D02*
Y-000298D01*
X-000182Y-001122D02*
Y-000338D01*
X-000212Y-001122D02*
Y-00032D01*
X-000344Y-000492D02*
X000449D01*
X-000344Y-000522D02*
X000449D01*
X-000366Y-000432D02*
X000449D01*
X-00035Y-000462D02*
X000449D01*
X000056Y-001122D02*
Y-000381D01*
X000086Y-001122D02*
Y-000374D01*
X-000002Y-001122D02*
Y-000384D01*
X000026Y-001122D02*
Y-000383D01*
X000116Y-0011D02*
Y-000366D01*
X000146Y-001086D02*
Y-000355D01*
X000176Y-001079D02*
Y-000341D01*
X000206Y-001077D02*
Y-000324D01*
X000326Y-00114D02*
Y-000202D01*
X000356Y-001206D02*
Y-000143D01*
X000236Y-001081D02*
Y-000302D01*
X000266Y-001092D02*
Y-000276D01*
X000296Y-00111D02*
Y-000244D01*
X-000542Y-000223D02*
Y-000149D01*
X-000512Y-000232D02*
Y-000149D01*
X-000572Y-00022D02*
Y-000149D01*
X-000549Y-000222D02*
X-000313D01*
X-000427Y-000312D02*
X-000224D01*
X-000417Y-000342D02*
X-000175D01*
X-000477Y-000252D02*
X-00029D01*
X-000446Y-000282D02*
X-00026D01*
X-000662Y-000248D02*
Y-000149D01*
X-000482Y-000248D02*
Y-000149D01*
X-000632Y-000232D02*
Y-000149D01*
X-000602Y-000223D02*
Y-000149D01*
X-000422Y-000324D02*
Y-000149D01*
X-000392Y-000404D02*
Y-000142D01*
X-000452Y-000274D02*
Y-000149D01*
X-000382Y-000132D02*
X-00036D01*
X-000399Y-000149D02*
X-000366Y-000116D01*
X-000412Y-000372D02*
X-000096D01*
X-000395Y-000402D02*
X000449D01*
X000175Y-000342D02*
X000449D01*
X000096Y-000372D02*
X000449D01*
X00026Y-000282D02*
X000449D01*
X000224Y-000312D02*
X000449D01*
X000313Y-000222D02*
X000449D01*
X00029Y-000252D02*
X000449D01*
X000332Y-000192D02*
X000449D01*
X00036Y-000132D02*
X000449D01*
X000348Y-000162D02*
X000449D01*
X000377Y-000072D02*
X000449D01*
X00037Y-000102D02*
X000449D01*
X000384Y0D02*
X000449D01*
X000382Y-000042D02*
X000449D01*
X000384Y-000012D02*
X000449D01*
X-010619Y000599D02*
X-010639Y000619D01*
X-010679*
X-010699Y000599*
Y000579*
X-010679Y000559*
X-010639*
X-010619Y000539*
Y000519*
X-010639Y000499*
X-010679*
X-010699Y000519*
X-010579Y000499D02*
Y000619D01*
X-010539Y000579*
X-010499Y000619*
Y000499*
X-010459Y000559D02*
X-010379D01*
X-010279Y000619D02*
X-010319D01*
X-010339Y000599*
Y000519*
X-010319Y000499*
X-010279*
X-010259Y000519*
Y000599*
X-010279Y000619*
X-010219D02*
Y000499D01*
X-010179Y000539*
X-010139Y000499*
Y000619*
X-010019Y000499D02*
X-010099D01*
X-010019Y000579*
Y000599*
X-010039Y000619*
X-010079*
X-010099Y000599*
X-009979Y000499D02*
Y000519D01*
X-009959*
Y000499*
X-009979*
X-009879Y000619D02*
Y000499D01*
X-009819*
X-009799Y000519*
Y000599*
X-009819Y000619*
X-009879*
X-009759D02*
X-009719D01*
X-009739*
Y000499*
X-009759*
X-009719*
X-009599D02*
Y000619D01*
X-009659Y000559*
X-009579*
X-009539Y000499D02*
Y000519D01*
X-009519*
Y000499*
X-009539*
X-009439Y000619D02*
Y000499D01*
X-009379*
X-009359Y000519*
Y000599*
X-009379Y000619*
X-009439*
X-009239Y000599D02*
X-009259Y000619D01*
X-009299*
X-009319Y000599*
Y000519*
X-009299Y000499*
X-009259*
X-009239Y000519*
X-009199Y000619D02*
X-009159D01*
X-009179*
Y000499*
X-009199*
X-009159*
X-00904D02*
Y000619D01*
X-0091Y000559*
X-00902*
G54D11*
X-007431Y-002001D03*
X-007641D03*
X-006306D03*
X-006516D03*
X-005156D03*
X-005366D03*
X-004026D03*
X-004236D03*
G54D12*
X-008386Y-000836D03*
Y-000616D03*
X-007586Y-000836D03*
Y-000616D03*
X-008588Y0003D03*
Y000519D03*
X-007788Y0003D03*
Y000519D03*
X-006988Y0003D03*
Y000519D03*
X-006786Y-000861D03*
Y-000641D03*
X-006189Y0003D03*
Y000519D03*
X-005987Y-000859D03*
Y-000639D03*
X-010481Y-000637D03*
Y-000856D03*
X-003499Y000339D03*
Y000559D03*
X-002699Y000339D03*
Y000559D03*
X-001899Y000339D03*
Y000559D03*
X-001099Y000339D03*
Y000559D03*
X-003299Y-000809D03*
Y-000589D03*
X-002499Y-000809D03*
Y-000589D03*
X-001699Y-000809D03*
Y-000589D03*
X-000899Y-000809D03*
Y-000589D03*
G54D13*
X-007991Y-000651D03*
X-008181D03*
X-007191D03*
X-007381D03*
X-006391Y-000676D03*
X-006581D03*
X-005591D03*
X-005781D03*
X-000454Y-000649D03*
X-000644D03*
X-001254D03*
X-001444D03*
X-002054D03*
X-002244D03*
X-002854D03*
X-003044D03*
G54D14*
X-00889Y-000849D03*
X-009109D03*
G54D15*
X-005822Y-000244D02*
X-005659Y-000407D01*
X-007259D02*
Y-000244D01*
X-006459Y-000407D02*
Y-000246D01*
X-007259Y-000244D02*
X-005822D01*
X-008059Y-000496D02*
Y-000407D01*
Y-000496D02*
X-007991Y-000565D01*
Y-000651D02*
Y-000565D01*
X-007191Y-000651D02*
Y-000565D01*
X-007259Y-000496D02*
X-007191Y-000565D01*
X-007259Y-000496D02*
Y-000407D01*
X-006391Y-000651D02*
Y-000565D01*
X-006459Y-000496D02*
X-006391Y-000565D01*
X-006459Y-000496D02*
Y-000407D01*
X-005591Y-000651D02*
Y-000565D01*
X-005659Y-000496D02*
X-005591Y-000565D01*
X-005659Y-000496D02*
Y-000407D01*
X-006786Y-00048D02*
X-006713Y-000407D01*
X-006786Y-000641D02*
Y-00048D01*
Y-000641D02*
X-006695D01*
X-00666Y-000676*
X-006581*
X-005987Y-000481D02*
X-005913Y-000407D01*
X-005987Y-000639D02*
Y-000481D01*
Y-000639D02*
X-005887D01*
X-00585Y-000676*
X-005781*
X-007586Y-00048D02*
X-007513Y-000407D01*
X-007586Y-000616D02*
Y-00048D01*
Y-000616D02*
X-007493D01*
X-007457Y-000651*
X-007381*
X-008386Y-00048D02*
X-008313Y-000407D01*
X-008386Y-000616D02*
Y-00048D01*
Y-000616D02*
X-008297D01*
X-008262Y-000651*
X-008181*
X-008588Y000517D02*
X-006189D01*
X-007641Y-002001D02*
Y-001922D01*
X-007961Y-001601D02*
X-007641Y-001922D01*
X-006516Y-002001D02*
Y-001907D01*
X-006817Y-001607D02*
X-006516Y-001907D01*
X-006306Y-002001D02*
Y-001647D01*
X-00634Y-001613D02*
X-006306Y-001647D01*
X-00634Y-001613D02*
Y-001355D01*
X-005366Y-002001D02*
Y-001922D01*
X-005684Y-001604D02*
X-005366Y-001922D01*
X-005156Y-002001D02*
Y-001655D01*
X-005202Y-001608D02*
X-005156Y-001655D01*
X-005202Y-001608D02*
Y-001355D01*
X-004236Y-002001D02*
Y-001924D01*
X-004559Y-001601D02*
X-004236Y-001924D01*
X-004026Y-002001D02*
Y-001642D01*
X-004068Y-0016D02*
X-004026Y-001642D01*
X-004068Y-0016D02*
Y-001355D01*
X-00748Y-0016D02*
Y-001355D01*
Y-0016D02*
X-007431Y-001649D01*
Y-002001D02*
Y-001649D01*
X-008386Y-000836D02*
X-00816D01*
X-007894Y-001101*
X-007607*
X-007586Y-000836D02*
X-007162D01*
X-006896Y-001101*
X-006467*
X-005987Y-000859D02*
X-004959D01*
X-004716Y-001101*
X-004195*
X-006786Y-000861D02*
X-006209D01*
X-005969Y-001101*
X-00533*
X-004026Y-002306D02*
Y-002001D01*
X-005156Y-002306D02*
Y-002001D01*
X-006306Y-002306D02*
Y-002001D01*
X-007431Y-002306D02*
Y-002001D01*
X-008059Y-000407D02*
Y-000244D01*
X-007259*
X-00889Y-000947D02*
Y-000849D01*
Y-000947D02*
X-008868Y-000968D01*
Y-001104D02*
Y-000968D01*
X-009109Y-000947D02*
Y-000849D01*
X-009121Y-000959D02*
X-009109Y-000947D01*
X-009121Y-001104D02*
Y-000959D01*
X-009122Y-001104D02*
X-009121D01*
X-005059Y000411D02*
Y000539D01*
X-005161Y000642D02*
X-005059Y000539D01*
X-008959Y000377D02*
X-008694Y000642D01*
X-005161*
X-006189Y0003D02*
X-006086D01*
X-006032Y000353*
X-005913*
X-006988Y0003D02*
X-006871D01*
X-006817Y000353*
X-006713*
X-007788Y0003D02*
X-007674D01*
X-00762Y000353*
X-007513*
X-008588Y0003D02*
X-008471D01*
X-008417Y000353*
X-008313*
X-003209Y-000589D02*
X-003149Y-000649D01*
X-003044*
X-003226Y-000572D02*
Y-000381D01*
X-003299Y-000589D02*
X-003209D01*
X-002972Y-000381D02*
X-002854Y-000498D01*
Y-000649D02*
Y-000498D01*
X-002054Y-000649D02*
Y-000498D01*
X-002172Y-000381D02*
X-002054Y-000498D01*
X-002499Y-000589D02*
X-002409D01*
X-002426Y-000572D02*
Y-000381D01*
X-002349Y-000649D02*
X-002244D01*
X-002409Y-000589D02*
X-002349Y-000649D01*
X-001254D02*
Y-000498D01*
X-001372Y-000381D02*
X-001254Y-000498D01*
X-001699Y-000589D02*
X-001609D01*
X-001626Y-000572D02*
Y-000381D01*
X-001549Y-000649D02*
X-001444D01*
X-001609Y-000589D02*
X-001549Y-000649D01*
X-000454D02*
Y-000498D01*
X-000572Y-000381D02*
X-000454Y-000498D01*
X-000899Y-000589D02*
X-000809D01*
X-000826Y-000572D02*
Y-000381D01*
X-000749Y-000649D02*
X-000644D01*
X-000809Y-000589D02*
X-000749Y-000649D01*
X-003499Y000339D02*
X-003384D01*
X-003343Y000381*
X-003226*
X-002543D02*
X-002426D01*
X-002584Y000339D02*
X-002543Y000381D01*
X-002699Y000339D02*
X-002584D01*
X-001743Y000381D02*
X-001626D01*
X-001784Y000339D02*
X-001743Y000381D01*
X-001899Y000339D02*
X-001784D01*
X-000943Y000381D02*
X-000826D01*
X-000984Y000339D02*
X-000943Y000381D01*
X-001099Y000339D02*
X-000984D01*
X-003774Y000521D02*
X-003674D01*
X-003637Y000559*
X-003499*
X-001099D01*
X-009699Y000377D02*
X-008959D01*
X-010481Y-000404D02*
X-009699Y000377D01*
X-010481Y-000637D02*
Y-000404D01*
Y-001001D02*
Y-000856D01*
Y-001001D02*
X-010379Y-001104D01*
X-01026*
X-010481Y-000637D02*
X-010377D01*
X-010329Y-000684*
Y-000829D02*
Y-000684D01*
Y-000829D02*
X-010231Y-000926D01*
X-010074*
X-010006Y-000995*
Y-001104D02*
Y-000995D01*
Y-001104D02*
X-009566Y-001544D01*
X-008854*
X-008744Y-001434*
Y-001228*
X-008868Y-001104D02*
X-008744Y-001228D01*
X-008784Y-000599D02*
Y-000399D01*
X-008629Y-000244*
X-008059*
G54D16*
X000199Y-001999D02*
Y-001745D01*
Y-001491*
Y-001237*
X-008299Y-002144D02*
X-008137Y-002307D01*
X-000939D02*
X-000848Y-002216D01*
Y-002001*
X-001548Y-002306D02*
Y-002001D01*
X-002249Y-002306D02*
Y-002001D01*
X-002949Y-002305D02*
Y-002001D01*
X-008137Y-002307D02*
X-000939D01*
X-008784Y-000599D02*
X-008654Y-000729D01*
X-010086Y-000599D02*
X-009832D01*
X-009578*
X-009324*
X-008784*
X-008654Y-000934D02*
Y-000729D01*
Y-000934D02*
X-008299Y-001289D01*
Y-002144D02*
Y-001289D01*
G54D17*
X-000899Y-000809D02*
X-000471Y-001237D01*
X-003299Y-000809D02*
X-002499D01*
X-001699*
X-000899*
X-000471Y-001237D02*
X000199D01*
G54D18*
X-007431Y-002001D02*
Y-001911D01*
Y-002091D02*
Y-002001D01*
X-00748Y-00148D02*
Y-001355D01*
X-007355*
X-00748D02*
Y-00123D01*
X-006306Y-002091D02*
Y-002001D01*
Y-001911*
X-005156Y-002001D02*
Y-001911D01*
Y-002091D02*
Y-002001D01*
X-00634Y-00148D02*
Y-001355D01*
Y-00123*
Y-001355D02*
X-006215D01*
X-005202Y-00148D02*
Y-001355D01*
X-005077*
X-005202D02*
Y-00123D01*
X-010086Y-000714D02*
Y-000599D01*
X-009971*
X-009832Y-000714D02*
Y-000599D01*
X-009578Y-000714D02*
Y-000599D01*
X-009947D02*
X-009832D01*
X-009717*
X-009324Y-000714D02*
Y-000599D01*
X-009693D02*
X-009578D01*
X-009324D02*
X-009209D01*
X-007991Y-000756D02*
Y-000651D01*
X-007906*
X-007991D02*
Y-000546D01*
X-010086Y-000599D02*
Y-000484D01*
X-009832Y-000599D02*
Y-000484D01*
X-009578Y-000599D02*
Y-000484D01*
X-009324Y-000599D02*
Y-000484D01*
X-008059Y-000522D02*
Y-000407D01*
X-007944*
X-008059D02*
Y-000292D01*
X-006391Y-000676D02*
X-006306D01*
X-006391D02*
Y-000571D01*
X-007191Y-000651D02*
Y-000546D01*
Y-000651D02*
X-007106D01*
X-005591Y-000676D02*
Y-000571D01*
Y-000676D02*
X-005506D01*
X-007259Y-000522D02*
Y-000407D01*
X-007144*
X-007259D02*
Y-000292D01*
X-006459Y-000522D02*
Y-000407D01*
X-006344*
X-006459D02*
Y-000292D01*
X-005659Y-000522D02*
Y-000407D01*
X-005544*
X-005659D02*
Y-000292D01*
X-004026Y-002001D02*
Y-001911D01*
Y-002091D02*
Y-002001D01*
X-002949Y-002191D02*
Y-002001D01*
X-003089D02*
X-002949D01*
X-002808*
X-002949D02*
Y-001811D01*
X-002389Y-002001D02*
X-002249D01*
Y-002191D02*
Y-002001D01*
X-002108*
X-001689D02*
X-001548D01*
X-001409*
X-001548Y-002191D02*
Y-002001D01*
X-000848Y-002191D02*
Y-002001D01*
X-000708*
X-000989D02*
X-000848D01*
X-002249D02*
Y-001811D01*
X-001548Y-002001D02*
Y-001811D01*
X-000848Y-002001D02*
Y-001811D01*
X-004068Y-00148D02*
Y-001355D01*
Y-00123*
Y-001355D02*
X-003943D01*
G54D19*
X-010699Y000379D02*
Y000299D01*
Y000339*
X-010679Y000359*
X-010659Y000379*
X-010639*
X-010519Y000299D02*
X-010559D01*
X-010579Y000319*
Y000359*
X-010559Y000379*
X-010519*
X-010499Y000359*
Y000339*
X-010579*
X-010459Y000379D02*
X-010419Y000299D01*
X-010379Y000379*
X-010339Y000299D02*
Y000319D01*
X-010319*
Y000299*
X-010339*
X-010039D02*
X-010119D01*
X-010039Y000379*
Y000399*
X-010059Y000419*
X-010099*
X-010119Y000399*
G54D20*
X-009499Y0D03*
X0D03*
G54D21*
X-000572Y000381D03*
X-000826D03*
X-000572Y-000381D03*
X-001372Y000381D03*
X-001626D03*
X-001372Y-000381D03*
X-002172Y000381D03*
X-002426D03*
X-002172Y-000381D03*
X-002972Y000381D03*
X-003226D03*
X-002972Y-000381D03*
X-008059Y000353D03*
X-008313D03*
X-008059Y-000407D03*
X-007259Y000353D03*
X-007513D03*
X-007259Y-000407D03*
X-005659Y000353D03*
X-005913D03*
X-005659Y-000407D03*
X-006459Y000353D03*
X-006713D03*
X-006459Y-000407D03*
G54D22*
X-000826Y-000381D03*
X-001626D03*
X-002426D03*
X-003226D03*
X-008313Y-000407D03*
X-007513D03*
X-005913D03*
X-006713D03*
G54D23*
X-010086Y-000599D03*
X-009832D03*
X-009578D03*
X000199Y-001237D03*
Y-001491D03*
Y-001745D03*
X-005311Y000026D03*
X-005057D03*
X-004803D03*
X-004549D03*
X-004295D03*
X-004041D03*
X-003787D03*
Y-000226D03*
X-004295D03*
X-004803D03*
X-005057D03*
X-004549D03*
X-004041D03*
G54D24*
X-009324Y-000599D03*
X-005311Y-000226D03*
G54D25*
X000199Y-001999D03*
G54D26*
X-007353Y-001101D03*
X-00748Y-001355D03*
X-007607Y-001101D03*
X-006467D03*
X-00634Y-001355D03*
X-006213Y-001101D03*
X-005075D03*
X-005202Y-001355D03*
X-00533Y-001101D03*
X-004195D03*
X-004068Y-001355D03*
X-003941Y-001101D03*
X-008868Y-001104D03*
X-008995Y-001358D03*
X-009122Y-001104D03*
X-01026D03*
X-010132Y-001358D03*
X-010006Y-001104D03*
G54D27*
X-007927Y-001991D03*
X-00716D03*
X-006021D03*
X-006787D03*
X-005649D03*
X-004883D03*
X-003748D03*
X-004514D03*
X-009442Y-001993D03*
X-008675D03*
X-009813D03*
X-010579D03*
G54D28*
X-007734Y-001355D03*
X-006594D03*
X-005457D03*
X-004321D03*
X-009249Y-001358D03*
X-010387D03*
G54D29*
X-000848Y-002001D03*
X-001198D03*
X-001548D03*
X-001899D03*
X-002249D03*
X-002599D03*
X-002949D03*
X-003298D03*
G54D30*
X-007961Y-001601D03*
X-006817Y-001607D03*
X-005684Y-001604D03*
X-004559Y-001601D03*
X-005059Y000411D03*
X-006307Y000511D03*
X-003774Y000521D03*
M02*