%FSTAX42Y42*%
%MOMM*%
%SFA1B1*%

%IPPOS*%
%AMD71*
4,1,8,-0.749300,0.170180,-0.749300,-0.170180,-0.469900,-0.449580,0.469900,-0.449580,0.749300,-0.170180,0.749300,0.170180,0.469900,0.449580,-0.469900,0.449580,-0.749300,0.170180,0.0*
1,1,0.560000,-0.469900,0.170180*
1,1,0.560000,-0.469900,-0.170180*
1,1,0.560000,0.469900,-0.170180*
1,1,0.560000,0.469900,0.170180*
%
%AMD85*
4,1,8,-0.749300,0.220980,-0.749300,-0.220980,-0.419100,-0.551180,0.419100,-0.551180,0.749300,-0.220980,0.749300,0.220980,0.419100,0.551180,-0.419100,0.551180,-0.749300,0.220980,0.0*
1,1,0.660000,-0.419100,0.220980*
1,1,0.660000,-0.419100,-0.220980*
1,1,0.660000,0.419100,-0.220980*
1,1,0.660000,0.419100,0.220980*
%
%AMD86*
4,1,8,-0.220980,-0.749300,0.220980,-0.749300,0.551180,-0.419100,0.551180,0.419100,0.220980,0.749300,-0.220980,0.749300,-0.551180,0.419100,-0.551180,-0.419100,-0.220980,-0.749300,0.0*
1,1,0.660000,-0.220980,-0.419100*
1,1,0.660000,0.220980,-0.419100*
1,1,0.660000,0.220980,0.419100*
1,1,0.660000,-0.220980,0.419100*
%
%AMD87*
4,1,8,0.284480,1.000760,-0.284480,1.000760,-0.675640,0.609600,-0.675640,-0.609600,-0.284480,-1.000760,0.284480,-1.000760,0.675640,-0.609600,0.675640,0.609600,0.284480,1.000760,0.0*
1,1,0.780000,0.284480,0.609600*
1,1,0.780000,-0.284480,0.609600*
1,1,0.780000,-0.284480,-0.609600*
1,1,0.780000,0.284480,-0.609600*
%
%AMD111*
4,1,8,1.000760,-0.284480,1.000760,0.284480,0.609600,0.675640,-0.609600,0.675640,-1.000760,0.284480,-1.000760,-0.284480,-0.609600,-0.675640,0.609600,-0.675640,1.000760,-0.284480,0.0*
1,1,0.780000,0.609600,-0.284480*
1,1,0.780000,0.609600,0.284480*
1,1,0.780000,-0.609600,0.284480*
1,1,0.780000,-0.609600,-0.284480*
%
%ADD56C,0.999998*%
%ADD59C,1.199998*%
%ADD61C,1.699997*%
%ADD63R,1.699997X1.699997*%
G04~CAMADD=71~8~0.0~0.0~354.3~590.6~110.2~0.0~15~0.0~0.0~0.0~0.0~0~0.0~0.0~0.0~0.0~0~0.0~0.0~0.0~90.0~590.0~354.0*
%ADD71D71*%
%ADD72O,0.799998X2.099996*%
%ADD73R,0.799998X2.099996*%
%ADD74O,2.399995X0.799998*%
%ADD75R,2.399995X0.799998*%
G04~CAMADD=85~8~0.0~0.0~433.1~590.6~129.9~0.0~15~0.0~0.0~0.0~0.0~0~0.0~0.0~0.0~0.0~0~0.0~0.0~0.0~90.0~592.0~433.0*
%ADD85D85*%
G04~CAMADD=86~8~0.0~0.0~433.1~590.6~129.9~0.0~15~0.0~0.0~0.0~0.0~0~0.0~0.0~0.0~0.0~0~0.0~0.0~0.0~180.0~434.0~591.0*
%ADD86D86*%
G04~CAMADD=87~8~0.0~0.0~531.5~787.4~153.5~0.0~15~0.0~0.0~0.0~0.0~0~0.0~0.0~0.0~0.0~0~0.0~0.0~0.0~0.0~531.5~787.4*
%ADD87D87*%
%ADD92C,7.199986*%
%ADD93C,1.769996*%
%ADD94C,2.199996*%
%ADD95R,2.699995X2.699995*%
%ADD96C,2.699995*%
%ADD97C,1.699997*%
%ADD98R,1.699997X1.699997*%
%ADD99R,1.699997X1.699997*%
%ADD100R,1.699997X1.699997*%
%ADD101C,2.199996*%
%ADD102R,2.199996X2.199996*%
%ADD103C,1.999996*%
%ADD104R,1.199998X1.199998*%
%ADD105R,1.399997X1.399997*%
%ADD106C,1.399997*%
%ADD107O,2.199996X3.199994*%
%ADD108C,1.899996*%
%ADD109C,3.199994*%
%ADD110R,1.899996X1.899996*%
G04~CAMADD=111~8~0.0~0.0~531.5~787.4~153.5~0.0~15~0.0~0.0~0.0~0.0~0~0.0~0.0~0.0~0.0~0~0.0~0.0~0.0~270.0~788.0~532.0*
%ADD111D111*%
%LNpcb_monitoring_io-1*%
%LPD*%
G54D56*
X014579Y004309D03*
Y004429D03*
Y004549D03*
X012711Y002532D03*
X013197Y004799D03*
X008834Y001297D03*
X007671Y001294D03*
X014239Y004859D03*
X014339Y004759D03*
X012869Y004359D03*
Y004599D03*
Y004479D03*
X001769Y001892D03*
X001514Y001597D03*
X001594Y002052D03*
X001024Y002047D03*
X002764Y002794D03*
X002944Y002667D03*
G54D59*
X012261Y003777D03*
X011637D03*
X010209Y003914D03*
X014649Y003249D03*
G54D61*
X004813Y002818D03*
X006845D03*
Y00485D03*
X006083D03*
X001356Y002744D03*
X00161D03*
X001864D03*
X001624Y-000074D03*
X001174D03*
X002949Y004249D03*
X002549D03*
Y003749D03*
X002949D03*
X001699Y004249D03*
X013311Y006372D03*
Y006626D03*
X013057Y006372D03*
Y006626D03*
X012803D03*
Y006372D03*
X012549Y006626D03*
Y006372D03*
X012295Y006626D03*
Y006372D03*
X012041Y006626D03*
Y006372D03*
X011787Y006626D03*
X015911Y006372D03*
Y006626D03*
X015657Y006372D03*
Y006626D03*
X015403D03*
Y006372D03*
X015149Y006626D03*
Y006372D03*
X014895Y006626D03*
Y006372D03*
X014641Y006626D03*
Y006372D03*
X014387Y006626D03*
X000127Y003611D03*
X-000127D03*
X000127Y003357D03*
X-000127D03*
Y003103D03*
X000127D03*
X-000127Y002849D03*
X000127D03*
X-000127Y002595D03*
X000127D03*
X-000127Y002341D03*
X000127D03*
X-000127Y002087D03*
X012887Y002026D03*
X013141D03*
X013395D03*
X013649D03*
X013903D03*
X014157D03*
X014411D03*
Y001772D03*
X013903D03*
X013395D03*
X013141D03*
X013649D03*
X014157D03*
X017699Y000762D03*
Y000508D03*
Y000254D03*
X011504Y004127D03*
Y004381D03*
Y004635D03*
X009199Y000762D03*
Y000508D03*
Y000254D03*
X003999Y004524D03*
X007824Y004549D03*
X013749Y004249D03*
G54D63*
X001102Y002744D03*
X011787Y006372D03*
X014387D03*
X012887Y001772D03*
G54D71*
X011249Y004254D03*
Y004064D03*
X001667Y000579D03*
Y000389D03*
X001267Y000579D03*
Y000389D03*
X001467Y000579D03*
Y000389D03*
X003137Y002884D03*
Y002694D03*
X002429Y001652D03*
Y001842D03*
X016549Y001304D03*
Y001494D03*
X016649Y002344D03*
Y002154D03*
X015949Y001304D03*
Y001494D03*
X016049Y002344D03*
Y002154D03*
X015349Y001304D03*
Y001494D03*
X015449Y002344D03*
Y002154D03*
X014749Y001304D03*
Y001494D03*
X014849Y002344D03*
Y002154D03*
X012149Y001304D03*
Y001494D03*
X012249Y002344D03*
Y002154D03*
X008474Y001104D03*
Y001294D03*
X007324Y001104D03*
Y001294D03*
X011549Y001304D03*
Y001494D03*
X008274Y001104D03*
Y001294D03*
X007124Y001104D03*
Y001294D03*
X011649Y002344D03*
Y002154D03*
X010949Y001304D03*
Y001494D03*
X011049Y002344D03*
Y002154D03*
X010349Y001304D03*
Y001494D03*
X010449Y002344D03*
Y002154D03*
X006589Y003374D03*
Y003184D03*
X006389Y003374D03*
Y003184D03*
X007747Y003674D03*
Y003484D03*
X007952Y003482D03*
Y003671D03*
X003764Y004059D03*
Y004249D03*
G54D72*
X007084Y003634D03*
X00721D03*
X007338D03*
X007464D03*
X007084Y003014D03*
X00721D03*
X007338D03*
G54D73*
X007464Y003014D03*
G54D74*
X001107Y002049D03*
Y002176D03*
Y002303D03*
Y00243D03*
X001737Y002049D03*
Y002176D03*
Y002303D03*
X002864Y002921D03*
Y002794D03*
Y002667D03*
Y00254D03*
X002234Y002921D03*
Y002794D03*
Y002667D03*
G54D75*
X001737Y00243D03*
X002234Y00254D03*
G54D85*
X011249Y004634D03*
Y004445D03*
X001994Y001862D03*
Y001672D03*
X008674Y001104D03*
Y001294D03*
X007524Y001104D03*
Y001294D03*
X006974Y002337D03*
Y002526D03*
X006827Y003374D03*
Y003184D03*
X003514Y004249D03*
Y004059D03*
G54D86*
X005732Y004572D03*
X005921D03*
X005679Y003184D03*
X005869D03*
X002444Y003104D03*
X002634D03*
X016944Y001449D03*
X016754D03*
X016344D03*
X016154D03*
X015744D03*
X015554D03*
X015144D03*
X014954D03*
X012044Y004399D03*
X011854D03*
X012044Y004699D03*
X011854D03*
X012544Y001449D03*
X012354D03*
X011944D03*
X011754D03*
X011344D03*
X011154D03*
X010744D03*
X010554D03*
X001139Y002997D03*
X001329D03*
X001659D03*
X001849D03*
G54D87*
X006232Y001387D03*
X005932D03*
G54D92*
X007999Y001999D03*
X0Y006499D03*
Y0D03*
X017499Y003249D03*
Y006499D03*
X002049D03*
X004849D03*
X009249Y003249D03*
G54D93*
X012299Y004803D03*
Y004295D03*
G54D94*
X000629Y000752D03*
Y001006D03*
Y001259D03*
X006209Y001084D03*
X005954D03*
G54D95*
X002899Y004729D03*
G54D96*
X002894Y006261D03*
X010312Y006738D03*
Y00623D03*
X008512Y006738D03*
Y00623D03*
X007612Y006738D03*
Y00623D03*
X009412Y006738D03*
Y00623D03*
X006712Y006738D03*
Y00623D03*
G54D97*
X002228Y00214D03*
Y001886D03*
Y001632D03*
Y001378D03*
X00299Y00214D03*
Y001886D03*
Y001632D03*
X016877Y002525D03*
X016623D03*
X016877Y001763D03*
X016276Y00253D03*
X016022D03*
X016276Y001768D03*
X015676Y00253D03*
X015422D03*
X015676Y001768D03*
X015076Y00253D03*
X014822D03*
X015076Y001768D03*
X012476Y00253D03*
X012222D03*
X012476Y001768D03*
X011876Y00253D03*
X011622D03*
X011876Y001768D03*
X011276Y00253D03*
X011022D03*
X011276Y001768D03*
X010676Y00253D03*
X010422D03*
X010676Y001768D03*
X00848Y002947D03*
Y003201D03*
X007718Y002947D03*
G54D98*
X00299Y001378D03*
X007718Y003201D03*
G54D99*
X016623Y001763D03*
X016022Y001768D03*
X015422D03*
X014822D03*
X012222D03*
X011622D03*
X011022D03*
X010422D03*
G54D100*
X005575Y00485D03*
X001699Y003749D03*
X000127Y002087D03*
X017699Y0D03*
X011504Y004889D03*
X009199Y0D03*
G54D101*
X001049Y000174D03*
X001749D03*
X005867Y-000355D03*
X006121D03*
X005867Y000405D03*
X-000049Y004399D03*
Y004899D03*
Y005399D03*
Y005899D03*
G54D102*
X006121Y000405D03*
G54D103*
X002426Y000049D03*
X002172D03*
X002426Y-000199D03*
X002172D03*
X009746Y-000202D03*
X009492D03*
G54D104*
X012261Y003577D03*
X011637D03*
X010209Y003714D03*
X014649Y003449D03*
G54D105*
X003552Y006216D03*
G54D106*
X003876Y006216D03*
G54D107*
X017224Y0D03*
X016874D03*
X016524D03*
X016174D03*
X015824D03*
X015474D03*
X015124D03*
X014774D03*
G54D108*
X014139Y000893D03*
X014012Y00064D03*
X013886Y000893D03*
X012735D03*
X012862Y00064D03*
X012989Y000893D03*
X011839D03*
X011713Y00064D03*
X011585Y000893D03*
X010435D03*
X010563Y00064D03*
X010689Y000893D03*
X00744Y000894D03*
X007313Y00064D03*
X007186Y000894D03*
X008336D03*
X008463Y00064D03*
X00859Y000894D03*
X005192Y00064D03*
X005065Y000894D03*
X004684Y00064D03*
X004938D03*
X004811Y000894D03*
X003839Y00064D03*
X003712Y000894D03*
X003331Y00064D03*
X003585D03*
X003458Y000894D03*
G54D109*
X013566Y000004D03*
X014332D03*
X013182D03*
X012416D03*
X011266D03*
X012032D03*
X010882D03*
X010116D03*
X006866Y000005D03*
X007632D03*
X008782D03*
X008016D03*
X004366D03*
X005382D03*
X003014D03*
X00403D03*
G54D110*
X013759Y00064D03*
X012609D03*
X011459D03*
X010309D03*
X007059D03*
X008209D03*
X004557Y000894D03*
X003204D03*
G54D111*
X005044Y-000034D03*
Y000264D03*
X004737Y-000029D03*
Y000269D03*
X006149Y002282D03*
Y002582D03*
X005874Y002282D03*
Y002582D03*
X006699Y002282D03*
Y002582D03*
X006424Y002282D03*
Y002582D03*
X000249Y005499D03*
Y005799D03*
Y004499D03*
Y004799D03*
M02*