%FSTAX42Y42*%
%MOMM*%
%SFA1B1*%

%IPPOS*%
%ADD32C,0.250000*%
%ADD34C,0.599999*%
%ADD41C,0.250000*%
%ADD66C,0.180000*%
%ADD67C,0.200000*%
%ADD68C,0.100000*%
%ADD69C,0.200000*%
%ADD70R,5.499989X1.499997*%
%ADD112C,0.127000*%
%LNpcb_monitoring_io-1*%
%LPD*%
G54D32*
X001789Y001299D02*
D01*
X001789Y0013*
X001789Y001301*
X001789Y001302*
X001789Y001303*
X001789Y001304*
X001788Y001304*
X001788Y001305*
X001788Y001306*
X001787Y001307*
X001787Y001307*
X001786Y001308*
X001786Y001308*
X001785Y001309*
X001784Y001309*
X001783Y00131*
X001783Y00131*
X001782Y001311*
X001781Y001311*
X00178Y001311*
X00178Y001311*
X001779Y001311*
X001778Y001311*
X001777*
X001776Y001311*
X001775Y001311*
X001775Y001311*
X001774Y001311*
X001773Y001311*
X001772Y00131*
X001771Y00131*
X001771Y001309*
X00177Y001309*
X001769Y001308*
X001769Y001308*
X001768Y001307*
X001768Y001307*
X001767Y001306*
X001767Y001305*
X001767Y001304*
X001766Y001304*
X001766Y001303*
X001766Y001302*
X001766Y001301*
X001766Y0013*
X001765Y001299*
X001766Y001299*
X001766Y001298*
X001766Y001297*
X001766Y001296*
X001766Y001295*
X001767Y001295*
X001767Y001294*
X001767Y001293*
X001768Y001292*
X001768Y001292*
X001769Y001291*
X001769Y001291*
X00177Y00129*
X001771Y00129*
X001771Y001289*
X001772Y001289*
X001773Y001288*
X001774Y001288*
X001775Y001288*
X001775Y001288*
X001776Y001288*
X001777Y001288*
X001778*
X001779Y001288*
X00178Y001288*
X00178Y001288*
X001781Y001288*
X001782Y001288*
X001783Y001289*
X001783Y001289*
X001784Y00129*
X001785Y00129*
X001786Y001291*
X001786Y001291*
X001787Y001292*
X001787Y001292*
X001788Y001293*
X001788Y001294*
X001788Y001295*
X001789Y001295*
X001789Y001296*
X001789Y001297*
X001789Y001298*
X001789Y001299*
X001789Y001299*
X001669Y001757D02*
D01*
X001669Y001758*
X001669Y001759*
X001669Y00176*
X001669Y001761*
X001669Y001762*
X001668Y001762*
X001668Y001763*
X001668Y001764*
X001667Y001765*
X001667Y001765*
X001666Y001766*
X001666Y001766*
X001665Y001767*
X001664Y001767*
X001663Y001768*
X001663Y001768*
X001662Y001769*
X001661Y001769*
X00166Y001769*
X00166Y001769*
X001659Y001769*
X001658Y001769*
X001657*
X001656Y001769*
X001655Y001769*
X001655Y001769*
X001654Y001769*
X001653Y001769*
X001652Y001768*
X001651Y001768*
X001651Y001767*
X00165Y001767*
X001649Y001766*
X001649Y001766*
X001648Y001765*
X001648Y001765*
X001647Y001764*
X001647Y001763*
X001647Y001762*
X001646Y001762*
X001646Y001761*
X001646Y00176*
X001646Y001759*
X001646Y001758*
X001645Y001757*
X001646Y001757*
X001646Y001756*
X001646Y001755*
X001646Y001754*
X001646Y001753*
X001647Y001753*
X001647Y001752*
X001647Y001751*
X001648Y00175*
X001648Y00175*
X001649Y001749*
X001649Y001749*
X00165Y001748*
X001651Y001748*
X001651Y001747*
X001652Y001747*
X001653Y001746*
X001654Y001746*
X001655Y001746*
X001655Y001746*
X001656Y001746*
X001657Y001746*
X001658*
X001659Y001746*
X00166Y001746*
X00166Y001746*
X001661Y001746*
X001662Y001746*
X001663Y001747*
X001663Y001747*
X001664Y001748*
X001665Y001748*
X001666Y001749*
X001666Y001749*
X001667Y00175*
X001667Y00175*
X001668Y001751*
X001668Y001752*
X001668Y001753*
X001669Y001753*
X001669Y001754*
X001669Y001755*
X001669Y001756*
X001669Y001757*
X001669Y001757*
X013209Y004691D02*
D01*
X013209Y004692*
X013209Y004693*
X013209Y004694*
X013209Y004695*
X013209Y004696*
X013208Y004696*
X013208Y004697*
X013208Y004698*
X013207Y004699*
X013207Y004699*
X013206Y0047*
X013206Y0047*
X013205Y004701*
X013204Y004701*
X013203Y004702*
X013203Y004702*
X013202Y004703*
X013201Y004703*
X0132Y004703*
X0132Y004703*
X013199Y004703*
X013198Y004703*
X013197*
X013196Y004703*
X013195Y004703*
X013195Y004703*
X013194Y004703*
X013193Y004703*
X013192Y004702*
X013191Y004702*
X013191Y004701*
X01319Y004701*
X013189Y0047*
X013189Y0047*
X013188Y004699*
X013188Y004699*
X013187Y004698*
X013187Y004697*
X013187Y004696*
X013186Y004696*
X013186Y004695*
X013186Y004694*
X013186Y004693*
X013186Y004692*
X013185Y004691*
X013186Y004691*
X013186Y00469*
X013186Y004689*
X013186Y004688*
X013186Y004687*
X013187Y004687*
X013187Y004686*
X013187Y004685*
X013188Y004684*
X013188Y004684*
X013189Y004683*
X013189Y004683*
X01319Y004682*
X013191Y004682*
X013191Y004681*
X013192Y004681*
X013193Y00468*
X013194Y00468*
X013195Y00468*
X013195Y00468*
X013196Y00468*
X013197Y00468*
X013198*
X013199Y00468*
X0132Y00468*
X0132Y00468*
X013201Y00468*
X013202Y00468*
X013203Y004681*
X013203Y004681*
X013204Y004682*
X013205Y004682*
X013206Y004683*
X013206Y004683*
X013207Y004684*
X013207Y004684*
X013208Y004685*
X013208Y004686*
X013208Y004687*
X013209Y004687*
X013209Y004688*
X013209Y004689*
X013209Y00469*
X013209Y004691*
X013209Y004691*
X003524Y004449D02*
D01*
X003524Y00445*
X003524Y004451*
X003524Y004452*
X003524Y004453*
X003524Y004454*
X003523Y004454*
X003523Y004455*
X003523Y004456*
X003522Y004457*
X003522Y004457*
X003521Y004458*
X003521Y004458*
X00352Y004459*
X003519Y004459*
X003518Y00446*
X003518Y00446*
X003517Y004461*
X003516Y004461*
X003515Y004461*
X003515Y004461*
X003514Y004461*
X003513Y004461*
X003512*
X003511Y004461*
X00351Y004461*
X00351Y004461*
X003509Y004461*
X003508Y004461*
X003507Y00446*
X003506Y00446*
X003506Y004459*
X003505Y004459*
X003504Y004458*
X003504Y004458*
X003503Y004457*
X003503Y004457*
X003502Y004456*
X003502Y004455*
X003502Y004454*
X003501Y004454*
X003501Y004453*
X003501Y004452*
X003501Y004451*
X003501Y00445*
X0035Y004449*
X003501Y004449*
X003501Y004448*
X003501Y004447*
X003501Y004446*
X003501Y004445*
X003502Y004445*
X003502Y004444*
X003502Y004443*
X003503Y004442*
X003503Y004442*
X003504Y004441*
X003504Y004441*
X003505Y00444*
X003506Y00444*
X003506Y004439*
X003507Y004439*
X003508Y004438*
X003509Y004438*
X00351Y004438*
X00351Y004438*
X003511Y004438*
X003512Y004438*
X003513*
X003514Y004438*
X003515Y004438*
X003515Y004438*
X003516Y004438*
X003517Y004438*
X003518Y004439*
X003518Y004439*
X003519Y00444*
X00352Y00444*
X003521Y004441*
X003521Y004441*
X003522Y004442*
X003522Y004442*
X003523Y004443*
X003523Y004444*
X003523Y004445*
X003524Y004445*
X003524Y004446*
X003524Y004447*
X003524Y004448*
X003524Y004449*
X003524Y004449*
X011219Y003937D02*
D01*
X011219Y003938*
X011219Y003939*
X011219Y00394*
X011219Y003941*
X011219Y003942*
X011218Y003942*
X011218Y003943*
X011218Y003944*
X011217Y003945*
X011217Y003945*
X011216Y003946*
X011216Y003946*
X011215Y003947*
X011214Y003947*
X011213Y003948*
X011213Y003948*
X011212Y003949*
X011211Y003949*
X01121Y003949*
X01121Y003949*
X011209Y003949*
X011208Y003949*
X011207*
X011206Y003949*
X011205Y003949*
X011205Y003949*
X011204Y003949*
X011203Y003949*
X011202Y003948*
X011201Y003948*
X011201Y003947*
X0112Y003947*
X011199Y003946*
X011199Y003946*
X011198Y003945*
X011198Y003945*
X011197Y003944*
X011197Y003943*
X011197Y003942*
X011196Y003942*
X011196Y003941*
X011196Y00394*
X011196Y003939*
X011196Y003938*
X011195Y003937*
X011196Y003937*
X011196Y003936*
X011196Y003935*
X011196Y003934*
X011196Y003933*
X011197Y003933*
X011197Y003932*
X011197Y003931*
X011198Y00393*
X011198Y00393*
X011199Y003929*
X011199Y003929*
X0112Y003928*
X011201Y003928*
X011201Y003927*
X011202Y003927*
X011203Y003926*
X011204Y003926*
X011205Y003926*
X011205Y003926*
X011206Y003926*
X011207Y003926*
X011208*
X011209Y003926*
X01121Y003926*
X01121Y003926*
X011211Y003926*
X011212Y003926*
X011213Y003927*
X011213Y003927*
X011214Y003928*
X011215Y003928*
X011216Y003929*
X011216Y003929*
X011217Y00393*
X011217Y00393*
X011218Y003931*
X011218Y003932*
X011218Y003933*
X011219Y003933*
X011219Y003934*
X011219Y003935*
X011219Y003936*
X011219Y003937*
X011219Y003937*
X00802Y005557D02*
D01*
X00802Y005558*
X00802Y005559*
X00802Y00556*
X00802Y005561*
X00802Y005562*
X008019Y005562*
X008019Y005563*
X008019Y005564*
X008018Y005565*
X008018Y005565*
X008017Y005566*
X008017Y005566*
X008016Y005567*
X008015Y005567*
X008014Y005568*
X008014Y005568*
X008013Y005569*
X008012Y005569*
X008011Y005569*
X008011Y005569*
X00801Y005569*
X008009Y005569*
X008008*
X008007Y005569*
X008006Y005569*
X008006Y005569*
X008005Y005569*
X008004Y005569*
X008003Y005568*
X008002Y005568*
X008002Y005567*
X008001Y005567*
X008Y005566*
X008Y005566*
X007999Y005565*
X007999Y005565*
X007998Y005564*
X007998Y005563*
X007998Y005562*
X007997Y005562*
X007997Y005561*
X007997Y00556*
X007997Y005559*
X007997Y005558*
X007996Y005557*
X007997Y005557*
X007997Y005556*
X007997Y005555*
X007997Y005554*
X007997Y005553*
X007998Y005553*
X007998Y005552*
X007998Y005551*
X007999Y00555*
X007999Y00555*
X008Y005549*
X008Y005549*
X008001Y005548*
X008002Y005548*
X008002Y005547*
X008003Y005547*
X008004Y005546*
X008005Y005546*
X008006Y005546*
X008006Y005546*
X008007Y005546*
X008008Y005546*
X008009*
X00801Y005546*
X008011Y005546*
X008011Y005546*
X008012Y005546*
X008013Y005546*
X008014Y005547*
X008014Y005547*
X008015Y005548*
X008016Y005548*
X008017Y005549*
X008017Y005549*
X008018Y00555*
X008018Y00555*
X008019Y005551*
X008019Y005552*
X008019Y005553*
X00802Y005553*
X00802Y005554*
X00802Y005555*
X00802Y005556*
X00802Y005557*
X00802Y005557*
G54D34*
X013444Y004584D02*
D01*
X013444Y004587*
X013444Y004589*
X013444Y004591*
X013443Y004593*
X013443Y004595*
X013442Y004597*
X013441Y004599*
X01344Y0046*
X013439Y004602*
X013437Y004604*
X013436Y004605*
X013435Y004607*
X013433Y004608*
X013431Y004609*
X013429Y00461*
X013428Y004611*
X013426Y004612*
X013424Y004613*
X013422Y004614*
X01342Y004614*
X013418Y004614*
X013416Y004614*
X013413*
X013411Y004614*
X013409Y004614*
X013407Y004614*
X013405Y004613*
X013403Y004612*
X013401Y004611*
X013399Y00461*
X013398Y004609*
X013396Y004608*
X013394Y004607*
X013393Y004605*
X013392Y004604*
X01339Y004602*
X013389Y0046*
X013388Y004599*
X013387Y004597*
X013386Y004595*
X013386Y004593*
X013385Y004591*
X013385Y004589*
X013385Y004587*
X013384Y004584*
X013385Y004582*
X013385Y00458*
X013385Y004578*
X013386Y004576*
X013386Y004574*
X013387Y004572*
X013388Y00457*
X013389Y004569*
X01339Y004567*
X013392Y004565*
X013393Y004564*
X013394Y004562*
X013396Y004561*
X013398Y00456*
X013399Y004559*
X013401Y004558*
X013403Y004557*
X013405Y004556*
X013407Y004555*
X013409Y004555*
X013411Y004555*
X013413Y004555*
X013416*
X013418Y004555*
X01342Y004555*
X013422Y004555*
X013424Y004556*
X013426Y004557*
X013428Y004558*
X013429Y004559*
X013431Y00456*
X013433Y004561*
X013435Y004562*
X013436Y004564*
X013437Y004565*
X013439Y004567*
X01344Y004569*
X013441Y00457*
X013442Y004572*
X013443Y004574*
X013443Y004576*
X013444Y004578*
X013444Y00458*
X013444Y004582*
X013444Y004584*
G54D41*
X001102Y002569D02*
D01*
X001102Y00257*
X001102Y002571*
X001102Y002572*
X001102Y002573*
X001102Y002574*
X001101Y002575*
X001101Y002576*
X001101Y002576*
X0011Y002577*
X001099Y002578*
X001099Y002579*
X001098Y002579*
X001098Y00258*
X001097Y00258*
X001096Y002581*
X001095Y002581*
X001094Y002582*
X001094Y002582*
X001093Y002582*
X001092Y002582*
X001091Y002582*
X00109Y002582*
X001089*
X001088Y002582*
X001087Y002582*
X001086Y002582*
X001085Y002582*
X001085Y002582*
X001084Y002581*
X001083Y002581*
X001082Y00258*
X001081Y00258*
X001081Y002579*
X00108Y002579*
X00108Y002578*
X001079Y002577*
X001078Y002576*
X001078Y002576*
X001078Y002575*
X001077Y002574*
X001077Y002573*
X001077Y002572*
X001077Y002571*
X001077Y00257*
X001076Y002569*
X001077Y002569*
X001077Y002568*
X001077Y002567*
X001077Y002566*
X001077Y002565*
X001078Y002564*
X001078Y002563*
X001078Y002563*
X001079Y002562*
X00108Y002561*
X00108Y00256*
X001081Y00256*
X001081Y002559*
X001082Y002559*
X001083Y002558*
X001084Y002558*
X001085Y002557*
X001085Y002557*
X001086Y002557*
X001087Y002557*
X001088Y002557*
X001089Y002557*
X00109*
X001091Y002557*
X001092Y002557*
X001093Y002557*
X001094Y002557*
X001094Y002557*
X001095Y002558*
X001096Y002558*
X001097Y002559*
X001098Y002559*
X001098Y00256*
X001099Y00256*
X001099Y002561*
X0011Y002562*
X001101Y002563*
X001101Y002563*
X001101Y002564*
X001102Y002565*
X001102Y002566*
X001102Y002567*
X001102Y002568*
X001102Y002569*
X001102Y002569*
G54D66*
X012502Y004875D02*
D01*
X012502Y00489*
X012501Y004904*
X012498Y004918*
X012495Y004931*
X012491Y004945*
X012485Y004958*
X012479Y004971*
X012472Y004983*
X012464Y004995*
X012456Y005006*
X012446Y005017*
X012436Y005027*
X012425Y005036*
X012414Y005044*
X012402Y005052*
X012389Y005059*
X012376Y005064*
X012363Y005069*
X01235Y005073*
X012336Y005076*
X012322Y005078*
X012308Y005079*
X012293Y005079*
X012279Y005078*
X012265Y005077*
X012251Y005074*
X012238Y00507*
X012224Y005065*
X012211Y005059*
X012199Y005053*
X012187Y005045*
X012175Y005037*
X012164Y005028*
X012154Y005018*
X012145Y005008*
X012136Y004997*
X012128Y004985*
X012121Y004973*
X012114Y00496*
X012109Y004947*
X012105Y004933*
X012101Y00492*
X012099Y004906*
X012097Y004892*
X012096Y004877*
Y004225D02*
D01*
X012097Y004211*
X012098Y004197*
X012101Y004183*
X012104Y00417*
X012108Y004156*
X012114Y004143*
X01212Y00413*
X012127Y004118*
X012135Y004106*
X012143Y004095*
X012153Y004084*
X012163Y004074*
X012174Y004065*
X012185Y004057*
X012197Y004049*
X01221Y004042*
X012223Y004037*
X012236Y004032*
X012249Y004028*
X012263Y004025*
X012277Y004023*
X012291Y004022*
X012306Y004022*
X01232Y004023*
X012334Y004024*
X012348Y004027*
X012361Y004031*
X012375Y004036*
X012388Y004042*
X0124Y004048*
X012412Y004056*
X012424Y004064*
X012435Y004073*
X012445Y004083*
X012454Y004093*
X012463Y004104*
X012471Y004116*
X012478Y004128*
X012485Y004141*
X01249Y004154*
X012494Y004168*
X012498Y004181*
X0125Y004195*
X012502Y004209*
X012502Y004223*
Y004224*
X012538Y004879D02*
D01*
X012538Y004896*
X012536Y004913*
X012533Y004929*
X012529Y004945*
X012524Y004961*
X012518Y004977*
X012511Y004992*
X012502Y005006*
X012493Y00502*
X012483Y005033*
X012471Y005046*
X012459Y005057*
X012447Y005068*
X012433Y005078*
X012419Y005086*
X012404Y005094*
X012389Y005101*
X012373Y005107*
X012357Y005111*
X012341Y005115*
X012324Y005117*
X012308Y005118*
X012291*
X012275Y005117*
X012258Y005115*
X012242Y005111*
X012226Y005107*
X01221Y005101*
X012195Y005094*
X01218Y005086*
X012166Y005078*
X012152Y005068*
X01214Y005057*
X012128Y005046*
X012116Y005033*
X012106Y00502*
X012097Y005006*
X012088Y004992*
X012081Y004977*
X012075Y004961*
X01207Y004945*
X012066Y004929*
X012063Y004913*
X012061Y004896*
X01206Y004879*
Y004219D02*
D01*
X012061Y004203*
X012063Y004186*
X012066Y00417*
X01207Y004154*
X012075Y004138*
X012081Y004122*
X012088Y004107*
X012097Y004093*
X012106Y004079*
X012116Y004066*
X012128Y004053*
X01214Y004042*
X012152Y004031*
X012166Y004021*
X01218Y004013*
X012195Y004005*
X01221Y003998*
X012226Y003992*
X012242Y003988*
X012258Y003984*
X012275Y003982*
X012291Y003981*
X012308*
X012324Y003982*
X012341Y003984*
X012357Y003988*
X012373Y003992*
X012389Y003998*
X012404Y004005*
X012419Y004013*
X012433Y004021*
X012447Y004031*
X012459Y004042*
X012471Y004053*
X012483Y004066*
X012493Y004079*
X012502Y004093*
X012511Y004107*
X012518Y004122*
X012524Y004138*
X012529Y004154*
X012533Y00417*
X012536Y004186*
X012538Y004203*
X012538Y004219*
X012502Y004224D02*
Y004875D01*
X012096Y004225D02*
Y004877D01*
X012538Y004219D02*
Y004878D01*
X01206Y004219D02*
Y004878D01*
G54D67*
X002673Y00127D02*
D01*
X002673Y001274*
X002673Y001278*
X002672Y001283*
X002671Y001287*
X00267Y001291*
X002668Y001295*
X002666Y001299*
X002664Y001303*
X002661Y001307*
X002659Y00131*
X002656Y001313*
X002653Y001316*
X002649Y001319*
X002646Y001322*
X002642Y001324*
X002638Y001326*
X002634Y001328*
X00263Y001329*
X002626Y001331*
X002621Y001332*
X002617Y001332*
X002613Y001332*
X002608*
X002604Y001332*
X0026Y001332*
X002595Y001331*
X002591Y001329*
X002587Y001328*
X002583Y001326*
X002579Y001324*
X002575Y001322*
X002572Y001319*
X002568Y001316*
X002565Y001313*
X002562Y00131*
X00256Y001307*
X002557Y001303*
X002555Y001299*
X002553Y001295*
X002551Y001291*
X00255Y001287*
X002549Y001283*
X002548Y001278*
X002548Y001274*
X002546Y00127*
X016514Y002081D02*
D01*
X016519Y002082*
X016523Y002082*
X016528Y002083*
X016532Y002084*
X016536Y002085*
X01654Y002087*
X016544Y002089*
X016548Y002091*
X016552Y002094*
X016555Y002096*
X016558Y002099*
X016561Y002102*
X016564Y002106*
X016567Y002109*
X016569Y002113*
X016571Y002117*
X016573Y002121*
X016574Y002125*
X016576Y002129*
X016577Y002134*
X016577Y002138*
X016577Y002142*
Y002147*
X016577Y002151*
X016577Y002155*
X016576Y00216*
X016574Y002164*
X016573Y002168*
X016571Y002172*
X016569Y002176*
X016567Y00218*
X016564Y002183*
X016561Y002187*
X016558Y00219*
X016555Y002193*
X016552Y002195*
X016548Y002198*
X016544Y0022*
X01654Y002202*
X016536Y002204*
X016532Y002205*
X016528Y002206*
X016523Y002207*
X016519Y002207*
X016514Y002208*
X015913Y002085D02*
D01*
X015918Y002086*
X015922Y002086*
X015927Y002087*
X015931Y002088*
X015935Y002089*
X015939Y002091*
X015943Y002093*
X015947Y002095*
X015951Y002098*
X015954Y0021*
X015957Y002103*
X01596Y002106*
X015963Y00211*
X015966Y002113*
X015968Y002117*
X01597Y002121*
X015972Y002125*
X015973Y002129*
X015975Y002133*
X015976Y002138*
X015976Y002142*
X015976Y002146*
Y002151*
X015976Y002155*
X015976Y002159*
X015975Y002164*
X015973Y002168*
X015972Y002172*
X01597Y002176*
X015968Y00218*
X015966Y002184*
X015963Y002187*
X01596Y002191*
X015957Y002194*
X015954Y002197*
X015951Y002199*
X015947Y002202*
X015943Y002204*
X015939Y002206*
X015935Y002208*
X015931Y002209*
X015927Y00221*
X015922Y002211*
X015918Y002211*
X015913Y002212*
X015313Y002085D02*
D01*
X015318Y002086*
X015322Y002086*
X015327Y002087*
X015331Y002088*
X015335Y002089*
X015339Y002091*
X015343Y002093*
X015347Y002095*
X015351Y002098*
X015354Y0021*
X015357Y002103*
X01536Y002106*
X015363Y00211*
X015366Y002113*
X015368Y002117*
X01537Y002121*
X015372Y002125*
X015373Y002129*
X015375Y002133*
X015376Y002138*
X015376Y002142*
X015376Y002146*
Y002151*
X015376Y002155*
X015376Y002159*
X015375Y002164*
X015373Y002168*
X015372Y002172*
X01537Y002176*
X015368Y00218*
X015366Y002184*
X015363Y002187*
X01536Y002191*
X015357Y002194*
X015354Y002197*
X015351Y002199*
X015347Y002202*
X015343Y002204*
X015339Y002206*
X015335Y002208*
X015331Y002209*
X015327Y00221*
X015322Y002211*
X015318Y002211*
X015313Y002212*
X014713Y002085D02*
D01*
X014718Y002086*
X014722Y002086*
X014727Y002087*
X014731Y002088*
X014735Y002089*
X014739Y002091*
X014743Y002093*
X014747Y002095*
X014751Y002098*
X014754Y0021*
X014757Y002103*
X01476Y002106*
X014763Y00211*
X014766Y002113*
X014768Y002117*
X01477Y002121*
X014772Y002125*
X014773Y002129*
X014775Y002133*
X014776Y002138*
X014776Y002142*
X014776Y002146*
Y002151*
X014776Y002155*
X014776Y002159*
X014775Y002164*
X014773Y002168*
X014772Y002172*
X01477Y002176*
X014768Y00218*
X014766Y002184*
X014763Y002187*
X01476Y002191*
X014757Y002194*
X014754Y002197*
X014751Y002199*
X014747Y002202*
X014743Y002204*
X014739Y002206*
X014735Y002208*
X014731Y002209*
X014727Y00221*
X014722Y002211*
X014718Y002211*
X014713Y002212*
X012113Y002086D02*
D01*
X012118Y002087*
X012122Y002087*
X012127Y002088*
X012131Y002089*
X012135Y00209*
X012139Y002092*
X012143Y002094*
X012147Y002096*
X012151Y002099*
X012154Y002101*
X012157Y002104*
X01216Y002107*
X012163Y002111*
X012166Y002114*
X012168Y002118*
X01217Y002122*
X012172Y002126*
X012173Y00213*
X012175Y002134*
X012176Y002139*
X012176Y002143*
X012176Y002147*
Y002152*
X012176Y002156*
X012176Y00216*
X012175Y002165*
X012173Y002169*
X012172Y002173*
X01217Y002177*
X012168Y002181*
X012166Y002185*
X012163Y002188*
X01216Y002192*
X012157Y002195*
X012154Y002198*
X012151Y0022*
X012147Y002203*
X012143Y002205*
X012139Y002207*
X012135Y002209*
X012131Y00221*
X012127Y002211*
X012122Y002212*
X012118Y002212*
X012113Y002213*
X011513Y002085D02*
D01*
X011518Y002086*
X011522Y002086*
X011527Y002087*
X011531Y002088*
X011535Y002089*
X011539Y002091*
X011543Y002093*
X011547Y002095*
X011551Y002098*
X011554Y0021*
X011557Y002103*
X01156Y002106*
X011563Y00211*
X011566Y002113*
X011568Y002117*
X01157Y002121*
X011572Y002125*
X011573Y002129*
X011575Y002133*
X011576Y002138*
X011576Y002142*
X011576Y002146*
Y002151*
X011576Y002155*
X011576Y002159*
X011575Y002164*
X011573Y002168*
X011572Y002172*
X01157Y002176*
X011568Y00218*
X011566Y002184*
X011563Y002187*
X01156Y002191*
X011557Y002194*
X011554Y002197*
X011551Y002199*
X011547Y002202*
X011543Y002204*
X011539Y002206*
X011535Y002208*
X011531Y002209*
X011527Y00221*
X011522Y002211*
X011518Y002211*
X011513Y002213*
X010913Y002085D02*
D01*
X010918Y002086*
X010922Y002086*
X010927Y002087*
X010931Y002088*
X010935Y002089*
X010939Y002091*
X010943Y002093*
X010947Y002095*
X010951Y002098*
X010954Y0021*
X010957Y002103*
X01096Y002106*
X010963Y00211*
X010966Y002113*
X010968Y002117*
X01097Y002121*
X010972Y002125*
X010973Y002129*
X010975Y002133*
X010976Y002138*
X010976Y002142*
X010976Y002146*
Y002151*
X010976Y002155*
X010976Y002159*
X010975Y002164*
X010973Y002168*
X010972Y002172*
X01097Y002176*
X010968Y00218*
X010966Y002184*
X010963Y002187*
X01096Y002191*
X010957Y002194*
X010954Y002197*
X010951Y002199*
X010947Y002202*
X010943Y002204*
X010939Y002206*
X010935Y002208*
X010931Y002209*
X010927Y00221*
X010922Y002211*
X010918Y002211*
X010913Y002213*
X010313Y002085D02*
D01*
X010318Y002086*
X010322Y002086*
X010327Y002087*
X010331Y002088*
X010335Y002089*
X010339Y002091*
X010343Y002093*
X010347Y002095*
X010351Y002098*
X010354Y0021*
X010357Y002103*
X01036Y002106*
X010363Y00211*
X010366Y002113*
X010368Y002117*
X01037Y002121*
X010372Y002125*
X010373Y002129*
X010375Y002133*
X010376Y002138*
X010376Y002142*
X010376Y002146*
Y002151*
X010376Y002155*
X010376Y002159*
X010375Y002164*
X010373Y002168*
X010372Y002172*
X01037Y002176*
X010368Y00218*
X010366Y002184*
X010363Y002187*
X01036Y002191*
X010357Y002194*
X010354Y002197*
X010351Y002199*
X010347Y002202*
X010343Y002204*
X010339Y002206*
X010335Y002208*
X010331Y002209*
X010327Y00221*
X010322Y002211*
X010318Y002211*
X010313Y002213*
X008036Y00331D02*
D01*
X008037Y003306*
X008037Y003302*
X008038Y003297*
X008039Y003293*
X00804Y003289*
X008042Y003285*
X008044Y003281*
X008046Y003277*
X008049Y003273*
X008051Y00327*
X008054Y003267*
X008057Y003264*
X008061Y003261*
X008064Y003258*
X008068Y003256*
X008072Y003254*
X008076Y003252*
X00808Y003251*
X008084Y003249*
X008089Y003248*
X008093Y003248*
X008097Y003248*
X008102*
X008106Y003248*
X00811Y003248*
X008115Y003249*
X008119Y003251*
X008123Y003252*
X008127Y003254*
X008131Y003256*
X008135Y003258*
X008138Y003261*
X008142Y003264*
X008145Y003267*
X008148Y00327*
X00815Y003273*
X008153Y003277*
X008155Y003281*
X008157Y003285*
X008159Y003289*
X00816Y003293*
X008161Y003297*
X008162Y003302*
X008162Y003306*
X008163Y00331*
X003249Y003999D02*
D01*
X003248Y004034*
X003245Y004069*
X003239Y004103*
X00323Y004137*
X003219Y004171*
X003206Y004203*
X003191Y004234*
X003174Y004264*
X003154Y004293*
X003133Y004321*
X003109Y004347*
X003084Y004371*
X003057Y004394*
X003029Y004414*
X002999Y004433*
X002969Y004449*
X002937Y004463*
X002904Y004475*
X00287Y004485*
X002836Y004492*
X002802Y004497*
X002767Y004499*
X002732*
X002697Y004497*
X002663Y004492*
X002629Y004485*
X002595Y004475*
X002562Y004463*
X00253Y004449*
X002499Y004433*
X00247Y004414*
X002442Y004394*
X002415Y004371*
X00239Y004347*
X002366Y004321*
X002345Y004293*
X002325Y004264*
X002308Y004234*
X002293Y004203*
X00228Y004171*
X002269Y004137*
X00226Y004103*
X002254Y004069*
X002251Y004034*
X002249Y003999*
X002251Y003965*
X002254Y00393*
X00226Y003896*
X002269Y003862*
X00228Y003828*
X002293Y003796*
X002308Y003765*
X002325Y003735*
X002345Y003706*
X002366Y003678*
X00239Y003652*
X002415Y003628*
X002442Y003605*
X00247Y003585*
X002499Y003566*
X00253Y00355*
X002562Y003536*
X002595Y003524*
X002629Y003514*
X002663Y003507*
X002697Y003502*
X002732Y0035*
X002767*
X002802Y003502*
X002836Y003507*
X00287Y003514*
X002904Y003524*
X002937Y003536*
X002969Y00355*
X002999Y003566*
X003029Y003585*
X003057Y003605*
X003084Y003628*
X003109Y003652*
X003133Y003678*
X003154Y003706*
X003174Y003735*
X003191Y003765*
X003206Y003796*
X003219Y003828*
X00323Y003862*
X003239Y003896*
X003245Y00393*
X003248Y003965*
X003249Y003999*
X012511Y003677D02*
D01*
X012511Y003695*
X012509Y003712*
X012506Y003729*
X012502Y003746*
X012496Y003763*
X01249Y003779*
X012482Y003795*
X012474Y00381*
X012464Y003824*
X012453Y003838*
X012441Y003851*
X012429Y003863*
X012415Y003875*
X012401Y003885*
X012386Y003894*
X012371Y003902*
X012355Y003909*
X012339Y003915*
X012322Y00392*
X012305Y003924*
X012288Y003926*
X01227Y003927*
X012253*
X012235Y003926*
X012218Y003924*
X012201Y00392*
X012184Y003915*
X012168Y003909*
X012152Y003902*
X012136Y003894*
X012122Y003885*
X012108Y003875*
X012094Y003863*
X012082Y003851*
X01207Y003838*
X012059Y003824*
X012049Y00381*
X012041Y003795*
X012033Y003779*
X012027Y003763*
X012021Y003746*
X012017Y003729*
X012014Y003712*
X012012Y003695*
X012011Y003677*
X012012Y00366*
X012014Y003643*
X012017Y003626*
X012021Y003609*
X012027Y003592*
X012033Y003576*
X012041Y00356*
X012049Y003545*
X012059Y003531*
X01207Y003517*
X012082Y003504*
X012094Y003492*
X012108Y00348*
X012122Y00347*
X012136Y003461*
X012152Y003453*
X012168Y003446*
X012184Y00344*
X012201Y003435*
X012218Y003431*
X012235Y003429*
X012253Y003428*
X01227*
X012288Y003429*
X012305Y003431*
X012322Y003435*
X012339Y00344*
X012355Y003446*
X012371Y003453*
X012386Y003461*
X012401Y00347*
X012415Y00348*
X012429Y003492*
X012441Y003504*
X012453Y003517*
X012464Y003531*
X012474Y003545*
X012482Y00356*
X01249Y003576*
X012496Y003592*
X012502Y003609*
X012506Y003626*
X012509Y003643*
X012511Y00366*
X012511Y003677*
X001699Y004494D02*
D01*
X001665Y004493*
X00163Y00449*
X001596Y004484*
X001562Y004475*
X001528Y004464*
X001496Y004451*
X001465Y004436*
X001435Y004419*
X001406Y004399*
X001378Y004378*
X001352Y004354*
X001328Y004329*
X001305Y004302*
X001285Y004274*
X001266Y004244*
X00125Y004214*
X001236Y004182*
X001224Y004149*
X001214Y004115*
X001207Y004081*
X001202Y004047*
X0012Y004012*
Y003977*
X001202Y003942*
X001207Y003908*
X001214Y003874*
X001224Y00384*
X001236Y003807*
X00125Y003775*
X001266Y003744*
X001285Y003715*
X001305Y003687*
X001328Y00366*
X001352Y003635*
X001378Y003611*
X001406Y00359*
X001435Y00357*
X001465Y003553*
X001496Y003538*
X001528Y003525*
X001562Y003514*
X001596Y003505*
X00163Y003499*
X001665Y003496*
X001699Y003494*
X001734Y003496*
X001769Y003499*
X001803Y003505*
X001837Y003514*
X001871Y003525*
X001903Y003538*
X001934Y003553*
X001964Y00357*
X001993Y00359*
X002021Y003611*
X002047Y003635*
X002071Y00366*
X002094Y003687*
X002114Y003715*
X002133Y003744*
X002149Y003775*
X002163Y003807*
X002175Y00384*
X002185Y003874*
X002192Y003908*
X002197Y003942*
X002199Y003977*
Y004012*
X002197Y004047*
X002192Y004081*
X002185Y004115*
X002175Y004149*
X002163Y004182*
X002149Y004214*
X002133Y004244*
X002114Y004274*
X002094Y004302*
X002071Y004329*
X002047Y004354*
X002021Y004378*
X001993Y004399*
X001964Y004419*
X001934Y004436*
X001903Y004451*
X001871Y004464*
X001837Y004475*
X001803Y004484*
X001769Y00449*
X001734Y004493*
X001699Y004494*
X004114Y006216D02*
D01*
X004114Y006244*
X004111Y006272*
X004106Y0063*
X004099Y006327*
X00409Y006353*
X00408Y006379*
X004068Y006404*
X004054Y006428*
X004038Y006452*
X004021Y006474*
X004002Y006494*
X003982Y006514*
X003961Y006532*
X003938Y006548*
X003914Y006563*
X00389Y006576*
X003864Y006587*
X003838Y006597*
X003811Y006605*
X003784Y00661*
X003756Y006614*
X003728Y006616*
X003701*
X003673Y006614*
X003645Y00661*
X003618Y006605*
X003591Y006597*
X003565Y006587*
X003539Y006576*
X003514Y006563*
X003491Y006548*
X003468Y006532*
X003447Y006514*
X003427Y006494*
X003408Y006474*
X003391Y006452*
X003375Y006428*
X003361Y006404*
X003349Y006379*
X003339Y006353*
X00333Y006327*
X003323Y0063*
X003318Y006272*
X003315Y006244*
X003314Y006216*
X003315Y006189*
X003318Y006161*
X003323Y006133*
X00333Y006106*
X003339Y00608*
X003349Y006054*
X003361Y006029*
X003375Y006005*
X003391Y005981*
X003408Y005959*
X003427Y005939*
X003447Y005919*
X003468Y005901*
X003491Y005885*
X003514Y00587*
X003539Y005857*
X003565Y005846*
X003591Y005836*
X003618Y005828*
X003645Y005823*
X003673Y005819*
X003701Y005817*
X003728*
X003756Y005819*
X003784Y005823*
X003811Y005828*
X003838Y005836*
X003864Y005846*
X00389Y005857*
X003914Y00587*
X003938Y005885*
X003961Y005901*
X003982Y005919*
X004002Y005939*
X004021Y005959*
X004038Y005981*
X004054Y006005*
X004068Y006029*
X00408Y006054*
X00409Y00608*
X004099Y006106*
X004106Y006133*
X004111Y006161*
X004114Y006189*
X004114Y006216*
X011887Y003677D02*
D01*
X011887Y003695*
X011885Y003712*
X011882Y003729*
X011878Y003746*
X011872Y003763*
X011866Y003779*
X011858Y003795*
X01185Y00381*
X01184Y003824*
X011829Y003838*
X011817Y003851*
X011805Y003863*
X011791Y003875*
X011777Y003885*
X011762Y003894*
X011747Y003902*
X011731Y003909*
X011715Y003915*
X011698Y00392*
X011681Y003924*
X011664Y003926*
X011646Y003927*
X011629*
X011611Y003926*
X011594Y003924*
X011577Y00392*
X01156Y003915*
X011544Y003909*
X011528Y003902*
X011512Y003894*
X011498Y003885*
X011484Y003875*
X01147Y003863*
X011458Y003851*
X011446Y003838*
X011435Y003824*
X011425Y00381*
X011417Y003795*
X011409Y003779*
X011403Y003763*
X011397Y003746*
X011393Y003729*
X01139Y003712*
X011388Y003695*
X011387Y003677*
X011388Y00366*
X01139Y003643*
X011393Y003626*
X011397Y003609*
X011403Y003592*
X011409Y003576*
X011417Y00356*
X011425Y003545*
X011435Y003531*
X011446Y003517*
X011458Y003504*
X01147Y003492*
X011484Y00348*
X011498Y00347*
X011512Y003461*
X011528Y003453*
X011544Y003446*
X01156Y00344*
X011577Y003435*
X011594Y003431*
X011611Y003429*
X011629Y003428*
X011646*
X011664Y003429*
X011681Y003431*
X011698Y003435*
X011715Y00344*
X011731Y003446*
X011747Y003453*
X011762Y003461*
X011777Y00347*
X011791Y00348*
X011805Y003492*
X011817Y003504*
X011829Y003517*
X01184Y003531*
X01185Y003545*
X011858Y00356*
X011866Y003576*
X011872Y003592*
X011878Y003609*
X011882Y003626*
X011885Y003643*
X011887Y00366*
X011887Y003677*
X010459Y003814D02*
D01*
X010459Y003832*
X010457Y003849*
X010454Y003866*
X01045Y003883*
X010444Y0039*
X010438Y003916*
X01043Y003932*
X010422Y003947*
X010412Y003961*
X010401Y003975*
X010389Y003988*
X010377Y004*
X010363Y004012*
X010349Y004022*
X010334Y004031*
X010319Y004039*
X010303Y004046*
X010287Y004052*
X01027Y004057*
X010253Y004061*
X010236Y004063*
X010218Y004064*
X010201*
X010183Y004063*
X010166Y004061*
X010149Y004057*
X010132Y004052*
X010116Y004046*
X0101Y004039*
X010084Y004031*
X01007Y004022*
X010056Y004012*
X010042Y004*
X01003Y003988*
X010018Y003975*
X010007Y003961*
X009997Y003947*
X009989Y003932*
X009981Y003916*
X009975Y0039*
X009969Y003883*
X009965Y003866*
X009962Y003849*
X00996Y003832*
X009959Y003814*
X00996Y003797*
X009962Y00378*
X009965Y003763*
X009969Y003746*
X009975Y003729*
X009981Y003713*
X009989Y003697*
X009997Y003682*
X010007Y003668*
X010018Y003654*
X01003Y003641*
X010042Y003629*
X010056Y003617*
X01007Y003607*
X010084Y003598*
X0101Y00359*
X010116Y003583*
X010132Y003577*
X010149Y003572*
X010166Y003568*
X010183Y003566*
X010201Y003565*
X010218*
X010236Y003566*
X010253Y003568*
X01027Y003572*
X010287Y003577*
X010303Y003583*
X010319Y00359*
X010334Y003598*
X010349Y003607*
X010363Y003617*
X010377Y003629*
X010389Y003641*
X010401Y003654*
X010412Y003668*
X010422Y003682*
X01043Y003697*
X010438Y003713*
X010444Y003729*
X01045Y003746*
X010454Y003763*
X010457Y00378*
X010459Y003797*
X010459Y003814*
X014899Y003349D02*
D01*
X014899Y003367*
X014897Y003384*
X014894Y003401*
X01489Y003418*
X014884Y003435*
X014878Y003451*
X01487Y003467*
X014862Y003482*
X014852Y003496*
X014841Y00351*
X014829Y003523*
X014817Y003535*
X014803Y003547*
X014789Y003557*
X014774Y003566*
X014759Y003574*
X014743Y003581*
X014727Y003587*
X01471Y003592*
X014693Y003596*
X014676Y003598*
X014658Y003599*
X014641*
X014623Y003598*
X014606Y003596*
X014589Y003592*
X014572Y003587*
X014556Y003581*
X01454Y003574*
X014524Y003566*
X01451Y003557*
X014496Y003547*
X014482Y003535*
X01447Y003523*
X014458Y00351*
X014447Y003496*
X014437Y003482*
X014429Y003467*
X014421Y003451*
X014415Y003435*
X014409Y003418*
X014405Y003401*
X014402Y003384*
X0144Y003367*
X014399Y003349*
X0144Y003332*
X014402Y003315*
X014405Y003298*
X014409Y003281*
X014415Y003264*
X014421Y003248*
X014429Y003232*
X014437Y003217*
X014447Y003203*
X014458Y003189*
X01447Y003176*
X014482Y003164*
X014496Y003152*
X01451Y003142*
X014524Y003133*
X01454Y003125*
X014556Y003118*
X014572Y003112*
X014589Y003107*
X014606Y003103*
X014623Y003101*
X014641Y0031*
X014658*
X014676Y003101*
X014693Y003103*
X01471Y003107*
X014727Y003112*
X014743Y003118*
X014759Y003125*
X014774Y003133*
X014789Y003142*
X014803Y003152*
X014817Y003164*
X014829Y003176*
X014841Y003189*
X014852Y003203*
X014862Y003217*
X01487Y003232*
X014878Y003248*
X014884Y003264*
X01489Y003281*
X014894Y003298*
X014897Y003315*
X014899Y003332*
X014899Y003349*
X002619Y005099D02*
Y005999D01*
X003169Y005099D02*
Y005999D01*
X002619D02*
X003169D01*
X002619Y005099D02*
X003169D01*
X010112Y006067D02*
Y006902D01*
Y006067D02*
X010512D01*
Y006902*
X010112D02*
X010512D01*
X001327Y001049D02*
Y001349D01*
X001827Y001049D02*
Y001349D01*
X001327Y001049D02*
X001827D01*
X001327Y001349D02*
X001827D01*
X001407Y002207D02*
X001707D01*
X001407Y001707D02*
X001707D01*
X001407D02*
Y002207D01*
X001707Y001707D02*
Y002207D01*
X002344Y00127D02*
Y002249D01*
X002874Y00127D02*
Y002249D01*
X002344D02*
X002874D01*
X002344Y00127D02*
X002546D01*
X002673D02*
X002874D01*
X016514Y002409D02*
X016975D01*
X016514Y001879D02*
X016975D01*
Y002409D02*
Y001879D01*
X016514Y002208D02*
Y002409D01*
Y002081D02*
Y001879D01*
X015913Y002414D02*
X016374D01*
X015913Y001884D02*
X016374D01*
Y002414D02*
Y001884D01*
X015913Y002212D02*
Y002414D01*
Y001884D02*
Y002085D01*
X015313Y002414D02*
X015774D01*
X015313Y001884D02*
X015774D01*
Y002414*
X015313Y002212D02*
Y002414D01*
Y001884D02*
Y002085D01*
X014713Y002414D02*
X015174D01*
X014713Y001884D02*
X015174D01*
Y002414D02*
Y001884D01*
X014713Y002212D02*
Y002414D01*
Y001884D02*
Y002085D01*
X013314Y003814D02*
X014184D01*
X013314Y004684D02*
X014184D01*
Y003814D02*
Y004684D01*
X013314Y003814D02*
Y004684D01*
X012113Y002414D02*
X012574D01*
X012113Y001884D02*
X012574D01*
Y002414*
X012113Y002213D02*
Y002414D01*
Y002085D02*
Y001884D01*
X011513Y002414D02*
X011974D01*
X011513Y001884D02*
X011974D01*
Y002414D02*
Y001884D01*
X011513Y002213D02*
Y002414D01*
Y001884D02*
Y002085D01*
X010913Y002414D02*
X011374D01*
X010913Y001884D02*
X011374D01*
Y002414*
X010913D02*
Y002213D01*
Y001884D02*
Y002085D01*
X010313Y002414D02*
X010774D01*
X010313Y001884D02*
X010774D01*
Y002414*
X010313Y002213D02*
Y002414D01*
Y001884D02*
Y002085D01*
X004559Y005667D02*
Y005767D01*
Y005867D02*
X007099D01*
Y001807*
X004559D02*
X007099D01*
X004559D02*
Y005867D01*
X008364Y00331D02*
Y002849D01*
X007834D02*
Y00331D01*
Y002849D02*
X008364D01*
X008163Y00331D02*
X008364D01*
X007834D02*
X008035D01*
X000902Y002619D02*
X00207D01*
Y003339D02*
Y002619D01*
X000902Y003339D02*
X00207D01*
X000902Y002619D02*
Y003339D01*
X000952Y002619D02*
Y003339D01*
X002022Y002619D02*
Y003339D01*
X001002Y002619D02*
X001102D01*
X003289Y005766D02*
X004414D01*
Y004069D02*
Y005766D01*
X003289Y004069D02*
Y005766D01*
Y004069D02*
X004414D01*
X001837Y000274D02*
Y000329D01*
Y-000229D02*
Y000074D01*
X000962Y-000229D02*
Y000074D01*
Y000274D02*
Y000329D01*
Y-000229D02*
X001837D01*
X000962Y000329D02*
X001837D01*
X005676Y-00063D02*
Y000545D01*
Y-00063D02*
X006311D01*
Y000545*
X005676D02*
X006311D01*
X008312Y006067D02*
Y006902D01*
Y006067D02*
X008712D01*
Y006902*
X008312D02*
X008712D01*
X007412Y006067D02*
Y006902D01*
Y006067D02*
X007812D01*
Y006902*
X007412D02*
X007812D01*
X009212Y006067D02*
Y006902D01*
Y006067D02*
X009612D01*
Y006902*
X009212D02*
X009612D01*
X006512Y006067D02*
Y006902D01*
Y006067D02*
X006912D01*
Y006902*
X006512D02*
X006912D01*
X004082Y001081D02*
Y001481D01*
X003891D02*
Y001411D01*
Y001081D02*
Y001151D01*
X004446Y001411D02*
Y001481D01*
Y001081D02*
Y001151D01*
X003891Y001481D02*
X004446D01*
X003891Y001081D02*
X004446D01*
X003374Y001744D02*
X003774D01*
X003704Y001934D02*
X003774D01*
X003374D02*
X003444D01*
X003704Y001379D02*
X003774D01*
X003374D02*
X003444D01*
X003774D02*
Y001934D01*
X003374Y001379D02*
Y001934D01*
X000749Y005739D02*
X001149D01*
X001079Y005929D02*
X001149D01*
X000749D02*
X000819D01*
X001079Y005374D02*
X001149D01*
X000749D02*
X000819D01*
X001149D02*
Y005929D01*
X000749Y005374D02*
Y005929D01*
Y004739D02*
X001149D01*
X001079Y004929D02*
X001149D01*
X000749D02*
X000819D01*
X001079Y004374D02*
X001149D01*
X000749D02*
X000819D01*
X001149D02*
Y004929D01*
X000749Y004374D02*
Y004929D01*
X002082Y004744D02*
Y005334D01*
X001506D02*
X002316D01*
X001504Y004744D02*
X002314D01*
X001504D02*
Y004844D01*
X001506Y005234D02*
Y005334D01*
X002316Y005232D02*
Y005334D01*
X002314Y004744D02*
Y004844D01*
X012121Y003577D02*
X012181D01*
X012152Y003607D02*
Y003546D01*
X001479Y003749D02*
X001579D01*
X001529Y003699D02*
Y003799D01*
X003552Y006319D02*
Y006379D01*
X003521Y00635D02*
X003582D01*
X002082Y005429D02*
Y006019D01*
X001506D02*
X002316D01*
X001504Y005429D02*
X002314D01*
X001504D02*
Y005529D01*
X001506Y005919D02*
Y006019D01*
X002316Y005916D02*
Y006019D01*
X002314Y005429D02*
Y005529D01*
X007319Y005434D02*
Y005664D01*
X007784Y005434D02*
Y005664D01*
X007319Y005434D02*
X007784D01*
X007319Y005664D02*
X007784D01*
X010537Y003507D02*
Y003787D01*
X011206Y003507D02*
Y003787D01*
X010537Y003507D02*
X011206D01*
X010537Y003787D02*
X011206D01*
X011496Y003577D02*
X011557D01*
X011527Y003607D02*
Y003546D01*
X010069Y003714D02*
X010129D01*
X010099Y003744D02*
Y003684D01*
X014729Y003449D02*
X014789D01*
X014759Y003419D02*
Y003479D01*
X009733Y004621D02*
Y005671D01*
X007907Y004621D02*
Y005671D01*
Y004621D02*
X009733D01*
X007907Y005671D02*
X009733D01*
X-000469Y005149D02*
X-000049D01*
X-000469Y004149D02*
Y005149D01*
Y004149D02*
X000439D01*
Y005149*
X-000049D02*
X000439D01*
X-000469Y006149D02*
X-000049D01*
X-000469Y005149D02*
Y006149D01*
Y005149D02*
X000439D01*
Y006149*
X-000049D02*
X000439D01*
X013817Y006049D02*
Y006974D01*
X011281Y006049D02*
X013817D01*
X011281D02*
Y006974D01*
X013817*
X016417Y006049D02*
Y006974D01*
X013881Y006049D02*
X016417D01*
X013881D02*
Y006974D01*
X016417*
X-000474Y004117D02*
X000449D01*
Y001581D02*
Y004117D01*
X-000474Y001581D02*
X000449D01*
X-000474D02*
Y004117D01*
X014538Y001645D02*
Y002152D01*
X01276Y002153D02*
X014538D01*
X01276Y001645D02*
Y002152D01*
Y001645D02*
X014538D01*
X017454Y-000809D02*
Y000169D01*
X014544D02*
X017454D01*
X014544Y-000809D02*
Y000169D01*
Y-000809D02*
X017454D01*
X017572Y-000127D02*
X017826D01*
X017572D02*
Y000889D01*
X017826Y-000127D02*
Y000889D01*
X017572D02*
X017826D01*
X011377Y005016D02*
X011631D01*
Y004D02*
Y005016D01*
X011377Y004D02*
Y005016D01*
Y004D02*
X011631D01*
X009072Y-000127D02*
X009326D01*
X009072D02*
Y000889D01*
X009326Y-000127D02*
Y000889D01*
X009072D02*
X009326D01*
X002634Y006129D02*
Y006029D01*
X002684*
X002701Y006046*
Y006112*
X002684Y006129*
X002634*
X002784Y006029D02*
Y006129D01*
X002734Y006079*
X002801*
X009953Y006884D02*
X009887D01*
Y006834*
X00992*
X009887*
Y006784*
X010053Y006884D02*
X009986D01*
Y006834*
X01002Y006851*
X010036*
X010053Y006834*
Y006801*
X010036Y006784*
X010003*
X009986Y006801*
X011922Y004407D02*
Y004473D01*
X011938*
X012005Y004407*
X012021*
Y004473*
X012005Y004573D02*
X011938D01*
X011922Y004556*
Y004523*
X011938Y004506*
X012005*
X012021Y004523*
Y004556*
X011988Y00454D02*
X012021Y004573D01*
Y004556D02*
X012005Y004573D01*
X012021Y004606D02*
Y00464D01*
Y004623*
X011922*
X011938Y004606*
X003319Y001171D02*
X003386Y001072D01*
Y001171D02*
X003319Y001072D01*
X003486Y001155D02*
X003469Y001171D01*
X003436*
X003419Y001155*
Y001138*
X003436Y001121*
X003469*
X003486Y001105*
Y001088*
X003469Y001072*
X003436*
X003419Y001088*
X003519Y001072D02*
X003552D01*
X003536*
Y001171*
X003519Y001155*
X003602D02*
X003619Y001171D01*
X003652*
X003669Y001155*
Y001088*
X003652Y001072*
X003619*
X003602Y001088*
Y001155*
X004791Y001166D02*
X004858Y001067D01*
Y001166D02*
X004791Y001067D01*
X004958Y00115D02*
X004941Y001166D01*
X004908*
X004891Y00115*
Y001133*
X004908Y001116*
X004941*
X004958Y0011*
Y001083*
X004941Y001067*
X004908*
X004891Y001083*
X004991D02*
X005008Y001067D01*
X005041*
X005058Y001083*
Y00115*
X005041Y001166*
X005008*
X004991Y00115*
Y001133*
X005008Y001116*
X005058*
X008276Y001171D02*
X008343Y001071D01*
Y001171D02*
X008276Y001071D01*
X008443Y001154D02*
X008426Y001171D01*
X008393*
X008376Y001154*
Y001137*
X008393Y001121*
X008426*
X008443Y001104*
Y001087*
X008426Y001071*
X008393*
X008376Y001087*
X008543Y001071D02*
X008476D01*
X008543Y001137*
Y001154*
X008526Y001171*
X008493*
X008476Y001154*
X007126Y001171D02*
X007192Y001071D01*
Y001171D02*
X007126Y001071D01*
X007292Y001154D02*
X007276Y001171D01*
X007242*
X007226Y001154*
Y001137*
X007242Y001121*
X007276*
X007292Y001104*
Y001087*
X007276Y001071*
X007242*
X007226Y001087*
X007325Y001071D02*
X007359D01*
X007342*
Y001171*
X007325Y001154*
X009074Y001024D02*
X009141Y000924D01*
Y001024D02*
X009074Y000924D01*
X009174D02*
X009207D01*
X009191*
Y001024*
X009174Y001007*
X009257Y001024D02*
X009324D01*
Y001007*
X009257Y000941*
Y000924*
X011379Y005149D02*
X011446Y005049D01*
Y005149D02*
X011379Y005049D01*
X011479D02*
X011512D01*
X011496*
Y005149*
X011479Y005132*
X011629Y005149D02*
X011596Y005132D01*
X011562Y005099*
Y005066*
X011579Y005049*
X011612*
X011629Y005066*
Y005082*
X011612Y005099*
X011562*
X013522Y002301D02*
X013589Y002201D01*
Y002301D02*
X013522Y002201D01*
X013621D02*
X013655D01*
X013638*
Y002301*
X013621Y002286*
X013705D02*
X013721Y002301D01*
X013755*
X013771Y002286*
Y002268*
X013755Y002251*
X013738*
X013755*
X013771Y002235*
Y002218*
X013755Y002201*
X013721*
X013705Y002218*
X017599Y001024D02*
X017666Y000924D01*
Y001024D02*
X017599Y000924D01*
X017699Y001007D02*
X017716Y001024D01*
X017749*
X017766Y001007*
Y000991*
X017749Y000974*
X017732*
X017749*
X017766Y000957*
Y000941*
X017749Y000924*
X017716*
X017699Y000941*
X000499Y006099D02*
X000566Y005999D01*
Y006099D02*
X000499Y005999D01*
X000666D02*
X000599D01*
X000666Y006066*
Y006082*
X000649Y006099*
X000616*
X000599Y006082*
X000499Y005049D02*
X000566Y004949D01*
Y005049D02*
X000499Y004949D01*
X000599D02*
X000632D01*
X000616*
Y005049*
X000599Y005032*
X001449Y001259D02*
Y001176D01*
X001466Y001159*
X001499*
X001516Y001176*
Y001259*
X001549Y001242D02*
X001566Y001259D01*
X001599*
X001616Y001242*
Y001226*
X001599Y001209*
X001582*
X001599*
X001616Y001192*
Y001176*
X001599Y001159*
X001566*
X001549Y001176*
X001716Y001159D02*
X001649D01*
X001716Y001226*
Y001242*
X001699Y001259*
X001666*
X001649Y001242*
X001447Y002026D02*
Y001943D01*
X001463Y001927*
X001496*
X001513Y001943*
Y002026*
X001546Y00201D02*
X001563Y002026D01*
X001596*
X001613Y00201*
Y001993*
X001596Y001976*
X00158*
X001596*
X001613Y00196*
Y001943*
X001596Y001927*
X001563*
X001546Y001943*
X001646Y001927D02*
X00168D01*
X001663*
Y002026*
X001646Y00201*
X002477Y001826D02*
Y001743D01*
X002493Y001727*
X002526*
X002543Y001743*
Y001826*
X002643Y001727D02*
X002576D01*
X002643Y001793*
Y00181*
X002626Y001826*
X002593*
X002576Y00181*
X002676D02*
X002693Y001826D01*
X002726*
X002743Y00181*
Y001793*
X002726Y001776*
X002743Y00176*
Y001743*
X002726Y001727*
X002693*
X002676Y001743*
Y00176*
X002693Y001776*
X002676Y001793*
Y00181*
X002693Y001776D02*
X002726D01*
X016624Y002799D02*
Y002716D01*
X016641Y002699*
X016674*
X016691Y002716*
Y002799*
X016791Y002699D02*
X016724D01*
X016791Y002766*
Y002782*
X016774Y002799*
X016741*
X016724Y002782*
X016824Y002799D02*
X016891D01*
Y002782*
X016824Y002716*
Y002699*
X016024Y002799D02*
Y002716D01*
X016041Y002699*
X016074*
X016091Y002716*
Y002799*
X016191Y002699D02*
X016124D01*
X016191Y002766*
Y002782*
X016174Y002799*
X016141*
X016124Y002782*
X016291Y002799D02*
X016257Y002782D01*
X016224Y002749*
Y002716*
X016241Y002699*
X016274*
X016291Y002716*
Y002732*
X016274Y002749*
X016224*
X015424Y002799D02*
Y002716D01*
X015441Y002699*
X015474*
X015491Y002716*
Y002799*
X015591Y002699D02*
X015524D01*
X015591Y002766*
Y002782*
X015574Y002799*
X015541*
X015524Y002782*
X015691Y002799D02*
X015624D01*
Y002749*
X015657Y002766*
X015674*
X015691Y002749*
Y002716*
X015674Y002699*
X015641*
X015624Y002716*
X014824Y002799D02*
Y002716D01*
X014841Y002699*
X014874*
X014891Y002716*
Y002799*
X014991Y002699D02*
X014924D01*
X014991Y002766*
Y002782*
X014974Y002799*
X014941*
X014924Y002782*
X015074Y002699D02*
Y002799D01*
X015024Y002749*
X015091*
X013599Y004499D02*
Y004416D01*
X013616Y004399*
X013649*
X013666Y004416*
Y004499*
X013699Y004399D02*
X013732D01*
X013716*
Y004499*
X013699Y004482*
X013849Y004499D02*
X013816Y004482D01*
X013782Y004449*
Y004416*
X013799Y004399*
X013832*
X013849Y004416*
Y004432*
X013832Y004449*
X013782*
X012224Y002799D02*
Y002716D01*
X012241Y002699*
X012274*
X012291Y002716*
Y002799*
X012324Y002699D02*
X012357D01*
X012341*
Y002799*
X012324Y002782*
X012407Y002699D02*
X012441D01*
X012424*
Y002799*
X012407Y002782*
X011624Y00281D02*
Y002727D01*
X01164Y00271*
X011674*
X01169Y002727*
Y00281*
X011724Y00271D02*
X011757D01*
X01174*
Y00281*
X011724Y002794*
X011807D02*
X011824Y00281D01*
X011857*
X011874Y002794*
Y002727*
X011857Y00271*
X011824*
X011807Y002727*
Y002794*
X011024Y002799D02*
Y002716D01*
X011041Y002699*
X011074*
X011091Y002716*
Y002799*
X011124Y002716D02*
X011141Y002699D01*
X011174*
X011191Y002716*
Y002782*
X011174Y002799*
X011141*
X011124Y002782*
Y002766*
X011141Y002749*
X011191*
X010424Y002799D02*
Y002716D01*
X010441Y002699*
X010474*
X010491Y002716*
Y002799*
X010524Y002782D02*
X010541Y002799D01*
X010574*
X010591Y002782*
Y002766*
X010574Y002749*
X010591Y002732*
Y002716*
X010574Y002699*
X010541*
X010524Y002716*
Y002732*
X010541Y002749*
X010524Y002766*
Y002782*
X010541Y002749D02*
X010574D01*
X005729Y003984D02*
Y003901D01*
X005746Y003884*
X005779*
X005796Y003901*
Y003984*
X005829D02*
X005896D01*
Y003967*
X005829Y003901*
Y003884*
X007999Y003124D02*
Y003041D01*
X008016Y003024*
X008049*
X008066Y003041*
Y003124*
X008166D02*
X008099D01*
Y003074*
X008132Y003091*
X008149*
X008166Y003074*
Y003041*
X008149Y003024*
X008116*
X008099Y003041*
X000997Y003469D02*
Y003386D01*
X001013Y003369*
X001046*
X001063Y003386*
Y003469*
X001146Y003369D02*
Y003469D01*
X001096Y003419*
X001163*
X009206Y005801D02*
Y005718D01*
X009223Y005702*
X009256*
X009273Y005718*
Y005801*
X009306Y005785D02*
X009323Y005801D01*
X009356*
X009373Y005785*
Y005768*
X009356Y005751*
X00934*
X009356*
X009373Y005735*
Y005718*
X009356Y005702*
X009323*
X009306Y005718*
X010792Y003706D02*
Y003623D01*
X010808Y003607*
X010841*
X010858Y003623*
Y003706*
X010958Y003607D02*
X010891D01*
X010958Y003673*
Y00369*
X010941Y003706*
X010908*
X010891Y00369*
X004227Y005906D02*
Y005823D01*
X004243Y005807*
X004276*
X004293Y005823*
Y005906*
X004326Y005807D02*
X00436D01*
X004343*
Y005906*
X004326Y00589*
X001366Y000482D02*
X001349Y000499D01*
X001316*
X001299Y000482*
Y000466*
X001316Y000449*
X001349*
X001366Y000432*
Y000416*
X001349Y000399*
X001316*
X001299Y000416*
X001466Y000399D02*
X001399D01*
X001466Y000466*
Y000482*
X001449Y000499*
X001416*
X001399Y000482*
X006011Y000047D02*
X005994Y000064D01*
X005961*
X005944Y000047*
Y000031*
X005961Y000014*
X005994*
X006011Y-000001*
Y-000017*
X005994Y-000034*
X005961*
X005944Y-000017*
X006044Y-000034D02*
X006077D01*
X006061*
Y000064*
X006044Y000047*
X002199Y002542D02*
Y002641D01*
X002249*
X002266Y002625*
Y002591*
X002249Y002575*
X002199*
X002232D02*
X002266Y002542D01*
X002366Y002641D02*
X002299D01*
Y002591*
X002332Y002608*
X002349*
X002366Y002591*
Y002558*
X002349Y002542*
X002316*
X002299Y002558*
X002466Y002641D02*
X002399D01*
Y002591*
X002432Y002608*
X002449*
X002466Y002591*
Y002558*
X002449Y002542*
X002416*
X002399Y002558*
X002454Y001057D02*
Y001156D01*
X002504*
X002521Y00114*
Y001106*
X002504Y00109*
X002454*
X002487D02*
X002521Y001057D01*
X002621Y001156D02*
X002554D01*
Y001106*
X002587Y001123*
X002604*
X002621Y001106*
Y001073*
X002604Y001057*
X002571*
X002554Y001073*
X002704Y001057D02*
Y001156D01*
X002654Y001106*
X002721*
X002459Y000839D02*
Y000939D01*
X002509*
X002526Y000922*
Y000889*
X002509Y000872*
X002459*
X002492D02*
X002526Y000839D01*
X002626Y000939D02*
X002559D01*
Y000889*
X002592Y000906*
X002609*
X002626Y000889*
Y000856*
X002609Y000839*
X002576*
X002559Y000856*
X002726Y000839D02*
X002659D01*
X002726Y000906*
Y000922*
X002709Y000939*
X002676*
X002659Y000922*
X009534Y000554D02*
X009434D01*
Y000604*
X009451Y000621*
X009484*
X009501Y000604*
Y000554*
Y000587D02*
X009534Y000621D01*
X009451Y000654D02*
X009434Y000671D01*
Y000704*
X009451Y000721*
X009467*
X009484Y000704*
Y000687*
Y000704*
X009501Y000721*
X009517*
X009534Y000704*
Y000671*
X009517Y000654*
X009534Y000821D02*
Y000754D01*
X009467Y000821*
X009451*
X009434Y000804*
Y000771*
X009451Y000754*
X008604Y003741D02*
Y003841D01*
X008654*
X008671Y003825*
Y003791*
X008654Y003775*
X008604*
X008637D02*
X008671Y003741D01*
X008754D02*
Y003841D01*
X008704Y003791*
X008771*
X003899Y003824D02*
X003799D01*
Y003874*
X003816Y003891*
X003849*
X003866Y003874*
Y003824*
Y003857D02*
X003899Y003891D01*
Y003991D02*
Y003924D01*
X003832Y003991*
X003816*
X003799Y003974*
Y003941*
X003816Y003924*
X000499Y003849D02*
Y003949D01*
X000549*
X000566Y003932*
Y003899*
X000549Y003882*
X000499*
X000599Y003849D02*
X000632D01*
X000616*
Y003949*
X000599Y003932*
X002307Y004541D02*
Y004441D01*
X002373*
X002406D02*
X00244D01*
X002423*
Y004541*
X002406Y004525*
X008153Y006884D02*
X008087D01*
Y006834*
X00812*
X008087*
Y006784*
X008236D02*
Y006884D01*
X008186Y006834*
X008253*
X007253Y006884D02*
X007187D01*
Y006834*
X00722*
X007187*
Y006784*
X007286Y006867D02*
X007303Y006884D01*
X007336*
X007353Y006867*
Y006851*
X007336Y006834*
X00732*
X007336*
X007353Y006817*
Y006801*
X007336Y006784*
X007303*
X007286Y006801*
X009053Y006884D02*
X008987D01*
Y006834*
X00902*
X008987*
Y006784*
X009153D02*
X009086D01*
X009153Y006851*
Y006867*
X009136Y006884*
X009103*
X009086Y006867*
X006378Y006884D02*
X006312D01*
Y006834*
X006345*
X006312*
Y006784*
X006411D02*
X006445D01*
X006428*
Y006884*
X006411Y006867*
X002549Y000099D02*
Y0D01*
X002599*
X002616Y000016*
Y000082*
X002599Y000099*
X002549*
X002716Y000082D02*
X002699Y000099D01*
X002667*
X002649Y000082*
Y000066*
X002667Y000049*
X002699*
X002716Y000032*
Y000016*
X002699Y0*
X002667*
X002649Y000016*
X002749Y000082D02*
X002766Y000099D01*
X002799*
X002816Y000082*
Y000066*
X002799Y000049*
X002782*
X002799*
X002816Y000032*
Y000016*
X002799Y0*
X002766*
X002749Y000016*
X002549Y-000149D02*
Y-000249D01*
X002599*
X002616Y-000232*
Y-000166*
X002599Y-000149*
X002549*
X002716Y-000166D02*
X002699Y-000149D01*
X002667*
X002649Y-000166*
Y-000182*
X002667Y-000199*
X002699*
X002716Y-000216*
Y-000232*
X002699Y-000249*
X002667*
X002649Y-000232*
X002816Y-000249D02*
X002749D01*
X002816Y-000182*
Y-000166*
X002799Y-000149*
X002766*
X002749Y-000166*
X009262Y-000409D02*
X009361D01*
Y-000359*
X009345Y-000342*
X009278*
X009262Y-000359*
Y-000409*
X009278Y-000242D02*
X009262Y-000259D01*
Y-000292*
X009278Y-000309*
X009295*
X009312Y-000292*
Y-000259*
X009328Y-000242*
X009345*
X009361Y-000259*
Y-000292*
X009345Y-000309*
X009361Y-000209D02*
Y-000176D01*
Y-000192*
X009262*
X009278Y-000209*
X004194Y001631D02*
Y001531D01*
X004244*
X004261Y001548*
Y001615*
X004244Y001631*
X004194*
X004294Y001615D02*
X004311Y001631D01*
X004344*
X004361Y001615*
Y001598*
X004344Y001581*
X004361Y001565*
Y001548*
X004344Y001531*
X004311*
X004294Y001548*
Y001565*
X004311Y001581*
X004294Y001598*
Y001615*
X004311Y001581D02*
X004344D01*
X003224Y001419D02*
X003324D01*
Y001469*
X003307Y001486*
X003241*
X003224Y001469*
Y001419*
Y001519D02*
Y001586D01*
X003241*
X003307Y001519*
X003324*
X000849Y006149D02*
Y006049D01*
X000899*
X000916Y006066*
Y006132*
X000899Y006149*
X000849*
X000949Y006132D02*
X000966Y006149D01*
X000999*
X001016Y006132*
Y006116*
X000999Y006099*
X000982*
X000999*
X001016Y006082*
Y006066*
X000999Y006049*
X000966*
X000949Y006066*
X000849Y005149D02*
Y005049D01*
X000899*
X000916Y005066*
Y005132*
X000899Y005149*
X000849*
X001016Y005049D02*
X000949D01*
X001016Y005116*
Y005132*
X000999Y005149*
X000966*
X000949Y005132*
X001257Y004964D02*
X001357D01*
Y005014*
X00134Y005031*
X001273*
X001257Y005014*
Y004964*
X001357Y005064D02*
Y005097D01*
Y005081*
X001257*
X001273Y005064*
X001903Y001665D02*
X001886Y001681D01*
X001853*
X001837Y001665*
Y001598*
X001853Y001582*
X001886*
X001903Y001598*
X001986Y001582D02*
Y001681D01*
X001936Y001631*
X002003*
X002036Y001681D02*
X002103D01*
Y001665*
X002036Y001598*
Y001582*
X012188Y003382D02*
X012171Y003399D01*
X012138*
X012121Y003382*
Y003316*
X012138Y003299*
X012171*
X012188Y003316*
X012271Y003299D02*
Y003399D01*
X012221Y003349*
X012288*
X012371Y003299D02*
Y003399D01*
X012321Y003349*
X012388*
X012643Y004097D02*
X012626Y004114D01*
X012593*
X012577Y004097*
Y004031*
X012593Y004014*
X012626*
X012643Y004031*
X012726Y004014D02*
Y004114D01*
X012676Y004064*
X012743*
X012776Y004097D02*
X012793Y004114D01*
X012827*
X012843Y004097*
Y004081*
X012827Y004064*
X01281*
X012827*
X012843Y004047*
Y004031*
X012827Y004014*
X012793*
X012776Y004031*
X012861Y005165D02*
X012844Y005181D01*
X012811*
X012794Y005165*
Y005098*
X012811Y005082*
X012844*
X012861Y005098*
X012944Y005082D02*
Y005181D01*
X012894Y005131*
X012961*
X013061Y005082D02*
X012994D01*
X013061Y005148*
Y005165*
X013044Y005181*
X013011*
X012994Y005165*
X014071Y003258D02*
X014054Y003241D01*
Y003208*
X014071Y003191*
X014137*
X014154Y003208*
Y003241*
X014137Y003258*
X014154Y003341D02*
X014054D01*
X014104Y003291*
Y003358*
X014154Y003391D02*
Y003425D01*
Y003408*
X014054*
X014071Y003391*
X014566Y003707D02*
X014549Y003724D01*
X014516*
X014499Y003707*
Y003641*
X014516Y003624*
X014549*
X014566Y003641*
X014649Y003624D02*
Y003724D01*
X014599Y003674*
X014666*
X014699Y003707D02*
X014716Y003724D01*
X014749*
X014766Y003707*
Y003641*
X014749Y003624*
X014716*
X014699Y003641*
Y003707*
X012861Y005365D02*
X012844Y005381D01*
X012811*
X012794Y005365*
Y005298*
X012811Y005282*
X012844*
X012861Y005298*
X012894Y005365D02*
X012911Y005381D01*
X012944*
X012961Y005365*
Y005348*
X012944Y005331*
X012927*
X012944*
X012961Y005315*
Y005298*
X012944Y005282*
X012911*
X012894Y005298*
X012994D02*
X013011Y005282D01*
X013044*
X013061Y005298*
Y005365*
X013044Y005381*
X013011*
X012994Y005365*
Y005348*
X013011Y005331*
X013061*
X011611Y003385D02*
X011594Y003401D01*
X011561*
X011544Y003385*
Y003318*
X011561Y003302*
X011594*
X011611Y003318*
X011644D02*
X011661Y003302D01*
X011694*
X011711Y003318*
Y003385*
X011694Y003401*
X011661*
X011644Y003385*
Y003368*
X011661Y003351*
X011711*
X010196Y004177D02*
X010179Y004194D01*
X010146*
X010129Y004177*
Y004111*
X010146Y004094*
X010179*
X010196Y004111*
X010229Y004177D02*
X010246Y004194D01*
X010279*
X010296Y004177*
Y004161*
X010279Y004144*
X010296Y004127*
Y004111*
X010279Y004094*
X010246*
X010229Y004111*
Y004127*
X010246Y004144*
X010229Y004161*
Y004177*
X010246Y004144D02*
X010279D01*
X007593Y005007D02*
X007576Y005024D01*
X007543*
X007527Y005007*
Y004941*
X007543Y004924*
X007576*
X007593Y004941*
X007626Y005024D02*
X007693D01*
Y005007*
X007626Y004941*
Y004924*
X007541Y005777D02*
X007524Y005794D01*
X007491*
X007474Y005777*
Y005711*
X007491Y005694*
X007524*
X007541Y005711*
X007641Y005794D02*
X007607Y005777D01*
X007574Y005744*
Y005711*
X007591Y005694*
X007624*
X007641Y005711*
Y005727*
X007624Y005744*
X007574*
X001358Y004552D02*
X001341Y004569D01*
X001308*
X001292Y004552*
Y004486*
X001308Y004469*
X001341*
X001358Y004486*
X001441Y004469D02*
Y004569D01*
X001391Y004519*
X001458*
X003691Y006745D02*
X003674Y006761D01*
X003641*
X003624Y006745*
Y006678*
X003641Y006661*
X003674*
X003691Y006678*
X003724Y006745D02*
X003741Y006761D01*
X003774*
X003791Y006745*
Y006728*
X003774Y006711*
X003757*
X003774*
X003791Y006695*
Y006678*
X003774Y006661*
X003741*
X003724Y006678*
X001282Y005449D02*
X001381D01*
Y005499*
X001365Y005516*
X001298*
X001282Y005499*
Y005449*
X001381Y005549D02*
Y005582D01*
Y005566*
X001282*
X001298Y005549*
X001381Y005632D02*
X001365D01*
Y005649*
X001381*
Y005632*
Y005716D02*
Y005749D01*
Y005732*
X001282*
X001298Y005716*
X015049Y005899D02*
Y005999D01*
X015099*
X015116Y005982*
Y005949*
X015099Y005932*
X015049*
X015216Y005899D02*
X015149D01*
X015216Y005966*
Y005982*
X015199Y005999*
X015166*
X015149Y005982*
X012449Y005899D02*
Y005999D01*
X012499*
X012516Y005982*
Y005949*
X012499Y005932*
X012449*
X012549Y005982D02*
X012566Y005999D01*
X012599*
X012616Y005982*
Y005966*
X012599Y005949*
X012582*
X012599*
X012616Y005932*
Y005916*
X012599Y005899*
X012566*
X012549Y005916*
X015842Y000319D02*
X015908Y000219D01*
Y000319D02*
X015842Y000219D01*
X015941D02*
X015975D01*
X015958*
Y000319*
X015941Y000302*
X016025Y000236D02*
X016041Y000219D01*
X016075*
X016091Y000236*
Y000302*
X016075Y000319*
X016041*
X016025Y000302*
Y000286*
X016041Y000269*
X016091*
X010319Y001173D02*
X010386Y001073D01*
Y001173D02*
X010319Y001073D01*
X010486Y001157D02*
X010469Y001173D01*
X010436*
X010419Y001157*
Y00114*
X010436Y001123*
X010469*
X010486Y001107*
Y00109*
X010469Y001073*
X010436*
X010419Y00109*
X010519Y001073D02*
X010553D01*
X010536*
Y001173*
X010519Y001157*
X010603Y001073D02*
X010636D01*
X010619*
Y001173*
X010603Y001157*
X01147Y001173D02*
X011537Y001073D01*
Y001173D02*
X01147Y001073D01*
X011636Y001157D02*
X01162Y001173D01*
X011587*
X01157Y001157*
Y00114*
X011587Y001123*
X01162*
X011636Y001107*
Y00109*
X01162Y001073*
X011587*
X01157Y00109*
X01167Y001073D02*
X011703D01*
X011686*
Y001173*
X01167Y001157*
X01182Y001073D02*
X011753D01*
X01182Y00114*
Y001157*
X011803Y001173*
X01177*
X011753Y001157*
X012618Y001173D02*
X012685Y001073D01*
Y001173D02*
X012618Y001073D01*
X012785Y001157D02*
X012768Y001173D01*
X012735*
X012718Y001157*
Y00114*
X012735Y001123*
X012768*
X012785Y001107*
Y00109*
X012768Y001073*
X012735*
X012718Y00109*
X012818Y001073D02*
X012851D01*
X012835*
Y001173*
X012818Y001157*
X012901D02*
X012918Y001173D01*
X012951*
X012968Y001157*
Y00114*
X012951Y001123*
X012935*
X012951*
X012968Y001107*
Y00109*
X012951Y001073*
X012918*
X012901Y00109*
X013769Y001173D02*
X013835Y001073D01*
Y001173D02*
X013769Y001073D01*
X013935Y001157D02*
X013919Y001173D01*
X013885*
X013869Y001157*
Y00114*
X013885Y001123*
X013919*
X013935Y001107*
Y00109*
X013919Y001073*
X013885*
X013869Y00109*
X01397Y001073D02*
X014002D01*
X013985*
Y001173*
X01397Y001157*
X014102Y001073D02*
Y001173D01*
X014052Y001123*
X014118*
G54D68*
X008599Y003711D02*
X008764D01*
X008599Y003416D02*
Y003711D01*
X008764Y003416D02*
Y003711D01*
X008599Y003416D02*
X008764D01*
X008626Y003584D02*
X008737D01*
Y003544D02*
Y003584D01*
X008626Y003544D02*
X008737D01*
X008626D02*
Y003584D01*
X009409Y000524D02*
X009574D01*
X009409Y000229D02*
Y000524D01*
X009574Y000229D02*
Y000524D01*
X009409Y000229D02*
X009574D01*
X009436Y000397D02*
X009547D01*
Y000356D02*
Y000397D01*
X009436Y000356D02*
X009547D01*
X009436D02*
Y000397D01*
X002179Y002344D02*
Y002509D01*
Y002344D02*
X002474D01*
X002179Y002509D02*
X002474D01*
Y002344D02*
Y002509D01*
X002306Y002371D02*
Y002482D01*
X002347*
Y002371D02*
Y002482D01*
X002306Y002371D02*
X002347D01*
X002134Y001027D02*
Y001192D01*
Y001027D02*
X002429D01*
X002134Y001192D02*
X002429D01*
Y001027D02*
Y001192D01*
X002261Y001053D02*
Y001165D01*
X002302*
Y001053D02*
Y001165D01*
X002261Y001053D02*
X002302D01*
X002134Y000814D02*
Y000979D01*
Y000814D02*
X002429D01*
X002134Y000979D02*
X002429D01*
Y000814D02*
Y000979D01*
X002261Y000841D02*
Y000952D01*
X002302*
Y000841D02*
Y000952D01*
X002261Y000841D02*
X002302D01*
X003952Y003841D02*
Y004007D01*
Y003841D02*
X004246D01*
X003952Y004007D02*
X004246D01*
Y003841D02*
Y004007D01*
X004079Y003868D02*
Y00398D01*
X004119*
Y003868D02*
Y00398D01*
X004079Y003868D02*
X004119D01*
X002321Y000022D02*
Y000079D01*
X002279Y000052D02*
X002321Y000022D01*
X002279Y000052D02*
X002321Y000079D01*
X002276Y000019D02*
Y000082D01*
X002321Y-000226D02*
Y-000169D01*
X002279Y-000196D02*
X002321Y-000226D01*
X002279Y-000196D02*
X002321Y-000169D01*
X002276Y-000229D02*
Y-000166D01*
X009642Y-000229D02*
Y-000172D01*
X009599Y-000199D02*
X009642Y-000229D01*
X009599Y-000199D02*
X009642Y-000172D01*
X009596Y-000232D02*
Y-000169D01*
X001894Y001557D02*
X002059D01*
X001894Y001242D02*
Y001557D01*
X002059Y001242D02*
Y001557D01*
X001894Y001242D02*
X002059D01*
X012542Y003816D02*
Y003982D01*
Y003816D02*
X012856D01*
X012542Y003982D02*
X012856D01*
Y003816D02*
Y003982D01*
X013427Y005049D02*
Y005214D01*
X013112D02*
X013427D01*
X013112Y005049D02*
X013427D01*
X013112D02*
Y005214D01*
X013427Y005249D02*
Y005414D01*
X013112D02*
X013427D01*
X013112Y005249D02*
X013427D01*
X013112D02*
Y005414D01*
X007759Y004739D02*
Y004904D01*
X007444D02*
X007759D01*
X007444Y004739D02*
X007759D01*
X007444D02*
Y004904D01*
X014192Y003166D02*
X014356D01*
Y003482*
X014192Y003166D02*
Y003482D01*
X014356*
X013389Y001025D02*
X014509D01*
Y-000781D02*
Y001025D01*
X013389Y-000781D02*
Y001025D01*
Y-000781D02*
X014509D01*
X012239D02*
X013359D01*
X012239D02*
Y001025D01*
X013359Y-000781D02*
Y001025D01*
X012239D02*
X013359D01*
X011089D02*
X012209D01*
Y-000781D02*
Y001025D01*
X011089Y-000781D02*
Y001025D01*
Y-000781D02*
X012209D01*
X009939D02*
X011059D01*
X009939D02*
Y001025D01*
X011059Y-000781D02*
Y001025D01*
X009939D02*
X011059D01*
X006689D02*
X007809D01*
Y-000781D02*
Y001025D01*
X006689Y-000781D02*
Y001025D01*
Y-000781D02*
X007809D01*
X007839D02*
X008959D01*
X007839D02*
Y001025D01*
X008959Y-000781D02*
Y001025D01*
X007839D02*
X008959D01*
X004214D02*
X005534D01*
Y-000783D02*
Y001025D01*
X004214Y-000783D02*
Y001025D01*
Y-000783D02*
X005534D01*
X002862Y001025D02*
X004182D01*
Y-000783D02*
Y001025D01*
X002862Y-000783D02*
Y001025D01*
Y-000783D02*
X004182D01*
G54D69*
X014097Y006329D02*
X014138D01*
X014117*
Y006456*
X014097Y006435*
X014161Y006609D02*
X014076D01*
X014161Y006694*
Y006715*
X014139Y006736*
X014097*
X014076Y006715*
X016122Y006319D02*
X016164D01*
X016143*
Y006446*
X016122Y006425*
X016228D02*
X016249Y006446D01*
X016291*
X016312Y006425*
Y006404*
X016291Y006382*
X01627*
X016291*
X016312Y006361*
Y00634*
X016291Y006319*
X016249*
X016228Y00634*
X01612Y006579D02*
X016162D01*
X016141*
Y006706*
X01612Y006685*
X016289Y006579D02*
Y006706D01*
X016225Y006642*
X01631*
X011496Y006329D02*
X011538D01*
X011517*
Y006456*
X011496Y006435*
X011561Y006609D02*
X011476D01*
X011561Y006694*
Y006715*
X011539Y006736*
X011497*
X011476Y006715*
X013522Y006319D02*
X013564D01*
X013543*
Y006446*
X013522Y006425*
X013628D02*
X013649Y006446D01*
X013691*
X013712Y006425*
Y006404*
X013691Y006382*
X01367*
X013691*
X013712Y006361*
Y00634*
X013691Y006319*
X013649*
X013628Y00634*
X01352Y006579D02*
X013562D01*
X013541*
Y006706*
X01352Y006685*
X013689Y006579D02*
Y006706D01*
X013625Y006642*
X01371*
X000169Y001796D02*
Y001838D01*
Y001817*
X000042*
X000063Y001796*
X-000109Y001861D02*
Y001776D01*
X-000194Y001861*
X-000215*
X-000236Y001839*
Y001797*
X-000215Y001776*
X000179Y003822D02*
Y003864D01*
Y003843*
X000052*
X000073Y003822*
Y003928D02*
X000052Y003949D01*
Y003991*
X000073Y004012*
X000094*
X000116Y003991*
Y00397*
Y003991*
X000137Y004012*
X000158*
X000179Y003991*
Y003949*
X000158Y003928*
X-000079Y00382D02*
Y003862D01*
Y003841*
X-000206*
X-000185Y00382*
X-000079Y003989D02*
X-000206D01*
X-000142Y003925*
Y00401*
G54D70*
X002894Y005174D03*
G54D112*
X012311Y003911D02*
X012358Y003897D01*
X012402Y003874*
X01244Y003843*
X012439Y003844*
X012085*
X012084Y003843*
X012122Y003874*
X012166Y003897*
X012213Y003911*
X012262Y003916*
X012311Y003911*
X012098Y00385D02*
X01243D01*
X01211Y00386D02*
X012418D01*
X012123Y00387D02*
X012405D01*
X012141Y003881D02*
X012387D01*
X012161Y003891D02*
X012367D01*
X012184Y003901D02*
X012341D01*
X012214Y003911D02*
X012308D01*
X011686Y003911D02*
X011733Y003897D01*
X011777Y003874*
X011815Y003843*
X011814Y003844*
X01146*
X011459Y003843*
X011497Y003874*
X011541Y003897*
X011588Y003911*
X011637Y003916*
X011686Y003911*
X011473Y00385D02*
X011805D01*
X011485Y00386D02*
X011793D01*
X011498Y00387D02*
X01178D01*
X011516Y003881D02*
X011762D01*
X011536Y003891D02*
X011742D01*
X011559Y003901D02*
X011717D01*
X01159Y003911D02*
X011684D01*
X014826Y003183D02*
X014827Y003184D01*
X014789Y003153*
X014746Y003129*
X014698Y003115*
X014649Y00311*
X014601Y003115*
X014553Y003129*
X01451Y003153*
X014472Y003184*
X014473Y003183*
X014826*
X014589Y003119D02*
X014714D01*
X014556Y003129D02*
X014744D01*
X014538Y003139D02*
X014765D01*
X014518Y003149D02*
X014785D01*
X014505Y003159D02*
X014798D01*
X014493Y003169D02*
X01481D01*
X014483Y00318D02*
X014823D01*
X010258Y004049D02*
X010306Y004035D01*
X010349Y004011*
X010387Y00398*
X010386Y003981*
X010033*
X010032Y00398*
X01007Y004011*
X010113Y004035*
X010161Y004049*
X010209Y004054*
X010258Y004049*
X010043Y003985D02*
X01038D01*
X010055Y003995D02*
X010368D01*
X010068Y004005D02*
X010355D01*
X010083Y004015D02*
X01034D01*
X010101Y004025D02*
X010322D01*
X010116Y004036D02*
X010304D01*
X010154Y004046D02*
X010266D01*
M02*