M48
;Layer_Color=9474304
;FILE_FORMAT=4:2
METRIC,LZ
;TYPE=PLATED
T1F00S00C0.50
T2F00S00C0.80
T3F00S00C0.90
T4F00S00C1.30
T5F00S00C1.40
T6F00S00C1.50
T7F00S00C3.00
%
T01
X011812Y-000148
X01475Y00075
X019383Y000655
T02
X0122Y001438
Y001946
Y002454
Y002962
X012888
Y002454
Y001946
Y001438
X013577
Y001946
Y002454
Y002962
X014265
Y002454
Y001946
Y001438
X014954
X014954Y001946
X014954Y002454
X014954Y002962
X015642
X015642Y002454
X015642Y001946
Y001438
X016331Y001438
X016331Y001946
X016331Y002454
Y002962
X017019
Y002454
Y001946
Y001438
X017708
Y001946
Y002454
Y002962
X018396
Y002454
Y001946
Y001438
X019085
Y001946
Y002454
Y002962
X019773
X019773Y002454
X019773Y001946
X019773Y001438
X020462
Y001946
Y002454
Y002962
X02115Y002962
Y002454
X02115Y001946
X02115Y001438
T03
X011307Y000325
X011561
X011815
X012069
X012323
X012577
X012831
Y000579
X012577
X012323
X012069
X011815
X011561
X011307
X015607
X015861
X016115
X016369
X016623
X016877
X017131
Y000325
X016877
X016623
X016369
X016115
X015861
X015607
T04
X00403Y000073
Y000573
X00426Y003678
X00376
X005288
X005788
X006288
X006818
X007318
X007818
X008348Y003678
X008848
X009348
X009878
X010378
X010878
T05
X011407Y003575
X011757
X012107
X012457
X012932
X013282
X013632
X013982
X014332
X014682
X015032
X015382
X015862
X016212
X016562
X016912
X017262
X017612
X017962
X018312
X01879
X01914
X01949
X01984
X02019
X02054
X02089
X02124
T06
X00525Y00159
Y00281
X00645
X00695
X00815
X00865
Y00159
X00815
X00755Y00139
X00695Y00159
X00645
X00585Y00139
X00925
X00985Y00159
X01035
X01095Y00139
X01155Y00159
Y00281
X01035
X00985
T07
X009Y00025
X02
M30
