%FSTAX42Y42*%
%MOMM*%
%SFA1B1*%

%IPPOS*%
%ADD20C,0.200000*%
%LNpcb_monitoring_connecta10-1*%
%LPD*%
G54D20*
X-000778Y000667D02*
Y001301D01*
X-002088D02*
X-000778D01*
X-002088Y000667D02*
Y001301D01*
Y000667D02*
X-000778D01*
X-002048D02*
Y001301D01*
X-003358D02*
X-002048D01*
X-003358Y000667D02*
Y001301D01*
Y000667D02*
X-002048D01*
X-001286Y005352D02*
Y005987D01*
X-002596D02*
X-001286D01*
X-002596Y005352D02*
Y005987D01*
Y005352D02*
X-001286D01*
X-000016D02*
Y005987D01*
X-001326D02*
X-000016D01*
X-001326Y005352D02*
Y005987D01*
Y005352D02*
X-000016D01*
X-002048Y004704D02*
Y005339D01*
X-003358D02*
X-002048D01*
X-003358Y004704D02*
Y005339D01*
Y004704D02*
X-002048D01*
X-000778D02*
Y005339D01*
X-002088D02*
X-000778D01*
X-002088Y004704D02*
Y005339D01*
Y004704D02*
X-000778D01*
X-001286Y000032D02*
Y000667D01*
X-002596D02*
X-001286D01*
X-002596Y000032D02*
Y000667D01*
Y000032D02*
X-001286D01*
X-000016D02*
Y000667D01*
X-001326D02*
X-000016D01*
X-001326Y000032D02*
Y000667D01*
Y000032D02*
X-000016D01*
X-002081Y001429D02*
X-002147Y001329D01*
Y001429D02*
X-002081Y001329D01*
X-00223D02*
Y001429D01*
X-00218Y001379*
X-002247*
X-000798Y001431D02*
X-000865Y001331D01*
Y001431D02*
X-000798Y001331D01*
X-000965Y001431D02*
X-000898D01*
Y001381*
X-000931Y001398*
X-000948*
X-000965Y001381*
Y001348*
X-000948Y001331*
X-000915*
X-000898Y001348*
M02*