%FSTAX42Y42*%
%MOMM*%
%SFA1B1*%

%IPPOS*%
%ADD10C,0.499999*%
%ADD11C,0.399999*%
%ADD12C,0.299999*%
%ADD13C,0.250000*%
%ADD14R,1.499997X1.499997*%
%ADD15C,1.499997*%
%ADD16C,0.499999*%
%ADD17C,0.999998*%
%LNpcb_monitoring_connecta10-1*%
%LPD*%
G54D10*
X-000049Y005708D02*
D01*
X-000052Y005716*
X-000056Y005724*
X-00006Y005731*
X-000065Y005738*
X-00007Y005745*
X-000075Y005751*
X-000081Y005757*
X-000087Y005762*
X-000094Y005767*
X-000101Y005772*
X-000108Y005776*
X-000116Y00578*
X-000124Y005783*
X-000132Y005785*
X-00014Y005787*
X-000148Y005788*
X-000156Y005789*
X-000165Y005789*
X-000173Y005789*
X-000181Y005788*
X-000189Y005786*
X-000198Y005784*
X-000205Y005781*
X-000213Y005778*
X-000221Y005774*
X-000228Y00577*
X-000235Y005765*
X-000241Y00576*
X-000247Y005754*
X-000253Y005748*
X-000258Y005741*
X-000263Y005735*
X-000267Y005727*
X-000271Y00572*
X-000274Y005712*
X-000277Y005704*
X-000279Y005696*
X-000281Y005688*
X-000282Y00568*
X-000282Y005671*
X-000282Y005663*
X-000281Y005655*
X-00028Y005647*
X-000278Y005638*
X-000275Y00563*
X-000273Y005623*
X-000269Y005615*
X-000265Y005608*
X-00026Y005601*
X-000255Y005594*
X-00025Y005588*
X-000244Y005582*
X-000238Y005577*
X-000231Y005572*
X-000224Y005567*
X-000217Y005563*
X-000209Y005559*
X-000201Y005556*
X-000193Y005554*
X-000185Y005552*
X-000177Y005551*
X-000169Y00555*
X-00016Y00555*
X-000152Y00555*
X-000144Y005551*
X-000136Y005553*
X-000127Y005555*
X-00012Y005558*
X-000112Y005561*
X-000104Y005565*
X-000097Y005569*
X-00009Y005574*
X-000084Y005579*
X-000078Y005585*
X-000072Y005591*
X-000067Y005598*
X-000062Y005604*
X-000058Y005612*
X-000054Y005619*
X-000051Y005627*
X-000049Y00563*
Y005708D02*
D01*
X-000052Y005716*
X-000056Y005724*
X-00006Y005731*
X-000065Y005738*
X-00007Y005745*
X-000075Y005751*
X-000081Y005757*
X-000087Y005762*
X-000094Y005767*
X-000101Y005772*
X-000108Y005776*
X-000116Y00578*
X-000124Y005783*
X-000132Y005785*
X-00014Y005787*
X-000148Y005788*
X-000156Y005789*
X-000165Y005789*
X-000173Y005789*
X-000181Y005788*
X-000189Y005786*
X-000198Y005784*
X-000205Y005781*
X-000213Y005778*
X-000221Y005774*
X-000228Y00577*
X-000235Y005765*
X-000241Y00576*
X-000247Y005754*
X-000253Y005748*
X-000258Y005741*
X-000263Y005735*
X-000267Y005727*
X-000271Y00572*
X-000274Y005712*
X-000277Y005704*
X-000279Y005696*
X-000281Y005688*
X-000282Y00568*
X-000282Y005671*
X-000282Y005663*
X-000281Y005655*
X-00028Y005647*
X-000278Y005638*
X-000275Y00563*
X-000273Y005623*
X-000269Y005615*
X-000265Y005608*
X-00026Y005601*
X-000255Y005594*
X-00025Y005588*
X-000244Y005582*
X-000238Y005577*
X-000231Y005572*
X-000224Y005567*
X-000217Y005563*
X-000209Y005559*
X-000201Y005556*
X-000193Y005554*
X-000185Y005552*
X-000177Y005551*
X-000169Y00555*
X-00016Y00555*
X-000152Y00555*
X-000144Y005551*
X-000136Y005553*
X-000127Y005555*
X-00012Y005558*
X-000112Y005561*
X-000104Y005565*
X-000097Y005569*
X-00009Y005574*
X-000084Y005579*
X-000078Y005585*
X-000072Y005591*
X-000067Y005598*
X-000062Y005604*
X-000058Y005612*
X-000054Y005619*
X-000051Y005627*
X-000049Y00563*
X-000805Y005022D02*
D01*
X-000806Y005031*
X-000807Y005039*
X-000808Y005047*
X-00081Y005056*
X-000813Y005064*
X-000816Y005071*
X-00082Y005079*
X-000824Y005086*
X-000828Y005093*
X-000834Y0051*
X-000839Y005106*
X-000845Y005112*
X-000852Y005117*
X-000858Y005122*
X-000865Y005126*
X-000873Y00513*
X-000881Y005134*
X-000888Y005137*
X-000896Y005139*
X-000905Y005141*
X-000913Y005142*
X-000921Y005142*
X-00093*
X-000938Y005142*
X-000946Y005141*
X-000955Y005139*
X-000963Y005137*
X-00097Y005134*
X-000978Y00513*
X-000985Y005126*
X-000993Y005122*
X-000999Y005117*
X-001006Y005112*
X-001012Y005106*
X-001017Y0051*
X-001023Y005093*
X-001027Y005086*
X-001031Y005079*
X-001035Y005071*
X-001038Y005064*
X-001041Y005056*
X-001043Y005047*
X-001044Y005039*
X-001045Y005031*
X-001045Y005022*
X-001045Y005014*
X-001044Y005006*
X-001043Y004998*
X-001041Y004989*
X-001038Y004981*
X-001035Y004974*
X-001031Y004966*
X-001027Y004959*
X-001023Y004952*
X-001017Y004945*
X-001012Y004939*
X-001006Y004933*
X-000999Y004928*
X-000993Y004923*
X-000985Y004919*
X-000978Y004915*
X-00097Y004911*
X-000963Y004908*
X-000955Y004906*
X-000946Y004904*
X-000938Y004903*
X-00093Y004903*
X-000921*
X-000913Y004903*
X-000905Y004904*
X-000896Y004906*
X-000888Y004908*
X-000881Y004911*
X-000873Y004915*
X-000865Y004919*
X-000858Y004923*
X-000852Y004928*
X-000845Y004933*
X-000839Y004939*
X-000834Y004945*
X-000828Y004952*
X-000824Y004959*
X-00082Y004966*
X-000816Y004974*
X-000813Y004981*
X-00081Y004989*
X-000808Y004998*
X-000807Y005006*
X-000806Y005014*
X-000805Y005022*
D01*
X-000806Y005031*
X-000807Y005039*
X-000808Y005047*
X-00081Y005056*
X-000813Y005064*
X-000816Y005071*
X-00082Y005079*
X-000824Y005086*
X-000828Y005093*
X-000834Y0051*
X-000839Y005106*
X-000845Y005112*
X-000852Y005117*
X-000858Y005122*
X-000865Y005126*
X-000873Y00513*
X-000881Y005134*
X-000888Y005137*
X-000896Y005139*
X-000905Y005141*
X-000913Y005142*
X-000921Y005142*
X-00093*
X-000938Y005142*
X-000946Y005141*
X-000955Y005139*
X-000963Y005137*
X-00097Y005134*
X-000978Y00513*
X-000985Y005126*
X-000993Y005122*
X-000999Y005117*
X-001006Y005112*
X-001012Y005106*
X-001017Y0051*
X-001023Y005093*
X-001027Y005086*
X-001031Y005079*
X-001035Y005071*
X-001038Y005064*
X-001041Y005056*
X-001043Y005047*
X-001044Y005039*
X-001045Y005031*
X-001045Y005022*
X-001045Y005014*
X-001044Y005006*
X-001043Y004998*
X-001041Y004989*
X-001038Y004981*
X-001035Y004974*
X-001031Y004966*
X-001027Y004959*
X-001023Y004952*
X-001017Y004945*
X-001012Y004939*
X-001006Y004933*
X-000999Y004928*
X-000993Y004923*
X-000985Y004919*
X-000978Y004915*
X-00097Y004911*
X-000963Y004908*
X-000955Y004906*
X-000946Y004904*
X-000938Y004903*
X-00093Y004903*
X-000921*
X-000913Y004903*
X-000905Y004904*
X-000896Y004906*
X-000888Y004908*
X-000881Y004911*
X-000873Y004915*
X-000865Y004919*
X-000858Y004923*
X-000852Y004928*
X-000845Y004933*
X-000839Y004939*
X-000834Y004945*
X-000828Y004952*
X-000824Y004959*
X-00082Y004966*
X-000816Y004974*
X-000813Y004981*
X-00081Y004989*
X-000808Y004998*
X-000807Y005006*
X-000806Y005014*
X-000805Y005022*
X-000838Y002054D02*
D01*
X-00083Y002063*
X-000822Y002071*
X-000815Y002081*
X-000808Y002091*
X-000802Y002101*
X-000797Y002111*
X-000792Y002122*
X-000788Y002134*
X-000785Y002145*
X-000783Y002157*
X-000782Y002169*
X-000782Y00218*
X-000781Y002181*
Y001927D02*
D01*
X-000782Y001939*
X-000783Y001951*
X-000785Y001963*
X-000788Y001974*
X-000792Y001986*
X-000796Y001997*
X-000801Y002007*
X-000807Y002018*
X-000814Y002027*
X-000821Y002037*
X-000829Y002046*
X-000838Y002054*
X-000838Y002054*
X-000781Y002181D02*
D01*
X-000782Y002193*
X-000783Y002205*
X-000785Y002217*
X-000788Y002228*
X-000792Y00224*
X-000796Y002251*
X-000801Y002261*
X-000807Y002272*
X-000814Y002281*
X-000821Y002291*
X-000829Y0023*
X-000838Y002308*
X-000847Y002315*
X-000856Y002322*
X-000866Y002329*
X-000877Y002334*
X-000888Y002339*
X-000899Y002343*
X-00091Y002346*
X-000922Y002349*
X-000934Y002351*
X-000946Y002351*
X-000957*
X-000969Y002351*
X-000981Y002349*
X-000993Y002346*
X-001004Y002343*
X-001015Y002339*
X-001026Y002334*
X-001036Y002329*
X-001047Y002322*
X-001056Y002315*
X-001065Y002308*
X-001074Y0023*
X-001078Y002294*
Y001814D02*
D01*
X-00107Y001806*
X-001062Y001798*
X-001052Y001791*
X-001042Y001784*
X-001032Y001778*
X-001022Y001773*
X-001011Y001768*
X-000999Y001764*
X-000988Y001761*
X-000976Y001759*
X-000964Y001758*
X-000953Y001758*
X-000941Y001758*
X-000929Y001759*
X-000917Y001761*
X-000906Y001764*
X-000894Y001767*
X-000883Y001772*
X-000873Y001777*
X-000862Y001783*
X-000852Y001789*
X-000843Y001797*
X-000834Y001805*
X-000826Y001813*
X-000818Y001822*
X-000811Y001832*
X-000805Y001842*
X-000799Y001852*
X-000794Y001863*
X-00079Y001874*
X-000787Y001885*
X-000784Y001897*
X-000783Y001909*
X-000782Y001921*
X-000781Y001927*
X-001059Y005669D02*
D01*
X-00106Y005678*
X-001061Y005686*
X-001062Y005694*
X-001064Y005703*
X-001067Y005711*
X-00107Y005718*
X-001074Y005726*
X-001078Y005733*
X-001082Y00574*
X-001088Y005747*
X-001093Y005753*
X-001099Y005759*
X-001106Y005764*
X-001112Y005769*
X-001119Y005773*
X-001127Y005777*
X-001135Y005781*
X-001142Y005784*
X-00115Y005786*
X-001159Y005788*
X-001167Y005789*
X-001175Y005789*
X-001184*
X-001192Y005789*
X-0012Y005788*
X-001209Y005786*
X-001217Y005784*
X-001224Y005781*
X-001232Y005777*
X-001239Y005773*
X-001247Y005769*
X-001253Y005764*
X-00126Y005759*
X-001266Y005753*
X-001271Y005747*
X-001277Y00574*
X-001281Y005733*
X-001285Y005726*
X-001289Y005718*
X-001292Y005711*
X-001295Y005703*
X-001297Y005694*
X-001298Y005686*
X-001299Y005678*
X-001299Y005669*
X-001299Y005661*
X-001298Y005653*
X-001297Y005645*
X-001295Y005636*
X-001292Y005628*
X-001289Y005621*
X-001285Y005613*
X-001281Y005606*
X-001277Y005599*
X-001271Y005592*
X-001266Y005586*
X-00126Y00558*
X-001253Y005575*
X-001247Y00557*
X-001239Y005566*
X-001232Y005562*
X-001224Y005558*
X-001217Y005555*
X-001209Y005553*
X-0012Y005551*
X-001192Y00555*
X-001184Y00555*
X-001175*
X-001167Y00555*
X-001159Y005551*
X-00115Y005553*
X-001142Y005555*
X-001135Y005558*
X-001127Y005562*
X-001119Y005566*
X-001112Y00557*
X-001106Y005575*
X-001099Y00558*
X-001093Y005586*
X-001088Y005592*
X-001082Y005599*
X-001078Y005606*
X-001074Y005613*
X-00107Y005621*
X-001067Y005628*
X-001064Y005636*
X-001062Y005645*
X-001061Y005653*
X-00106Y005661*
X-001059Y005669*
D01*
X-00106Y005678*
X-001061Y005686*
X-001062Y005694*
X-001064Y005703*
X-001067Y005711*
X-00107Y005718*
X-001074Y005726*
X-001078Y005733*
X-001082Y00574*
X-001088Y005747*
X-001093Y005753*
X-001099Y005759*
X-001106Y005764*
X-001112Y005769*
X-001119Y005773*
X-001127Y005777*
X-001135Y005781*
X-001142Y005784*
X-00115Y005786*
X-001159Y005788*
X-001167Y005789*
X-001175Y005789*
X-001184*
X-001192Y005789*
X-0012Y005788*
X-001209Y005786*
X-001217Y005784*
X-001224Y005781*
X-001232Y005777*
X-001239Y005773*
X-001247Y005769*
X-001253Y005764*
X-00126Y005759*
X-001266Y005753*
X-001271Y005747*
X-001277Y00574*
X-001281Y005733*
X-001285Y005726*
X-001289Y005718*
X-001292Y005711*
X-001295Y005703*
X-001297Y005694*
X-001298Y005686*
X-001299Y005678*
X-001299Y005669*
X-001299Y005661*
X-001298Y005653*
X-001297Y005645*
X-001295Y005636*
X-001292Y005628*
X-001289Y005621*
X-001285Y005613*
X-001281Y005606*
X-001277Y005599*
X-001271Y005592*
X-001266Y005586*
X-00126Y00558*
X-001253Y005575*
X-001247Y00557*
X-001239Y005566*
X-001232Y005562*
X-001224Y005558*
X-001217Y005555*
X-001209Y005553*
X-0012Y005551*
X-001192Y00555*
X-001184Y00555*
X-001175*
X-001167Y00555*
X-001159Y005551*
X-00115Y005553*
X-001142Y005555*
X-001135Y005558*
X-001127Y005562*
X-001119Y005566*
X-001112Y00557*
X-001106Y005575*
X-001099Y00558*
X-001093Y005586*
X-001088Y005592*
X-001082Y005599*
X-001078Y005606*
X-001074Y005613*
X-00107Y005621*
X-001067Y005628*
X-001064Y005636*
X-001062Y005645*
X-001061Y005653*
X-00106Y005661*
X-001059Y005669*
X-001313D02*
D01*
X-001314Y005678*
X-001315Y005686*
X-001316Y005694*
X-001318Y005703*
X-001321Y005711*
X-001324Y005718*
X-001328Y005726*
X-001332Y005733*
X-001336Y00574*
X-001342Y005747*
X-001347Y005753*
X-001353Y005759*
X-00136Y005764*
X-001366Y005769*
X-001373Y005773*
X-001381Y005777*
X-001389Y005781*
X-001396Y005784*
X-001404Y005786*
X-001413Y005788*
X-001421Y005789*
X-001429Y005789*
X-001438*
X-001446Y005789*
X-001454Y005788*
X-001463Y005786*
X-001471Y005784*
X-001478Y005781*
X-001486Y005777*
X-001493Y005773*
X-001501Y005769*
X-001507Y005764*
X-001514Y005759*
X-00152Y005753*
X-001525Y005747*
X-001531Y00574*
X-001535Y005733*
X-001539Y005726*
X-001543Y005718*
X-001546Y005711*
X-001549Y005703*
X-001551Y005694*
X-001552Y005686*
X-001553Y005678*
X-001553Y005669*
X-001553Y005661*
X-001552Y005653*
X-001551Y005645*
X-001549Y005636*
X-001546Y005628*
X-001543Y005621*
X-001539Y005613*
X-001535Y005606*
X-001531Y005599*
X-001525Y005592*
X-00152Y005586*
X-001514Y00558*
X-001507Y005575*
X-001501Y00557*
X-001493Y005566*
X-001486Y005562*
X-001478Y005558*
X-001471Y005555*
X-001463Y005553*
X-001454Y005551*
X-001446Y00555*
X-001438Y00555*
X-001429*
X-001421Y00555*
X-001413Y005551*
X-001404Y005553*
X-001396Y005555*
X-001389Y005558*
X-001381Y005562*
X-001373Y005566*
X-001366Y00557*
X-00136Y005575*
X-001353Y00558*
X-001347Y005586*
X-001342Y005592*
X-001336Y005599*
X-001332Y005606*
X-001328Y005613*
X-001324Y005621*
X-001321Y005628*
X-001318Y005636*
X-001316Y005645*
X-001315Y005653*
X-001314Y005661*
X-001313Y005669*
D01*
X-001314Y005678*
X-001315Y005686*
X-001316Y005694*
X-001318Y005703*
X-001321Y005711*
X-001324Y005718*
X-001328Y005726*
X-001332Y005733*
X-001336Y00574*
X-001342Y005747*
X-001347Y005753*
X-001353Y005759*
X-00136Y005764*
X-001366Y005769*
X-001373Y005773*
X-001381Y005777*
X-001389Y005781*
X-001396Y005784*
X-001404Y005786*
X-001413Y005788*
X-001421Y005789*
X-001429Y005789*
X-001438*
X-001446Y005789*
X-001454Y005788*
X-001463Y005786*
X-001471Y005784*
X-001478Y005781*
X-001486Y005777*
X-001493Y005773*
X-001501Y005769*
X-001507Y005764*
X-001514Y005759*
X-00152Y005753*
X-001525Y005747*
X-001531Y00574*
X-001535Y005733*
X-001539Y005726*
X-001543Y005718*
X-001546Y005711*
X-001549Y005703*
X-001551Y005694*
X-001552Y005686*
X-001553Y005678*
X-001553Y005669*
X-001553Y005661*
X-001552Y005653*
X-001551Y005645*
X-001549Y005636*
X-001546Y005628*
X-001543Y005621*
X-001539Y005613*
X-001535Y005606*
X-001531Y005599*
X-001525Y005592*
X-00152Y005586*
X-001514Y00558*
X-001507Y005575*
X-001501Y00557*
X-001493Y005566*
X-001486Y005562*
X-001478Y005558*
X-001471Y005555*
X-001463Y005553*
X-001454Y005551*
X-001446Y00555*
X-001438Y00555*
X-001429*
X-001421Y00555*
X-001413Y005551*
X-001404Y005553*
X-001396Y005555*
X-001389Y005558*
X-001381Y005562*
X-001373Y005566*
X-001366Y00557*
X-00136Y005575*
X-001353Y00558*
X-001347Y005586*
X-001342Y005592*
X-001336Y005599*
X-001332Y005606*
X-001328Y005613*
X-001324Y005621*
X-001321Y005628*
X-001318Y005636*
X-001316Y005645*
X-001315Y005653*
X-001314Y005661*
X-001313Y005669*
X-001078Y002294D02*
D01*
X-001087Y002303*
X-001095Y002311*
X-001105Y002318*
X-001115Y002325*
X-001125Y002331*
X-001135Y002336*
X-001146Y002341*
X-001158Y002345*
X-001169Y002348*
X-001181Y00235*
X-001193Y002351*
X-001204Y002351*
X-001216Y002351*
X-001228Y00235*
X-00124Y002348*
X-001251Y002345*
X-001263Y002342*
X-001274Y002337*
X-001284Y002332*
X-001295Y002326*
X-001305Y00232*
X-001314Y002312*
X-001323Y002304*
X-001331Y002296*
X-001332Y002294*
X-001064Y002054D02*
D01*
X-001073Y002046*
X-001078Y00204*
Y002068D02*
D01*
X-00107Y00206*
X-001064Y002054*
X-001078Y00204D02*
D01*
X-001087Y002049*
X-001092Y002054*
D01*
X-001084Y002063*
X-001078Y002068*
X-001164Y001762D02*
D01*
X-001153Y001766*
X-001142Y00177*
X-001131Y001775*
X-001121Y00178*
X-001111Y001786*
X-001101Y001793*
X-001092Y001801*
X-001083Y001809*
X-001078Y001814*
X-001821Y005022D02*
D01*
X-001822Y005031*
X-001823Y005039*
X-001824Y005047*
X-001826Y005056*
X-001829Y005064*
X-001832Y005071*
X-001836Y005079*
X-00184Y005086*
X-001844Y005093*
X-00185Y0051*
X-001855Y005106*
X-001861Y005112*
X-001868Y005117*
X-001874Y005122*
X-001881Y005126*
X-001889Y00513*
X-001897Y005134*
X-001904Y005137*
X-001912Y005139*
X-001921Y005141*
X-001929Y005142*
X-001937Y005142*
X-001946*
X-001954Y005142*
X-001962Y005141*
X-001971Y005139*
X-001979Y005137*
X-001986Y005134*
X-001994Y00513*
X-002001Y005126*
X-002009Y005122*
X-002015Y005117*
X-002022Y005112*
X-002028Y005106*
X-002033Y0051*
X-002039Y005093*
X-002043Y005086*
X-002047Y005079*
X-002051Y005071*
X-002054Y005064*
X-002057Y005056*
X-002059Y005047*
X-00206Y005039*
X-002061Y005031*
X-002061Y005022*
X-002061Y005014*
X-00206Y005006*
X-002059Y004998*
X-002057Y004989*
X-002054Y004981*
X-002051Y004974*
X-002047Y004966*
X-002043Y004959*
X-002039Y004952*
X-002033Y004945*
X-002028Y004939*
X-002022Y004933*
X-002015Y004928*
X-002009Y004923*
X-002001Y004919*
X-001994Y004915*
X-001986Y004911*
X-001979Y004908*
X-001971Y004906*
X-001962Y004904*
X-001954Y004903*
X-001946Y004903*
X-001937*
X-001929Y004903*
X-001921Y004904*
X-001912Y004906*
X-001904Y004908*
X-001897Y004911*
X-001889Y004915*
X-001881Y004919*
X-001874Y004923*
X-001868Y004928*
X-001861Y004933*
X-001855Y004939*
X-00185Y004945*
X-001844Y004952*
X-00184Y004959*
X-001836Y004966*
X-001832Y004974*
X-001829Y004981*
X-001826Y004989*
X-001824Y004998*
X-001823Y005006*
X-001822Y005014*
X-001821Y005022*
D01*
X-001822Y005031*
X-001823Y005039*
X-001824Y005047*
X-001826Y005056*
X-001829Y005064*
X-001832Y005071*
X-001836Y005079*
X-00184Y005086*
X-001844Y005093*
X-00185Y0051*
X-001855Y005106*
X-001861Y005112*
X-001868Y005117*
X-001874Y005122*
X-001881Y005126*
X-001889Y00513*
X-001897Y005134*
X-001904Y005137*
X-001912Y005139*
X-001921Y005141*
X-001929Y005142*
X-001937Y005142*
X-001946*
X-001954Y005142*
X-001962Y005141*
X-001971Y005139*
X-001979Y005137*
X-001986Y005134*
X-001994Y00513*
X-002001Y005126*
X-002009Y005122*
X-002015Y005117*
X-002022Y005112*
X-002028Y005106*
X-002033Y0051*
X-002039Y005093*
X-002043Y005086*
X-002047Y005079*
X-002051Y005071*
X-002054Y005064*
X-002057Y005056*
X-002059Y005047*
X-00206Y005039*
X-002061Y005031*
X-002061Y005022*
X-002061Y005014*
X-00206Y005006*
X-002059Y004998*
X-002057Y004989*
X-002054Y004981*
X-002051Y004974*
X-002047Y004966*
X-002043Y004959*
X-002039Y004952*
X-002033Y004945*
X-002028Y004939*
X-002022Y004933*
X-002015Y004928*
X-002009Y004923*
X-002001Y004919*
X-001994Y004915*
X-001986Y004911*
X-001979Y004908*
X-001971Y004906*
X-001962Y004904*
X-001954Y004903*
X-001946Y004903*
X-001937*
X-001929Y004903*
X-001921Y004904*
X-001912Y004906*
X-001904Y004908*
X-001897Y004911*
X-001889Y004915*
X-001881Y004919*
X-001874Y004923*
X-001868Y004928*
X-001861Y004933*
X-001855Y004939*
X-00185Y004945*
X-001844Y004952*
X-00184Y004959*
X-001836Y004966*
X-001832Y004974*
X-001829Y004981*
X-001826Y004989*
X-001824Y004998*
X-001823Y005006*
X-001822Y005014*
X-001821Y005022*
X-001332Y002294D02*
D01*
X-001341Y002303*
X-001349Y002311*
X-001359Y002318*
X-001369Y002325*
X-001379Y002331*
X-001389Y002336*
X-0014Y002341*
X-001412Y002345*
X-001423Y002348*
X-001435Y00235*
X-001447Y002351*
X-001458Y002351*
X-00147Y002351*
X-001482Y00235*
X-001494Y002348*
X-001505Y002345*
X-001517Y002342*
X-001528Y002337*
X-001538Y002332*
X-001549Y002326*
X-001559Y00232*
X-001568Y002312*
X-001577Y002304*
X-001585Y002296*
X-001586Y002294*
D01*
X-001595Y002303*
X-001603Y002311*
X-001613Y002318*
X-001623Y002325*
X-001633Y002331*
X-001643Y002336*
X-001654Y002341*
X-001666Y002345*
X-001677Y002348*
X-001689Y00235*
X-001701Y002351*
X-001712Y002351*
X-001724Y002351*
X-001736Y00235*
X-001748Y002348*
X-001759Y002345*
X-001771Y002342*
X-001782Y002337*
X-001792Y002332*
X-001803Y002326*
X-001813Y00232*
X-001822Y002312*
X-001831Y002304*
X-001839Y002296*
X-00184Y002294*
X-001954Y001758D02*
D01*
X-001954Y00175*
X-001953Y001743*
X-001951Y001735*
X-001948Y001727*
X-001946Y00172*
X-001942Y001712*
X-001938Y001705*
X-001934Y001698*
X-001929Y001692*
X-001924Y001686*
X-00192Y001683*
X-001954Y001758D02*
D01*
X-001954Y00175*
X-001953Y001743*
X-001951Y001735*
X-001948Y001727*
X-001946Y00172*
X-001942Y001712*
X-001938Y001705*
X-001934Y001698*
X-001929Y001692*
X-001924Y001686*
X-00192Y001683*
X-000659Y001209D02*
D01*
X-00066Y001218*
X-000661Y001226*
X-000662Y001233*
X-000664Y001241*
X-000666Y001249*
X-000669Y001256*
X-000673Y001263*
X-000677Y00127*
X-000681Y001277*
X-000686Y001283*
X-000692Y001289*
X-000693Y00129*
X-000659Y001209D02*
D01*
X-00066Y001218*
X-000661Y001226*
X-000662Y001233*
X-000664Y001241*
X-000666Y001249*
X-000669Y001256*
X-000673Y001263*
X-000677Y00127*
X-000681Y001277*
X-000686Y001283*
X-000692Y001289*
X-000693Y00129*
X-000889Y001098D02*
D01*
X-000898Y001101*
X-000906Y001102*
X-000914Y001103*
X-000922Y001104*
X-000931Y001104*
X-000939Y001103*
X-000947Y001102*
X-000955Y0011*
X-000963Y001098*
X-000971Y001095*
X-000979Y001092*
X-000986Y001088*
X-000993Y001083*
X-001Y001078*
X-001002Y001076*
X-000889Y001098D02*
D01*
X-000898Y001101*
X-000906Y001102*
X-000914Y001103*
X-000922Y001104*
X-000931Y001104*
X-000939Y001103*
X-000947Y001102*
X-000955Y0011*
X-000963Y001098*
X-000971Y001095*
X-000979Y001092*
X-000986Y001088*
X-000993Y001083*
X-001Y001078*
X-001002Y001076*
X-000629Y000969D02*
D01*
X-00063Y00098*
X-000631Y00099*
X-000633Y001*
X-000635Y001009*
X-000638Y001019*
X-000642Y001028*
X-000646Y001038*
X-000652Y001046*
X-000657Y001055*
X-000659Y001057*
X-000049Y000386D02*
D01*
X-000052Y000394*
X-000056Y000402*
X-00006Y000409*
X-000064Y000416*
X-000069Y000423*
X-000074Y00043*
X-00008Y000436*
X-000086Y000441*
X-000093Y000446*
X-0001Y000451*
X-000107Y000455*
X-000115Y000459*
X-000122Y000462*
X-00013Y000465*
X-000139Y000467*
X-000147Y000468*
X-000155Y000469*
X-000163Y000469*
X-000172Y000469*
X-00018Y000468*
X-000188Y000467*
X-000196Y000465*
X-000204Y000462*
X-000212Y000459*
X-00022Y000455*
X-000227Y000451*
X-000234Y000446*
X-000241Y000441*
X-000247Y000436*
X-000253Y00043*
X-000258Y000423*
X-000263Y000417*
X-000267Y000409*
X-000271Y000402*
X-000275Y000394*
X-000277Y000387*
X-00028Y000379*
X-000282Y00037*
X-000283Y000362*
X-000283Y000354*
X-000283Y000345*
X-000283Y000337*
X-000282Y000329*
X-00028Y000321*
X-000277Y000312*
X-000275Y000305*
X-000271Y000297*
X-000267Y00029*
X-000263Y000283*
X-000258Y000276*
X-000253Y000269*
X-000247Y000263*
X-000241Y000258*
X-000234Y000253*
X-000227Y000248*
X-00022Y000244*
X-000212Y00024*
X-000205Y000237*
X-000197Y000234*
X-000188Y000232*
X-00018Y000231*
X-000172Y00023*
X-000164Y00023*
X-000155Y00023*
X-000147Y000231*
X-000139Y000232*
X-000131Y000234*
X-000123Y000237*
X-000115Y00024*
X-000107Y000244*
X-0001Y000248*
X-000093Y000253*
X-000086Y000258*
X-00008Y000263*
X-000074Y000269*
X-000069Y000276*
X-000064Y000282*
X-00006Y00029*
X-000056Y000297*
X-000052Y000305*
X-00005Y000312*
X-000049Y000312*
Y000386D02*
D01*
X-000052Y000394*
X-000056Y000402*
X-00006Y000409*
X-000064Y000416*
X-000069Y000423*
X-000074Y00043*
X-00008Y000436*
X-000086Y000441*
X-000093Y000446*
X-0001Y000451*
X-000107Y000455*
X-000115Y000459*
X-000122Y000462*
X-00013Y000465*
X-000139Y000467*
X-000147Y000468*
X-000155Y000469*
X-000163Y000469*
X-000172Y000469*
X-00018Y000468*
X-000188Y000467*
X-000196Y000465*
X-000204Y000462*
X-000212Y000459*
X-00022Y000455*
X-000227Y000451*
X-000234Y000446*
X-000241Y000441*
X-000247Y000436*
X-000253Y00043*
X-000258Y000423*
X-000263Y000417*
X-000267Y000409*
X-000271Y000402*
X-000275Y000394*
X-000277Y000387*
X-00028Y000379*
X-000282Y00037*
X-000283Y000362*
X-000283Y000354*
X-000283Y000345*
X-000283Y000337*
X-000282Y000329*
X-00028Y000321*
X-000277Y000312*
X-000275Y000305*
X-000271Y000297*
X-000267Y00029*
X-000263Y000283*
X-000258Y000276*
X-000253Y000269*
X-000247Y000263*
X-000241Y000258*
X-000234Y000253*
X-000227Y000248*
X-00022Y000244*
X-000212Y00024*
X-000205Y000237*
X-000197Y000234*
X-000188Y000232*
X-00018Y000231*
X-000172Y00023*
X-000164Y00023*
X-000155Y00023*
X-000147Y000231*
X-000139Y000232*
X-000131Y000234*
X-000123Y000237*
X-000115Y00024*
X-000107Y000244*
X-0001Y000248*
X-000093Y000253*
X-000086Y000258*
X-00008Y000263*
X-000074Y000269*
X-000069Y000276*
X-000064Y000282*
X-00006Y00029*
X-000056Y000297*
X-000052Y000305*
X-00005Y000312*
X-000049Y000312*
X-000882Y000872D02*
D01*
X-000875Y000865*
X-000868Y000858*
X-00086Y000852*
X-000852Y000846*
X-000843Y000841*
X-000834Y000837*
X-000824Y000833*
X-000815Y00083*
X-000805Y000828*
X-000795Y000826*
X-000785Y000825*
X-000775Y000824*
X-000765Y000825*
X-000754Y000826*
X-000744Y000827*
X-000735Y00083*
X-000725Y000833*
X-000716Y000837*
X-000707Y000841*
X-000698Y000846*
X-000689Y000852*
X-000681Y000858*
X-000674Y000865*
X-000667Y000872*
X-00066Y00088*
X-000654Y000888*
X-000649Y000897*
X-000644Y000906*
X-00064Y000915*
X-000636Y000924*
X-000634Y000934*
X-000632Y000944*
X-00063Y000954*
X-000629Y000964*
X-000629Y000969*
X-000996Y000889D02*
D01*
X-00099Y000884*
X-000982Y00088*
X-000975Y000876*
X-000967Y000873*
X-000959Y00087*
X-000951Y000868*
X-000943Y000866*
X-000935Y000865*
X-000927Y000865*
X-000918Y000865*
X-00091Y000866*
X-000902Y000867*
X-000894Y000869*
X-000886Y000872*
X-000882Y000872*
X-000996Y000889D02*
D01*
X-00099Y000884*
X-000982Y00088*
X-000975Y000876*
X-000967Y000873*
X-000959Y00087*
X-000951Y000868*
X-000943Y000866*
X-000935Y000865*
X-000927Y000865*
X-000918Y000865*
X-00091Y000866*
X-000902Y000867*
X-000894Y000869*
X-000886Y000872*
X-000882Y000872*
X-001212Y000859D02*
D01*
X-001205Y000853*
X-001196Y000847*
X-001188Y000842*
X-001178Y000838*
X-001169Y000834*
X-00116Y00083*
X-00115Y000828*
X-00114Y000826*
X-00113Y000825*
X-00112Y000824*
X-001109Y000824*
X-001099Y000825*
X-001089Y000827*
X-001079Y000829*
X-00107Y000832*
X-00106Y000836*
X-001051Y00084*
X-001042Y000845*
X-001034Y000851*
X-001026Y000857*
X-001018Y000864*
X-001011Y000871*
X-001004Y000878*
X-000998Y000887*
X-000996Y000889*
X-001422Y001057D02*
D01*
X-001428Y001049*
X-001434Y001041*
X-001438Y001032*
X-001442Y001022*
X-001446Y001013*
X-001448Y001003*
X-00145Y000993*
X-001452Y000983*
X-001452Y000973*
X-001452Y000963*
X-001451Y000953*
X-00145Y000943*
X-001448Y000933*
X-001445Y000923*
X-001441Y000914*
X-001437Y000905*
X-001432Y000896*
X-001427Y000887*
X-001421Y000879*
X-001414Y000872*
X-001407Y000864*
X-001399Y000858*
X-001391Y000851*
X-001383Y000846*
X-001374Y000841*
X-001365Y000837*
X-001356Y000833*
X-001346Y00083*
X-001336Y000828*
X-001326Y000826*
X-001316Y000825*
X-001306Y000825*
X-001296Y000825*
X-001286Y000826*
X-001276Y000828*
X-001266Y000831*
X-001257Y000834*
X-001247Y000838*
X-001238Y000842*
X-00123Y000847*
X-001221Y000853*
X-001213Y00086*
X-001212Y000859*
X-001821Y000984D02*
D01*
X-001822Y000993*
X-001823Y001001*
X-001824Y001009*
X-001826Y001018*
X-001829Y001026*
X-001832Y001033*
X-001836Y001041*
X-00184Y001048*
X-001844Y001055*
X-00185Y001062*
X-001855Y001068*
X-001861Y001074*
X-001868Y001079*
X-001874Y001084*
X-001881Y001088*
X-001889Y001092*
X-001897Y001096*
X-001904Y001099*
X-001912Y001101*
X-001921Y001103*
X-001929Y001104*
X-001937Y001104*
X-001946*
X-001954Y001104*
X-001962Y001103*
X-001971Y001101*
X-001979Y001099*
X-001986Y001096*
X-001994Y001092*
X-002001Y001088*
X-002009Y001084*
X-002015Y001079*
X-002022Y001074*
X-002028Y001068*
X-002033Y001062*
X-002039Y001055*
X-002043Y001048*
X-002047Y001041*
X-002051Y001033*
X-002054Y001026*
X-002057Y001018*
X-002059Y001009*
X-00206Y001001*
X-002061Y000993*
X-002061Y000984*
X-002061Y000976*
X-00206Y000968*
X-002059Y00096*
X-002057Y000951*
X-002054Y000943*
X-002051Y000936*
X-002047Y000928*
X-002043Y000921*
X-002039Y000914*
X-002033Y000907*
X-002028Y000901*
X-002022Y000895*
X-002015Y00089*
X-002009Y000885*
X-002001Y000881*
X-001994Y000877*
X-001986Y000873*
X-001979Y00087*
X-001971Y000868*
X-001962Y000866*
X-001954Y000865*
X-001946Y000865*
X-001937*
X-001929Y000865*
X-001921Y000866*
X-001912Y000868*
X-001904Y00087*
X-001897Y000873*
X-001889Y000877*
X-001881Y000881*
X-001874Y000885*
X-001868Y00089*
X-001861Y000895*
X-001855Y000901*
X-00185Y000907*
X-001844Y000914*
X-00184Y000921*
X-001836Y000928*
X-001832Y000936*
X-001829Y000943*
X-001826Y000951*
X-001824Y00096*
X-001823Y000968*
X-001822Y000976*
X-001821Y000984*
D01*
X-001822Y000993*
X-001823Y001001*
X-001824Y001009*
X-001826Y001018*
X-001829Y001026*
X-001832Y001033*
X-001836Y001041*
X-00184Y001048*
X-001844Y001055*
X-00185Y001062*
X-001855Y001068*
X-001861Y001074*
X-001868Y001079*
X-001874Y001084*
X-001881Y001088*
X-001889Y001092*
X-001897Y001096*
X-001904Y001099*
X-001912Y001101*
X-001921Y001103*
X-001929Y001104*
X-001937Y001104*
X-001946*
X-001954Y001104*
X-001962Y001103*
X-001971Y001101*
X-001979Y001099*
X-001986Y001096*
X-001994Y001092*
X-002001Y001088*
X-002009Y001084*
X-002015Y001079*
X-002022Y001074*
X-002028Y001068*
X-002033Y001062*
X-002039Y001055*
X-002043Y001048*
X-002047Y001041*
X-002051Y001033*
X-002054Y001026*
X-002057Y001018*
X-002059Y001009*
X-00206Y001001*
X-002061Y000993*
X-002061Y000984*
X-002061Y000976*
X-00206Y000968*
X-002059Y00096*
X-002057Y000951*
X-002054Y000943*
X-002051Y000936*
X-002047Y000928*
X-002043Y000921*
X-002039Y000914*
X-002033Y000907*
X-002028Y000901*
X-002022Y000895*
X-002015Y00089*
X-002009Y000885*
X-002001Y000881*
X-001994Y000877*
X-001986Y000873*
X-001979Y00087*
X-001971Y000868*
X-001962Y000866*
X-001954Y000865*
X-001946Y000865*
X-001937*
X-001929Y000865*
X-001921Y000866*
X-001912Y000868*
X-001904Y00087*
X-001897Y000873*
X-001889Y000877*
X-001881Y000881*
X-001874Y000885*
X-001868Y00089*
X-001861Y000895*
X-001855Y000901*
X-00185Y000907*
X-001844Y000914*
X-00184Y000921*
X-001836Y000928*
X-001832Y000936*
X-001829Y000943*
X-001826Y000951*
X-001824Y00096*
X-001823Y000968*
X-001822Y000976*
X-001821Y000984*
X-001059Y000349D02*
D01*
X-00106Y000358*
X-001061Y000366*
X-001062Y000374*
X-001064Y000383*
X-001067Y000391*
X-00107Y000398*
X-001074Y000406*
X-001078Y000413*
X-001082Y00042*
X-001088Y000427*
X-001093Y000433*
X-001099Y000439*
X-001106Y000444*
X-001112Y000449*
X-001119Y000453*
X-001127Y000457*
X-001135Y000461*
X-001142Y000464*
X-00115Y000466*
X-001159Y000468*
X-001167Y000469*
X-001175Y000469*
X-001184*
X-001192Y000469*
X-0012Y000468*
X-001209Y000466*
X-001217Y000464*
X-001224Y000461*
X-001232Y000457*
X-001239Y000453*
X-001247Y000449*
X-001253Y000444*
X-00126Y000439*
X-001266Y000433*
X-001271Y000427*
X-001277Y00042*
X-001281Y000413*
X-001285Y000406*
X-001289Y000398*
X-001292Y000391*
X-001295Y000383*
X-001297Y000374*
X-001298Y000366*
X-001299Y000358*
X-001299Y000349*
X-001299Y000341*
X-001298Y000333*
X-001297Y000325*
X-001295Y000316*
X-001292Y000308*
X-001289Y000301*
X-001285Y000293*
X-001281Y000286*
X-001277Y000279*
X-001271Y000272*
X-001266Y000266*
X-00126Y00026*
X-001253Y000255*
X-001247Y00025*
X-001239Y000246*
X-001232Y000242*
X-001224Y000238*
X-001217Y000235*
X-001209Y000233*
X-0012Y000231*
X-001192Y00023*
X-001184Y00023*
X-001175*
X-001167Y00023*
X-001159Y000231*
X-00115Y000233*
X-001142Y000235*
X-001135Y000238*
X-001127Y000242*
X-001119Y000246*
X-001112Y00025*
X-001106Y000255*
X-001099Y00026*
X-001093Y000266*
X-001088Y000272*
X-001082Y000279*
X-001078Y000286*
X-001074Y000293*
X-00107Y000301*
X-001067Y000308*
X-001064Y000316*
X-001062Y000325*
X-001061Y000333*
X-00106Y000341*
X-001059Y000349*
D01*
X-00106Y000358*
X-001061Y000366*
X-001062Y000374*
X-001064Y000383*
X-001067Y000391*
X-00107Y000398*
X-001074Y000406*
X-001078Y000413*
X-001082Y00042*
X-001088Y000427*
X-001093Y000433*
X-001099Y000439*
X-001106Y000444*
X-001112Y000449*
X-001119Y000453*
X-001127Y000457*
X-001135Y000461*
X-001142Y000464*
X-00115Y000466*
X-001159Y000468*
X-001167Y000469*
X-001175Y000469*
X-001184*
X-001192Y000469*
X-0012Y000468*
X-001209Y000466*
X-001217Y000464*
X-001224Y000461*
X-001232Y000457*
X-001239Y000453*
X-001247Y000449*
X-001253Y000444*
X-00126Y000439*
X-001266Y000433*
X-001271Y000427*
X-001277Y00042*
X-001281Y000413*
X-001285Y000406*
X-001289Y000398*
X-001292Y000391*
X-001295Y000383*
X-001297Y000374*
X-001298Y000366*
X-001299Y000358*
X-001299Y000349*
X-001299Y000341*
X-001298Y000333*
X-001297Y000325*
X-001295Y000316*
X-001292Y000308*
X-001289Y000301*
X-001285Y000293*
X-001281Y000286*
X-001277Y000279*
X-001271Y000272*
X-001266Y000266*
X-00126Y00026*
X-001253Y000255*
X-001247Y00025*
X-001239Y000246*
X-001232Y000242*
X-001224Y000238*
X-001217Y000235*
X-001209Y000233*
X-0012Y000231*
X-001192Y00023*
X-001184Y00023*
X-001175*
X-001167Y00023*
X-001159Y000231*
X-00115Y000233*
X-001142Y000235*
X-001135Y000238*
X-001127Y000242*
X-001119Y000246*
X-001112Y00025*
X-001106Y000255*
X-001099Y00026*
X-001093Y000266*
X-001088Y000272*
X-001082Y000279*
X-001078Y000286*
X-001074Y000293*
X-00107Y000301*
X-001067Y000308*
X-001064Y000316*
X-001062Y000325*
X-001061Y000333*
X-00106Y000341*
X-001059Y000349*
X-001313D02*
D01*
X-001314Y000358*
X-001315Y000366*
X-001316Y000374*
X-001318Y000383*
X-001321Y000391*
X-001324Y000398*
X-001328Y000406*
X-001332Y000413*
X-001336Y00042*
X-001342Y000427*
X-001347Y000433*
X-001353Y000439*
X-00136Y000444*
X-001366Y000449*
X-001373Y000453*
X-001381Y000457*
X-001389Y000461*
X-001396Y000464*
X-001404Y000466*
X-001413Y000468*
X-001421Y000469*
X-001429Y000469*
X-001438*
X-001446Y000469*
X-001454Y000468*
X-001463Y000466*
X-001471Y000464*
X-001478Y000461*
X-001486Y000457*
X-001493Y000453*
X-001501Y000449*
X-001507Y000444*
X-001514Y000439*
X-00152Y000433*
X-001525Y000427*
X-001531Y00042*
X-001535Y000413*
X-001539Y000406*
X-001543Y000398*
X-001546Y000391*
X-001549Y000383*
X-001551Y000374*
X-001552Y000366*
X-001553Y000358*
X-001553Y000349*
X-001553Y000341*
X-001552Y000333*
X-001551Y000325*
X-001549Y000316*
X-001546Y000308*
X-001543Y000301*
X-001539Y000293*
X-001535Y000286*
X-001531Y000279*
X-001525Y000272*
X-00152Y000266*
X-001514Y00026*
X-001507Y000255*
X-001501Y00025*
X-001493Y000246*
X-001486Y000242*
X-001478Y000238*
X-001471Y000235*
X-001463Y000233*
X-001454Y000231*
X-001446Y00023*
X-001438Y00023*
X-001429*
X-001421Y00023*
X-001413Y000231*
X-001404Y000233*
X-001396Y000235*
X-001389Y000238*
X-001381Y000242*
X-001373Y000246*
X-001366Y00025*
X-00136Y000255*
X-001353Y00026*
X-001347Y000266*
X-001342Y000272*
X-001336Y000279*
X-001332Y000286*
X-001328Y000293*
X-001324Y000301*
X-001321Y000308*
X-001318Y000316*
X-001316Y000325*
X-001315Y000333*
X-001314Y000341*
X-001313Y000349*
D01*
X-001314Y000358*
X-001315Y000366*
X-001316Y000374*
X-001318Y000383*
X-001321Y000391*
X-001324Y000398*
X-001328Y000406*
X-001332Y000413*
X-001336Y00042*
X-001342Y000427*
X-001347Y000433*
X-001353Y000439*
X-00136Y000444*
X-001366Y000449*
X-001373Y000453*
X-001381Y000457*
X-001389Y000461*
X-001396Y000464*
X-001404Y000466*
X-001413Y000468*
X-001421Y000469*
X-001429Y000469*
X-001438*
X-001446Y000469*
X-001454Y000468*
X-001463Y000466*
X-001471Y000464*
X-001478Y000461*
X-001486Y000457*
X-001493Y000453*
X-001501Y000449*
X-001507Y000444*
X-001514Y000439*
X-00152Y000433*
X-001525Y000427*
X-001531Y00042*
X-001535Y000413*
X-001539Y000406*
X-001543Y000398*
X-001546Y000391*
X-001549Y000383*
X-001551Y000374*
X-001552Y000366*
X-001553Y000358*
X-001553Y000349*
X-001553Y000341*
X-001552Y000333*
X-001551Y000325*
X-001549Y000316*
X-001546Y000308*
X-001543Y000301*
X-001539Y000293*
X-001535Y000286*
X-001531Y000279*
X-001525Y000272*
X-00152Y000266*
X-001514Y00026*
X-001507Y000255*
X-001501Y00025*
X-001493Y000246*
X-001486Y000242*
X-001478Y000238*
X-001471Y000235*
X-001463Y000233*
X-001454Y000231*
X-001446Y00023*
X-001438Y00023*
X-001429*
X-001421Y00023*
X-001413Y000231*
X-001404Y000233*
X-001396Y000235*
X-001389Y000238*
X-001381Y000242*
X-001373Y000246*
X-001366Y00025*
X-00136Y000255*
X-001353Y00026*
X-001347Y000266*
X-001342Y000272*
X-001336Y000279*
X-001332Y000286*
X-001328Y000293*
X-001324Y000301*
X-001321Y000308*
X-001318Y000316*
X-001316Y000325*
X-001315Y000333*
X-001314Y000341*
X-001313Y000349*
X-002329Y005669D02*
D01*
X-00233Y005678*
X-002331Y005686*
X-002332Y005694*
X-002334Y005703*
X-002337Y005711*
X-00234Y005718*
X-002344Y005726*
X-002348Y005733*
X-002352Y00574*
X-002358Y005747*
X-002363Y005753*
X-002369Y005759*
X-002376Y005764*
X-002382Y005769*
X-002389Y005773*
X-002397Y005777*
X-002405Y005781*
X-002412Y005784*
X-00242Y005786*
X-002429Y005788*
X-002437Y005789*
X-002445Y005789*
X-002454*
X-002462Y005789*
X-00247Y005788*
X-002479Y005786*
X-002487Y005784*
X-002494Y005781*
X-002502Y005777*
X-002509Y005773*
X-002517Y005769*
X-002523Y005764*
X-00253Y005759*
X-002536Y005753*
X-002541Y005747*
X-002547Y00574*
X-002551Y005733*
X-002555Y005726*
X-002559Y005718*
X-002562Y005711*
X-002565Y005703*
X-002567Y005694*
X-002568Y005686*
X-002569Y005678*
X-002569Y005669*
X-002569Y005661*
X-002568Y005653*
X-002567Y005645*
X-002565Y005636*
X-002562Y005628*
X-002559Y005621*
X-002555Y005613*
X-002551Y005606*
X-002547Y005599*
X-002541Y005592*
X-002536Y005586*
X-00253Y00558*
X-002523Y005575*
X-002517Y00557*
X-002509Y005566*
X-002502Y005562*
X-002494Y005558*
X-002487Y005555*
X-002479Y005553*
X-00247Y005551*
X-002462Y00555*
X-002454Y00555*
X-002445*
X-002437Y00555*
X-002429Y005551*
X-00242Y005553*
X-002412Y005555*
X-002405Y005558*
X-002397Y005562*
X-002389Y005566*
X-002382Y00557*
X-002376Y005575*
X-002369Y00558*
X-002363Y005586*
X-002358Y005592*
X-002352Y005599*
X-002348Y005606*
X-002344Y005613*
X-00234Y005621*
X-002337Y005628*
X-002334Y005636*
X-002332Y005645*
X-002331Y005653*
X-00233Y005661*
X-002329Y005669*
D01*
X-00233Y005678*
X-002331Y005686*
X-002332Y005694*
X-002334Y005703*
X-002337Y005711*
X-00234Y005718*
X-002344Y005726*
X-002348Y005733*
X-002352Y00574*
X-002358Y005747*
X-002363Y005753*
X-002369Y005759*
X-002376Y005764*
X-002382Y005769*
X-002389Y005773*
X-002397Y005777*
X-002405Y005781*
X-002412Y005784*
X-00242Y005786*
X-002429Y005788*
X-002437Y005789*
X-002445Y005789*
X-002454*
X-002462Y005789*
X-00247Y005788*
X-002479Y005786*
X-002487Y005784*
X-002494Y005781*
X-002502Y005777*
X-002509Y005773*
X-002517Y005769*
X-002523Y005764*
X-00253Y005759*
X-002536Y005753*
X-002541Y005747*
X-002547Y00574*
X-002551Y005733*
X-002555Y005726*
X-002559Y005718*
X-002562Y005711*
X-002565Y005703*
X-002567Y005694*
X-002568Y005686*
X-002569Y005678*
X-002569Y005669*
X-002569Y005661*
X-002568Y005653*
X-002567Y005645*
X-002565Y005636*
X-002562Y005628*
X-002559Y005621*
X-002555Y005613*
X-002551Y005606*
X-002547Y005599*
X-002541Y005592*
X-002536Y005586*
X-00253Y00558*
X-002523Y005575*
X-002517Y00557*
X-002509Y005566*
X-002502Y005562*
X-002494Y005558*
X-002487Y005555*
X-002479Y005553*
X-00247Y005551*
X-002462Y00555*
X-002454Y00555*
X-002445*
X-002437Y00555*
X-002429Y005551*
X-00242Y005553*
X-002412Y005555*
X-002405Y005558*
X-002397Y005562*
X-002389Y005566*
X-002382Y00557*
X-002376Y005575*
X-002369Y00558*
X-002363Y005586*
X-002358Y005592*
X-002352Y005599*
X-002348Y005606*
X-002344Y005613*
X-00234Y005621*
X-002337Y005628*
X-002334Y005636*
X-002332Y005645*
X-002331Y005653*
X-00233Y005661*
X-002329Y005669*
X-002075Y005022D02*
D01*
X-002076Y005031*
X-002077Y005039*
X-002078Y005047*
X-00208Y005056*
X-002083Y005064*
X-002086Y005071*
X-00209Y005079*
X-002094Y005086*
X-002098Y005093*
X-002104Y0051*
X-002109Y005106*
X-002115Y005112*
X-002122Y005117*
X-002128Y005122*
X-002135Y005126*
X-002143Y00513*
X-002151Y005134*
X-002158Y005137*
X-002166Y005139*
X-002175Y005141*
X-002183Y005142*
X-002191Y005142*
X-0022*
X-002208Y005142*
X-002216Y005141*
X-002225Y005139*
X-002233Y005137*
X-00224Y005134*
X-002248Y00513*
X-002255Y005126*
X-002263Y005122*
X-002269Y005117*
X-002276Y005112*
X-002282Y005106*
X-002287Y0051*
X-002293Y005093*
X-002297Y005086*
X-002301Y005079*
X-002305Y005071*
X-002308Y005064*
X-002311Y005056*
X-002313Y005047*
X-002314Y005039*
X-002315Y005031*
X-002315Y005022*
X-002315Y005014*
X-002314Y005006*
X-002313Y004998*
X-002311Y004989*
X-002308Y004981*
X-002305Y004974*
X-002301Y004966*
X-002297Y004959*
X-002293Y004952*
X-002287Y004945*
X-002282Y004939*
X-002276Y004933*
X-002269Y004928*
X-002263Y004923*
X-002255Y004919*
X-002248Y004915*
X-00224Y004911*
X-002233Y004908*
X-002225Y004906*
X-002216Y004904*
X-002208Y004903*
X-0022Y004903*
X-002191*
X-002183Y004903*
X-002175Y004904*
X-002166Y004906*
X-002158Y004908*
X-002151Y004911*
X-002143Y004915*
X-002135Y004919*
X-002128Y004923*
X-002122Y004928*
X-002115Y004933*
X-002109Y004939*
X-002104Y004945*
X-002098Y004952*
X-002094Y004959*
X-00209Y004966*
X-002086Y004974*
X-002083Y004981*
X-00208Y004989*
X-002078Y004998*
X-002077Y005006*
X-002076Y005014*
X-002075Y005022*
D01*
X-002076Y005031*
X-002077Y005039*
X-002078Y005047*
X-00208Y005056*
X-002083Y005064*
X-002086Y005071*
X-00209Y005079*
X-002094Y005086*
X-002098Y005093*
X-002104Y0051*
X-002109Y005106*
X-002115Y005112*
X-002122Y005117*
X-002128Y005122*
X-002135Y005126*
X-002143Y00513*
X-002151Y005134*
X-002158Y005137*
X-002166Y005139*
X-002175Y005141*
X-002183Y005142*
X-002191Y005142*
X-0022*
X-002208Y005142*
X-002216Y005141*
X-002225Y005139*
X-002233Y005137*
X-00224Y005134*
X-002248Y00513*
X-002255Y005126*
X-002263Y005122*
X-002269Y005117*
X-002276Y005112*
X-002282Y005106*
X-002287Y0051*
X-002293Y005093*
X-002297Y005086*
X-002301Y005079*
X-002305Y005071*
X-002308Y005064*
X-002311Y005056*
X-002313Y005047*
X-002314Y005039*
X-002315Y005031*
X-002315Y005022*
X-002315Y005014*
X-002314Y005006*
X-002313Y004998*
X-002311Y004989*
X-002308Y004981*
X-002305Y004974*
X-002301Y004966*
X-002297Y004959*
X-002293Y004952*
X-002287Y004945*
X-002282Y004939*
X-002276Y004933*
X-002269Y004928*
X-002263Y004923*
X-002255Y004919*
X-002248Y004915*
X-00224Y004911*
X-002233Y004908*
X-002225Y004906*
X-002216Y004904*
X-002208Y004903*
X-0022Y004903*
X-002191*
X-002183Y004903*
X-002175Y004904*
X-002166Y004906*
X-002158Y004908*
X-002151Y004911*
X-002143Y004915*
X-002135Y004919*
X-002128Y004923*
X-002122Y004928*
X-002115Y004933*
X-002109Y004939*
X-002104Y004945*
X-002098Y004952*
X-002094Y004959*
X-00209Y004966*
X-002086Y004974*
X-002083Y004981*
X-00208Y004989*
X-002078Y004998*
X-002077Y005006*
X-002076Y005014*
X-002075Y005022*
X-002094Y002294D02*
D01*
X-002103Y002303*
X-002111Y002311*
X-002121Y002318*
X-002131Y002325*
X-002141Y002331*
X-002151Y002336*
X-002162Y002341*
X-002174Y002345*
X-002185Y002348*
X-002197Y00235*
X-002209Y002351*
X-00222Y002351*
X-002232Y002351*
X-002244Y00235*
X-002256Y002348*
X-002267Y002345*
X-002279Y002342*
X-00229Y002337*
X-0023Y002332*
X-002311Y002326*
X-002321Y00232*
X-00233Y002312*
X-002339Y002304*
X-002347Y002296*
X-002348Y002294*
X-00184D02*
D01*
X-001849Y002303*
X-001857Y002311*
X-001867Y002318*
X-001877Y002325*
X-001887Y002331*
X-001897Y002336*
X-001908Y002341*
X-00192Y002345*
X-001931Y002348*
X-001943Y00235*
X-001955Y002351*
X-001966Y002351*
X-001978Y002351*
X-00199Y00235*
X-002002Y002348*
X-002013Y002345*
X-002025Y002342*
X-002036Y002337*
X-002046Y002332*
X-002057Y002326*
X-002067Y00232*
X-002076Y002312*
X-002085Y002304*
X-002093Y002296*
X-002094Y002294*
X-003091Y005022D02*
D01*
X-003092Y005031*
X-003093Y005039*
X-003094Y005047*
X-003096Y005056*
X-003099Y005064*
X-003102Y005071*
X-003106Y005079*
X-00311Y005086*
X-003114Y005093*
X-00312Y0051*
X-003125Y005106*
X-003131Y005112*
X-003138Y005117*
X-003144Y005122*
X-003151Y005126*
X-003159Y00513*
X-003167Y005134*
X-003174Y005137*
X-003182Y005139*
X-003191Y005141*
X-003199Y005142*
X-003207Y005142*
X-003216*
X-003224Y005142*
X-003232Y005141*
X-003241Y005139*
X-003249Y005137*
X-003256Y005134*
X-003264Y00513*
X-003271Y005126*
X-003279Y005122*
X-003285Y005117*
X-003292Y005112*
X-003298Y005106*
X-003303Y0051*
X-003309Y005093*
X-003313Y005086*
X-003317Y005079*
X-003321Y005071*
X-003324Y005064*
X-003327Y005056*
X-003329Y005047*
X-00333Y005039*
X-003331Y005031*
X-003331Y005022*
X-003331Y005014*
X-00333Y005006*
X-003329Y004998*
X-003327Y004989*
X-003324Y004981*
X-003321Y004974*
X-003317Y004966*
X-003313Y004959*
X-003309Y004952*
X-003303Y004945*
X-003298Y004939*
X-003292Y004933*
X-003285Y004928*
X-003279Y004923*
X-003271Y004919*
X-003264Y004915*
X-003256Y004911*
X-003249Y004908*
X-003241Y004906*
X-003232Y004904*
X-003224Y004903*
X-003216Y004903*
X-003207*
X-003199Y004903*
X-003191Y004904*
X-003182Y004906*
X-003174Y004908*
X-003167Y004911*
X-003159Y004915*
X-003151Y004919*
X-003144Y004923*
X-003138Y004928*
X-003131Y004933*
X-003125Y004939*
X-00312Y004945*
X-003114Y004952*
X-00311Y004959*
X-003106Y004966*
X-003102Y004974*
X-003099Y004981*
X-003096Y004989*
X-003094Y004998*
X-003093Y005006*
X-003092Y005014*
X-003091Y005022*
D01*
X-003092Y005031*
X-003093Y005039*
X-003094Y005047*
X-003096Y005056*
X-003099Y005064*
X-003102Y005071*
X-003106Y005079*
X-00311Y005086*
X-003114Y005093*
X-00312Y0051*
X-003125Y005106*
X-003131Y005112*
X-003138Y005117*
X-003144Y005122*
X-003151Y005126*
X-003159Y00513*
X-003167Y005134*
X-003174Y005137*
X-003182Y005139*
X-003191Y005141*
X-003199Y005142*
X-003207Y005142*
X-003216*
X-003224Y005142*
X-003232Y005141*
X-003241Y005139*
X-003249Y005137*
X-003256Y005134*
X-003264Y00513*
X-003271Y005126*
X-003279Y005122*
X-003285Y005117*
X-003292Y005112*
X-003298Y005106*
X-003303Y0051*
X-003309Y005093*
X-003313Y005086*
X-003317Y005079*
X-003321Y005071*
X-003324Y005064*
X-003327Y005056*
X-003329Y005047*
X-00333Y005039*
X-003331Y005031*
X-003331Y005022*
X-003331Y005014*
X-00333Y005006*
X-003329Y004998*
X-003327Y004989*
X-003324Y004981*
X-003321Y004974*
X-003317Y004966*
X-003313Y004959*
X-003309Y004952*
X-003303Y004945*
X-003298Y004939*
X-003292Y004933*
X-003285Y004928*
X-003279Y004923*
X-003271Y004919*
X-003264Y004915*
X-003256Y004911*
X-003249Y004908*
X-003241Y004906*
X-003232Y004904*
X-003224Y004903*
X-003216Y004903*
X-003207*
X-003199Y004903*
X-003191Y004904*
X-003182Y004906*
X-003174Y004908*
X-003167Y004911*
X-003159Y004915*
X-003151Y004919*
X-003144Y004923*
X-003138Y004928*
X-003131Y004933*
X-003125Y004939*
X-00312Y004945*
X-003114Y004952*
X-00311Y004959*
X-003106Y004966*
X-003102Y004974*
X-003099Y004981*
X-003096Y004989*
X-003094Y004998*
X-003093Y005006*
X-003092Y005014*
X-003091Y005022*
X-00208Y002054D02*
D01*
X-002089Y002046*
X-002094Y00204*
Y001814D02*
D01*
X-002086Y001806*
X-002078Y001798*
X-002068Y001791*
X-002058Y001784*
X-002048Y001778*
X-002038Y001773*
X-002027Y001768*
X-002015Y001764*
X-002004Y001761*
X-001992Y001759*
X-00198Y001758*
X-001969Y001758*
X-001957Y001758*
X-001954Y001758*
X-002094Y002068D02*
D01*
X-002086Y00206*
X-00208Y002054*
X-002305Y001779D02*
D01*
X-002295Y001774*
X-002284Y001769*
X-002273Y001765*
X-002261Y001762*
X-00225Y00176*
X-002238Y001758*
X-002226Y001757*
X-002214Y001757*
X-002202Y001758*
X-002191Y00176*
X-002179Y001763*
X-002168Y001766*
X-002157Y00177*
X-002146Y001775*
X-002135Y001781*
X-002125Y001787*
X-002116Y001794*
X-002107Y001802*
X-002098Y00181*
X-002094Y001814*
X-002108Y002054D02*
D01*
X-0021Y002063*
X-002094Y002068*
Y00204D02*
D01*
X-002103Y002049*
X-002108Y002054*
X-002075Y000984D02*
D01*
X-002076Y000993*
X-002077Y001001*
X-002078Y001009*
X-00208Y001018*
X-002083Y001026*
X-002086Y001033*
X-00209Y001041*
X-002094Y001048*
X-002098Y001055*
X-002104Y001062*
X-002109Y001068*
X-002115Y001074*
X-002122Y001079*
X-002128Y001084*
X-002135Y001088*
X-002143Y001092*
X-002151Y001096*
X-002158Y001099*
X-002166Y001101*
X-002175Y001103*
X-002183Y001104*
X-002191Y001104*
X-0022*
X-002208Y001104*
X-002216Y001103*
X-002225Y001101*
X-002233Y001099*
X-00224Y001096*
X-002248Y001092*
X-002255Y001088*
X-002263Y001084*
X-002269Y001079*
X-002276Y001074*
X-002282Y001068*
X-002287Y001062*
X-002293Y001055*
X-002297Y001048*
X-002301Y001041*
X-002305Y001033*
X-002308Y001026*
X-002311Y001018*
X-002313Y001009*
X-002314Y001001*
X-002315Y000993*
X-002315Y000984*
X-002315Y000976*
X-002314Y000968*
X-002313Y00096*
X-002311Y000951*
X-002308Y000943*
X-002305Y000936*
X-002301Y000928*
X-002297Y000921*
X-002293Y000914*
X-002287Y000907*
X-002282Y000901*
X-002276Y000895*
X-002269Y00089*
X-002263Y000885*
X-002255Y000881*
X-002248Y000877*
X-00224Y000873*
X-002233Y00087*
X-002225Y000868*
X-002216Y000866*
X-002208Y000865*
X-0022Y000865*
X-002191*
X-002183Y000865*
X-002175Y000866*
X-002166Y000868*
X-002158Y00087*
X-002151Y000873*
X-002143Y000877*
X-002135Y000881*
X-002128Y000885*
X-002122Y00089*
X-002115Y000895*
X-002109Y000901*
X-002104Y000907*
X-002098Y000914*
X-002094Y000921*
X-00209Y000928*
X-002086Y000936*
X-002083Y000943*
X-00208Y000951*
X-002078Y00096*
X-002077Y000968*
X-002076Y000976*
X-002075Y000984*
D01*
X-002076Y000993*
X-002077Y001001*
X-002078Y001009*
X-00208Y001018*
X-002083Y001026*
X-002086Y001033*
X-00209Y001041*
X-002094Y001048*
X-002098Y001055*
X-002104Y001062*
X-002109Y001068*
X-002115Y001074*
X-002122Y001079*
X-002128Y001084*
X-002135Y001088*
X-002143Y001092*
X-002151Y001096*
X-002158Y001099*
X-002166Y001101*
X-002175Y001103*
X-002183Y001104*
X-002191Y001104*
X-0022*
X-002208Y001104*
X-002216Y001103*
X-002225Y001101*
X-002233Y001099*
X-00224Y001096*
X-002248Y001092*
X-002255Y001088*
X-002263Y001084*
X-002269Y001079*
X-002276Y001074*
X-002282Y001068*
X-002287Y001062*
X-002293Y001055*
X-002297Y001048*
X-002301Y001041*
X-002305Y001033*
X-002308Y001026*
X-002311Y001018*
X-002313Y001009*
X-002314Y001001*
X-002315Y000993*
X-002315Y000984*
X-002315Y000976*
X-002314Y000968*
X-002313Y00096*
X-002311Y000951*
X-002308Y000943*
X-002305Y000936*
X-002301Y000928*
X-002297Y000921*
X-002293Y000914*
X-002287Y000907*
X-002282Y000901*
X-002276Y000895*
X-002269Y00089*
X-002263Y000885*
X-002255Y000881*
X-002248Y000877*
X-00224Y000873*
X-002233Y00087*
X-002225Y000868*
X-002216Y000866*
X-002208Y000865*
X-0022Y000865*
X-002191*
X-002183Y000865*
X-002175Y000866*
X-002166Y000868*
X-002158Y00087*
X-002151Y000873*
X-002143Y000877*
X-002135Y000881*
X-002128Y000885*
X-002122Y00089*
X-002115Y000895*
X-002109Y000901*
X-002104Y000907*
X-002098Y000914*
X-002094Y000921*
X-00209Y000928*
X-002086Y000936*
X-002083Y000943*
X-00208Y000951*
X-002078Y00096*
X-002077Y000968*
X-002076Y000976*
X-002075Y000984*
X-002348Y002294D02*
D01*
X-002357Y002303*
X-002365Y002311*
X-002375Y002318*
X-002385Y002325*
X-002395Y002331*
X-002405Y002336*
X-002416Y002341*
X-002428Y002345*
X-002439Y002348*
X-002451Y00235*
X-002463Y002351*
X-002474Y002351*
X-002486Y002351*
X-002498Y00235*
X-00251Y002348*
X-002521Y002345*
X-002533Y002342*
X-002544Y002337*
X-002554Y002332*
X-002565Y002326*
X-002575Y00232*
X-002584Y002312*
X-002593Y002304*
X-002601Y002296*
X-002609Y002287*
X-002616Y002277*
X-002622Y002267*
X-002628Y002257*
X-002633Y002246*
X-002637Y002235*
X-00264Y002224*
X-002643Y002212*
X-002644Y0022*
X-002645Y002188*
X-002645Y002177*
X-002645Y002165*
X-002643Y002153*
X-002641Y002141*
X-002637Y00213*
X-002633Y002119*
X-002629Y002108*
X-002623Y002097*
X-002329Y000349D02*
D01*
X-00233Y000358*
X-002331Y000366*
X-002332Y000374*
X-002334Y000383*
X-002337Y000391*
X-00234Y000398*
X-002344Y000406*
X-002348Y000413*
X-002352Y00042*
X-002358Y000427*
X-002363Y000433*
X-002369Y000439*
X-002376Y000444*
X-002382Y000449*
X-002389Y000453*
X-002397Y000457*
X-002405Y000461*
X-002412Y000464*
X-00242Y000466*
X-002429Y000468*
X-002437Y000469*
X-002445Y000469*
X-002454*
X-002462Y000469*
X-00247Y000468*
X-002479Y000466*
X-002487Y000464*
X-002494Y000461*
X-002502Y000457*
X-002509Y000453*
X-002517Y000449*
X-002523Y000444*
X-00253Y000439*
X-002536Y000433*
X-002541Y000427*
X-002547Y00042*
X-002551Y000413*
X-002555Y000406*
X-002559Y000398*
X-002562Y000391*
X-002565Y000383*
X-002567Y000374*
X-002568Y000366*
X-002569Y000358*
X-002569Y000349*
X-002569Y000341*
X-002568Y000333*
X-002567Y000325*
X-002565Y000316*
X-002562Y000308*
X-002559Y000301*
X-002555Y000293*
X-002551Y000286*
X-002547Y000279*
X-002541Y000272*
X-002536Y000266*
X-00253Y00026*
X-002523Y000255*
X-002517Y00025*
X-002509Y000246*
X-002502Y000242*
X-002494Y000238*
X-002487Y000235*
X-002479Y000233*
X-00247Y000231*
X-002462Y00023*
X-002454Y00023*
X-002445*
X-002437Y00023*
X-002429Y000231*
X-00242Y000233*
X-002412Y000235*
X-002405Y000238*
X-002397Y000242*
X-002389Y000246*
X-002382Y00025*
X-002376Y000255*
X-002369Y00026*
X-002363Y000266*
X-002358Y000272*
X-002352Y000279*
X-002348Y000286*
X-002344Y000293*
X-00234Y000301*
X-002337Y000308*
X-002334Y000316*
X-002332Y000325*
X-002331Y000333*
X-00233Y000341*
X-002329Y000349*
D01*
X-00233Y000358*
X-002331Y000366*
X-002332Y000374*
X-002334Y000383*
X-002337Y000391*
X-00234Y000398*
X-002344Y000406*
X-002348Y000413*
X-002352Y00042*
X-002358Y000427*
X-002363Y000433*
X-002369Y000439*
X-002376Y000444*
X-002382Y000449*
X-002389Y000453*
X-002397Y000457*
X-002405Y000461*
X-002412Y000464*
X-00242Y000466*
X-002429Y000468*
X-002437Y000469*
X-002445Y000469*
X-002454*
X-002462Y000469*
X-00247Y000468*
X-002479Y000466*
X-002487Y000464*
X-002494Y000461*
X-002502Y000457*
X-002509Y000453*
X-002517Y000449*
X-002523Y000444*
X-00253Y000439*
X-002536Y000433*
X-002541Y000427*
X-002547Y00042*
X-002551Y000413*
X-002555Y000406*
X-002559Y000398*
X-002562Y000391*
X-002565Y000383*
X-002567Y000374*
X-002568Y000366*
X-002569Y000358*
X-002569Y000349*
X-002569Y000341*
X-002568Y000333*
X-002567Y000325*
X-002565Y000316*
X-002562Y000308*
X-002559Y000301*
X-002555Y000293*
X-002551Y000286*
X-002547Y000279*
X-002541Y000272*
X-002536Y000266*
X-00253Y00026*
X-002523Y000255*
X-002517Y00025*
X-002509Y000246*
X-002502Y000242*
X-002494Y000238*
X-002487Y000235*
X-002479Y000233*
X-00247Y000231*
X-002462Y00023*
X-002454Y00023*
X-002445*
X-002437Y00023*
X-002429Y000231*
X-00242Y000233*
X-002412Y000235*
X-002405Y000238*
X-002397Y000242*
X-002389Y000246*
X-002382Y00025*
X-002376Y000255*
X-002369Y00026*
X-002363Y000266*
X-002358Y000272*
X-002352Y000279*
X-002348Y000286*
X-002344Y000293*
X-00234Y000301*
X-002337Y000308*
X-002334Y000316*
X-002332Y000325*
X-002331Y000333*
X-00233Y000341*
X-002329Y000349*
X-003091Y000984D02*
D01*
X-003092Y000993*
X-003093Y001001*
X-003094Y001009*
X-003096Y001018*
X-003099Y001026*
X-003102Y001033*
X-003106Y001041*
X-00311Y001048*
X-003114Y001055*
X-00312Y001062*
X-003125Y001068*
X-003131Y001074*
X-003138Y001079*
X-003144Y001084*
X-003151Y001088*
X-003159Y001092*
X-003167Y001096*
X-003174Y001099*
X-003182Y001101*
X-003191Y001103*
X-003199Y001104*
X-003207Y001104*
X-003216*
X-003224Y001104*
X-003232Y001103*
X-003241Y001101*
X-003249Y001099*
X-003256Y001096*
X-003264Y001092*
X-003271Y001088*
X-003279Y001084*
X-003285Y001079*
X-003292Y001074*
X-003298Y001068*
X-003303Y001062*
X-003309Y001055*
X-003313Y001048*
X-003317Y001041*
X-003321Y001033*
X-003324Y001026*
X-003327Y001018*
X-003329Y001009*
X-00333Y001001*
X-003331Y000993*
X-003331Y000984*
X-003331Y000976*
X-00333Y000968*
X-003329Y00096*
X-003327Y000951*
X-003324Y000943*
X-003321Y000936*
X-003317Y000928*
X-003313Y000921*
X-003309Y000914*
X-003303Y000907*
X-003298Y000901*
X-003292Y000895*
X-003285Y00089*
X-003279Y000885*
X-003271Y000881*
X-003264Y000877*
X-003256Y000873*
X-003249Y00087*
X-003241Y000868*
X-003232Y000866*
X-003224Y000865*
X-003216Y000865*
X-003207*
X-003199Y000865*
X-003191Y000866*
X-003182Y000868*
X-003174Y00087*
X-003167Y000873*
X-003159Y000877*
X-003151Y000881*
X-003144Y000885*
X-003138Y00089*
X-003131Y000895*
X-003125Y000901*
X-00312Y000907*
X-003114Y000914*
X-00311Y000921*
X-003106Y000928*
X-003102Y000936*
X-003099Y000943*
X-003096Y000951*
X-003094Y00096*
X-003093Y000968*
X-003092Y000976*
X-003091Y000984*
D01*
X-003092Y000993*
X-003093Y001001*
X-003094Y001009*
X-003096Y001018*
X-003099Y001026*
X-003102Y001033*
X-003106Y001041*
X-00311Y001048*
X-003114Y001055*
X-00312Y001062*
X-003125Y001068*
X-003131Y001074*
X-003138Y001079*
X-003144Y001084*
X-003151Y001088*
X-003159Y001092*
X-003167Y001096*
X-003174Y001099*
X-003182Y001101*
X-003191Y001103*
X-003199Y001104*
X-003207Y001104*
X-003216*
X-003224Y001104*
X-003232Y001103*
X-003241Y001101*
X-003249Y001099*
X-003256Y001096*
X-003264Y001092*
X-003271Y001088*
X-003279Y001084*
X-003285Y001079*
X-003292Y001074*
X-003298Y001068*
X-003303Y001062*
X-003309Y001055*
X-003313Y001048*
X-003317Y001041*
X-003321Y001033*
X-003324Y001026*
X-003327Y001018*
X-003329Y001009*
X-00333Y001001*
X-003331Y000993*
X-003331Y000984*
X-003331Y000976*
X-00333Y000968*
X-003329Y00096*
X-003327Y000951*
X-003324Y000943*
X-003321Y000936*
X-003317Y000928*
X-003313Y000921*
X-003309Y000914*
X-003303Y000907*
X-003298Y000901*
X-003292Y000895*
X-003285Y00089*
X-003279Y000885*
X-003271Y000881*
X-003264Y000877*
X-003256Y000873*
X-003249Y00087*
X-003241Y000868*
X-003232Y000866*
X-003224Y000865*
X-003216Y000865*
X-003207*
X-003199Y000865*
X-003191Y000866*
X-003182Y000868*
X-003174Y00087*
X-003167Y000873*
X-003159Y000877*
X-003151Y000881*
X-003144Y000885*
X-003138Y00089*
X-003131Y000895*
X-003125Y000901*
X-00312Y000907*
X-003114Y000914*
X-00311Y000921*
X-003106Y000928*
X-003102Y000936*
X-003099Y000943*
X-003096Y000951*
X-003094Y00096*
X-003093Y000968*
X-003092Y000976*
X-003091Y000984*
X-000117Y00578D02*
X-000049D01*
Y005708D02*
Y005949D01*
X-000059Y00573D02*
X-000049D01*
X-000082Y00558D02*
X-000049D01*
X-000196Y005784D02*
Y005949D01*
X-000246Y005755D02*
Y005949D01*
X-000096Y005769D02*
Y005949D01*
X-000146Y005788D02*
Y005949D01*
X-00082Y00508D02*
X-000049D01*
X-000805Y00503D02*
X-000049D01*
X-000812Y00498D02*
X-000049D01*
X-000796Y002251D02*
Y005949D01*
X-000846Y005112D02*
Y005949D01*
Y002315D02*
Y004931D01*
X-000847Y00493D02*
X-000049D01*
X-001075Y00573D02*
X-000266D01*
X-001133Y00578D02*
X-000208D01*
X-000874Y00513D02*
X-000049D01*
X-001098Y00558D02*
X-000243D01*
X-000896Y005138D02*
Y005949D01*
X-000946Y00514D02*
Y005949D01*
X-001059Y00568D02*
X-000282D01*
X-001065Y00563D02*
X-000276D01*
X-000996Y005118D02*
Y005949D01*
X-00189Y00513D02*
X-000976D01*
X-001828Y00498D02*
X-001038D01*
X-001836Y00508D02*
X-00103D01*
X-000996Y002345D02*
Y004925D01*
X-001863Y00493D02*
X-001003D01*
X-000788Y00223D02*
X-000049D01*
X-000781Y00218D02*
X-000049D01*
X-000813Y00228D02*
X-000049D01*
X-000789Y00213D02*
X-000049D01*
X-000814Y00208D02*
X-000049D01*
X-000796Y001997D02*
Y002111D01*
X-000789Y00198D02*
X-000049D01*
X-000816Y00203D02*
X-000049D01*
X-000781Y00193D02*
X-000049D01*
X-000788Y00188D02*
X-000049D01*
X-000811Y00183D02*
X-000049D01*
X-000866Y00178D02*
X-000049D01*
X-000796Y001394D02*
Y001857D01*
X-000832Y00143D02*
X-000049D01*
X-000846Y001444D02*
Y001793D01*
X-000869Y00233D02*
X-000049D01*
X-001132Y00173D02*
X-000049D01*
X-000896Y002342D02*
Y004905D01*
X-000946Y002351D02*
Y004903D01*
X-00112Y00178D02*
X-001036D01*
X-001123Y00233D02*
X-001033D01*
X-001032Y00163D02*
X-000049D01*
X-001082Y00168D02*
X-000049D01*
X-000882Y00148D02*
X-000049D01*
X-000982Y00158D02*
X-000049D01*
X-000896Y001494D02*
Y001766D01*
X-000996Y001594D02*
Y001763D01*
X-000932Y00153D02*
X-000049D01*
X-000946Y001544D02*
Y001757D01*
X-001146Y005785D02*
Y005949D01*
X-001096Y005756D02*
Y005949D01*
X-001196Y005788D02*
Y005949D01*
X-001246Y005768D02*
Y005949D01*
X-001387Y00578D02*
X-001224D01*
X-001346Y005752D02*
Y005949D01*
X-001397Y005783D02*
Y005949D01*
X-001296Y005693D02*
Y005949D01*
X-001329Y00573D02*
X-001282D01*
X-001046Y002322D02*
Y005949D01*
X-001096Y002312D02*
Y005582D01*
X-001296Y002325D02*
Y005645D01*
X-001313Y00568D02*
X-001298D01*
X-001319Y00563D02*
X-001292D01*
X-001346Y002308D02*
Y005586D01*
X-001446Y005788D02*
Y005949D01*
X-001496Y005771D02*
Y005949D01*
X-001946Y005141D02*
Y005949D01*
X-001996Y005128D02*
Y005949D01*
X-001546Y005708D02*
Y005949D01*
X-001896Y005133D02*
Y005949D01*
X-001646Y002337D02*
Y005949D01*
X-001696Y00235D02*
Y005949D01*
X-001546Y002327D02*
Y00563D01*
X-001596Y002304D02*
Y005949D01*
X-001846Y005095D02*
Y005949D01*
X-002046Y00508D02*
Y005949D01*
X-001746Y002348D02*
Y005949D01*
X-001796Y002329D02*
Y005949D01*
X-001246Y002346D02*
Y00557D01*
X-001146Y00234D02*
Y005553D01*
X-001352Y00558D02*
X-001259D01*
X-001196Y002351D02*
Y00555D01*
X-001397Y002339D02*
Y005555D01*
X-001496Y002347D02*
Y005567D01*
X-001377Y00233D02*
X-001287D01*
X-001446Y002351D02*
Y00555D01*
X-001046Y001644D02*
Y001786D01*
X-001096Y001694D02*
Y001796D01*
X-001146Y001744D02*
Y001768D01*
X-001821Y00503D02*
X-001045D01*
X-001896Y002336D02*
Y00491D01*
X-002075Y00503D02*
X-002061D01*
X-002082Y00498D02*
X-002054D01*
X-001946Y00235D02*
Y004902D01*
X-001996Y002348D02*
Y004915D01*
X-001631Y00233D02*
X-001541D01*
X-001885D02*
X-001795D01*
X-001846Y002301D02*
Y004948D01*
X-002046Y002331D02*
Y004964D01*
X-000146Y000468D02*
Y00555D01*
X-000096Y000449D02*
Y005569D01*
X-000661Y00123D02*
X-000049D01*
X-000659Y00113D02*
X-000049D01*
X-000659Y00118D02*
X-000049D01*
X-000246Y000436D02*
Y005583D01*
X-000646Y001037D02*
Y005949D01*
X-000196Y000464D02*
Y005554D01*
X-000659Y001057D02*
Y001209D01*
X-000346Y000049D02*
Y005949D01*
X-000396Y000049D02*
Y005949D01*
X-000049Y000386D02*
Y00563D01*
X-000296Y000049D02*
Y005949D01*
X-000546Y000049D02*
Y005949D01*
X-000596Y000049D02*
Y005949D01*
X-000446Y000049D02*
Y005949D01*
X-000496Y000049D02*
Y005949D01*
X-000732Y00133D02*
X-000049D01*
X-000782Y00138D02*
X-000049D01*
X-000684Y00128D02*
X-000049D01*
X-000696Y001294D02*
Y005949D01*
X-000746Y001344D02*
Y005949D01*
X-001164Y001762D02*
X-000693Y00129D01*
X-000889Y001098D02*
Y001161D01*
X-001002Y001274D02*
X-000889Y001161D01*
X-001002Y00113D02*
X-000889D01*
X-000946Y001102D02*
Y001218D01*
X-001002Y00118D02*
X-000908D01*
X-000896Y0011D02*
Y001168D01*
X-000642Y00103D02*
X-000049D01*
X-000629Y00098D02*
X-000049D01*
X-000659Y00108D02*
X-000049D01*
X-000065Y00028D02*
X-000049D01*
X-000635Y00093D02*
X-000049D01*
X-00066Y00088D02*
X-000049D01*
X-000074Y00043D02*
X-000049D01*
X-000148Y00023D02*
X-000049D01*
Y000049D02*
Y000312D01*
X-000096Y000049D02*
Y000249D01*
X-000246Y000049D02*
Y000262D01*
X-000646Y000049D02*
Y000901D01*
X-000146Y000049D02*
Y00023D01*
X-000196Y000049D02*
Y000234D01*
X-000733Y00083D02*
X-000049D01*
X-00109Y00043D02*
X-000252D01*
X-001061Y00033D02*
X-000281D01*
X-001063Y000381D02*
X-000279D01*
X-001075Y00083D02*
X-000815D01*
X-000696Y000049D02*
Y000847D01*
X-000746Y000049D02*
Y000827D01*
X-001081Y00028D02*
X-000261D01*
X-001164Y00023D02*
X-000178D01*
X-000896Y000049D02*
Y000868D01*
X-000946Y000049D02*
Y000866D01*
X-000796Y000049D02*
Y000826D01*
X-000846Y000049D02*
Y000843D01*
X-000996Y001081D02*
Y001268D01*
X-001002Y001076D02*
Y001274D01*
Y00123D02*
X-000958D01*
X-001002Y00088D02*
X-000985D01*
X-001422Y001057D02*
Y001184D01*
X-001446Y001008D02*
Y001208D01*
Y000468D02*
Y00093D01*
X-001546Y000389D02*
Y001308D01*
X-001596Y000049D02*
Y001358D01*
X-000996Y000049D02*
Y000887D01*
X-001496Y000451D02*
Y001258D01*
X-001746Y000049D02*
Y001508D01*
X-001796Y000049D02*
Y001558D01*
X-001646Y000049D02*
Y001408D01*
X-001696Y000049D02*
Y001458D01*
X-001846Y001057D02*
Y001608D01*
X-00192Y001683D02*
X-001422Y001184D01*
X-00183Y00103D02*
X-001438D01*
X-001869Y00108D02*
X-001422D01*
X-001996Y001091D02*
Y00176D01*
X-002046Y001042D02*
Y001778D01*
X-001896Y001095D02*
Y001658D01*
X-001946Y001104D02*
Y001722D01*
X-001821Y00098D02*
X-001451D01*
X-001834Y00093D02*
X-001446D01*
X-002075Y00098D02*
X-002061D01*
X-002084Y00103D02*
X-002052D01*
X-001846Y000049D02*
Y000911D01*
X-002046Y000049D02*
Y000926D01*
X-001196Y000468D02*
Y000848D01*
X-001265Y00083D02*
X-001158D01*
X-001096Y000436D02*
Y000825D01*
X-001146Y000464D02*
Y000827D01*
X-001246Y000448D02*
Y000837D01*
X-001296Y000375D02*
Y000824D01*
X-001315Y00033D02*
X-001297D01*
X-001317Y000381D02*
X-001295D01*
X-001046Y000049D02*
Y000842D01*
X-001096Y000049D02*
Y000262D01*
X-001246Y000049D02*
Y00025D01*
X-001296Y000049D02*
Y000323D01*
X-001146Y000049D02*
Y000234D01*
X-001196Y000049D02*
Y00023D01*
X-001344Y00043D02*
X-001268D01*
X-001335Y00028D02*
X-001277D01*
X-001418Y00023D02*
X-001194D01*
X-001397Y000463D02*
Y000855D01*
X-001881Y00088D02*
X-001421D01*
X-001346Y000432D02*
Y00083D01*
Y000049D02*
Y000266D01*
X-001496Y000049D02*
Y000247D01*
X-001397Y000049D02*
Y000235D01*
X-001446Y000049D02*
Y00023D01*
X-001896Y000049D02*
Y000873D01*
X-001996Y000049D02*
Y000877D01*
X-001546Y000049D02*
Y000309D01*
X-001946Y000049D02*
Y000864D01*
X-003449Y00588D02*
X-000049D01*
X-003449Y00583D02*
X-000049D01*
X-003449Y00593D02*
X-000049D01*
X-003449Y00548D02*
X-000049D01*
X-003449Y00553D02*
X-000049D01*
X-002403Y00578D02*
X-001478D01*
X-003449Y005949D02*
X-000049D01*
X-002345Y00573D02*
X-001536D01*
X-002368Y00558D02*
X-001513D01*
X-003449Y00518D02*
X-000049D01*
X-003449Y00523D02*
X-000049D01*
X-003449Y00483D02*
X-000049D01*
X-003449Y00488D02*
X-000049D01*
X-003449Y00538D02*
X-000049D01*
X-003449Y00543D02*
X-000049D01*
X-003449Y00528D02*
X-000049D01*
X-003449Y00533D02*
X-000049D01*
X-003449Y00453D02*
X-000049D01*
X-003449Y00458D02*
X-000049D01*
X-003449Y00443D02*
X-000049D01*
X-003449Y00448D02*
X-000049D01*
X-003449Y00473D02*
X-000049D01*
X-003449Y00478D02*
X-000049D01*
X-003449Y00463D02*
X-000049D01*
X-003449Y00468D02*
X-000049D01*
X-003449Y00413D02*
X-000049D01*
X-003449Y00418D02*
X-000049D01*
X-003449Y00403D02*
X-000049D01*
X-003449Y00408D02*
X-000049D01*
X-003449Y00433D02*
X-000049D01*
X-003449Y00438D02*
X-000049D01*
X-003449Y00423D02*
X-000049D01*
X-003449Y00428D02*
X-000049D01*
X-003175Y00293D02*
X-000049D01*
X-003175Y00288D02*
X-000049D01*
X-003175Y00298D02*
X-000049D01*
X-003175Y00278D02*
X-000049D01*
X-003175Y00283D02*
X-000049D01*
X-003175Y00313D02*
X-000049D01*
X-003175Y00318D02*
X-000049D01*
X-003175Y00303D02*
X-000049D01*
X-003175Y00308D02*
X-000049D01*
X-003175Y00248D02*
X-000049D01*
X-003175Y00253D02*
X-000049D01*
X-003175Y00238D02*
X-000049D01*
X-003175Y00243D02*
X-000049D01*
X-003175Y00268D02*
X-000049D01*
X-003175Y00273D02*
X-000049D01*
X-003175Y00258D02*
X-000049D01*
X-003175Y00263D02*
X-000049D01*
X-003449Y00373D02*
X-000049D01*
X-003449Y00378D02*
X-000049D01*
X-003449Y00363D02*
X-000049D01*
X-003449Y00368D02*
X-000049D01*
X-003449Y00393D02*
X-000049D01*
X-003449Y00398D02*
X-000049D01*
X-003449Y00383D02*
X-000049D01*
X-003449Y00388D02*
X-000049D01*
X-003175Y00333D02*
X-000049D01*
X-003175Y00338D02*
X-000049D01*
X-003175Y00323D02*
X-000049D01*
X-003175Y00328D02*
X-000049D01*
X-003449Y00353D02*
X-000049D01*
X-003449Y00358D02*
X-000049D01*
X-003175Y00343D02*
X-000049D01*
X-003449Y00348D02*
X-000049D01*
X-002346Y005732D02*
Y005949D01*
X-002196Y005141D02*
Y005949D01*
X-002329Y00568D02*
X-001552D01*
X-002335Y00563D02*
X-001546D01*
X-002496Y005779D02*
Y005949D01*
X-002546Y005739D02*
Y005949D01*
X-002396Y005777D02*
Y005949D01*
X-002446Y005789D02*
Y005949D01*
X-002246Y00513D02*
Y005949D01*
X-002296Y005086D02*
Y005949D01*
X-002096Y005089D02*
Y005949D01*
X-002146Y005131D02*
Y005949D01*
X-002346Y002296D02*
Y005606D01*
X-002546Y002335D02*
Y005599D01*
X-002396Y002332D02*
Y005561D01*
X-002496Y00235D02*
Y005559D01*
X-003449Y00578D02*
X-002494D01*
X-003449Y00558D02*
X-002529D01*
X-003449Y00573D02*
X-002552D01*
X-003196Y005141D02*
Y005949D01*
X-003246Y005136D02*
Y005949D01*
X-003449Y00563D02*
X-002562D01*
X-003449Y00568D02*
X-002568D01*
X-003146Y005122D02*
Y005949D01*
X-003296Y005106D02*
Y005949D01*
X-002596Y0023D02*
Y005949D01*
X-003096Y005056D02*
Y005949D01*
X-003446Y003463D02*
Y005949D01*
X-003449Y003463D02*
Y005949D01*
X-003346Y003463D02*
Y005949D01*
X-003396Y003463D02*
Y005949D01*
X-002144Y00513D02*
X-001992D01*
X-00209Y00508D02*
X-002046D01*
X-002117Y00493D02*
X-002019D01*
X-003091Y00503D02*
X-002315D01*
X-002196Y002349D02*
Y004902D01*
X-002246Y002349D02*
Y004913D01*
X-002096Y002296D02*
Y004954D01*
X-002139Y00233D02*
X-002049D01*
X-002296Y002334D02*
Y004957D01*
X-002446Y002349D02*
Y005549D01*
X-002146Y002334D02*
Y004912D01*
X-002393Y00233D02*
X-002303D01*
X-003106Y00508D02*
X-0023D01*
X-00316Y00513D02*
X-002246D01*
X-003098Y00498D02*
X-002308D01*
X-003133Y00493D02*
X-002273D01*
X-003449Y00508D02*
X-003316D01*
X-003449Y00513D02*
X-003262D01*
X-003449Y00498D02*
X-003324D01*
X-003449Y00503D02*
X-003331D01*
X-003175Y00233D02*
X-002557D01*
X-003449Y003463D02*
X-003175D01*
X-003296D02*
Y004937D01*
X-003449Y00493D02*
X-003289D01*
X-003196Y003463D02*
Y004902D01*
X-003246Y003463D02*
Y004907D01*
X-002136Y00178D02*
X-002052D01*
X-002096Y002042D02*
Y002066D01*
X-002305Y001757D02*
Y001779D01*
X-002096Y001052D02*
Y001812D01*
X-002146Y001094D02*
Y001774D01*
X-002246Y001093D02*
Y001759D01*
X-002296Y001049D02*
Y001774D01*
X-002196Y001104D02*
Y001759D01*
X-002346Y000411D02*
Y001757D01*
X-002979Y00158D02*
X-001818D01*
X-002979Y00163D02*
X-001868D01*
X-002979Y00148D02*
X-001718D01*
X-002979Y00153D02*
X-001768D01*
X-002645Y001757D02*
X-002305D01*
X-002979Y00168D02*
X-001918D01*
X-002979Y00173D02*
X-001949D01*
X-002979Y00128D02*
X-001518D01*
X-003449Y00123D02*
X-001468D01*
X-003449Y00113D02*
X-001422D01*
X-003449Y00118D02*
X-001422D01*
X-002396Y000457D02*
Y001757D01*
X-002979Y00143D02*
X-001668D01*
X-002979Y00133D02*
X-001568D01*
X-002979Y00138D02*
X-001618D01*
X-002333Y000381D02*
X-001549D01*
X-002331Y00033D02*
X-001551D01*
X-00236Y00043D02*
X-001522D01*
X-002351Y00028D02*
X-001531D01*
X-002434Y00023D02*
X-001448D01*
X-002123Y00108D02*
X-002013D01*
X-003091Y00098D02*
X-002315D01*
X-002088Y00093D02*
X-002048D01*
X-002135Y00088D02*
X-002001D01*
X-002096Y000049D02*
Y000916D01*
X-002246Y000049D02*
Y000875D01*
X-002146Y000049D02*
Y000874D01*
X-002196Y000049D02*
Y000864D01*
X-002296Y000049D02*
Y000919D01*
X-002346Y000049D02*
Y000287D01*
X-003449Y00078D02*
X-000049D01*
X-003449Y00083D02*
X-001348D01*
X-003449Y00068D02*
X-000049D01*
X-003449Y00073D02*
X-000049D01*
X-0031Y00103D02*
X-002306D01*
X-003139Y00108D02*
X-002267D01*
X-003104Y00093D02*
X-002302D01*
X-003151Y00088D02*
X-002255D01*
X-003449Y00013D02*
X-000049D01*
X-003449Y00018D02*
X-000049D01*
X-003449Y000049D02*
X-000049D01*
X-003449Y00008D02*
X-000049D01*
X-003449Y00058D02*
X-000049D01*
X-003449Y00063D02*
X-000049D01*
X-003449Y00048D02*
X-000049D01*
X-003449Y00053D02*
X-000049D01*
X-002645Y002097D02*
X-002623D01*
X-002546Y000419D02*
Y001757D01*
X-002979Y00213D02*
X-002637D01*
X-002446Y000469D02*
Y001757D01*
X-002496Y000459D02*
Y001757D01*
X-002645D02*
Y002097D01*
X-002979Y001279D02*
Y002139D01*
Y00193D02*
X-002645D01*
X-002979Y00198D02*
X-002645D01*
X-002696Y000049D02*
Y005949D01*
X-002746Y000049D02*
Y005949D01*
X-002596Y000049D02*
Y001757D01*
X-002646Y000049D02*
Y005949D01*
X-002896Y000049D02*
Y005949D01*
X-002946Y000049D02*
Y005949D01*
X-002796Y000049D02*
Y005949D01*
X-002846Y000049D02*
Y005949D01*
X-003175Y00223D02*
X-002638D01*
X-003175Y00228D02*
X-002613D01*
X-003175Y002139D02*
X-002979D01*
X-003175Y00218D02*
X-002645D01*
X-002996Y002139D02*
Y005949D01*
X-003046Y002139D02*
Y005949D01*
X-003096Y002139D02*
Y004987D01*
X-003175Y002139D02*
Y003463D01*
X-002979Y00203D02*
X-002645D01*
X-002979Y00208D02*
X-002645D01*
X-002979Y00183D02*
X-002645D01*
X-002979Y00188D02*
X-002645D01*
X-002979Y00178D02*
X-002645D01*
X-003146Y002139D02*
Y004921D01*
X-003096Y001019D02*
Y001279D01*
X-003146Y001085D02*
Y001279D01*
X-002996Y000049D02*
Y001279D01*
X-003175D02*
X-002979D01*
X-002446Y000049D02*
Y000229D01*
X-002546Y000049D02*
Y000279D01*
X-003246Y001099D02*
Y001274D01*
X-003296Y001069D02*
Y001274D01*
X-003196Y001103D02*
Y001274D01*
X-003046Y000049D02*
Y001279D01*
X-003096Y000049D02*
Y000949D01*
X-002396Y000049D02*
Y000241D01*
X-002496Y000049D02*
Y000239D01*
X-003146Y000049D02*
Y000883D01*
X-003296Y000049D02*
Y000899D01*
X-003196Y000049D02*
Y000865D01*
X-003246Y000049D02*
Y000869D01*
X-003449Y001274D02*
X-003175D01*
X-003449Y00043D02*
X-002538D01*
X-003449Y00088D02*
X-003271D01*
X-003449Y00103D02*
X-003322D01*
X-003449Y00108D02*
X-003283D01*
X-003449Y00093D02*
X-003318D01*
X-003449Y00098D02*
X-003331D01*
X-003449Y00033D02*
X-002567D01*
X-003449Y000381D02*
X-002565D01*
X-003449Y00023D02*
X-002464D01*
X-003449Y00028D02*
X-002547D01*
X-003446Y000049D02*
Y001274D01*
X-003449Y000049D02*
Y001274D01*
X-003346Y000049D02*
Y001274D01*
X-003396Y000049D02*
Y001274D01*
G54D11*
X-001967Y002181D02*
X-001839Y002053D01*
X-001713Y002181D02*
X-001587Y002054D01*
X-001459Y002181D02*
X-001329Y002051D01*
X-001587Y001767D02*
Y002054D01*
Y001767D02*
X-001117Y001297D01*
Y000969D02*
Y001297D01*
X-001329Y001764D02*
Y002051D01*
Y001764D02*
X-000774Y001209D01*
Y000969D02*
Y001209D01*
X-001839Y001764D02*
Y002053D01*
Y001764D02*
X-001307Y001232D01*
Y000969D02*
Y001232D01*
G54D12*
X-003399Y001479D02*
X-003419Y001459D01*
Y001419*
X-003399Y001399*
X-003379*
X-003359Y001419*
Y001459*
X-003339Y001479*
X-003319*
X-003299Y001459*
Y001419*
X-003319Y001399*
X-003299Y001519D02*
X-003419D01*
X-003379Y001559*
X-003419Y001599*
X-003299*
X-003359Y001639D02*
Y001719D01*
X-003399Y001839D02*
X-003419Y001819D01*
Y001779*
X-003399Y001759*
X-003319*
X-003299Y001779*
Y001819*
X-003319Y001839*
X-003299Y001899D02*
Y001939D01*
X-003319Y001959*
X-003359*
X-003379Y001939*
Y001899*
X-003359Y001879*
X-003319*
X-003299Y001899*
Y001999D02*
X-003379D01*
Y002059*
X-003359Y002079*
X-003299*
Y002119D02*
X-003379D01*
Y002179*
X-003359Y002199*
X-003299*
Y002299D02*
Y002259D01*
X-003319Y002239*
X-003359*
X-003379Y002259*
Y002299*
X-003359Y002319*
X-003339*
Y002239*
X-003379Y002439D02*
Y002379D01*
X-003359Y002359*
X-003319*
X-003299Y002379*
Y002439*
X-003399Y002499D02*
X-003379D01*
Y002479*
Y002519*
Y002499*
X-003319*
X-003299Y002519*
X-003419Y002759D02*
Y002719D01*
X-003399Y002699*
X-003319*
X-003299Y002719*
Y002759*
X-003319Y002779*
X-003399*
X-003419Y002759*
X-003299Y002819D02*
Y002859D01*
Y002839*
X-003419*
Y002819*
X-003299Y002919D02*
Y002958D01*
Y002939*
X-003379*
Y002919*
X-003299Y003018D02*
X-003379D01*
Y003038*
X-003359Y003058*
X-003299*
X-003359*
X-003379Y003078*
X-003359Y003098*
X-003299*
Y003198D02*
Y003158D01*
X-003319Y003138*
X-003359*
X-003379Y003158*
Y003198*
X-003359Y003218*
X-003339*
Y003138*
X-003379Y003258D02*
X-003299Y003338D01*
X-003339Y003298*
X-003379Y003338*
X-003299Y003258*
G54D13*
X-003179Y001399D02*
X-003099D01*
X-003139*
X-003159Y001419*
X-003179Y001439*
Y001459*
X-003099Y001579D02*
Y001539D01*
X-003119Y001519*
X-003159*
X-003179Y001539*
Y001579*
X-003159Y001599*
X-003139*
Y001519*
X-003179Y001639D02*
X-003099Y001679D01*
X-003179Y001719*
X-003099Y001759D02*
X-003119D01*
Y001779*
X-003099*
Y001759*
Y001979D02*
Y002019D01*
Y001999*
X-003219*
X-003199Y001979*
G54D14*
X-002475Y001927D03*
G54D15*
X-002475Y002181D03*
X-002221Y001927D03*
Y002181D03*
X-001967Y001927D03*
Y002181D03*
X-001713Y001927D03*
Y002181D03*
X-001459Y001927D03*
Y002181D03*
X-001205D03*
Y001927D03*
X-000951Y002181D03*
Y001927D03*
G54D16*
X-001941Y000984D03*
X-000925D03*
X-003211D03*
X-002195D03*
X-002449Y005669D03*
X-001433D03*
X-001179D03*
X-000163D03*
X-003211Y005022D03*
X-002195D03*
X-001941D03*
X-000925D03*
X-002449Y000349D03*
X-001433D03*
X-001179D03*
X-000163D03*
G54D17*
X-001307Y000969D03*
X-001117D03*
X-000774D03*
M02*