%FSTAX42Y42*%
%MOMM*%
%SFA1B1*%

%IPPOS*%
%AMD75*
4,1,8,0.170180,0.749300,-0.170180,0.749300,-0.449580,0.469900,-0.449580,-0.469900,-0.170180,-0.749300,0.170180,-0.749300,0.449580,-0.469900,0.449580,0.469900,0.170180,0.749300,0.0*
1,1,0.560000,0.170180,0.469900*
1,1,0.560000,-0.170180,0.469900*
1,1,0.560000,-0.170180,-0.469900*
1,1,0.560000,0.170180,-0.469900*
%
%AMD76*
4,1,8,0.749300,-0.220980,0.749300,0.220980,0.419100,0.551180,-0.419100,0.551180,-0.749300,0.220980,-0.749300,-0.220980,-0.419100,-0.551180,0.419100,-0.551180,0.749300,-0.220980,0.0*
1,1,0.660000,0.419100,-0.220980*
1,1,0.660000,0.419100,0.220980*
1,1,0.660000,-0.419100,0.220980*
1,1,0.660000,-0.419100,-0.220980*
%
%AMD91*
4,1,8,0.749300,-0.170180,0.749300,0.170180,0.469900,0.449580,-0.469900,0.449580,-0.749300,0.170180,-0.749300,-0.170180,-0.469900,-0.449580,0.469900,-0.449580,0.749300,-0.170180,0.0*
1,1,0.560000,0.469900,-0.170180*
1,1,0.560000,0.469900,0.170180*
1,1,0.560000,-0.469900,0.170180*
1,1,0.560000,-0.469900,-0.170180*
%
%AMD95*
4,1,8,0.220980,0.749300,-0.220980,0.749300,-0.551180,0.419100,-0.551180,-0.419100,-0.220980,-0.749300,0.220980,-0.749300,0.551180,-0.419100,0.551180,0.419100,0.220980,0.749300,0.0*
1,1,0.660000,0.220980,0.419100*
1,1,0.660000,-0.220980,0.419100*
1,1,0.660000,-0.220980,-0.419100*
1,1,0.660000,0.220980,-0.419100*
%
%AMD96*
4,1,8,-0.284480,-1.000760,0.284480,-1.000760,0.675640,-0.609600,0.675640,0.609600,0.284480,1.000760,-0.284480,1.000760,-0.675640,0.609600,-0.675640,-0.609600,-0.284480,-1.000760,0.0*
1,1,0.780000,-0.284480,-0.609600*
1,1,0.780000,0.284480,-0.609600*
1,1,0.780000,0.284480,0.609600*
1,1,0.780000,-0.284480,0.609600*
%
%AMD119*
4,1,8,-0.480060,0.190500,-0.480060,-0.190500,-0.190500,-0.480060,0.190500,-0.480060,0.480060,-0.190500,0.480060,0.190500,0.190500,0.480060,-0.190500,0.480060,-0.480060,0.190500,0.0*
1,1,0.580000,-0.190500,0.190500*
1,1,0.580000,-0.190500,-0.190500*
1,1,0.580000,0.190500,-0.190500*
1,1,0.580000,0.190500,0.190500*
%
%AMD123*
4,1,8,-1.000760,0.284480,-1.000760,-0.284480,-0.609600,-0.675640,0.609600,-0.675640,1.000760,-0.284480,1.000760,0.284480,0.609600,0.675640,-0.609600,0.675640,-1.000760,0.284480,0.0*
1,1,0.780000,-0.609600,0.284480*
1,1,0.780000,-0.609600,-0.284480*
1,1,0.780000,0.609600,-0.284480*
1,1,0.780000,0.609600,0.284480*
%
%ADD48C,1.699997*%
%ADD49R,1.699997X1.699997*%
%ADD52C,1.199998*%
%ADD56C,0.999998*%
%ADD64R,1.199998X1.199998*%
G04~CAMADD=75~8~0.0~0.0~354.3~590.6~110.2~0.0~15~0.0~0.0~0.0~0.0~0~0.0~0.0~0.0~0.0~0~0.0~0.0~0.0~0.0~354.3~590.6*
%ADD75D75*%
G04~CAMADD=76~8~0.0~0.0~433.1~590.6~129.9~0.0~15~0.0~0.0~0.0~0.0~0~0.0~0.0~0.0~0.0~0~0.0~0.0~0.0~270.0~592.0~433.0*
%ADD76D76*%
%ADD81R,2.399995X0.799998*%
%ADD82O,2.399995X0.799998*%
G04~CAMADD=91~8~0.0~0.0~354.3~590.6~110.2~0.0~15~0.0~0.0~0.0~0.0~0~0.0~0.0~0.0~0.0~0~0.0~0.0~0.0~270.0~590.0~354.0*
%ADD91D91*%
G04~CAMADD=95~8~0.0~0.0~433.1~590.6~129.9~0.0~15~0.0~0.0~0.0~0.0~0~0.0~0.0~0.0~0.0~0~0.0~0.0~0.0~0.0~433.1~590.6*
%ADD95D95*%
G04~CAMADD=96~8~0.0~0.0~531.5~787.4~153.5~0.0~15~0.0~0.0~0.0~0.0~0~0.0~0.0~0.0~0.0~0~0.0~0.0~0.0~180.0~532.0~788.0*
%ADD96D96*%
%ADD99C,3.699993*%
%ADD100C,3.199994*%
%ADD101C,1.899996*%
%ADD102R,1.899996X1.899996*%
%ADD103R,1.699997X1.699997*%
%ADD104O,2.199996X3.199994*%
%ADD105C,1.399997*%
%ADD106R,1.399997X1.399997*%
%ADD107C,2.699995*%
%ADD108C,1.699997*%
%ADD109R,1.699997X1.699997*%
%ADD110R,1.699997X1.699997*%
%ADD111R,2.199996X2.199996*%
%ADD112C,2.199996*%
%ADD113O,1.399997X1.999996*%
%ADD114R,2.699995X2.699995*%
%ADD115R,1.399997X1.399997*%
%ADD116C,6.199988*%
%ADD117C,2.199996*%
%ADD118C,1.769996*%
G04~CAMADD=119~8~0.0~0.0~378.0~378.0~114.2~0.0~15~0.0~0.0~0.0~0.0~0~0.0~0.0~0.0~0.0~0~0.0~0.0~0.0~90.0~378.0~378.0*
%ADD119D119*%
%ADD120R,1.349997X0.799998*%
%ADD121O,0.799998X2.099996*%
%ADD122R,0.799998X2.099996*%
G04~CAMADD=123~8~0.0~0.0~531.5~787.4~153.5~0.0~15~0.0~0.0~0.0~0.0~0~0.0~0.0~0.0~0.0~0~0.0~0.0~0.0~90.0~788.0~532.0*
%ADD123D123*%
%LNpcb_monitoring_mothb-1*%
%LPD*%
G54D48*
X00321Y000893D03*
X003337Y00064D03*
X003464Y000893D03*
X003591Y00064D03*
X003718Y000893D03*
X003845Y00064D03*
X003972Y000893D03*
X017699Y000254D03*
Y000508D03*
Y000762D03*
X014613Y005029D03*
X014867D03*
X015121D03*
X00792Y001399D03*
X007666D03*
X007412D03*
X006208Y001089D03*
X013457Y001772D03*
X012949D03*
X012441D03*
X012695D03*
X013203D03*
X013711D03*
Y002026D03*
X013457D03*
X013203D03*
X012949D03*
X012695D03*
X012441D03*
X012187D03*
X000176Y003111D03*
X-000076D03*
X000176Y002857D03*
X-000076D03*
Y002603D03*
X000176D03*
X-000076Y002349D03*
X000176D03*
X-000076Y002095D03*
X000176D03*
X-000076Y001841D03*
X000176D03*
X-000076Y001587D03*
X016311Y006322D03*
Y006576D03*
X016057Y006322D03*
Y006576D03*
X015803D03*
Y006322D03*
X015549Y006576D03*
Y006322D03*
X015295Y006576D03*
Y006322D03*
X015041Y006576D03*
Y006322D03*
X014787Y006576D03*
X012911Y006322D03*
Y006576D03*
X012657Y006322D03*
Y006576D03*
X012403D03*
Y006322D03*
X012149Y006576D03*
Y006322D03*
X011895Y006576D03*
Y006322D03*
X011641Y006576D03*
Y006322D03*
X011387Y006576D03*
X002003Y004149D03*
X002257D03*
X002511D03*
X000635Y-000044D03*
X001084D03*
X003274Y005449D03*
X002874D03*
Y004949D03*
X003274D03*
X004124D03*
G54D49*
X003083Y00064D03*
X014359Y005029D03*
X008174Y001399D03*
X005954Y001089D03*
X012187Y001772D03*
X014787Y006322D03*
X011387D03*
X001749Y004149D03*
G54D52*
X014499Y003224D03*
X012234Y003607D03*
X011694D03*
X010249Y003604D03*
X013249Y004074D03*
X012939Y000406D03*
X011802D03*
X010664D03*
X009527D03*
X003274Y002195D03*
X003641Y002034D03*
X001179Y003289D03*
X003549Y00635D03*
X002959Y006534D03*
Y006134D03*
X002509D03*
Y006334D03*
Y006534D03*
X002809Y006134D03*
X002659D03*
X001579Y005641D03*
X001072Y001941D03*
X001334Y001559D03*
X002081Y002739D03*
X002466Y002744D03*
X001634Y001959D03*
X002022Y001957D03*
X002987Y001494D03*
Y001351D03*
X000956Y003652D03*
X011831Y002554D03*
X013004Y004821D03*
X012299Y003999D03*
X002809Y006334D03*
X002959D03*
X002809Y006534D03*
X002659D03*
Y006334D03*
G54D56*
X012709Y004359D03*
X002366Y000759D03*
Y000884D03*
X012579Y004709D03*
Y004589D03*
X013989Y005039D03*
X014549Y004509D03*
Y004379D03*
G54D64*
X014499Y003424D03*
X012234Y003407D03*
X011694D03*
X010249Y003404D03*
G54D75*
X007456Y001101D03*
X007237D03*
X007964Y000899D03*
X008184D03*
X000972Y000164D03*
X000752D03*
X002407Y000369D03*
X002626D03*
X001957D03*
X002176D03*
X001534D03*
X001754D03*
X004034Y006049D03*
X003814D03*
X014979Y005259D03*
X014759D03*
G54D76*
X008849Y000704D03*
Y000894D03*
X007699Y000704D03*
Y000894D03*
X001789Y002369D03*
Y002559D03*
X007149Y002229D03*
Y002419D03*
X007099Y003369D03*
Y003179D03*
X011799Y004894D03*
Y004704D03*
Y004204D03*
Y004394D03*
G54D81*
X001519Y00194D03*
G54D82*
X000889Y001559D03*
Y001685D03*
Y001813D03*
Y00194D03*
X001519Y001559D03*
Y001685D03*
Y001813D03*
G54D91*
X015899Y002159D03*
Y001939D03*
X015875Y001189D03*
Y001409D03*
X015299Y002159D03*
Y001939D03*
X015274Y001189D03*
Y001409D03*
X014699Y002159D03*
Y001939D03*
X014674Y001189D03*
Y001409D03*
X014099Y002159D03*
Y001939D03*
X014074Y001189D03*
Y001409D03*
X011549Y001189D03*
Y001409D03*
X011574Y002159D03*
Y001939D03*
X012924Y000834D03*
Y000614D03*
X011799Y000834D03*
Y000614D03*
X010974Y002159D03*
Y001939D03*
X010949Y001189D03*
Y001409D03*
X009525Y000834D03*
Y000614D03*
X010374Y002159D03*
Y001939D03*
X010349Y001189D03*
Y001409D03*
X010674Y000834D03*
Y000614D03*
X002984Y002104D03*
Y001884D03*
X00273Y002104D03*
Y001884D03*
X002476Y002104D03*
Y001884D03*
X002222Y002104D03*
Y001884D03*
X009749Y001189D03*
Y001409D03*
X009774Y002159D03*
Y001939D03*
X001019Y003396D03*
Y003176D03*
X001387Y002701D03*
Y002482D03*
X000822Y003396D03*
Y003176D03*
X006874Y003384D03*
Y003164D03*
X006649Y003384D03*
Y003164D03*
X006424Y003384D03*
Y003164D03*
X007999Y003759D03*
Y003539D03*
X008224D03*
Y003759D03*
G54D95*
X016269Y001324D03*
X016079D03*
X015669D03*
X015479D03*
X015069Y001299D03*
X014879D03*
X014469D03*
X014279D03*
X011944D03*
X011754D03*
X011344D03*
X011154D03*
X010744D03*
X010554D03*
X010144D03*
X009954D03*
X002369Y002857D03*
X002179D03*
X005979Y003175D03*
X006169D03*
X005944Y005261D03*
X006134D03*
X001749Y004374D03*
X001939D03*
X002322D03*
X002511D03*
X003829Y005849D03*
X004019D03*
X014774Y004799D03*
X014964D03*
G54D96*
X000199Y004849D03*
X000499D03*
X006234Y001392D03*
X005934D03*
X000199Y005849D03*
X000499D03*
G54D99*
X0041Y000004D03*
X002957D03*
G54D100*
X004491Y000004D03*
X005507D03*
X006918D03*
X007685D03*
X008822D03*
X008056D03*
X009574D03*
X010339D03*
X011477D03*
X010711D03*
X011849D03*
X012614D03*
X013752D03*
X012986D03*
G54D101*
X005316Y00064D03*
X005189Y000893D03*
X004809Y00064D03*
X005062D03*
X004936Y000893D03*
X007493D03*
X007366Y00064D03*
X007239Y000893D03*
X008375D03*
X008503Y00064D03*
X00863Y000893D03*
X010147D03*
X01002Y00064D03*
X009893Y000893D03*
X011031D03*
X011157Y00064D03*
X011285Y000893D03*
X012422D03*
X012295Y00064D03*
X012168Y000893D03*
X013306D03*
X013433Y00064D03*
X013559Y000893D03*
G54D102*
X004682Y000893D03*
X007112Y00064D03*
X008249D03*
X009766D03*
X010903D03*
X012041D03*
X013178D03*
G54D103*
X017699Y0D03*
X000176Y001587D03*
X004124Y005449D03*
G54D104*
X014194Y0D03*
X014544D03*
X014894D03*
X015244D03*
X015594D03*
X015944D03*
X016294D03*
X016644D03*
G54D105*
X00273Y001894D03*
X002983D03*
X002222D03*
X002475D03*
X002124Y005137D03*
G54D106*
X00273Y002094D03*
X002983D03*
X002222D03*
X002475D03*
G54D107*
X-000049Y005849D03*
Y005349D03*
Y004849D03*
Y004349D03*
X000749Y004345D03*
Y004853D03*
Y005345D03*
Y005853D03*
X002937Y004344D03*
G54D108*
X016151Y00233D03*
X015897D03*
X016151Y001568D03*
X015551Y00233D03*
X015297D03*
X015551Y001568D03*
X014951Y00233D03*
X014697D03*
X014951Y001568D03*
X014351Y00233D03*
X014097D03*
X014351Y001568D03*
X011826Y00233D03*
X011572D03*
X011826Y001568D03*
X011226Y00233D03*
X010972D03*
X011226Y001568D03*
X010626Y00233D03*
X010372D03*
X010626Y001568D03*
X010026Y00233D03*
X009772D03*
X010026Y001568D03*
X001585Y002213D03*
Y002467D03*
Y002721D03*
Y002975D03*
X000823Y002213D03*
Y002467D03*
Y002721D03*
X008755Y003048D03*
Y003302D03*
X007993Y003048D03*
G54D109*
X015897Y001568D03*
X015297D03*
X014697D03*
X014097D03*
X011572D03*
X010972D03*
X010372D03*
X009772D03*
G54D110*
X000823Y002975D03*
X007993Y003302D03*
G54D111*
X005775Y004982D03*
X006151Y000381D03*
G54D112*
X006283Y004982D03*
X007045D03*
Y00295D03*
X005013D03*
X005897Y-000381D03*
X006151D03*
X005897Y000381D03*
X001209Y000204D03*
X000509D03*
X009199Y006571D03*
G54D113*
X002643Y-000159D03*
X00239D03*
X001944D03*
X002199D03*
X001761D03*
X001507D03*
G54D114*
X004469Y004349D03*
G54D115*
X002124Y005461D03*
G54D116*
X009249Y003249D03*
X004849Y006499D03*
X002049D03*
X017499D03*
Y003249D03*
X0Y0D03*
Y006499D03*
X007999Y001999D03*
X017499D03*
G54D117*
X000629Y001259D03*
Y001006D03*
Y000752D03*
G54D118*
X012099Y004803D03*
Y004295D03*
G54D119*
X008335Y000324D03*
X008563Y000229D03*
Y000419D03*
X00721Y000324D03*
X007438Y000229D03*
Y000419D03*
G54D120*
X002401Y000119D03*
X002626Y000024D03*
Y000214D03*
X001951Y000119D03*
X002176Y000024D03*
Y000214D03*
X001526Y000119D03*
X001751Y000024D03*
Y000214D03*
G54D121*
X007334Y003709D03*
X00746D03*
X007588D03*
X007714D03*
X007334Y003089D03*
X00746D03*
X007588D03*
G54D122*
X007714Y003089D03*
G54D123*
X005949Y000149D03*
Y-000149D03*
X006199Y000149D03*
Y-000149D03*
X006899Y002199D03*
Y002499D03*
X006599Y002199D03*
Y002499D03*
X006299Y002199D03*
Y002499D03*
X005999Y002199D03*
Y002499D03*
M02*