%FSTAX42Y42*%
%MOMM*%
%SFA1B1*%

%IPPOS*%
%AMD75*
4,1,8,0.170180,0.749300,-0.170180,0.749300,-0.449580,0.469900,-0.449580,-0.469900,-0.170180,-0.749300,0.170180,-0.749300,0.449580,-0.469900,0.449580,0.469900,0.170180,0.749300,0.0*
1,1,0.560000,0.170180,0.469900*
1,1,0.560000,-0.170180,0.469900*
1,1,0.560000,-0.170180,-0.469900*
1,1,0.560000,0.170180,-0.469900*
%
%AMD76*
4,1,8,0.749300,-0.220980,0.749300,0.220980,0.419100,0.551180,-0.419100,0.551180,-0.749300,0.220980,-0.749300,-0.220980,-0.419100,-0.551180,0.419100,-0.551180,0.749300,-0.220980,0.0*
1,1,0.660000,0.419100,-0.220980*
1,1,0.660000,0.419100,0.220980*
1,1,0.660000,-0.419100,0.220980*
1,1,0.660000,-0.419100,-0.220980*
%
%AMD87*
4,1,8,1.849120,-0.398780,1.849120,0.398780,1.348740,0.899160,-1.348740,0.899160,-1.849120,0.398780,-1.849120,-0.398780,-1.348740,-0.899160,1.348740,-0.899160,1.849120,-0.398780,0.0*
1,1,1.000000,1.348740,-0.398780*
1,1,1.000000,1.348740,0.398780*
1,1,1.000000,-1.348740,0.398780*
1,1,1.000000,-1.348740,-0.398780*
%
%AMD88*
4,1,8,5.600700,-2.499360,5.600700,2.499360,2.999740,5.100320,-2.999740,5.100320,-5.600700,2.499360,-5.600700,-2.499360,-2.999740,-5.100320,2.999740,-5.100320,5.600700,-2.499360,0.0*
1,1,5.200000,2.999740,-2.499360*
1,1,5.200000,2.999740,2.499360*
1,1,5.200000,-2.999740,2.499360*
1,1,5.200000,-2.999740,-2.499360*
%
%AMD89*
4,1,8,-1.600200,0.248920,-1.600200,-0.248920,-1.249680,-0.599440,1.249680,-0.599440,1.600200,-0.248920,1.600200,0.248920,1.249680,0.599440,-1.249680,0.599440,-1.600200,0.248920,0.0*
1,1,0.700000,-1.249680,0.248920*
1,1,0.700000,-1.249680,-0.248920*
1,1,0.700000,1.249680,-0.248920*
1,1,0.700000,1.249680,0.248920*
%
%AMD91*
4,1,8,0.749300,-0.170180,0.749300,0.170180,0.469900,0.449580,-0.469900,0.449580,-0.749300,0.170180,-0.749300,-0.170180,-0.469900,-0.449580,0.469900,-0.449580,0.749300,-0.170180,0.0*
1,1,0.560000,0.469900,-0.170180*
1,1,0.560000,0.469900,0.170180*
1,1,0.560000,-0.469900,0.170180*
1,1,0.560000,-0.469900,-0.170180*
%
%AMD92*
4,1,8,-0.500380,-1.198880,0.500380,-1.198880,1.099820,-0.599440,1.099820,0.599440,0.500380,1.198880,-0.500380,1.198880,-1.099820,0.599440,-1.099820,-0.599440,-0.500380,-1.198880,0.0*
1,1,1.200000,-0.500380,-0.599440*
1,1,1.200000,0.500380,-0.599440*
1,1,1.200000,0.500380,0.599440*
1,1,1.200000,-0.500380,0.599440*
%
%AMD93*
4,1,8,1.198880,-0.500380,1.198880,0.500380,0.599440,1.099820,-0.599440,1.099820,-1.198880,0.500380,-1.198880,-0.500380,-0.599440,-1.099820,0.599440,-1.099820,1.198880,-0.500380,0.0*
1,1,1.200000,0.599440,-0.500380*
1,1,1.200000,0.599440,0.500380*
1,1,1.200000,-0.599440,0.500380*
1,1,1.200000,-0.599440,-0.500380*
%
%AMD94*
4,1,8,1.750060,-0.629920,1.750060,0.629920,1.031240,1.348740,-1.031240,1.348740,-1.750060,0.629920,-1.750060,-0.629920,-1.031240,-1.348740,1.031240,-1.348740,1.750060,-0.629920,0.0*
1,1,1.440000,1.031240,-0.629920*
1,1,1.440000,1.031240,0.629920*
1,1,1.440000,-1.031240,0.629920*
1,1,1.440000,-1.031240,-0.629920*
%
%AMD95*
4,1,8,0.220980,0.749300,-0.220980,0.749300,-0.551180,0.419100,-0.551180,-0.419100,-0.220980,-0.749300,0.220980,-0.749300,0.551180,-0.419100,0.551180,0.419100,0.220980,0.749300,0.0*
1,1,0.660000,0.220980,0.419100*
1,1,0.660000,-0.220980,0.419100*
1,1,0.660000,-0.220980,-0.419100*
1,1,0.660000,0.220980,-0.419100*
%
%AMD96*
4,1,8,-0.284480,-1.000760,0.284480,-1.000760,0.675640,-0.609600,0.675640,0.609600,0.284480,1.000760,-0.284480,1.000760,-0.675640,0.609600,-0.675640,-0.609600,-0.284480,-1.000760,0.0*
1,1,0.780000,-0.284480,-0.609600*
1,1,0.780000,0.284480,-0.609600*
1,1,0.780000,0.284480,0.609600*
1,1,0.780000,-0.284480,0.609600*
%
%ADD48C,1.699997*%
%ADD49R,1.699997X1.699997*%
%ADD52C,1.199998*%
%ADD56C,0.999998*%
%ADD64R,1.199998X1.199998*%
G04~CAMADD=75~8~0.0~0.0~354.3~590.6~110.2~0.0~15~0.0~0.0~0.0~0.0~0~0.0~0.0~0.0~0.0~0~0.0~0.0~0.0~0.0~354.3~590.6*
%ADD75D75*%
G04~CAMADD=76~8~0.0~0.0~433.1~590.6~129.9~0.0~15~0.0~0.0~0.0~0.0~0~0.0~0.0~0.0~0.0~0~0.0~0.0~0.0~270.0~592.0~433.0*
%ADD76D76*%
%ADD77O,0.449999X1.749997*%
%ADD78O,1.749997X0.449999*%
%ADD79R,1.749997X0.449999*%
%ADD80R,1.199998X1.199998*%
%ADD81R,2.399995X0.799998*%
%ADD82O,2.399995X0.799998*%
%ADD83O,2.099996X0.799998*%
%ADD84R,2.099996X0.799998*%
%ADD85O,0.799998X2.399995*%
%ADD86R,0.799998X2.399995*%
G04~CAMADD=87~8~0.0~0.0~708.7~1456.7~196.9~0.0~15~0.0~0.0~0.0~0.0~0~0.0~0.0~0.0~0.0~0~0.0~0.0~0.0~270.0~1456.0~708.0*
%ADD87D87*%
G04~CAMADD=88~8~0.0~0.0~4015.7~4409.4~1023.6~0.0~15~0.0~0.0~0.0~0.0~0~0.0~0.0~0.0~0.0~0~0.0~0.0~0.0~270.0~4410.0~4016.0*
%ADD88D88*%
G04~CAMADD=89~8~0.0~0.0~472.4~1259.8~137.8~0.0~15~0.0~0.0~0.0~0.0~0~0.0~0.0~0.0~0.0~0~0.0~0.0~0.0~90.0~1260.0~473.0*
%ADD89D89*%
%ADD90R,8.499983X10.799978*%
G04~CAMADD=91~8~0.0~0.0~354.3~590.6~110.2~0.0~15~0.0~0.0~0.0~0.0~0~0.0~0.0~0.0~0.0~0~0.0~0.0~0.0~270.0~590.0~354.0*
%ADD91D91*%
G04~CAMADD=92~8~0.0~0.0~866.1~944.9~236.2~0.0~15~0.0~0.0~0.0~0.0~0~0.0~0.0~0.0~0.0~0~0.0~0.0~0.0~180.0~866.0~944.0*
%ADD92D92*%
G04~CAMADD=93~8~0.0~0.0~866.1~944.9~236.2~0.0~15~0.0~0.0~0.0~0.0~0~0.0~0.0~0.0~0.0~0~0.0~0.0~0.0~270.0~944.0~866.0*
%ADD93D93*%
G04~CAMADD=94~8~0.0~0.0~1063.0~1378.0~283.5~0.0~15~0.0~0.0~0.0~0.0~0~0.0~0.0~0.0~0.0~0~0.0~0.0~0.0~270.0~1378.0~1063.0*
%ADD94D94*%
G04~CAMADD=95~8~0.0~0.0~433.1~590.6~129.9~0.0~15~0.0~0.0~0.0~0.0~0~0.0~0.0~0.0~0.0~0~0.0~0.0~0.0~0.0~433.1~590.6*
%ADD95D95*%
G04~CAMADD=96~8~0.0~0.0~531.5~787.4~153.5~0.0~15~0.0~0.0~0.0~0.0~0~0.0~0.0~0.0~0.0~0~0.0~0.0~0.0~180.0~532.0~788.0*
%ADD96D96*%
%ADD97R,3.499993X2.599995*%
%ADD98R,1.199998X2.599995*%
%ADD99C,3.699993*%
%ADD100C,3.199994*%
%ADD101C,1.899996*%
%ADD102R,1.899996X1.899996*%
%ADD103R,1.699997X1.699997*%
%ADD104O,2.199996X3.199994*%
%ADD105C,1.399997*%
%ADD106R,1.399997X1.399997*%
%ADD107C,2.699995*%
%ADD108C,1.699997*%
%ADD109R,1.699997X1.699997*%
%ADD110R,1.699997X1.699997*%
%ADD111R,2.199996X2.199996*%
%ADD112C,2.199996*%
%ADD113O,1.399997X1.999996*%
%ADD114R,2.699995X2.699995*%
%ADD115R,1.399997X1.399997*%
%ADD116C,6.199988*%
%ADD117C,2.199996*%
%ADD118C,1.769996*%
%LNpcb_monitoring_mothb-1*%
%LPD*%
G54D48*
X00321Y000893D03*
X003337Y00064D03*
X003464Y000893D03*
X003591Y00064D03*
X003718Y000893D03*
X003845Y00064D03*
X003972Y000893D03*
X017699Y000254D03*
Y000508D03*
Y000762D03*
X014613Y005029D03*
X014867D03*
X015121D03*
X00792Y001399D03*
X007666D03*
X007412D03*
X006208Y001089D03*
X013457Y001772D03*
X012949D03*
X012441D03*
X012695D03*
X013203D03*
X013711D03*
Y002026D03*
X013457D03*
X013203D03*
X012949D03*
X012695D03*
X012441D03*
X012187D03*
X000176Y003111D03*
X-000076D03*
X000176Y002857D03*
X-000076D03*
Y002603D03*
X000176D03*
X-000076Y002349D03*
X000176D03*
X-000076Y002095D03*
X000176D03*
X-000076Y001841D03*
X000176D03*
X-000076Y001587D03*
X016311Y006322D03*
Y006576D03*
X016057Y006322D03*
Y006576D03*
X015803D03*
Y006322D03*
X015549Y006576D03*
Y006322D03*
X015295Y006576D03*
Y006322D03*
X015041Y006576D03*
Y006322D03*
X014787Y006576D03*
X012911Y006322D03*
Y006576D03*
X012657Y006322D03*
Y006576D03*
X012403D03*
Y006322D03*
X012149Y006576D03*
Y006322D03*
X011895Y006576D03*
Y006322D03*
X011641Y006576D03*
Y006322D03*
X011387Y006576D03*
X002003Y004149D03*
X002257D03*
X002511D03*
X000635Y-000044D03*
X001084D03*
X003274Y005449D03*
X002874D03*
Y004949D03*
X003274D03*
X004124D03*
G54D49*
X003083Y00064D03*
X014359Y005029D03*
X008174Y001399D03*
X005954Y001089D03*
X012187Y001772D03*
X014787Y006322D03*
X011387D03*
X001749Y004149D03*
G54D52*
X014499Y003224D03*
X012234Y003607D03*
X011694D03*
X010249Y003604D03*
X013249Y004074D03*
X012939Y000406D03*
X011802D03*
X010664D03*
X009527D03*
X003274Y002195D03*
X003641Y002034D03*
X001179Y003289D03*
X003549Y00635D03*
X002959Y006534D03*
Y006134D03*
X002509D03*
Y006334D03*
Y006534D03*
X002809Y006134D03*
X002659D03*
X001579Y005641D03*
X001072Y001941D03*
X001334Y001559D03*
X002081Y002739D03*
X002466Y002744D03*
X001634Y001959D03*
X002022Y001957D03*
X002987Y001494D03*
Y001351D03*
X000956Y003652D03*
X011831Y002554D03*
X013004Y004821D03*
X012299Y003999D03*
X002809Y006334D03*
X002959D03*
X002809Y006534D03*
X002659D03*
Y006334D03*
G54D56*
X012709Y004359D03*
X002366Y000759D03*
Y000884D03*
X012579Y004709D03*
Y004589D03*
X013989Y005039D03*
X014549Y004509D03*
Y004379D03*
G54D64*
X014499Y003424D03*
X012234Y003407D03*
X011694D03*
X010249Y003404D03*
G54D75*
X008849Y003574D03*
X008629D03*
X002644Y000169D03*
X002424D03*
X002199D03*
X001979D03*
X001761D03*
X001542D03*
G54D76*
X014124Y003229D03*
Y003419D03*
X012621Y005046D03*
Y004857D03*
X012811Y005046D03*
Y004857D03*
X001429Y000824D03*
Y001014D03*
X001649Y000824D03*
Y001014D03*
X001429Y001394D03*
Y001204D03*
X001649D03*
Y001394D03*
X002824Y001419D03*
Y001229D03*
G54D77*
X013199Y004852D03*
X013249D03*
X013299D03*
X013349D03*
X013399D03*
X013449D03*
X013499D03*
X013549D03*
X013599D03*
X013649D03*
X013699D03*
X013749D03*
X013799D03*
X013849D03*
X013899D03*
X013949D03*
Y003646D03*
X013899D03*
X013849D03*
X013799D03*
X013749D03*
X013699D03*
X013649D03*
X013599D03*
X013549D03*
X013499D03*
X013449D03*
X013399D03*
X013349D03*
X013299D03*
X013249D03*
X013199D03*
G54D78*
X014176Y004624D03*
Y004574D03*
Y004524D03*
Y004474D03*
Y004424D03*
Y004374D03*
Y004324D03*
Y004274D03*
Y004224D03*
Y004174D03*
Y004124D03*
Y004074D03*
Y004024D03*
Y003974D03*
Y003924D03*
Y003874D03*
X012972D03*
Y003924D03*
Y003974D03*
Y004024D03*
Y004074D03*
Y004124D03*
Y004174D03*
Y004224D03*
Y004274D03*
Y004324D03*
Y004374D03*
Y004424D03*
Y004474D03*
Y004524D03*
Y004574D03*
G54D79*
X012972Y004624D03*
G54D80*
X013479Y0D03*
X013269D03*
X012329D03*
X012119D03*
X011204D03*
X010994D03*
X010054D03*
X009844D03*
G54D81*
X001934Y001393D03*
X001587Y003251D03*
G54D82*
X001934Y001267D03*
Y001139D03*
Y001013D03*
Y000885D03*
Y000758D03*
Y000631D03*
Y000504D03*
X002564Y001393D03*
Y001267D03*
Y001139D03*
Y001013D03*
Y000885D03*
Y000758D03*
Y000631D03*
Y000504D03*
X000956Y003632D03*
Y003505D03*
Y003378D03*
Y003251D03*
X001587Y003632D03*
Y003505D03*
Y003378D03*
G54D83*
X003789Y001226D03*
Y001353D03*
Y00148D03*
Y001607D03*
X003169Y001226D03*
Y001353D03*
Y00148D03*
G54D84*
X003169Y001607D03*
G54D85*
X002081Y002594D03*
X002208D03*
X002335D03*
X002462D03*
X002081Y003224D03*
X002208D03*
X002335D03*
G54D86*
X002462Y003224D03*
G54D87*
X00951Y005063D03*
Y004555D03*
G54D88*
X010548Y004809D03*
G54D89*
X003914Y006154D03*
Y006494D03*
Y006664D03*
Y005984D03*
Y006324D03*
G54D90*
X002847Y006324D03*
G54D91*
X003274Y001814D03*
Y002034D03*
X003499Y001814D03*
Y002034D03*
X004224Y006464D03*
Y006684D03*
G54D92*
X004224Y001922D03*
X003754D03*
X003264Y002364D03*
X003734D03*
G54D93*
X001274Y004534D03*
Y004064D03*
X000674Y006759D03*
Y006289D03*
G54D94*
X001374Y005649D03*
Y004899D03*
Y006049D03*
Y006799D03*
G54D95*
X002564Y001574D03*
X002374D03*
X009789Y004164D03*
X009979D03*
X012234Y003869D03*
X012424D03*
G54D96*
X009809Y005511D03*
X009509D03*
G54D97*
X010954Y003144D03*
G54D98*
X010724Y003724D03*
X010954D03*
X011184D03*
G54D99*
X0041Y000004D03*
X002957D03*
G54D100*
X004491Y000004D03*
X005507D03*
X006918D03*
X007685D03*
X008822D03*
X008056D03*
X009574D03*
X010339D03*
X011477D03*
X010711D03*
X011849D03*
X012614D03*
X013752D03*
X012986D03*
G54D101*
X005316Y00064D03*
X005189Y000893D03*
X004809Y00064D03*
X005062D03*
X004936Y000893D03*
X007493D03*
X007366Y00064D03*
X007239Y000893D03*
X008375D03*
X008503Y00064D03*
X00863Y000893D03*
X010147D03*
X01002Y00064D03*
X009893Y000893D03*
X011031D03*
X011157Y00064D03*
X011285Y000893D03*
X012422D03*
X012295Y00064D03*
X012168Y000893D03*
X013306D03*
X013433Y00064D03*
X013559Y000893D03*
G54D102*
X004682Y000893D03*
X007112Y00064D03*
X008249D03*
X009766D03*
X010903D03*
X012041D03*
X013178D03*
G54D103*
X017699Y0D03*
X000176Y001587D03*
X004124Y005449D03*
G54D104*
X014194Y0D03*
X014544D03*
X014894D03*
X015244D03*
X015594D03*
X015944D03*
X016294D03*
X016644D03*
G54D105*
X00273Y001894D03*
X002983D03*
X002222D03*
X002475D03*
X002124Y005137D03*
G54D106*
X00273Y002094D03*
X002983D03*
X002222D03*
X002475D03*
G54D107*
X-000049Y005849D03*
Y005349D03*
Y004849D03*
Y004349D03*
X000749Y004345D03*
Y004853D03*
Y005345D03*
Y005853D03*
X002937Y004344D03*
G54D108*
X016151Y00233D03*
X015897D03*
X016151Y001568D03*
X015551Y00233D03*
X015297D03*
X015551Y001568D03*
X014951Y00233D03*
X014697D03*
X014951Y001568D03*
X014351Y00233D03*
X014097D03*
X014351Y001568D03*
X011826Y00233D03*
X011572D03*
X011826Y001568D03*
X011226Y00233D03*
X010972D03*
X011226Y001568D03*
X010626Y00233D03*
X010372D03*
X010626Y001568D03*
X010026Y00233D03*
X009772D03*
X010026Y001568D03*
X001585Y002213D03*
Y002467D03*
Y002721D03*
Y002975D03*
X000823Y002213D03*
Y002467D03*
Y002721D03*
X008755Y003048D03*
Y003302D03*
X007993Y003048D03*
G54D109*
X015897Y001568D03*
X015297D03*
X014697D03*
X014097D03*
X011572D03*
X010972D03*
X010372D03*
X009772D03*
G54D110*
X000823Y002975D03*
X007993Y003302D03*
G54D111*
X005775Y004982D03*
X006151Y000381D03*
G54D112*
X006283Y004982D03*
X007045D03*
Y00295D03*
X005013D03*
X005897Y-000381D03*
X006151D03*
X005897Y000381D03*
X001209Y000204D03*
X000509D03*
X009199Y006571D03*
G54D113*
X002643Y-000159D03*
X00239D03*
X001944D03*
X002199D03*
X001761D03*
X001507D03*
G54D114*
X004469Y004349D03*
G54D115*
X002124Y005461D03*
G54D116*
X009249Y003249D03*
X004849Y006499D03*
X002049D03*
X017499D03*
Y003249D03*
X0Y0D03*
Y006499D03*
X007999Y001999D03*
X017499D03*
G54D117*
X000629Y001259D03*
Y001006D03*
Y000752D03*
G54D118*
X012099Y004803D03*
Y004295D03*
M02*