%FSTAX42Y42*%
%MOMM*%
%SFA1B1*%

%IPPOS*%
%ADD29C,3.199994*%
%ADD30C,2.199996*%
%ADD31C,1.699997*%
%ADD32R,1.699997X1.699997*%
%ADD33O,2.199996X3.199994*%
%ADD34C,7.199986*%
%ADD35C,1.199998*%
%LNpcb_monitoring_bott_back-1*%
%LPD*%
G54D29*
X001749Y003424D03*
X000749D03*
X001249D03*
X000249D03*
X-000749D03*
X-000249D03*
X-001249D03*
X-002249D03*
X-001749D03*
X-002749D03*
X-003749D03*
X-003249D03*
X002568Y002511D03*
X001368D03*
X001968Y001091D03*
X002568Y001291D03*
X001368D03*
X000868Y002511D03*
X-00033D03*
X000268Y001091D03*
X000868Y001291D03*
X-00033D03*
X-00083Y002511D03*
X-00203D03*
X-00143Y001091D03*
X-00083Y001291D03*
X-00203D03*
X-00253Y002511D03*
X-00373D03*
X-00313Y001091D03*
X-00253Y001291D03*
X-00373D03*
G54D30*
X003168Y001647D03*
Y002155D03*
Y002663D03*
Y001139D03*
X003856Y001647D03*
Y002155D03*
Y002663D03*
Y001139D03*
X004545Y001647D03*
Y002155D03*
Y002663D03*
Y001139D03*
X005233Y001647D03*
Y002155D03*
Y002663D03*
Y001139D03*
X005921Y001647D03*
Y002155D03*
Y002663D03*
Y001139D03*
X00661Y001647D03*
Y002155D03*
Y002663D03*
Y001139D03*
X007298Y001647D03*
Y002155D03*
Y002663D03*
Y001139D03*
X007987Y001647D03*
Y002155D03*
Y002663D03*
Y001139D03*
X009364Y001647D03*
Y002155D03*
Y002663D03*
Y001139D03*
X010052Y001647D03*
Y002155D03*
Y002663D03*
Y001139D03*
X010741Y001647D03*
Y002155D03*
Y002663D03*
Y001139D03*
X01143Y001647D03*
Y002155D03*
Y002663D03*
Y001139D03*
X012118Y001647D03*
Y002155D03*
Y002663D03*
Y001139D03*
X008675Y001647D03*
Y002155D03*
Y002663D03*
Y001139D03*
G54D31*
X00383Y000074D03*
Y000328D03*
X003576Y000074D03*
Y000328D03*
X003322D03*
Y000074D03*
X003068Y000328D03*
Y000074D03*
X002814Y000328D03*
Y000074D03*
X00256Y000328D03*
Y000074D03*
X002306Y000328D03*
X00813Y000074D03*
Y000328D03*
X007876Y000074D03*
Y000328D03*
X007622D03*
Y000074D03*
X007368Y000328D03*
Y000074D03*
X007114Y000328D03*
Y000074D03*
X00686Y000328D03*
Y000074D03*
X006606Y000328D03*
G54D32*
X002306Y000074D03*
X006606D03*
G54D33*
X002311Y003324D03*
X002661D03*
X003011D03*
X003361D03*
X003832D03*
X004182D03*
X004532D03*
X004882D03*
X005232D03*
X005582D03*
X005932D03*
X006282D03*
X006752D03*
X007102D03*
X007452D03*
X007802D03*
X008152D03*
X008502D03*
X008852D03*
X009202D03*
X009677D03*
X010027D03*
X010377D03*
X010727D03*
X011077D03*
X011427D03*
X011777D03*
X012127D03*
G54D34*
X0Y0D03*
X010999D03*
G54D35*
X005749Y000499D03*
X010382Y000404D03*
X002811Y-000396D03*
M02*