%FSTAX42Y42*%
%MOMM*%
%SFA1B1*%

%IPPOS*%
%ADD30C,0.200000*%
%ADD31C,0.100000*%
%LNpcb_monitoring_top_front-1*%
%LPD*%
G54D30*
X002223Y00004D02*
D01*
X002228Y000041*
X002232Y000041*
X002237Y000042*
X002241Y000043*
X002245Y000044*
X002249Y000046*
X002253Y000048*
X002257Y00005*
X002261Y000053*
X002264Y000055*
X002267Y000058*
X00227Y000061*
X002273Y000065*
X002276Y000068*
X002278Y000072*
X00228Y000076*
X002282Y00008*
X002283Y000084*
X002285Y000088*
X002286Y000093*
X002286Y000097*
X002286Y000101*
Y000106*
X002286Y00011*
X002286Y000114*
X002285Y000119*
X002283Y000123*
X002282Y000127*
X00228Y000131*
X002278Y000135*
X002276Y000139*
X002273Y000142*
X00227Y000146*
X002267Y000149*
X002264Y000152*
X002261Y000154*
X002257Y000157*
X002253Y000159*
X002249Y000161*
X002245Y000163*
X002241Y000164*
X002237Y000165*
X002232Y000166*
X002228Y000166*
X002223Y000167*
X002823Y000041D02*
D01*
X002828Y000042*
X002832Y000042*
X002837Y000043*
X002841Y000044*
X002845Y000045*
X002849Y000047*
X002853Y000049*
X002857Y000051*
X002861Y000054*
X002864Y000056*
X002867Y000059*
X00287Y000062*
X002873Y000066*
X002876Y000069*
X002878Y000073*
X00288Y000077*
X002882Y000081*
X002883Y000085*
X002885Y000089*
X002886Y000094*
X002886Y000098*
X002886Y000102*
Y000107*
X002886Y000111*
X002886Y000115*
X002885Y00012*
X002883Y000124*
X002882Y000128*
X00288Y000132*
X002878Y000136*
X002876Y00014*
X002873Y000143*
X00287Y000147*
X002867Y00015*
X002864Y000153*
X002861Y000155*
X002857Y000158*
X002853Y00016*
X002849Y000162*
X002845Y000164*
X002841Y000165*
X002837Y000166*
X002832Y000167*
X002828Y000167*
X002823Y000168*
X003423Y000041D02*
D01*
X003428Y000042*
X003432Y000042*
X003437Y000043*
X003441Y000044*
X003445Y000045*
X003449Y000047*
X003453Y000049*
X003457Y000051*
X003461Y000054*
X003464Y000056*
X003467Y000059*
X00347Y000062*
X003473Y000066*
X003476Y000069*
X003478Y000073*
X00348Y000077*
X003482Y000081*
X003483Y000085*
X003485Y000089*
X003486Y000094*
X003486Y000098*
X003486Y000102*
Y000107*
X003486Y000111*
X003486Y000115*
X003485Y00012*
X003483Y000124*
X003482Y000128*
X00348Y000132*
X003478Y000136*
X003476Y00014*
X003473Y000143*
X00347Y000147*
X003467Y00015*
X003464Y000153*
X003461Y000155*
X003457Y000158*
X003453Y00016*
X003449Y000162*
X003445Y000164*
X003441Y000165*
X003437Y000166*
X003432Y000167*
X003428Y000167*
X003423Y000168*
X004023Y000041D02*
D01*
X004028Y000042*
X004032Y000042*
X004037Y000043*
X004041Y000044*
X004045Y000045*
X004049Y000047*
X004053Y000049*
X004057Y000051*
X004061Y000054*
X004064Y000056*
X004067Y000059*
X00407Y000062*
X004073Y000066*
X004076Y000069*
X004078Y000073*
X00408Y000077*
X004082Y000081*
X004083Y000085*
X004085Y000089*
X004086Y000094*
X004086Y000098*
X004086Y000102*
Y000107*
X004086Y000111*
X004086Y000115*
X004085Y00012*
X004083Y000124*
X004082Y000128*
X00408Y000132*
X004078Y000136*
X004076Y00014*
X004073Y000143*
X00407Y000147*
X004067Y00015*
X004064Y000153*
X004061Y000155*
X004057Y000158*
X004053Y00016*
X004049Y000162*
X004045Y000164*
X004041Y000165*
X004037Y000166*
X004032Y000167*
X004028Y000167*
X004023Y000168*
X007123Y-000157D02*
D01*
X007128Y-000157*
X007132Y-000157*
X007137Y-000156*
X007141Y-000155*
X007145Y-000154*
X007149Y-000152*
X007153Y-00015*
X007157Y-000148*
X007161Y-000145*
X007164Y-000143*
X007167Y-00014*
X00717Y-000137*
X007173Y-000133*
X007176Y-00013*
X007178Y-000126*
X00718Y-000122*
X007182Y-000118*
X007183Y-000114*
X007185Y-00011*
X007186Y-000105*
X007186Y-000101*
X007186Y-000097*
Y-000092*
X007186Y-000088*
X007186Y-000084*
X007185Y-000079*
X007183Y-000075*
X007182Y-000071*
X00718Y-000067*
X007178Y-000063*
X007176Y-000059*
X007173Y-000056*
X00717Y-000052*
X007167Y-000049*
X007164Y-000046*
X007161Y-000044*
X007157Y-000041*
X007153Y-000039*
X007149Y-000037*
X007145Y-000035*
X007141Y-000034*
X007137Y-000033*
X007132Y-000032*
X007128Y-000032*
X007123Y-00003*
X007723Y-000157D02*
D01*
X007728Y-000157*
X007732Y-000157*
X007737Y-000156*
X007741Y-000155*
X007745Y-000154*
X007749Y-000152*
X007753Y-00015*
X007757Y-000148*
X007761Y-000145*
X007764Y-000143*
X007767Y-00014*
X00777Y-000137*
X007773Y-000133*
X007776Y-00013*
X007778Y-000126*
X00778Y-000122*
X007782Y-000118*
X007783Y-000114*
X007785Y-00011*
X007786Y-000105*
X007786Y-000101*
X007786Y-000097*
Y-000092*
X007786Y-000088*
X007786Y-000084*
X007785Y-000079*
X007783Y-000075*
X007782Y-000071*
X00778Y-000067*
X007778Y-000063*
X007776Y-000059*
X007773Y-000056*
X00777Y-000052*
X007767Y-000049*
X007764Y-000046*
X007761Y-000044*
X007757Y-000041*
X007753Y-000039*
X007749Y-000037*
X007745Y-000035*
X007741Y-000034*
X007737Y-000033*
X007732Y-000032*
X007728Y-000032*
X007723Y-00003*
X008323Y-000157D02*
D01*
X008328Y-000157*
X008332Y-000157*
X008337Y-000156*
X008341Y-000155*
X008345Y-000154*
X008349Y-000152*
X008353Y-00015*
X008357Y-000148*
X008361Y-000145*
X008364Y-000143*
X008367Y-00014*
X00837Y-000137*
X008373Y-000133*
X008376Y-00013*
X008378Y-000126*
X00838Y-000122*
X008382Y-000118*
X008383Y-000114*
X008385Y-00011*
X008386Y-000105*
X008386Y-000101*
X008386Y-000097*
Y-000092*
X008386Y-000088*
X008386Y-000084*
X008385Y-000079*
X008383Y-000075*
X008382Y-000071*
X00838Y-000067*
X008378Y-000063*
X008376Y-000059*
X008373Y-000056*
X00837Y-000052*
X008367Y-000049*
X008364Y-000046*
X008361Y-000044*
X008357Y-000041*
X008353Y-000039*
X008349Y-000037*
X008345Y-000035*
X008341Y-000034*
X008337Y-000033*
X008332Y-000032*
X008328Y-000032*
X008323Y-00003*
X008923Y-000157D02*
D01*
X008928Y-000157*
X008932Y-000157*
X008937Y-000156*
X008941Y-000155*
X008945Y-000154*
X008949Y-000152*
X008953Y-00015*
X008957Y-000148*
X008961Y-000145*
X008964Y-000143*
X008967Y-00014*
X00897Y-000137*
X008973Y-000133*
X008976Y-00013*
X008978Y-000126*
X00898Y-000122*
X008982Y-000118*
X008983Y-000114*
X008985Y-00011*
X008986Y-000105*
X008986Y-000101*
X008986Y-000097*
Y-000092*
X008986Y-000088*
X008986Y-000084*
X008985Y-000079*
X008983Y-000075*
X008982Y-000071*
X00898Y-000067*
X008978Y-000063*
X008976Y-000059*
X008973Y-000056*
X00897Y-000052*
X008967Y-000049*
X008964Y-000046*
X008961Y-000044*
X008957Y-000041*
X008953Y-000039*
X008949Y-000037*
X008945Y-000035*
X008941Y-000034*
X008937Y-000033*
X008932Y-000032*
X008928Y-000032*
X008923Y-00003*
X002223Y000369D02*
X002684D01*
X002223Y-000159D02*
X002684D01*
Y000369*
X002223Y000167D02*
Y000369D01*
Y-000159D02*
Y00004D01*
X002823Y000369D02*
X003284D01*
X002823Y-000159D02*
X003284D01*
Y000369*
X002823Y000168D02*
Y000369D01*
Y-000159D02*
Y000041D01*
X003423Y000369D02*
X003884D01*
X003423Y-000159D02*
X003884D01*
Y000369*
X003423D02*
Y000168D01*
Y-000159D02*
Y000041D01*
X004023Y000369D02*
X004484D01*
X004023Y-000159D02*
X004484D01*
Y000369*
X004023Y000168D02*
Y000369D01*
Y-000159D02*
Y000041D01*
X007123Y000169D02*
X007584D01*
X007123Y-000359D02*
X007584D01*
Y000169*
X007123Y-00003D02*
Y000169D01*
Y-000359D02*
Y-000157D01*
X007723Y000169D02*
X008184D01*
X007723Y-000359D02*
X008184D01*
Y000169*
X007723Y-00003D02*
Y000169D01*
Y-000359D02*
Y-000157D01*
X008323Y000169D02*
X008784D01*
X008323Y-000359D02*
X008784D01*
Y000169*
X008323Y-00003D02*
Y000169D01*
Y-000359D02*
Y-000157D01*
X008923Y000169D02*
X009384D01*
X008923Y-000359D02*
X009384D01*
Y000169*
X008923D02*
Y-00003D01*
Y-000359D02*
Y-000157D01*
X006538Y-000353D02*
Y000152D01*
X00476Y000153D02*
X006538D01*
X00476Y-000353D02*
Y000152D01*
Y-000353D02*
X006538D01*
X009454Y-002809D02*
Y-001829D01*
X006544D02*
X009454D01*
X006544Y-002809D02*
Y-001829D01*
Y-002809D02*
X009454D01*
X009572Y-002126D02*
X009826D01*
X009572D02*
Y-00111D01*
X009826Y-002126D02*
Y-00111D01*
X009572D02*
X009826D01*
X001072Y-002126D02*
X001326D01*
X001072D02*
Y-00111D01*
X001326Y-002126D02*
Y-00111D01*
X001072D02*
X001326D01*
X005449Y000299D02*
X005516Y000199D01*
Y000299D02*
X005449Y000199D01*
X005616D02*
X005549D01*
X005616Y000266*
Y000282*
X005599Y000299*
X005566*
X005549Y000282*
X005716Y000199D02*
X005649D01*
X005716Y000266*
Y000282*
X005699Y000299*
X005666*
X005649Y000282*
X001069Y-000974D02*
X001136Y-001074D01*
Y-000974D02*
X001069Y-001074D01*
X001236D02*
X001169D01*
X001236Y-001007*
Y-000991*
X001219Y-000974*
X001186*
X001169Y-000991*
X001319Y-001074D02*
Y-000974D01*
X00127Y-001024*
X001336*
X009556Y-000977D02*
X009623Y-001076D01*
Y-000977D02*
X009556Y-001076D01*
X009723D02*
X009656D01*
X009723Y-00101*
Y-000993*
X009706Y-000977*
X009673*
X009656Y-000993*
X009756D02*
X009773Y-000977D01*
X009806*
X009823Y-000993*
Y-00106*
X009806Y-001076*
X009773*
X009756Y-00106*
Y-000993*
X002359Y000154D02*
Y000071D01*
X002376Y000054*
X002409*
X002426Y000071*
Y000154*
X002459Y000054D02*
X002492D01*
X002476*
Y000154*
X002459Y000137*
X002609Y000054D02*
X002542D01*
X002609Y000121*
Y000137*
X002592Y000154*
X002559*
X002542Y000137*
X002959Y000154D02*
Y000071D01*
X002976Y000054*
X003009*
X003026Y000071*
Y000154*
X003059Y000054D02*
X003092D01*
X003076*
Y000154*
X003059Y000137*
X003142D02*
X003159Y000154D01*
X003192*
X003209Y000137*
Y000121*
X003192Y000104*
X003176*
X003192*
X003209Y000087*
Y000071*
X003192Y000054*
X003159*
X003142Y000071*
X003559Y000154D02*
Y000071D01*
X003576Y000054*
X003609*
X003626Y000071*
Y000154*
X003659Y000054D02*
X003692D01*
X003676*
Y000154*
X003659Y000137*
X003792Y000054D02*
Y000154D01*
X003742Y000104*
X00381*
X004159Y000154D02*
Y000071D01*
X004176Y000054*
X004209*
X004226Y000071*
Y000154*
X004259Y000054D02*
X004292D01*
X004276*
Y000154*
X004259Y000137*
X004409Y000154D02*
X004342D01*
Y000104*
X004376Y000121*
X004392*
X004409Y000104*
Y000071*
X004392Y000054*
X004359*
X004342Y000071*
X007259Y-000044D02*
Y-000127D01*
X007276Y-000144*
X007309*
X007326Y-000127*
Y-000044*
X007359Y-000144D02*
X007392D01*
X007376*
Y-000044*
X007359Y-000061*
X007442D02*
X007459Y-000044D01*
X007493*
X007509Y-000061*
Y-000077*
X007493Y-000094*
X007509Y-000111*
Y-000127*
X007493Y-000144*
X007459*
X007442Y-000127*
Y-000111*
X007459Y-000094*
X007442Y-000077*
Y-000061*
X007459Y-000094D02*
X007493D01*
X007859Y-000044D02*
Y-000127D01*
X007876Y-000144*
X007909*
X007926Y-000127*
Y-000044*
X008026Y-000144D02*
X007959D01*
X008026Y-000077*
Y-000061*
X008009Y-000044*
X007976*
X007959Y-000061*
X008059D02*
X008076Y-000044D01*
X008109*
X008126Y-000061*
Y-000127*
X008109Y-000144*
X008076*
X008059Y-000127*
Y-000061*
X008459Y-000044D02*
Y-000127D01*
X008476Y-000144*
X008509*
X008526Y-000127*
Y-000044*
X008626Y-000144D02*
X008559D01*
X008626Y-000077*
Y-000061*
X008609Y-000044*
X008576*
X008559Y-000061*
X008659Y-000144D02*
X008692D01*
X008676*
Y-000044*
X008659Y-000061*
X009059Y-000044D02*
Y-000127D01*
X009076Y-000144*
X009109*
X009126Y-000127*
Y-000044*
X009226Y-000144D02*
X009159D01*
X009226Y-000077*
Y-000061*
X009209Y-000044*
X009176*
X009159Y-000061*
X009259D02*
X009276Y-000044D01*
X009309*
X009326Y-000061*
Y-000077*
X009309Y-000094*
X009292*
X009309*
X009326Y-000111*
Y-000127*
X009309Y-000144*
X009276*
X009259Y-000127*
X007849Y-002274D02*
X007916Y-002374D01*
Y-002274D02*
X007849Y-002374D01*
X007949D02*
X007982D01*
X007966*
Y-002274*
X007949Y-002291*
X008099Y-002274D02*
X008032D01*
Y-002324*
X008066Y-002307*
X008082*
X008099Y-002324*
Y-002357*
X008082Y-002374*
X008049*
X008032Y-002357*
X002395Y-000843D02*
X002462Y-000943D01*
Y-000843D02*
X002395Y-000943D01*
X002562Y-00086D02*
X002545Y-000843D01*
X002512*
X002495Y-00086*
Y-000877*
X002512Y-000893*
X002545*
X002562Y-00091*
Y-000927*
X002545Y-000943*
X002512*
X002495Y-000927*
X002595Y-00086D02*
X002612Y-000843D01*
X002645*
X002662Y-00086*
Y-000877*
X002645Y-000893*
X002628*
X002645*
X002662Y-00091*
Y-000927*
X002645Y-000943*
X002612*
X002595Y-000927*
X003543Y-000843D02*
X00361Y-000943D01*
Y-000843D02*
X003543Y-000943D01*
X00371Y-00086D02*
X003693Y-000843D01*
X00366*
X003643Y-00086*
Y-000877*
X00366Y-000893*
X003693*
X00371Y-00091*
Y-000927*
X003693Y-000943*
X00366*
X003643Y-000927*
X003793Y-000943D02*
Y-000843D01*
X003743Y-000893*
X00381*
X004694Y-000843D02*
X004761Y-000943D01*
Y-000843D02*
X004694Y-000943D01*
X004861Y-00086D02*
X004844Y-000843D01*
X004811*
X004794Y-00086*
Y-000877*
X004811Y-000893*
X004844*
X004861Y-00091*
Y-000927*
X004844Y-000943*
X004811*
X004794Y-000927*
X00496Y-000843D02*
X004894D01*
Y-000893*
X004927Y-000877*
X004944*
X00496Y-000893*
Y-000927*
X004944Y-000943*
X00491*
X004894Y-000927*
X005845Y-000843D02*
X005911Y-000943D01*
Y-000843D02*
X005845Y-000943D01*
X006011Y-00086D02*
X005994Y-000843D01*
X005961*
X005944Y-00086*
Y-000877*
X005961Y-000893*
X005994*
X006011Y-00091*
Y-000927*
X005994Y-000943*
X005961*
X005944Y-000927*
X006111Y-000843D02*
X006078Y-00086D01*
X006044Y-000893*
Y-000927*
X006061Y-000943*
X006094*
X006111Y-000927*
Y-00091*
X006094Y-000893*
X006044*
X-000854Y-000842D02*
X-000787Y-000942D01*
Y-000842D02*
X-000854Y-000942D01*
X-000687Y-000859D02*
X-000704Y-000842D01*
X-000737*
X-000754Y-000859*
Y-000876*
X-000737Y-000892*
X-000704*
X-000687Y-000909*
Y-000926*
X-000704Y-000942*
X-000737*
X-000754Y-000926*
X-000654Y-000842D02*
X-000587D01*
Y-000859*
X-000654Y-000926*
Y-000942*
X000295Y-000842D02*
X000362Y-000942D01*
Y-000842D02*
X000295Y-000942D01*
X000461Y-000859D02*
X000445Y-000842D01*
X000412*
X000395Y-000859*
Y-000876*
X000412Y-000892*
X000445*
X000461Y-000909*
Y-000926*
X000445Y-000942*
X000412*
X000395Y-000926*
X000495Y-000859D02*
X000511Y-000842D01*
X000545*
X000561Y-000859*
Y-000876*
X000545Y-000892*
X000561Y-000909*
Y-000926*
X000545Y-000942*
X000511*
X000495Y-000926*
Y-000909*
X000511Y-000892*
X000495Y-000876*
Y-000859*
X000511Y-000892D02*
X000545D01*
G54D31*
X-000159Y-000973D02*
X000959D01*
Y-002782D02*
Y-000973D01*
X-000159Y-002782D02*
Y-000973D01*
Y-002782D02*
X000959D01*
X-001309D02*
X-000189D01*
X-001309D02*
Y-000973D01*
X-000189Y-002782D02*
Y-000973D01*
X-001309D02*
X-000189D01*
X005389D02*
X006509D01*
Y-002782D02*
Y-000973D01*
X005389Y-002782D02*
Y-000973D01*
Y-002782D02*
X006509D01*
X004239D02*
X005359D01*
X004239D02*
Y-000973D01*
X005359Y-002782D02*
Y-000973D01*
X004239D02*
X005359D01*
X003089D02*
X004209D01*
Y-002782D02*
Y-000973D01*
X003089Y-002782D02*
Y-000973D01*
Y-002782D02*
X004209D01*
X001939D02*
X003059D01*
X001939D02*
Y-000973D01*
X003059Y-002782D02*
Y-000973D01*
X001939D02*
X003059D01*
M02*