%FSTAX42Y42*%
%MOMM*%
%SFA1B1*%

%IPPOS*%
%ADD10C,0.500126*%
%ADD11C,0.400050*%
%ADD12C,0.299974*%
%ADD14C,0.500126*%
%ADD15R,1.500124X1.500124*%
%ADD16C,1.500124*%
%ADD17C,0.999998*%
%ADD18R,0.599948X1.700022*%
%LNpcb_monitoring_connecta10-1*%
%LPD*%
G54D10*
X-00332Y001005D02*
D01*
X-003321Y000997*
X-003321Y00099*
X-003321Y000982*
X-003321Y000974*
X-00332Y000967*
X-003319Y000959*
X-003317Y000952*
X-003314Y000945*
X-003314Y000944*
X-003103Y000964D02*
D01*
X-003102Y000972*
X-003102Y000979*
X-003102Y000985*
X-003103Y000964D02*
D01*
X-003102Y000972*
X-003102Y000979*
X-003102Y000985*
X-00332Y001005D02*
D01*
X-003321Y000997*
X-003321Y00099*
X-003321Y000982*
X-003321Y000974*
X-00332Y000967*
X-003319Y000959*
X-003317Y000952*
X-003314Y000945*
X-003314Y000944*
X-003102Y000985D02*
D01*
X-003102Y000992*
X-003103Y001*
X-003103Y001005*
X-003102Y000985D02*
D01*
X-003102Y000992*
X-003103Y001*
X-003103Y001005*
X-002342Y000329D02*
D01*
X-002341Y000337*
X-00234Y000344*
X-00234Y00035*
X-002342Y000329D02*
D01*
X-002341Y000337*
X-00234Y000344*
X-00234Y00035*
X-002558Y00037D02*
D01*
X-002559Y000362*
X-00256Y000355*
X-00256Y000347*
X-00256Y000339*
X-002559Y000332*
X-002557Y000324*
X-002555Y000317*
X-002553Y00031*
X-002552Y000309*
X-002558Y00037D02*
D01*
X-002559Y000362*
X-00256Y000355*
X-00256Y000347*
X-00256Y000339*
X-002559Y000332*
X-002557Y000324*
X-002555Y000317*
X-002553Y00031*
X-002552Y000309*
X-00234Y00035D02*
D01*
X-00234Y000357*
X-002341Y000365*
X-002342Y00037*
X-00234Y00035D02*
D01*
X-00234Y000357*
X-002341Y000365*
X-002342Y00037*
X-002087Y000964D02*
D01*
X-002086Y000972*
X-002086Y000979*
X-002086Y000985*
X-002087Y000964D02*
D01*
X-002086Y000972*
X-002086Y000979*
X-002086Y000985*
X-00205Y001005D02*
D01*
X-002051Y000997*
X-002051Y00099*
X-002051Y000982*
X-002051Y000974*
X-00205Y000967*
X-00205Y000964*
Y001005D02*
D01*
X-002051Y000997*
X-002051Y00099*
X-002051Y000982*
X-002051Y000974*
X-00205Y000967*
X-00205Y000964*
X-002363Y002067D02*
D01*
X-002356Y002076*
X-002348Y002084*
D01*
X-002341Y002076*
X-002334Y002067*
X-002325Y00206*
X-002319Y002054*
X-002304Y001005D02*
D01*
X-002305Y000997*
X-002305Y00099*
X-002305Y000982*
X-002305Y000974*
X-002304Y000967*
X-002304Y000964*
Y001005D02*
D01*
X-002305Y000997*
X-002305Y00099*
X-002305Y000982*
X-002305Y000974*
X-002304Y000967*
X-002304Y000964*
X-002331Y001716D02*
D01*
X-002331Y001709*
X-00233Y001701*
X-002329Y001694*
X-002327Y001686*
X-002325Y001679*
X-002322Y001672*
X-002319Y001665*
X-002315Y001658*
X-00231Y001652*
X-002306Y001646*
X-002301Y00164*
X-002299Y001639*
X-002086Y000985D02*
D01*
X-002086Y000992*
X-002087Y001*
X-002087Y001005*
X-002086Y000985D02*
D01*
X-002086Y000992*
X-002087Y001*
X-002087Y001005*
X-002331Y001716D02*
D01*
X-002331Y001709*
X-00233Y001701*
X-002329Y001694*
X-002327Y001686*
X-002325Y001679*
X-002322Y001672*
X-002319Y001665*
X-002315Y001658*
X-00231Y001652*
X-002306Y001646*
X-002301Y00164*
X-002299Y001639*
X-002319Y002054D02*
D01*
X-002327Y002047*
X-002336Y00204*
X-002094Y002025D02*
D01*
X-002102Y002033*
X-002109Y002042*
X-002117Y002049*
X-002124Y002054*
X-002112Y001811D02*
D01*
X-002104Y001819*
X-002096Y001828*
X-002094Y00183*
X-002124Y002054D02*
D01*
X-002116Y002062*
X-002107Y002069*
X-0021Y002077*
X-002094Y002084*
Y00183D02*
D01*
X-002087Y001822*
X-00208Y001813*
X-002077Y001811*
X-002094Y002084D02*
D01*
X-002087Y002076*
X-00208Y002067*
X-002071Y00206*
X-002065Y002054*
D01*
X-002073Y002047*
X-002082Y00204*
X-002089Y002031*
X-002094Y002025*
X-00332Y005042D02*
D01*
X-003321Y005035*
X-003321Y005027*
X-003321Y00502*
X-003321Y005012*
X-00332Y005004*
X-00332Y005001*
X-003103D02*
D01*
X-003102Y005009*
X-003102Y005017*
X-003102Y005022*
X-003103Y005001D02*
D01*
X-003102Y005009*
X-003102Y005017*
X-003102Y005022*
X-00332Y005042D02*
D01*
X-003321Y005035*
X-003321Y005027*
X-003321Y00502*
X-003321Y005012*
X-00332Y005004*
X-00332Y005001*
X-003102Y005022D02*
D01*
X-003102Y00503*
X-003103Y005037*
X-003103Y005042*
X-003102Y005022D02*
D01*
X-003102Y00503*
X-003103Y005037*
X-003103Y005042*
X-002557Y00569D02*
D01*
X-002558Y005682*
X-002559Y005675*
X-002559Y005667*
X-002559Y005659*
X-002558Y005652*
X-002557Y005649*
Y00569D02*
D01*
X-002558Y005682*
X-002559Y005675*
X-002559Y005667*
X-002559Y005659*
X-002558Y005652*
X-002557Y005649*
X-002348Y002279D02*
D01*
X-002356Y002287*
X-002363Y002296*
X-002371Y002303*
X-00238Y00231*
X-002389Y002316*
X-002399Y002322*
X-002409Y002327*
X-002419Y002331*
X-00243Y002335*
X-002441Y002338*
X-002452Y00234*
X-002463Y002341*
X-002474Y002341*
X-002485Y002341*
X-002496Y00234*
X-002507Y002338*
X-002518Y002336*
X-002529Y002332*
X-002539Y002328*
X-002549Y002323*
X-002559Y002318*
X-002568Y002312*
X-002577Y002305*
X-002586Y002298*
X-002593Y00229*
X-002601Y002281*
X-002607Y002272*
X-002613Y002263*
X-002619Y002253*
X-002623Y002243*
X-002627Y002232*
X-00263Y002222*
X-002633Y002211*
X-002634Y0022*
X-002635Y002189*
X-002635Y002177*
X-002635Y002166*
X-002633Y002155*
X-002631Y002144*
X-002628Y002134*
X-002624Y002123*
X-00262Y002113*
X-002615Y002103*
X-002609Y002093*
X-002602Y002084*
X-002595Y002076*
X-002588Y002067*
X-002094Y002279D02*
D01*
X-002102Y002287*
X-002109Y002296*
X-002117Y002303*
X-002126Y00231*
X-002135Y002316*
X-002145Y002322*
X-002155Y002327*
X-002165Y002331*
X-002176Y002335*
X-002187Y002338*
X-002198Y00234*
X-002209Y002341*
X-00222Y002341*
X-002231Y002341*
X-002242Y00234*
X-002253Y002338*
X-002264Y002336*
X-002275Y002332*
X-002285Y002328*
X-002295Y002323*
X-002305Y002318*
X-002314Y002312*
X-002323Y002305*
X-002332Y002298*
X-002339Y00229*
X-002347Y002281*
X-002348Y002279*
X-00184D02*
D01*
X-001848Y002287*
X-001855Y002296*
X-001863Y002303*
X-001872Y00231*
X-001881Y002316*
X-001891Y002322*
X-001901Y002327*
X-001911Y002331*
X-001922Y002335*
X-001933Y002338*
X-001944Y00234*
X-001955Y002341*
X-001966Y002341*
X-001977Y002341*
X-001988Y00234*
X-001999Y002338*
X-00201Y002336*
X-002021Y002332*
X-002031Y002328*
X-002041Y002323*
X-002051Y002318*
X-00206Y002312*
X-002069Y002305*
X-002078Y002298*
X-002085Y00229*
X-002093Y002281*
X-002094Y002279*
X-002304Y005042D02*
D01*
X-002305Y005035*
X-002305Y005027*
X-002305Y00502*
X-002305Y005012*
X-002304Y005004*
X-002304Y005001*
X-002341Y005649D02*
D01*
X-00234Y005657*
X-002339Y005664*
X-002339Y005669*
X-002341Y005649D02*
D01*
X-00234Y005657*
X-002339Y005664*
X-002339Y005669*
D01*
X-002339Y005677*
X-00234Y005685*
X-002341Y00569*
X-002339Y005669D02*
D01*
X-002339Y005677*
X-00234Y005685*
X-002341Y00569*
X-002304Y005042D02*
D01*
X-002305Y005035*
X-002305Y005027*
X-002305Y00502*
X-002305Y005012*
X-002304Y005004*
X-002304Y005001*
X-002087D02*
D01*
X-002086Y005009*
X-002086Y005017*
X-002086Y005022*
X-002087Y005001D02*
D01*
X-002086Y005009*
X-002086Y005017*
X-002086Y005022*
D01*
X-002086Y00503*
X-002087Y005037*
X-002087Y005042*
X-002086Y005022D02*
D01*
X-002086Y00503*
X-002087Y005037*
X-002087Y005042*
X-00205D02*
D01*
X-002051Y005035*
X-002051Y005027*
X-002051Y00502*
X-002051Y005012*
X-00205Y005004*
X-00205Y005001*
Y005042D02*
D01*
X-002051Y005035*
X-002051Y005027*
X-002051Y00502*
X-002051Y005012*
X-00205Y005004*
X-00205Y005001*
X-001833Y000964D02*
D01*
X-001832Y000972*
X-001832Y000979*
X-001832Y000985*
X-001833Y000964D02*
D01*
X-001832Y000972*
X-001832Y000979*
X-001832Y000985*
D01*
X-001832Y000992*
X-001833Y001*
X-001833Y001005*
X-001832Y000985D02*
D01*
X-001832Y000992*
X-001833Y001*
X-001833Y001005*
X-001326Y000329D02*
D01*
X-001325Y000337*
X-001324Y000344*
X-001324Y00035*
X-001326Y000329D02*
D01*
X-001325Y000337*
X-001324Y000344*
X-001324Y00035*
X-001542Y00037D02*
D01*
X-001543Y000362*
X-001544Y000355*
X-001544Y000347*
X-001544Y000339*
X-001543Y000332*
X-001542Y000329*
Y00037D02*
D01*
X-001543Y000362*
X-001544Y000355*
X-001544Y000347*
X-001544Y000339*
X-001543Y000332*
X-001542Y000329*
X-001288Y00037D02*
D01*
X-001289Y000362*
X-00129Y000355*
X-00129Y000347*
X-00129Y000339*
X-001289Y000332*
X-001288Y000329*
Y00037D02*
D01*
X-001289Y000362*
X-00129Y000355*
X-00129Y000347*
X-00129Y000339*
X-001289Y000332*
X-001288Y000329*
X-001631Y001005D02*
D01*
X-001633Y000996*
X-001634Y000986*
X-001634Y000977*
X-001634Y000968*
X-001634Y000964*
X-001324Y00035D02*
D01*
X-001324Y000357*
X-001325Y000365*
X-001326Y00037*
X-001324Y00035D02*
D01*
X-001324Y000357*
X-001325Y000365*
X-001326Y00037*
X-001072Y000329D02*
D01*
X-001071Y000337*
X-00107Y000344*
X-00107Y00035*
X-001072Y000329D02*
D01*
X-001071Y000337*
X-00107Y000344*
X-00107Y00035*
D01*
X-00107Y000357*
X-001071Y000365*
X-001072Y00037*
X-00107Y00035D02*
D01*
X-00107Y000357*
X-001071Y000365*
X-001072Y00037*
X-001834Y001822D02*
D01*
X-001839Y001816*
X-001843Y00181*
X-001847Y001804*
X-001851Y001797*
X-001854Y00179*
X-001856Y001782*
X-001858Y001778*
X-001834Y001822D02*
D01*
X-001839Y001816*
X-001843Y00181*
X-001847Y001804*
X-001851Y001797*
X-001854Y00179*
X-001856Y001782*
X-001858Y001778*
Y001811D02*
D01*
X-00185Y001819*
X-001842Y001828*
X-00184Y00183*
D01*
X-001839Y001829*
X-001838Y001827*
X-001837Y001826*
X-001835Y001824*
X-001834Y001822*
X-001834Y001822*
X-00184Y002025D02*
D01*
X-001848Y002033*
X-001855Y002042*
X-001863Y002049*
X-00187Y002054*
D01*
X-001862Y002062*
X-001853Y002069*
X-001846Y002077*
X-00184Y002084*
X-001811Y002054D02*
D01*
X-001819Y002047*
X-001828Y00204*
X-001835Y002031*
X-00184Y002025*
Y002084D02*
D01*
X-001833Y002076*
X-001826Y002067*
X-001817Y00206*
X-001811Y002054*
X-001604Y001811D02*
D01*
X-001596Y001819*
X-001588Y001828*
X-001586Y00183*
D01*
X-001579Y001822*
X-001579Y001821*
X-001586Y002025D02*
D01*
X-001594Y002033*
X-001601Y002042*
X-001609Y002049*
X-001616Y002054*
D01*
X-001608Y002062*
X-001599Y002069*
X-001592Y002077*
X-001586Y002084*
X-001557Y002054D02*
D01*
X-001565Y002047*
X-001574Y00204*
X-001581Y002031*
X-001586Y002025*
Y002084D02*
D01*
X-001579Y002076*
X-001572Y002067*
X-001563Y00206*
X-001557Y002054*
X-001317Y001468D02*
D01*
X-001322Y001462*
X-001327Y001457*
X-001331Y001451*
X-001335Y001444*
X-001338Y001438*
X-001341Y001431*
X-001343Y001424*
X-001345Y001417*
X-001347Y00141*
X-001348Y001403*
X-001348Y001395*
X-001348Y001394*
X-001317Y001468D02*
D01*
X-001322Y001462*
X-001327Y001457*
X-001331Y001451*
X-001335Y001445*
X-001338Y001438*
X-001341Y001431*
X-001343Y001424*
X-001345Y001417*
X-001347Y00141*
X-001348Y001403*
X-001348Y001395*
X-001348Y001394*
X-001382Y001707D02*
D01*
X-001376Y001712*
X-001372Y001718*
X-001367Y001725*
X-001363Y001731*
X-00136Y001738*
X-001357Y001745*
X-001354Y001752*
X-001352Y00176*
X-001351Y001767*
X-00135Y001775*
X-00135Y001783*
X-00135Y001784*
X-001382Y001707D02*
D01*
X-001376Y001712*
X-001372Y001718*
X-001367Y001725*
X-001363Y001731*
X-00136Y001738*
X-001357Y001745*
X-001354Y001752*
X-001352Y00176*
X-001351Y001767*
X-00135Y001775*
X-00135Y001783*
X-00135Y001784*
Y001811D02*
D01*
X-001342Y001819*
X-001334Y001828*
X-001332Y00183*
Y002025D02*
D01*
X-00134Y002033*
X-001347Y002042*
X-001355Y002049*
X-001362Y002054*
D01*
X-001354Y002062*
X-001345Y002069*
X-001338Y002077*
X-001332Y002084*
D01*
X-001325Y002076*
X-001318Y002067*
X-001309Y00206*
X-001303Y002054*
X-001332Y00183D02*
D01*
X-001325Y001822*
X-001318Y001813*
X-001309Y001806*
X-001301Y001799*
X-001292Y001793*
X-001282Y001787*
X-001272Y001782*
X-001262Y001778*
X-001251Y001774*
X-00124Y001771*
X-001229Y001769*
X-001218Y001768*
X-001207Y001768*
X-001196Y001768*
X-001185Y001769*
X-001174Y001771*
X-001163Y001773*
X-001152Y001777*
X-001142Y001781*
X-001132Y001786*
X-001122Y001791*
X-001113Y001797*
X-001104Y001804*
X-001095Y001811*
X-001088Y001819*
X-00108Y001828*
X-001078Y00183*
X-001303Y002054D02*
D01*
X-001311Y002047*
X-00132Y00204*
X-001327Y002031*
X-001332Y002025*
X-001078Y00183D02*
D01*
X-001071Y001822*
X-001064Y001813*
X-001055Y001806*
X-001047Y001799*
X-001038Y001793*
X-001028Y001787*
X-001018Y001782*
X-001008Y001778*
X-001007Y001778*
X-000056Y000329D02*
D01*
X-000055Y000337*
X-000054Y000344*
X-000054Y00035*
X-000056Y000329D02*
D01*
X-000055Y000337*
X-000054Y000344*
X-000054Y00035*
X-000272Y00037D02*
D01*
X-000273Y000362*
X-000274Y000355*
X-000274Y000347*
X-000274Y000339*
X-000273Y000332*
X-000272Y000329*
Y00037D02*
D01*
X-000273Y000362*
X-000274Y000355*
X-000274Y000347*
X-000274Y000339*
X-000273Y000332*
X-000272Y000329*
X-000054Y00035D02*
D01*
X-000054Y000357*
X-000055Y000365*
X-000056Y00037*
X-000251Y00071D02*
D01*
X-000252Y000717*
X-000254Y000724*
X-000256Y000731*
X-000257Y000733*
X-000251Y00071D02*
D01*
X-000252Y000717*
X-000254Y000724*
X-000256Y000731*
X-000257Y000733*
X-000054Y00035D02*
D01*
X-000054Y000357*
X-000055Y000365*
X-000056Y00037*
X-000257Y000733D02*
D01*
X-000253Y000742*
X-000249Y00075*
X-000246Y000759*
X-000243Y000768*
X-000241Y000777*
X-00024Y000787*
X-00024Y000796*
X-00024Y000799*
X-000747Y000837D02*
D01*
X-000738Y00084*
X-000729Y000842*
X-00072Y000846*
X-000712Y00085*
X-000703Y000855*
X-000696Y00086*
X-000688Y000866*
X-000681Y000872*
X-000675Y000879*
X-000668Y000886*
X-000663Y000894*
X-000658Y000901*
X-000653Y00091*
X-00065Y000918*
X-000646Y000927*
X-000644Y000936*
X-000642Y000945*
X-00064Y000955*
X-00064Y000964*
X-00064Y00097*
D01*
X-00064Y000979*
X-000641Y000988*
X-000642Y000998*
X-000645Y001007*
X-000648Y001016*
X-000651Y001024*
X-000655Y001033*
X-00066Y001041*
X-000665Y001049*
X-000671Y001056*
X-000677Y001063*
X-000684Y00107*
X-000691Y001076*
X-000699Y001081*
X-000707Y001086*
X-000715Y001091*
X-000724Y001095*
X-000733Y001098*
X-000742Y0011*
X-000747Y001102*
X-000437Y000919D02*
D01*
X-000445Y000923*
X-000454Y000927*
X-000463Y00093*
X-000472Y000932*
X-000482Y000933*
X-000491Y000934*
X-0005Y000934*
X-00051Y000934*
X-000519Y000933*
X-000529Y000931*
X-000538Y000929*
X-000547Y000926*
X-000555Y000922*
X-000564Y000918*
X-000572Y000913*
X-00058Y000908*
X-000587Y000902*
X-000594Y000896*
X-0006Y000889*
X-000606Y000882*
X-000612Y000874*
X-000617Y000866*
X-000621Y000858*
X-000625Y000849*
X-000628Y00084*
X-000631Y000831*
X-000633Y000822*
X-000634Y000813*
X-000634Y000803*
X-000634Y000794*
X-000634Y000784*
X-000632Y000775*
X-00063Y000766*
X-000628Y000757*
X-000624Y000748*
X-00062Y000739*
X-000616Y000731*
X-000611Y000723*
X-000605Y000716*
X-000605Y000715*
X-00024Y000799D02*
D01*
X-00024Y000809*
X-000241Y000818*
X-000242Y000828*
X-000245Y000837*
X-000248Y000846*
X-000251Y000854*
X-000255Y000863*
X-00026Y000871*
X-000265Y000879*
X-000271Y000886*
X-000277Y000893*
X-000284Y0009*
X-000291Y000906*
X-000299Y000911*
X-000307Y000916*
X-000315Y000921*
X-000324Y000925*
X-000333Y000928*
X-000342Y00093*
X-000351Y000932*
X-00036Y000934*
X-00037Y000934*
X-000379*
X-000389Y000934*
X-000398Y000932*
X-000407Y00093*
X-000416Y000928*
X-000425Y000925*
X-000434Y000921*
X-000437Y000919*
X-000613Y001663D02*
D01*
X-000608Y001668*
X-000603Y001674*
X-000599Y00168*
X-000595Y001686*
X-000592Y001692*
X-000589Y001699*
X-000587Y001706*
X-000585Y001713*
X-000583Y00172*
X-000582Y001728*
X-000582Y001735*
X-000582Y001737*
X-000613Y001663D02*
D01*
X-000608Y001668*
X-000603Y001674*
X-000599Y00168*
X-000595Y001686*
X-000592Y001693*
X-000589Y001699*
X-000587Y001706*
X-000585Y001713*
X-000583Y001721*
X-000582Y001728*
X-000582Y001735*
X-000582Y001737*
Y00204D02*
D01*
X-000582Y002047*
X-000583Y002054*
X-000584Y002061*
X-000586Y002068*
X-000588Y002075*
X-000591Y002082*
X-000594Y002089*
X-000598Y002095*
X-000602Y002101*
X-000607Y002107*
X-000611Y002112*
X-000613Y002114*
X-000582Y00204D02*
D01*
X-000582Y002047*
X-000583Y002054*
X-000584Y002061*
X-000586Y002068*
X-000588Y002075*
X-000591Y002082*
X-000594Y002089*
X-000598Y002095*
X-000602Y002101*
X-000607Y002107*
X-000611Y002112*
X-000613Y002114*
X-001586Y002279D02*
D01*
X-001594Y002287*
X-001601Y002296*
X-001609Y002303*
X-001618Y00231*
X-001627Y002316*
X-001637Y002322*
X-001647Y002327*
X-001657Y002331*
X-001668Y002335*
X-001679Y002338*
X-00169Y00234*
X-001701Y002341*
X-001712Y002341*
X-001723Y002341*
X-001734Y00234*
X-001745Y002338*
X-001756Y002336*
X-001767Y002332*
X-001777Y002328*
X-001787Y002323*
X-001797Y002318*
X-001806Y002312*
X-001815Y002305*
X-001824Y002298*
X-001831Y00229*
X-001839Y002281*
X-00184Y002279*
X-001833Y005001D02*
D01*
X-001832Y005009*
X-001832Y005017*
X-001832Y005022*
X-001833Y005001D02*
D01*
X-001832Y005009*
X-001832Y005017*
X-001832Y005022*
X-001332Y002279D02*
D01*
X-00134Y002287*
X-001347Y002296*
X-001355Y002303*
X-001364Y00231*
X-001373Y002316*
X-001383Y002322*
X-001393Y002327*
X-001403Y002331*
X-001414Y002335*
X-001425Y002338*
X-001436Y00234*
X-001447Y002341*
X-001458Y002341*
X-001469Y002341*
X-00148Y00234*
X-001491Y002338*
X-001502Y002336*
X-001513Y002332*
X-001523Y002328*
X-001533Y002323*
X-001543Y002318*
X-001552Y002312*
X-001561Y002305*
X-00157Y002298*
X-001577Y00229*
X-001585Y002281*
X-001586Y002279*
X-001832Y005022D02*
D01*
X-001832Y00503*
X-001833Y005037*
X-001833Y005042*
X-001832Y005022D02*
D01*
X-001832Y00503*
X-001833Y005037*
X-001833Y005042*
X-001325Y005649D02*
D01*
X-001324Y005657*
X-001323Y005664*
X-001323Y005669*
X-001325Y005649D02*
D01*
X-001324Y005657*
X-001323Y005664*
X-001323Y005669*
X-001541Y00569D02*
D01*
X-001542Y005682*
X-001543Y005675*
X-001543Y005667*
X-001543Y005659*
X-001542Y005652*
X-001541Y005649*
Y00569D02*
D01*
X-001542Y005682*
X-001543Y005675*
X-001543Y005667*
X-001543Y005659*
X-001542Y005652*
X-001541Y005649*
X-001323Y005669D02*
D01*
X-001323Y005677*
X-001324Y005685*
X-001325Y00569*
X-001287D02*
D01*
X-001288Y005682*
X-001289Y005675*
X-001289Y005667*
X-001289Y005659*
X-001288Y005652*
X-001287Y005649*
X-001323Y005669D02*
D01*
X-001323Y005677*
X-001324Y005685*
X-001325Y00569*
X-001287D02*
D01*
X-001288Y005682*
X-001289Y005675*
X-001289Y005667*
X-001289Y005659*
X-001288Y005652*
X-001287Y005649*
X-001078Y002279D02*
D01*
X-001086Y002287*
X-001093Y002296*
X-001101Y002303*
X-00111Y00231*
X-001119Y002316*
X-001129Y002322*
X-001139Y002327*
X-001149Y002331*
X-00116Y002335*
X-001171Y002338*
X-001182Y00234*
X-001193Y002341*
X-001204Y002341*
X-001215Y002341*
X-001226Y00234*
X-001237Y002338*
X-001248Y002336*
X-001259Y002332*
X-001269Y002328*
X-001279Y002323*
X-001289Y002318*
X-001298Y002312*
X-001307Y002305*
X-001316Y002298*
X-001323Y00229*
X-001331Y002281*
X-001332Y002279*
X-000821Y002275D02*
D01*
X-000828Y002283*
X-000836Y002292*
X-000843Y0023*
X-000852Y002307*
X-000861Y002313*
X-00087Y002319*
X-00088Y002325*
X-00089Y002329*
X-000901Y002333*
X-000912Y002336*
X-000922Y002339*
X-000933Y00234*
X-000945Y002341*
X-000956Y002341*
X-000967Y002341*
X-000978Y002339*
X-000989Y002337*
X-001Y002334*
X-00101Y00233*
X-00102Y002326*
X-00103Y002321*
X-00104Y002315*
X-001049Y002308*
X-001058Y002301*
X-001066Y002294*
X-001073Y002285*
X-001078Y002279*
X-000743Y002244D02*
D01*
X-000748Y002249*
X-000754Y002253*
X-00076Y002258*
X-000766Y002261*
X-000773Y002265*
X-000779Y002268*
X-000786Y00227*
X-000793Y002272*
X-000801Y002273*
X-000808Y002274*
X-000815Y002274*
X-000817Y002275*
X-001034Y005042D02*
D01*
X-001035Y005035*
X-001035Y005027*
X-001035Y00502*
X-001035Y005012*
X-001034Y005004*
X-001034Y005001*
X-000817D02*
D01*
X-000816Y005009*
X-000816Y005017*
X-000816Y005022*
X-000817Y005001D02*
D01*
X-000816Y005009*
X-000816Y005017*
X-000816Y005022*
X-001034Y005042D02*
D01*
X-001035Y005035*
X-001035Y005027*
X-001035Y00502*
X-001035Y005012*
X-001034Y005004*
X-001034Y005001*
X-000816Y005022D02*
D01*
X-000816Y00503*
X-000817Y005037*
X-000817Y005042*
X-000816Y005022D02*
D01*
X-000816Y00503*
X-000817Y005037*
X-000817Y005042*
X-000743Y002244D02*
D01*
X-000748Y002249*
X-000754Y002253*
X-00076Y002257*
X-000766Y002261*
X-000772Y002265*
X-000779Y002267*
X-000786Y00227*
X-000793Y002272*
X-0008Y002273*
X-000808Y002274*
X-000815Y002274*
X-000817Y002275*
X-001071Y005649D02*
D01*
X-00107Y005657*
X-001069Y005664*
X-001069Y005669*
X-001071Y005649D02*
D01*
X-00107Y005657*
X-001069Y005664*
X-001069Y005669*
D01*
X-001069Y005677*
X-00107Y005685*
X-001071Y00569*
X-001069Y005669D02*
D01*
X-001069Y005677*
X-00107Y005685*
X-001071Y00569*
X-000271D02*
D01*
X-000272Y005682*
X-000273Y005675*
X-000273Y005667*
X-000273Y005659*
X-000272Y005652*
X-000271Y005649*
X-000055D02*
D01*
X-000054Y005657*
X-000053Y005664*
X-000053Y005669*
X-000055Y005649D02*
D01*
X-000054Y005657*
X-000053Y005664*
X-000053Y005669*
X-000271Y00569D02*
D01*
X-000272Y005682*
X-000273Y005675*
X-000273Y005667*
X-000273Y005659*
X-000272Y005652*
X-000271Y005649*
X-000053Y005669D02*
D01*
X-000053Y005677*
X-000054Y005685*
X-000055Y00569*
X-000053Y005669D02*
D01*
X-000053Y005677*
X-000054Y005685*
X-000055Y00569*
X-001499Y000975D02*
X-001497Y000977D01*
Y001175*
X-001375Y000975D02*
X-00137Y000979D01*
Y001175*
X-001116Y000794D02*
Y000969D01*
X-001878Y001175D02*
Y001578D01*
X-001967Y001667D02*
X-001878Y001578D01*
X-001967Y001667D02*
Y001928D01*
X-002005Y001175D02*
Y0015D01*
X-002221Y001716D02*
X-002005Y0015D01*
X-002221Y001716D02*
Y001928D01*
X-001459Y001784D02*
Y001928D01*
X-001624Y00162D02*
X-001459Y001784D01*
X-001624Y001175D02*
Y00162D01*
X-001713Y001788D02*
Y001928D01*
X-001751Y00175D02*
X-001713Y001788D01*
X-001751Y001175D02*
Y00175D01*
X-002794Y000159D02*
X-002513D01*
X-003275Y00064D02*
X-002794Y000159D01*
X-003275Y00064D02*
Y000794D01*
X-001243D02*
Y000975D01*
X-003379Y000794D02*
X-003275D01*
X-003415Y000829D02*
X-003379Y000794D01*
X-003415Y000829D02*
Y001364D01*
X-003234Y001545*
X-003247Y00005D02*
Y000624D01*
X-00345Y00063D02*
X-003263D01*
X-003147Y00005D02*
Y000624D01*
X-003197Y00005D02*
Y000624D01*
X-003347Y00005D02*
Y000644D01*
X-00337D02*
Y000944D01*
X-003297Y00005D02*
Y000644D01*
X-003263Y000624D02*
Y000644D01*
X-00345Y00043D02*
X-002629D01*
X-00345Y00048D02*
X-002629D01*
X-00345Y00013D02*
X-002609D01*
X-00345Y000381D02*
X-002629D01*
X-00345Y00053D02*
X-002629D01*
X-00345Y00058D02*
X-002629D01*
X-003136Y000624D02*
X-003033D01*
X-003263D02*
X-003136D01*
X-003033*
X-00345Y00078D02*
X-00337D01*
X-00345Y00083D02*
X-00337D01*
X-00345Y00068D02*
X-00337D01*
X-00345Y00073D02*
X-00337D01*
X-00345Y00088D02*
X-00337D01*
X-00345Y00093D02*
X-00337D01*
X-00345Y00098D02*
X-003321D01*
X-00337Y000644D02*
X-003263D01*
X-00337Y000944D02*
X-003314D01*
X-003103Y001005D02*
X-003033D01*
X-003103D02*
X-003033D01*
X-003103Y000964D02*
X-003033D01*
X-003103D02*
X-003033D01*
X-003009Y000624D02*
X-002906D01*
X-003009D02*
X-002906D01*
X-002897Y00005D02*
Y000624D01*
X-002947Y00005D02*
Y000624D01*
X-003047Y00005D02*
Y000624D01*
X-003097Y00005D02*
Y000624D01*
X-002997Y00005D02*
Y000624D01*
X-003033D02*
X-003009D01*
X-002697Y00005D02*
Y000624D01*
X-002747Y00005D02*
Y000624D01*
X-002647Y00005D02*
Y000624D01*
X-002629Y00037D02*
Y000624D01*
X-002882D02*
X-002779D01*
X-002906D02*
X-002882D01*
X-002797Y00005D02*
Y000624D01*
X-002847Y00005D02*
Y000624D01*
X-002882D02*
X-002779D01*
X-003009Y000964D02*
X-002906D01*
X-003033D02*
X-003009D01*
X-002779Y000624D02*
X-002755D01*
X-003009Y000964D02*
X-002906D01*
X-002882*
X-002779D02*
X-002755D01*
X-002882D02*
X-002779D01*
X-002882D02*
X-002779D01*
X-002755Y000624D02*
X-002652D01*
X-002755Y000964D02*
X-002652D01*
Y000624D02*
X-002629D01*
X-002755D02*
X-002652D01*
X-002755Y000964D02*
X-002652D01*
X-002755Y001005D02*
X-002652D01*
X-002747Y000964D02*
Y001005D01*
X-002652D02*
X-002628D01*
X-002652Y000964D02*
X-002628D01*
X-00345Y00123D02*
X-00339D01*
X-00345Y00128D02*
X-00339D01*
X-00345Y00103D02*
X-00339D01*
X-00345Y00118D02*
X-00339D01*
X-003447Y00005D02*
Y00595D01*
X-00345Y00005D02*
Y00595D01*
X-003397Y00005D02*
Y00595D01*
X-00339Y001005D02*
Y001345D01*
X-003347Y000944D02*
Y001005D01*
X-00339D02*
X-00332D01*
X-00345Y00108D02*
X-00339D01*
X-00345Y00113D02*
X-00339D01*
X-003047Y000964D02*
Y001005D01*
X-003097Y000964D02*
Y001005D01*
X-00345Y00133D02*
X-00339D01*
Y001345D02*
X-003263D01*
X-00316*
X-003263D02*
X-00316D01*
X-003297D02*
Y004661D01*
X-003347Y001345D02*
Y004661D01*
X-003147Y001345D02*
Y004661D01*
X-003247Y001345D02*
Y004661D01*
X-003197Y001345D02*
Y004661D01*
X-00316Y001345D02*
X-003136D01*
X-00345Y00183D02*
X-002615D01*
X-003136Y001345D02*
X-003033D01*
X-003136D02*
X-003033D01*
X-00345Y00188D02*
X-002615D01*
X-00345Y00193D02*
X-002615D01*
X-003097Y001345D02*
Y004661D01*
X-00345Y00203D02*
X-002615D01*
X-00345Y00198D02*
X-002615D01*
X-003009Y001005D02*
X-002906D01*
X-003033D02*
X-003009D01*
X-002947Y000964D02*
Y001005D01*
X-002997Y000964D02*
Y001005D01*
X-003009D02*
X-002906D01*
X-003009Y001345D02*
X-002906D01*
X-002897Y000964D02*
Y001005D01*
X-002997Y001345D02*
Y004661D01*
X-002755Y001005D02*
X-002652D01*
X-002779D02*
X-002755D01*
X-002647Y000964D02*
Y001005D01*
X-002697Y000964D02*
Y001005D01*
X-002882D02*
X-002779D01*
X-002906D02*
X-002882D01*
X-002797Y000964D02*
Y001005D01*
X-002847Y000964D02*
Y001005D01*
X-002882D02*
X-002779D01*
X-003009Y001345D02*
X-002906D01*
X-003033D02*
X-003009D01*
X-002882D02*
X-002779D01*
X-002906D02*
X-002882D01*
X-002947D02*
Y004661D01*
X-003047Y001345D02*
Y004661D01*
X-002797Y001345D02*
Y004661D01*
X-002897Y001345D02*
Y004661D01*
X-002847Y001345D02*
Y004661D01*
X-002779Y001345D02*
X-002755D01*
X-002882D02*
X-002779D01*
X-002755D02*
X-002652D01*
X-002755D02*
X-002652D01*
X-002697D02*
Y004661D01*
X-002747Y001345D02*
Y004661D01*
X-002652Y001345D02*
X-002628D01*
X-002647D02*
Y004661D01*
X-002615Y001788D02*
Y002067D01*
X-00345Y000181D02*
X-002609D01*
X-00345Y00023D02*
X-002609D01*
X-00345Y00005D02*
X-002609D01*
X-00345Y000081D02*
X-002609D01*
X-00345Y000281D02*
X-002609D01*
X-00345Y00033D02*
X-002558D01*
X-002609Y00005D02*
Y000309D01*
X-002597D02*
Y00037D01*
X-002609Y000309D02*
X-002552D01*
X-002342Y00037D02*
X-002272D01*
X-002629D02*
X-002558D01*
X-002628Y000964D02*
X-002525D01*
X-002501*
X-002628D02*
X-002525D01*
X-002547D02*
Y001005D01*
X-002628D02*
X-002525D01*
X-002447Y000964D02*
Y001005D01*
X-002525D02*
X-002501D01*
X-002497Y000964D02*
Y001005D01*
X-002501Y000964D02*
X-002398D01*
X-002501D02*
X-002398D01*
X-002342Y00037D02*
X-002272D01*
X-002398Y000964D02*
X-002374D01*
X-003102Y00098D02*
X-002305D01*
X-002501Y001005D02*
X-002398D01*
X-002374Y000964D02*
X-002304D01*
X-002374Y001005D02*
X-002304D01*
X-002374Y000964D02*
X-002304D01*
X-002342Y000329D02*
X-002272D01*
X-002342D02*
X-002272D01*
X-002248D02*
X-002145D01*
X-002272D02*
X-002248D01*
X-002247D02*
Y00037D01*
X-002297Y000329D02*
Y00037D01*
X-002147Y000329D02*
Y00037D01*
X-002197Y000329D02*
Y00037D01*
X-002121Y000329D02*
X-002018D01*
X-002248D02*
X-002121D01*
X-001994D02*
X-001891D01*
X-002121D02*
X-002018D01*
X-002047D02*
Y00037D01*
X-002097Y000329D02*
Y00037D01*
X-001994Y000329D02*
X-001891D01*
X-001997D02*
Y00037D01*
X-002018Y000329D02*
X-001994D01*
X-002248Y00037D02*
X-002121D01*
X-002272D02*
X-002248D01*
X-002145*
X-002086Y00098D02*
X-002051D01*
X-002087Y001005D02*
X-00205D01*
X-002087D02*
X-00205D01*
X-002342Y00033D02*
X-001542D01*
X-002121Y00037D02*
X-002018D01*
X-001994*
X-002121D02*
X-002018D01*
X-002087Y000964D02*
X-00205D01*
X-002087D02*
X-00205D01*
X-001994Y00037D02*
X-001891D01*
X-001994D02*
X-001891D01*
X-002628Y001005D02*
X-002525D01*
X-002628Y001345D02*
X-002525D01*
X-002597Y000964D02*
Y001005D01*
X-002628Y001345D02*
X-002525D01*
X-002547D02*
Y001788D01*
X-002597Y001345D02*
Y001788D01*
X-002501Y001345D02*
X-002398D01*
X-002525D02*
X-002501D01*
X-002398Y001005D02*
X-002374D01*
X-002501D02*
X-002398D01*
X-002397Y000964D02*
Y001005D01*
X-002374D02*
X-002304D01*
X-002398Y001345D02*
X-002374D01*
X-002501D02*
X-002398D01*
X-002374D02*
X-002271D01*
X-002397D02*
Y001788D01*
X-002374Y001345D02*
X-002271D01*
X-00345Y00173D02*
X-002331D01*
X-002615Y001788D02*
X-002336D01*
X-002447Y001345D02*
Y001788D01*
X-002497Y001345D02*
Y001788D01*
X-002597Y002067D02*
Y002077D01*
X-002615Y002067D02*
X-002588D01*
X-00345Y00148D02*
X-002141D01*
X-00345Y00153D02*
X-002191D01*
X-00345Y00138D02*
X-002115D01*
X-00345Y00143D02*
X-002115D01*
X-00345Y00158D02*
X-002241D01*
X-00345Y00163D02*
X-002291D01*
X-00345Y00168D02*
X-002325D01*
X-00345Y00178D02*
X-002331D01*
X-002347Y000964D02*
Y001005D01*
X-002271Y001345D02*
X-002247D01*
X-002347D02*
Y001788D01*
X-002247Y001345D02*
Y001586D01*
X-002297Y001345D02*
Y001636D01*
X-002247Y001345D02*
X-002144D01*
X-002247D02*
X-002144D01*
X-002197D02*
Y001536D01*
X-002299Y001639D02*
X-002115Y001454D01*
Y001345D02*
Y001454D01*
X-002147Y001345D02*
Y001486D01*
X-002144Y001345D02*
X-00212D01*
X-002336Y001788D02*
Y001815D01*
X-002331Y001716D02*
Y001811D01*
X-002112Y001762D02*
Y001811D01*
X-002336Y00204D02*
Y002067D01*
X-002097Y001747D02*
Y001827D01*
Y002028D02*
Y002081D01*
X-002112Y001762D02*
X-002077Y001728D01*
X-002112Y00178D02*
X-002077D01*
Y001728D02*
Y001811D01*
X-002099Y00203D02*
X-00209D01*
X-00339Y004661D02*
X-003263D01*
X-00345Y00468D02*
X-00339D01*
X-003263Y004661D02*
X-00316D01*
X-003263D02*
X-00316D01*
X-00345Y00473D02*
X-00339D01*
X-00345Y00478D02*
X-00339D01*
Y004661D02*
Y005001D01*
X-00345Y00483D02*
X-00339D01*
X-00345Y00218D02*
X-002635D01*
X-00345Y00223D02*
X-002628D01*
X-00345Y00208D02*
X-0026D01*
X-00345Y00213D02*
X-002627D01*
X-00345Y00228D02*
X-002601D01*
X-00345Y00233D02*
X-002534D01*
X-003136Y004661D02*
X-003033D01*
X-00316D02*
X-003136D01*
X-003033*
X-00345Y00488D02*
X-00339D01*
X-00345Y00493D02*
X-00339D01*
X-00345Y00498D02*
X-00339D01*
Y005001D02*
X-00332D01*
X-00345Y00503D02*
X-003321D01*
X-00339Y005042D02*
X-00332D01*
X-003347Y005001D02*
Y005042D01*
X-003103Y005001D02*
X-003033D01*
X-003103D02*
X-003033D01*
X-003103Y005042D02*
X-003033D01*
X-003103D02*
X-003033D01*
X-003009Y004661D02*
X-002906D01*
X-003033D02*
X-003009D01*
X-002906D02*
X-002882D01*
X-003009D02*
X-002906D01*
X-003047Y005001D02*
Y005042D01*
X-003097Y005001D02*
Y005042D01*
X-002906Y005001D02*
X-002882D01*
X-002947D02*
Y005042D01*
X-002628Y004661D02*
X-002525D01*
X-002652D02*
X-002628D01*
X-002597Y002286D02*
Y004661D01*
X-002547Y002325D02*
Y004661D01*
X-002882D02*
X-002779D01*
X-002882D02*
X-002779D01*
X-002755D02*
X-002652D01*
X-002779D02*
X-002755D01*
X-002652*
X-003009Y005001D02*
X-002906D01*
X-003033D02*
X-003009D01*
X-002882D02*
X-002779D01*
X-003009D02*
X-002906D01*
X-003009Y005042D02*
X-002906D01*
X-003033D02*
X-003009D01*
X-002897Y005001D02*
Y005042D01*
X-002997Y005001D02*
Y005042D01*
X-003009D02*
X-002906D01*
X-002779Y005001D02*
X-002755D01*
X-002882D02*
X-002779D01*
X-002755D02*
X-002652D01*
X-002755D02*
X-002652D01*
X-002628D02*
X-002525D01*
X-002652D02*
X-002628D01*
X-002547D02*
Y005042D01*
X-002597Y005001D02*
Y005042D01*
X-002628D02*
X-002525D01*
X-00345Y00518D02*
X-00339D01*
X-00345Y00523D02*
X-00339D01*
X-00345Y00508D02*
X-00339D01*
X-00345Y00513D02*
X-00339D01*
X-00345Y00528D02*
X-00339D01*
X-00345Y00533D02*
X-00339D01*
Y005042D02*
Y005382D01*
X-00345Y00538D02*
X-00339D01*
X-003263Y005382D02*
X-00316D01*
X-00339D02*
X-003263D01*
X-003136D02*
X-003033D01*
X-003263D02*
X-00316D01*
X-003097D02*
Y00595D01*
X-003136Y005382D02*
X-003033D01*
X-003009D02*
X-002906D01*
X-003047D02*
Y00595D01*
X-003033Y005382D02*
X-003009D01*
X-00345Y00548D02*
X-002628D01*
X-00345Y00553D02*
X-002628D01*
X-00316Y005382D02*
X-003136D01*
X-00345Y00543D02*
X-002628D01*
X-003297Y005382D02*
Y00595D01*
X-003347Y005382D02*
Y00595D01*
X-003147Y005382D02*
Y00595D01*
X-003247Y005382D02*
Y00595D01*
X-003197Y005382D02*
Y00595D01*
X-00345Y00568D02*
X-002558D01*
X-00345Y00573D02*
X-002628D01*
X-00345Y00558D02*
X-002628D01*
X-00345Y00563D02*
X-002628D01*
X-00345Y00593D02*
X-002628D01*
X-00345Y00595D02*
X-002628D01*
X-00345Y00578D02*
X-002628D01*
X-00345Y00588D02*
X-002628D01*
X-00345Y00583D02*
X-002628D01*
X-002906Y005042D02*
X-002882D01*
X-003009Y005382D02*
X-002906D01*
X-002797Y005001D02*
Y005042D01*
X-002847Y005001D02*
Y005042D01*
X-002947Y005382D02*
Y00595D01*
X-002997Y005382D02*
Y00595D01*
X-002797Y005382D02*
Y00595D01*
X-002847Y005382D02*
Y00595D01*
X-002755Y005042D02*
X-002652D01*
X-002755D02*
X-002652D01*
X-002647Y005001D02*
Y005042D01*
X-002652D02*
X-002628D01*
X-002882D02*
X-002779D01*
X-002882D02*
X-002779D01*
X-002697Y005001D02*
Y005042D01*
X-002779D02*
X-002755D01*
X-002747Y005001D02*
Y005042D01*
X-002882Y005382D02*
X-002779D01*
X-002906D02*
X-002882D01*
X-002779D02*
X-002755D01*
X-002882D02*
X-002779D01*
X-002755D02*
X-002652D01*
X-002897D02*
Y00595D01*
X-002697Y005382D02*
Y00595D01*
X-002747Y005382D02*
Y00595D01*
X-002755Y005382D02*
X-002652D01*
X-002628*
X-002628Y005649D02*
X-002557D01*
X-002628Y005382D02*
Y005649D01*
X-002597D02*
Y00569D01*
X-002647Y005382D02*
Y00595D01*
X-002628Y00569D02*
X-002557D01*
X-002628D02*
Y00595D01*
X-00345Y00293D02*
X-00005D01*
X-00345Y00298D02*
X-00005D01*
X-00345Y00283D02*
X-00005D01*
X-00345Y00288D02*
X-00005D01*
X-00345Y00313D02*
X-00005D01*
X-00345Y00318D02*
X-00005D01*
X-00345Y00303D02*
X-00005D01*
X-00345Y00308D02*
X-00005D01*
X-00345Y00248D02*
X-00005D01*
X-00345Y00253D02*
X-00005D01*
X-00345Y00238D02*
X-00005D01*
X-00345Y00243D02*
X-00005D01*
X-00345Y00273D02*
X-00005D01*
X-00345Y00278D02*
X-00005D01*
X-00345Y00258D02*
X-00005D01*
X-00345Y00268D02*
X-00005D01*
X-00345Y00263D02*
X-00005D01*
X-00345Y00378D02*
X-00005D01*
X-00345Y00383D02*
X-00005D01*
X-00345Y00368D02*
X-00005D01*
X-00345Y00373D02*
X-00005D01*
X-00345Y00438D02*
X-00005D01*
X-00345Y00443D02*
X-00005D01*
X-00345Y00388D02*
X-00005D01*
X-00345Y00433D02*
X-00005D01*
X-00345Y00393D02*
X-00005D01*
X-00345Y00333D02*
X-00005D01*
X-00345Y00338D02*
X-00005D01*
X-00345Y00323D02*
X-00005D01*
X-00345Y00328D02*
X-00005D01*
X-00345Y00358D02*
X-00005D01*
X-00345Y00363D02*
X-00005D01*
X-00345Y00343D02*
X-00005D01*
X-00345Y00353D02*
X-00005D01*
X-00345Y00348D02*
X-00005D01*
X-002417Y00233D02*
X-00228D01*
X-002347Y002067D02*
Y002082D01*
X-002363Y002067D02*
X-002336D01*
X-002347Y002281D02*
Y004661D01*
X-002447Y002339D02*
Y004661D01*
X-002297Y002323D02*
Y004661D01*
X-002247Y00234D02*
Y004661D01*
X-00345Y00398D02*
X-00005D01*
X-002163Y00233D02*
X-002026D01*
X-00345Y00403D02*
X-00005D01*
X-00345Y00408D02*
X-00005D01*
X-002097Y002282D02*
Y004661D01*
X-002197Y00234D02*
Y004661D01*
X-002147Y002323D02*
Y004661D01*
X-002247D02*
X-002144D01*
X-002247D02*
X-002144D01*
X-00212D02*
X-002017D01*
X-002144D02*
X-00212D01*
X-002398D02*
X-002374D01*
X-002501D02*
X-002398D01*
X-002271D02*
X-002247D01*
X-002374D02*
X-002271D01*
X-002374D02*
X-002271D01*
X-00345Y00423D02*
X-00005D01*
X-00345Y00428D02*
X-00005D01*
X-00345Y00413D02*
X-00005D01*
X-00345Y00418D02*
X-00005D01*
X-00345Y00448D02*
X-00005D01*
X-00345Y00453D02*
X-00005D01*
X-00345Y00458D02*
X-00005D01*
X-00212Y004661D02*
X-002017D01*
X-00345Y00463D02*
X-00005D01*
X-002525Y004661D02*
X-002501D01*
X-002628D02*
X-002525D01*
X-002497Y00234D02*
Y004661D01*
X-002501D02*
X-002398D01*
X-002525Y005001D02*
X-002501D01*
X-002628D02*
X-002525D01*
X-002447D02*
Y005042D01*
X-002497Y005001D02*
Y005042D01*
X-002501Y005001D02*
X-002398D01*
X-002501D02*
X-002398D01*
X-002397Y002321D02*
Y004661D01*
X-002398Y005001D02*
X-002374D01*
X-002304*
X-002397D02*
Y005042D01*
X-002347Y005001D02*
Y005042D01*
X-002374Y005001D02*
X-002304D01*
X-002525Y005042D02*
X-002501D01*
X-002628D02*
X-002525D01*
X-002501D02*
X-002398D01*
X-002501D02*
X-002398D01*
X-002374*
X-003102Y00503D02*
X-002305D01*
X-002374Y005042D02*
X-002304D01*
X-002374D02*
X-002304D01*
X-002341Y005649D02*
X-002271D01*
X-002341D02*
X-002271D01*
X-00234Y00568D02*
X-001542D01*
X-002341Y00569D02*
X-002271D01*
X-002341D02*
X-002271D01*
X-002086Y00503D02*
X-002051D01*
X-002197Y005649D02*
Y00569D01*
X-002247Y005649D02*
X-002143D01*
X-00212*
X-002047Y002321D02*
Y004661D01*
X-002087Y005001D02*
X-00205D01*
X-001997Y002339D02*
Y004661D01*
X-002017D02*
X-001993D01*
X-002087Y005042D02*
X-00205D01*
X-002087D02*
X-00205D01*
X-002087Y005001D02*
X-00205D01*
X-002297Y005649D02*
Y00569D01*
X-002271D02*
X-002247D01*
Y005649D02*
X-002143D01*
X-002271D02*
X-002247D01*
X-002247D02*
Y00569D01*
X-002247D02*
X-002143D01*
X-002147Y005649D02*
Y00569D01*
X-002247D02*
X-002143D01*
X-00212*
Y005649D02*
X-002016D01*
X-00212D02*
X-002016D01*
X-001993*
X-002097D02*
Y00569D01*
X-00212D02*
X-002016D01*
X-00212D02*
X-002016D01*
X-002047Y005649D02*
Y00569D01*
X-001997Y005649D02*
Y00569D01*
X-002016D02*
X-001993D01*
X-001947Y000329D02*
Y00037D01*
X-001891D02*
X-001867D01*
Y000329D02*
X-001764D01*
X-001891D02*
X-001867D01*
X-001897D02*
Y00037D01*
X-001867D02*
X-001764D01*
X-001797Y000329D02*
Y00037D01*
X-001847Y000329D02*
Y00037D01*
X-001764Y000329D02*
X-001637D01*
X-001867D02*
X-001764D01*
X-001637D02*
X-001613D01*
X-00174D02*
X-001637D01*
X-001764Y00037D02*
X-001637D01*
X-001867D02*
X-001764D01*
X-001647Y000329D02*
Y00037D01*
X-001747Y000329D02*
Y00037D01*
X-001697Y000329D02*
Y00037D01*
X-001833Y000964D02*
X-001763D01*
X-001833D02*
X-001763D01*
X-001797D02*
Y001005D01*
X-001833D02*
X-001763D01*
X-00174Y00037D02*
X-001637D01*
X-001763Y000964D02*
X-001739D01*
X-001636*
X-001739D02*
X-001636D01*
X-001832Y00098D02*
X-001634D01*
X-001833Y001005D02*
X-001763D01*
X-001747Y000964D02*
Y001005D01*
X-001763D02*
X-001739D01*
X-001636*
X-001613Y000329D02*
X-001542D01*
X-001613D02*
X-001542D01*
X-001297D02*
Y00037D01*
X-001326Y000329D02*
X-001288D01*
X-001326D02*
X-001288D01*
X-001002D02*
X-000978D01*
X-001072D02*
X-001002D01*
X-001072D02*
X-001002D01*
X-000997D02*
Y00037D01*
X-001047Y000329D02*
Y00037D01*
X-000947Y000329D02*
Y00037D01*
X-001597Y000329D02*
Y00037D01*
X-001613D02*
X-001542D01*
X-001547Y000329D02*
Y00037D01*
X-001326Y00033D02*
X-001288D01*
X-001637Y00037D02*
X-001613D01*
X-001542*
X-001326D02*
X-001288D01*
X-001326D02*
X-001288D01*
X-001072D02*
X-001002D01*
X-001072D02*
X-001002D01*
X-000978*
X-001697Y000964D02*
Y001005D01*
X-001739D02*
X-001636D01*
X-001647Y000964D02*
Y001005D01*
X-001604Y001796D02*
Y001811D01*
X-001858Y001778D02*
Y001811D01*
X-001604Y001796D02*
X-001579Y001821D01*
X-001514Y00143D02*
X-001341D01*
X-001514Y00148D02*
X-001305D01*
X-001509Y001345D02*
X-001485D01*
X-001514Y00138D02*
X-001348D01*
X-001514Y001345D02*
Y001574D01*
Y00153D02*
X-001254D01*
X-001497Y001345D02*
Y001592D01*
X-001514Y001574D02*
X-001382Y001707D01*
X-001508Y00158D02*
X-001205D01*
X-001847Y001805D02*
Y001823D01*
X-001845Y00203D02*
X-001836D01*
X-001847Y002032D02*
Y002077D01*
X-001597Y001803D02*
Y001818D01*
X-001591Y00203D02*
X-001582D01*
X-001597Y002037D02*
Y002072D01*
X-001485Y001345D02*
X-001382D01*
X-001485D02*
X-001382D01*
X-001358D02*
X-001348D01*
X-001382D02*
X-001358D01*
X-001397D02*
Y001692D01*
X-001447Y001345D02*
Y001642D01*
X-001348Y001345D02*
Y001394D01*
X-001358Y001345D02*
X-001348D01*
X-001458Y00163D02*
X-001154D01*
X-001197Y001588D02*
Y001768D01*
X-001347Y00141D02*
Y001814D01*
X-001317Y001468D02*
X-001007Y001778D01*
X-001297Y001488D02*
Y001796D01*
X-001247Y001538D02*
Y001773D01*
X-001147Y001638D02*
Y001779D01*
X-00135Y001784D02*
Y001811D01*
X-001337Y00203D02*
X-001328D01*
X-001347Y002041D02*
Y002068D01*
X-001408Y00168D02*
X-001105D01*
X-001364Y00173D02*
X-001054D01*
X-001142Y00178D02*
X-001015D01*
X-00135D02*
X-001269D01*
X-001097Y001688D02*
Y00181D01*
X-001047Y001738D02*
Y001799D01*
X-000978Y000329D02*
X-000875D01*
X-000978D02*
X-000851D01*
X-000748*
X-000851D02*
X-000748D01*
X-000847D02*
Y00037D01*
X-000897Y000329D02*
Y00037D01*
X-000747Y000329D02*
Y00037D01*
X-000797Y000329D02*
Y00037D01*
X-000724Y000329D02*
X-000621D01*
X-000748D02*
X-000724D01*
X-000597D02*
X-000494D01*
X-000724D02*
X-000621D01*
X-000647D02*
Y00037D01*
X-000697Y000329D02*
Y00037D01*
X-000597Y000329D02*
X-000494D01*
X-000597D02*
Y00037D01*
X-000621Y000329D02*
X-000597D01*
X-000851Y00037D02*
X-000748D01*
X-000978D02*
X-000851D01*
X-000748D02*
X-000724D01*
X-000851D02*
X-000748D01*
X-000978D02*
X-000875D01*
X-000747Y00071D02*
X-000724D01*
Y00037D02*
X-000621D01*
X-000747Y00078D02*
X-000633D01*
X-000747Y00083D02*
X-000631D01*
X-001072Y00033D02*
X-000272D01*
X-000724Y00037D02*
X-000621D01*
X-000597D02*
X-000494D01*
X-000621D02*
X-000597D01*
X-000724Y00071D02*
X-000621D01*
X-000747Y00073D02*
X-000616D01*
X-000597Y00037D02*
X-000494D01*
X-000724Y00071D02*
X-000621D01*
X-000605*
X-000494Y000329D02*
X-000367D01*
X-000497D02*
Y00037D01*
X-000367Y000329D02*
X-000343D01*
X-00047D02*
X-000367D01*
X-000447D02*
Y00037D01*
X-000547Y000329D02*
Y00037D01*
X-000347Y000329D02*
Y00037D01*
X-000397Y000329D02*
Y00037D01*
X-000343Y000329D02*
X-000272D01*
X-000343D02*
X-000272D01*
X-000297D02*
Y00037D01*
X-00005Y000329D02*
Y00037D01*
X-000494D02*
X-000367D01*
X-00047D02*
X-000367D01*
X-000343D02*
X-000272D01*
X-000367D02*
X-000343D01*
X-000272*
X-000251Y00071D02*
X-00024D01*
X-000247D02*
Y000756D01*
X-000216Y00071D02*
X-000113D01*
X-00024D02*
X-000216D01*
X-000113*
X-000256Y00073D02*
X-00005D01*
X-000113Y00071D02*
X-00005D01*
X-000251D02*
X-00024D01*
X-000241Y00078D02*
X-00005D01*
X-000747Y00071D02*
Y000837D01*
X-000747Y00071D02*
Y000837D01*
X-000647Y00071D02*
Y000926D01*
X-000697Y00071D02*
Y000859D01*
X-000747Y001102D02*
Y001529D01*
X-000747Y001102D02*
Y001345D01*
X-000647Y001013D02*
Y001629D01*
X-000697Y00108D02*
Y001579D01*
X-000673Y00088D02*
X-000607D01*
X-000645Y00093D02*
X-000532D01*
X-000654Y00103D02*
X-00005D01*
X-000747Y00118D02*
X-00005D01*
X-000747Y00123D02*
X-00005D01*
X-000747Y00113D02*
X-00005D01*
X-000698Y00108D02*
X-00005D01*
X-000931Y001345D02*
X-000874D01*
X-000931D02*
X-000874D01*
X-000747*
X-000897D02*
Y001379D01*
X-000847Y001345D02*
Y001429D01*
X-000931Y001345D02*
X-000613Y001663D01*
X-000797Y001345D02*
Y001479D01*
X-000647Y002148D02*
Y005309D01*
X-000743Y002244D02*
X-000613Y002114D01*
X-000895Y00138D02*
X-00005D01*
X-000845Y00143D02*
X-00005D01*
X-000747Y00128D02*
X-00005D01*
X-000747Y00133D02*
X-00005D01*
X-000795Y00148D02*
X-00005D01*
X-000745Y00153D02*
X-00005D01*
X-000695Y00158D02*
X-00005D01*
X-00068Y00218D02*
X-00005D01*
X-000645Y00163D02*
X-00005D01*
X-000597Y000893D02*
Y001684D01*
X-000447Y000924D02*
Y005309D01*
X-000467Y00093D02*
X-000407D01*
X-000547Y000926D02*
Y005309D01*
X-000397Y000933D02*
Y005309D01*
X-000297Y00091D02*
Y005309D01*
X-000347Y000932D02*
Y005309D01*
X-000342Y00093D02*
X-00005D01*
X-000243Y00083D02*
X-00005D01*
X-000266Y00088D02*
X-00005D01*
X-000197Y00071D02*
Y005309D01*
X-000247Y000843D02*
Y005309D01*
X-00005Y00071D02*
Y005309D01*
X-000147Y00071D02*
Y005309D01*
X-000097Y00071D02*
Y005309D01*
X-00064Y00098D02*
X-00005D01*
X-000582Y00173D02*
X-00005D01*
X-000497Y000934D02*
Y005309D01*
X-000597Y002093D02*
Y005309D01*
X-000582Y001737D02*
Y00204D01*
X-000599Y00168D02*
X-00005D01*
X-000582Y00178D02*
X-00005D01*
X-000582Y00183D02*
X-00005D01*
X-000582Y00188D02*
X-00005D01*
X-00059Y00208D02*
X-00005D01*
X-000629Y00213D02*
X-00005D01*
X-000582Y00193D02*
X-00005D01*
X-000582Y00203D02*
X-00005D01*
X-000582Y00198D02*
X-00005D01*
X-001947Y00234D02*
Y004661D01*
X-001993D02*
X-00189D01*
X-001897Y002325D02*
Y004661D01*
X-001909Y00233D02*
X-001772D01*
X-001866Y004661D02*
X-001763D01*
X-001993D02*
X-00189D01*
X-001847Y002286D02*
Y004661D01*
X-001797Y002318D02*
Y004661D01*
X-001763D02*
X-001739D01*
X-001655Y00233D02*
X-001518D01*
X-001697Y002341D02*
Y004661D01*
X-001747Y002338D02*
Y004661D01*
X-001739D02*
X-001636D01*
X-001647Y002327D02*
Y004661D01*
X-001636D02*
X-001612D01*
X-001509*
X-001866D02*
X-001763D01*
X-00189D02*
X-001866D01*
X-001833Y005001D02*
X-001763D01*
X-001833D02*
X-001763D01*
X-001739*
X-001833Y005042D02*
X-001763D01*
X-001739*
Y004661D02*
X-001636D01*
X-001739Y005001D02*
X-001636D01*
X-001612*
X-001739D02*
X-001636D01*
X-001647D02*
Y005042D01*
X-001697Y005001D02*
Y005042D01*
X-001612Y005001D02*
X-001509D01*
X-001636Y005042D02*
X-001612D01*
Y005001D02*
X-001509D01*
X-001485Y004661D02*
X-001382D01*
X-001509D02*
X-001485D01*
X-001397Y002329D02*
Y004661D01*
X-001447Y002341D02*
Y004661D01*
X-001597Y002291D02*
Y004661D01*
X-001612D02*
X-001509D01*
X-001547Y002316D02*
Y004661D01*
X-001497Y002337D02*
Y004661D01*
X-001485D02*
X-001382D01*
X-001347Y002295D02*
Y004661D01*
X-001401Y00233D02*
X-001264D01*
X-001297Y002313D02*
Y004661D01*
X-001382D02*
X-001358D01*
X-001147Y00233D02*
Y004661D01*
X-001247Y002336D02*
Y004661D01*
X-001197Y002341D02*
Y004661D01*
X-001485Y005001D02*
X-001382D01*
X-001485D02*
X-001382D01*
X-001358Y004661D02*
X-001255D01*
X-001358D02*
X-001255D01*
X-001509Y005001D02*
X-001485D01*
X-001597D02*
Y005042D01*
X-001358Y005001D02*
X-001255D01*
X-001382D02*
X-001358D01*
X-001255*
X-001231Y004661D02*
X-001128D01*
X-001255D02*
X-001231D01*
X-001128*
X-001231Y005001D02*
X-001128D01*
X-001231D02*
X-001128D01*
X-001255D02*
X-001231D01*
X-001147D02*
Y005042D01*
X-001231D02*
X-001128D01*
X-001104*
X-001993Y005649D02*
X-00189D01*
X-001797Y005001D02*
Y005042D01*
X-001947Y005649D02*
Y00569D01*
X-001993Y005649D02*
X-00189D01*
X-001847D02*
Y00569D01*
X-001897Y005649D02*
Y00569D01*
X-001747Y005001D02*
Y005042D01*
X-001833D02*
X-001763D01*
X-001612D02*
X-001509D01*
X-001739D02*
X-001636D01*
X-001866Y005649D02*
X-001763D01*
X-001866D02*
X-001763D01*
X-001612Y005042D02*
X-001509D01*
X-001797Y005649D02*
Y00569D01*
X-001739Y005042D02*
X-001636D01*
X-00189Y005649D02*
X-001866D01*
X-001993Y00569D02*
X-00189D01*
X-001763Y005649D02*
X-001739D01*
X-00189Y00569D02*
X-001866D01*
X-001763*
X-001993D02*
X-00189D01*
X-001747Y005649D02*
Y00569D01*
X-001866D02*
X-001763D01*
X-001739*
Y005649D02*
X-001636D01*
X-001739D02*
X-001636D01*
X-001612D02*
X-001541D01*
X-001636D02*
X-001612D01*
X-001739Y00569D02*
X-001636D01*
X-001739D02*
X-001636D01*
X-001697Y005649D02*
Y00569D01*
X-001647Y005649D02*
Y00569D01*
X-001636D02*
X-001612D01*
X-001485Y005042D02*
X-001382D01*
X-001485D02*
X-001382D01*
X-001397Y005001D02*
Y005042D01*
X-001382D02*
X-001358D01*
X-001547Y005001D02*
Y005042D01*
X-001509D02*
X-001485D01*
X-001447Y005001D02*
Y005042D01*
X-001497Y005001D02*
Y005042D01*
X-001358D02*
X-001255D01*
X-001358D02*
X-001255D01*
X-001297Y005001D02*
Y005042D01*
X-001347Y005001D02*
Y005042D01*
X-001255D02*
X-001231D01*
X-001297Y005649D02*
Y00569D01*
X-001247Y005001D02*
Y005042D01*
X-001197Y005001D02*
Y005042D01*
X-001231D02*
X-001128D01*
X-001547Y005649D02*
Y00569D01*
X-001612Y005649D02*
X-001541D01*
X-001612Y00569D02*
X-001541D01*
X-001612D02*
X-001541D01*
X-001597Y005649D02*
Y00569D01*
X-001325Y005649D02*
X-001287D01*
X-001325D02*
X-001287D01*
X-001324Y00568D02*
X-001288D01*
X-001325Y00569D02*
X-001287D01*
X-001325D02*
X-001287D01*
X-001147Y00233D02*
X-00101D01*
X-001097Y002299D02*
Y004661D01*
X-001128D02*
X-001104D01*
X-001001*
X-001104D02*
X-001001D01*
X-001047Y00231D02*
Y004661D01*
X-000997Y002335D02*
Y004661D01*
X-000893Y00233D02*
X-00005D01*
X-000826Y00228D02*
X-00005D01*
X-000977Y004661D02*
X-000874D01*
X-001001D02*
X-000977D01*
X-000847Y002302D02*
Y004661D01*
X-000947Y002341D02*
Y004661D01*
X-000897Y002332D02*
Y004661D01*
X-001128Y005001D02*
X-001104D01*
X-001832Y00503D02*
X-001035D01*
X-001104Y005001D02*
X-001034D01*
X-001104D02*
X-001034D01*
X-001104Y005042D02*
X-001034D01*
X-001104D02*
X-001034D01*
X-001097Y005001D02*
Y005042D01*
X-001047Y005001D02*
Y005042D01*
X-000874Y004661D02*
X-000747D01*
X-000977D02*
X-000874D01*
X-000817Y005001D02*
X-000747D01*
X-000817Y005042D02*
X-000747D01*
X-000797Y002272D02*
Y004661D01*
X-000747D02*
Y005001D01*
Y00468D02*
X-00005D01*
X-000797Y005001D02*
Y005042D01*
X-000747D02*
Y005309D01*
X-000697Y002198D02*
Y005309D01*
X-000747Y002247D02*
Y005309D01*
X-000747Y00478D02*
X-00005D01*
X-000747Y00483D02*
X-00005D01*
X-000729Y00223D02*
X-00005D01*
X-000747Y00473D02*
X-00005D01*
X-000747Y00493D02*
X-00005D01*
X-000816Y00503D02*
X-00005D01*
X-000747Y00488D02*
X-00005D01*
X-000747Y00508D02*
X-00005D01*
X-000747Y00498D02*
X-00005D01*
X-000469Y005309D02*
X-000366D01*
X-000493D02*
X-000469D01*
X-000342D02*
X-000238D01*
X-000366D02*
X-000342D01*
X-000723D02*
X-000619D01*
X-000747D02*
X-000723D01*
X-000596D02*
X-000493D01*
X-000619D02*
X-000596D01*
X-000493*
X-000747Y00523D02*
X-00005D01*
X-000747Y00528D02*
X-00005D01*
X-000747Y00513D02*
X-00005D01*
X-000747Y00518D02*
X-00005D01*
X-000238Y005309D02*
X-000215D01*
X-000342D02*
X-000238D01*
X-000111D02*
X-00005D01*
X-000215D02*
X-000111D01*
X-000215D02*
X-000111D01*
X-001071Y005649D02*
X-001001D01*
X-001071D02*
X-001001D01*
X-000977*
X-001047D02*
Y00569D01*
X-000947Y005649D02*
Y00569D01*
X-000997Y005649D02*
Y00569D01*
X-000977Y005649D02*
X-000873D01*
X-000977D02*
X-000873D01*
X-000723Y005309D02*
X-000619D01*
X-000873Y005649D02*
X-00085D01*
X-000747*
X-000897D02*
Y00569D01*
X-000723Y005649D02*
X-000619D01*
X-000797D02*
Y00569D01*
X-000747Y005649D02*
X-000723D01*
X-000977Y00569D02*
X-000873D01*
X-000977D02*
X-000873D01*
X-000847Y005649D02*
Y00569D01*
X-000873D02*
X-00085D01*
X-001001D02*
X-000977D01*
X-001071D02*
X-001001D01*
X-001071D02*
X-001001D01*
X-00085Y005649D02*
X-000747D01*
X-00107Y00568D02*
X-000272D01*
X-000723Y005649D02*
X-000619D01*
X-000747D02*
Y00569D01*
X-00085D02*
X-000747D01*
X-00085D02*
X-000747D01*
X-000723D02*
X-000619D01*
X-000747D02*
X-000723D01*
X-000619*
Y005649D02*
X-000596D01*
X-000647D02*
Y00569D01*
X-000596Y005649D02*
X-000493D01*
X-000596D02*
X-000493D01*
X-000597D02*
Y00569D01*
X-000697Y005649D02*
Y00569D01*
X-000497Y005649D02*
Y00569D01*
X-000547Y005649D02*
Y00569D01*
X-000469Y005309D02*
X-000366D01*
X-000493Y005649D02*
X-000469D01*
X-000366*
X-000469D02*
X-000366D01*
X-000397D02*
Y00569D01*
X-000447Y005649D02*
Y00569D01*
X-00005Y005649D02*
Y00569D01*
X-000297Y005649D02*
Y00569D01*
X-000596D02*
X-000493D01*
X-000619D02*
X-000596D01*
X-000366Y005649D02*
X-000342D01*
X-000493Y00569D02*
X-000469D01*
X-000366*
X-000596D02*
X-000493D01*
X-000347Y005649D02*
Y00569D01*
X-000469D02*
X-000366D01*
X-000342*
Y005649D02*
X-000271D01*
X-000342D02*
X-000271D01*
X-000342Y00569D02*
X-000271D01*
X-000342D02*
X-000271D01*
X-003234Y001545D02*
X-003054D01*
X-002672Y001928*
X-002475*
G54D11*
X-000354Y00054D02*
Y000694D01*
X-000375Y000715D02*
X-000354Y000694D01*
X-000375Y000715D02*
Y000799D01*
X-000481Y00054D02*
Y000691D01*
X-000499Y00071D02*
X-000481Y000691D01*
X-000499Y00071D02*
Y000799D01*
X-000687Y001737D02*
Y00204D01*
X-000817Y002169D02*
X-000687Y00204D01*
X-00094Y002169D02*
X-000817D01*
X-000951Y002181D02*
X-00094Y002169D01*
X-001116Y001308D02*
X-000687Y001737D01*
X-001116Y001175D02*
Y001308D01*
X-000802Y001834D02*
Y001985D01*
X-001243Y001394D02*
X-000802Y001834D01*
X-001243Y001175D02*
Y001394D01*
X-000872Y002054D02*
X-000802Y001985D01*
X-001105Y002054D02*
X-000872D01*
X-001205Y002156D02*
X-001105Y002054D01*
X-001205Y002156D02*
Y002181D01*
X-000862Y000794D02*
Y000882D01*
X-000775Y00097*
X-003275Y000669D02*
Y000794D01*
X-003345D02*
X-003275D01*
X-002583Y000159D02*
X-002513D01*
X-002475Y001813D02*
Y001928D01*
X-002591D02*
X-002475D01*
G54D12*
X-001122Y000975D02*
X-001116Y000969D01*
X-001124Y000975D02*
X-001122D01*
G54D14*
X-003212Y005022D03*
X-002196D03*
X-001942D03*
X-000926D03*
X-002449Y005669D03*
X-001433D03*
X-001179D03*
X-000163D03*
X-003212Y000985D03*
X-002196D03*
X-001942D03*
X-000926D03*
X-000164Y00035D03*
X-00118D03*
X-001434D03*
X-00245D03*
G54D15*
X-002475Y001928D03*
G54D16*
X-002475Y002181D03*
X-002221Y001928D03*
Y002181D03*
X-001967Y001928D03*
Y002181D03*
X-001713Y001928D03*
Y002181D03*
X-001459Y001928D03*
Y002181D03*
X-001205D03*
Y001928D03*
X-000951Y002181D03*
Y001928D03*
G54D17*
X-000375Y000799D03*
X-000499D03*
X-001124Y000975D03*
X-00125D03*
X-001375D03*
X-001499D03*
X-000775Y00097D03*
G54D18*
X-002132Y004831D03*
Y005212D03*
X-002259Y004831D03*
X-002386D03*
X-002259Y005212D03*
X-002386D03*
X-002513Y004831D03*
Y005212D03*
X-00264Y004831D03*
Y005212D03*
X-002767Y004831D03*
Y005212D03*
X-002894Y004831D03*
Y005212D03*
X-003148D03*
X-003275D03*
Y004831D03*
X-003148D03*
X-003021Y005212D03*
Y004831D03*
X-000862D03*
Y005212D03*
X-000989Y004831D03*
X-001116D03*
X-000989Y005212D03*
X-001116D03*
X-001243Y004831D03*
Y005212D03*
X-00137Y004831D03*
Y005212D03*
X-001497Y004831D03*
Y005212D03*
X-001624Y004831D03*
Y005212D03*
X-001878D03*
X-002005D03*
Y004831D03*
X-001878D03*
X-001751Y005212D03*
Y004831D03*
X-001369Y005479D03*
Y00586D03*
X-001496Y005479D03*
X-001623D03*
X-001496Y00586D03*
X-001623D03*
X-00175Y005479D03*
Y00586D03*
X-001877Y005479D03*
Y00586D03*
X-002004Y005479D03*
Y00586D03*
X-002131Y005479D03*
Y00586D03*
X-002385D03*
X-002512D03*
Y005479D03*
X-002385D03*
X-002258Y00586D03*
Y005479D03*
X-000099D03*
Y00586D03*
X-000226Y005479D03*
X-000353D03*
X-000226Y00586D03*
X-000353D03*
X-00048Y005479D03*
Y00586D03*
X-000607Y005479D03*
Y00586D03*
X-000734Y005479D03*
Y00586D03*
X-000861Y005479D03*
Y00586D03*
X-001115D03*
X-001242D03*
Y005479D03*
X-001115D03*
X-000988Y00586D03*
Y005479D03*
X-002132Y000794D03*
Y001175D03*
X-002259Y000794D03*
X-002386D03*
X-002259Y001175D03*
X-002386D03*
X-002513Y000794D03*
Y001175D03*
X-00264Y000794D03*
Y001175D03*
X-002767Y000794D03*
Y001175D03*
X-002894Y000794D03*
Y001175D03*
X-003148D03*
X-003275D03*
Y000794D03*
X-003148D03*
X-003021Y001175D03*
Y000794D03*
X-000862D03*
Y001175D03*
X-000989Y000794D03*
X-001116D03*
X-000989Y001175D03*
X-001116D03*
X-001243Y000794D03*
Y001175D03*
X-00137Y000794D03*
Y001175D03*
X-001497Y000794D03*
Y001175D03*
X-001624Y000794D03*
Y001175D03*
X-001878D03*
X-002005D03*
Y000794D03*
X-001878D03*
X-001751Y001175D03*
Y000794D03*
X-000989Y000159D03*
Y00054D03*
X-001116Y000159D03*
X-001243D03*
Y00054D03*
X-001116D03*
X-000862D03*
Y000159D03*
X-000735Y00054D03*
Y000159D03*
X-000608Y00054D03*
Y000159D03*
X-000481Y00054D03*
Y000159D03*
X-000354Y00054D03*
X-000227D03*
X-000354Y000159D03*
X-000227D03*
X-0001Y00054D03*
Y000159D03*
X-002259D03*
Y00054D03*
X-002386Y000159D03*
X-002513D03*
Y00054D03*
X-002386D03*
X-002132D03*
Y000159D03*
X-002005Y00054D03*
Y000159D03*
X-001878Y00054D03*
Y000159D03*
X-001751Y00054D03*
Y000159D03*
X-001624Y00054D03*
X-001497D03*
X-001624Y000159D03*
X-001497D03*
X-00137Y00054D03*
Y000159D03*
M02*