%FSTAX42Y42*%
%MOMM*%
%SFA1B1*%

%IPPOS*%
%ADD10C,0.500126*%
%ADD11C,0.400050*%
%ADD12C,0.299974*%
%ADD13C,0.254000*%
%ADD14C,0.500126*%
%ADD15R,1.500124X1.500124*%
%ADD16C,1.500124*%
%ADD17C,0.999998*%
%LNpcb_monitoring_connecta10-1*%
%LPD*%
G54D10*
X-003091Y000985D02*
D01*
X-003092Y000993*
X-003093Y001001*
X-003094Y001009*
X-003096Y001018*
X-003099Y001026*
X-003102Y001033*
X-003106Y001041*
X-00311Y001048*
X-003114Y001055*
X-00312Y001062*
X-003125Y001068*
X-003131Y001074*
X-003138Y001079*
X-003144Y001084*
X-003151Y001088*
X-003159Y001092*
X-003167Y001096*
X-003174Y001099*
X-003182Y001101*
X-003191Y001103*
X-003199Y001104*
X-003207Y001104*
X-003216*
X-003224Y001104*
X-003232Y001103*
X-003241Y001101*
X-003249Y001099*
X-003256Y001096*
X-003264Y001092*
X-003271Y001088*
X-003279Y001084*
X-003285Y001079*
X-003292Y001074*
X-003298Y001068*
X-003303Y001062*
X-003309Y001055*
X-003313Y001048*
X-003317Y001041*
X-003321Y001033*
X-003324Y001026*
X-003327Y001018*
X-003329Y001009*
X-00333Y001001*
X-003331Y000993*
X-003331Y000985*
X-003331Y000976*
X-00333Y000968*
X-003329Y00096*
X-003327Y000951*
X-003324Y000943*
X-003321Y000936*
X-003317Y000928*
X-003313Y000921*
X-003309Y000914*
X-003303Y000907*
X-003298Y000901*
X-003292Y000895*
X-003285Y00089*
X-003279Y000885*
X-003271Y000881*
X-003264Y000877*
X-003256Y000873*
X-003249Y00087*
X-003241Y000868*
X-003232Y000866*
X-003224Y000865*
X-003216Y000865*
X-003207*
X-003199Y000865*
X-003191Y000866*
X-003182Y000868*
X-003174Y00087*
X-003167Y000873*
X-003159Y000877*
X-003151Y000881*
X-003144Y000885*
X-003138Y00089*
X-003131Y000895*
X-003125Y000901*
X-00312Y000907*
X-003114Y000914*
X-00311Y000921*
X-003106Y000928*
X-003102Y000936*
X-003099Y000943*
X-003096Y000951*
X-003094Y00096*
X-003093Y000968*
X-003092Y000976*
X-003091Y000985*
D01*
X-003092Y000993*
X-003093Y001001*
X-003094Y001009*
X-003096Y001018*
X-003099Y001026*
X-003102Y001033*
X-003106Y001041*
X-00311Y001048*
X-003114Y001055*
X-00312Y001062*
X-003125Y001068*
X-003131Y001074*
X-003138Y001079*
X-003144Y001084*
X-003151Y001088*
X-003159Y001092*
X-003167Y001096*
X-003174Y001099*
X-003182Y001101*
X-003191Y001103*
X-003199Y001104*
X-003207Y001104*
X-003216*
X-003224Y001104*
X-003232Y001103*
X-003241Y001101*
X-003249Y001099*
X-003256Y001096*
X-003264Y001092*
X-003271Y001088*
X-003279Y001084*
X-003285Y001079*
X-003292Y001074*
X-003298Y001068*
X-003303Y001062*
X-003309Y001055*
X-003313Y001048*
X-003317Y001041*
X-003321Y001033*
X-003324Y001026*
X-003327Y001018*
X-003329Y001009*
X-00333Y001001*
X-003331Y000993*
X-003331Y000985*
X-003331Y000976*
X-00333Y000968*
X-003329Y00096*
X-003327Y000951*
X-003324Y000943*
X-003321Y000936*
X-003317Y000928*
X-003313Y000921*
X-003309Y000914*
X-003303Y000907*
X-003298Y000901*
X-003292Y000895*
X-003285Y00089*
X-003279Y000885*
X-003271Y000881*
X-003264Y000877*
X-003256Y000873*
X-003249Y00087*
X-003241Y000868*
X-003232Y000866*
X-003224Y000865*
X-003216Y000865*
X-003207*
X-003199Y000865*
X-003191Y000866*
X-003182Y000868*
X-003174Y00087*
X-003167Y000873*
X-003159Y000877*
X-003151Y000881*
X-003144Y000885*
X-003138Y00089*
X-003131Y000895*
X-003125Y000901*
X-00312Y000907*
X-003114Y000914*
X-00311Y000921*
X-003106Y000928*
X-003102Y000936*
X-003099Y000943*
X-003096Y000951*
X-003094Y00096*
X-003093Y000968*
X-003092Y000976*
X-003091Y000985*
X-002731Y001518D02*
D01*
X-002725Y001513*
X-002719Y001508*
X-002712Y001503*
X-002705Y001499*
X-002698Y001495*
X-002691Y001492*
X-002683Y00149*
X-002675Y001487*
X-002667Y001486*
X-00266Y001485*
X-002652Y001485*
X-00265Y001485*
X-002731Y001518D02*
D01*
X-002725Y001513*
X-002719Y001508*
X-002712Y001503*
X-002705Y001499*
X-002698Y001495*
X-002691Y001492*
X-002683Y00149*
X-002675Y001487*
X-002667Y001486*
X-00266Y001485*
X-002652Y001485*
X-00265Y001485*
X-002889Y001724D02*
D01*
X-002889Y001716*
X-002888Y001708*
X-002887Y001701*
X-002885Y001693*
X-002883Y001685*
X-00288Y001678*
X-002876Y00167*
X-002872Y001664*
X-002868Y001657*
X-002863Y001651*
X-002857Y001645*
X-002856Y001643*
X-002889Y001724D02*
D01*
X-002889Y001716*
X-002888Y001708*
X-002887Y001701*
X-002885Y001693*
X-002883Y001685*
X-00288Y001678*
X-002876Y00167*
X-002872Y001664*
X-002868Y001657*
X-002863Y001651*
X-002857Y001645*
X-002856Y001643*
Y002256D02*
D01*
X-002861Y00225*
X-002866Y002244*
X-002871Y002237*
X-002875Y00223*
X-002879Y002223*
X-002882Y002216*
X-002884Y002208*
X-002887Y0022*
X-002888Y002192*
X-002889Y002185*
X-002889Y002177*
X-002889Y002175*
X-002856Y002256D02*
D01*
X-002861Y00225*
X-002866Y002244*
X-002871Y002237*
X-002875Y00223*
X-002879Y002223*
X-002882Y002216*
X-002884Y002208*
X-002887Y0022*
X-002888Y002192*
X-002889Y002185*
X-002889Y002177*
X-002889Y002175*
X-00233Y00035D02*
D01*
X-00233Y000358*
X-002331Y000366*
X-002333Y000374*
X-002335Y000383*
X-002337Y000391*
X-00234Y000398*
X-002344Y000406*
X-002348Y000413*
X-002353Y00042*
X-002358Y000427*
X-002364Y000433*
X-00237Y000439*
X-002376Y000444*
X-002383Y000449*
X-00239Y000453*
X-002397Y000457*
X-002405Y000461*
X-002413Y000464*
X-002421Y000466*
X-002429Y000468*
X-002437Y000469*
X-002446Y000469*
X-002454*
X-002463Y000469*
X-002471Y000468*
X-002479Y000466*
X-002487Y000464*
X-002495Y000461*
X-002503Y000457*
X-00251Y000453*
X-002517Y000449*
X-002524Y000444*
X-00253Y000439*
X-002536Y000433*
X-002542Y000427*
X-002547Y00042*
X-002552Y000413*
X-002556Y000406*
X-00256Y000398*
X-002563Y000391*
X-002565Y000383*
X-002567Y000374*
X-002569Y000366*
X-00257Y000358*
X-00257Y00035*
X-00257Y000341*
X-002569Y000333*
X-002567Y000325*
X-002565Y000316*
X-002563Y000308*
X-00256Y000301*
X-002556Y000293*
X-002552Y000286*
X-002547Y000279*
X-002542Y000272*
X-002536Y000266*
X-00253Y00026*
X-002524Y000255*
X-002517Y00025*
X-00251Y000246*
X-002503Y000242*
X-002495Y000238*
X-002487Y000235*
X-002479Y000233*
X-002471Y000231*
X-002463Y00023*
X-002454Y00023*
X-002446*
X-002437Y00023*
X-002429Y000231*
X-002421Y000233*
X-002413Y000235*
X-002405Y000238*
X-002397Y000242*
X-00239Y000246*
X-002383Y00025*
X-002376Y000255*
X-00237Y00026*
X-002364Y000266*
X-002358Y000272*
X-002353Y000279*
X-002348Y000286*
X-002344Y000293*
X-00234Y000301*
X-002337Y000308*
X-002335Y000316*
X-002333Y000325*
X-002331Y000333*
X-00233Y000341*
X-00233Y00035*
D01*
X-00233Y000358*
X-002331Y000366*
X-002333Y000374*
X-002335Y000383*
X-002337Y000391*
X-00234Y000398*
X-002344Y000406*
X-002348Y000413*
X-002353Y00042*
X-002358Y000427*
X-002364Y000433*
X-00237Y000439*
X-002376Y000444*
X-002383Y000449*
X-00239Y000453*
X-002397Y000457*
X-002405Y000461*
X-002413Y000464*
X-002421Y000466*
X-002429Y000468*
X-002437Y000469*
X-002446Y000469*
X-002454*
X-002463Y000469*
X-002471Y000468*
X-002479Y000466*
X-002487Y000464*
X-002495Y000461*
X-002503Y000457*
X-00251Y000453*
X-002517Y000449*
X-002524Y000444*
X-00253Y000439*
X-002536Y000433*
X-002542Y000427*
X-002547Y00042*
X-002552Y000413*
X-002556Y000406*
X-00256Y000398*
X-002563Y000391*
X-002565Y000383*
X-002567Y000374*
X-002569Y000366*
X-00257Y000358*
X-00257Y00035*
X-00257Y000341*
X-002569Y000333*
X-002567Y000325*
X-002565Y000316*
X-002563Y000308*
X-00256Y000301*
X-002556Y000293*
X-002552Y000286*
X-002547Y000279*
X-002542Y000272*
X-002536Y000266*
X-00253Y00026*
X-002524Y000255*
X-002517Y00025*
X-00251Y000246*
X-002503Y000242*
X-002495Y000238*
X-002487Y000235*
X-002479Y000233*
X-002471Y000231*
X-002463Y00023*
X-002454Y00023*
X-002446*
X-002437Y00023*
X-002429Y000231*
X-002421Y000233*
X-002413Y000235*
X-002405Y000238*
X-002397Y000242*
X-00239Y000246*
X-002383Y00025*
X-002376Y000255*
X-00237Y00026*
X-002364Y000266*
X-002358Y000272*
X-002353Y000279*
X-002348Y000286*
X-002344Y000293*
X-00234Y000301*
X-002337Y000308*
X-002335Y000316*
X-002333Y000325*
X-002331Y000333*
X-00233Y000341*
X-00233Y00035*
X-002075Y000985D02*
D01*
X-002076Y000993*
X-002077Y001001*
X-002078Y001009*
X-00208Y001018*
X-002083Y001026*
X-002086Y001033*
X-00209Y001041*
X-002094Y001048*
X-002098Y001055*
X-002104Y001062*
X-002109Y001068*
X-002115Y001074*
X-002122Y001079*
X-002128Y001084*
X-002135Y001088*
X-002143Y001092*
X-002151Y001096*
X-002158Y001099*
X-002166Y001101*
X-002175Y001103*
X-002183Y001104*
X-002191Y001104*
X-0022*
X-002208Y001104*
X-002216Y001103*
X-002225Y001101*
X-002233Y001099*
X-00224Y001096*
X-002248Y001092*
X-002255Y001088*
X-002263Y001084*
X-002269Y001079*
X-002276Y001074*
X-002282Y001068*
X-002287Y001062*
X-002293Y001055*
X-002297Y001048*
X-002301Y001041*
X-002305Y001033*
X-002308Y001026*
X-002311Y001018*
X-002313Y001009*
X-002314Y001001*
X-002315Y000993*
X-002315Y000985*
X-002315Y000976*
X-002314Y000968*
X-002313Y00096*
X-002311Y000951*
X-002308Y000943*
X-002305Y000936*
X-002301Y000928*
X-002297Y000921*
X-002293Y000914*
X-002287Y000907*
X-002282Y000901*
X-002276Y000895*
X-002269Y00089*
X-002263Y000885*
X-002255Y000881*
X-002248Y000877*
X-00224Y000873*
X-002233Y00087*
X-002225Y000868*
X-002216Y000866*
X-002208Y000865*
X-0022Y000865*
X-002191*
X-002183Y000865*
X-002175Y000866*
X-002166Y000868*
X-002158Y00087*
X-002151Y000873*
X-002143Y000877*
X-002135Y000881*
X-002128Y000885*
X-002122Y00089*
X-002115Y000895*
X-002109Y000901*
X-002104Y000907*
X-002098Y000914*
X-002094Y000921*
X-00209Y000928*
X-002086Y000936*
X-002083Y000943*
X-00208Y000951*
X-002078Y00096*
X-002077Y000968*
X-002076Y000976*
X-002075Y000985*
D01*
X-002076Y000993*
X-002077Y001001*
X-002078Y001009*
X-00208Y001018*
X-002083Y001026*
X-002086Y001033*
X-00209Y001041*
X-002094Y001048*
X-002098Y001055*
X-002104Y001062*
X-002109Y001068*
X-002115Y001074*
X-002122Y001079*
X-002128Y001084*
X-002135Y001088*
X-002143Y001092*
X-002151Y001096*
X-002158Y001099*
X-002166Y001101*
X-002175Y001103*
X-002183Y001104*
X-002191Y001104*
X-0022*
X-002208Y001104*
X-002216Y001103*
X-002225Y001101*
X-002233Y001099*
X-00224Y001096*
X-002248Y001092*
X-002255Y001088*
X-002263Y001084*
X-002269Y001079*
X-002276Y001074*
X-002282Y001068*
X-002287Y001062*
X-002293Y001055*
X-002297Y001048*
X-002301Y001041*
X-002305Y001033*
X-002308Y001026*
X-002311Y001018*
X-002313Y001009*
X-002314Y001001*
X-002315Y000993*
X-002315Y000985*
X-002315Y000976*
X-002314Y000968*
X-002313Y00096*
X-002311Y000951*
X-002308Y000943*
X-002305Y000936*
X-002301Y000928*
X-002297Y000921*
X-002293Y000914*
X-002287Y000907*
X-002282Y000901*
X-002276Y000895*
X-002269Y00089*
X-002263Y000885*
X-002255Y000881*
X-002248Y000877*
X-00224Y000873*
X-002233Y00087*
X-002225Y000868*
X-002216Y000866*
X-002208Y000865*
X-0022Y000865*
X-002191*
X-002183Y000865*
X-002175Y000866*
X-002166Y000868*
X-002158Y00087*
X-002151Y000873*
X-002143Y000877*
X-002135Y000881*
X-002128Y000885*
X-002122Y00089*
X-002115Y000895*
X-002109Y000901*
X-002104Y000907*
X-002098Y000914*
X-002094Y000921*
X-00209Y000928*
X-002086Y000936*
X-002083Y000943*
X-00208Y000951*
X-002078Y00096*
X-002077Y000968*
X-002076Y000976*
X-002075Y000985*
X-002094Y002041D02*
D01*
X-002103Y002049*
X-002108Y002054*
D01*
X-0021Y002063*
X-002094Y002068*
X-002081Y002054D02*
D01*
X-002089Y002046*
X-002094Y002041*
Y002295D02*
D01*
X-002103Y002303*
X-002111Y002311*
X-002121Y002318*
X-002131Y002325*
X-002141Y002331*
X-002151Y002336*
X-002162Y002341*
X-002174Y002345*
X-002185Y002348*
X-002197Y00235*
X-002209Y002351*
X-00222Y002352*
X-002229Y002351*
X-002094Y002068D02*
D01*
X-002086Y00206*
X-002081Y002054*
X-00184Y002295D02*
D01*
X-001849Y002303*
X-001857Y002311*
X-001867Y002318*
X-001877Y002325*
X-001887Y002331*
X-001897Y002336*
X-001908Y002341*
X-00192Y002345*
X-001931Y002348*
X-001943Y00235*
X-001955Y002351*
X-001966Y002352*
X-001978Y002351*
X-00199Y00235*
X-002002Y002348*
X-002013Y002345*
X-002025Y002342*
X-002036Y002337*
X-002046Y002332*
X-002057Y002326*
X-002067Y00232*
X-002076Y002312*
X-002085Y002304*
X-002093Y002296*
X-002094Y002295*
X-003091Y005022D02*
D01*
X-003092Y00503*
X-003093Y005039*
X-003094Y005047*
X-003096Y005055*
X-003099Y005063*
X-003102Y005071*
X-003106Y005078*
X-00311Y005086*
X-003114Y005093*
X-00312Y005099*
X-003125Y005105*
X-003131Y005111*
X-003138Y005117*
X-003144Y005121*
X-003151Y005126*
X-003159Y00513*
X-003167Y005133*
X-003174Y005136*
X-003182Y005138*
X-003191Y00514*
X-003199Y005141*
X-003207Y005142*
X-003216*
X-003224Y005141*
X-003232Y00514*
X-003241Y005138*
X-003249Y005136*
X-003256Y005133*
X-003264Y00513*
X-003271Y005126*
X-003279Y005121*
X-003285Y005117*
X-003292Y005111*
X-003298Y005105*
X-003303Y005099*
X-003309Y005093*
X-003313Y005086*
X-003317Y005078*
X-003321Y005071*
X-003324Y005063*
X-003327Y005055*
X-003329Y005047*
X-00333Y005039*
X-003331Y00503*
X-003331Y005022*
X-003331Y005014*
X-00333Y005005*
X-003329Y004997*
X-003327Y004989*
X-003324Y004981*
X-003321Y004973*
X-003317Y004966*
X-003313Y004958*
X-003309Y004951*
X-003303Y004945*
X-003298Y004939*
X-003292Y004933*
X-003285Y004927*
X-003279Y004923*
X-003271Y004918*
X-003264Y004914*
X-003256Y004911*
X-003249Y004908*
X-003241Y004906*
X-003232Y004904*
X-003224Y004903*
X-003216Y004902*
X-003207*
X-003199Y004903*
X-003191Y004904*
X-003182Y004906*
X-003174Y004908*
X-003167Y004911*
X-003159Y004914*
X-003151Y004918*
X-003144Y004923*
X-003138Y004927*
X-003131Y004933*
X-003125Y004939*
X-00312Y004945*
X-003114Y004951*
X-00311Y004958*
X-003106Y004966*
X-003102Y004973*
X-003099Y004981*
X-003096Y004989*
X-003094Y004997*
X-003093Y005005*
X-003092Y005014*
X-003091Y005022*
D01*
X-003092Y00503*
X-003093Y005039*
X-003094Y005047*
X-003096Y005055*
X-003099Y005063*
X-003102Y005071*
X-003106Y005078*
X-00311Y005086*
X-003114Y005093*
X-00312Y005099*
X-003125Y005105*
X-003131Y005111*
X-003138Y005117*
X-003144Y005121*
X-003151Y005126*
X-003159Y00513*
X-003167Y005133*
X-003174Y005136*
X-003182Y005138*
X-003191Y00514*
X-003199Y005141*
X-003207Y005142*
X-003216*
X-003224Y005141*
X-003232Y00514*
X-003241Y005138*
X-003249Y005136*
X-003256Y005133*
X-003264Y00513*
X-003271Y005126*
X-003279Y005121*
X-003285Y005117*
X-003292Y005111*
X-003298Y005105*
X-003303Y005099*
X-003309Y005093*
X-003313Y005086*
X-003317Y005078*
X-003321Y005071*
X-003324Y005063*
X-003327Y005055*
X-003329Y005047*
X-00333Y005039*
X-003331Y00503*
X-003331Y005022*
X-003331Y005014*
X-00333Y005005*
X-003329Y004997*
X-003327Y004989*
X-003324Y004981*
X-003321Y004973*
X-003317Y004966*
X-003313Y004958*
X-003309Y004951*
X-003303Y004945*
X-003298Y004939*
X-003292Y004933*
X-003285Y004927*
X-003279Y004923*
X-003271Y004918*
X-003264Y004914*
X-003256Y004911*
X-003249Y004908*
X-003241Y004906*
X-003232Y004904*
X-003224Y004903*
X-003216Y004902*
X-003207*
X-003199Y004903*
X-003191Y004904*
X-003182Y004906*
X-003174Y004908*
X-003167Y004911*
X-003159Y004914*
X-003151Y004918*
X-003144Y004923*
X-003138Y004927*
X-003131Y004933*
X-003125Y004939*
X-00312Y004945*
X-003114Y004951*
X-00311Y004958*
X-003106Y004966*
X-003102Y004973*
X-003099Y004981*
X-003096Y004989*
X-003094Y004997*
X-003093Y005005*
X-003092Y005014*
X-003091Y005022*
X-002625Y00244D02*
D01*
X-002633Y002439*
X-002641Y002438*
X-002648Y002437*
X-002656Y002435*
X-002664Y002433*
X-002671Y00243*
X-002679Y002426*
X-002685Y002422*
X-002692Y002418*
X-002698Y002413*
X-002704Y002407*
X-002706Y002406*
X-002283D02*
D01*
X-002289Y002411*
X-002295Y002416*
X-002302Y002421*
X-002309Y002425*
X-002316Y002429*
X-002323Y002432*
X-002331Y002434*
X-002339Y002437*
X-002347Y002438*
X-002354Y002439*
X-002362Y002439*
X-002364Y00244*
X-002283Y002406D02*
D01*
X-002289Y002411*
X-002295Y002416*
X-002302Y002421*
X-002309Y002425*
X-002316Y002429*
X-002323Y002432*
X-002331Y002434*
X-002339Y002437*
X-002347Y002438*
X-002354Y002439*
X-002362Y002439*
X-002364Y00244*
X-002625D02*
D01*
X-002633Y002439*
X-002641Y002438*
X-002648Y002437*
X-002656Y002435*
X-002664Y002433*
X-002671Y00243*
X-002679Y002426*
X-002685Y002422*
X-002692Y002418*
X-002698Y002413*
X-002704Y002407*
X-002706Y002406*
X-002075Y005022D02*
D01*
X-002076Y00503*
X-002077Y005039*
X-002078Y005047*
X-00208Y005055*
X-002083Y005063*
X-002086Y005071*
X-00209Y005078*
X-002094Y005086*
X-002098Y005093*
X-002104Y005099*
X-002109Y005105*
X-002115Y005111*
X-002122Y005117*
X-002128Y005121*
X-002135Y005126*
X-002143Y00513*
X-002151Y005133*
X-002158Y005136*
X-002166Y005138*
X-002175Y00514*
X-002183Y005141*
X-002191Y005142*
X-0022*
X-002208Y005141*
X-002216Y00514*
X-002225Y005138*
X-002233Y005136*
X-00224Y005133*
X-002248Y00513*
X-002255Y005126*
X-002263Y005121*
X-002269Y005117*
X-002276Y005111*
X-002282Y005105*
X-002287Y005099*
X-002293Y005093*
X-002297Y005086*
X-002301Y005078*
X-002305Y005071*
X-002308Y005063*
X-002311Y005055*
X-002313Y005047*
X-002314Y005039*
X-002315Y00503*
X-002315Y005022*
X-002315Y005014*
X-002314Y005005*
X-002313Y004997*
X-002311Y004989*
X-002308Y004981*
X-002305Y004973*
X-002301Y004966*
X-002297Y004958*
X-002293Y004951*
X-002287Y004945*
X-002282Y004939*
X-002276Y004933*
X-002269Y004927*
X-002263Y004923*
X-002255Y004918*
X-002248Y004914*
X-00224Y004911*
X-002233Y004908*
X-002225Y004906*
X-002216Y004904*
X-002208Y004903*
X-0022Y004902*
X-002191*
X-002183Y004903*
X-002175Y004904*
X-002166Y004906*
X-002158Y004908*
X-002151Y004911*
X-002143Y004914*
X-002135Y004918*
X-002128Y004923*
X-002122Y004927*
X-002115Y004933*
X-002109Y004939*
X-002104Y004945*
X-002098Y004951*
X-002094Y004958*
X-00209Y004966*
X-002086Y004973*
X-002083Y004981*
X-00208Y004989*
X-002078Y004997*
X-002077Y005005*
X-002076Y005014*
X-002075Y005022*
D01*
X-002076Y00503*
X-002077Y005039*
X-002078Y005047*
X-00208Y005055*
X-002083Y005063*
X-002086Y005071*
X-00209Y005078*
X-002094Y005086*
X-002098Y005093*
X-002104Y005099*
X-002109Y005105*
X-002115Y005111*
X-002122Y005117*
X-002128Y005121*
X-002135Y005126*
X-002143Y00513*
X-002151Y005133*
X-002158Y005136*
X-002166Y005138*
X-002175Y00514*
X-002183Y005141*
X-002191Y005142*
X-0022*
X-002208Y005141*
X-002216Y00514*
X-002225Y005138*
X-002233Y005136*
X-00224Y005133*
X-002248Y00513*
X-002255Y005126*
X-002263Y005121*
X-002269Y005117*
X-002276Y005111*
X-002282Y005105*
X-002287Y005099*
X-002293Y005093*
X-002297Y005086*
X-002301Y005078*
X-002305Y005071*
X-002308Y005063*
X-002311Y005055*
X-002313Y005047*
X-002314Y005039*
X-002315Y00503*
X-002315Y005022*
X-002315Y005014*
X-002314Y005005*
X-002313Y004997*
X-002311Y004989*
X-002308Y004981*
X-002305Y004973*
X-002301Y004966*
X-002297Y004958*
X-002293Y004951*
X-002287Y004945*
X-002282Y004939*
X-002276Y004933*
X-002269Y004927*
X-002263Y004923*
X-002255Y004918*
X-002248Y004914*
X-00224Y004911*
X-002233Y004908*
X-002225Y004906*
X-002216Y004904*
X-002208Y004903*
X-0022Y004902*
X-002191*
X-002183Y004903*
X-002175Y004904*
X-002166Y004906*
X-002158Y004908*
X-002151Y004911*
X-002143Y004914*
X-002135Y004918*
X-002128Y004923*
X-002122Y004927*
X-002115Y004933*
X-002109Y004939*
X-002104Y004945*
X-002098Y004951*
X-002094Y004958*
X-00209Y004966*
X-002086Y004973*
X-002083Y004981*
X-00208Y004989*
X-002078Y004997*
X-002077Y005005*
X-002076Y005014*
X-002075Y005022*
X-002329Y005669D02*
D01*
X-002329Y005678*
X-00233Y005686*
X-002332Y005694*
X-002334Y005703*
X-002336Y005711*
X-002339Y005718*
X-002343Y005726*
X-002347Y005733*
X-002352Y00574*
X-002357Y005747*
X-002363Y005753*
X-002369Y005759*
X-002375Y005764*
X-002382Y005769*
X-002389Y005773*
X-002396Y005777*
X-002404Y005781*
X-002412Y005784*
X-00242Y005786*
X-002428Y005788*
X-002436Y005789*
X-002445Y005789*
X-002453*
X-002462Y005789*
X-00247Y005788*
X-002478Y005786*
X-002486Y005784*
X-002494Y005781*
X-002502Y005777*
X-002509Y005773*
X-002516Y005769*
X-002523Y005764*
X-002529Y005759*
X-002535Y005753*
X-002541Y005747*
X-002546Y00574*
X-002551Y005733*
X-002555Y005726*
X-002559Y005718*
X-002562Y005711*
X-002564Y005703*
X-002566Y005694*
X-002568Y005686*
X-002569Y005678*
X-002569Y005669*
X-002569Y005661*
X-002568Y005653*
X-002566Y005645*
X-002564Y005636*
X-002562Y005628*
X-002559Y005621*
X-002555Y005613*
X-002551Y005606*
X-002546Y005599*
X-002541Y005592*
X-002535Y005586*
X-002529Y00558*
X-002523Y005575*
X-002516Y00557*
X-002509Y005566*
X-002502Y005562*
X-002494Y005558*
X-002486Y005555*
X-002478Y005553*
X-00247Y005551*
X-002462Y00555*
X-002453Y00555*
X-002445*
X-002436Y00555*
X-002428Y005551*
X-00242Y005553*
X-002412Y005555*
X-002404Y005558*
X-002396Y005562*
X-002389Y005566*
X-002382Y00557*
X-002375Y005575*
X-002369Y00558*
X-002363Y005586*
X-002357Y005592*
X-002352Y005599*
X-002347Y005606*
X-002343Y005613*
X-002339Y005621*
X-002336Y005628*
X-002334Y005636*
X-002332Y005645*
X-00233Y005653*
X-002329Y005661*
X-002329Y005669*
D01*
X-002329Y005678*
X-00233Y005686*
X-002332Y005694*
X-002334Y005703*
X-002336Y005711*
X-002339Y005718*
X-002343Y005726*
X-002347Y005733*
X-002352Y00574*
X-002357Y005747*
X-002363Y005753*
X-002369Y005759*
X-002375Y005764*
X-002382Y005769*
X-002389Y005773*
X-002396Y005777*
X-002404Y005781*
X-002412Y005784*
X-00242Y005786*
X-002428Y005788*
X-002436Y005789*
X-002445Y005789*
X-002453*
X-002462Y005789*
X-00247Y005788*
X-002478Y005786*
X-002486Y005784*
X-002494Y005781*
X-002502Y005777*
X-002509Y005773*
X-002516Y005769*
X-002523Y005764*
X-002529Y005759*
X-002535Y005753*
X-002541Y005747*
X-002546Y00574*
X-002551Y005733*
X-002555Y005726*
X-002559Y005718*
X-002562Y005711*
X-002564Y005703*
X-002566Y005694*
X-002568Y005686*
X-002569Y005678*
X-002569Y005669*
X-002569Y005661*
X-002568Y005653*
X-002566Y005645*
X-002564Y005636*
X-002562Y005628*
X-002559Y005621*
X-002555Y005613*
X-002551Y005606*
X-002546Y005599*
X-002541Y005592*
X-002535Y005586*
X-002529Y00558*
X-002523Y005575*
X-002516Y00557*
X-002509Y005566*
X-002502Y005562*
X-002494Y005558*
X-002486Y005555*
X-002478Y005553*
X-00247Y005551*
X-002462Y00555*
X-002453Y00555*
X-002445*
X-002436Y00555*
X-002428Y005551*
X-00242Y005553*
X-002412Y005555*
X-002404Y005558*
X-002396Y005562*
X-002389Y005566*
X-002382Y00557*
X-002375Y005575*
X-002369Y00558*
X-002363Y005586*
X-002357Y005592*
X-002352Y005599*
X-002347Y005606*
X-002343Y005613*
X-002339Y005621*
X-002336Y005628*
X-002334Y005636*
X-002332Y005645*
X-00233Y005653*
X-002329Y005661*
X-002329Y005669*
X-001314Y00035D02*
D01*
X-001314Y000358*
X-001315Y000366*
X-001317Y000374*
X-001319Y000383*
X-001321Y000391*
X-001324Y000398*
X-001328Y000406*
X-001332Y000413*
X-001337Y00042*
X-001342Y000427*
X-001348Y000433*
X-001354Y000439*
X-00136Y000444*
X-001367Y000449*
X-001374Y000453*
X-001381Y000457*
X-001389Y000461*
X-001397Y000464*
X-001405Y000466*
X-001413Y000468*
X-001421Y000469*
X-00143Y000469*
X-001438*
X-001447Y000469*
X-001455Y000468*
X-001463Y000466*
X-001471Y000464*
X-001479Y000461*
X-001487Y000457*
X-001494Y000453*
X-001501Y000449*
X-001508Y000444*
X-001514Y000439*
X-00152Y000433*
X-001526Y000427*
X-001531Y00042*
X-001536Y000413*
X-00154Y000406*
X-001544Y000398*
X-001547Y000391*
X-001549Y000383*
X-001551Y000374*
X-001553Y000366*
X-001554Y000358*
X-001554Y00035*
X-001554Y000341*
X-001553Y000333*
X-001551Y000325*
X-001549Y000316*
X-001547Y000308*
X-001544Y000301*
X-00154Y000293*
X-001536Y000286*
X-001531Y000279*
X-001526Y000272*
X-00152Y000266*
X-001514Y00026*
X-001508Y000255*
X-001501Y00025*
X-001494Y000246*
X-001487Y000242*
X-001479Y000238*
X-001471Y000235*
X-001463Y000233*
X-001455Y000231*
X-001447Y00023*
X-001438Y00023*
X-00143*
X-001421Y00023*
X-001413Y000231*
X-001405Y000233*
X-001397Y000235*
X-001389Y000238*
X-001381Y000242*
X-001374Y000246*
X-001367Y00025*
X-00136Y000255*
X-001354Y00026*
X-001348Y000266*
X-001342Y000272*
X-001337Y000279*
X-001332Y000286*
X-001328Y000293*
X-001324Y000301*
X-001321Y000308*
X-001319Y000316*
X-001317Y000325*
X-001315Y000333*
X-001314Y000341*
X-001314Y00035*
D01*
X-001314Y000358*
X-001315Y000366*
X-001317Y000374*
X-001319Y000383*
X-001321Y000391*
X-001324Y000398*
X-001328Y000406*
X-001332Y000413*
X-001337Y00042*
X-001342Y000427*
X-001348Y000433*
X-001354Y000439*
X-00136Y000444*
X-001367Y000449*
X-001374Y000453*
X-001381Y000457*
X-001389Y000461*
X-001397Y000464*
X-001405Y000466*
X-001413Y000468*
X-001421Y000469*
X-00143Y000469*
X-001438*
X-001447Y000469*
X-001455Y000468*
X-001463Y000466*
X-001471Y000464*
X-001479Y000461*
X-001487Y000457*
X-001494Y000453*
X-001501Y000449*
X-001508Y000444*
X-001514Y000439*
X-00152Y000433*
X-001526Y000427*
X-001531Y00042*
X-001536Y000413*
X-00154Y000406*
X-001544Y000398*
X-001547Y000391*
X-001549Y000383*
X-001551Y000374*
X-001553Y000366*
X-001554Y000358*
X-001554Y00035*
X-001554Y000341*
X-001553Y000333*
X-001551Y000325*
X-001549Y000316*
X-001547Y000308*
X-001544Y000301*
X-00154Y000293*
X-001536Y000286*
X-001531Y000279*
X-001526Y000272*
X-00152Y000266*
X-001514Y00026*
X-001508Y000255*
X-001501Y00025*
X-001494Y000246*
X-001487Y000242*
X-001479Y000238*
X-001471Y000235*
X-001463Y000233*
X-001455Y000231*
X-001447Y00023*
X-001438Y00023*
X-00143*
X-001421Y00023*
X-001413Y000231*
X-001405Y000233*
X-001397Y000235*
X-001389Y000238*
X-001381Y000242*
X-001374Y000246*
X-001367Y00025*
X-00136Y000255*
X-001354Y00026*
X-001348Y000266*
X-001342Y000272*
X-001337Y000279*
X-001332Y000286*
X-001328Y000293*
X-001324Y000301*
X-001321Y000308*
X-001319Y000316*
X-001317Y000325*
X-001315Y000333*
X-001314Y000341*
X-001314Y00035*
X-001437Y000844D02*
D01*
X-001428Y00084*
X-001418Y000836*
X-001408Y000834*
X-001399Y000832*
X-001388Y00083*
X-001378Y00083*
X-001368Y00083*
X-001358Y00083*
X-001348Y000832*
X-001338Y000834*
X-001329Y000837*
X-001319Y000841*
X-001312Y000844*
X-00106Y00035D02*
D01*
X-00106Y000358*
X-001061Y000366*
X-001063Y000374*
X-001065Y000383*
X-001067Y000391*
X-00107Y000398*
X-001074Y000406*
X-001078Y000413*
X-001083Y00042*
X-001088Y000427*
X-001094Y000433*
X-0011Y000439*
X-001106Y000444*
X-001113Y000449*
X-00112Y000453*
X-001127Y000457*
X-001135Y000461*
X-001143Y000464*
X-001151Y000466*
X-001159Y000468*
X-001167Y000469*
X-001176Y000469*
X-001184*
X-001193Y000469*
X-001201Y000468*
X-001209Y000466*
X-001217Y000464*
X-001225Y000461*
X-001233Y000457*
X-00124Y000453*
X-001247Y000449*
X-001254Y000444*
X-00126Y000439*
X-001266Y000433*
X-001272Y000427*
X-001277Y00042*
X-001282Y000413*
X-001286Y000406*
X-00129Y000398*
X-001293Y000391*
X-001295Y000383*
X-001297Y000374*
X-001299Y000366*
X-0013Y000358*
X-0013Y00035*
X-0013Y000341*
X-001299Y000333*
X-001297Y000325*
X-001295Y000316*
X-001293Y000308*
X-00129Y000301*
X-001286Y000293*
X-001282Y000286*
X-001277Y000279*
X-001272Y000272*
X-001266Y000266*
X-00126Y00026*
X-001254Y000255*
X-001247Y00025*
X-00124Y000246*
X-001233Y000242*
X-001225Y000238*
X-001217Y000235*
X-001209Y000233*
X-001201Y000231*
X-001193Y00023*
X-001184Y00023*
X-001176*
X-001167Y00023*
X-001159Y000231*
X-001151Y000233*
X-001143Y000235*
X-001135Y000238*
X-001127Y000242*
X-00112Y000246*
X-001113Y00025*
X-001106Y000255*
X-0011Y00026*
X-001094Y000266*
X-001088Y000272*
X-001083Y000279*
X-001078Y000286*
X-001074Y000293*
X-00107Y000301*
X-001067Y000308*
X-001065Y000316*
X-001063Y000325*
X-001061Y000333*
X-00106Y000341*
X-00106Y00035*
D01*
X-00106Y000358*
X-001061Y000366*
X-001063Y000374*
X-001065Y000383*
X-001067Y000391*
X-00107Y000398*
X-001074Y000406*
X-001078Y000413*
X-001083Y00042*
X-001088Y000427*
X-001094Y000433*
X-0011Y000439*
X-001106Y000444*
X-001113Y000449*
X-00112Y000453*
X-001127Y000457*
X-001135Y000461*
X-001143Y000464*
X-001151Y000466*
X-001159Y000468*
X-001167Y000469*
X-001176Y000469*
X-001184*
X-001193Y000469*
X-001201Y000468*
X-001209Y000466*
X-001217Y000464*
X-001225Y000461*
X-001233Y000457*
X-00124Y000453*
X-001247Y000449*
X-001254Y000444*
X-00126Y000439*
X-001266Y000433*
X-001272Y000427*
X-001277Y00042*
X-001282Y000413*
X-001286Y000406*
X-00129Y000398*
X-001293Y000391*
X-001295Y000383*
X-001297Y000374*
X-001299Y000366*
X-0013Y000358*
X-0013Y00035*
X-0013Y000341*
X-001299Y000333*
X-001297Y000325*
X-001295Y000316*
X-001293Y000308*
X-00129Y000301*
X-001286Y000293*
X-001282Y000286*
X-001277Y000279*
X-001272Y000272*
X-001266Y000266*
X-00126Y00026*
X-001254Y000255*
X-001247Y00025*
X-00124Y000246*
X-001233Y000242*
X-001225Y000238*
X-001217Y000235*
X-001209Y000233*
X-001201Y000231*
X-001193Y00023*
X-001184Y00023*
X-001176*
X-001167Y00023*
X-001159Y000231*
X-001151Y000233*
X-001143Y000235*
X-001135Y000238*
X-001127Y000242*
X-00112Y000246*
X-001113Y00025*
X-001106Y000255*
X-0011Y00026*
X-001094Y000266*
X-001088Y000272*
X-001083Y000279*
X-001078Y000286*
X-001074Y000293*
X-00107Y000301*
X-001067Y000308*
X-001065Y000316*
X-001063Y000325*
X-001061Y000333*
X-00106Y000341*
X-00106Y00035*
X-001312Y000844D02*
D01*
X-001303Y00084*
X-001293Y000836*
X-001283Y000834*
X-001274Y000832*
X-001263Y00083*
X-001253Y00083*
X-001243Y00083*
X-001233Y00083*
X-001223Y000832*
X-001213Y000834*
X-001204Y000837*
X-001194Y000841*
X-001187Y000844*
X-001821Y000985D02*
D01*
X-001822Y000993*
X-001823Y001001*
X-001824Y001009*
X-001826Y001018*
X-001829Y001026*
X-001832Y001033*
X-001836Y001041*
X-00184Y001048*
X-001844Y001055*
X-00185Y001062*
X-001855Y001068*
X-001861Y001074*
X-001868Y001079*
X-001874Y001084*
X-001881Y001088*
X-001889Y001092*
X-001897Y001096*
X-001904Y001099*
X-001912Y001101*
X-001921Y001103*
X-001929Y001104*
X-001937Y001104*
X-001946*
X-001954Y001104*
X-001962Y001103*
X-001971Y001101*
X-001979Y001099*
X-001986Y001096*
X-001994Y001092*
X-002001Y001088*
X-002009Y001084*
X-002015Y001079*
X-002022Y001074*
X-002028Y001068*
X-002033Y001062*
X-002039Y001055*
X-002043Y001048*
X-002047Y001041*
X-002051Y001033*
X-002054Y001026*
X-002057Y001018*
X-002059Y001009*
X-00206Y001001*
X-002061Y000993*
X-002061Y000985*
X-002061Y000976*
X-00206Y000968*
X-002059Y00096*
X-002057Y000951*
X-002054Y000943*
X-002051Y000936*
X-002047Y000928*
X-002043Y000921*
X-002039Y000914*
X-002033Y000907*
X-002028Y000901*
X-002022Y000895*
X-002015Y00089*
X-002009Y000885*
X-002001Y000881*
X-001994Y000877*
X-001986Y000873*
X-001979Y00087*
X-001971Y000868*
X-001962Y000866*
X-001954Y000865*
X-001946Y000865*
X-001937*
X-001929Y000865*
X-001921Y000866*
X-001912Y000868*
X-001904Y00087*
X-001897Y000873*
X-001889Y000877*
X-001881Y000881*
X-001874Y000885*
X-001868Y00089*
X-001861Y000895*
X-001855Y000901*
X-00185Y000907*
X-001844Y000914*
X-00184Y000921*
X-001836Y000928*
X-001832Y000936*
X-001829Y000943*
X-001826Y000951*
X-001824Y00096*
X-001823Y000968*
X-001822Y000976*
X-001821Y000985*
D01*
X-001822Y000993*
X-001823Y001001*
X-001824Y001009*
X-001826Y001018*
X-001829Y001026*
X-001832Y001033*
X-001836Y001041*
X-00184Y001048*
X-001844Y001055*
X-00185Y001062*
X-001855Y001068*
X-001861Y001074*
X-001868Y001079*
X-001874Y001084*
X-001881Y001088*
X-001889Y001092*
X-001897Y001096*
X-001904Y001099*
X-001912Y001101*
X-001921Y001103*
X-001929Y001104*
X-001937Y001104*
X-001946*
X-001954Y001104*
X-001962Y001103*
X-001971Y001101*
X-001979Y001099*
X-001986Y001096*
X-001994Y001092*
X-002001Y001088*
X-002009Y001084*
X-002015Y001079*
X-002022Y001074*
X-002028Y001068*
X-002033Y001062*
X-002039Y001055*
X-002043Y001048*
X-002047Y001041*
X-002051Y001033*
X-002054Y001026*
X-002057Y001018*
X-002059Y001009*
X-00206Y001001*
X-002061Y000993*
X-002061Y000985*
X-002061Y000976*
X-00206Y000968*
X-002059Y00096*
X-002057Y000951*
X-002054Y000943*
X-002051Y000936*
X-002047Y000928*
X-002043Y000921*
X-002039Y000914*
X-002033Y000907*
X-002028Y000901*
X-002022Y000895*
X-002015Y00089*
X-002009Y000885*
X-002001Y000881*
X-001994Y000877*
X-001986Y000873*
X-001979Y00087*
X-001971Y000868*
X-001962Y000866*
X-001954Y000865*
X-001946Y000865*
X-001937*
X-001929Y000865*
X-001921Y000866*
X-001912Y000868*
X-001904Y00087*
X-001897Y000873*
X-001889Y000877*
X-001881Y000881*
X-001874Y000885*
X-001868Y00089*
X-001861Y000895*
X-001855Y000901*
X-00185Y000907*
X-001844Y000914*
X-00184Y000921*
X-001836Y000928*
X-001832Y000936*
X-001829Y000943*
X-001826Y000951*
X-001824Y00096*
X-001823Y000968*
X-001822Y000976*
X-001821Y000985*
X-001628Y001041D02*
D01*
X-001633Y001032*
X-001636Y001022*
X-001639Y001013*
X-001642Y001003*
X-001643Y000993*
X-001644Y000983*
X-001644Y000973*
X-001644Y000962*
X-001643Y000952*
X-001641Y000942*
X-001638Y000933*
X-001635Y000923*
X-001631Y000914*
X-001627Y000905*
X-001621Y000896*
X-001616Y000888*
X-001609Y00088*
X-001602Y000872*
X-001595Y000865*
X-001587Y000859*
X-001579Y000853*
X-00157Y000848*
X-001561Y000843*
X-001552Y000839*
X-001542Y000836*
X-001533Y000833*
X-001523Y000831*
X-001513Y00083*
X-001503Y00083*
X-001492Y00083*
X-001482Y000831*
X-001472Y000832*
X-001462Y000834*
X-001453Y000837*
X-001443Y000841*
X-001437Y000844*
X-001187D02*
D01*
X-001178Y00084*
X-001168Y000836*
X-001158Y000834*
X-001149Y000832*
X-001138Y00083*
X-001128Y00083*
X-001118Y00083*
X-001108Y00083*
X-001098Y000832*
X-001088Y000834*
X-001079Y000837*
X-001069Y000841*
X-00106Y000845*
X-001051Y00085*
X-001042Y000855*
X-001034Y000861*
X-001027Y000868*
X-001019Y000875*
X-001013Y000882*
X-001006Y00089*
X-001004Y000894*
X-000437Y000669D02*
D01*
X-000428Y000665*
X-000418Y000661*
X-000408Y000659*
X-000399Y000656*
X-000388Y000655*
X-000378Y000655*
X-000368Y000655*
X-000358Y000655*
X-000348Y000657*
X-000338Y000659*
X-000329Y000662*
X-000319Y000665*
X-00031Y00067*
X-000301Y000675*
X-000292Y00068*
X-000284Y000686*
X-000277Y000693*
X-000269Y0007*
X-000263Y000707*
X-000256Y000715*
X-000251Y000724*
X-000246Y000732*
X-000242Y000742*
X-000238Y000751*
X-000235Y000761*
X-000232Y00077*
X-000231Y00078*
X-00023Y000791*
X-000229Y000799*
X-00005Y000385D02*
D01*
X-000052Y000393*
X-000056Y000401*
X-000059Y000408*
X-000064Y000416*
X-000069Y000422*
X-000074Y000429*
X-00008Y000435*
X-000086Y000441*
X-000092Y000446*
X-000099Y000451*
X-000107Y000455*
X-000114Y000459*
X-000122Y000462*
X-00013Y000465*
X-000138Y000467*
X-000146Y000468*
X-000154Y000469*
X-000163Y00047*
X-000171Y000469*
X-00018Y000469*
X-000188Y000467*
X-000196Y000465*
X-000204Y000463*
X-000212Y00046*
X-000219Y000456*
X-000227Y000452*
X-000234Y000447*
X-00024Y000442*
X-000246Y000437*
X-000252Y000431*
X-000258Y000424*
X-000263Y000418*
X-000267Y000411*
X-000271Y000403*
X-000275Y000396*
X-000278Y000388*
X-00028Y00038*
X-000282Y000372*
X-000283Y000363*
X-000284Y000355*
X-000284Y000347*
X-000283Y000338*
X-000282Y00033*
X-000281Y000322*
X-000279Y000314*
X-000276Y000306*
X-000272Y000298*
X-000269Y000291*
X-000264Y000283*
X-000259Y000277*
X-000254Y00027*
X-000248Y000264*
X-000242Y000258*
X-000236Y000253*
X-000229Y000248*
X-000221Y000244*
X-000214Y00024*
X-000206Y000237*
X-000198Y000234*
X-00019Y000232*
X-000182Y000231*
X-000174Y00023*
X-000165Y00023*
X-000157Y00023*
X-000149Y000231*
X-00014Y000232*
X-000132Y000234*
X-000124Y000236*
X-000116Y000239*
X-000109Y000243*
X-000101Y000247*
X-000094Y000252*
X-000088Y000257*
X-000082Y000262*
X-000076Y000268*
X-00007Y000275*
X-000065Y000281*
X-000061Y000288*
X-000057Y000296*
X-000053Y000303*
X-00005Y000311*
X-00005Y000314*
Y000385D02*
D01*
X-000052Y000393*
X-000056Y000401*
X-000059Y000408*
X-000064Y000416*
X-000069Y000422*
X-000074Y000429*
X-00008Y000435*
X-000086Y000441*
X-000092Y000446*
X-000099Y000451*
X-000107Y000455*
X-000114Y000459*
X-000122Y000462*
X-00013Y000465*
X-000138Y000467*
X-000146Y000468*
X-000154Y000469*
X-000163Y00047*
X-000171Y000469*
X-00018Y000469*
X-000188Y000467*
X-000196Y000465*
X-000204Y000463*
X-000212Y00046*
X-000219Y000456*
X-000227Y000452*
X-000234Y000447*
X-00024Y000442*
X-000246Y000437*
X-000252Y000431*
X-000258Y000424*
X-000263Y000418*
X-000267Y000411*
X-000271Y000403*
X-000275Y000396*
X-000278Y000388*
X-00028Y00038*
X-000282Y000372*
X-000283Y000363*
X-000284Y000355*
X-000284Y000347*
X-000283Y000338*
X-000282Y00033*
X-000281Y000322*
X-000279Y000314*
X-000276Y000306*
X-000272Y000298*
X-000269Y000291*
X-000264Y000283*
X-000259Y000277*
X-000254Y00027*
X-000248Y000264*
X-000242Y000258*
X-000236Y000253*
X-000229Y000248*
X-000221Y000244*
X-000214Y00024*
X-000206Y000237*
X-000198Y000234*
X-00019Y000232*
X-000182Y000231*
X-000174Y00023*
X-000165Y00023*
X-000157Y00023*
X-000149Y000231*
X-00014Y000232*
X-000132Y000234*
X-000124Y000236*
X-000116Y000239*
X-000109Y000243*
X-000101Y000247*
X-000094Y000252*
X-000088Y000257*
X-000082Y000262*
X-000076Y000268*
X-00007Y000275*
X-000065Y000281*
X-000061Y000288*
X-000057Y000296*
X-000053Y000303*
X-00005Y000311*
X-00005Y000314*
X-001004Y000894D02*
D01*
X-000998Y000889*
X-000991Y000884*
X-000983Y000879*
X-000976Y000876*
X-000968Y000872*
X-00096Y00087*
X-000952Y000868*
X-000944Y000866*
X-000936Y000865*
X-000927Y000865*
X-000919Y000865*
X-000911Y000865*
X-000902Y000867*
X-000894Y000869*
X-000886Y000871*
X-000882Y000873*
X-001004Y000894D02*
D01*
X-000998Y000889*
X-000991Y000884*
X-000983Y000879*
X-000976Y000876*
X-000968Y000872*
X-00096Y00087*
X-000952Y000868*
X-000944Y000866*
X-000936Y000865*
X-000927Y000865*
X-000919Y000865*
X-000911Y000865*
X-000902Y000867*
X-000894Y000869*
X-000886Y000871*
X-000882Y000873*
X-000889Y001099D02*
D01*
X-000898Y001101*
X-000906Y001103*
X-000914Y001104*
X-000922Y001104*
X-000931Y001104*
X-000939Y001104*
X-000947Y001102*
X-000956Y001101*
X-000964Y001098*
X-000971Y001095*
X-000979Y001092*
X-000986Y001088*
X-000994Y001083*
X-001Y001078*
X-001007Y001073*
X-00101Y00107*
X-000882Y000873D02*
D01*
X-000875Y000865*
X-000868Y000858*
X-00086Y000852*
X-000851Y000847*
X-000843Y000842*
X-000834Y000837*
X-000824Y000833*
X-000815Y00083*
X-000805Y000828*
X-000795Y000826*
X-000785Y000825*
X-000775Y000824*
X-000764Y000825*
X-000754Y000826*
X-000744Y000828*
X-000735Y00083*
X-000725Y000833*
X-000716Y000837*
X-000706Y000841*
X-000698Y000846*
X-000689Y000852*
X-000681Y000858*
X-000674Y000865*
X-000667Y000872*
X-00066Y00088*
X-000654Y000888*
X-000649Y000897*
X-000644Y000906*
X-00064Y000915*
X-000637Y000925*
X-000634Y000934*
X-000632Y000944*
X-00063Y000954*
X-00063Y000964*
X-000629Y00097*
D01*
X-00063Y00098*
X-000631Y00099*
X-000633Y001*
X-000635Y001009*
X-000638Y001019*
X-000642Y001028*
X-000646Y001038*
X-000652Y001046*
X-000657Y001055*
X-000659Y001058*
X-000889Y001099D02*
D01*
X-000898Y001101*
X-000906Y001103*
X-000914Y001104*
X-000922Y001104*
X-000931Y001104*
X-000939Y001104*
X-000947Y001102*
X-000956Y001101*
X-000964Y001098*
X-000971Y001095*
X-000979Y001092*
X-000986Y001088*
X-000994Y001083*
X-001Y001078*
X-001007Y001073*
X-00101Y00107*
X-000615Y000888D02*
D01*
X-00062Y00088*
X-000626Y000871*
X-00063Y000862*
X-000634Y000853*
X-000638Y000843*
X-00064Y000833*
X-000643Y000823*
X-000644Y000813*
X-000644Y000803*
X-000644Y000793*
X-000644Y000783*
X-000642Y000773*
X-00064Y000763*
X-000637Y000754*
X-000633Y000744*
X-000629Y000735*
X-000624Y000726*
X-000619Y000717*
X-000613Y000709*
X-000606Y000702*
X-000599Y000694*
X-000592Y000688*
X-000584Y000681*
X-000575Y000676*
X-000566Y000671*
X-000557Y000667*
X-000548Y000663*
X-000538Y00066*
X-000528Y000657*
X-000518Y000656*
X-000508Y000655*
X-000498Y000654*
X-000488Y000655*
X-000478Y000656*
X-000468Y000658*
X-000458Y00066*
X-000449Y000664*
X-000439Y000668*
X-000437Y000669*
X-000229Y000799D02*
D01*
X-00023Y00081*
X-000231Y00082*
X-000233Y00083*
X-000235Y000839*
X-000238Y000849*
X-000242Y000858*
X-000246Y000868*
X-000252Y000876*
X-000257Y000885*
X-000259Y000888*
X-001586Y002295D02*
D01*
X-001595Y002303*
X-001603Y002311*
X-001613Y002318*
X-001623Y002325*
X-001633Y002331*
X-001643Y002336*
X-001654Y002341*
X-001666Y002345*
X-001677Y002348*
X-001689Y00235*
X-001701Y002351*
X-001712Y002352*
X-001724Y002351*
X-001736Y00235*
X-001748Y002348*
X-001759Y002345*
X-001771Y002342*
X-001782Y002337*
X-001792Y002332*
X-001803Y002326*
X-001813Y00232*
X-001822Y002312*
X-001831Y002304*
X-001839Y002296*
X-00184Y002295*
X-001332D02*
D01*
X-001341Y002303*
X-001349Y002311*
X-001359Y002318*
X-001369Y002325*
X-001379Y002331*
X-001389Y002336*
X-0014Y002341*
X-001412Y002345*
X-001423Y002348*
X-001435Y00235*
X-001447Y002351*
X-001458Y002352*
X-00147Y002351*
X-001482Y00235*
X-001494Y002348*
X-001505Y002345*
X-001517Y002342*
X-001528Y002337*
X-001538Y002332*
X-001549Y002326*
X-001559Y00232*
X-001568Y002312*
X-001577Y002304*
X-001585Y002296*
X-001586Y002295*
X-001821Y005022D02*
D01*
X-001822Y00503*
X-001823Y005039*
X-001824Y005047*
X-001826Y005055*
X-001829Y005063*
X-001832Y005071*
X-001836Y005078*
X-00184Y005086*
X-001844Y005093*
X-00185Y005099*
X-001855Y005105*
X-001861Y005111*
X-001868Y005117*
X-001874Y005121*
X-001881Y005126*
X-001889Y00513*
X-001897Y005133*
X-001904Y005136*
X-001912Y005138*
X-001921Y00514*
X-001929Y005141*
X-001937Y005142*
X-001946*
X-001954Y005141*
X-001962Y00514*
X-001971Y005138*
X-001979Y005136*
X-001986Y005133*
X-001994Y00513*
X-002001Y005126*
X-002009Y005121*
X-002015Y005117*
X-002022Y005111*
X-002028Y005105*
X-002033Y005099*
X-002039Y005093*
X-002043Y005086*
X-002047Y005078*
X-002051Y005071*
X-002054Y005063*
X-002057Y005055*
X-002059Y005047*
X-00206Y005039*
X-002061Y00503*
X-002061Y005022*
X-002061Y005014*
X-00206Y005005*
X-002059Y004997*
X-002057Y004989*
X-002054Y004981*
X-002051Y004973*
X-002047Y004966*
X-002043Y004958*
X-002039Y004951*
X-002033Y004945*
X-002028Y004939*
X-002022Y004933*
X-002015Y004927*
X-002009Y004923*
X-002001Y004918*
X-001994Y004914*
X-001986Y004911*
X-001979Y004908*
X-001971Y004906*
X-001962Y004904*
X-001954Y004903*
X-001946Y004902*
X-001937*
X-001929Y004903*
X-001921Y004904*
X-001912Y004906*
X-001904Y004908*
X-001897Y004911*
X-001889Y004914*
X-001881Y004918*
X-001874Y004923*
X-001868Y004927*
X-001861Y004933*
X-001855Y004939*
X-00185Y004945*
X-001844Y004951*
X-00184Y004958*
X-001836Y004966*
X-001832Y004973*
X-001829Y004981*
X-001826Y004989*
X-001824Y004997*
X-001823Y005005*
X-001822Y005014*
X-001821Y005022*
D01*
X-001822Y00503*
X-001823Y005039*
X-001824Y005047*
X-001826Y005055*
X-001829Y005063*
X-001832Y005071*
X-001836Y005078*
X-00184Y005086*
X-001844Y005093*
X-00185Y005099*
X-001855Y005105*
X-001861Y005111*
X-001868Y005117*
X-001874Y005121*
X-001881Y005126*
X-001889Y00513*
X-001897Y005133*
X-001904Y005136*
X-001912Y005138*
X-001921Y00514*
X-001929Y005141*
X-001937Y005142*
X-001946*
X-001954Y005141*
X-001962Y00514*
X-001971Y005138*
X-001979Y005136*
X-001986Y005133*
X-001994Y00513*
X-002001Y005126*
X-002009Y005121*
X-002015Y005117*
X-002022Y005111*
X-002028Y005105*
X-002033Y005099*
X-002039Y005093*
X-002043Y005086*
X-002047Y005078*
X-002051Y005071*
X-002054Y005063*
X-002057Y005055*
X-002059Y005047*
X-00206Y005039*
X-002061Y00503*
X-002061Y005022*
X-002061Y005014*
X-00206Y005005*
X-002059Y004997*
X-002057Y004989*
X-002054Y004981*
X-002051Y004973*
X-002047Y004966*
X-002043Y004958*
X-002039Y004951*
X-002033Y004945*
X-002028Y004939*
X-002022Y004933*
X-002015Y004927*
X-002009Y004923*
X-002001Y004918*
X-001994Y004914*
X-001986Y004911*
X-001979Y004908*
X-001971Y004906*
X-001962Y004904*
X-001954Y004903*
X-001946Y004902*
X-001937*
X-001929Y004903*
X-001921Y004904*
X-001912Y004906*
X-001904Y004908*
X-001897Y004911*
X-001889Y004914*
X-001881Y004918*
X-001874Y004923*
X-001868Y004927*
X-001861Y004933*
X-001855Y004939*
X-00185Y004945*
X-001844Y004951*
X-00184Y004958*
X-001836Y004966*
X-001832Y004973*
X-001829Y004981*
X-001826Y004989*
X-001824Y004997*
X-001823Y005005*
X-001822Y005014*
X-001821Y005022*
X-001092Y002054D02*
D01*
X-001084Y002063*
X-001078Y002068*
Y002041D02*
D01*
X-001087Y002049*
X-001092Y002054*
X-001078Y002295D02*
D01*
X-001087Y002303*
X-001095Y002311*
X-001105Y002318*
X-001115Y002325*
X-001125Y002331*
X-001135Y002336*
X-001146Y002341*
X-001158Y002345*
X-001169Y002348*
X-001181Y00235*
X-001193Y002351*
X-001204Y002352*
X-001216Y002351*
X-001228Y00235*
X-00124Y002348*
X-001251Y002345*
X-001263Y002342*
X-001274Y002337*
X-001284Y002332*
X-001295Y002326*
X-001305Y00232*
X-001314Y002312*
X-001323Y002304*
X-001331Y002296*
X-001332Y002295*
X-001065Y002054D02*
D01*
X-001073Y002046*
X-001078Y002041*
Y002068D02*
D01*
X-00107Y00206*
X-001065Y002054*
X-001313Y005669D02*
D01*
X-001313Y005678*
X-001314Y005686*
X-001316Y005694*
X-001318Y005703*
X-00132Y005711*
X-001323Y005718*
X-001327Y005726*
X-001331Y005733*
X-001336Y00574*
X-001341Y005747*
X-001347Y005753*
X-001353Y005759*
X-001359Y005764*
X-001366Y005769*
X-001373Y005773*
X-00138Y005777*
X-001388Y005781*
X-001396Y005784*
X-001404Y005786*
X-001412Y005788*
X-00142Y005789*
X-001429Y005789*
X-001437*
X-001446Y005789*
X-001454Y005788*
X-001462Y005786*
X-00147Y005784*
X-001478Y005781*
X-001486Y005777*
X-001493Y005773*
X-0015Y005769*
X-001507Y005764*
X-001513Y005759*
X-001519Y005753*
X-001525Y005747*
X-00153Y00574*
X-001535Y005733*
X-001539Y005726*
X-001543Y005718*
X-001546Y005711*
X-001548Y005703*
X-00155Y005694*
X-001552Y005686*
X-001553Y005678*
X-001553Y005669*
X-001553Y005661*
X-001552Y005653*
X-00155Y005645*
X-001548Y005636*
X-001546Y005628*
X-001543Y005621*
X-001539Y005613*
X-001535Y005606*
X-00153Y005599*
X-001525Y005592*
X-001519Y005586*
X-001513Y00558*
X-001507Y005575*
X-0015Y00557*
X-001493Y005566*
X-001486Y005562*
X-001478Y005558*
X-00147Y005555*
X-001462Y005553*
X-001454Y005551*
X-001446Y00555*
X-001437Y00555*
X-001429*
X-00142Y00555*
X-001412Y005551*
X-001404Y005553*
X-001396Y005555*
X-001388Y005558*
X-00138Y005562*
X-001373Y005566*
X-001366Y00557*
X-001359Y005575*
X-001353Y00558*
X-001347Y005586*
X-001341Y005592*
X-001336Y005599*
X-001331Y005606*
X-001327Y005613*
X-001323Y005621*
X-00132Y005628*
X-001318Y005636*
X-001316Y005645*
X-001314Y005653*
X-001313Y005661*
X-001313Y005669*
D01*
X-001313Y005678*
X-001314Y005686*
X-001316Y005694*
X-001318Y005703*
X-00132Y005711*
X-001323Y005718*
X-001327Y005726*
X-001331Y005733*
X-001336Y00574*
X-001341Y005747*
X-001347Y005753*
X-001353Y005759*
X-001359Y005764*
X-001366Y005769*
X-001373Y005773*
X-00138Y005777*
X-001388Y005781*
X-001396Y005784*
X-001404Y005786*
X-001412Y005788*
X-00142Y005789*
X-001429Y005789*
X-001437*
X-001446Y005789*
X-001454Y005788*
X-001462Y005786*
X-00147Y005784*
X-001478Y005781*
X-001486Y005777*
X-001493Y005773*
X-0015Y005769*
X-001507Y005764*
X-001513Y005759*
X-001519Y005753*
X-001525Y005747*
X-00153Y00574*
X-001535Y005733*
X-001539Y005726*
X-001543Y005718*
X-001546Y005711*
X-001548Y005703*
X-00155Y005694*
X-001552Y005686*
X-001553Y005678*
X-001553Y005669*
X-001553Y005661*
X-001552Y005653*
X-00155Y005645*
X-001548Y005636*
X-001546Y005628*
X-001543Y005621*
X-001539Y005613*
X-001535Y005606*
X-00153Y005599*
X-001525Y005592*
X-001519Y005586*
X-001513Y00558*
X-001507Y005575*
X-0015Y00557*
X-001493Y005566*
X-001486Y005562*
X-001478Y005558*
X-00147Y005555*
X-001462Y005553*
X-001454Y005551*
X-001446Y00555*
X-001437Y00555*
X-001429*
X-00142Y00555*
X-001412Y005551*
X-001404Y005553*
X-001396Y005555*
X-001388Y005558*
X-00138Y005562*
X-001373Y005566*
X-001366Y00557*
X-001359Y005575*
X-001353Y00558*
X-001347Y005586*
X-001341Y005592*
X-001336Y005599*
X-001331Y005606*
X-001327Y005613*
X-001323Y005621*
X-00132Y005628*
X-001318Y005636*
X-001316Y005645*
X-001314Y005653*
X-001313Y005661*
X-001313Y005669*
X-001059D02*
D01*
X-001059Y005678*
X-00106Y005686*
X-001062Y005694*
X-001064Y005703*
X-001066Y005711*
X-001069Y005718*
X-001073Y005726*
X-001077Y005733*
X-001082Y00574*
X-001087Y005747*
X-001093Y005753*
X-001099Y005759*
X-001105Y005764*
X-001112Y005769*
X-001119Y005773*
X-001126Y005777*
X-001134Y005781*
X-001142Y005784*
X-00115Y005786*
X-001158Y005788*
X-001166Y005789*
X-001175Y005789*
X-001183*
X-001192Y005789*
X-0012Y005788*
X-001208Y005786*
X-001216Y005784*
X-001224Y005781*
X-001232Y005777*
X-001239Y005773*
X-001246Y005769*
X-001253Y005764*
X-001259Y005759*
X-001265Y005753*
X-001271Y005747*
X-001276Y00574*
X-001281Y005733*
X-001285Y005726*
X-001289Y005718*
X-001292Y005711*
X-001294Y005703*
X-001296Y005694*
X-001298Y005686*
X-001299Y005678*
X-001299Y005669*
X-001299Y005661*
X-001298Y005653*
X-001296Y005645*
X-001294Y005636*
X-001292Y005628*
X-001289Y005621*
X-001285Y005613*
X-001281Y005606*
X-001276Y005599*
X-001271Y005592*
X-001265Y005586*
X-001259Y00558*
X-001253Y005575*
X-001246Y00557*
X-001239Y005566*
X-001232Y005562*
X-001224Y005558*
X-001216Y005555*
X-001208Y005553*
X-0012Y005551*
X-001192Y00555*
X-001183Y00555*
X-001175*
X-001166Y00555*
X-001158Y005551*
X-00115Y005553*
X-001142Y005555*
X-001134Y005558*
X-001126Y005562*
X-001119Y005566*
X-001112Y00557*
X-001105Y005575*
X-001099Y00558*
X-001093Y005586*
X-001087Y005592*
X-001082Y005599*
X-001077Y005606*
X-001073Y005613*
X-001069Y005621*
X-001066Y005628*
X-001064Y005636*
X-001062Y005645*
X-00106Y005653*
X-001059Y005661*
X-001059Y005669*
D01*
X-001059Y005678*
X-00106Y005686*
X-001062Y005694*
X-001064Y005703*
X-001066Y005711*
X-001069Y005718*
X-001073Y005726*
X-001077Y005733*
X-001082Y00574*
X-001087Y005747*
X-001093Y005753*
X-001099Y005759*
X-001105Y005764*
X-001112Y005769*
X-001119Y005773*
X-001126Y005777*
X-001134Y005781*
X-001142Y005784*
X-00115Y005786*
X-001158Y005788*
X-001166Y005789*
X-001175Y005789*
X-001183*
X-001192Y005789*
X-0012Y005788*
X-001208Y005786*
X-001216Y005784*
X-001224Y005781*
X-001232Y005777*
X-001239Y005773*
X-001246Y005769*
X-001253Y005764*
X-001259Y005759*
X-001265Y005753*
X-001271Y005747*
X-001276Y00574*
X-001281Y005733*
X-001285Y005726*
X-001289Y005718*
X-001292Y005711*
X-001294Y005703*
X-001296Y005694*
X-001298Y005686*
X-001299Y005678*
X-001299Y005669*
X-001299Y005661*
X-001298Y005653*
X-001296Y005645*
X-001294Y005636*
X-001292Y005628*
X-001289Y005621*
X-001285Y005613*
X-001281Y005606*
X-001276Y005599*
X-001271Y005592*
X-001265Y005586*
X-001259Y00558*
X-001253Y005575*
X-001246Y00557*
X-001239Y005566*
X-001232Y005562*
X-001224Y005558*
X-001216Y005555*
X-001208Y005553*
X-0012Y005551*
X-001192Y00555*
X-001183Y00555*
X-001175*
X-001166Y00555*
X-001158Y005551*
X-00115Y005553*
X-001142Y005555*
X-001134Y005558*
X-001126Y005562*
X-001119Y005566*
X-001112Y00557*
X-001105Y005575*
X-001099Y00558*
X-001093Y005586*
X-001087Y005592*
X-001082Y005599*
X-001077Y005606*
X-001073Y005613*
X-001069Y005621*
X-001066Y005628*
X-001064Y005636*
X-001062Y005645*
X-00106Y005653*
X-001059Y005661*
X-001059Y005669*
X-000782Y001928D02*
D01*
X-000782Y001939*
X-000783Y001951*
X-000785Y001963*
X-000788Y001974*
X-000792Y001986*
X-000796Y001997*
X-000801Y002007*
X-000807Y002018*
X-000814Y002027*
X-000821Y002037*
X-000829Y002046*
X-000838Y002054*
X-000838Y002054*
D01*
X-00083Y002063*
X-000822Y002071*
X-000815Y002081*
X-000808Y002091*
X-000802Y002101*
X-000797Y002111*
X-000792Y002122*
X-000788Y002134*
X-000785Y002145*
X-000783Y002157*
X-000782Y002169*
X-000781Y00218*
X-000782Y002181*
D01*
X-000782Y002193*
X-000783Y002205*
X-000785Y002217*
X-000788Y002228*
X-000792Y00224*
X-000796Y002251*
X-000801Y002261*
X-000807Y002272*
X-000814Y002281*
X-000821Y002291*
X-000829Y0023*
X-000838Y002308*
X-000847Y002315*
X-000856Y002322*
X-000867Y002329*
X-000877Y002334*
X-000888Y002339*
X-000899Y002343*
X-00091Y002346*
X-000922Y002349*
X-000934Y002351*
X-000946Y002351*
X-000957*
X-000969Y002351*
X-000981Y002349*
X-000993Y002346*
X-001004Y002343*
X-001015Y002339*
X-001026Y002334*
X-001037Y002329*
X-001047Y002322*
X-001056Y002315*
X-001065Y002308*
X-001074Y0023*
X-001078Y002295*
X-000659Y00121D02*
D01*
X-00066Y001218*
X-00066Y001219*
X-000659Y00121D02*
D01*
X-00066Y001218*
X-00066Y001219*
X-000259Y001351D02*
D01*
X-00026Y001359*
X-000261Y001367*
X-000262Y001374*
X-000264Y001382*
X-000266Y00139*
X-000269Y001397*
X-000273Y001404*
X-000277Y001411*
X-000281Y001418*
X-000286Y001424*
X-000292Y00143*
X-000293Y001432*
X-000259Y001351D02*
D01*
X-00026Y001359*
X-000261Y001367*
X-000262Y001374*
X-000264Y001382*
X-000266Y00139*
X-000269Y001397*
X-000273Y001404*
X-000277Y001411*
X-000281Y001418*
X-000286Y001424*
X-000292Y00143*
X-000293Y001432*
X-000805Y005022D02*
D01*
X-000806Y00503*
X-000807Y005039*
X-000808Y005047*
X-00081Y005055*
X-000813Y005063*
X-000816Y005071*
X-00082Y005078*
X-000824Y005086*
X-000828Y005093*
X-000834Y005099*
X-000839Y005105*
X-000845Y005111*
X-000852Y005117*
X-000858Y005121*
X-000865Y005126*
X-000873Y00513*
X-000881Y005133*
X-000888Y005136*
X-000896Y005138*
X-000905Y00514*
X-000913Y005141*
X-000921Y005142*
X-00093*
X-000938Y005141*
X-000946Y00514*
X-000955Y005138*
X-000963Y005136*
X-00097Y005133*
X-000978Y00513*
X-000985Y005126*
X-000993Y005121*
X-000999Y005117*
X-001006Y005111*
X-001012Y005105*
X-001017Y005099*
X-001023Y005093*
X-001027Y005086*
X-001031Y005078*
X-001035Y005071*
X-001038Y005063*
X-001041Y005055*
X-001043Y005047*
X-001044Y005039*
X-001045Y00503*
X-001045Y005022*
X-001045Y005014*
X-001044Y005005*
X-001043Y004997*
X-001041Y004989*
X-001038Y004981*
X-001035Y004973*
X-001031Y004966*
X-001027Y004958*
X-001023Y004951*
X-001017Y004945*
X-001012Y004939*
X-001006Y004933*
X-000999Y004927*
X-000993Y004923*
X-000985Y004918*
X-000978Y004914*
X-00097Y004911*
X-000963Y004908*
X-000955Y004906*
X-000946Y004904*
X-000938Y004903*
X-00093Y004902*
X-000921*
X-000913Y004903*
X-000905Y004904*
X-000896Y004906*
X-000888Y004908*
X-000881Y004911*
X-000873Y004914*
X-000865Y004918*
X-000858Y004923*
X-000852Y004927*
X-000845Y004933*
X-000839Y004939*
X-000834Y004945*
X-000828Y004951*
X-000824Y004958*
X-00082Y004966*
X-000816Y004973*
X-000813Y004981*
X-00081Y004989*
X-000808Y004997*
X-000807Y005005*
X-000806Y005014*
X-000805Y005022*
D01*
X-000806Y00503*
X-000807Y005039*
X-000808Y005047*
X-00081Y005055*
X-000813Y005063*
X-000816Y005071*
X-00082Y005078*
X-000824Y005086*
X-000828Y005093*
X-000834Y005099*
X-000839Y005105*
X-000845Y005111*
X-000852Y005117*
X-000858Y005121*
X-000865Y005126*
X-000873Y00513*
X-000881Y005133*
X-000888Y005136*
X-000896Y005138*
X-000905Y00514*
X-000913Y005141*
X-000921Y005142*
X-00093*
X-000938Y005141*
X-000946Y00514*
X-000955Y005138*
X-000963Y005136*
X-00097Y005133*
X-000978Y00513*
X-000985Y005126*
X-000993Y005121*
X-000999Y005117*
X-001006Y005111*
X-001012Y005105*
X-001017Y005099*
X-001023Y005093*
X-001027Y005086*
X-001031Y005078*
X-001035Y005071*
X-001038Y005063*
X-001041Y005055*
X-001043Y005047*
X-001044Y005039*
X-001045Y00503*
X-001045Y005022*
X-001045Y005014*
X-001044Y005005*
X-001043Y004997*
X-001041Y004989*
X-001038Y004981*
X-001035Y004973*
X-001031Y004966*
X-001027Y004958*
X-001023Y004951*
X-001017Y004945*
X-001012Y004939*
X-001006Y004933*
X-000999Y004927*
X-000993Y004923*
X-000985Y004918*
X-000978Y004914*
X-00097Y004911*
X-000963Y004908*
X-000955Y004906*
X-000946Y004904*
X-000938Y004903*
X-00093Y004902*
X-000921*
X-000913Y004903*
X-000905Y004904*
X-000896Y004906*
X-000888Y004908*
X-000881Y004911*
X-000873Y004914*
X-000865Y004918*
X-000858Y004923*
X-000852Y004927*
X-000845Y004933*
X-000839Y004939*
X-000834Y004945*
X-000828Y004951*
X-000824Y004958*
X-00082Y004966*
X-000816Y004973*
X-000813Y004981*
X-00081Y004989*
X-000808Y004997*
X-000807Y005005*
X-000806Y005014*
X-000805Y005022*
X-00005Y005708D02*
D01*
X-000053Y005716*
X-000056Y005724*
X-00006Y005731*
X-000065Y005738*
X-00007Y005745*
X-000075Y005751*
X-000081Y005757*
X-000087Y005763*
X-000094Y005768*
X-000101Y005772*
X-000108Y005776*
X-000116Y00578*
X-000124Y005783*
X-000132Y005785*
X-00014Y005787*
X-000148Y005789*
X-000157Y005789*
X-000165Y005789*
X-000173Y005789*
X-000182Y005788*
X-00019Y005786*
X-000198Y005784*
X-000206Y005782*
X-000214Y005778*
X-000221Y005774*
X-000228Y00577*
X-000235Y005765*
X-000242Y00576*
X-000248Y005754*
X-000253Y005748*
X-000259Y005742*
X-000264Y005735*
X-000268Y005728*
X-000272Y00572*
X-000275Y005713*
X-000278Y005705*
X-00028Y005697*
X-000281Y005688*
X-000283Y00568*
X-000283Y005672*
X-000283Y005663*
X-000282Y005655*
X-000281Y005647*
X-000279Y005639*
X-000276Y005631*
X-000273Y005623*
X-00027Y005615*
X-000266Y005608*
X-000261Y005601*
X-000256Y005594*
X-000251Y005588*
X-000245Y005582*
X-000239Y005576*
X-000232Y005571*
X-000225Y005567*
X-000218Y005563*
X-00021Y005559*
X-000202Y005556*
X-000194Y005554*
X-000186Y005552*
X-000178Y00555*
X-000169Y00555*
X-000161Y00555*
X-000153Y00555*
X-000144Y005551*
X-000136Y005553*
X-000128Y005555*
X-00012Y005557*
X-000112Y005561*
X-000105Y005564*
X-000098Y005569*
X-000091Y005574*
X-000084Y005579*
X-000078Y005585*
X-000073Y005591*
X-000067Y005597*
X-000062Y005604*
X-000058Y005611*
X-000054Y005619*
X-000051Y005626*
X-00005Y005631*
Y005708D02*
D01*
X-000053Y005716*
X-000056Y005724*
X-00006Y005731*
X-000065Y005738*
X-00007Y005745*
X-000075Y005751*
X-000081Y005757*
X-000087Y005763*
X-000094Y005768*
X-000101Y005772*
X-000108Y005776*
X-000116Y00578*
X-000124Y005783*
X-000132Y005785*
X-00014Y005787*
X-000148Y005789*
X-000157Y005789*
X-000165Y005789*
X-000173Y005789*
X-000182Y005788*
X-00019Y005786*
X-000198Y005784*
X-000206Y005782*
X-000214Y005778*
X-000221Y005774*
X-000228Y00577*
X-000235Y005765*
X-000242Y00576*
X-000248Y005754*
X-000253Y005748*
X-000259Y005742*
X-000264Y005735*
X-000268Y005728*
X-000272Y00572*
X-000275Y005713*
X-000278Y005705*
X-00028Y005697*
X-000281Y005688*
X-000283Y00568*
X-000283Y005672*
X-000283Y005663*
X-000282Y005655*
X-000281Y005647*
X-000279Y005639*
X-000276Y005631*
X-000273Y005623*
X-00027Y005615*
X-000266Y005608*
X-000261Y005601*
X-000256Y005594*
X-000251Y005588*
X-000245Y005582*
X-000239Y005576*
X-000232Y005571*
X-000225Y005567*
X-000218Y005563*
X-00021Y005559*
X-000202Y005556*
X-000194Y005554*
X-000186Y005552*
X-000178Y00555*
X-000169Y00555*
X-000161Y00555*
X-000153Y00555*
X-000144Y005551*
X-000136Y005553*
X-000128Y005555*
X-00012Y005557*
X-000112Y005561*
X-000105Y005564*
X-000098Y005569*
X-000091Y005574*
X-000084Y005579*
X-000078Y005585*
X-000073Y005591*
X-000067Y005597*
X-000062Y005604*
X-000058Y005611*
X-000054Y005619*
X-000051Y005626*
X-00005Y005631*
X-003397Y00005D02*
Y001275D01*
X-003347Y00005D02*
Y001275D01*
X-00345Y00005D02*
Y001275D01*
X-003447Y00005D02*
Y001275D01*
X-00345Y000381D02*
X-002566D01*
X-00345Y00033D02*
X-002568D01*
X-003297Y00005D02*
Y0009D01*
X-003247Y00005D02*
Y00087D01*
X-00345Y00098D02*
X-003331D01*
X-00345Y00093D02*
X-003319D01*
X-00345Y00103D02*
X-003322D01*
X-003297Y001069D02*
Y001275D01*
X-00345Y00108D02*
X-003284D01*
X-00345Y00088D02*
X-003271D01*
X-00345Y001275D02*
X-003175D01*
X-003197Y00005D02*
Y000865D01*
X-003147Y00005D02*
Y000884D01*
X-003097Y00005D02*
Y00095D01*
X-003047Y00005D02*
Y001279D01*
X-002997Y00005D02*
Y001279D01*
X-002647Y00005D02*
Y001485D01*
X-002747Y00005D02*
Y001534D01*
X-002697Y00005D02*
Y001495D01*
X-003247Y001099D02*
Y001275D01*
X-003197Y001104D02*
Y001275D01*
X-003147Y001085D02*
Y001279D01*
X-003097Y001019D02*
Y001279D01*
X-003175D02*
X-002979D01*
X-002597Y00005D02*
Y001485D01*
X-002979Y00153D02*
X-002743D01*
X-002979Y00203D02*
X-002889D01*
X-002979Y00198D02*
X-002889D01*
X-002979Y00213D02*
X-002889D01*
X-002979Y00208D02*
X-002889D01*
X-002979Y00173D02*
X-002889D01*
X-002979Y00168D02*
X-002881D01*
X-002979Y00193D02*
X-002889D01*
X-002979Y00188D02*
X-002889D01*
X-003175Y00218D02*
Y003464D01*
X-003147Y00218D02*
Y004921D01*
X-003097Y00218D02*
Y004987D01*
X-003047Y00218D02*
Y00595D01*
X-003175Y00218D02*
X-002889D01*
X-003175Y00218D02*
X-002979D01*
X-003175Y00223D02*
X-002875D01*
X-002997Y00218D02*
Y00595D01*
X-003175Y00228D02*
X-002831D01*
X-002979Y001279D02*
Y00218D01*
X-002947Y00005D02*
Y00595D01*
X-002897Y00005D02*
Y00595D01*
X-002979Y00158D02*
X-002793D01*
X-002797Y00005D02*
Y001584D01*
X-002979Y00163D02*
X-002843D01*
X-002847Y00005D02*
Y001634D01*
X-002856Y001643D02*
X-002731Y001518D01*
X-002979Y00178D02*
X-002889D01*
X-002979Y00183D02*
X-002889D01*
Y001724D02*
Y002175D01*
X-002856Y002256D02*
X-002706Y002406D01*
X-002847Y002265D02*
Y00595D01*
X-002797Y002315D02*
Y00595D01*
X-00345Y000281D02*
X-002548D01*
X-00345Y00023D02*
X-002465D01*
X-00345Y00043D02*
X-002539D01*
X-00345Y000081D02*
X-00005D01*
X-00345Y00005D02*
X-00005D01*
X-00345Y000181D02*
X-00005D01*
X-00345Y00013D02*
X-00005D01*
X-00345Y00078D02*
X-000643D01*
X-00345Y00073D02*
X-000627D01*
X-00345Y00083D02*
X-001516D01*
X-003152Y00088D02*
X-002255D01*
X-00345Y00053D02*
X-00005D01*
X-00345Y00048D02*
X-00005D01*
X-00345Y00068D02*
X-000582D01*
X-00345Y00058D02*
X-00005D01*
X-00345Y00063D02*
X-00005D01*
X-002497Y00005D02*
Y000239D01*
X-002447Y00005D02*
Y00023D01*
X-002547Y00005D02*
Y000278D01*
X-002397Y00005D02*
Y000242D01*
X-002347Y00005D02*
Y000289D01*
X-002147Y00005D02*
Y000875D01*
X-002297Y00005D02*
Y00092D01*
X-002097Y00005D02*
Y000917D01*
X-002247Y00005D02*
Y000876D01*
X-002197Y00005D02*
Y000864D01*
X-002136Y00088D02*
X-002001D01*
X-002088Y00093D02*
X-002049D01*
X-002435Y00023D02*
X-001449D01*
X-002352Y000281D02*
X-001532D01*
X-002361Y00043D02*
X-001523D01*
X-002332Y00033D02*
X-001552D01*
X-002334Y000381D02*
X-00155D01*
X-002447Y000469D02*
Y001485D01*
X-002397Y000457D02*
Y001485D01*
X-002547Y000421D02*
Y001485D01*
X-002497Y00046D02*
Y001485D01*
X-003104Y00093D02*
X-002303D01*
X-003092Y00098D02*
X-002315D01*
X-003139Y00108D02*
X-002268D01*
X-003101Y00103D02*
X-002306D01*
X-002979Y00143D02*
X-002018D01*
X-002979Y00138D02*
X-001968D01*
X-002979Y00148D02*
X-002068D01*
X-00265Y001485D02*
X-002072D01*
X-00345Y00118D02*
X-001768D01*
X-00345Y00113D02*
X-001718D01*
X-00345Y00123D02*
X-001818D01*
X-002979Y00128D02*
X-001868D01*
X-002979Y00133D02*
X-001918D01*
X-002247Y001093D02*
Y001485D01*
X-002147Y001094D02*
Y001485D01*
X-002347Y00041D02*
Y001485D01*
X-002297Y001049D02*
Y001485D01*
X-002123Y00108D02*
X-002014D01*
X-002085Y00103D02*
X-002052D01*
X-002097Y001052D02*
Y001485D01*
X-002197Y001105D02*
Y001485D01*
X-002097Y002297D02*
Y004954D01*
Y002043D02*
Y002066D01*
X-00345Y003464D02*
X-003175D01*
X-003197D02*
Y004903D01*
X-003297Y003464D02*
Y004937D01*
X-003247Y003464D02*
Y004907D01*
X-003175Y00238D02*
X-002731D01*
X-003175Y00233D02*
X-002781D01*
X-003175Y00243D02*
X-002669D01*
X-00345Y00498D02*
X-003324D01*
X-00345Y00493D02*
X-003289D01*
X-00345Y00508D02*
X-003316D01*
X-00345Y00503D02*
X-003331D01*
X-003134Y00493D02*
X-002273D01*
X-003107Y00508D02*
X-0023D01*
X-00345Y00513D02*
X-003263D01*
X-00316D02*
X-002247D01*
X-002247Y002369D02*
Y004913D01*
X-002283Y002406D02*
X-002229Y002351D01*
X-00214Y00233D02*
X-002049D01*
X-002197Y00235D02*
Y004902D01*
X-002147Y002334D02*
Y004912D01*
X-002625Y00244D02*
X-002364D01*
X-003099Y00498D02*
X-002308D01*
X-003092Y00503D02*
X-002315D01*
X-002297Y002417D02*
Y004957D01*
X-002083Y00498D02*
X-002054D01*
X-002091Y00508D02*
X-002046D01*
X-003397Y003464D02*
Y00595D01*
X-003347Y003464D02*
Y00595D01*
X-00345Y003464D02*
Y00595D01*
X-003447Y003464D02*
Y00595D01*
X-002697Y002414D02*
Y00595D01*
X-002647Y002437D02*
Y00595D01*
X-003097Y005057D02*
Y00595D01*
X-002747Y002365D02*
Y00595D01*
X-003197Y005141D02*
Y00595D01*
X-003147Y005123D02*
Y00595D01*
X-003297Y005107D02*
Y00595D01*
X-003247Y005137D02*
Y00595D01*
X-00345Y00563D02*
X-002562D01*
X-00345Y00558D02*
X-002529D01*
X-00345Y00578D02*
X-002495D01*
X-00345Y00568D02*
X-002569D01*
X-00345Y00573D02*
X-002552D01*
X-002497Y00244D02*
Y005559D01*
X-002447Y00244D02*
Y00555D01*
X-002597Y00244D02*
Y00595D01*
X-002547Y00244D02*
Y0056D01*
X-002397Y00244D02*
Y005562D01*
X-002347Y002438D02*
Y005607D01*
X-002297Y005087D02*
Y00595D01*
X-002097Y00509D02*
Y00595D01*
X-002247Y005131D02*
Y00595D01*
X-002447Y005789D02*
Y00595D01*
X-002397Y005777D02*
Y00595D01*
X-002547Y005739D02*
Y00595D01*
X-002497Y00578D02*
Y00595D01*
X-002347Y005732D02*
Y00595D01*
X-002147Y005132D02*
Y00595D01*
X-002197Y005142D02*
Y00595D01*
X-00345Y00353D02*
X-00005D01*
X-00345Y00348D02*
X-00005D01*
X-00345Y00363D02*
X-00005D01*
X-00345Y00358D02*
X-00005D01*
X-003175Y00333D02*
X-00005D01*
X-003175Y00328D02*
X-00005D01*
X-003175Y00343D02*
X-00005D01*
X-003175Y00338D02*
X-00005D01*
X-00345Y00398D02*
X-00005D01*
X-00345Y00393D02*
X-00005D01*
X-00345Y00408D02*
X-00005D01*
X-00345Y00403D02*
X-00005D01*
X-00345Y00373D02*
X-00005D01*
X-00345Y00368D02*
X-00005D01*
X-00345Y00388D02*
X-00005D01*
X-00345Y00378D02*
X-00005D01*
X-00345Y00383D02*
X-00005D01*
X-003175Y00268D02*
X-00005D01*
X-003175Y00263D02*
X-00005D01*
X-003175Y00278D02*
X-00005D01*
X-003175Y00273D02*
X-00005D01*
X-00232Y00243D02*
X-00005D01*
X-002258Y00238D02*
X-00005D01*
X-003175Y00258D02*
X-00005D01*
X-003175Y00248D02*
X-00005D01*
X-003175Y00253D02*
X-00005D01*
X-003175Y00313D02*
X-00005D01*
X-003175Y00308D02*
X-00005D01*
X-003175Y00323D02*
X-00005D01*
X-003175Y00318D02*
X-00005D01*
X-003175Y00288D02*
X-00005D01*
X-003175Y00283D02*
X-00005D01*
X-003175Y00303D02*
X-00005D01*
X-003175Y00293D02*
X-00005D01*
X-003175Y00298D02*
X-00005D01*
X-00345Y00438D02*
X-00005D01*
X-00345Y00433D02*
X-00005D01*
X-00345Y00448D02*
X-00005D01*
X-00345Y00443D02*
X-00005D01*
X-00345Y00418D02*
X-00005D01*
X-00345Y00413D02*
X-00005D01*
X-00345Y00428D02*
X-00005D01*
X-00345Y00423D02*
X-00005D01*
X-00345Y00483D02*
X-00005D01*
X-00345Y00478D02*
X-00005D01*
X-00345Y00518D02*
X-00005D01*
X-00345Y00488D02*
X-00005D01*
X-00345Y00458D02*
X-00005D01*
X-00345Y00453D02*
X-00005D01*
X-00345Y00473D02*
X-00005D01*
X-00345Y00463D02*
X-00005D01*
X-00345Y00468D02*
X-00005D01*
X-002144Y00513D02*
X-001993D01*
X-002118Y00493D02*
X-002019D01*
X-00345Y00528D02*
X-00005D01*
X-00345Y00523D02*
X-00005D01*
X-00345Y00538D02*
X-00005D01*
X-00345Y00533D02*
X-00005D01*
X-00345Y00553D02*
X-00005D01*
X-00345Y00543D02*
X-00005D01*
X-00345Y00548D02*
X-00005D01*
X-002369Y00558D02*
X-001513D01*
X-002336Y00563D02*
X-001546D01*
X-002346Y00573D02*
X-001536D01*
X-00233Y00568D02*
X-001553D01*
X-00345Y00583D02*
X-00005D01*
X-002403Y00578D02*
X-001479D01*
X-00345Y00595D02*
X-00005D01*
X-00345Y00588D02*
X-00005D01*
X-00345Y00593D02*
X-00005D01*
X-001447Y00005D02*
Y00023D01*
X-001397Y00005D02*
Y000235D01*
X-001547Y00005D02*
Y000308D01*
X-001497Y00005D02*
Y000247D01*
X-001419Y00023D02*
X-001195D01*
X-001347Y00005D02*
Y000267D01*
X-001497Y000452D02*
Y00083D01*
X-001397Y000464D02*
Y000831D01*
X-001547Y000391D02*
Y000837D01*
X-001447Y000469D02*
Y000839D01*
X-001483Y00083D02*
X-001391D01*
X-001345Y00043D02*
X-001269D01*
X-001347Y000432D02*
Y000832D01*
X-001358Y00083D02*
X-001266D01*
X-001247Y00005D02*
Y00025D01*
X-001197Y00005D02*
Y000231D01*
X-001336Y000281D02*
X-001278D01*
X-001297Y00005D02*
Y000321D01*
X-001147Y00005D02*
Y000234D01*
X-001097Y00005D02*
Y000263D01*
X-001318Y000381D02*
X-001296D01*
X-001316Y00033D02*
X-001298D01*
X-001297Y000378D02*
Y000837D01*
X-001247Y000449D02*
Y00083D01*
X-001233Y00083D02*
X-001141D01*
X-001147Y000465D02*
Y000831D01*
X-001097Y000436D02*
Y000832D01*
X-001197Y000468D02*
Y000839D01*
X-001947Y00005D02*
Y000865D01*
X-001897Y00005D02*
Y000873D01*
X-002047Y00005D02*
Y000927D01*
X-001997Y00005D02*
Y000878D01*
X-001882Y00088D02*
X-00161D01*
X-001847Y00005D02*
Y000911D01*
X-002076Y00098D02*
X-002061D01*
X-001947Y001104D02*
Y001359D01*
X-002047Y001042D02*
Y001459D01*
X-001997Y001091D02*
Y001409D01*
X-001869Y00108D02*
X-001668D01*
X-001834Y00093D02*
X-001638D01*
X-002072Y001485D02*
X-001628Y001041D01*
X-001847Y001058D02*
Y001259D01*
X-001897Y001096D02*
Y001309D01*
X-001697Y00005D02*
Y001109D01*
X-001647Y00005D02*
Y001059D01*
X-001797Y00005D02*
Y001209D01*
X-001747Y00005D02*
Y001159D01*
X-001047Y00005D02*
Y000852D01*
X-000947Y00005D02*
Y000866D01*
X-001597Y00005D02*
Y000867D01*
X-000897Y00005D02*
Y000868D01*
X-000997Y00005D02*
Y000888D01*
X-001831Y00103D02*
X-001633D01*
X-001822Y00098D02*
X-001644D01*
X-00101Y00107D02*
Y001282D01*
X-001014Y00088D02*
X-000985D01*
X-00101Y00108D02*
X-000998D01*
X-000997Y001081D02*
Y001269D01*
X-000947Y001103D02*
Y001219D01*
X-000797Y00005D02*
Y000826D01*
X-000747Y00005D02*
Y000827D01*
X-000847Y00005D02*
Y000844D01*
X-000697Y00005D02*
Y000847D01*
X-000547Y00005D02*
Y000662D01*
X-000497Y00005D02*
Y000655D01*
X-000597Y00005D02*
Y000692D01*
X-000447Y00005D02*
Y000664D01*
X-001062Y00033D02*
X-000282D01*
X-000733Y00083D02*
X-000641D01*
X-001108D02*
X-000816D01*
X-00066Y00088D02*
X-00062D01*
X-001165Y00023D02*
X-000179D01*
X-001082Y000281D02*
X-000262D01*
X-001091Y00043D02*
X-000253D01*
X-001064Y000381D02*
X-00028D01*
X-000397Y00005D02*
Y000656D01*
X-000247Y00005D02*
Y000262D01*
X-000347Y00005D02*
Y000657D01*
X-000297Y00005D02*
Y000677D01*
X-000197Y00005D02*
Y000234D01*
X-000147Y00005D02*
Y000231D01*
X-00005Y00005D02*
Y000314D01*
X-000097Y00005D02*
Y00025D01*
X-000075Y00043D02*
X-00005D01*
X-000066Y000281D02*
X-00005D01*
X-000247Y000437D02*
Y000731D01*
X-000292Y00068D02*
X-00005D01*
X-000149Y00023D02*
X-00005D01*
X-000247Y00073D02*
X-00005D01*
X-000231Y00078D02*
X-00005D01*
X-000233Y00083D02*
X-00005D01*
X-000659Y001058D02*
Y00121D01*
X-000647Y00005D02*
Y000901D01*
Y001038D02*
Y001206D01*
X-00101Y00113D02*
X-000889D01*
X-000897Y001101D02*
Y001169D01*
X-000889Y001099D02*
Y001162D01*
X-000659Y00113D02*
X-000615D01*
X-000659Y00108D02*
X-000615D01*
X-00101Y001282D02*
X-000889Y001162D01*
X-00066Y001219D02*
X-000615Y001174D01*
X-000659Y00118D02*
X-000621D01*
X-000615Y000888D02*
Y001174D01*
X-000247Y000868D02*
Y005583D01*
X-000254Y00088D02*
X-00005D01*
X-000147Y000468D02*
Y005551D01*
X-000197Y000465D02*
Y005554D01*
X-00005Y000385D02*
Y005631D01*
X-000097Y000449D02*
Y00557D01*
X-000635Y00093D02*
X-000615D01*
X-00063Y00098D02*
X-000615D01*
X-000643Y00103D02*
X-000615D01*
X-000259Y000888D02*
Y001351D01*
Y00098D02*
X-00005D01*
X-000259Y00093D02*
X-00005D01*
X-000259Y00113D02*
X-00005D01*
X-000259Y00103D02*
X-00005D01*
X-000259Y00108D02*
X-00005D01*
X-001997Y002349D02*
Y004915D01*
X-001897Y002336D02*
Y004911D01*
X-002047Y002332D02*
Y004964D01*
X-001847Y002301D02*
Y004949D01*
X-001886Y00233D02*
X-001795D01*
X-001632D02*
X-001541D01*
X-002076Y00503D02*
X-002061D01*
X-001947Y00235D02*
Y004902D01*
X-001864Y00493D02*
X-001003D01*
X-001829Y00498D02*
X-001038D01*
X-00189Y00513D02*
X-000977D01*
X-001822Y00503D02*
X-001045D01*
X-001837Y00508D02*
X-00103D01*
X-001378Y00233D02*
X-001287D01*
X-00101Y00123D02*
X-000958D01*
X-00101Y00118D02*
X-000908D01*
X-001124Y00233D02*
X-001033D01*
X-001447Y002351D02*
Y00555D01*
X-001397Y002339D02*
Y005555D01*
X-001497Y002347D02*
Y005568D01*
X-001353Y00558D02*
X-001259D01*
X-000997Y002345D02*
Y004925D01*
X-000947Y002351D02*
Y004904D01*
X-001247Y002346D02*
Y00557D01*
X-001147Y002341D02*
Y005554D01*
X-001197Y002351D02*
Y005551D01*
X-001797Y00233D02*
Y00595D01*
X-001747Y002348D02*
Y00595D01*
X-002047Y00508D02*
Y00595D01*
X-001847Y005095D02*
Y00595D01*
X-001597Y002305D02*
Y00595D01*
X-001547Y002327D02*
Y005631D01*
X-001697Y002351D02*
Y00595D01*
X-001647Y002338D02*
Y00595D01*
X-001897Y005133D02*
Y00595D01*
X-001547Y005708D02*
Y00595D01*
X-001997Y005129D02*
Y00595D01*
X-001947Y005142D02*
Y00595D01*
X-001497Y005771D02*
Y00595D01*
X-001397Y005784D02*
Y00595D01*
X-001447Y005789D02*
Y00595D01*
X-001347Y002309D02*
Y005586D01*
X-001097Y002312D02*
Y005582D01*
X-00132Y00563D02*
X-001292D01*
X-001297Y002325D02*
Y005646D01*
X-001047Y002322D02*
Y00595D01*
X-000997Y005119D02*
Y00595D01*
X-000947Y00514D02*
Y00595D01*
X-00133Y00573D02*
X-001282D01*
X-001313Y00568D02*
X-001299D01*
X-001347Y005753D02*
Y00595D01*
X-001297Y005693D02*
Y00595D01*
X-001387Y00578D02*
X-001225D01*
X-001247Y005769D02*
Y00595D01*
X-001197Y005788D02*
Y00595D01*
X-001097Y005757D02*
Y00595D01*
X-001147Y005785D02*
Y00595D01*
X-000782Y00192D02*
X-000293Y001432D01*
X-000797Y001998D02*
Y002111D01*
X-000782Y00193D02*
X-00005D01*
X-000742Y00188D02*
X-00005D01*
X-000816Y00203D02*
X-00005D01*
X-00079Y00198D02*
X-00005D01*
X-000815Y00208D02*
X-00005D01*
X-000782Y00218D02*
X-00005D01*
X-000897Y002342D02*
Y004906D01*
X-000789Y00213D02*
X-00005D01*
X-000789Y00223D02*
X-00005D01*
X-00087Y00233D02*
X-00005D01*
X-000813Y00228D02*
X-00005D01*
X-000848Y00493D02*
X-00005D01*
X-000259Y00123D02*
X-00005D01*
X-000259Y00118D02*
X-00005D01*
X-000263Y00138D02*
X-00005D01*
X-000259Y00128D02*
X-00005D01*
X-000259Y00133D02*
X-00005D01*
X-000592Y00173D02*
X-00005D01*
X-000542Y00168D02*
X-00005D01*
X-000692Y00183D02*
X-00005D01*
X-000642Y00178D02*
X-00005D01*
X-000342Y00148D02*
X-00005D01*
X-000292Y00143D02*
X-00005D01*
X-000492Y00163D02*
X-00005D01*
X-000392Y00153D02*
X-00005D01*
X-000442Y00158D02*
X-00005D01*
X-000847Y002315D02*
Y004932D01*
X-000797Y002252D02*
Y00595D01*
X-000813Y00498D02*
X-00005D01*
X-000806Y00503D02*
X-00005D01*
X-000747Y001885D02*
Y00595D01*
X-000697Y001835D02*
Y00595D01*
X-001066Y00563D02*
X-000276D01*
X-001059Y00568D02*
X-000283D01*
X-000897Y005138D02*
Y00595D01*
X-000847Y005112D02*
Y00595D01*
X-000874Y00513D02*
X-00005D01*
X-000821Y00508D02*
X-00005D01*
X-001133Y00578D02*
X-000209D01*
X-001099Y00558D02*
X-000243D01*
X-001076Y00573D02*
X-000266D01*
X-000547Y001685D02*
Y00595D01*
X-000497Y001635D02*
Y00595D01*
X-000647Y001785D02*
Y00595D01*
X-000597Y001735D02*
Y00595D01*
X-000297Y001435D02*
Y00595D01*
X-000447Y001585D02*
Y00595D01*
X-000347Y001485D02*
Y00595D01*
X-000397Y001535D02*
Y00595D01*
X-000147Y005788D02*
Y00595D01*
X-000097Y005769D02*
Y00595D01*
X-000247Y005756D02*
Y00595D01*
X-000197Y005785D02*
Y00595D01*
X-000083Y00558D02*
X-00005D01*
X-00006Y00573D02*
X-00005D01*
Y005708D02*
Y00595D01*
X-000117Y00578D02*
X-00005D01*
G54D11*
X-000951Y001928D02*
X-000375Y001351D01*
Y000799D02*
Y001351D01*
X-001205Y001928D02*
X-000499Y001221D01*
Y000799D02*
Y001221D01*
X-002364Y002324D02*
X-002221Y002181D01*
X-002625Y002324D02*
X-002364D01*
X-002775Y002175D02*
X-002625Y002324D01*
X-002775Y001724D02*
Y002175D01*
Y001724D02*
X-00265Y001599D01*
X-002024*
X-001499Y001075*
Y000975D02*
Y001075D01*
X-002618Y002181D02*
X-002475D01*
X-002675Y002124D02*
X-002618Y002181D01*
X-002675Y001775D02*
Y002124D01*
X-002599Y001699D02*
X-001975D01*
X-002675Y001775D02*
X-002599Y001699D01*
X-001975D02*
X-001375Y001099D01*
Y000975D02*
Y001099D01*
X-00125Y000975D02*
Y001175D01*
X-001124Y000975D02*
Y001305D01*
X-001587Y001767D02*
X-001124Y001305D01*
X-001967Y002181D02*
X-00184Y002053D01*
X-001713Y002181D02*
X-001587Y002055D01*
X-001459Y002181D02*
X-001329Y002051D01*
X-001587Y001767D02*
Y002055D01*
X-001329Y001764D02*
Y002051D01*
Y001764D02*
X-000775Y00121D01*
Y00097D02*
Y00121D01*
X-00184Y001764D02*
Y002053D01*
Y001764D02*
X-00125Y001175D01*
G54D12*
X-003399Y001479D02*
X-003419Y001459D01*
Y001419*
X-003399Y001399*
X-003379*
X-003359Y001419*
Y001459*
X-003339Y001479*
X-003319*
X-003299Y001459*
Y001419*
X-003319Y001399*
X-003299Y001519D02*
X-003419D01*
X-003379Y001559*
X-003419Y001599*
X-003299*
X-003359Y001639D02*
Y001719D01*
X-003399Y001839D02*
X-003419Y001819D01*
Y001779*
X-003399Y001759*
X-003319*
X-003299Y001779*
Y001819*
X-003319Y001839*
X-003299Y001899D02*
Y001939D01*
X-003319Y001959*
X-003359*
X-003379Y001939*
Y001899*
X-003359Y001879*
X-003319*
X-003299Y001899*
Y001999D02*
X-003379D01*
Y002059*
X-003359Y002079*
X-003299*
Y002119D02*
X-003379D01*
Y002179*
X-003359Y002199*
X-003299*
Y002299D02*
Y002259D01*
X-003319Y002239*
X-003359*
X-003379Y002259*
Y002299*
X-003359Y002319*
X-003339*
Y002239*
X-003379Y002439D02*
Y002379D01*
X-003359Y002359*
X-003319*
X-003299Y002379*
Y002439*
X-003399Y002499D02*
X-003379D01*
Y002479*
Y002519*
Y002499*
X-003319*
X-003299Y002519*
X-003419Y002759D02*
Y002719D01*
X-003399Y002699*
X-003319*
X-003299Y002719*
Y002759*
X-003319Y002779*
X-003399*
X-003419Y002759*
X-003299Y002819D02*
Y002859D01*
Y002839*
X-003419*
Y002819*
X-003299Y002919D02*
Y002959D01*
Y002939*
X-003379*
Y002919*
X-003299Y003019D02*
X-003379D01*
Y003039*
X-003359Y003059*
X-003299*
X-003359*
X-003379Y003079*
X-003359Y003099*
X-003299*
Y003199D02*
Y003159D01*
X-003319Y003139*
X-003359*
X-003379Y003159*
Y003199*
X-003359Y003219*
X-003339*
Y003139*
X-003379Y003259D02*
X-003299Y003339D01*
X-003339Y003299*
X-003379Y003339*
X-003299Y003259*
G54D13*
X-003179Y001399D02*
X-003099D01*
X-003139*
X-003159Y001419*
X-003179Y001439*
Y001459*
X-003099Y001579D02*
Y001539D01*
X-003119Y001519*
X-003159*
X-003179Y001539*
Y001579*
X-003159Y001599*
X-003139*
Y001519*
X-003179Y001639D02*
X-003099Y001679D01*
X-003179Y001719*
X-003099Y001759D02*
X-003119D01*
Y001779*
X-003099*
Y001759*
Y002059D02*
Y001979D01*
X-003179Y002059*
X-003199*
X-003219Y002039*
Y001999*
X-003199Y001979*
G54D14*
X-003212Y005022D03*
X-002196D03*
X-001942D03*
X-000926D03*
X-002449Y005669D03*
X-001433D03*
X-001179D03*
X-000163D03*
X-003212Y000985D03*
X-002196D03*
X-001942D03*
X-000926D03*
X-000164Y00035D03*
X-00118D03*
X-001434D03*
X-00245D03*
G54D15*
X-002475Y001928D03*
G54D16*
X-002475Y002181D03*
X-002221Y001928D03*
Y002181D03*
X-001967Y001928D03*
Y002181D03*
X-001713Y001928D03*
Y002181D03*
X-001459Y001928D03*
Y002181D03*
X-001205D03*
Y001928D03*
X-000951Y002181D03*
Y001928D03*
G54D17*
X-000375Y000799D03*
X-000499D03*
X-001124Y000975D03*
X-00125D03*
X-001375D03*
X-001499D03*
X-000775Y00097D03*
M02*