%FSTAX42Y42*%
%MOMM*%
%SFA1B1*%

%IPPOS*%
%ADD24C,0.250000*%
%ADD25C,0.200000*%
%ADD26C,0.200000*%
%LNpcb_monitoring_bott_back-1*%
%LPD*%
G54D24*
X00053Y000076D02*
D01*
X00053Y000077*
X00053Y000078*
X00053Y000079*
X00053Y00008*
X00053Y000081*
X000529Y000081*
X000529Y000082*
X000529Y000083*
X000528Y000084*
X000528Y000084*
X000527Y000085*
X000527Y000085*
X000526Y000086*
X000525Y000086*
X000524Y000087*
X000524Y000087*
X000523Y000088*
X000522Y000088*
X000521Y000088*
X000521Y000088*
X00052Y000088*
X000519Y000088*
X000518*
X000517Y000088*
X000516Y000088*
X000516Y000088*
X000515Y000088*
X000514Y000088*
X000513Y000087*
X000512Y000087*
X000512Y000086*
X000511Y000086*
X00051Y000085*
X00051Y000085*
X000509Y000084*
X000509Y000084*
X000508Y000083*
X000508Y000082*
X000508Y000081*
X000507Y000081*
X000507Y00008*
X000507Y000079*
X000507Y000078*
X000507Y000077*
X000506Y000076*
X000507Y000076*
X000507Y000075*
X000507Y000074*
X000507Y000073*
X000507Y000072*
X000508Y000072*
X000508Y000071*
X000508Y00007*
X000509Y000069*
X000509Y000069*
X00051Y000068*
X00051Y000068*
X000511Y000067*
X000512Y000067*
X000512Y000066*
X000513Y000066*
X000514Y000065*
X000515Y000065*
X000516Y000065*
X000516Y000065*
X000517Y000065*
X000518Y000065*
X000519*
X00052Y000065*
X000521Y000065*
X000521Y000065*
X000522Y000065*
X000523Y000065*
X000524Y000066*
X000524Y000066*
X000525Y000067*
X000526Y000067*
X000527Y000068*
X000527Y000068*
X000528Y000069*
X000528Y000069*
X000529Y00007*
X000529Y000071*
X000529Y000072*
X00053Y000072*
X00053Y000073*
X00053Y000074*
X00053Y000075*
X00053Y000076*
X00053Y000076*
X00463D02*
D01*
X00463Y000077*
X00463Y000078*
X00463Y000079*
X00463Y00008*
X00463Y000081*
X004629Y000081*
X004629Y000082*
X004629Y000083*
X004628Y000084*
X004628Y000084*
X004627Y000085*
X004627Y000085*
X004626Y000086*
X004625Y000086*
X004624Y000087*
X004624Y000087*
X004623Y000088*
X004622Y000088*
X004621Y000088*
X004621Y000088*
X00462Y000088*
X004619Y000088*
X004618*
X004617Y000088*
X004616Y000088*
X004616Y000088*
X004615Y000088*
X004614Y000088*
X004613Y000087*
X004612Y000087*
X004612Y000086*
X004611Y000086*
X00461Y000085*
X00461Y000085*
X004609Y000084*
X004609Y000084*
X004608Y000083*
X004608Y000082*
X004608Y000081*
X004607Y000081*
X004607Y00008*
X004607Y000079*
X004607Y000078*
X004607Y000077*
X004606Y000076*
X004607Y000076*
X004607Y000075*
X004607Y000074*
X004607Y000073*
X004607Y000072*
X004608Y000072*
X004608Y000071*
X004608Y00007*
X004609Y000069*
X004609Y000069*
X00461Y000068*
X00461Y000068*
X004611Y000067*
X004612Y000067*
X004612Y000066*
X004613Y000066*
X004614Y000065*
X004615Y000065*
X004616Y000065*
X004616Y000065*
X004617Y000065*
X004618Y000065*
X004619*
X00462Y000065*
X004621Y000065*
X004621Y000065*
X004622Y000065*
X004623Y000065*
X004624Y000066*
X004624Y000066*
X004625Y000067*
X004626Y000067*
X004627Y000068*
X004627Y000068*
X004628Y000069*
X004628Y000069*
X004629Y00007*
X004629Y000071*
X004629Y000072*
X00463Y000072*
X00463Y000073*
X00463Y000074*
X00463Y000075*
X00463Y000076*
X00463Y000076*
X009363Y-000017D02*
D01*
X009363Y-000017*
X009363Y-000016*
X009363Y-000015*
X009363Y-000014*
X009363Y-000013*
X009362Y-000013*
X009362Y-000012*
X009362Y-000011*
X009361Y-00001*
X009361Y-00001*
X00936Y-000009*
X00936Y-000009*
X009359Y-000008*
X009358Y-000008*
X009357Y-000007*
X009357Y-000007*
X009356Y-000006*
X009355Y-000006*
X009354Y-000006*
X009354Y-000006*
X009353Y-000006*
X009352Y-000006*
X009351*
X00935Y-000006*
X009349Y-000006*
X009349Y-000006*
X009348Y-000006*
X009347Y-000006*
X009346Y-000007*
X009345Y-000007*
X009345Y-000008*
X009344Y-000008*
X009343Y-000009*
X009343Y-000009*
X009342Y-00001*
X009342Y-00001*
X009341Y-000011*
X009341Y-000012*
X009341Y-000013*
X00934Y-000013*
X00934Y-000014*
X00934Y-000015*
X00934Y-000016*
X00934Y-000017*
X009339Y-000017*
X00934Y-000018*
X00934Y-000019*
X00934Y-00002*
X00934Y-000021*
X00934Y-000022*
X009341Y-000022*
X009341Y-000023*
X009341Y-000024*
X009342Y-000025*
X009342Y-000025*
X009343Y-000026*
X009343Y-000026*
X009344Y-000027*
X009345Y-000027*
X009345Y-000028*
X009346Y-000028*
X009347Y-000029*
X009348Y-000029*
X009349Y-000029*
X009349Y-000029*
X00935Y-000029*
X009351Y-000029*
X009352*
X009353Y-000029*
X009354Y-000029*
X009354Y-000029*
X009355Y-000029*
X009356Y-000029*
X009357Y-000028*
X009357Y-000028*
X009358Y-000027*
X009359Y-000027*
X00936Y-000026*
X00936Y-000026*
X009361Y-000025*
X009361Y-000025*
X009362Y-000024*
X009362Y-000023*
X009362Y-000022*
X009363Y-000022*
X009363Y-000021*
X009363Y-00002*
X009363Y-000019*
X009363Y-000018*
X009363Y-000017*
G54D25*
X001999Y003242D02*
Y004452D01*
X000499D02*
X001999D01*
X000499Y003242D02*
Y004452D01*
Y003242D02*
X001999D01*
X000499D02*
Y004452D01*
X-000999D02*
X000499D01*
X-000999Y003242D02*
Y004452D01*
Y003242D02*
X000499D01*
X-000999D02*
Y004452D01*
X-002499D02*
X-000999D01*
X-002499Y003242D02*
Y004452D01*
Y003242D02*
X-000999D01*
X-002499D02*
Y004452D01*
X-003999D02*
X-002499D01*
X-003999Y003242D02*
Y004452D01*
Y003242D02*
X-002499D01*
X001168Y000901D02*
Y002901D01*
X002768*
Y000901D02*
Y002901D01*
X001168Y000901D02*
X002768D01*
X-00053D02*
Y002901D01*
X001068*
Y000901D02*
Y002901D01*
X-00053Y000901D02*
X001068D01*
X-00223D02*
Y002901D01*
X-00063*
Y000901D02*
Y002901D01*
X-00223Y000901D02*
X-00063D01*
X-00393D02*
Y002901D01*
X-00233*
Y000901D02*
Y002901D01*
X-00393Y000901D02*
X-00233D01*
X003438Y000906D02*
Y002896D01*
X002898Y000906D02*
X003438D01*
X002898Y002896D02*
X003438D01*
X002898Y000906D02*
Y002896D01*
X004126Y000906D02*
Y002896D01*
X003586Y000906D02*
X004126D01*
X003586Y002896D02*
X004126D01*
X003586Y000906D02*
Y002896D01*
X004815Y000906D02*
Y002896D01*
X004275Y000906D02*
X004815D01*
X004275Y002896D02*
X004815D01*
X004275Y000906D02*
Y002896D01*
X005503Y000906D02*
Y002896D01*
X004963Y000906D02*
X005503D01*
X004963Y002896D02*
X005503D01*
X004963Y000906D02*
Y002896D01*
X006191Y000906D02*
Y002896D01*
X005651Y000906D02*
X006191D01*
X005651Y002896D02*
X006191D01*
X005651Y000906D02*
Y002896D01*
X00688Y000906D02*
Y002896D01*
X00634Y000906D02*
X00688D01*
X00634Y002896D02*
X00688D01*
X00634Y000906D02*
Y002896D01*
X007568Y000906D02*
Y002896D01*
X007028Y000906D02*
X007568D01*
X007028Y002896D02*
X007568D01*
X007028Y000906D02*
Y002896D01*
X008257Y000906D02*
Y002896D01*
X007717Y000906D02*
X008257D01*
X007717Y002896D02*
X008257D01*
X007717Y000906D02*
Y002896D01*
X009634Y000906D02*
Y002896D01*
X009094Y000906D02*
X009634D01*
X009094Y002896D02*
X009634D01*
X009094Y000906D02*
Y002896D01*
X010322Y000906D02*
Y002896D01*
X009782Y000906D02*
X010322D01*
X009782Y002896D02*
X010322D01*
X009782Y000906D02*
Y002896D01*
X011011Y000906D02*
Y002896D01*
X010471Y000906D02*
X011011D01*
X010471Y002896D02*
X011011D01*
X010471Y000906D02*
Y002896D01*
X011699Y000906D02*
Y002896D01*
X011159Y000906D02*
X011699D01*
X011159Y002896D02*
X011699D01*
X011159Y000906D02*
Y002896D01*
X012388Y000906D02*
Y002896D01*
X011848Y000906D02*
X012388D01*
X011848Y002896D02*
X012388D01*
X011848Y000906D02*
Y002896D01*
X004336Y-000247D02*
Y000676D01*
X0018Y-000247D02*
X004336D01*
X0018D02*
Y000676D01*
X004336*
X008636Y-000247D02*
Y000676D01*
X0061Y-000247D02*
X008636D01*
X0061D02*
Y000676D01*
X008636*
X000468Y000026D02*
X001468D01*
X000468Y000376D02*
X001468D01*
X000468Y000026D02*
Y000376D01*
X001468Y000026D02*
Y000376D01*
X004568Y000026D02*
X005568D01*
X004568Y000376D02*
X005568D01*
X004568Y000026D02*
Y000376D01*
X005568Y000026D02*
Y000376D01*
X0093Y-000067D02*
X0103D01*
X0093Y000281D02*
X0103D01*
X0093Y-000067D02*
Y000281D01*
X0103Y-000067D02*
Y000281D01*
X002082Y004134D02*
X002434D01*
X002082Y003154D02*
Y004134D01*
Y003154D02*
X003591D01*
Y004134*
X002434D02*
X003591D01*
X003602Y003154D02*
Y004134D01*
Y003154D02*
X006511D01*
Y004134*
X003602D02*
X006511D01*
X006522Y003154D02*
Y004134D01*
Y003154D02*
X009432D01*
Y004134*
X006522D02*
X009432D01*
X009447Y003154D02*
Y004134D01*
Y003154D02*
X012357D01*
Y004134*
X009447D02*
X012357D01*
X008945Y000906D02*
Y002896D01*
X008405Y000906D02*
X008945D01*
X008405Y002896D02*
X008945D01*
X008405D02*
Y000906D01*
X001079Y003202D02*
X001145Y003102D01*
Y003202D02*
X001079Y003102D01*
X001179D02*
X001212D01*
X001195*
Y003202*
X001179Y003186*
X001312Y003102D02*
Y003202D01*
X001262Y003152*
X001329*
X-000418Y003202D02*
X-000351Y003102D01*
Y003202D02*
X-000418Y003102D01*
X-000318D02*
X-000285D01*
X-000301*
Y003202*
X-000318Y003186*
X-000168Y003102D02*
X-000235D01*
X-000168Y003169*
Y003186*
X-000185Y003202*
X-000218*
X-000235Y003186*
X-001919Y003202D02*
X-001852Y003102D01*
Y003202D02*
X-001919Y003102D01*
X-001819D02*
X-001786D01*
X-001802*
Y003202*
X-001819Y003186*
X-001736Y003102D02*
X-001702D01*
X-001719*
Y003202*
X-001736Y003186*
X-00342Y003202D02*
X-003354Y003102D01*
Y003202D02*
X-00342Y003102D01*
X-00332D02*
X-003287D01*
X-003304*
Y003202*
X-00332Y003186*
X-003237D02*
X-00322Y003202D01*
X-003187*
X-00317Y003186*
Y003119*
X-003187Y003102*
X-00322*
X-003237Y003119*
Y003186*
X010844Y003109D02*
X010911Y003009D01*
Y003109D02*
X010844Y003009D01*
X010944Y003092D02*
X010961Y003109D01*
X010994*
X011011Y003092*
Y003076*
X010994Y003059*
X011011Y003042*
Y003026*
X010994Y003009*
X010961*
X010944Y003026*
Y003042*
X010961Y003059*
X010944Y003076*
Y003092*
X010961Y003059D02*
X010994D01*
X007944Y003109D02*
X008011Y003009D01*
Y003109D02*
X007944Y003009D01*
X008044Y003109D02*
X008111D01*
Y003092*
X008044Y003026*
Y003009*
X000319Y000084D02*
X000402D01*
X000419Y000101*
Y000134*
X000402Y000151*
X000319*
X000419Y000251D02*
Y000184D01*
X000352Y000251*
X000336*
X000319Y000234*
Y000201*
X000336Y000184*
X000419Y000351D02*
Y000284D01*
X000352Y000351*
X000336*
X000319Y000334*
Y000301*
X000336Y000284*
X009162Y-000039D02*
X009245D01*
X009261Y-000022*
Y000009*
X009245Y000026*
X009162*
X009261Y000059D02*
Y000092D01*
Y000076*
X009162*
X009178Y000059*
X009245Y000142D02*
X009261Y000159D01*
Y000192*
X009245Y000209*
X009178*
X009162Y000192*
Y000159*
X009178Y000142*
X009195*
X009212Y000159*
Y000209*
X004429Y000064D02*
X004512D01*
X004529Y000081*
Y000114*
X004512Y000131*
X004429*
X004529Y000164D02*
Y000197D01*
Y000181*
X004429*
X004446Y000164*
X004429Y000247D02*
Y000314D01*
X004446*
X004512Y000247*
X004529*
X001385Y000861D02*
Y000762D01*
Y000794*
X001452Y000861*
X001402Y000811*
X001452Y000762*
X001485D02*
X001518D01*
X001502*
Y000861*
X001485Y000844*
X001568D02*
X001585Y000861D01*
X001618*
X001635Y000844*
Y000827*
X001618Y000811*
X001635Y000794*
Y000777*
X001618Y000762*
X001585*
X001568Y000777*
Y000794*
X001585Y000811*
X001568Y000827*
Y000844*
X001585Y000811D02*
X001618D01*
X-000312Y000861D02*
Y000762D01*
Y000794*
X-000246Y000861*
X-000296Y000811*
X-000246Y000762*
X-000212D02*
X-000179D01*
X-000196*
Y000861*
X-000212Y000844*
X-000129Y000861D02*
X-000062D01*
Y000844*
X-000129Y000777*
Y000762*
X-002014Y000861D02*
Y000762D01*
Y000794*
X-001947Y000861*
X-001997Y000811*
X-001947Y000762*
X-001914D02*
X-001881D01*
X-001898*
Y000861*
X-001914Y000844*
X-001764Y000861D02*
X-001798Y000844D01*
X-001831Y000811*
Y000777*
X-001814Y000762*
X-001781*
X-001764Y000777*
Y000794*
X-001781Y000811*
X-001831*
X-003713Y000861D02*
Y000762D01*
Y000794*
X-003647Y000861*
X-003697Y000811*
X-003647Y000762*
X-003613D02*
X-00358D01*
X-003597*
Y000861*
X-003613Y000844*
X-003463Y000861D02*
X-00353D01*
Y000811*
X-003497Y000827*
X-00348*
X-003463Y000811*
Y000777*
X-00348Y000762*
X-003513*
X-00353Y000777*
X00309Y000855D02*
Y000755D01*
Y000789*
X003156Y000855*
X003106Y000805*
X003156Y000755*
X00319D02*
X003223D01*
X003206*
Y000855*
X00319Y000839*
X003323Y000755D02*
Y000855D01*
X003273Y000805*
X00334*
X003778Y000855D02*
Y000755D01*
Y000789*
X003844Y000855*
X003794Y000805*
X003844Y000755*
X003878D02*
X003911D01*
X003894*
Y000855*
X003878Y000839*
X003961D02*
X003977Y000855D01*
X004011*
X004027Y000839*
Y000822*
X004011Y000805*
X003994*
X004011*
X004027Y000789*
Y000772*
X004011Y000755*
X003977*
X003961Y000772*
X004468Y000855D02*
Y000755D01*
Y000789*
X004535Y000855*
X004485Y000805*
X004535Y000755*
X004568D02*
X004601D01*
X004585*
Y000855*
X004568Y000839*
X004718Y000755D02*
X004651D01*
X004718Y000822*
Y000839*
X004701Y000855*
X004668*
X004651Y000839*
X005156Y000855D02*
Y000755D01*
Y000789*
X005223Y000855*
X005173Y000805*
X005223Y000755*
X005256D02*
X005289D01*
X005273*
Y000855*
X005256Y000839*
X005339Y000755D02*
X005373D01*
X005356*
Y000855*
X005339Y000839*
X005844Y000855D02*
Y000755D01*
Y000789*
X00591Y000855*
X00586Y000805*
X00591Y000755*
X005944D02*
X005977D01*
X00596*
Y000855*
X005944Y000839*
X006027D02*
X006044Y000855D01*
X006077*
X006094Y000839*
Y000772*
X006077Y000755*
X006044*
X006027Y000772*
Y000839*
X006532Y000855D02*
Y000755D01*
Y000789*
X006598Y000855*
X006548Y000805*
X006598Y000755*
X006632Y000772D02*
X006648Y000755D01*
X006682*
X006698Y000772*
Y000839*
X006682Y000855*
X006648*
X006632Y000839*
Y000822*
X006648Y000805*
X006698*
X007222Y000855D02*
Y000755D01*
Y000789*
X007289Y000855*
X007239Y000805*
X007289Y000755*
X007322Y000839D02*
X007339Y000855D01*
X007372*
X007389Y000839*
Y000822*
X007372Y000805*
X007389Y000789*
Y000772*
X007372Y000755*
X007339*
X007322Y000772*
Y000789*
X007339Y000805*
X007322Y000822*
Y000839*
X007339Y000805D02*
X007372D01*
X00791Y000855D02*
Y000755D01*
Y000789*
X007977Y000855*
X007927Y000805*
X007977Y000755*
X00801Y000855D02*
X008077D01*
Y000839*
X00801Y000772*
Y000755*
X009286Y000855D02*
Y000755D01*
Y000789*
X009352Y000855*
X009303Y000805*
X009352Y000755*
X009452Y000855D02*
X009386D01*
Y000805*
X009419Y000822*
X009436*
X009452Y000805*
Y000772*
X009436Y000755*
X009402*
X009386Y000772*
X009974Y000855D02*
Y000755D01*
Y000789*
X01004Y000855*
X00999Y000805*
X01004Y000755*
X010124D02*
Y000855D01*
X010074Y000805*
X01014*
X010664Y000855D02*
Y000755D01*
Y000789*
X010731Y000855*
X010681Y000805*
X010731Y000755*
X010764Y000839D02*
X010781Y000855D01*
X010814*
X010831Y000839*
Y000822*
X010814Y000805*
X010797*
X010814*
X010831Y000789*
Y000772*
X010814Y000755*
X010781*
X010764Y000772*
X011352Y000855D02*
Y000755D01*
Y000789*
X011419Y000855*
X011369Y000805*
X011419Y000755*
X011519D02*
X011452D01*
X011519Y000822*
Y000839*
X011502Y000855*
X011469*
X011452Y000839*
X01204Y000855D02*
Y000755D01*
Y000789*
X012107Y000855*
X012057Y000805*
X012107Y000755*
X01214D02*
X012173D01*
X012157*
Y000855*
X01214Y000839*
X002999Y-000399D02*
Y-000299D01*
X003049*
X003066Y-000316*
Y-000349*
X003049Y-000366*
X002999*
X003149Y-000399D02*
Y-000299D01*
X003099Y-000349*
X003166*
X007349Y-000399D02*
Y-000299D01*
X007399*
X007416Y-000316*
Y-000349*
X007399Y-000366*
X007349*
X007516Y-000299D02*
X007449D01*
Y-000349*
X007482Y-000332*
X007499*
X007516Y-000349*
Y-000382*
X007499Y-000399*
X007466*
X007449Y-000382*
X002744Y003109D02*
X002811Y003009D01*
Y003109D02*
X002744Y003009D01*
X002911D02*
X002844D01*
X002911Y003076*
Y003092*
X002894Y003109*
X002861*
X002844Y003092*
X003011Y003109D02*
X002944D01*
Y003059*
X002977Y003076*
X002994*
X003011Y003059*
Y003026*
X002994Y003009*
X002961*
X002944Y003026*
X005044Y003109D02*
X005111Y003009D01*
Y003109D02*
X005044Y003009D01*
X005211D02*
X005144D01*
X005211Y003076*
Y003092*
X005194Y003109*
X005161*
X005144Y003092*
X005311Y003109D02*
X005277Y003092D01*
X005244Y003059*
Y003026*
X005261Y003009*
X005294*
X005311Y003026*
Y003042*
X005294Y003059*
X005244*
X008598Y000855D02*
Y000755D01*
Y000789*
X008665Y000855*
X008615Y000805*
X008665Y000755*
X008765Y000855D02*
X008731Y000839D01*
X008698Y000805*
Y000772*
X008715Y000755*
X008748*
X008765Y000772*
Y000789*
X008748Y000805*
X008698*
G54D26*
X002015Y000031D02*
X002057D01*
X002036*
Y000158*
X002015Y000137*
X002079Y000311D02*
X001995D01*
X002079Y000396*
Y000417*
X002058Y000438*
X002016*
X001995Y000417*
X004041Y000021D02*
X004083D01*
X004062*
Y000148*
X004041Y000127*
X004146D02*
X004168Y000148D01*
X00421*
X004231Y000127*
Y000106*
X00421Y000085*
X004189*
X00421*
X004231Y000064*
Y000043*
X00421Y000021*
X004168*
X004146Y000043*
X004038Y000281D02*
X00408D01*
X004059*
Y000408*
X004038Y000387*
X004207Y000281D02*
Y000408D01*
X004144Y000345*
X004229*
X006315Y000031D02*
X006357D01*
X006336*
Y000158*
X006315Y000137*
X006379Y000311D02*
X006295D01*
X006379Y000396*
Y000417*
X006358Y000438*
X006316*
X006295Y000417*
X008341Y000021D02*
X008383D01*
X008362*
Y000148*
X008341Y000127*
X008446D02*
X008468Y000148D01*
X00851*
X008531Y000127*
Y000106*
X00851Y000085*
X008489*
X00851*
X008531Y000064*
Y000043*
X00851Y000021*
X008468*
X008446Y000043*
X008338Y000281D02*
X00838D01*
X008359*
Y000408*
X008338Y000387*
X008507Y000281D02*
Y000408D01*
X008444Y000345*
X008529*
M02*