G04 Layer_Physical_Order=2*
G04 Layer_Color=16750848*
%FSLAX25Y25*%
%MOIN*%
G70*
G01*
G75*
%ADD10C,0.01969*%
%ADD11C,0.01575*%
%ADD12C,0.01181*%
%ADD14C,0.01969*%
%ADD15R,0.05906X0.05906*%
%ADD16C,0.05906*%
%ADD17C,0.03937*%
%ADD18R,0.02362X0.06693*%
D10*
X-130712Y39587D02*
G03*
X-130483Y37185I4255J-807D01*
G01*
X-122202Y37972D02*
G03*
X-122126Y38780I-4255J807D01*
G01*
X-122202Y37972D02*
G03*
X-122126Y38780I-4255J807D01*
G01*
X-130712Y39587D02*
G03*
X-130483Y37185I4255J-807D01*
G01*
X-122126Y38780D02*
G03*
X-122202Y39587I-4331J0D01*
G01*
X-122126Y38780D02*
G03*
X-122202Y39587I-4331J0D01*
G01*
X-92222Y12972D02*
G03*
X-92146Y13780I-4255J807D01*
G01*
X-92222Y12972D02*
G03*
X-92146Y13780I-4255J807D01*
G01*
X-100731Y14587D02*
G03*
X-100503Y12185I4255J-807D01*
G01*
X-100731Y14587D02*
G03*
X-100503Y12185I4255J-807D01*
G01*
X-92146Y13780D02*
G03*
X-92222Y14587I-4331J0D01*
G01*
X-92146Y13780D02*
G03*
X-92222Y14587I-4331J0D01*
G01*
X-82202Y37972D02*
G03*
X-82126Y38780I-4255J807D01*
G01*
X-82202Y37972D02*
G03*
X-82126Y38780I-4255J807D01*
G01*
X-80712Y39587D02*
G03*
X-80712Y37972I4255J-807D01*
G01*
Y39587D02*
G03*
X-80712Y37972I4255J-807D01*
G01*
X-93060Y81417D02*
G03*
X-92480Y82074I-4420J4488D01*
G01*
X-92480D02*
G03*
X-91312Y80905I5000J3831D01*
G01*
X-90712Y39587D02*
G03*
X-90712Y37972I4255J-807D01*
G01*
Y39587D02*
G03*
X-90712Y37972I4255J-807D01*
G01*
X-91811Y67598D02*
G03*
X-90543Y64536I4331J0D01*
G01*
X-82126Y38780D02*
G03*
X-82202Y39587I-4331J0D01*
G01*
X-82126Y38780D02*
G03*
X-82202Y39587I-4331J0D01*
G01*
X-91811Y67598D02*
G03*
X-90543Y64536I4331J0D01*
G01*
X-91312Y80905D02*
G03*
X-91969Y80326I3831J-5000D01*
G01*
X-82480Y79737D02*
G03*
X-83649Y80905I-5000J-3831D01*
G01*
X-83150Y71331D02*
G03*
X-82480Y72074I-4331J4574D01*
G01*
X-83649Y80905D02*
G03*
X-82480Y82074I-3831J5000D01*
G01*
X-82480Y72074D02*
G03*
X-81811Y71331I5000J3831D01*
G01*
X-82480Y82074D02*
G03*
X-81312Y80905I5000J3831D01*
G01*
D02*
G03*
X-82480Y79737I3831J-5000D01*
G01*
X-130712Y198543D02*
G03*
X-130712Y196929I4255J-807D01*
G01*
X-122202D02*
G03*
X-122126Y197736I-4255J807D01*
G01*
X-122202Y196929D02*
G03*
X-122126Y197736I-4255J807D01*
G01*
X-130712Y198543D02*
G03*
X-130712Y196929I4255J-807D01*
G01*
X-122126Y197736D02*
G03*
X-122202Y198543I-4331J0D01*
G01*
X-122126Y197736D02*
G03*
X-122202Y198543I-4331J0D01*
G01*
X-100692Y224036D02*
G03*
X-100692Y222421I4255J-807D01*
G01*
Y224036D02*
G03*
X-100692Y222421I4255J-807D01*
G01*
X-92480Y89737D02*
G03*
X-101900Y81417I-5000J-3831D01*
G01*
X-82480Y89737D02*
G03*
X-92480Y89737I-5000J-3831D01*
G01*
X-72480D02*
G03*
X-82480Y89737I-5000J-3831D01*
G01*
X-90712Y198543D02*
G03*
X-90712Y196929I4255J-807D01*
G01*
X-92182Y222421D02*
G03*
X-92106Y223228I-4255J807D01*
G01*
X-92182Y222421D02*
G03*
X-92106Y223228I-4255J807D01*
G01*
D02*
G03*
X-92182Y224036I-4331J0D01*
G01*
X-92106Y223228D02*
G03*
X-92182Y224036I-4331J0D01*
G01*
X-90712Y198543D02*
G03*
X-90712Y196929I4255J-807D01*
G01*
X-82202D02*
G03*
X-82126Y197736I-4255J807D01*
G01*
X-82202Y196929D02*
G03*
X-82126Y197736I-4255J807D01*
G01*
D02*
G03*
X-82202Y198543I-4331J0D01*
G01*
X-82126Y197736D02*
G03*
X-82202Y198543I-4331J0D01*
G01*
X-80712D02*
G03*
X-80712Y196929I4255J-807D01*
G01*
Y198543D02*
G03*
X-80712Y196929I4255J-807D01*
G01*
X-72202Y37972D02*
G03*
X-72126Y38780I-4255J807D01*
G01*
X-72202Y37972D02*
G03*
X-72126Y38780I-4255J807D01*
G01*
D02*
G03*
X-72202Y39587I-4331J0D01*
G01*
X-72126Y38780D02*
G03*
X-72202Y39587I-4331J0D01*
G01*
X-52222Y12972D02*
G03*
X-52146Y13780I-4255J807D01*
G01*
X-52222Y12972D02*
G03*
X-52146Y13780I-4255J807D01*
G01*
X-60731Y14587D02*
G03*
X-60731Y12972I4255J-807D01*
G01*
Y14587D02*
G03*
X-60731Y12972I4255J-807D01*
G01*
X-50731Y14587D02*
G03*
X-50731Y12972I4255J-807D01*
G01*
Y14587D02*
G03*
X-50731Y12972I4255J-807D01*
G01*
X-64233Y39587D02*
G03*
X-64354Y37972I5178J-1201D01*
G01*
X-52146Y13780D02*
G03*
X-52222Y14587I-4331J0D01*
G01*
X-52146Y13780D02*
G03*
X-52222Y14587I-4331J0D01*
G01*
X-42222Y12972D02*
G03*
X-42146Y13780I-4255J807D01*
G01*
X-42222Y12972D02*
G03*
X-42146Y13780I-4255J807D01*
G01*
D02*
G03*
X-42222Y14587I-4331J0D01*
G01*
X-42146Y13780D02*
G03*
X-42222Y14587I-4331J0D01*
G01*
X-72232Y71770D02*
G03*
X-73150Y70021I3275J-2833D01*
G01*
X-72232Y71770D02*
G03*
X-73150Y70021I3275J-2833D01*
G01*
Y71331D02*
G03*
X-72480Y72074I-4331J4574D01*
G01*
D02*
G03*
X-72232Y71770I5000J3831D01*
G01*
X-72480Y79737D02*
G03*
X-73649Y80905I-5000J-3831D01*
G01*
D02*
G03*
X-72480Y82074I-3831J5000D01*
G01*
X-71312Y80905D02*
G03*
X-72480Y79737I3831J-5000D01*
G01*
Y82074D02*
G03*
X-71312Y80905I5000J3831D01*
G01*
X-63150Y71331D02*
G03*
X-62480Y72074I-4331J4574D01*
G01*
D02*
G03*
X-62175Y71705I5000J3831D01*
G01*
X-62480Y79737D02*
G03*
X-63649Y80905I-5000J-3831D01*
G01*
D02*
G03*
X-62480Y82074I-3831J5000D01*
G01*
X-61312Y80905D02*
G03*
X-62480Y79737I3831J-5000D01*
G01*
Y82074D02*
G03*
X-61312Y80905I5000J3831D01*
G01*
X-51880Y57805D02*
G03*
X-53091Y54882I2923J-2923D01*
G01*
X-51875Y57809D02*
G03*
X-53091Y54882I2919J-2928D01*
G01*
X-54418Y67213D02*
G03*
X-53150Y70275I-3062J3062D01*
G01*
X-54418Y67213D02*
G03*
X-53150Y70275I-3062J3062D01*
G01*
Y71331D02*
G03*
X-52480Y72074I-4331J4574D01*
G01*
Y79737D02*
G03*
X-53649Y80905I-5000J-3831D01*
G01*
D02*
G03*
X-52480Y82074I-3831J5000D01*
G01*
D02*
G03*
X-51312Y80905I5000J3831D01*
G01*
X-52480Y72074D02*
G03*
X-42480Y72074I5000J3831D01*
G01*
X-51312Y80905D02*
G03*
X-52480Y79737I3831J-5000D01*
G01*
X-42480Y72074D02*
G03*
X-39681Y70003I5000J3831D01*
G01*
X-2221Y12972D02*
G03*
X-2146Y13780I-4255J807D01*
G01*
X-2221Y12972D02*
G03*
X-2146Y13780I-4255J807D01*
G01*
X-10731Y14587D02*
G03*
X-10731Y12972I4255J-807D01*
G01*
Y14587D02*
G03*
X-10731Y12972I4255J-807D01*
G01*
X-2146Y13780D02*
G03*
X-2221Y14587I-4331J0D01*
G01*
X-9888Y27972D02*
G03*
X-10134Y28886I-4089J-610D01*
G01*
X-9888Y27972D02*
G03*
X-10134Y28886I-4089J-610D01*
G01*
X-2146Y13780D02*
G03*
X-2221Y14587I-4331J0D01*
G01*
X-10134Y28886D02*
G03*
X-9449Y31496I-4630J2610D01*
G01*
X-29429Y32985D02*
G03*
X-25197Y38189I-1083J5204D01*
G01*
D02*
G03*
X-29429Y43393I-5315J0D01*
G01*
X-17224Y36207D02*
G03*
X-23819Y28155I-2461J-4711D01*
G01*
X-9449Y31496D02*
G03*
X-17224Y36207I-5315J0D01*
G01*
X-24148Y65478D02*
G03*
X-22933Y68405I-2919J2928D01*
G01*
X-24144Y65482D02*
G03*
X-22933Y68405I-2923J2923D01*
G01*
Y80315D02*
G03*
X-24144Y83238I-4134J0D01*
G01*
X-22933Y80315D02*
G03*
X-24148Y83242I-4134J0D01*
G01*
X-62480Y89737D02*
G03*
X-72480Y89737I-5000J-3831D01*
G01*
X-72202Y196929D02*
G03*
X-72126Y197736I-4255J807D01*
G01*
X-72202Y196929D02*
G03*
X-72126Y197736I-4255J807D01*
G01*
X-52480Y89737D02*
G03*
X-62480Y89737I-5000J-3831D01*
G01*
X-72126Y197736D02*
G03*
X-72202Y198543I-4331J0D01*
G01*
X-72126Y197736D02*
G03*
X-72202Y198543I-4331J0D01*
G01*
X-52182Y222421D02*
G03*
X-52106Y223228I-4255J807D01*
G01*
X-52182Y222421D02*
G03*
X-52106Y223228I-4255J807D01*
G01*
X-60692Y224036D02*
G03*
X-60692Y222421I4255J-807D01*
G01*
Y224036D02*
G03*
X-60692Y222421I4255J-807D01*
G01*
X-52106Y223228D02*
G03*
X-52182Y224036I-4331J0D01*
G01*
X-50692D02*
G03*
X-50692Y222421I4255J-807D01*
G01*
X-52106Y223228D02*
G03*
X-52182Y224036I-4331J0D01*
G01*
X-50692D02*
G03*
X-50692Y222421I4255J-807D01*
G01*
X-42480Y89737D02*
G03*
X-52480Y89737I-5000J-3831D01*
G01*
X-32355Y89567D02*
G03*
X-42480Y89737I-5126J-3661D01*
G01*
X-29262Y88356D02*
G03*
X-32185Y89567I-2923J-2923D01*
G01*
X-40712Y198543D02*
G03*
X-40712Y196929I4255J-807D01*
G01*
X-32202D02*
G03*
X-32126Y197736I-4255J807D01*
G01*
X-32202Y196929D02*
G03*
X-32126Y197736I-4255J807D01*
G01*
X-40712Y198543D02*
G03*
X-40712Y196929I4255J-807D01*
G01*
X-32126Y197736D02*
G03*
X-32202Y198543I-4331J0D01*
G01*
X-32126Y197736D02*
G03*
X-32202Y198543I-4331J0D01*
G01*
X-29258Y88352D02*
G03*
X-32185Y89567I-2928J-2919D01*
G01*
X-42182Y222421D02*
G03*
X-42106Y223228I-4255J807D01*
G01*
X-42182Y222421D02*
G03*
X-42106Y223228I-4255J807D01*
G01*
D02*
G03*
X-42182Y224036I-4331J0D01*
G01*
X-42106Y223228D02*
G03*
X-42182Y224036I-4331J0D01*
G01*
X-10692D02*
G03*
X-10692Y222421I4255J-807D01*
G01*
X-2182D02*
G03*
X-2106Y223228I-4255J807D01*
G01*
X-2182Y222421D02*
G03*
X-2106Y223228I-4255J807D01*
G01*
X-10692Y224036D02*
G03*
X-10692Y222421I4255J-807D01*
G01*
X-2106Y223228D02*
G03*
X-2182Y224036I-4331J0D01*
G01*
X-2106Y223228D02*
G03*
X-2182Y224036I-4331J0D01*
G01*
X-59055Y38386D02*
X-58957Y38484D01*
Y46279D01*
X-54134Y38386D02*
X-53957Y38563D01*
Y46279D01*
X-43957Y31280D02*
Y38150D01*
X-73957Y46279D02*
Y62146D01*
X-77480Y65669D02*
X-73957Y62146D01*
X-77480Y65669D02*
Y75906D01*
X-78957Y46279D02*
Y59075D01*
X-87480Y67598D02*
X-78957Y59075D01*
X-87480Y67598D02*
Y75906D01*
X-57480Y70275D02*
Y75906D01*
X-63957Y63799D02*
X-57480Y70275D01*
X-63957Y46279D02*
Y63799D01*
X-67480Y70413D02*
Y75906D01*
X-68957Y68937D02*
X-67480Y70413D01*
X-68957Y46279D02*
Y68937D01*
X-110020Y6279D02*
X-98976D01*
X-128957Y25217D02*
X-110020Y6279D01*
X-128957Y25217D02*
Y31280D01*
X-48957D02*
Y38386D01*
X-133051Y31280D02*
X-128957D01*
X-134449Y32677D02*
X-133051Y31280D01*
X-134449Y32677D02*
Y53740D01*
X-127362Y60827D01*
X-127839Y1969D02*
Y24587D01*
X-135827Y24842D02*
X-128484D01*
X-123902Y1969D02*
Y24587D01*
X-125871Y1969D02*
Y24587D01*
X-131776Y1969D02*
Y25374D01*
X-132697D02*
Y37185D01*
X-129808Y1969D02*
Y25374D01*
X-128484Y24587D02*
Y25374D01*
X-135827Y16968D02*
X-103504D01*
X-135827Y18937D02*
X-103504D01*
X-135827Y5157D02*
X-102717D01*
X-135827Y15000D02*
X-103504D01*
X-135827Y20905D02*
X-103504D01*
X-135827Y22874D02*
X-103504D01*
X-123484Y24587D02*
X-119429D01*
X-128484D02*
X-123484D01*
X-119429D01*
X-135827Y30748D02*
X-132697D01*
X-135827Y32716D02*
X-132697D01*
X-135827Y26811D02*
X-132697D01*
X-135827Y28779D02*
X-132697D01*
X-135827Y34685D02*
X-132697D01*
X-135827Y36653D02*
X-132697D01*
X-135827Y38622D02*
X-130785D01*
X-132697Y25374D02*
X-128484D01*
X-132697Y37185D02*
X-130483D01*
X-122202Y39587D02*
X-119429D01*
X-122202D02*
X-119429D01*
X-122202Y37972D02*
X-119429D01*
X-122202D02*
X-119429D01*
X-118484Y24587D02*
X-114429D01*
X-118484D02*
X-114429D01*
X-114060Y1969D02*
Y24587D01*
X-116028Y1969D02*
Y24587D01*
X-119965Y1969D02*
Y24587D01*
X-121934Y1969D02*
Y24587D01*
X-117997Y1969D02*
Y24587D01*
X-119429D02*
X-118484D01*
X-106186Y1969D02*
Y24587D01*
X-108154Y1969D02*
Y24587D01*
X-104217Y1969D02*
Y24587D01*
X-103504Y14587D02*
Y24587D01*
X-113484D02*
X-109429D01*
X-114429D02*
X-113484D01*
X-110123Y1969D02*
Y24587D01*
X-112091Y1969D02*
Y24587D01*
X-113484D02*
X-109429D01*
X-118484Y37972D02*
X-114429D01*
X-119429D02*
X-118484D01*
X-109429Y24587D02*
X-108484D01*
X-118484Y37972D02*
X-114429D01*
X-113484D01*
X-109429D02*
X-108484D01*
X-113484D02*
X-109429D01*
X-113484D02*
X-109429D01*
X-108484Y24587D02*
X-104429D01*
X-108484Y37972D02*
X-104429D01*
Y24587D02*
X-103504D01*
X-108484D02*
X-104429D01*
X-108484Y37972D02*
X-104429D01*
X-108484Y39587D02*
X-104429D01*
X-108154Y37972D02*
Y39587D01*
X-104429D02*
X-103484D01*
X-104429Y37972D02*
X-103484D01*
X-135827Y48464D02*
X-133484D01*
X-135827Y50433D02*
X-133484D01*
X-135827Y40590D02*
X-133484D01*
X-135827Y46496D02*
X-133484D01*
X-135713Y1969D02*
Y234252D01*
X-135827Y1969D02*
Y234252D01*
X-133745Y1969D02*
Y234252D01*
X-133484Y39587D02*
Y52972D01*
X-131776Y37185D02*
Y39587D01*
X-133484D02*
X-130712D01*
X-135827Y42559D02*
X-133484D01*
X-135827Y44527D02*
X-133484D01*
X-119965Y37972D02*
Y39587D01*
X-121934Y37972D02*
Y39587D01*
X-135827Y52401D02*
X-133484D01*
Y52972D02*
X-128484D01*
X-124429D01*
X-128484D02*
X-124429D01*
X-129808D02*
Y183543D01*
X-131776Y52972D02*
Y183543D01*
X-123902Y52972D02*
Y183543D01*
X-127839Y52972D02*
Y183543D01*
X-125871Y52972D02*
Y183543D01*
X-124429Y52972D02*
X-123484D01*
X-135827Y72086D02*
X-102992D01*
X-123484Y52972D02*
X-119429D01*
X-123484D02*
X-119429D01*
X-135827Y74055D02*
X-102992D01*
X-135827Y76023D02*
X-102992D01*
X-121934Y52972D02*
Y183543D01*
X-135827Y79960D02*
X-102992D01*
X-135827Y77992D02*
X-102992D01*
X-118484Y39587D02*
X-114429D01*
X-119429D02*
X-118484D01*
X-116028Y37972D02*
Y39587D01*
X-117997Y37972D02*
Y39587D01*
X-118484D02*
X-114429D01*
X-118484Y52972D02*
X-114429D01*
X-114060Y37972D02*
Y39587D01*
X-117997Y52972D02*
Y183543D01*
X-108484Y39587D02*
X-104429D01*
X-109429D02*
X-108484D01*
X-104217Y37972D02*
Y39587D01*
X-106186Y37972D02*
Y39587D01*
X-113484D02*
X-109429D01*
X-114429D02*
X-113484D01*
X-110123Y37972D02*
Y39587D01*
X-112091Y37972D02*
Y39587D01*
X-113484D02*
X-109429D01*
X-118484Y52972D02*
X-114429D01*
X-119429D02*
X-118484D01*
X-113484D02*
X-109429D01*
X-114429D02*
X-113484D01*
X-116028D02*
Y183543D01*
X-119965Y52972D02*
Y183543D01*
X-110123Y52972D02*
Y183543D01*
X-114060Y52972D02*
Y183543D01*
X-112091Y52972D02*
Y183543D01*
X-109429Y52972D02*
X-108484D01*
X-113484D02*
X-109429D01*
X-108484D02*
X-104429D01*
X-108484D02*
X-104429D01*
X-106186D02*
Y183543D01*
X-108154Y52972D02*
Y183543D01*
X-104429Y52972D02*
X-103484D01*
X-104217D02*
Y183543D01*
X-102992Y70394D02*
Y81417D01*
X-135827Y7126D02*
X-102717D01*
X-135827Y9094D02*
X-102717D01*
X-135827Y1969D02*
X-102717D01*
X-135827Y3189D02*
X-102717D01*
X-135827Y11063D02*
X-102717D01*
X-135827Y13031D02*
X-100742D01*
X-102717Y1969D02*
Y12185D01*
X-102249D02*
Y14587D01*
X-102717Y12185D02*
X-100503D01*
X-92222Y14587D02*
X-89449D01*
X-103504D02*
X-100731D01*
X-103484Y37972D02*
X-99429D01*
X-98484D01*
X-103484D02*
X-99429D01*
X-100280D02*
Y39587D01*
X-103484D02*
X-99429D01*
X-96343Y37972D02*
Y39587D01*
X-99429D02*
X-98484D01*
X-98312Y37972D02*
Y39587D01*
X-98484Y37972D02*
X-94429D01*
X-98484D02*
X-94429D01*
X-92222Y14587D02*
X-89449D01*
X-94429Y37972D02*
X-93484D01*
X-122129Y38622D02*
X-90785D01*
X-98484Y39587D02*
X-94429D01*
X-93484Y37972D02*
X-90712D01*
X-93484Y39587D02*
X-90712D01*
X-93484Y37972D02*
X-90712D01*
X-92222Y12972D02*
X-89449D01*
X-92222Y12972D02*
X-89449D01*
X-88504Y12972D02*
X-84449D01*
X-89449D02*
X-88504D01*
X-88469Y12972D02*
Y14587D01*
X-90438Y12972D02*
Y14587D01*
X-84532Y12972D02*
Y14587D01*
X-86501Y12972D02*
Y14587D01*
X-83504Y12972D02*
X-79449D01*
X-88504D02*
X-83504D01*
X-78504D02*
X-74449D01*
X-83504D02*
X-79449D01*
X-80595D02*
Y14587D01*
X-82564Y12972D02*
Y14587D01*
X-78504Y12972D02*
X-74449D01*
X-78627D02*
Y14587D01*
X-79449Y12972D02*
X-78504D01*
X-88504Y14587D02*
X-83504D01*
X-89449Y14587D02*
X-88504D01*
X-84449D01*
X-82129Y38622D02*
X-80785D01*
X-82202Y39587D02*
X-80712D01*
X-82202D02*
X-80712D01*
X-92211Y13031D02*
X-60742D01*
X-83504Y14587D02*
X-79449D01*
X-78504D01*
X-83504D02*
X-79449D01*
X-82202Y37972D02*
X-80712D01*
X-82202D02*
X-80712D01*
X-78504Y14587D02*
X-74449D01*
X-78504D02*
X-74449D01*
X-103484Y39587D02*
X-99429D01*
X-103484Y52972D02*
X-99429D01*
X-102249Y37972D02*
Y39587D01*
X-103484Y52972D02*
X-99429D01*
X-100280D02*
Y70394D01*
X-102249Y52972D02*
Y70394D01*
X-98484Y52972D02*
X-94429D01*
X-99429D02*
X-98484D01*
X-94429Y39587D02*
X-93484D01*
X-98484D02*
X-94429D01*
X-94375Y37972D02*
Y39587D01*
X-93484D02*
X-90712D01*
X-94429Y52972D02*
X-93484D01*
X-98484D02*
X-94429D01*
X-93484D02*
X-89429D01*
X-94375D02*
Y70394D01*
X-93484Y52972D02*
X-89429D01*
X-135827Y68149D02*
X-91811D01*
X-102992Y70394D02*
X-91969D01*
X-96343Y52972D02*
Y70394D01*
X-98312Y52972D02*
Y70394D01*
X-102249Y81417D02*
Y81789D01*
X-102992Y81417D02*
X-101900D01*
X-135827Y58307D02*
X-84313D01*
X-135827Y60275D02*
X-86282D01*
X-135827Y54370D02*
X-83288D01*
X-135827Y56338D02*
X-83288D01*
X-135827Y62244D02*
X-88250D01*
X-135827Y64212D02*
X-90219D01*
X-135827Y66181D02*
X-91572D01*
X-135827Y70118D02*
X-91811D01*
X-92406Y37972D02*
Y39587D01*
X-89429Y52972D02*
X-88484D01*
X-92406D02*
Y70394D01*
X-88469Y52972D02*
Y62463D01*
X-90438Y52972D02*
Y64432D01*
X-88484Y52972D02*
X-84429D01*
X-88484D02*
X-84429D01*
X-86501D02*
Y60495D01*
X-90543Y64536D02*
X-83288Y57281D01*
Y52972D02*
Y57281D01*
X-84532Y52972D02*
Y58526D01*
X-84429Y52972D02*
X-83484D01*
X-91969Y70394D02*
Y71486D01*
X-91811Y67598D02*
Y71331D01*
X-83150Y69392D02*
Y71331D01*
X-91969Y80326D02*
Y81417D01*
X-82564Y68807D02*
Y71967D01*
Y79844D02*
Y81967D01*
X-83150Y69392D02*
X-81811Y68054D01*
X-83150Y70118D02*
X-81811D01*
Y68054D02*
Y71331D01*
X-82660Y79960D02*
X-82301D01*
X-133484Y183543D02*
X-128484D01*
X-135827Y184291D02*
X-133484D01*
X-128484Y183543D02*
X-124429D01*
X-128484D02*
X-124429D01*
X-135827Y186259D02*
X-133484D01*
X-135827Y188228D02*
X-133484D01*
Y183543D02*
Y196929D01*
X-135827Y190196D02*
X-133484D01*
X-135827Y85866D02*
X-103779D01*
X-135827Y87834D02*
X-103477D01*
X-135827Y81929D02*
X-102366D01*
X-135827Y83897D02*
X-103451D01*
X-135827Y89803D02*
X-102429D01*
X-135827Y91771D02*
X-99777D01*
X-123484Y183543D02*
X-119429D01*
X-124429D02*
X-123484D01*
X-119429D01*
X-135827Y192165D02*
X-133484D01*
X-135827Y194133D02*
X-133484D01*
X-135827Y196102D02*
X-133484D01*
Y196929D02*
X-130712D01*
X-135827Y198070D02*
X-130774D01*
X-133484Y198543D02*
X-130712D01*
X-131776Y196929D02*
Y198543D01*
X-122202Y196929D02*
X-119429D01*
X-122202D02*
X-119429D01*
X-122202Y198543D02*
X-119429D01*
X-122202D02*
X-119429D01*
X-118484Y183543D02*
X-114429D01*
X-119429D02*
X-118484D01*
X-114429D02*
X-113484D01*
X-118484D02*
X-114429D01*
X-119965Y196929D02*
Y198543D01*
X-121934Y196929D02*
Y198543D01*
X-114429Y196929D02*
X-113484D01*
X-116028D02*
Y198543D01*
X-103484Y183543D02*
X-99429D01*
X-104429D02*
X-103484D01*
X-102249Y90022D02*
Y183543D01*
X-100280Y91548D02*
Y183543D01*
X-113484D02*
X-109429D01*
X-113484D02*
X-109429D01*
X-108484D02*
X-104429D01*
X-109429D02*
X-108484D01*
X-104429D01*
X-118484Y196929D02*
X-114429D01*
X-119429D02*
X-118484D01*
X-113484D02*
X-109429D01*
X-118484D02*
X-114429D01*
X-118484Y198543D02*
X-114429D01*
X-119429D02*
X-118484D01*
X-114060Y196929D02*
Y198543D01*
X-117997Y196929D02*
Y198543D01*
X-118484D02*
X-114429D01*
X-109429Y196929D02*
X-108484D01*
X-113484D02*
X-109429D01*
X-108484D02*
X-104429D01*
X-108484D02*
X-104429D01*
X-103484D02*
X-99429D01*
X-104429D02*
X-103484D01*
X-100280D02*
Y198543D01*
X-102249Y196929D02*
Y198543D01*
X-103484D02*
X-99429D01*
X-135827Y203976D02*
X-133484D01*
X-135827Y205944D02*
X-133484D01*
X-135827Y200039D02*
X-133484D01*
X-135827Y202007D02*
X-133484D01*
X-135827Y207913D02*
X-133484D01*
X-135827Y209881D02*
X-133484D01*
Y198543D02*
Y211929D01*
X-135827Y211850D02*
X-133484D01*
X-128484Y211929D02*
X-124429D01*
X-133484D02*
X-128484D01*
X-123484D02*
X-119429D01*
X-128484D02*
X-124429D01*
X-121934D02*
Y234252D01*
X-123484Y211929D02*
X-119429D01*
X-118484D02*
X-114429D01*
X-119965D02*
Y234252D01*
X-119429Y211929D02*
X-118484D01*
X-135827Y215787D02*
X-103465D01*
X-135827Y217755D02*
X-103465D01*
X-124429Y211929D02*
X-123484D01*
X-135827Y213818D02*
X-103465D01*
X-129808Y211929D02*
Y234252D01*
X-131776Y211929D02*
Y234252D01*
X-123902Y211929D02*
Y234252D01*
X-127839Y211929D02*
Y234252D01*
X-125871Y211929D02*
Y234252D01*
X-135827Y223661D02*
X-100746D01*
X-135827Y225629D02*
X-103465D01*
X-135827Y219724D02*
X-103465D01*
X-135827Y221692D02*
X-103465D01*
X-135827Y233503D02*
X-103465D01*
X-135827Y234252D02*
X-103465D01*
X-135827Y227598D02*
X-103465D01*
X-135827Y231535D02*
X-103465D01*
X-135827Y229566D02*
X-103465D01*
X-114429Y198543D02*
X-113484D01*
X-118484Y211929D02*
X-114429D01*
X-110123Y196929D02*
Y198543D01*
X-112091Y196929D02*
Y198543D01*
X-116028Y211929D02*
Y234252D01*
X-117997Y211929D02*
Y234252D01*
X-110123Y211929D02*
Y234252D01*
X-112091Y211929D02*
Y234252D01*
X-108484Y198543D02*
X-104429D01*
X-108484D02*
X-104429D01*
X-104217Y196929D02*
Y198543D01*
X-104429D02*
X-103484D01*
X-113484D02*
X-109429D01*
X-113484D02*
X-109429D01*
X-106186Y196929D02*
Y198543D01*
X-109429D02*
X-108484D01*
X-108154Y196929D02*
Y198543D01*
X-113484Y211929D02*
X-109429D01*
X-114429D02*
X-113484D01*
X-109429D02*
X-108484D01*
X-113484D02*
X-109429D01*
X-108484D02*
X-104429D01*
X-114060D02*
Y234252D01*
X-106186Y211929D02*
Y234252D01*
X-108154Y211929D02*
Y234252D01*
X-108484Y211929D02*
X-104429D01*
X-103484D01*
X-103465Y222421D02*
X-100692D01*
X-103465Y211929D02*
Y222421D01*
X-102249D02*
Y224036D01*
X-104217Y211929D02*
Y234252D01*
X-103465Y224036D02*
X-100692D01*
X-103465D02*
Y234252D01*
X-135827Y115393D02*
X-1969D01*
X-135827Y117362D02*
X-1969D01*
X-135827Y111456D02*
X-1969D01*
X-135827Y113425D02*
X-1969D01*
X-135827Y123267D02*
X-1969D01*
X-135827Y125236D02*
X-1969D01*
X-135827Y119330D02*
X-1969D01*
X-135827Y121299D02*
X-1969D01*
X-135827Y97677D02*
X-1969D01*
X-135827Y99645D02*
X-1969D01*
X-135827Y93740D02*
X-1969D01*
X-135827Y95708D02*
X-1969D01*
X-135827Y107519D02*
X-1969D01*
X-135827Y109488D02*
X-1969D01*
X-135827Y101614D02*
X-1969D01*
X-135827Y105551D02*
X-1969D01*
X-135827Y103582D02*
X-1969D01*
X-135827Y148858D02*
X-1969D01*
X-135827Y150826D02*
X-1969D01*
X-135827Y144921D02*
X-1969D01*
X-135827Y146889D02*
X-1969D01*
X-135827Y172480D02*
X-1969D01*
X-135827Y174448D02*
X-1969D01*
X-135827Y152795D02*
X-1969D01*
X-135827Y170511D02*
X-1969D01*
X-135827Y154763D02*
X-1969D01*
X-135827Y131141D02*
X-1969D01*
X-135827Y133110D02*
X-1969D01*
X-135827Y127204D02*
X-1969D01*
X-135827Y129173D02*
X-1969D01*
X-135827Y140984D02*
X-1969D01*
X-135827Y142952D02*
X-1969D01*
X-135827Y135078D02*
X-1969D01*
X-135827Y139015D02*
X-1969D01*
X-135827Y137047D02*
X-1969D01*
X-95184Y91771D02*
X-89777D01*
X-92406Y81417D02*
Y81979D01*
X-93060Y81417D02*
X-91969D01*
X-92406Y89832D02*
Y183543D01*
X-96343Y92101D02*
Y183543D01*
X-90438Y91467D02*
Y183543D01*
X-88469Y92127D02*
Y183543D01*
X-135827Y156732D02*
X-1969D01*
X-85184Y91771D02*
X-79777D01*
X-135827Y158700D02*
X-1969D01*
X-135827Y160669D02*
X-1969D01*
X-82564Y89844D02*
Y183543D01*
X-86501Y92128D02*
Y183543D01*
X-84532Y91472D02*
Y183543D01*
X-88484D02*
X-84429D01*
X-88484D02*
X-84429D01*
X-83484D02*
X-79429D01*
X-84429D02*
X-83484D01*
X-94429D02*
X-93484D01*
X-98484D02*
X-94429D01*
X-89429D02*
X-88484D01*
X-93484D02*
X-89429D01*
X-93484D02*
X-89429D01*
X-135827Y166574D02*
X-1969D01*
X-135827Y168543D02*
X-1969D01*
X-135827Y162637D02*
X-1969D01*
X-135827Y164606D02*
X-1969D01*
X-135827Y176417D02*
X-1969D01*
X-135827Y178385D02*
X-1969D01*
X-135827Y180354D02*
X-1969D01*
X-83484Y183543D02*
X-79429D01*
X-135827Y182322D02*
X-1969D01*
X-99429Y183543D02*
X-98484D01*
X-103484D02*
X-99429D01*
X-98312Y92150D02*
Y183543D01*
X-98484D02*
X-94429D01*
X-99429Y196929D02*
X-98484D01*
X-103484D02*
X-99429D01*
X-96343D02*
Y198543D01*
X-98312Y196929D02*
Y198543D01*
X-98484Y196929D02*
X-94429D01*
X-98484D02*
X-94429D01*
X-94375Y91386D02*
Y183543D01*
X-94429Y196929D02*
X-93484D01*
X-90712D01*
X-94375D02*
Y198543D01*
X-92406Y196929D02*
Y198543D01*
X-93484Y196929D02*
X-90712D01*
X-99429Y198543D02*
X-98484D01*
X-103484D02*
X-99429D01*
X-98484D02*
X-94429D01*
X-98484D02*
X-94429D01*
X-93484D01*
X-122139Y198070D02*
X-90775D01*
X-93484Y198543D02*
X-90712D01*
X-93484D02*
X-90712D01*
X-92182Y222421D02*
X-89410D01*
X-92182D02*
X-89410D01*
X-92128Y223661D02*
X-60746D01*
X-92182Y224036D02*
X-89410D01*
X-92182D02*
X-89410D01*
X-82139Y198070D02*
X-80774D01*
X-86501Y222421D02*
Y224036D01*
X-88465Y222421D02*
X-84409D01*
X-83465D01*
X-80595Y91381D02*
Y183543D01*
X-82202Y196929D02*
X-80712D01*
X-78627Y92099D02*
Y183543D01*
X-79429D02*
X-78484D01*
X-82202Y198543D02*
X-80712D01*
X-82202D02*
X-80712D01*
X-82202Y196929D02*
X-80712D01*
X-90438Y222421D02*
Y224036D01*
X-89410D02*
X-88465D01*
Y222421D02*
X-84409D01*
X-89410D02*
X-88465D01*
X-88469D02*
Y224036D01*
X-88465D02*
X-84409D01*
X-84532Y222421D02*
Y224036D01*
X-88465D02*
X-84409D01*
X-83465D01*
Y222421D02*
X-79409D01*
X-83465D02*
X-79409D01*
X-78465D01*
X-82564D02*
Y224036D01*
X-83465D02*
X-79409D01*
X-83465D02*
X-79409D01*
X-80595Y222421D02*
Y224036D01*
X-78627Y222421D02*
Y224036D01*
X-79409D02*
X-78465D01*
X-76658Y12972D02*
Y14587D01*
X-74449D02*
X-73504D01*
Y12972D02*
X-69449D01*
X-74449D02*
X-73504D01*
X-74690D02*
Y14587D01*
X-73504D02*
X-69449D01*
X-70753Y12972D02*
Y14587D01*
X-72721Y12972D02*
Y14587D01*
X-69449Y12972D02*
X-64449D01*
X-73504D02*
X-69449D01*
X-64449Y12972D02*
X-63504D01*
X-68504D02*
X-64449D01*
X-69449Y14587D02*
X-64449D01*
X-73504D02*
X-69449D01*
X-64847Y12972D02*
Y14587D01*
X-68784Y12972D02*
Y14587D01*
X-66816Y12972D02*
Y14587D01*
X-72202Y37972D02*
X-69429D01*
X-72202D02*
X-69429D01*
X-70753D02*
Y39587D01*
X-72202D02*
X-69429D01*
X-68504Y14587D02*
X-64449D01*
X-69429Y37972D02*
X-68484D01*
X-64429D01*
X-68484D02*
X-64429D01*
X-72129Y38622D02*
X-64365D01*
X-72202Y39587D02*
X-69429D01*
X-68784Y37972D02*
Y39587D01*
X-69429D02*
X-68484D01*
X-64429D01*
X-63504Y12972D02*
X-60731D01*
X-63504Y12972D02*
X-60731D01*
X-51068D02*
Y14587D01*
X-52222Y12972D02*
X-50731D01*
X-52222D02*
X-50731D01*
X-39449Y12972D02*
X-38504D01*
X-42222D02*
X-39449D01*
X-42222Y12972D02*
X-39449D01*
X-39257Y12972D02*
Y14587D01*
X-41225Y12972D02*
Y14587D01*
X-37288Y12972D02*
Y14587D01*
X-62879Y12972D02*
Y14587D01*
X-63504D02*
X-60731D01*
X-60910Y12972D02*
Y14587D01*
X-52211Y13031D02*
X-50742D01*
X-64449Y14587D02*
X-63504D01*
X-60731D01*
X-52222Y14587D02*
X-50731D01*
X-52222D02*
X-50731D01*
X-42222D02*
X-39449D01*
X-42222Y14587D02*
X-39449D01*
X-38504D01*
X-66816Y37972D02*
Y39587D01*
X-68484D02*
X-64429D01*
X-64847Y37972D02*
Y39587D01*
X-63150Y70731D02*
Y71331D01*
X-73150Y70021D02*
Y71331D01*
X-63150Y70731D02*
X-62175Y71705D01*
X-59626Y56338D02*
X-52826D01*
X-59626Y58307D02*
X-51378D01*
X-59429Y52972D02*
X-58484D01*
X-59626Y54370D02*
X-53091D01*
X-59626Y52972D02*
Y62005D01*
Y60275D02*
X-49409D01*
X-58942Y52972D02*
Y62689D01*
X-59626Y62005D02*
X-54418Y67213D01*
X-59388Y62244D02*
X-47441D01*
X-72721Y71078D02*
Y71779D01*
X-72660Y79960D02*
X-72301D01*
X-72721Y80032D02*
Y81779D01*
X-62879Y71001D02*
Y71604D01*
X-62660Y79960D02*
X-62301D01*
X-62879Y80207D02*
Y81604D01*
X-58484Y52972D02*
X-54429D01*
X-58484D02*
X-54429D01*
X-53484D02*
X-53091D01*
X-54429D02*
X-53484D01*
X-55005D02*
Y66626D01*
X-56973Y52972D02*
Y64658D01*
X-53091Y52972D02*
Y54882D01*
X-53484Y52972D02*
X-53091D01*
X-57419Y64212D02*
X-45472D01*
X-47131Y62554D02*
Y69616D01*
X-53036Y55549D02*
Y71441D01*
X-51875Y57809D02*
X-39681Y70003D01*
X-51068Y58617D02*
Y70728D01*
X-49099Y60585D02*
Y69818D01*
X-45162Y64522D02*
Y70048D01*
X-53150Y70275D02*
Y71331D01*
X-52660Y79960D02*
X-52301D01*
X-53036Y80370D02*
Y81441D01*
X-55451Y66181D02*
X-43504D01*
X-53708Y68149D02*
X-41535D01*
X-44994Y70118D02*
X-39966D01*
X-53153D02*
X-49967D01*
X-43194Y66491D02*
Y71290D01*
X-41225Y68459D02*
Y70841D01*
X-38504Y12972D02*
X-34449D01*
X-38504Y12972D02*
X-33504D01*
X-29449D01*
X-33504D02*
X-29449D01*
X-33351D02*
Y14587D01*
X-35320Y12972D02*
Y14587D01*
X-29414Y12972D02*
Y14587D01*
X-31383Y12972D02*
Y14587D01*
X-28504Y12972D02*
X-24449D01*
X-29449D02*
X-28504D01*
X-23504D02*
X-19449D01*
X-28504D02*
X-24449D01*
X-25477D02*
Y14587D01*
X-27446Y12972D02*
Y14587D01*
X-23504Y12972D02*
X-19449D01*
X-23509D02*
Y14587D01*
X-24449Y12972D02*
X-23504D01*
X-33504Y14587D02*
X-29449D01*
X-38504D02*
X-33504D01*
X-29449D02*
X-28504D01*
X-33504D02*
X-29449D01*
X-38504Y14587D02*
X-34449D01*
X-29429Y27972D02*
X-28504D01*
Y14587D02*
X-24449D01*
X-29429Y30748D02*
X-24947D01*
X-29429Y32716D02*
X-24858D01*
X-42211Y13031D02*
X-10742D01*
X-28504Y14587D02*
X-24449D01*
X-23504D02*
X-19449D01*
X-24449D02*
X-23504D01*
X-28504Y27972D02*
X-24449D01*
X-29429Y28779D02*
X-24253D01*
X-23504Y14587D02*
X-19449D01*
X-28504Y27972D02*
X-24449D01*
X-23819D01*
X-19449Y12972D02*
X-14449D01*
X-19572D02*
Y14587D01*
X-14449Y12972D02*
X-13504D01*
X-18504D02*
X-14449D01*
X-17603Y12972D02*
Y14587D01*
X-21540Y12972D02*
Y14587D01*
X-13666Y12972D02*
Y14587D01*
X-15635Y12972D02*
Y14587D01*
X-13504Y12972D02*
X-10731D01*
X-13504Y12972D02*
X-10731D01*
X-11698D02*
Y14587D01*
X-1969Y12972D02*
Y14587D01*
X-19449D02*
X-14449D01*
X-18504Y14587D02*
X-14449D01*
X-13504Y14587D02*
X-10731D01*
X-14449Y14587D02*
X-13504D01*
X-10731D01*
X-9888Y27972D02*
X-9449D01*
X-9729Y27972D02*
Y29792D01*
X-8504Y27972D02*
X-4449D01*
X-9449D02*
X-8504D01*
X-4449D01*
X-10093Y28779D02*
X-1969D01*
X-4449Y27972D02*
X-1969D01*
X-9888Y27972D02*
X-9449D01*
X-9502Y30748D02*
X-1969D01*
X-29414Y27972D02*
Y32989D01*
X-29429Y27972D02*
Y32985D01*
X-25477Y27972D02*
Y36485D01*
X-27446Y27972D02*
Y33847D01*
X-29414Y43389D02*
Y60212D01*
X-29429Y43393D02*
Y52972D01*
X-25477Y39893D02*
Y64149D01*
X-27446Y42531D02*
Y62180D01*
X-26516Y34685D02*
X-23937D01*
X-25424Y36653D02*
X-20971D01*
X-25770Y40590D02*
X-1969D01*
X-29429Y46496D02*
X-1969D01*
X-29429Y48464D02*
X-1969D01*
X-29429Y44527D02*
X-1969D01*
X-27486Y42559D02*
X-1969D01*
X-36654Y52972D02*
X-34429D01*
X-36654D02*
X-34429D01*
X-29429D01*
X-35320D02*
Y54306D01*
X-33351Y52972D02*
Y56275D01*
X-36654Y52972D02*
X-24148Y65478D01*
X-31383Y52972D02*
Y58243D01*
X-25477Y84572D02*
Y209035D01*
X-29258Y88352D02*
X-24148Y83242D01*
X-35257Y54370D02*
X-1969D01*
X-33288Y56338D02*
X-1969D01*
X-29429Y50433D02*
X-1969D01*
X-29429Y52401D02*
X-1969D01*
X-31320Y58307D02*
X-1969D01*
X-29351Y60275D02*
X-1969D01*
X-27383Y62244D02*
X-1969D01*
X-26772Y85866D02*
X-1969D01*
X-25414Y64212D02*
X-1969D01*
X-23509Y35188D02*
Y66301D01*
X-17603Y36386D02*
Y209035D01*
X-18399Y36653D02*
X-16049D01*
X-21540Y36477D02*
Y209035D01*
X-15635Y36739D02*
Y209035D01*
X-11698Y35838D02*
Y209035D01*
X-13666Y36696D02*
Y209035D01*
X-13478Y36653D02*
X-1969D01*
X-9591Y32716D02*
X-1969D01*
X-10511Y34685D02*
X-1969D01*
X-7761Y27972D02*
Y209035D01*
X-9729Y33200D02*
Y209035D01*
X-1969Y27972D02*
Y209035D01*
X-5792Y27972D02*
Y209035D01*
X-3824Y27972D02*
Y209035D01*
X-25214Y38622D02*
X-1969D01*
X-22941Y68149D02*
X-1969D01*
X-19572Y36810D02*
Y209035D01*
X-23509Y82420D02*
Y209035D01*
X-22933Y68405D02*
Y80315D01*
X-23583Y66181D02*
X-1969D01*
X-22933Y70118D02*
X-1969D01*
X-22933Y72086D02*
X-1969D01*
X-22933Y74055D02*
X-1969D01*
X-23261Y81929D02*
X-1969D01*
X-24803Y83897D02*
X-1969D01*
X-22933Y76023D02*
X-1969D01*
X-22933Y79960D02*
X-1969D01*
X-22933Y77992D02*
X-1969D01*
X-76658Y92151D02*
Y183543D01*
X-78484D02*
X-74429D01*
X-74690Y91553D02*
Y183543D01*
X-75184Y91771D02*
X-69777D01*
X-73484Y183543D02*
X-69429D01*
X-78484D02*
X-74429D01*
X-72721Y90033D02*
Y183543D01*
X-70753Y91288D02*
Y183543D01*
X-69429D02*
X-68484D01*
X-65184Y91771D02*
X-59777D01*
X-66816Y92170D02*
Y183543D01*
X-68784Y92068D02*
Y183543D01*
X-68484D02*
X-64429D01*
X-64847Y91628D02*
Y183543D01*
X-64429D02*
X-63484D01*
X-59429D01*
X-73484D02*
X-69429D01*
X-74429D02*
X-73484D01*
X-72202Y196929D02*
X-69429D01*
X-72202D02*
X-69429D01*
X-68484D01*
X-72202Y198543D02*
X-69429D01*
X-68484D01*
Y183543D02*
X-64429D01*
X-68484Y196929D02*
X-64429D01*
X-63484D01*
X-68484D02*
X-64429D01*
X-64847D02*
Y198543D01*
X-66816Y196929D02*
Y198543D01*
X-63484Y196929D02*
X-59429D01*
X-64429Y198543D02*
X-63484D01*
Y196929D02*
X-59429D01*
X-58484Y183543D02*
X-54429D01*
X-59429D02*
X-58484D01*
X-55005Y91698D02*
Y183543D01*
X-56973Y92184D02*
Y183543D01*
X-62879Y90207D02*
Y183543D01*
X-63484D02*
X-59429D01*
X-60910Y91189D02*
Y183543D01*
X-58942Y92033D02*
Y183543D01*
X-58484D02*
X-54429D01*
X-53036Y90370D02*
Y183543D01*
X-55184Y91771D02*
X-49777D01*
X-51068Y91083D02*
Y183543D01*
X-54429D02*
X-53484D01*
X-45162Y91763D02*
Y183543D01*
X-49099Y91993D02*
Y183543D01*
X-47131Y92195D02*
Y183543D01*
X-58484Y196929D02*
X-54429D01*
X-58484D02*
X-54429D01*
X-53484Y183543D02*
X-49429D01*
X-53484D02*
X-49429D01*
X-59429Y196929D02*
X-58484D01*
X-62879D02*
Y198543D01*
X-53484Y196929D02*
X-49429D01*
X-54429D02*
X-53484D01*
X-49429D01*
X-48484Y183543D02*
X-44429D01*
X-49429D02*
X-48484D01*
X-44429D01*
X-48484Y196929D02*
X-44429D01*
X-48484D02*
X-44429D01*
X-49429D02*
X-48484D01*
X-45162D02*
Y198543D01*
X-48484D02*
X-44429D01*
X-43484D01*
X-78465Y222421D02*
X-74410D01*
X-70753Y196929D02*
Y198543D01*
X-76658Y222421D02*
Y224036D01*
X-78465Y222421D02*
X-74410D01*
X-72721D02*
Y224036D01*
X-74690Y222421D02*
Y224036D01*
X-68784Y196929D02*
Y198543D01*
X-72202D02*
X-69429D01*
X-63484D02*
X-59429D01*
X-68484D02*
X-64429D01*
X-73465Y222421D02*
X-69410D01*
X-73465D02*
X-69410D01*
X-63484Y198543D02*
X-59429D01*
X-70753Y222421D02*
Y224036D01*
X-68484Y198543D02*
X-64429D01*
X-74410Y222421D02*
X-73465D01*
X-78465Y224036D02*
X-74410D01*
X-69410Y222421D02*
X-68465D01*
X-74410Y224036D02*
X-73465D01*
X-69410D01*
X-78465D02*
X-74410D01*
X-68784Y222421D02*
Y224036D01*
X-73465D02*
X-69410D01*
X-68465D01*
Y222421D02*
X-64410D01*
X-68465D02*
X-64410D01*
X-63465D02*
X-60692D01*
X-64410D02*
X-63465D01*
X-68465Y224036D02*
X-64410D01*
X-68465D02*
X-64410D01*
X-66816Y222421D02*
Y224036D01*
X-64847Y222421D02*
Y224036D01*
X-64410D02*
X-63465D01*
X-58484Y198543D02*
X-54429D01*
X-58484D02*
X-54429D01*
X-55005Y196929D02*
Y198543D01*
X-54429D02*
X-53484D01*
X-60910Y196929D02*
Y198543D01*
X-59429D02*
X-58484D01*
X-56973Y196929D02*
Y198543D01*
X-58942Y196929D02*
Y198543D01*
X-53484D02*
X-49429D01*
X-53484D02*
X-49429D01*
X-51068Y196929D02*
Y198543D01*
X-53036Y196929D02*
Y198543D01*
X-49429D02*
X-48484D01*
X-51068Y222421D02*
Y224036D01*
X-49099Y196929D02*
Y198543D01*
X-47131Y196929D02*
Y198543D01*
X-48484D02*
X-44429D01*
X-60910Y222421D02*
Y224036D01*
X-63465Y222421D02*
X-60692D01*
X-63465Y224036D02*
X-60692D01*
X-63465D02*
X-60692D01*
X-62879Y222421D02*
Y224036D01*
X-52182Y222421D02*
X-50692D01*
X-52182D02*
X-50692D01*
X-52128Y223661D02*
X-50746D01*
X-52182Y224036D02*
X-50692D01*
X-52182D02*
X-50692D01*
X-45184Y91771D02*
X-39777D01*
X-43194Y90521D02*
Y183543D01*
X-44429D02*
X-43484D01*
X-39429D01*
X-43484D02*
X-39429D01*
X-41225Y90971D02*
Y183543D01*
X-39257Y91949D02*
Y183543D01*
X-35184Y91771D02*
X-1969D01*
X-32531Y89803D02*
X-1969D01*
X-38484Y183543D02*
X-34429D01*
X-39429D02*
X-38484D01*
X-33351Y90663D02*
Y183543D01*
X-37288Y92202D02*
Y183543D01*
X-35320Y91823D02*
Y183543D01*
X-44429Y196929D02*
X-43484D01*
X-72139Y198070D02*
X-40775D01*
X-43484Y196929D02*
X-40712D01*
X-43484D02*
X-40712D01*
X-43484Y198543D02*
X-40712D01*
X-43484D02*
X-40712D01*
X-43194Y196929D02*
Y198543D01*
X-41225Y196929D02*
Y198543D01*
X-34429Y183543D02*
X-29429D01*
X-38484D02*
X-34429D01*
X-32202Y196929D02*
X-29429D01*
X-32202Y198543D02*
X-29429D01*
X-31383Y89488D02*
Y183543D01*
X-29429D02*
Y196929D01*
Y184291D02*
X-1969D01*
X-31383Y196929D02*
Y198543D01*
X-29429D02*
Y209035D01*
X-27446Y86540D02*
Y209035D01*
X-29414Y88501D02*
Y209035D01*
X-29429Y188228D02*
X-1969D01*
X-29429Y190196D02*
X-1969D01*
X-28740Y87834D02*
X-1969D01*
X-29429Y186259D02*
X-1969D01*
X-29429Y194133D02*
X-1969D01*
X-32139Y198070D02*
X-1969D01*
X-29429Y192165D02*
X-1969D01*
X-29429Y200039D02*
X-1969D01*
X-29429Y196102D02*
X-1969D01*
X-18465Y209035D02*
X-14410D01*
X-19410D02*
X-18465D01*
X-13465D02*
X-9409D01*
X-14410D02*
X-13465D01*
X-28465D02*
X-24409D01*
X-29410D02*
X-28465D01*
X-23465D02*
X-19410D01*
X-24409D02*
X-23465D01*
X-19410D01*
X-29429Y205944D02*
X-1969D01*
X-29429Y207913D02*
X-1969D01*
X-29429Y202007D02*
X-1969D01*
X-29429Y203976D02*
X-1969D01*
X-9409Y209035D02*
X-8465D01*
X-13465D02*
X-9409D01*
X-4409D02*
X-1969D01*
X-8465D02*
X-4409D01*
X-8465D02*
X-4409D01*
X-42182Y222421D02*
X-39410D01*
X-42182D02*
X-39410D01*
X-38465D01*
X-41225D02*
Y224036D01*
X-37288Y222421D02*
Y224036D01*
X-39257Y222421D02*
Y224036D01*
X-38465Y222421D02*
X-34409D01*
X-38465D02*
X-34409D01*
X-28465Y209035D02*
X-24409D01*
X-34409Y222421D02*
X-33465D01*
X-29410D01*
X-35320D02*
Y224036D01*
X-28465Y222421D02*
X-24409D01*
X-31383D02*
Y224036D01*
X-29410Y222421D02*
X-28465D01*
X-38465Y224036D02*
X-34409D01*
X-38465D02*
X-34409D01*
X-33351Y222421D02*
Y224036D01*
X-34409D02*
X-33465D01*
X-39410D02*
X-38465D01*
X-42182D02*
X-39410D01*
X-42182D02*
X-39410D01*
X-33465Y222421D02*
X-29410D01*
X-42128Y223661D02*
X-10746D01*
X-28465Y222421D02*
X-24409D01*
X-29414D02*
Y224036D01*
X-33465D02*
X-29410D01*
X-33465D02*
X-29410D01*
X-28465D02*
X-24409D01*
X-29410D02*
X-28465D01*
X-24409D01*
Y222421D02*
X-23465D01*
X-25477D02*
Y224036D01*
X-23465Y222421D02*
X-19410D01*
X-23465D02*
X-19410D01*
X-23509D02*
Y224036D01*
X-27446Y222421D02*
Y224036D01*
X-19572Y222421D02*
Y224036D01*
X-21540Y222421D02*
Y224036D01*
X-18465Y209035D02*
X-14410D01*
X-19410Y222421D02*
X-18465D01*
X-14410D01*
X-18465D02*
X-14410D01*
X-15635D02*
Y224036D01*
X-17603Y222421D02*
Y224036D01*
X-1969Y222421D02*
Y224036D01*
X-11698Y222421D02*
Y224036D01*
X-23465D02*
X-19410D01*
X-24409D02*
X-23465D01*
X-14410Y222421D02*
X-13465D01*
X-19410Y224036D02*
X-18465D01*
X-14410D01*
X-23465D02*
X-19410D01*
X-13666Y222421D02*
Y224036D01*
X-18465D02*
X-14410D01*
X-13465D01*
Y222421D02*
X-10692D01*
X-13465D02*
X-10692D01*
X-13465Y224036D02*
X-10692D01*
X-13465D02*
X-10692D01*
X-127362Y60827D02*
X-120275D01*
X-105197Y75906D01*
X-97480D01*
D11*
X-13976Y21280D02*
Y27362D01*
X-14764Y28150D02*
X-13976Y27362D01*
X-14764Y28150D02*
Y31496D01*
X-18976Y21280D02*
Y27244D01*
X-19685Y27953D02*
X-18976Y27244D01*
X-19685Y27953D02*
Y31496D01*
X-27067Y68405D02*
Y80315D01*
X-32185Y85433D02*
X-27067Y80315D01*
X-37008Y85433D02*
X-32185D01*
X-37480Y85905D02*
X-37008Y85433D01*
X-43957Y51516D02*
X-27067Y68405D01*
X-43957Y46279D02*
Y51516D01*
X-31594Y72244D02*
Y78150D01*
X-48957Y54882D02*
X-31594Y72244D01*
X-48957Y46279D02*
Y54882D01*
X-34350Y80905D02*
X-31594Y78150D01*
X-43504Y80905D02*
X-34350D01*
X-47480Y84882D02*
X-43504Y80905D01*
X-47480Y84882D02*
Y85905D01*
X-33957Y31280D02*
Y34744D01*
X-30512Y38189D01*
X-128957Y26358D02*
Y31280D01*
X-131713D02*
X-128957D01*
X-101732Y6279D02*
X-98976D01*
X-97480Y71378D02*
Y75906D01*
X-102008D02*
X-97480D01*
D12*
X-44193Y38386D02*
X-43957Y38150D01*
X-44291Y38386D02*
X-44193D01*
D14*
X-126457Y197736D02*
D03*
X-86457D02*
D03*
X-76457D02*
D03*
X-36457D02*
D03*
X-96437Y223228D02*
D03*
X-56437D02*
D03*
X-46437D02*
D03*
X-6437D02*
D03*
X-126457Y38780D02*
D03*
X-86457D02*
D03*
X-76457D02*
D03*
X-36457D02*
D03*
X-6476Y13780D02*
D03*
X-46476D02*
D03*
X-56476D02*
D03*
X-96476D02*
D03*
D15*
X-97480Y75906D02*
D03*
D16*
Y85905D02*
D03*
X-87480Y75906D02*
D03*
Y85905D02*
D03*
X-77480Y75906D02*
D03*
Y85905D02*
D03*
X-67480Y75906D02*
D03*
Y85905D02*
D03*
X-57480Y75906D02*
D03*
Y85905D02*
D03*
X-47480D02*
D03*
Y75906D02*
D03*
X-37480Y85905D02*
D03*
Y75906D02*
D03*
D17*
X-14764Y31496D02*
D03*
X-19685D02*
D03*
X-44291Y38386D02*
D03*
X-49213Y38386D02*
D03*
X-54134D02*
D03*
X-59055D02*
D03*
X-30512Y38189D02*
D03*
D18*
X-83957Y190236D02*
D03*
Y205236D02*
D03*
X-88957Y190236D02*
D03*
X-93957D02*
D03*
X-88957Y205236D02*
D03*
X-93957D02*
D03*
X-98957Y190236D02*
D03*
Y205236D02*
D03*
X-103957Y190236D02*
D03*
Y205236D02*
D03*
X-108957Y190236D02*
D03*
Y205236D02*
D03*
X-113957Y190236D02*
D03*
Y205236D02*
D03*
X-123957D02*
D03*
X-128957D02*
D03*
Y190236D02*
D03*
X-123957D02*
D03*
X-118957Y205236D02*
D03*
Y190236D02*
D03*
X-33957D02*
D03*
Y205236D02*
D03*
X-38957Y190236D02*
D03*
X-43957D02*
D03*
X-38957Y205236D02*
D03*
X-43957D02*
D03*
X-48957Y190236D02*
D03*
Y205236D02*
D03*
X-53957Y190236D02*
D03*
Y205236D02*
D03*
X-58957Y190236D02*
D03*
Y205236D02*
D03*
X-63957Y190236D02*
D03*
Y205236D02*
D03*
X-73957D02*
D03*
X-78957D02*
D03*
Y190236D02*
D03*
X-73957D02*
D03*
X-68957Y205236D02*
D03*
Y190236D02*
D03*
X-53937Y215728D02*
D03*
Y230728D02*
D03*
X-58937Y215728D02*
D03*
X-63937D02*
D03*
X-58937Y230728D02*
D03*
X-63937D02*
D03*
X-68937Y215728D02*
D03*
Y230728D02*
D03*
X-73937Y215728D02*
D03*
Y230728D02*
D03*
X-78937Y215728D02*
D03*
Y230728D02*
D03*
X-83937Y215728D02*
D03*
Y230728D02*
D03*
X-93937D02*
D03*
X-98937D02*
D03*
Y215728D02*
D03*
X-93937D02*
D03*
X-88937Y230728D02*
D03*
Y215728D02*
D03*
X-3937D02*
D03*
Y230728D02*
D03*
X-8937Y215728D02*
D03*
X-13937D02*
D03*
X-8937Y230728D02*
D03*
X-13937D02*
D03*
X-18937Y215728D02*
D03*
Y230728D02*
D03*
X-23937Y215728D02*
D03*
Y230728D02*
D03*
X-28937Y215728D02*
D03*
Y230728D02*
D03*
X-33937Y215728D02*
D03*
Y230728D02*
D03*
X-43937D02*
D03*
X-48937D02*
D03*
Y215728D02*
D03*
X-43937D02*
D03*
X-38937Y230728D02*
D03*
Y215728D02*
D03*
X-83957Y31280D02*
D03*
Y46279D02*
D03*
X-88957Y31280D02*
D03*
X-93957D02*
D03*
X-88957Y46279D02*
D03*
X-93957D02*
D03*
X-98957Y31280D02*
D03*
Y46279D02*
D03*
X-103957Y31280D02*
D03*
Y46279D02*
D03*
X-108957Y31280D02*
D03*
Y46279D02*
D03*
X-113957Y31280D02*
D03*
Y46279D02*
D03*
X-123957D02*
D03*
X-128957D02*
D03*
Y31280D02*
D03*
X-123957D02*
D03*
X-118957Y46279D02*
D03*
Y31280D02*
D03*
X-33957D02*
D03*
Y46279D02*
D03*
X-38957Y31280D02*
D03*
X-43957D02*
D03*
X-38957Y46279D02*
D03*
X-43957D02*
D03*
X-48957Y31280D02*
D03*
Y46279D02*
D03*
X-53957Y31280D02*
D03*
Y46279D02*
D03*
X-58957Y31280D02*
D03*
Y46279D02*
D03*
X-63957Y31280D02*
D03*
Y46279D02*
D03*
X-73957D02*
D03*
X-78957D02*
D03*
Y31280D02*
D03*
X-73957D02*
D03*
X-68957Y46279D02*
D03*
Y31280D02*
D03*
X-38976Y6279D02*
D03*
Y21280D02*
D03*
X-43976Y6279D02*
D03*
X-48976D02*
D03*
Y21280D02*
D03*
X-43976D02*
D03*
X-33976D02*
D03*
Y6279D02*
D03*
X-28976Y21280D02*
D03*
Y6279D02*
D03*
X-23976Y21280D02*
D03*
Y6279D02*
D03*
X-18976Y21280D02*
D03*
Y6279D02*
D03*
X-13976Y21280D02*
D03*
X-8976Y21280D02*
D03*
X-13976Y6279D02*
D03*
X-8976Y6279D02*
D03*
X-3976Y21280D02*
D03*
Y6279D02*
D03*
X-88976Y6279D02*
D03*
Y21280D02*
D03*
X-93976Y6279D02*
D03*
X-98976D02*
D03*
Y21280D02*
D03*
X-93976D02*
D03*
X-83976D02*
D03*
Y6279D02*
D03*
X-78976Y21280D02*
D03*
Y6279D02*
D03*
X-73976Y21280D02*
D03*
Y6279D02*
D03*
X-68976Y21280D02*
D03*
Y6279D02*
D03*
X-63976Y21280D02*
D03*
X-58976Y21280D02*
D03*
X-63976Y6279D02*
D03*
X-58976Y6279D02*
D03*
X-53976Y21280D02*
D03*
Y6279D02*
D03*
M02*
