G04 Layer_Color=16711935*
%FSLAX42Y42*%
%MOMM*%
G71*
G01*
G75*
%ADD48C,1.70*%
%ADD49R,1.70X1.70*%
%ADD52C,1.20*%
%ADD56C,1.00*%
%ADD64R,1.20X1.20*%
G04:AMPARAMS|DCode=75|XSize=0.9mm|YSize=1.5mm|CornerRadius=0.28mm|HoleSize=0mm|Usage=FLASHONLY|Rotation=0.000|XOffset=0mm|YOffset=0mm|HoleType=Round|Shape=RoundedRectangle|*
%AMROUNDEDRECTD75*
21,1,0.90,0.95,0,0,0.0*
21,1,0.35,1.50,0,0,0.0*
1,1,0.55,0.17,-0.47*
1,1,0.55,-0.17,-0.47*
1,1,0.55,-0.17,0.47*
1,1,0.55,0.17,0.47*
%
%ADD75ROUNDEDRECTD75*%
G04:AMPARAMS|DCode=76|XSize=1.1mm|YSize=1.5mm|CornerRadius=0.33mm|HoleSize=0mm|Usage=FLASHONLY|Rotation=270.000|XOffset=0mm|YOffset=0mm|HoleType=Round|Shape=RoundedRectangle|*
%AMROUNDEDRECTD76*
21,1,1.10,0.85,0,0,270.0*
21,1,0.45,1.50,0,0,270.0*
1,1,0.65,-0.42,-0.23*
1,1,0.65,-0.42,0.23*
1,1,0.65,0.42,0.23*
1,1,0.65,0.42,-0.23*
%
%ADD76ROUNDEDRECTD76*%
%ADD81R,2.40X0.80*%
%ADD82O,2.40X0.80*%
G04:AMPARAMS|DCode=91|XSize=0.9mm|YSize=1.5mm|CornerRadius=0.28mm|HoleSize=0mm|Usage=FLASHONLY|Rotation=270.000|XOffset=0mm|YOffset=0mm|HoleType=Round|Shape=RoundedRectangle|*
%AMROUNDEDRECTD91*
21,1,0.90,0.95,0,0,270.0*
21,1,0.35,1.50,0,0,270.0*
1,1,0.55,-0.47,-0.17*
1,1,0.55,-0.47,0.17*
1,1,0.55,0.47,0.17*
1,1,0.55,0.47,-0.17*
%
%ADD91ROUNDEDRECTD91*%
G04:AMPARAMS|DCode=95|XSize=1.1mm|YSize=1.5mm|CornerRadius=0.33mm|HoleSize=0mm|Usage=FLASHONLY|Rotation=0.000|XOffset=0mm|YOffset=0mm|HoleType=Round|Shape=RoundedRectangle|*
%AMROUNDEDRECTD95*
21,1,1.10,0.85,0,0,0.0*
21,1,0.45,1.50,0,0,0.0*
1,1,0.65,0.23,-0.42*
1,1,0.65,-0.23,-0.42*
1,1,0.65,-0.23,0.42*
1,1,0.65,0.23,0.42*
%
%ADD95ROUNDEDRECTD95*%
G04:AMPARAMS|DCode=96|XSize=1.35mm|YSize=2mm|CornerRadius=0.39mm|HoleSize=0mm|Usage=FLASHONLY|Rotation=180.000|XOffset=0mm|YOffset=0mm|HoleType=Round|Shape=RoundedRectangle|*
%AMROUNDEDRECTD96*
21,1,1.35,1.23,0,0,180.0*
21,1,0.57,2.00,0,0,180.0*
1,1,0.78,-0.29,0.61*
1,1,0.78,0.29,0.61*
1,1,0.78,0.29,-0.61*
1,1,0.78,-0.29,-0.61*
%
%ADD96ROUNDEDRECTD96*%
%ADD99C,3.70*%
%ADD100C,3.20*%
%ADD101C,1.90*%
%ADD102R,1.90X1.90*%
%ADD103R,1.70X1.70*%
%ADD104O,2.20X3.20*%
%ADD105C,1.40*%
%ADD106R,1.40X1.40*%
%ADD107C,2.70*%
%ADD108C,1.70*%
%ADD109R,1.70X1.70*%
%ADD110R,1.70X1.70*%
%ADD111R,2.20X2.20*%
%ADD112C,2.20*%
%ADD113O,1.40X2.00*%
%ADD114R,2.70X2.70*%
%ADD115R,1.40X1.40*%
%ADD116C,6.20*%
%ADD117C,2.20*%
%ADD118C,1.77*%
G04:AMPARAMS|DCode=119|XSize=0.96mm|YSize=0.96mm|CornerRadius=0.29mm|HoleSize=0mm|Usage=FLASHONLY|Rotation=90.000|XOffset=0mm|YOffset=0mm|HoleType=Round|Shape=RoundedRectangle|*
%AMROUNDEDRECTD119*
21,1,0.96,0.38,0,0,90.0*
21,1,0.38,0.96,0,0,90.0*
1,1,0.58,0.19,0.19*
1,1,0.58,0.19,-0.19*
1,1,0.58,-0.19,-0.19*
1,1,0.58,-0.19,0.19*
%
%ADD119ROUNDEDRECTD119*%
%ADD120R,1.35X0.80*%
%ADD121O,0.80X2.10*%
%ADD122R,0.80X2.10*%
G04:AMPARAMS|DCode=123|XSize=1.35mm|YSize=2mm|CornerRadius=0.39mm|HoleSize=0mm|Usage=FLASHONLY|Rotation=90.000|XOffset=0mm|YOffset=0mm|HoleType=Round|Shape=RoundedRectangle|*
%AMROUNDEDRECTD123*
21,1,1.35,1.23,0,0,90.0*
21,1,0.57,2.00,0,0,90.0*
1,1,0.78,0.61,0.29*
1,1,0.78,0.61,-0.29*
1,1,0.78,-0.61,-0.29*
1,1,0.78,-0.61,0.29*
%
%ADD123ROUNDEDRECTD123*%
D48*
X3211Y894D02*
D03*
X3338Y641D02*
D03*
X3465Y894D02*
D03*
X3592Y641D02*
D03*
X3719Y894D02*
D03*
X3846Y641D02*
D03*
X3973Y894D02*
D03*
X17700Y254D02*
D03*
Y508D02*
D03*
Y762D02*
D03*
X14614Y5030D02*
D03*
X14868D02*
D03*
X15122D02*
D03*
X7921Y1400D02*
D03*
X7667D02*
D03*
X7413D02*
D03*
X6209Y1090D02*
D03*
X13458Y1773D02*
D03*
X12950D02*
D03*
X12442D02*
D03*
X12696D02*
D03*
X13204D02*
D03*
X13712D02*
D03*
Y2027D02*
D03*
X13458D02*
D03*
X13204D02*
D03*
X12950D02*
D03*
X12696D02*
D03*
X12442D02*
D03*
X12188D02*
D03*
X177Y3112D02*
D03*
X-77D02*
D03*
X177Y2858D02*
D03*
X-77D02*
D03*
Y2604D02*
D03*
X177D02*
D03*
X-77Y2350D02*
D03*
X177D02*
D03*
X-77Y2096D02*
D03*
X177D02*
D03*
X-77Y1842D02*
D03*
X177D02*
D03*
X-77Y1588D02*
D03*
X16312Y6323D02*
D03*
Y6577D02*
D03*
X16058Y6323D02*
D03*
Y6577D02*
D03*
X15804D02*
D03*
Y6323D02*
D03*
X15550Y6577D02*
D03*
Y6323D02*
D03*
X15296Y6577D02*
D03*
Y6323D02*
D03*
X15042Y6577D02*
D03*
Y6323D02*
D03*
X14788Y6577D02*
D03*
X12912Y6323D02*
D03*
Y6577D02*
D03*
X12658Y6323D02*
D03*
Y6577D02*
D03*
X12404D02*
D03*
Y6323D02*
D03*
X12150Y6577D02*
D03*
Y6323D02*
D03*
X11896Y6577D02*
D03*
Y6323D02*
D03*
X11642Y6577D02*
D03*
Y6323D02*
D03*
X11388Y6577D02*
D03*
X2004Y4150D02*
D03*
X2258D02*
D03*
X2512D02*
D03*
X635Y-45D02*
D03*
X1085D02*
D03*
X3275Y5450D02*
D03*
X2875D02*
D03*
Y4950D02*
D03*
X3275D02*
D03*
X4125D02*
D03*
D49*
X3084Y641D02*
D03*
X14360Y5030D02*
D03*
X8175Y1400D02*
D03*
X5955Y1090D02*
D03*
X12188Y1773D02*
D03*
X14788Y6323D02*
D03*
X11388D02*
D03*
X1750Y4150D02*
D03*
D52*
X14500Y3225D02*
D03*
X12235Y3608D02*
D03*
X11695D02*
D03*
X10250Y3605D02*
D03*
X13250Y4075D02*
D03*
X12940Y407D02*
D03*
X11803D02*
D03*
X10665D02*
D03*
X9528D02*
D03*
X3275Y2196D02*
D03*
X3642Y2035D02*
D03*
X1180Y3290D02*
D03*
X3550Y6350D02*
D03*
X2960Y6535D02*
D03*
Y6135D02*
D03*
X2510D02*
D03*
Y6335D02*
D03*
Y6535D02*
D03*
X2810Y6135D02*
D03*
X2660D02*
D03*
X1580Y5642D02*
D03*
X1073Y1942D02*
D03*
X1335Y1560D02*
D03*
X2082Y2740D02*
D03*
X2467Y2745D02*
D03*
X1635Y1960D02*
D03*
X2023Y1958D02*
D03*
X2988Y1495D02*
D03*
Y1352D02*
D03*
X957Y3653D02*
D03*
X11832Y2555D02*
D03*
X13005Y4822D02*
D03*
X12300Y4000D02*
D03*
X2810Y6335D02*
D03*
X2960D02*
D03*
X2810Y6535D02*
D03*
X2660D02*
D03*
Y6335D02*
D03*
D56*
X12710Y4360D02*
D03*
X2367Y760D02*
D03*
Y885D02*
D03*
X12580Y4710D02*
D03*
Y4590D02*
D03*
X13990Y5040D02*
D03*
X14550Y4510D02*
D03*
Y4380D02*
D03*
D64*
X14500Y3425D02*
D03*
X12235Y3408D02*
D03*
X11695D02*
D03*
X10250Y3405D02*
D03*
D75*
X7457Y1102D02*
D03*
X7238D02*
D03*
X7965Y900D02*
D03*
X8185D02*
D03*
X973Y165D02*
D03*
X753D02*
D03*
X2408Y370D02*
D03*
X2627D02*
D03*
X1958D02*
D03*
X2177D02*
D03*
X1535D02*
D03*
X1755D02*
D03*
X4035Y6050D02*
D03*
X3815D02*
D03*
X14980Y5260D02*
D03*
X14760D02*
D03*
D76*
X8850Y705D02*
D03*
Y895D02*
D03*
X7700Y705D02*
D03*
Y895D02*
D03*
X1790Y2370D02*
D03*
Y2560D02*
D03*
X7150Y2230D02*
D03*
Y2420D02*
D03*
X7100Y3370D02*
D03*
Y3180D02*
D03*
X11800Y4895D02*
D03*
Y4705D02*
D03*
Y4205D02*
D03*
Y4395D02*
D03*
D81*
X1520Y1941D02*
D03*
D82*
X890Y1560D02*
D03*
Y1686D02*
D03*
Y1814D02*
D03*
Y1941D02*
D03*
X1520Y1560D02*
D03*
Y1686D02*
D03*
Y1814D02*
D03*
D91*
X15900Y2160D02*
D03*
Y1940D02*
D03*
X15875Y1190D02*
D03*
Y1410D02*
D03*
X15300Y2160D02*
D03*
Y1940D02*
D03*
X15275Y1190D02*
D03*
Y1410D02*
D03*
X14700Y2160D02*
D03*
Y1940D02*
D03*
X14675Y1190D02*
D03*
Y1410D02*
D03*
X14100Y2160D02*
D03*
Y1940D02*
D03*
X14075Y1190D02*
D03*
Y1410D02*
D03*
X11550Y1190D02*
D03*
Y1410D02*
D03*
X11575Y2160D02*
D03*
Y1940D02*
D03*
X12925Y835D02*
D03*
Y615D02*
D03*
X11800Y835D02*
D03*
Y615D02*
D03*
X10975Y2160D02*
D03*
Y1940D02*
D03*
X10950Y1190D02*
D03*
Y1410D02*
D03*
X9525Y835D02*
D03*
Y615D02*
D03*
X10375Y2160D02*
D03*
Y1940D02*
D03*
X10350Y1190D02*
D03*
Y1410D02*
D03*
X10675Y835D02*
D03*
Y615D02*
D03*
X2985Y2105D02*
D03*
Y1885D02*
D03*
X2731Y2105D02*
D03*
Y1885D02*
D03*
X2477Y2105D02*
D03*
Y1885D02*
D03*
X2223Y2105D02*
D03*
Y1885D02*
D03*
X9750Y1190D02*
D03*
Y1410D02*
D03*
X9775Y2160D02*
D03*
Y1940D02*
D03*
X1020Y3397D02*
D03*
Y3177D02*
D03*
X1388Y2702D02*
D03*
Y2483D02*
D03*
X823Y3397D02*
D03*
X823Y3177D02*
D03*
X6875Y3385D02*
D03*
Y3165D02*
D03*
X6650Y3385D02*
D03*
Y3165D02*
D03*
X6425Y3385D02*
D03*
Y3165D02*
D03*
X8000Y3760D02*
D03*
Y3540D02*
D03*
X8225D02*
D03*
Y3760D02*
D03*
D95*
X16270Y1325D02*
D03*
X16080D02*
D03*
X15670D02*
D03*
X15480D02*
D03*
X15070Y1300D02*
D03*
X14880D02*
D03*
X14470D02*
D03*
X14280D02*
D03*
X11945D02*
D03*
X11755D02*
D03*
X11345D02*
D03*
X11155D02*
D03*
X10745D02*
D03*
X10555D02*
D03*
X10145D02*
D03*
X9955D02*
D03*
X2370Y2858D02*
D03*
X2180D02*
D03*
X5980Y3175D02*
D03*
X6170D02*
D03*
X5945Y5262D02*
D03*
X6135Y5262D02*
D03*
X1750Y4375D02*
D03*
X1940D02*
D03*
X2323D02*
D03*
X2512D02*
D03*
X3830Y5850D02*
D03*
X4020D02*
D03*
X14775Y4800D02*
D03*
X14965D02*
D03*
D96*
X200Y4850D02*
D03*
X500D02*
D03*
X6235Y1393D02*
D03*
X5935D02*
D03*
X200Y5850D02*
D03*
X500D02*
D03*
D99*
X4101Y5D02*
D03*
X2958D02*
D03*
D100*
X4492D02*
D03*
X5508D02*
D03*
X6919D02*
D03*
X7686D02*
D03*
X8823D02*
D03*
X8057D02*
D03*
X9575D02*
D03*
X10340D02*
D03*
X11478D02*
D03*
X10712D02*
D03*
X11850D02*
D03*
X12615D02*
D03*
X13753D02*
D03*
X12987D02*
D03*
D101*
X5317Y641D02*
D03*
X5190Y894D02*
D03*
X4810Y641D02*
D03*
X5063D02*
D03*
X4937Y894D02*
D03*
X7493D02*
D03*
X7366Y641D02*
D03*
X7239Y894D02*
D03*
X8376D02*
D03*
X8504Y641D02*
D03*
X8631Y894D02*
D03*
X10148D02*
D03*
X10021Y641D02*
D03*
X9894Y894D02*
D03*
X11032D02*
D03*
X11158Y641D02*
D03*
X11286Y894D02*
D03*
X12423D02*
D03*
X12296Y641D02*
D03*
X12169Y894D02*
D03*
X13307D02*
D03*
X13434Y641D02*
D03*
X13560Y894D02*
D03*
D102*
X4683D02*
D03*
X7112Y641D02*
D03*
X8250D02*
D03*
X9767D02*
D03*
X10904D02*
D03*
X12042D02*
D03*
X13179D02*
D03*
D103*
X17700Y0D02*
D03*
X177Y1588D02*
D03*
X4125Y5450D02*
D03*
D104*
X14195Y0D02*
D03*
X14545D02*
D03*
X14895D02*
D03*
X15245D02*
D03*
X15595D02*
D03*
X15945D02*
D03*
X16295D02*
D03*
X16645D02*
D03*
D105*
X2731Y1895D02*
D03*
X2984D02*
D03*
X2223D02*
D03*
X2476D02*
D03*
X2125Y5138D02*
D03*
D106*
X2731Y2095D02*
D03*
X2984D02*
D03*
X2223D02*
D03*
X2476D02*
D03*
D107*
X-50Y5850D02*
D03*
Y5350D02*
D03*
Y4850D02*
D03*
Y4350D02*
D03*
X750Y4346D02*
D03*
Y4854D02*
D03*
Y5346D02*
D03*
Y5854D02*
D03*
X2938Y4345D02*
D03*
D108*
X16152Y2331D02*
D03*
X15898D02*
D03*
X16152Y1569D02*
D03*
X15552Y2331D02*
D03*
X15298D02*
D03*
X15552Y1569D02*
D03*
X14952Y2331D02*
D03*
X14698D02*
D03*
X14952Y1569D02*
D03*
X14352Y2331D02*
D03*
X14098D02*
D03*
X14352Y1569D02*
D03*
X11827Y2331D02*
D03*
X11573D02*
D03*
X11827Y1569D02*
D03*
X11227Y2331D02*
D03*
X10973D02*
D03*
X11227Y1569D02*
D03*
X10627Y2331D02*
D03*
X10373D02*
D03*
X10627Y1569D02*
D03*
X10027Y2331D02*
D03*
X9773D02*
D03*
X10027Y1569D02*
D03*
X1586Y2214D02*
D03*
X1586Y2468D02*
D03*
Y2722D02*
D03*
X1586Y2976D02*
D03*
X824Y2214D02*
D03*
X824Y2468D02*
D03*
X824Y2722D02*
D03*
X8756Y3048D02*
D03*
Y3302D02*
D03*
X7994Y3048D02*
D03*
D109*
X15898Y1569D02*
D03*
X15298D02*
D03*
X14698D02*
D03*
X14098D02*
D03*
X11573Y1569D02*
D03*
X10973D02*
D03*
X10373D02*
D03*
X9773D02*
D03*
D110*
X824Y2976D02*
D03*
X7994Y3302D02*
D03*
D111*
X5776Y4983D02*
D03*
X6152Y381D02*
D03*
D112*
X6284Y4983D02*
D03*
X7046Y4983D02*
D03*
Y2951D02*
D03*
X5014Y2951D02*
D03*
X5898Y-381D02*
D03*
X6152D02*
D03*
X5898Y381D02*
D03*
X1210Y205D02*
D03*
X510D02*
D03*
X9200Y6572D02*
D03*
D113*
X2644Y-160D02*
D03*
X2391D02*
D03*
X1945D02*
D03*
X2200D02*
D03*
X1762D02*
D03*
X1508D02*
D03*
D114*
X4470Y4350D02*
D03*
D115*
X2125Y5462D02*
D03*
D116*
X9250Y3250D02*
D03*
X4850Y6500D02*
D03*
X2050D02*
D03*
X17500D02*
D03*
Y3250D02*
D03*
X0Y0D02*
D03*
Y6500D02*
D03*
X8000Y2000D02*
D03*
X17500D02*
D03*
D117*
X630Y1260D02*
D03*
Y1007D02*
D03*
Y753D02*
D03*
D118*
X12100Y4804D02*
D03*
Y4296D02*
D03*
D119*
X8336Y325D02*
D03*
X8564Y230D02*
D03*
Y420D02*
D03*
X7211Y325D02*
D03*
X7439Y230D02*
D03*
Y420D02*
D03*
D120*
X2402Y120D02*
D03*
X2627Y25D02*
D03*
Y215D02*
D03*
X1952Y120D02*
D03*
X2177Y25D02*
D03*
Y215D02*
D03*
X1527Y120D02*
D03*
X1752Y25D02*
D03*
Y215D02*
D03*
D121*
X7335Y3710D02*
D03*
X7461D02*
D03*
X7589D02*
D03*
X7715D02*
D03*
X7335Y3090D02*
D03*
X7461D02*
D03*
X7589D02*
D03*
D122*
X7715D02*
D03*
D123*
X5950Y150D02*
D03*
Y-150D02*
D03*
X6200Y150D02*
D03*
Y-150D02*
D03*
X6900Y2200D02*
D03*
Y2500D02*
D03*
X6600Y2200D02*
D03*
Y2500D02*
D03*
X6300Y2200D02*
D03*
Y2500D02*
D03*
X6000Y2200D02*
D03*
Y2500D02*
D03*
M02*
