M48
;Layer_Color=9474304
;FILE_FORMAT=4:2
METRIC,LZ
;TYPE=PLATED
T1F00S00C0.30
T2F00S00C0.50
T3F00S00C0.60
T4F00S00C0.70
T5F00S00C0.75
T6F00S00C0.76
T7F00S00C0.80
T8F00S00C0.90
T9F00S00C1.00
T10F00S00C1.20
T11F00S00C1.30
T12F00S00C1.40
T13F00S00C1.50
T14F00S00C3.00
;TYPE=NON_PLATED
T15F00S00C3.00
T16F00S00C3.50
%
T01
X002367Y00076
Y000885
X01271Y00436
X01258Y00459
Y00471
X01399Y00504
X01455Y00451
Y00438
T02
X010665Y000407
X011803
X01294
X011832Y002555
X0123Y004
X009528Y000407
X002988Y001352
Y001495
X003275Y002196
X003642Y002035
X002023Y001958
X001635Y00196
X001073Y001942
X001335Y00156
X00118Y00329
X000957Y003653
X002082Y00274
X002467Y002745
X00251Y006135
Y006335
Y006535
X00158Y005642
X00266Y006135
X00281
X00296
Y006335
X00281
X00266
Y006535
X00281
X00296
X00355Y00635
X013005Y004822
X01325Y004075
T03
X011695Y003408
Y003608
X012235
X012235Y003408
X0145Y003425
Y003225
X01025Y003405
Y003605
X002125Y005138
Y005462
T04
X00175Y00415
X002004Y00415
X002258
X002512
T05
X002731Y001895
Y002095
X002984
Y001895
X002476
Y002095
X002223
Y001895
T06
X0121Y004296
Y004804
T07
X001508Y-00016
X001762
X001945
X0022
X002391
X002644
X004125Y00495
Y00545
T08
X0177Y0
Y000254
Y000508
Y000762
X016152Y001569
X015898
X015552
X015298
X014952
X014698
Y002331
X014952
X015298
X015552
X015898
X016152
X014352
X014098
X013712Y002027
Y001773
X013458
X013204
X01295
X012696
X012442
X012188
Y002027
X012442
X012696
X01295
X013204
X013458
X014098Y001569
X014352
X011827Y001569
X011573
X011227
X010973
X010627
Y002331
X010973
X011227
X011573
X011827
X010373
X010027
X009773
Y001569
X010027
X010373
X008175Y0014
X007921
X007667
X007413
X007046Y002951
X007994Y003048
Y003302
X008756
Y003048
X005014Y002951
X005955Y00109
X006209
X001586Y002214
X001586Y002468
Y002722
X001586Y002976
X000824Y002976
Y002722
X000824Y002468
X000824Y002214
X000177Y002096
Y00235
Y002604
Y002858
Y003112
X-000077
Y002858
Y002604
Y00235
Y002096
Y001842
X000177
Y001588
X-000077
X005776Y004983
X006284Y004983
X007046Y004983
X011388Y006323
X011642
X011896
X01215
X012404
X012658
X012912
Y006577
X012658
X012404
X01215
X011896
X011642
X011388
X01436Y00503
X014614
X014868
X015122
X015042Y006323
X015296
X01555
X015804
X016058
X016312
Y006577
X016058
X015804
X01555
X015296
X015042
X014788
Y006323
T09
X000635Y-000045
X001085
X005898Y-000381
X006152
X010904Y000641
X011158
X011032Y000894
X011286
X012169
X012423
X012296Y000641
X012042
X013179
X013434
X013307Y000894
X01356
X010148
X009894
X009767Y000641
X010021
X008504
X00825
X008376Y000894
X008631
X007493
X007239
X007112Y000641
X007366
X006152Y000381
X005898
X005317Y000641
X005063
X00481
X004683Y000894
X004937
X00519
X003973
X003719
X003465
X003211
X003084Y000641
X003338
X003592
X003846
X00063Y000753
Y001007
Y00126
X00075Y004346
Y004854
Y005346
Y005854
X002875Y00545
X003275
Y00495
X002875
X0092Y006572
T10
X00051Y000205
X00121
T11
X-00005Y00435
Y00485
Y00535
Y00585
T12
X014195Y0
X014545
X014895
X015245
X015595
X015945
X016295
X016645
T13
X002938Y004345
X00447Y00435
T14
X0Y0
X0175Y002
Y00325
X00925
X008Y002
X00205Y0065
X0
X00485
X0175
T15
X004492Y000005
X005508
X006919
X007686
X008057
X008823
X009575
X01034
X010712
X011478
X01185
X012615
X012987
X013753
T16
X002958Y000005
X004101
M30
